<svg width="55" height="38" viewBox="0 0 55 38" fill="none" xmlns="http://www.w3.org/2000/svg">
<path fill-rule="evenodd" clip-rule="evenodd" d="M17.7678 1.0759C27.2344 1.0759 34.9086 8.75031 34.9086 18.2169C34.9086 27.6834 27.2344 35.3579 17.7678 35.3579C8.30116 35.3579 0.626885 27.6834 0.626885 18.2169C0.626885 8.75031 8.30116 1.0759 17.7678 1.0759Z" fill="#FF7D44"/>
<path d="M19.1782 18.3248C19.4601 18.5503 19.6668 18.7289 19.7984 18.8604C19.9488 18.992 20.0897 19.1987 20.2213 19.4806C20.3717 19.7626 20.4468 20.0633 20.4468 20.3828C20.4468 21.1346 20.0991 21.7924 19.4037 22.3563C18.7083 22.9013 17.7498 23.1738 16.5281 23.1738C15.4756 23.1738 14.6674 22.9577 14.1036 22.5254C13.5397 22.0931 13.2578 21.5857 13.2578 21.003C13.2578 20.2512 13.6525 19.6404 14.4419 19.1705C15.0245 18.8134 15.8233 18.5973 16.8382 18.5221C16.6879 18.259 16.6127 18.0147 16.6127 17.7891C16.6127 17.6575 16.6221 17.5636 16.6409 17.5072H16.5281C15.7387 17.5072 15.1091 17.2629 14.6392 16.7742C14.1882 16.3231 13.9626 15.7875 13.9626 15.1672C13.9626 14.3779 14.2915 13.7106 14.9493 13.1656C15.6448 12.6205 16.5281 12.348 17.5994 12.348H21.3772L19.6856 13.2784H19.3191C19.7514 13.7858 19.9676 14.3309 19.9676 14.9135C19.9676 15.2706 19.8924 15.5995 19.742 15.9002C19.5917 16.1822 19.4413 16.3889 19.2909 16.5205C19.1594 16.652 18.962 16.8118 18.6989 16.9997V17.0279C18.4922 17.2347 18.3888 17.3944 18.3888 17.5072C18.3888 17.6388 18.4828 17.7797 18.6707 17.9301L19.1782 18.3248ZM15.6542 14.4906C15.6542 14.9793 15.7857 15.4586 16.0488 15.9284C16.3496 16.4359 16.7349 16.6896 17.2047 16.6896C17.5242 16.6896 17.7874 16.5862 17.9941 16.3795C18.1821 16.1916 18.276 15.9096 18.276 15.5337C18.276 15.0451 18.1351 14.547 17.8531 14.0395C17.5336 13.5133 17.1577 13.2502 16.7255 13.2502C16.3684 13.2502 16.0958 13.3723 15.9079 13.6167C15.7387 13.8234 15.6542 14.1147 15.6542 14.4906ZM19.0654 20.9184C19.0654 20.6553 18.9714 20.4204 18.7835 20.2136C18.5955 20.0069 18.2196 19.7156 17.6558 19.3397C17.637 19.3397 17.5994 19.3397 17.543 19.3397C17.5054 19.3209 17.4679 19.3115 17.4303 19.3115C16.9604 19.3115 16.4905 19.3867 16.0207 19.537C15.3064 19.8002 14.9493 20.1948 14.9493 20.7211C14.9493 21.1534 15.1561 21.5011 15.5696 21.7642C15.9831 22.0273 16.5281 22.1589 17.2047 22.1589C17.7874 22.1589 18.2384 22.0461 18.558 21.8206C18.8963 21.5951 19.0654 21.2943 19.0654 20.9184ZM23.6889 14.547H25.8879V15.5055H23.6889V17.7891H22.7304V15.5055H20.475V14.547H22.7304V12.348H23.6889V14.547Z" fill="white"/>
</svg>
