<svg width="1920" height="1028" viewBox="0 0 1920 1028" fill="none" xmlns="http://www.w3.org/2000/svg">
<g clip-path="url(#clip0_303_197251)">
<g clip-path="url(#clip1_303_197251)">
<path d="M1651.15 361.935C1653.73 361.935 1653.73 357.95 1651.15 357.95C1648.64 358.028 1648.64 361.935 1651.15 361.935Z" fill="#EEEEEE"/>
<path d="M1657.56 337.636C1660.14 337.636 1660.14 333.651 1657.56 333.651C1655.05 333.729 1655.05 337.636 1657.56 337.636Z" fill="#EEEEEE"/>
<path d="M1669.28 306.696C1671.86 306.696 1671.86 302.79 1669.28 302.79C1666.78 302.79 1666.78 306.696 1669.28 306.696Z" fill="#EEEEEE"/>
<path d="M1682.34 280.446C1684.84 280.446 1684.92 276.461 1682.34 276.461C1679.76 276.539 1679.76 280.446 1682.34 280.446Z" fill="#EEEEEE"/>
<path d="M1696.8 258.257C1699.38 258.257 1699.38 254.272 1696.8 254.272C1694.3 254.351 1694.3 258.257 1696.8 258.257Z" fill="#EEEEEE"/>
<path d="M1716.03 233.725C1718.53 233.725 1718.61 229.74 1716.03 229.74C1713.53 229.818 1713.53 233.725 1716.03 233.725Z" fill="#EEEEEE"/>
<path d="M1739.09 209.427C1741.59 209.427 1741.67 205.442 1739.09 205.442C1736.59 205.521 1736.59 209.427 1739.09 209.427Z" fill="#EEEEEE"/>
<path d="M1749.95 199.817C1752.45 199.817 1752.53 195.832 1749.95 195.832C1747.45 195.91 1747.45 199.817 1749.95 199.817Z" fill="#EEEEEE"/>
<path d="M1776.69 179.972C1779.19 179.972 1779.27 175.987 1776.69 175.987C1774.11 176.065 1774.11 179.972 1776.69 179.972Z" fill="#EEEEEE"/>
<path d="M1809.28 161.455C1811.78 161.455 1811.86 157.471 1809.28 157.471C1806.78 157.471 1806.78 161.455 1809.28 161.455Z" fill="#EEEEEE"/>
<path d="M1837.03 149.736C1839.61 149.736 1839.61 145.751 1837.03 145.751C1834.53 145.751 1834.53 149.736 1837.03 149.736Z" fill="#EEEEEE"/>
<path d="M1855.87 143.095C1858.37 143.095 1858.45 139.188 1855.87 139.188C1853.29 139.188 1853.29 143.095 1855.87 143.095Z" fill="#EEEEEE"/>
<path d="M1882.29 136.453C1884.8 136.453 1884.87 132.547 1882.29 132.547C1879.79 132.547 1879.71 136.453 1882.29 136.453Z" fill="#EEEEEE"/>
<path d="M1911.53 132.469C1914.11 132.469 1914.11 128.484 1911.53 128.484C1909.03 128.484 1909.03 132.469 1911.53 132.469Z" fill="#EEEEEE"/>
<path d="M1877.21 718.203C1879.71 718.203 1879.79 714.296 1877.21 714.296C1874.63 714.218 1874.63 718.203 1877.21 718.203Z" fill="#EEEEEE"/>
<path d="M1834.69 705.78C1837.19 705.78 1837.27 701.795 1834.69 701.795C1832.19 701.873 1832.19 705.78 1834.69 705.78Z" fill="#EEEEEE"/>
<path d="M1797.32 688.748C1799.9 688.748 1799.9 684.842 1797.32 684.842C1794.82 684.842 1794.82 688.748 1797.32 688.748Z" fill="#EEEEEE"/>
<path d="M1756.6 661.638C1759.1 661.638 1759.18 657.731 1756.6 657.731C1754.02 657.731 1754.02 661.638 1756.6 661.638Z" fill="#EEEEEE"/>
<path d="M1727.13 634.37C1729.63 634.37 1729.71 630.386 1727.13 630.386C1724.63 630.386 1724.63 634.37 1727.13 634.37Z" fill="#EEEEEE"/>
<path d="M1698.52 600.618C1701.1 600.618 1701.1 596.634 1698.52 596.634C1696.02 596.712 1696.02 600.618 1698.52 600.618Z" fill="#EEEEEE"/>
<path d="M1677.65 567.179C1680.23 567.179 1680.23 563.194 1677.65 563.194C1675.07 563.194 1675.07 567.179 1677.65 567.179Z" fill="#EEEEEE"/>
<path d="M1660.14 526.63C1662.72 526.63 1662.72 522.646 1660.14 522.646C1657.56 522.724 1657.56 526.63 1660.14 526.63Z" fill="#EEEEEE"/>
<path d="M1647.78 479.909C1650.36 479.909 1650.36 475.925 1647.78 475.925C1645.2 476.003 1645.2 479.909 1647.78 479.909Z" fill="#EEEEEE"/>
<path d="M1643.88 437.719C1646.38 437.719 1646.46 433.734 1643.88 433.734C1641.37 433.734 1641.37 437.719 1643.88 437.719Z" fill="#EEEEEE"/>
<path d="M1644.74 398.42C1647.24 398.42 1647.32 394.436 1644.74 394.436C1642.23 394.514 1642.23 398.42 1644.74 398.42Z" fill="#EEEEEE"/>
<path d="M1653.49 374.982C1655.99 374.982 1656.07 371.075 1653.49 371.075C1650.99 370.997 1650.99 374.982 1653.49 374.982Z" fill="#EEEEEE"/>
<path d="M1655.84 363.887C1658.42 363.887 1658.42 359.981 1655.84 359.981C1653.33 359.902 1653.33 363.887 1655.84 363.887Z" fill="#EEEEEE"/>
<path d="M1659.04 353.653C1661.62 353.653 1661.62 349.668 1659.04 349.668C1656.54 349.668 1656.54 353.653 1659.04 353.653Z" fill="#EEEEEE"/>
<path d="M1659.67 343.808C1662.25 343.808 1662.25 339.823 1659.67 339.823C1657.16 339.901 1657.16 343.808 1659.67 343.808Z" fill="#EEEEEE"/>
<path d="M1665.06 351.699C1667.64 351.699 1667.64 347.715 1665.06 347.715C1662.48 347.793 1662.48 351.699 1665.06 351.699Z" fill="#EEEEEE"/>
<path d="M1671.86 344.902C1674.36 344.902 1674.44 340.917 1671.86 340.917C1669.36 340.917 1669.28 344.902 1671.86 344.902Z" fill="#EEEEEE"/>
<path d="M1673.82 327.01C1676.32 327.01 1676.4 323.025 1673.82 323.025C1671.24 323.025 1671.24 327.01 1673.82 327.01Z" fill="#EEEEEE"/>
<path d="M1687.03 301.775C1689.53 301.775 1689.61 297.79 1687.03 297.79C1684.45 297.868 1684.45 301.775 1687.03 301.775Z" fill="#EEEEEE"/>
<path d="M1678.9 305.446C1681.4 305.446 1681.48 301.462 1678.9 301.462C1676.4 301.462 1676.4 305.446 1678.9 305.446Z" fill="#EEEEEE"/>
<path d="M1691.79 274.899C1694.37 274.899 1694.37 270.914 1691.79 270.914C1689.29 270.914 1689.29 274.899 1691.79 274.899Z" fill="#EEEEEE"/>
<path d="M1695.55 288.727C1698.05 288.727 1698.13 284.742 1695.55 284.742C1692.97 284.742 1692.97 288.727 1695.55 288.727Z" fill="#EEEEEE"/>
<path d="M1698.52 276.07C1701.02 276.07 1701.1 272.085 1698.52 272.085C1695.94 272.085 1695.94 276.07 1698.52 276.07Z" fill="#EEEEEE"/>
<path d="M1702.97 263.258C1705.55 263.258 1705.55 259.273 1702.97 259.273C1700.47 259.352 1700.47 263.258 1702.97 263.258Z" fill="#EEEEEE"/>
<path d="M1714.15 257.007C1716.65 257.007 1716.73 253.022 1714.15 253.022C1711.57 253.101 1711.57 257.007 1714.15 257.007Z" fill="#EEEEEE"/>
<path d="M1725.88 241.849C1728.46 241.849 1728.46 237.864 1725.88 237.864C1723.37 237.942 1723.37 241.849 1725.88 241.849Z" fill="#EEEEEE"/>
<path d="M1708.6 252.241C1711.18 252.241 1711.18 248.257 1708.6 248.257C1706.1 248.335 1706.1 252.241 1708.6 252.241Z" fill="#EEEEEE"/>
<path d="M1711.49 275.054C1713.99 275.054 1714.07 271.069 1711.49 271.069C1708.91 271.069 1708.91 275.054 1711.49 275.054Z" fill="#EEEEEE"/>
<path d="M1726.66 252.554C1729.16 252.554 1729.24 248.569 1726.66 248.569C1724.08 248.647 1724.08 252.554 1726.66 252.554Z" fill="#EEEEEE"/>
<path d="M1740.65 235.756C1743.15 235.756 1743.23 231.771 1740.65 231.771C1738.07 231.771 1738.07 235.756 1740.65 235.756Z" fill="#EEEEEE"/>
<path d="M1744.64 223.255C1747.14 223.255 1747.22 219.271 1744.64 219.271C1742.14 219.349 1742.14 223.255 1744.64 223.255Z" fill="#EEEEEE"/>
<path d="M1758.08 201.847C1760.58 201.847 1760.66 197.862 1758.08 197.862C1755.5 197.862 1755.5 201.847 1758.08 201.847Z" fill="#EEEEEE"/>
<path d="M1753.86 215.208C1756.36 215.208 1756.44 211.224 1753.86 211.224C1751.36 211.302 1751.36 215.208 1753.86 215.208Z" fill="#EEEEEE"/>
<path d="M1763.24 207.785C1765.74 207.785 1765.82 203.801 1763.24 203.801C1760.74 203.879 1760.74 207.785 1763.24 207.785Z" fill="#EEEEEE"/>
<path d="M1759.57 217.473C1762.07 217.473 1762.15 213.488 1759.57 213.488C1756.99 213.488 1756.99 217.473 1759.57 217.473Z" fill="#EEEEEE"/>
<path d="M1748 225.13C1747.92 225.208 1747.92 225.208 1747.84 225.287C1746.04 227.084 1748.86 229.896 1750.66 228.099C1750.73 228.021 1750.73 228.021 1750.81 227.943C1752.61 226.068 1749.8 223.333 1748 225.13Z" fill="#EEEEEE"/>
<path d="M1777.23 202.317C1779.81 202.317 1779.81 198.332 1777.23 198.332C1774.73 198.332 1774.73 202.317 1777.23 202.317Z" fill="#EEEEEE"/>
<path d="M1777.7 214.035C1780.28 214.035 1780.28 210.051 1777.7 210.051C1775.12 210.129 1775.12 214.035 1777.7 214.035Z" fill="#EEEEEE"/>
<path d="M1783.17 203.567C1783.17 203.645 1783.17 203.645 1783.17 203.723C1783.17 206.223 1787.16 206.301 1787.16 203.723C1787.16 203.645 1787.16 203.645 1787.16 203.567C1787.08 201.066 1783.17 201.066 1783.17 203.567Z" fill="#EEEEEE"/>
<path d="M1790.37 214.895C1792.87 214.895 1792.95 210.91 1790.37 210.91C1787.79 210.988 1787.79 214.895 1790.37 214.895Z" fill="#EEEEEE"/>
<path d="M1780.52 219.818C1783.02 219.818 1783.1 215.833 1780.52 215.833C1778.02 215.911 1777.94 219.818 1780.52 219.818Z" fill="#EEEEEE"/>
<path d="M1757.77 225.364C1760.27 225.364 1760.35 221.38 1757.77 221.38C1755.19 221.38 1755.19 225.364 1757.77 225.364Z" fill="#EEEEEE"/>
<path d="M1800.76 219.114C1803.26 219.114 1803.34 215.207 1800.76 215.207C1798.18 215.129 1798.18 219.114 1800.76 219.114Z" fill="#EEEEEE"/>
<path d="M1800.14 228.489C1802.72 228.489 1802.72 224.505 1800.14 224.505C1797.64 224.505 1797.64 228.489 1800.14 228.489Z" fill="#EEEEEE"/>
<path d="M1783.02 248.413C1785.6 248.413 1785.6 244.429 1783.02 244.429C1780.52 244.429 1780.52 248.413 1783.02 248.413Z" fill="#EEEEEE"/>
<path d="M1769.03 268.024C1771.53 268.024 1771.61 264.039 1769.03 264.039C1766.53 264.117 1766.53 268.024 1769.03 268.024Z" fill="#EEEEEE"/>
<path d="M1752.53 283.024C1755.03 283.024 1755.11 279.039 1752.53 279.039C1750.03 279.117 1750.03 283.024 1752.53 283.024Z" fill="#EEEEEE"/>
<path d="M1759.65 285.759C1762.15 285.759 1762.23 281.774 1759.65 281.774C1757.14 281.774 1757.14 285.759 1759.65 285.759Z" fill="#EEEEEE"/>
<path d="M1737.21 295.681C1739.71 295.681 1739.79 291.774 1737.21 291.774C1734.63 291.774 1734.63 295.681 1737.21 295.681Z" fill="#EEEEEE"/>
<path d="M1720.4 303.415C1722.98 303.415 1722.98 299.431 1720.4 299.431C1717.82 299.509 1717.82 303.415 1720.4 303.415Z" fill="#EEEEEE"/>
<path d="M1699.14 328.73C1701.64 328.73 1701.72 324.745 1699.14 324.745C1696.56 324.745 1696.56 328.73 1699.14 328.73Z" fill="#EEEEEE"/>
<path d="M1701.49 306.229C1703.99 306.229 1704.07 302.244 1701.49 302.244C1698.99 302.322 1698.91 306.229 1701.49 306.229Z" fill="#EEEEEE"/>
<path d="M1712.51 286.149C1715.01 286.149 1715.09 282.164 1712.51 282.164C1709.93 282.242 1709.93 286.149 1712.51 286.149Z" fill="#EEEEEE"/>
<path d="M1725.88 269.976C1728.46 269.976 1728.46 266.069 1725.88 266.069C1723.37 265.991 1723.37 269.976 1725.88 269.976Z" fill="#EEEEEE"/>
<path d="M1743.78 251.226C1746.28 251.226 1746.36 247.241 1743.78 247.241C1741.2 247.319 1741.2 251.226 1743.78 251.226Z" fill="#EEEEEE"/>
<path d="M1752.38 233.647C1754.88 233.647 1754.96 229.74 1752.38 229.74C1749.87 229.74 1749.87 233.647 1752.38 233.647Z" fill="#EEEEEE"/>
<path d="M1768.63 226.068C1771.21 226.068 1771.21 222.083 1768.63 222.083C1766.06 222.161 1766.06 226.068 1768.63 226.068Z" fill="#EEEEEE"/>
<path d="M1813.74 235.912C1816.32 235.912 1816.32 231.928 1813.74 231.928C1811.16 231.928 1811.16 235.912 1813.74 235.912Z" fill="#EEEEEE"/>
<path d="M1825.15 225.364C1827.73 225.364 1827.73 221.38 1825.15 221.38C1822.65 221.38 1822.65 225.364 1825.15 225.364Z" fill="#EEEEEE"/>
<path d="M1826.09 240.209C1828.59 240.209 1828.67 236.225 1826.09 236.225C1823.51 236.303 1823.51 240.209 1826.09 240.209Z" fill="#EEEEEE"/>
<path d="M1819.05 246.772C1821.56 246.772 1821.63 242.787 1819.05 242.787C1816.55 242.787 1816.55 246.772 1819.05 246.772Z" fill="#EEEEEE"/>
<path d="M1744.48 305.681C1746.98 305.681 1747.06 301.696 1744.48 301.696C1741.98 301.696 1741.98 305.681 1744.48 305.681Z" fill="#EEEEEE"/>
<path d="M1760.27 307.634C1762.77 307.634 1762.85 303.649 1760.27 303.649C1757.77 303.649 1757.77 307.634 1760.27 307.634Z" fill="#EEEEEE"/>
<path d="M1756.13 317.869C1758.71 317.869 1758.71 313.885 1756.13 313.885C1753.55 313.885 1753.55 317.869 1756.13 317.869Z" fill="#EEEEEE"/>
<path d="M1743.78 324.745C1746.28 324.745 1746.36 320.761 1743.78 320.761C1741.2 320.761 1741.2 324.745 1743.78 324.745Z" fill="#EEEEEE"/>
<path d="M1754.17 379.747C1756.68 379.747 1756.75 375.763 1754.17 375.763C1751.67 375.841 1751.59 379.747 1754.17 379.747Z" fill="#EEEEEE"/>
<path d="M1763.24 372.482C1765.74 372.482 1765.82 368.497 1763.24 368.497C1760.74 368.497 1760.74 372.482 1763.24 372.482Z" fill="#EEEEEE"/>
<path d="M1766.52 382.248C1769.03 382.248 1769.1 378.264 1766.52 378.264C1764.02 378.342 1764.02 382.248 1766.52 382.248Z" fill="#EEEEEE"/>
<path d="M1761.76 391.936C1764.26 391.936 1764.34 387.951 1761.76 387.951C1759.25 388.029 1759.25 391.936 1761.76 391.936Z" fill="#EEEEEE"/>
<path d="M1752.06 394.045C1754.57 394.045 1754.64 390.061 1752.06 390.061C1749.56 390.061 1749.56 394.045 1752.06 394.045Z" fill="#EEEEEE"/>
<path d="M1768.79 354.59C1771.37 354.59 1771.37 350.605 1768.79 350.605C1766.21 350.684 1766.21 354.59 1768.79 354.59Z" fill="#EEEEEE"/>
<path d="M1778.41 349.12C1780.99 349.12 1780.99 345.214 1778.41 345.214C1775.9 345.136 1775.9 349.12 1778.41 349.12Z" fill="#EEEEEE"/>
<path d="M1780.83 359.199C1783.41 359.199 1783.41 355.215 1780.83 355.215C1778.25 355.293 1778.25 359.199 1780.83 359.199Z" fill="#EEEEEE"/>
<path d="M1775.91 366.231C1778.49 366.231 1778.49 362.246 1775.91 362.246C1773.4 362.246 1773.33 366.231 1775.91 366.231Z" fill="#EEEEEE"/>
<path d="M1784.11 375.607C1786.61 375.607 1786.69 371.7 1784.11 371.7C1781.53 371.622 1781.53 375.607 1784.11 375.607Z" fill="#EEEEEE"/>
<path d="M1792.16 384.983C1794.67 384.983 1794.74 381.076 1792.16 381.076C1789.58 380.998 1789.58 384.983 1792.16 384.983Z" fill="#EEEEEE"/>
<path d="M1787.4 396.545C1789.9 396.545 1789.98 392.561 1787.4 392.561C1784.82 392.639 1784.82 396.545 1787.4 396.545Z" fill="#EEEEEE"/>
<path d="M1766.99 403.967C1769.49 403.967 1769.57 399.982 1766.99 399.982C1764.41 400.061 1764.41 403.967 1766.99 403.967Z" fill="#EEEEEE"/>
<path d="M1772.31 391.936C1774.89 391.936 1774.89 387.951 1772.31 387.951C1769.81 388.029 1769.81 391.936 1772.31 391.936Z" fill="#EEEEEE"/>
<path d="M1772.47 382.013C1774.97 382.013 1775.05 378.028 1772.47 378.028C1769.96 378.028 1769.96 382.013 1772.47 382.013Z" fill="#EEEEEE"/>
<path d="M1776.37 376.154C1778.95 376.154 1778.95 372.169 1776.37 372.169C1773.79 372.247 1773.79 376.154 1776.37 376.154Z" fill="#EEEEEE"/>
<path d="M1768.48 366.934C1771.06 366.934 1771.06 362.949 1768.48 362.949C1765.9 363.027 1765.9 366.934 1768.48 366.934Z" fill="#EEEEEE"/>
<path d="M1801.08 328.885C1803.58 328.885 1803.65 324.9 1801.08 324.9C1798.5 324.9 1798.5 328.885 1801.08 328.885Z" fill="#EEEEEE"/>
<path d="M1811.32 317.401C1813.9 317.401 1813.9 313.494 1811.32 313.494C1808.82 313.494 1808.82 317.401 1811.32 317.401Z" fill="#EEEEEE"/>
<path d="M1819.52 296.775C1822.03 296.775 1822.1 292.79 1819.52 292.79C1816.94 292.79 1816.94 296.775 1819.52 296.775Z" fill="#EEEEEE"/>
<path d="M1829.37 277.867C1831.95 277.867 1831.95 273.883 1829.37 273.883C1826.79 273.883 1826.79 277.867 1829.37 277.867Z" fill="#EEEEEE"/>
<path d="M1845.87 265.054C1848.45 265.054 1848.45 261.069 1845.87 261.069C1843.29 261.147 1843.29 265.054 1845.87 265.054Z" fill="#EEEEEE"/>
<path d="M1862.36 267.32C1864.86 267.32 1864.94 263.413 1862.36 263.413C1859.86 263.335 1859.86 267.32 1862.36 267.32Z" fill="#EEEEEE"/>
<path d="M1877.68 268.961C1880.26 268.961 1880.26 264.977 1877.68 264.977C1875.18 264.977 1875.18 268.961 1877.68 268.961Z" fill="#EEEEEE"/>
<path d="M1881.43 275.054C1883.94 275.054 1884.01 271.069 1881.43 271.069C1878.86 271.069 1878.86 275.054 1881.43 275.054Z" fill="#EEEEEE"/>
<path d="M1864.78 279.352C1867.36 279.352 1867.36 275.367 1864.78 275.367C1862.2 275.367 1862.2 279.352 1864.78 279.352Z" fill="#EEEEEE"/>
<path d="M1874.01 289.196C1876.59 289.196 1876.59 285.211 1874.01 285.211C1871.43 285.211 1871.43 289.196 1874.01 289.196Z" fill="#EEEEEE"/>
<path d="M1884.56 286.93C1887.06 286.93 1887.14 282.945 1884.56 282.945C1881.98 282.945 1881.98 286.93 1884.56 286.93Z" fill="#EEEEEE"/>
<path d="M1882.45 259.429C1885.03 259.429 1885.03 255.523 1882.45 255.523C1879.95 255.444 1879.95 259.429 1882.45 259.429Z" fill="#EEEEEE"/>
<path d="M1891.28 264.741C1893.79 264.741 1893.86 260.757 1891.28 260.757C1888.7 260.835 1888.7 264.741 1891.28 264.741Z" fill="#EEEEEE"/>
<path d="M1893.79 248.256C1896.36 248.256 1896.36 244.271 1893.79 244.271C1891.21 244.271 1891.21 248.256 1893.79 248.256Z" fill="#EEEEEE"/>
<path d="M1903.87 235.6C1906.45 235.6 1906.45 231.615 1903.87 231.615C1901.37 231.693 1901.37 235.6 1903.87 235.6Z" fill="#EEEEEE"/>
<path d="M1917.47 231.772C1920.05 231.772 1920.05 227.787 1917.47 227.787C1914.89 227.787 1914.89 231.772 1917.47 231.772Z" fill="#EEEEEE"/>
<path d="M1894.96 218.645C1897.54 218.645 1897.54 214.66 1894.96 214.66C1892.46 214.738 1892.46 218.645 1894.96 218.645Z" fill="#EEEEEE"/>
<path d="M1906.14 215.676C1908.72 215.676 1908.72 211.691 1906.14 211.691C1903.63 211.691 1903.56 215.676 1906.14 215.676Z" fill="#EEEEEE"/>
<path d="M1909.89 206.301C1912.47 206.301 1912.47 202.316 1909.89 202.316C1907.31 202.395 1907.31 206.301 1909.89 206.301Z" fill="#EEEEEE"/>
<path d="M1898.55 207.082C1901.13 207.082 1901.13 203.098 1898.55 203.098C1895.97 203.098 1895.97 207.082 1898.55 207.082Z" fill="#EEEEEE"/>
<path d="M1889.49 195.128C1891.99 195.128 1892.07 191.144 1889.49 191.144C1886.91 191.222 1886.91 195.128 1889.49 195.128Z" fill="#EEEEEE"/>
<path d="M1878.78 187.394C1881.36 187.394 1881.36 183.409 1878.78 183.409C1876.2 183.487 1876.2 187.394 1878.78 187.394Z" fill="#EEEEEE"/>
<path d="M1892.77 179.113C1895.35 179.113 1895.35 175.128 1892.77 175.128C1890.19 175.128 1890.19 179.113 1892.77 179.113Z" fill="#EEEEEE"/>
<path d="M1910.05 182.238C1912.62 182.238 1912.62 178.253 1910.05 178.253C1907.47 178.253 1907.47 182.238 1910.05 182.238Z" fill="#EEEEEE"/>
<path d="M1903.79 167.471C1906.37 167.471 1906.37 163.486 1903.79 163.486C1901.21 163.564 1901.21 167.471 1903.79 167.471Z" fill="#EEEEEE"/>
<path d="M1914.73 159.737C1917.31 159.737 1917.31 155.752 1914.73 155.752C1912.23 155.83 1912.23 159.737 1914.73 159.737Z" fill="#EEEEEE"/>
<path d="M1896.13 155.907C1898.71 155.907 1898.71 151.923 1896.13 151.923C1893.63 151.923 1893.63 155.907 1896.13 155.907Z" fill="#EEEEEE"/>
<path d="M1883.08 144.423C1885.66 144.423 1885.66 140.517 1883.08 140.517C1880.5 140.439 1880.5 144.423 1883.08 144.423Z" fill="#EEEEEE"/>
<path d="M1909.73 647.028C1912.23 647.028 1912.31 643.043 1909.73 643.043C1907.15 643.121 1907.15 647.028 1909.73 647.028Z" fill="#EEEEEE"/>
<path d="M1897.77 638.589C1900.27 638.589 1900.35 634.604 1897.77 634.604C1895.27 634.604 1895.27 638.589 1897.77 638.589Z" fill="#EEEEEE"/>
<path d="M1893.08 623.276C1895.66 623.276 1895.66 619.291 1893.08 619.291C1890.58 619.369 1890.58 623.276 1893.08 623.276Z" fill="#EEEEEE"/>
<path d="M1877.21 619.213C1877.13 619.291 1877.13 619.291 1877.06 619.37C1875.26 621.167 1878.07 623.979 1879.87 622.182C1879.95 622.104 1879.95 622.104 1880.03 622.026C1881.75 620.151 1879.01 617.416 1877.21 619.213Z" fill="#EEEEEE"/>
<path d="M1858.76 619.213C1861.27 619.213 1861.34 615.229 1858.76 615.229C1856.19 615.229 1856.19 619.213 1858.76 619.213Z" fill="#EEEEEE"/>
<path d="M1836.56 625.932C1839.07 625.932 1839.14 621.947 1836.56 621.947C1834.06 622.025 1834.06 625.932 1836.56 625.932Z" fill="#EEEEEE"/>
<path d="M1811.24 629.448C1813.74 629.448 1813.82 625.464 1811.24 625.464C1808.66 625.542 1808.66 629.448 1811.24 629.448Z" fill="#EEEEEE"/>
<path d="M1789.35 621.088C1791.93 621.088 1791.93 617.104 1789.35 617.104C1786.77 617.182 1786.77 621.088 1789.35 621.088Z" fill="#EEEEEE"/>
<path d="M1772.62 607.572C1775.12 607.572 1775.2 603.588 1772.62 603.588C1770.04 603.666 1770.04 607.572 1772.62 607.572Z" fill="#EEEEEE"/>
<path d="M1759.88 593.352C1759.8 593.274 1759.8 593.274 1759.72 593.196C1757.93 591.399 1755.11 594.212 1756.91 596.009C1756.99 596.087 1756.99 596.087 1757.07 596.165C1758.94 597.962 1761.68 595.149 1759.88 593.352Z" fill="#EEEEEE"/>
<path d="M1751.67 581.243C1751.67 581.165 1751.67 581.165 1751.67 581.087C1751.67 578.509 1747.76 578.509 1747.76 581.087C1747.76 581.165 1747.76 581.165 1747.76 581.243C1747.76 583.822 1751.67 583.822 1751.67 581.243Z" fill="#EEEEEE"/>
<path d="M1746.59 565.773C1749.09 565.773 1749.17 561.788 1746.59 561.788C1744.09 561.866 1744.09 565.773 1746.59 565.773Z" fill="#EEEEEE"/>
<path d="M1741.75 546.709C1741.82 546.709 1741.82 546.709 1741.9 546.709C1744.4 546.709 1744.48 542.725 1741.9 542.725C1741.82 542.725 1741.82 542.725 1741.75 542.725C1739.24 542.803 1739.24 546.709 1741.75 546.709Z" fill="#EEEEEE"/>
<path d="M1750.27 526.63C1752.77 526.63 1752.85 522.646 1750.27 522.646C1747.76 522.646 1747.76 526.63 1750.27 526.63Z" fill="#EEEEEE"/>
<path d="M1759.57 518.818C1762.15 518.818 1762.15 514.833 1759.57 514.833C1756.99 514.911 1756.99 518.818 1759.57 518.818Z" fill="#EEEEEE"/>
<path d="M1760.9 501.551C1763.4 501.551 1763.48 497.566 1760.9 497.566C1758.32 497.566 1758.32 501.551 1760.9 501.551Z" fill="#EEEEEE"/>
<path d="M1769.26 495.769C1771.76 495.769 1771.84 491.784 1769.26 491.784C1766.68 491.862 1766.68 495.769 1769.26 495.769Z" fill="#EEEEEE"/>
<path d="M1772.15 487.722C1774.73 487.722 1774.73 483.737 1772.15 483.737C1769.65 483.815 1769.65 487.722 1772.15 487.722Z" fill="#EEEEEE"/>
<path d="M1785.52 487.879C1788.02 487.879 1788.1 483.895 1785.52 483.895C1782.94 483.973 1782.94 487.879 1785.52 487.879Z" fill="#EEEEEE"/>
<path d="M1802.25 478.659C1804.75 478.659 1804.83 474.675 1802.25 474.675C1799.75 474.675 1799.67 478.659 1802.25 478.659Z" fill="#EEEEEE"/>
<path d="M1823.82 472.956C1826.4 472.956 1826.4 469.05 1823.82 469.05C1821.32 468.972 1821.32 472.956 1823.82 472.956Z" fill="#EEEEEE"/>
<path d="M1843.37 468.658C1845.87 468.658 1845.94 464.674 1843.37 464.674C1840.79 464.752 1840.79 468.658 1843.37 468.658Z" fill="#EEEEEE"/>
<path d="M1843.21 484.831C1845.71 484.831 1845.79 480.847 1843.21 480.847C1840.63 480.847 1840.63 484.831 1843.21 484.831Z" fill="#EEEEEE"/>
<path d="M1862.44 488.581C1865.02 488.581 1865.02 484.597 1862.44 484.597C1859.86 484.675 1859.86 488.581 1862.44 488.581Z" fill="#EEEEEE"/>
<path d="M1874.32 493.034C1876.9 493.034 1876.9 489.05 1874.32 489.05C1871.82 489.05 1871.74 493.034 1874.32 493.034Z" fill="#EEEEEE"/>
<path d="M1892.53 492.175C1895.04 492.175 1895.11 488.19 1892.53 488.19C1889.95 488.19 1889.95 492.175 1892.53 492.175Z" fill="#EEEEEE"/>
<path d="M1898.24 476.159C1900.82 476.159 1900.82 472.175 1898.24 472.175C1895.74 472.175 1895.74 476.159 1898.24 476.159Z" fill="#EEEEEE"/>
<path d="M1920.44 475.847C1922.94 475.847 1923.02 471.862 1920.44 471.862C1917.86 471.94 1917.86 475.847 1920.44 475.847Z" fill="#EEEEEE"/>
<path d="M1917.94 444.282C1920.52 444.282 1920.52 440.298 1917.94 440.298C1915.36 440.376 1915.36 444.282 1917.94 444.282Z" fill="#EEEEEE"/>
<path d="M1906.45 438.578C1908.95 438.578 1909.03 434.594 1906.45 434.594C1903.95 434.672 1903.95 438.578 1906.45 438.578Z" fill="#EEEEEE"/>
<path d="M1902.23 426.156C1904.81 426.156 1904.81 422.172 1902.23 422.172C1899.65 422.172 1899.65 426.156 1902.23 426.156Z" fill="#EEEEEE"/>
<path d="M1891.91 433.189C1894.41 433.189 1894.49 429.204 1891.91 429.204C1889.41 429.204 1889.41 433.189 1891.91 433.189Z" fill="#EEEEEE"/>
<path d="M1900.59 444.047C1903.17 444.047 1903.17 440.062 1900.59 440.062C1898.08 440.062 1898.08 444.047 1900.59 444.047Z" fill="#EEEEEE"/>
<path d="M1897.69 456.315C1900.27 456.315 1900.27 452.33 1897.69 452.33C1895.11 452.408 1895.11 456.315 1897.69 456.315Z" fill="#EEEEEE"/>
<path d="M1887.22 446.392C1889.72 446.392 1889.8 442.407 1887.22 442.407C1884.72 442.407 1884.72 446.392 1887.22 446.392Z" fill="#EEEEEE"/>
<path d="M1904.1 459.751C1906.68 459.751 1906.68 455.767 1904.1 455.767C1901.6 455.767 1901.6 459.751 1904.1 459.751Z" fill="#EEEEEE"/>
<path d="M1909.81 454.44C1912.31 454.44 1912.39 450.455 1909.81 450.455C1907.31 450.455 1907.31 454.44 1909.81 454.44Z" fill="#EEEEEE"/>
<path d="M1918.49 456.079C1921.07 456.079 1921.07 452.095 1918.49 452.095C1915.99 452.095 1915.99 456.079 1918.49 456.079Z" fill="#EEEEEE"/>
<path d="M1910.59 459.986C1913.17 459.986 1913.17 456.001 1910.59 456.001C1908.01 456.079 1908.01 459.986 1910.59 459.986Z" fill="#EEEEEE"/>
<path d="M1874.17 435.219C1876.74 435.219 1876.74 431.234 1874.17 431.234C1871.66 431.234 1871.66 435.219 1874.17 435.219Z" fill="#EEEEEE"/>
<path d="M1857.28 424.671C1859.78 424.671 1859.86 420.687 1857.28 420.687C1854.78 420.687 1854.78 424.671 1857.28 424.671Z" fill="#EEEEEE"/>
<path d="M1842.04 416.547C1844.54 416.547 1844.62 412.562 1842.04 412.562C1839.46 412.641 1839.46 416.547 1842.04 416.547Z" fill="#EEEEEE"/>
<path d="M1837.89 423.734C1840.47 423.734 1840.47 419.749 1837.89 419.749C1835.39 419.827 1835.39 423.734 1837.89 423.734Z" fill="#EEEEEE"/>
<path d="M1847.59 432.719C1850.17 432.719 1850.17 428.734 1847.59 428.734C1845.09 428.813 1845.09 432.719 1847.59 432.719Z" fill="#EEEEEE"/>
<path d="M1860.64 436.547C1863.14 436.547 1863.22 432.562 1860.64 432.562C1858.14 432.562 1858.14 436.547 1860.64 436.547Z" fill="#EEEEEE"/>
<path d="M1874.17 442.954C1876.74 442.954 1876.74 438.97 1874.17 438.97C1871.66 439.048 1871.66 442.954 1874.17 442.954Z" fill="#EEEEEE"/>
<path d="M1865.1 443.736C1867.68 443.736 1867.68 439.751 1865.1 439.751C1862.52 439.751 1862.52 443.736 1865.1 443.736Z" fill="#EEEEEE"/>
<path d="M1867.29 450.142C1869.86 450.142 1869.86 446.157 1867.29 446.157C1864.71 446.235 1864.71 450.142 1867.29 450.142Z" fill="#EEEEEE"/>
<path d="M1862.99 464.83C1865.57 464.83 1865.57 460.846 1862.99 460.846C1860.48 460.924 1860.48 464.83 1862.99 464.83Z" fill="#EEEEEE"/>
<path d="M1852.98 462.096C1853.06 462.018 1853.06 461.861 1853.14 461.783C1854.31 459.518 1850.87 457.486 1849.7 459.83C1849.62 459.908 1849.62 459.986 1849.54 460.143C1848.45 462.408 1851.81 464.362 1852.98 462.096Z" fill="#EEEEEE"/>
<path d="M1860.56 452.798C1863.14 452.798 1863.14 448.813 1860.56 448.813C1857.98 448.892 1857.98 452.798 1860.56 452.798Z" fill="#EEEEEE"/>
<path d="M1852.59 443.892C1855.17 443.892 1855.17 439.907 1852.59 439.907C1850.09 439.907 1850.09 443.892 1852.59 443.892Z" fill="#EEEEEE"/>
<path d="M1836.72 436.861C1839.3 436.861 1839.3 432.876 1836.72 432.876C1834.22 432.876 1834.22 436.861 1836.72 436.861Z" fill="#EEEEEE"/>
<path d="M1825.86 428.344C1828.36 428.344 1828.44 424.359 1825.86 424.359C1823.35 424.359 1823.35 428.344 1825.86 428.344Z" fill="#EEEEEE"/>
<path d="M1816.79 437.876C1819.37 437.876 1819.37 433.892 1816.79 433.892C1814.21 433.892 1814.21 437.876 1816.79 437.876Z" fill="#EEEEEE"/>
<path d="M1801.78 438.032C1804.36 438.032 1804.36 434.048 1801.78 434.048C1799.28 434.048 1799.28 438.032 1801.78 438.032Z" fill="#EEEEEE"/>
<path d="M1803.26 446.626C1805.77 446.626 1805.84 442.642 1803.26 442.642C1800.76 442.72 1800.76 446.626 1803.26 446.626Z" fill="#EEEEEE"/>
<path d="M1794.04 456.157C1796.54 456.157 1796.62 452.173 1794.04 452.173C1791.46 452.251 1791.46 456.157 1794.04 456.157Z" fill="#EEEEEE"/>
<path d="M1793.02 469.674C1795.53 469.674 1795.6 465.689 1793.02 465.689C1790.44 465.768 1790.44 469.674 1793.02 469.674Z" fill="#EEEEEE"/>
<path d="M1781.38 477.643C1783.96 477.643 1783.96 473.658 1781.38 473.658C1778.88 473.658 1778.88 477.643 1781.38 477.643Z" fill="#EEEEEE"/>
<path d="M1771.29 480.221C1773.87 480.221 1773.87 476.314 1771.29 476.314C1768.71 476.314 1768.71 480.221 1771.29 480.221Z" fill="#EEEEEE"/>
<path d="M1757.93 476.471C1760.43 476.471 1760.51 472.486 1757.93 472.486C1755.35 472.486 1755.35 476.471 1757.93 476.471Z" fill="#EEEEEE"/>
<path d="M1756.75 458.814C1759.25 458.814 1759.33 454.829 1756.75 454.829C1754.17 454.907 1754.17 458.814 1756.75 458.814Z" fill="#EEEEEE"/>
<path d="M1754.96 441.782C1757.53 441.782 1757.53 437.798 1754.96 437.798C1752.45 437.876 1752.45 441.782 1754.96 441.782Z" fill="#EEEEEE"/>
<path d="M1770.67 441.235C1773.25 441.235 1773.25 437.25 1770.67 437.25C1768.17 437.25 1768.17 441.235 1770.67 441.235Z" fill="#EEEEEE"/>
<path d="M1783.64 437.095C1786.22 437.095 1786.22 433.11 1783.64 433.11C1781.06 433.188 1781.06 437.095 1783.64 437.095Z" fill="#EEEEEE"/>
<path d="M1780.52 421.702C1783.02 421.702 1783.1 417.718 1780.52 417.718C1778.02 417.796 1778.02 421.702 1780.52 421.702Z" fill="#EEEEEE"/>
<path d="M1769.65 413.656C1772.15 413.656 1772.23 409.672 1769.65 409.672C1767.15 409.672 1767.15 413.656 1769.65 413.656Z" fill="#EEEEEE"/>
<path d="M1782.55 406.624C1785.13 406.624 1785.13 402.64 1782.55 402.64C1780.05 402.64 1780.05 406.624 1782.55 406.624Z" fill="#EEEEEE"/>
<path d="M1795.53 396.78C1798.11 396.78 1798.11 392.873 1795.53 392.873C1792.95 392.795 1792.95 396.78 1795.53 396.78Z" fill="#EEEEEE"/>
<path d="M1804.05 380.217C1806.63 380.217 1806.63 376.311 1804.05 376.311C1801.47 376.233 1801.47 380.217 1804.05 380.217Z" fill="#EEEEEE"/>
<path d="M1814.76 372.56C1817.34 372.56 1817.34 368.575 1814.76 368.575C1812.18 368.653 1812.18 372.56 1814.76 372.56Z" fill="#EEEEEE"/>
<path d="M1812.41 357.871C1814.91 357.871 1814.99 353.887 1812.41 353.887C1809.83 353.965 1809.83 357.871 1812.41 357.871Z" fill="#EEEEEE"/>
<path d="M1817.8 349.668C1820.31 349.668 1820.38 345.762 1817.8 345.762C1815.3 345.762 1815.3 349.668 1817.8 349.668Z" fill="#EEEEEE"/>
<path d="M1821.01 359.982C1823.59 359.982 1823.59 355.997 1821.01 355.997C1818.51 355.997 1818.51 359.982 1821.01 359.982Z" fill="#EEEEEE"/>
<path d="M1821.95 368.732C1824.45 368.732 1824.53 364.747 1821.95 364.747C1819.37 364.825 1819.37 368.732 1821.95 368.732Z" fill="#EEEEEE"/>
<path d="M1834.38 368.497C1836.88 368.497 1836.96 364.513 1834.38 364.513C1831.87 364.513 1831.87 368.497 1834.38 368.497Z" fill="#EEEEEE"/>
<path d="M1848.21 357.871C1850.79 357.871 1850.79 353.887 1848.21 353.887C1845.63 353.965 1845.63 357.871 1848.21 357.871Z" fill="#EEEEEE"/>
<path d="M1855.09 337.48C1857.67 337.48 1857.67 333.495 1855.09 333.495C1852.59 333.573 1852.51 337.48 1855.09 337.48Z" fill="#EEEEEE"/>
<path d="M1860.8 325.291C1863.38 325.291 1863.38 321.307 1860.8 321.307C1858.3 321.385 1858.3 325.291 1860.8 325.291Z" fill="#EEEEEE"/>
<path d="M1871.98 315.056C1874.48 315.056 1874.56 311.149 1871.98 311.149C1869.4 311.149 1869.4 315.056 1871.98 315.056Z" fill="#EEEEEE"/>
<path d="M1850.95 321.777C1853.53 321.777 1853.53 317.87 1850.95 317.87C1848.45 317.87 1848.45 321.777 1850.95 321.777Z" fill="#EEEEEE"/>
<path d="M1845.24 310.916C1847.82 310.916 1847.82 306.932 1845.24 306.932C1842.74 307.01 1842.74 310.916 1845.24 310.916Z" fill="#EEEEEE"/>
<path d="M1849.07 295.837C1851.57 295.837 1851.65 291.931 1849.07 291.931C1846.57 291.931 1846.57 295.837 1849.07 295.837Z" fill="#EEEEEE"/>
<path d="M1841.41 293.025C1843.91 293.025 1843.99 289.04 1841.41 289.04C1838.91 289.118 1838.91 293.025 1841.41 293.025Z" fill="#EEEEEE"/>
<path d="M1838.52 305.681C1841.1 305.681 1841.1 301.696 1838.52 301.696C1835.94 301.696 1835.94 305.681 1838.52 305.681Z" fill="#EEEEEE"/>
<path d="M1833.2 321.541C1835.7 321.541 1835.78 317.557 1833.2 317.557C1830.7 317.557 1830.7 321.541 1833.2 321.541Z" fill="#EEEEEE"/>
<path d="M1841.72 329.277C1844.23 329.277 1844.3 325.292 1841.72 325.292C1839.22 325.37 1839.22 329.277 1841.72 329.277Z" fill="#EEEEEE"/>
<path d="M1837.35 340.995C1839.93 340.995 1839.93 337.089 1837.35 337.089C1834.77 337.089 1834.77 340.995 1837.35 340.995Z" fill="#EEEEEE"/>
<path d="M1834.84 354.356C1837.35 354.356 1837.42 350.371 1834.84 350.371C1832.27 350.449 1832.27 354.356 1834.84 354.356Z" fill="#EEEEEE"/>
<path d="M1805.77 349.981C1808.35 349.981 1808.35 345.996 1805.77 345.996C1803.26 345.996 1803.26 349.981 1805.77 349.981Z" fill="#EEEEEE"/>
<path d="M1816.08 336.777C1818.59 336.777 1818.66 332.792 1816.08 332.792C1813.5 332.792 1813.5 336.777 1816.08 336.777Z" fill="#EEEEEE"/>
<path d="M1824.53 347.793C1827.03 347.793 1827.11 343.809 1824.53 343.809C1822.03 343.809 1822.03 347.793 1824.53 347.793Z" fill="#EEEEEE"/>
<path d="M1826.64 354.668C1829.22 354.668 1829.22 350.684 1826.64 350.684C1824.06 350.762 1824.06 354.668 1826.64 354.668Z" fill="#EEEEEE"/>
<path d="M1825.23 449.126C1825.31 449.126 1825.39 449.126 1825.39 449.126C1827.97 449.126 1827.97 445.142 1825.39 445.142C1825.31 445.142 1825.23 445.142 1825.23 445.142C1822.73 445.22 1822.73 449.126 1825.23 449.126Z" fill="#EEEEEE"/>
<path d="M1834.69 449.361C1837.19 449.361 1837.27 445.376 1834.69 445.376C1832.19 445.376 1832.19 449.361 1834.69 449.361Z" fill="#EEEEEE"/>
<path d="M1830.08 460.299C1832.66 460.299 1832.66 456.393 1830.08 456.393C1827.5 456.393 1827.5 460.299 1830.08 460.299Z" fill="#EEEEEE"/>
<path d="M1908.25 387.014C1910.83 387.014 1910.83 383.029 1908.25 383.029C1905.67 383.107 1905.67 387.014 1908.25 387.014Z" fill="#EEEEEE"/>
<path d="M1921.14 384.123C1923.65 384.123 1923.72 380.139 1921.14 380.139C1918.64 380.217 1918.64 384.123 1921.14 384.123Z" fill="#EEEEEE"/>
<path d="M1919.27 389.748C1921.85 389.748 1921.85 385.764 1919.27 385.764C1916.69 385.764 1916.69 389.748 1919.27 389.748Z" fill="#EEEEEE"/>
<path d="M1921.77 415.374C1924.35 415.374 1924.35 411.39 1921.77 411.39C1919.19 411.468 1919.19 415.374 1921.77 415.374Z" fill="#EEEEEE"/>
<path d="M1905.12 414.202C1907.62 414.202 1907.7 410.218 1905.12 410.218C1902.62 410.296 1902.62 414.202 1905.12 414.202Z" fill="#EEEEEE"/>
<path d="M1906.29 401.467C1908.87 401.467 1908.87 397.482 1906.29 397.482C1903.79 397.561 1903.79 401.467 1906.29 401.467Z" fill="#EEEEEE"/>
<path d="M1666.08 363.81C1668.58 363.81 1668.66 359.825 1666.08 359.825C1663.57 359.825 1663.57 363.81 1666.08 363.81Z" fill="#EEEEEE"/>
<path d="M1662.09 381.7C1664.59 381.7 1664.67 377.716 1662.09 377.716C1659.59 377.794 1659.59 381.7 1662.09 381.7Z" fill="#EEEEEE"/>
<path d="M1659.43 366.466C1661.93 366.466 1662.01 362.481 1659.43 362.481C1656.85 362.56 1656.85 366.466 1659.43 366.466Z" fill="#EEEEEE"/>
<path d="M1874.09 213.411C1876.67 213.411 1876.67 209.427 1874.09 209.427C1871.59 209.427 1871.59 213.411 1874.09 213.411Z" fill="#EEEEEE"/>
<path d="M1877.84 228.88C1880.42 228.88 1880.42 224.896 1877.84 224.896C1875.34 224.896 1875.34 228.88 1877.84 228.88Z" fill="#EEEEEE"/>
<path d="M1890.97 236.146C1890.89 236.146 1890.81 236.146 1890.74 236.146C1888.24 236.146 1888.16 240.131 1890.74 240.131C1890.81 240.131 1890.89 240.131 1890.97 240.131C1893.47 240.131 1893.47 236.146 1890.97 236.146Z" fill="#EEEEEE"/>
<path d="M1879.17 242.787C1881.75 242.787 1881.75 238.803 1879.17 238.803C1876.67 238.803 1876.67 242.787 1879.17 242.787Z" fill="#EEEEEE"/>
<path d="M1867.99 228.333C1870.57 228.333 1870.57 224.349 1867.99 224.349C1865.41 224.427 1865.41 228.333 1867.99 228.333Z" fill="#EEEEEE"/>
<path d="M1669.91 317.166C1672.49 317.166 1672.49 313.182 1669.91 313.182C1667.33 313.182 1667.33 317.166 1669.91 317.166Z" fill="#EEEEEE"/>
<path d="M1727.75 231.38C1730.25 231.38 1730.33 227.396 1727.75 227.396C1725.17 227.474 1725.17 231.38 1727.75 231.38Z" fill="#EEEEEE"/>
<path d="M1744.4 213.801C1746.9 213.801 1746.98 209.816 1744.4 209.816C1741.82 209.816 1741.82 213.801 1744.4 213.801Z" fill="#EEEEEE"/>
<path d="M1778.95 232.083C1781.45 232.083 1781.53 228.099 1778.95 228.099C1776.45 228.099 1776.37 232.083 1778.95 232.083Z" fill="#EEEEEE"/>
<path d="M1763.63 246.381C1766.13 246.381 1766.21 242.396 1763.63 242.396C1761.13 242.396 1761.13 246.381 1763.63 246.381Z" fill="#EEEEEE"/>
<path d="M1744.71 268.961C1747.29 268.961 1747.29 264.977 1744.71 264.977C1742.14 265.055 1742.14 268.961 1744.71 268.961Z" fill="#EEEEEE"/>
<path d="M1725.09 290.602C1727.6 290.602 1727.67 286.695 1725.09 286.695C1722.52 286.617 1722.52 290.602 1725.09 290.602Z" fill="#EEEEEE"/>
<path d="M1750.66 313.181C1753.16 313.181 1753.24 309.196 1750.66 309.196C1748.15 309.196 1748.15 313.181 1750.66 313.181Z" fill="#EEEEEE"/>
<path d="M1820.23 236.694C1822.73 236.694 1822.81 232.709 1820.23 232.709C1817.65 232.787 1817.65 236.694 1820.23 236.694Z" fill="#EEEEEE"/>
<path d="M1914.19 145.439C1916.77 145.439 1916.77 141.454 1914.19 141.454C1911.69 141.532 1911.69 145.439 1914.19 145.439Z" fill="#EEEEEE"/>
<path d="M1920.44 279.274C1923.02 279.274 1923.02 275.367 1920.44 275.367C1917.86 275.367 1917.86 279.274 1920.44 279.274Z" fill="#EEEEEE"/>
<path d="M1910.44 328.495C1913.02 328.495 1913.02 324.511 1910.44 324.511C1907.93 324.511 1907.93 328.495 1910.44 328.495Z" fill="#EEEEEE"/>
<path d="M1861.89 301.696C1864.47 301.696 1864.47 297.712 1861.89 297.712C1859.31 297.79 1859.31 301.696 1861.89 301.696Z" fill="#EEEEEE"/>
<path d="M1845.71 278.649C1848.21 278.649 1848.29 274.664 1845.71 274.664C1843.13 274.742 1843.13 278.649 1845.71 278.649Z" fill="#EEEEEE"/>
<path d="M1828.9 304.197C1831.48 304.197 1831.48 300.213 1828.9 300.213C1826.32 300.213 1826.32 304.197 1828.9 304.197Z" fill="#EEEEEE"/>
<path d="M1827.03 334.042C1829.61 334.042 1829.61 330.058 1827.03 330.058C1824.45 330.136 1824.45 334.042 1827.03 334.042Z" fill="#EEEEEE"/>
<path d="M1817.65 324.119C1820.23 324.119 1820.23 320.135 1817.65 320.135C1815.15 320.135 1815.15 324.119 1817.65 324.119Z" fill="#EEEEEE"/>
<path d="M1891.75 358.965C1894.25 358.965 1894.33 355.059 1891.75 355.059C1889.25 355.059 1889.25 358.965 1891.75 358.965Z" fill="#EEEEEE"/>
<path d="M1874.32 400.061C1876.82 400.061 1876.9 396.076 1874.32 396.076C1871.82 396.076 1871.82 400.061 1874.32 400.061Z" fill="#EEEEEE"/>
<path d="M1836.33 388.264C1838.83 388.264 1838.91 384.279 1836.33 384.279C1833.83 384.279 1833.83 388.264 1836.33 388.264Z" fill="#EEEEEE"/>
<path d="M1813.9 409.984C1816.4 409.984 1816.48 405.999 1813.9 405.999C1811.39 406.077 1811.39 409.984 1813.9 409.984Z" fill="#EEEEEE"/>
<path d="M1774.11 458.58C1776.69 458.58 1776.69 454.596 1774.11 454.596C1771.53 454.596 1771.53 458.58 1774.11 458.58Z" fill="#EEEEEE"/>
<path d="M1816.4 496.551C1818.9 496.551 1818.98 492.566 1816.4 492.566C1813.9 492.566 1813.9 496.551 1816.4 496.551Z" fill="#EEEEEE"/>
<path d="M1790.29 526.396C1792.87 526.396 1792.87 522.411 1790.29 522.411C1787.71 522.489 1787.71 526.396 1790.29 526.396Z" fill="#EEEEEE"/>
<path d="M1782.78 575.617C1785.29 575.617 1785.36 571.633 1782.78 571.633C1780.28 571.633 1780.28 575.617 1782.78 575.617Z" fill="#EEEEEE"/>
<path d="M1835.71 540.693C1838.21 540.693 1838.28 536.708 1835.71 536.708C1833.2 536.786 1833.2 540.693 1835.71 540.693Z" fill="#EEEEEE"/>
<path d="M1827.65 601.712C1830.23 601.712 1830.23 597.728 1827.65 597.728C1825.07 597.806 1825.07 601.712 1827.65 601.712Z" fill="#EEEEEE"/>
<path d="M1886.83 524.521C1889.41 524.521 1889.41 520.536 1886.83 520.536C1884.25 520.614 1884.25 524.521 1886.83 524.521Z" fill="#EEEEEE"/>
<path d="M1875.57 577.414C1878.07 577.414 1878.15 573.43 1875.57 573.43C1873.07 573.508 1873.07 577.414 1875.57 577.414Z" fill="#EEEEEE"/>
<path d="M1759.41 383.81C1761.91 383.81 1761.99 379.825 1759.41 379.825C1756.91 379.903 1756.91 383.81 1759.41 383.81Z" fill="#EEEEEE"/>
<path d="M1781.22 388.186C1783.8 388.186 1783.8 384.201 1781.22 384.201C1778.64 384.279 1778.64 388.186 1781.22 388.186Z" fill="#EEEEEE"/>
<path d="M1773.72 357.715C1776.22 357.715 1776.3 353.73 1773.72 353.73C1771.21 353.73 1771.21 357.715 1773.72 357.715Z" fill="#EEEEEE"/>
<path d="M1662.09 380.998L1659.2 364.513V364.434L1664.75 349.824L1659.9 342.637L1659.28 351.699L1656.07 362.013L1653.49 374.279L1650.91 360.059L1651.38 359.981L1653.49 371.779L1655.6 361.934L1658.81 351.699L1659.51 341.23L1665.06 349.434L1671.63 342.871L1673.66 325.057L1686.48 300.447L1678.43 304.041L1678.66 303.494L1691.64 272.789H1691.87L1698.83 274.039L1698.75 274.274L1695.94 286.071L1711.26 272.867L1726.42 250.444L1740.42 233.646L1744.4 221.146L1744.48 221.068L1753.63 213.098L1757.69 200.051L1749.87 198.098L1750.03 197.629L1758.32 199.66L1754.02 213.333L1753.94 213.411L1744.79 221.38L1740.73 233.881L1726.74 250.679L1711.49 273.18L1695.16 287.399L1698.28 274.274L1692.03 273.18L1679.44 302.947L1687.65 299.275L1674.05 325.136L1672.1 343.027L1672.02 343.105L1665.29 349.824L1666.39 361.856L1662.09 380.998ZM1659.67 364.513L1662.09 378.498L1665.84 361.856L1664.83 350.84L1659.67 364.513Z" fill="#EEEEEE"/>
<path d="M1698.13 274.351L1698.28 274.039L1702.74 261.148L1713.99 254.897L1724.86 240.756L1708.76 250.522L1696.95 256.538L1696.72 256.069L1708.52 250.053L1726.89 238.959L1714.23 255.288L1703.21 261.46L1698.91 273.805L1711.41 272.789L1711.49 273.336L1698.13 274.351Z" fill="#EEEEEE"/>
<path d="M1698.75 327.556L1701.25 304.196L1712.27 284.117L1725.72 267.866L1743.54 249.115L1752.22 231.536L1752.3 231.458L1768.95 223.645L1768.79 224.114L1763.87 244.349L1763.4 244.271L1768.24 224.504L1752.53 231.848L1743.93 249.349L1726.11 268.1L1712.74 284.273L1701.8 304.274L1699.53 325.916L1720.4 301.149L1737.21 293.414L1759.18 283.726L1752.22 281.148L1769.03 265.835L1783.02 246.224L1800.06 226.301L1800.61 217.316L1780.67 218.02L1770.12 223.879L1769.89 223.41L1778.88 218.41L1757.85 223.489L1748.94 226.926L1753.78 212.941L1753.86 212.863L1763.94 204.894L1760.27 214.504L1777.62 199.659L1778.09 211.3L1785.36 203.019L1790.84 212.941L1790.6 213.019L1781.77 217.394L1801.15 216.691L1800.53 226.379L1800.45 226.457L1783.33 246.38L1769.34 265.991L1753.08 280.757L1760.43 283.492L1759.88 283.726L1737.37 293.727L1720.64 301.461L1698.75 327.556ZM1754.1 213.41L1749.72 226.223L1757.69 223.176L1780.44 217.707L1789.98 212.941L1785.05 204.034L1777.39 212.707V212.082L1777 200.831L1758.94 216.301L1762.69 206.535L1754.1 213.41Z" fill="#EEEEEE"/>
<path d="M1743.46 323.182L1744.25 303.415H1744.48L1760.58 305.368L1756.28 315.994L1756.21 316.072L1743.46 323.182ZM1744.72 303.962L1744.01 322.322L1755.89 315.759L1759.88 305.837L1744.72 303.962Z" fill="#EEEEEE"/>
<path d="M1818.98 245.209L1813.43 233.88L1813.58 233.724L1825.39 222.786L1826.32 238.334L1826.25 238.412L1818.98 245.209ZM1814.05 233.959L1819.21 244.35L1825.86 238.099L1824.92 223.88L1814.05 233.959Z" fill="#EEEEEE"/>
<path d="M1873.93 287.477L1873.85 287.399L1864.32 277.242L1881.59 272.789L1884.87 285.212L1873.93 287.477ZM1865.25 277.477L1874.09 286.852L1884.25 284.665L1881.28 273.258L1865.25 277.477Z" fill="#EEEEEE"/>
<path d="M1834.45 366.699H1834.38L1821.79 366.621L1821.71 366.387L1820.77 358.027L1821.32 357.949L1822.18 366.152L1834.3 366.231L1848.29 356.074L1854.86 335.448L1860.64 323.181L1870.96 313.65L1850.87 320.134L1850.79 319.978L1845.01 309.04V308.884L1848.76 294.039L1841.65 291.383L1838.75 303.727L1833.52 319.431L1842.04 327.244L1841.96 327.4L1837.58 339.12L1835.08 352.636L1826.64 352.949V352.48L1834.61 352.167L1837.11 339.042L1841.41 327.4L1832.97 319.587L1838.28 303.649L1841.25 290.758L1849.38 293.727L1849.31 293.961L1845.55 308.962L1851.1 319.509L1872.99 312.478L1861.03 323.494L1855.33 335.604L1848.76 356.386L1848.68 356.464L1834.45 366.699Z" fill="#EEEEEE"/>
<path d="M1766.52 402.483L1772.07 389.983L1772.23 379.982L1772.31 379.904L1776.06 374.279L1768.24 365.138V365.06L1768.09 351.856L1768.24 351.778L1778.72 346.855L1781.22 357.403L1781.14 357.481L1776.37 364.278L1784.43 373.497L1792.79 382.639L1792.71 382.795L1787.71 394.827H1787.63L1766.52 402.483ZM1772.7 380.06L1772.54 390.061L1767.38 401.546L1787.16 394.358L1792.01 382.639L1783.88 373.732L1775.59 364.2L1780.52 357.169L1778.25 347.481L1768.48 352.09L1768.64 364.903L1776.61 374.201L1772.7 380.06Z" fill="#EEEEEE"/>
<path d="M1751.83 392.404L1751.91 392.014L1754.02 377.638L1754.1 377.56L1763.48 370.06L1763.55 370.372L1766.84 380.294L1766.76 380.373L1761.91 390.139H1761.83L1751.83 392.404ZM1754.41 377.951L1752.38 391.779L1761.6 389.826L1766.29 380.373L1763.16 370.997L1754.41 377.951Z" fill="#EEEEEE"/>
<path d="M1830.39 459.205L1824.92 446.938H1825.31L1835.08 447.173L1830.39 459.205ZM1825.62 447.407L1830.31 457.877L1834.3 447.563L1825.62 447.407Z" fill="#EEEEEE"/>
<path d="M1921.85 413.656H1921.77L1904.89 412.484V412.25L1906.06 399.515L1908.01 384.826H1908.17L1921.07 381.935L1937.72 365.06L1942.02 380.764L1959.68 382.873L1959.76 382.951L1965.78 388.342L1965.55 388.498L1953.51 398.577L1935.45 402.405L1921.85 413.656ZM1905.43 412.015L1921.69 413.109L1935.22 401.936L1953.27 398.108L1965 388.264L1959.45 383.264L1941.63 381.154L1941.55 380.998L1937.48 366.075L1921.77 381.935H1934.36L1927.56 391.545L1919.74 387.639L1920.83 382.482L1908.4 385.217L1906.53 399.515L1905.43 412.015ZM1920.36 387.405L1927.48 390.92L1933.42 382.404H1921.38L1920.36 387.405Z" fill="#EEEEEE"/>
<path d="M1910.67 458.267L1903.56 457.954L1909.81 452.173H1909.97L1919.35 453.892L1910.67 458.267ZM1904.73 457.486L1910.51 457.72L1917.71 454.126L1909.89 452.642L1904.73 457.486Z" fill="#EEEEEE"/>
<path d="M1928.81 723.281L1877.14 716.484L1834.61 704.061L1797.25 686.951L1756.44 659.84L1726.97 632.495L1698.36 598.743L1677.41 565.304L1659.9 524.755L1647.47 478.034L1643.64 435.766L1644.5 396.467L1650.91 359.981L1657.32 335.683L1669.05 304.744L1682.1 278.492L1696.64 256.304L1715.87 231.771L1738.93 207.473L1749.8 197.863L1776.45 178.018L1809.13 159.423L1836.88 147.704L1855.64 141.063L1882.14 134.422L1911.37 130.359L1948.74 128.875L1974.61 130.594L2008.77 136.532L2053.17 151.064L2085.85 166.611L2119.62 188.566L2149.32 213.567L2174.57 242.397L2195.05 272.086L2211.7 304.353L2222.8 331.854L2227.34 346.699L2230.31 358.34L2236.25 390.998L2238.2 427.094L2235 469.127L2226.24 509.285L2210.69 551.553L2190.6 588.43L2162.22 624.604L2130.8 655.543L2096.01 680.31L2066.93 695.702L2023.78 711.952L1983.21 720.468L1928.81 723.281ZM1855.87 141.376L1837.11 147.938L1809.36 159.658L1776.77 178.174L1750.11 198.097L1739.24 207.707L1716.18 232.005L1697.03 256.538L1682.49 278.727L1669.52 304.978L1657.79 335.917L1651.38 360.059L1644.97 396.545L1644.11 435.766L1647.94 477.956L1660.29 524.599L1677.8 565.07L1698.67 598.509L1727.28 632.183L1756.75 659.45L1797.48 686.482L1834.77 703.514L1877.21 715.859L1928.81 722.656L1983.21 719.687L2023.7 711.171L2066.78 694.998L2095.78 679.685L2130.56 654.996L2161.91 624.057L2190.28 587.961L2210.3 551.163L2225.85 508.973L2234.61 468.893L2237.81 426.937L2235.86 390.92L2229.92 358.496L2219.36 359.121H2219.29L2208.26 352.793L2208.58 352.559L2219.68 344.589L2207.48 340.449L2207.4 340.37L2199.43 327.87L2183.8 314.51L2183.48 327.948L2162.38 314.119V332.089L2166.68 360.762L2165.89 377.951L2174.81 390.139V390.217L2176.37 413.577L2175.98 413.421L2155.34 403.967L2140.02 391.467L2128.84 379.904L2130.01 392.951L2119.54 393.889L2120.01 385.295L2104.14 388.654L2091.09 402.405L2079.44 413.734H2079.36L2065.52 414.515L2057.79 424.125H2057.63L2044.26 423.109L2027.93 420.453L2026.6 429.359L2048.33 437.876L2051.92 430.922L2052.16 431.313L2056.69 438.579L2063.88 431.938L2068.03 421.39H2068.18L2082.17 422.25L2082.25 422.328L2091.32 430.141L2090.46 452.486L2078.81 468.658L2069.98 487.487L2060.29 498.816L2053.64 508.582H2053.56L2044.34 510.692L2033.16 498.894L2014.4 491.55L1996.34 481.003L1984.23 473.659L1971.02 464.127V471.471L1962.42 471.784L1979.3 483.972L1996.58 495.144L2013.78 507.489L2027.22 514.208L2042.46 516.083L2054.27 520.145L2066.62 509.364L2081.55 493.972L2086.08 505.848V505.926L2083.27 531.552L2073.89 552.647L2064.51 572.57L2056.77 588.118L2069.59 600.775L2080.53 612.65L2075.22 626.01L2064.98 640.777L2072.01 651.324L2071.93 651.48L2061.77 667.888L2047.31 685.857L2028.78 694.53L2008.46 700.858H2008.38L1984.15 695.545L1963.98 687.654L1948.97 683.826L1942.72 673.122V673.044L1944.91 663.122L1927.16 652.184L1909.42 645.386L1897.46 636.87V636.792L1892.93 621.557L1878.39 621.01L1858.77 617.494L1836.64 624.213L1811.16 627.729H1811.08L1789.12 619.291L1772.39 605.775L1758.24 594.837L1749.41 581.086L1746.36 563.741L1741.67 544.6V544.522L1750.11 524.364L1759.25 516.63L1760.58 499.285L1760.66 499.207L1768.95 493.503L1771.92 485.378H1772.07L1785.36 485.534L1802.01 476.315L1823.67 470.533L1843.52 466.236V466.549L1843.37 482.487L1863.06 486.394L1874.4 490.769L1892.38 489.909L1898.08 473.893L1920.36 473.581L1940.14 467.565L1952.02 460.064L1963.2 454.126L1962.89 437.329L1955.85 424.281L1945.14 434.36L1928.73 440.844L1917.86 442.485H1917.78L1906.21 436.704V436.625L1902.07 424.437L1892.3 431.156L1900.9 441.86V442.016L1897.85 454.751L1887.14 444.516L1874.09 433.344L1857.2 422.797L1842.19 414.827L1838.28 421.625L1848.53 430.141L1860.8 434.203L1875.18 441.079L1865.49 441.86L1867.6 448.11L1863.3 463.033L1851.03 460.845L1860.25 450.689L1852.51 441.938L1836.72 434.907L1826.01 426.469L1817.02 435.922H1816.94L1802.25 436.079L1803.66 444.595L1794.35 454.126L1793.34 467.643L1793.26 467.721L1781.61 475.69L1771.45 478.346H1771.37L1757.69 474.674V474.518L1756.52 456.939L1754.72 439.672L1770.67 439.047L1783.33 434.985L1780.28 419.906L1769.18 411.702L1782.47 404.436L1795.29 394.67L1803.89 378.029L1814.44 370.45L1812.1 355.84L1812.18 355.762L1817.88 347.09L1821.17 357.481L1826.32 352.559L1824.29 345.839L1816.01 335.136L1805.61 348.496L1805.53 347.949L1800.76 326.698L1800.84 326.62L1811.94 314.822L1819.21 294.587L1829.14 275.601L1845.71 262.71H1845.79L1862.28 264.976L1877.76 266.617L1881.12 272.164L1882.14 256.929L1890.97 262.319L1893.47 246.147L1893.55 246.069L1903.71 233.334H1903.79L1916.77 229.662L1894.25 216.536L1905.9 213.411L1909.42 204.504L1898.4 205.207L1898.32 205.129L1889.41 193.253L1878.23 185.362L1878.54 185.206L1892.61 176.846H1892.69L1909.5 179.893L1903.32 165.439L1914.03 157.939L1896.68 154.267L1882.84 142.704L1855.87 141.376ZM1949.52 683.279L1964.37 687.029L1984.54 694.92L2008.7 700.155L2028.86 693.826L2047.31 685.232L2061.69 667.341L2071.7 651.09L2064.66 640.542L2064.74 640.386L2074.98 625.542L2080.14 612.494L2069.36 600.853L2056.3 588.196L2056.38 588.04L2064.2 572.336L2073.58 552.413L2082.96 531.318L2085.77 505.848L2081.55 494.832L2067.17 509.676L2054.58 520.614L2054.42 520.536L2042.54 516.395L2027.22 514.442L2013.7 507.723L1996.5 495.379L1979.23 484.206L1961.17 471.158L1970.78 470.846V462.955L1971.17 463.267L1984.78 473.112L1996.89 480.456L2014.95 491.003L2033.79 498.347L2044.81 509.989L2053.64 507.957L2060.21 498.347L2069.9 487.019L2078.66 468.268L2090.23 452.173L2091.09 430.219L2082.25 422.562L2068.57 421.703L2064.43 432.016L2056.69 439.126L2056.54 438.891L2052.08 431.781L2048.64 438.344L2048.48 438.422L2026.21 429.672L2027.69 419.906L2044.5 422.64L2057.71 423.656L2065.45 414.046H2065.52L2079.44 413.265L2091.01 402.014L2104.14 388.185H2104.22L2120.79 384.67V384.982L2120.4 393.342L2129.86 392.483L2128.61 378.497L2129.08 378.966L2140.65 390.998L2155.89 403.421L2176.06 412.64L2174.57 390.139L2165.66 377.951V377.872L2166.44 360.606L2162.14 331.932V313.025L2162.53 313.26L2183.33 326.854L2183.64 313.26L2200.13 327.323L2208.03 339.824L2220.93 344.199L2220.46 344.668L2209.28 352.715L2219.6 358.653L2229.92 358.028L2227.02 346.699L2222.49 331.854L2211.39 304.353L2194.74 272.164L2174.26 242.553L2149.09 213.801L2119.46 188.878L2085.77 166.924L2053.17 151.376L2008.77 136.844L1974.69 130.906L1948.9 129.188L1911.61 130.672L1882.37 134.735L1857.59 140.907L1883.23 142.157L1883.31 142.235L1897.15 153.798L1915.44 157.627L1904.1 165.596L1910.44 180.596L1892.85 177.393L1879.25 185.519L1889.88 193.097L1898.71 204.895L1910.28 204.113L1906.37 213.958H1906.21L1895.66 216.77L1918.1 229.818L1904.1 233.802L1894.1 246.303L1891.52 263.101L1882.76 257.788L1881.67 273.804L1877.6 267.163L1862.36 265.523L1845.95 263.335L1829.53 276.07L1819.76 294.899L1812.41 315.213L1801.39 327.01L1806 347.48L1816.16 334.433L1816.32 334.667L1824.76 345.761L1826.87 352.793L1826.79 352.871L1820.93 358.418L1817.73 348.261L1812.65 355.996L1814.99 370.763L1814.83 370.841L1804.2 378.419L1795.68 395.061L1782.71 404.827L1770.12 411.702L1780.75 419.593V419.671L1783.88 435.297L1783.64 435.375L1770.67 439.516L1755.19 440.063L1756.91 456.783L1758.08 474.206L1771.21 477.956L1781.22 475.377L1792.71 467.565L1793.73 454.126L1793.81 454.048L1802.95 444.595L1801.47 435.766L1816.63 435.61L1825.78 426L1836.8 434.672L1852.67 441.782L1860.88 450.845L1851.96 460.689L1862.91 462.642L1867.05 448.267L1864.78 441.548H1865.1L1873.3 440.923L1860.64 434.828L1848.29 430.688L1837.74 421.859L1837.82 421.703L1842.04 414.281L1842.27 414.359L1857.51 422.406L1874.4 432.953L1887.53 444.126L1897.69 453.814L1900.51 442.016L1891.75 431.078L1891.99 430.922L1902.54 423.656L1902.62 423.969L1906.84 436.313L1918.1 441.938L1928.73 440.376L1945.06 433.969L1956.17 423.5L1963.51 437.25L1963.83 454.439L1963.67 454.517L1952.33 460.533L1940.37 468.033L1920.52 474.049L1898.55 474.362L1892.85 490.378H1892.69L1874.4 491.238H1874.32L1862.99 486.862L1842.97 483.034V482.8L1843.13 466.94L1823.9 471.158L1802.33 476.862L1785.6 486.081H1785.52L1772.31 485.925L1769.42 493.894L1769.34 493.972L1761.05 499.597L1759.72 516.864L1759.65 516.942L1750.42 524.677L1742.14 544.678L1746.83 563.663L1749.87 580.93L1758.63 594.524L1772.7 605.384L1789.43 618.901L1811.24 627.26L1836.57 623.745L1858.77 617.026H1858.84L1878.54 620.541L1893.39 621.166L1893.47 621.323L1898.16 636.48L1909.97 644.918L1927.71 651.637L1945.85 662.731V662.887L1943.66 672.888L1949.52 683.279Z" fill="#EEEEEE"/>
<path d="M1879.09 241.068L1879.01 240.912L1867.68 226.38L1867.75 226.223L1874.16 210.52L1874.32 211.223L1878.07 226.614L1891.36 238.568L1879.09 241.068ZM1868.22 226.302L1879.25 240.521L1890.27 238.412L1877.6 227.005V226.927L1874.01 212.16L1868.22 226.302Z" fill="#EEEEEE"/>
<path d="M1651.38 360.059L1650.91 359.903L1659.43 341.855L1657.32 335.605V335.527L1670.3 314.041L1665.29 349.746H1664.83L1669.44 316.385L1657.87 335.683L1659.98 341.855L1659.9 341.933L1651.38 360.059Z" fill="#EEEEEE"/>
<path d="M1666.04 361.626L1659.36 364.291L1659.53 364.726L1666.21 362.061L1666.04 361.626Z" fill="#EEEEEE"/>
<path d="M1673.89 325.917L1669.83 315.682L1669.67 315.838L1669.05 304.509H1669.28L1678.74 303.259L1682.18 278.336L1682.26 278.258L1691.64 272.711L1696.64 256.226L1697.11 256.382L1692.03 273.101L1682.57 278.649L1679.29 302.556L1679.44 302.4L1673.89 325.917ZM1670.14 315.213L1673.74 324.276L1678.35 304.509L1670.14 315.213ZM1669.59 304.978L1670.06 314.51L1678.35 303.806L1669.59 304.978Z" fill="#EEEEEE"/>
<path d="M1707.9 251.459L1715.87 231.536L1728.07 229.114L1726.19 239.896L1726.97 250.522H1726.5L1725.72 239.818L1727.44 230.13L1707.9 251.459ZM1716.26 232.005L1709.38 249.115L1727.05 229.817L1716.26 232.005Z" fill="#EEEEEE"/>
<path d="M1753.86 213.488L1743.78 212.004L1744.17 211.613L1757.85 199.659L1758.24 200.05L1744.95 211.613L1753.94 213.019L1753.86 213.488Z" fill="#EEEEEE"/>
<path d="M1726.74 230.911L1739.01 207.16L1744.25 211.457L1749.72 197.862L1750.19 198.019L1744.56 211.926L1744.87 221.379H1744.4L1744.17 212.472L1726.74 230.911ZM1739.17 207.863L1728.77 228.02L1744.01 211.847L1739.17 207.863Z" fill="#EEEEEE"/>
<path d="M1725.95 240.13L1725.8 239.662L1739.95 233.802L1727.67 229.661L1727.83 229.192L1741.35 233.724L1740.73 234.036L1725.95 240.13Z" fill="#EEEEEE"/>
<path d="M1711.65 273.726L1702.82 261.459L1703.21 261.147L1711.34 272.397L1713.76 255.443L1714.23 255.521L1711.65 273.726Z" fill="#EEEEEE"/>
<path d="M1758 223.411L1757.54 223.333L1759.33 215.207H1759.49L1777.78 211.77L1780.91 218.176L1759.72 215.754L1758 223.411ZM1761.21 215.442L1780.13 217.551L1777.55 212.316L1761.21 215.442Z" fill="#EEEEEE"/>
<path d="M1777.68 211.813L1777.64 212.28L1790.27 213.17L1790.31 212.702L1777.68 211.813Z" fill="#EEEEEE"/>
<path d="M1777.7 230.521L1800.61 216.927L1800.92 217.317L1780.2 229.662L1800.14 226.224L1800.22 226.771L1777.7 230.521Z" fill="#EEEEEE"/>
<path d="M1737.37 294.04L1737.13 293.962L1724.86 288.728V288.571L1725.72 267.711L1744.48 266.695L1743.54 249.038L1743.78 248.96L1763.24 244.194L1752.22 231.85L1752.61 231.537L1764.18 244.507L1763.79 244.585L1744.09 249.429L1745.03 266.93L1752.92 281.149L1752.77 281.305L1737.52 293.884L1737.37 294.04ZM1725.33 288.415L1737.05 293.337L1744.4 267.164L1726.19 268.102L1725.33 288.415ZM1744.79 267.633L1737.68 293.025L1752.22 280.993L1744.79 267.633Z" fill="#EEEEEE"/>
<path d="M1700.39 304.665L1724.47 288.649L1712.35 284.43L1712.51 283.961L1724.94 288.258L1744.48 266.772L1763.32 244.271L1763.24 244.037H1763.48L1779.03 229.505L1779.11 229.896L1783.33 246.537H1782.94L1763.87 244.506L1769.26 266.147H1768.95L1744.71 267.085L1725.41 288.336L1725.49 288.414L1725.17 288.649L1720.48 301.618L1700.39 304.665ZM1724.63 289.195L1702.58 303.884L1720.25 301.227L1724.63 289.195ZM1763.55 244.896L1745.26 266.694L1768.79 265.835L1763.55 244.896ZM1764.26 244.193L1782.71 246.146L1778.8 230.599L1764.26 244.193Z" fill="#EEEEEE"/>
<path d="M1779.19 230.521L1768.48 224.349L1768.71 223.88L1778.72 229.662L1780.28 217.864H1780.75L1779.19 230.521Z" fill="#EEEEEE"/>
<path d="M1750.66 311.54L1744.32 303.884L1744.72 303.571L1750.73 310.915L1760.19 305.446L1760.43 305.837L1750.66 311.54Z" fill="#EEEEEE"/>
<path d="M1743.93 322.87L1743.54 322.635L1750.66 310.838L1756.28 315.682L1755.97 316.073L1750.73 311.541L1743.93 322.87Z" fill="#EEEEEE"/>
<path d="M1825.93 238.49L1819.92 234.818L1819.99 234.662L1824.92 223.255L1825.39 223.489L1820.54 234.662L1826.17 238.021L1825.93 238.49Z" fill="#EEEEEE"/>
<path d="M1819.29 244.819L1818.82 244.741L1819.91 234.975L1813.66 234.193L1813.74 233.725L1820.46 234.506L1819.29 244.819Z" fill="#EEEEEE"/>
<path d="M1878.93 240.834L1877.6 227.161L1867.91 226.614L1867.99 226.146L1878.07 226.692V226.849L1879.4 240.756L1878.93 240.834Z" fill="#EEEEEE"/>
<path d="M1780.75 357.481L1773.33 355.918L1778.25 347.012L1778.64 347.246L1774.11 355.528L1780.91 357.012L1780.75 357.481Z" fill="#EEEEEE"/>
<path d="M1768.01 365.293L1773.79 355.059L1776.22 364.434L1768.01 365.293ZM1773.64 356.387L1768.87 364.668L1775.51 363.965L1773.64 356.387Z" fill="#EEEEEE"/>
<path d="M1773.56 355.918L1768.17 352.09L1768.4 351.699L1773.87 355.528L1773.56 355.918Z" fill="#EEEEEE"/>
<path d="M1780.91 386.623L1783.8 373.888L1776.14 374.513V374.201L1775.67 364.278L1776.14 364.2L1776.61 373.966L1784.43 373.341L1781.53 385.842L1792.24 382.404L1792.4 382.873L1780.91 386.623Z" fill="#EEEEEE"/>
<path d="M1788.41 395.217L1771.61 390.061L1781.3 385.998L1781.38 386.154C1781.45 386.232 1785.75 392.952 1787.47 394.436L1788.41 395.217ZM1773.09 389.905L1786.54 394.045C1784.74 392.014 1781.77 387.482 1781.14 386.545L1773.09 389.905Z" fill="#EEEEEE"/>
<path d="M1781.77 386.935L1772.31 380.216L1772.62 379.826L1780.67 385.529L1776.14 374.278L1776.61 374.122L1781.77 386.935Z" fill="#EEEEEE"/>
<path d="M1759.02 382.17L1763.01 370.45L1763.48 370.606L1759.8 381.545L1766.45 380.06L1766.6 380.529L1759.02 382.17Z" fill="#EEEEEE"/>
<path d="M1752.3 392.17L1751.91 391.935L1759.49 381.31L1761.99 389.904L1761.52 390.06L1759.33 382.403L1752.3 392.17Z" fill="#EEEEEE"/>
<path d="M1759.25 382.091L1754.02 377.95L1754.33 377.56L1759.57 381.7L1759.25 382.091Z" fill="#EEEEEE"/>
<path d="M1914.5 143.798H1914.19L1882.84 142.704V142.469L1882.06 134.578L1882.53 134.5L1883.23 142.079L1911.69 130.125L1914.5 143.798ZM1884.17 142.235L1913.87 143.251L1911.37 130.828L1884.17 142.235Z" fill="#EEEEEE"/>
<path d="M2021.52 169.971L2021.28 169.893L1959.76 155.595H1959.68L1959.6 155.517L1913.72 143.563L1926.46 133.797L1926.62 133.875L1959.76 154.97L1979.93 141.297L1980.24 141.688L1960.39 155.126L2021.2 169.267L2025.35 146.454L2025.81 146.532L2021.52 169.971ZM1914.73 143.407L1958.2 154.735L1926.38 134.422L1914.73 143.407Z" fill="#EEEEEE"/>
<path d="M1926.3 134.344L1911.45 130.672L1911.61 130.203L1926.46 133.875L1926.3 134.344Z" fill="#EEEEEE"/>
<path d="M1937.87 172.47L1937.72 172.314L1914.5 157.86V157.704L1913.95 143.875L1897.07 154.188L1896.83 153.797L1914.42 143.094L1914.97 157.548L1960.39 155.047L1937.87 172.47ZM1915.59 157.938L1937.87 171.767L1958.9 155.516L1915.59 157.938Z" fill="#EEEEEE"/>
<path d="M1909.58 204.66V204.504L1889.09 193.175L1889.49 192.941L1909.58 180.206L1909.5 180.128L1909.89 179.971L1910.28 179.737V179.893L1936.86 172.159L1903.71 165.752L1903.79 165.283L1938.89 172.08L1910.51 180.362L1935.92 200.285L1935.37 200.363L1909.58 204.66ZM1910.28 180.753L1910.12 204.035L1934.82 199.973L1910.28 180.753ZM1890.11 193.097L1909.65 203.879L1909.81 180.675L1890.11 193.097Z" fill="#EEEEEE"/>
<path d="M1889.88 193.176L1889.41 193.098L1892.53 177.081L1893 177.159L1889.88 193.176Z" fill="#EEEEEE"/>
<path d="M2032.69 296.149L2032.3 295.837L2074.36 241.068L2030.82 197.55L1986.34 190.519L2016.82 239.037L2016.36 238.959L1917.08 229.974L1917.31 229.661L1935.22 200.05L1937.72 171.768L1938.03 171.846L1985.95 189.894H1986.03V189.972L2031.13 197.081L2075.14 241.068L2074.98 241.224L2032.69 296.149ZM1917.86 229.583L2015.89 238.49L1985.71 190.519L1935.53 200.441L1917.86 229.583ZM1938.11 172.471L1935.68 199.816L1984.93 190.05L1938.11 172.471Z" fill="#EEEEEE"/>
<path d="M1962.73 271.382L1962.57 271.225L1917.24 229.817L1905.75 213.488L1905.98 213.332L1935.29 199.737L1935.37 199.815L2016.75 238.567L2016.36 238.802L1962.73 271.382ZM1917.63 229.583L1962.81 270.757L2015.81 238.724L1935.37 200.44L1906.53 213.801L1917.63 229.583Z" fill="#EEEEEE"/>
<path d="M1956.48 314.353L1956.4 314.275L1920.29 277.554L1890.89 262.866L1891.05 262.632L1917.63 229.114V229.739L1920.6 277.007L1962.73 270.835H1962.81L2032.15 295.602L2016.12 238.802L2016.59 238.646L2032.85 296.383L2032.46 296.227L1956.48 314.353ZM1920.91 277.476L1956.56 313.728L2031.6 295.915L1962.73 271.304L1920.91 277.476ZM1891.68 262.71L1920.21 276.929L1917.31 230.442L1891.68 262.71Z" fill="#EEEEEE"/>
<path d="M1774.18 457.017L1754.8 440.063L1755.19 439.673L1773.95 456.158L1783.41 434.985L1813.74 407.874L1836.25 385.998H1836.41L1874.16 397.795L1891.52 356.934L1910.28 326.307L1910.44 326.229L1956.48 313.807L1956.63 314.275L1910.59 326.698L1891.99 357.09L1874.48 398.342H1874.24L1836.41 386.545L1814.13 408.187L1783.8 435.297L1774.18 457.017Z" fill="#EEEEEE"/>
<path d="M1781.38 476.237L1781.14 475.691L1774.03 457.018L1758.08 474.597L1757.77 474.284L1774.19 456.158L1774.34 456.471L1781.46 475.066L1793.81 454.127L1794.27 454.361L1781.38 476.237Z" fill="#EEEEEE"/>
<path d="M1756.75 457.096V456.627L1774.11 456.315L1793.65 453.971L1783.18 434.829L1802.17 435.767L1802.01 436.079L1794.28 454.127L1794.35 454.361L1774.03 456.783L1756.75 457.096ZM1784.04 435.454L1794.04 453.658L1801.47 436.235L1784.04 435.454Z" fill="#EEEEEE"/>
<path d="M1773.87 456.626L1770.43 439.281L1770.9 439.203L1774.34 456.548L1773.87 456.626Z" fill="#EEEEEE"/>
<path d="M1813.82 408.264L1795.37 394.982L1795.68 394.592L1814.05 407.874L1813.82 408.264Z" fill="#EEEEEE"/>
<path d="M1816.55 435.923L1813.74 408.421L1780.28 420.14L1780.36 419.75L1782.47 404.437H1782.71L1813.97 407.874L1814.21 407.796V407.952L1838.52 421.937L1826.01 426.703L1825.86 426.235L1837.42 421.859L1814.29 408.577L1817.1 435.923H1816.55ZM1782.78 404.905L1780.83 419.359L1812.8 408.109L1782.78 404.905Z" fill="#EEEEEE"/>
<path d="M1862.75 462.955L1860.25 450.845L1860.33 450.767L1864.78 441.782L1860.56 434.829L1836.49 435.141L1837.66 421.781L1838.13 421.859L1837.03 434.594L1860.8 434.282L1860.88 434.438L1865.33 441.704V441.86L1860.8 450.845L1863.3 462.799L1862.75 462.955Z" fill="#EEEEEE"/>
<path d="M1851.96 442.172L1852.43 441.703L1860.49 434.359L1860.88 434.75L1853.22 441.625L1865.1 441.469V442.016L1851.96 442.172Z" fill="#EEEEEE"/>
<path d="M1842.35 414.906L1841.96 414.828L1813.66 408.265V408.031L1814.44 370.138L1814.83 370.45L1836.02 385.764L1834.14 366.544L1834.61 366.466L1836.56 386.232L1842.35 414.906ZM1814.21 407.874L1841.72 414.281L1836.17 386.389L1814.99 371.075L1814.21 407.874Z" fill="#EEEEEE"/>
<path d="M1857.28 423.109L1857.12 422.796L1836.1 386.232L1836.17 386.154L1848.52 355.684L1874.71 398.108L1874.63 398.264L1857.28 423.109ZM1836.64 386.232L1857.36 422.25L1874.09 398.108L1848.6 356.856L1836.64 386.232Z" fill="#EEEEEE"/>
<path d="M1902.38 424.594L1902.07 424.281L1873.93 397.952L1874.32 397.796L1907.93 384.904L1891.67 357.247L1847.51 356.465L1848.45 355.997L1910.59 326.151L1937.64 365.216L1956.79 350.918V351.153L1974.69 354.122L1959.45 383.967L1956.4 351.856L1937.56 365.919L1937.4 365.685L1910.44 326.776L1849.62 355.997L1891.99 356.778L1892.07 356.934L1908.64 385.217L1908.4 385.295L1874.87 398.186L1902.15 423.735L1904.96 412.25L1905.43 412.406L1902.38 424.594ZM1956.79 351.7L1959.68 382.248L1973.91 354.512L1956.79 351.7Z" fill="#EEEEEE"/>
<path d="M1886.91 444.672L1891.6 431.469L1873.93 433.5V433.266L1874.09 398.107H1874.56L1874.4 432.953L1892.3 430.922L1892.14 431.234L1887.61 444.047L1900.59 441.782L1900.66 442.25L1886.91 444.672Z" fill="#EEEEEE"/>
<path d="M1928.81 441.079L1928.49 440.922L1901.52 423.968L1902.15 423.89L1921.77 413.108L1935.06 419.046L1934.98 419.281L1928.81 441.079ZM1902.93 424.281L1928.49 440.297L1934.43 419.515L1902.93 424.281ZM1921.77 413.655L1903.56 423.656L1933.89 419.046L1921.77 413.655Z" fill="#EEEEEE"/>
<path d="M1920.13 387.717L1919.97 387.326L1933.81 381.936L1933.97 382.404L1920.13 387.717Z" fill="#EEEEEE"/>
<path d="M1891.83 356.783L1891.74 357.244L1937.54 365.817L1937.62 365.356L1891.83 356.783Z" fill="#EEEEEE"/>
<path d="M1834.61 352.481L1826.72 331.933L1841.65 327.089L1841.8 327.558L1827.34 332.245L1835.08 352.325L1834.61 352.481Z" fill="#EEEEEE"/>
<path d="M1841.26 291.227L1829.14 276.07L1829.53 275.758L1841.65 290.915L1841.26 291.227Z" fill="#EEEEEE"/>
<path d="M1817.57 322.401L1817.49 322.323L1811.16 315.604L1811.47 315.292L1817.73 321.855L1832.89 319.354L1828.51 301.932L1828.9 302.01L1838.52 303.416L1838.44 303.963L1829.22 302.557L1833.52 319.745L1833.28 319.823L1817.57 322.401Z" fill="#EEEEEE"/>
<path d="M1815.93 335.057L1800.37 326.854L1817.73 321.854L1826.95 331.698L1832.97 319.432L1833.44 319.666L1827.11 332.557L1817.57 322.401L1801.7 327.01L1816.16 334.589L1815.93 335.057Z" fill="#EEEEEE"/>
<path d="M1837.19 339.277L1826.87 332.323L1827.18 331.933L1837.5 338.886L1837.19 339.277Z" fill="#EEEEEE"/>
<path d="M1817.88 322.166L1817.41 322.088L1819.29 294.274L1828.9 301.931L1841.25 290.915L1845.48 276.695L1845.63 263.101H1846.1L1845.95 276.773L1841.65 291.227H1841.57L1828.9 302.556L1819.76 295.29L1817.88 322.166Z" fill="#EEEEEE"/>
<path d="M1864.63 277.79L1864.55 277.555L1844.93 276.852L1862.52 264.82L1864.86 276.852L1877.53 266.695L1877.84 267.086L1864.63 277.79ZM1846.49 276.462L1864.47 277.087L1862.2 265.68L1846.49 276.462Z" fill="#EEEEEE"/>
<path d="M1824.84 345.839L1824.29 345.761L1826.64 332.401L1815.69 335.057L1817.41 321.932L1828.59 302.087L1829.06 275.523H1829.29L1845.87 276.383V276.539L1849.15 293.258L1865.02 276.539L1864.94 277.32L1862.13 298.962L1874.16 286.461L1872.21 311.619L1884.33 284.82L1891.05 262.71L1891.52 262.866L1884.8 285.055L1872.6 312.322L1920.83 276.773L1920.68 277.398L1910.67 326.854L1910.44 326.776L1872.05 313.416L1871.43 313.884L1871.66 313.338L1844.54 309.197L1861.66 299.665L1864.39 278.18L1848.92 294.508L1845.48 277.086L1829.61 276.148L1829.14 302.321L1817.96 322.166L1816.4 334.432L1827.34 331.698L1824.84 345.839ZM1872.52 313.025L1910.28 326.229L1920.05 277.945L1872.52 313.025ZM1846.02 308.806L1871.43 312.713L1861.89 300.056L1861.58 300.368V300.134L1846.02 308.806ZM1862.2 299.743L1871.74 312.4L1873.62 287.868L1862.2 299.743Z" fill="#EEEEEE"/>
<path d="M1884.64 285.211L1884.48 284.743L1920.36 277.086L1920.44 277.555L1884.64 285.211Z" fill="#EEEEEE"/>
<path d="M1893.94 246.46L1893.63 246.069L1917.31 229.584L1917.63 229.975L1893.94 246.46Z" fill="#EEEEEE"/>
<path d="M1835.63 538.975L1789.82 524.521L1790.05 524.287L1816.24 494.363L1816.63 494.754L1790.68 524.287L1835.78 538.506L1835.63 538.975Z" fill="#EEEEEE"/>
<path d="M1772.23 605.931L1772.31 605.54L1782.39 573.976L1749.72 581.399L1749.64 580.93L1782.16 573.507L1741.35 544.678L1741.75 544.522L1790.52 524.052V524.442L1783.1 573.429L1783.02 573.742L1773.01 605.306L1827.65 599.446L1827.73 599.915L1772.23 605.931ZM1742.45 544.756L1782.63 573.117L1789.98 524.755L1742.45 544.756Z" fill="#EEEEEE"/>
<path d="M2028.63 694.295L2023.94 682.576L2041.45 667.575L2015.34 652.027L2015.5 651.793L2038.48 617.103L2008.15 576.867L1952.88 581.867L1875.57 575.617L1875.49 575.539L1835.55 538.74L1816.32 494.675L1785.91 486.159L1790.52 524.755L1790.21 524.677L1759.1 517.02L1759.33 516.707L1785.21 485.847V485.612L1785.6 485.69L1816.24 494.284L1823.67 470.611L1823.98 470.768L1843.76 482.878L1843.29 483.034L1816.71 494.675L1835.86 538.584L1875.65 575.226L1952.8 581.476L2008.3 576.476L2008.38 576.554L2039.03 617.182L2038.95 617.338L2016.04 651.949L2042.31 667.575L2042.07 667.809L2024.56 682.81L2029.18 694.217L2028.63 694.295ZM1759.96 516.707L1789.98 524.13L1785.36 486.55L1759.96 516.707ZM1823.98 471.314L1816.87 494.128L1842.74 482.799L1823.98 471.314Z" fill="#EEEEEE"/>
<path d="M1811.39 627.573L1811 627.339L1827.34 599.837L1782.39 573.586L1782.71 573.351L1836.1 538.193L1836.02 538.74L1827.97 599.29L1875.81 575.07V575.461L1878.62 620.698H1878.15L1875.34 575.773L1827.81 599.837L1811.39 627.573ZM1783.25 573.586L1827.42 599.368L1835.39 539.287L1783.25 573.586Z" fill="#EEEEEE"/>
<path d="M1858.92 617.572L1858.69 617.416L1827.58 599.915L1827.81 599.446L1858.69 616.791L1875.42 575.304L1886.52 522.88L1835.31 539.131L1835.63 538.584L1863.14 486.081L1863.38 486.472L1886.83 521.864L1892.53 489.597L1933.18 534.834L1932.4 534.599L1887.22 522.802L1876.04 575.461L1858.92 617.572ZM1863.06 487.097L1836.25 538.271L1886.44 522.333L1863.06 487.097ZM1887.06 522.411L1931.54 533.974L1892.69 490.691L1887.06 522.411Z" fill="#EEEEEE"/>
<path d="M1934.82 621.791H1934.12L1893.08 621.557V621.088L1933.42 621.322L1875.18 575.461L1875.42 575.304L1932.32 533.974L1932.48 534.287L1952.88 581.164L1989 524.521L1989.15 524.989L2008.38 576.32L2051.38 546.397L2051.45 546.787L2056.85 588.118L2056.38 588.196L2050.98 547.256L2008.15 577.101L2007.99 576.789L1988.84 525.614L1952.8 582.258L1952.57 581.789L1932.17 534.755L1875.96 575.461L1934.82 621.791Z" fill="#EEEEEE"/>
<path d="M1909.89 645.23L1909.58 644.84L1933.97 621.323L1952.8 581.164L1953.04 581.399L1988.92 618.51L2008.15 576.32L2008.38 576.398L2057.08 587.962L2038.95 617.338L1989.15 619.213L1989.08 619.369L1988.76 619.213L1952.88 582.102L1934.28 621.713L1909.89 645.23ZM2008.38 577.023L1989.31 618.823L2038.63 616.947L2056.3 588.352L2008.38 577.023Z" fill="#EEEEEE"/>
<path d="M2008.46 576.789L2007.99 576.633L2026.91 514.754L1989 525.302L1931.93 534.677L1940.06 497.253L1891.83 490.3L1920.52 473.58L1920.68 473.737L1940.14 496.394L1939.98 467.564L1940.3 467.643L1962.26 471.393L1940.61 497.175V497.332H1940.53L1932.56 534.13L1988.84 524.833L2027.61 514.051L2027.46 514.442L2008.46 576.789ZM1893.24 489.987L1939.75 496.707L1920.36 474.205L1893.24 489.987ZM1940.45 468.189L1940.61 496.394L1961.32 471.705L1940.45 468.189Z" fill="#EEEEEE"/>
</g>
</g>
<defs>
<clipPath id="clip0_303_197251">
<rect width="1920" height="1028" fill="white"/>
</clipPath>
<clipPath id="clip1_303_197251">
<rect width="598" height="598" fill="white" transform="translate(1642 127)"/>
</clipPath>
</defs>
</svg>
