<svg width="107" height="96" viewBox="0 0 107 96" fill="none" xmlns="http://www.w3.org/2000/svg">
<g clip-path="url(#clip0_128_193427)">
<path d="M39.3118 1.02158C40.5022 0.607312 41.6926 0.745402 41.9141 1.18729C42.1633 1.68441 41.4158 2.56819 40.17 3.14816C38.6197 3.86623 36.9863 4.33574 35.2422 4.25288C36.1558 2.67866 37.623 1.60156 39.3118 1.02158Z" fill="#798393"/>
<path d="M35.4084 0.0831472C34.9654 -0.193032 33.8857 0.331709 33.1106 1.29834C32.0032 2.67923 31.3388 4.33631 31.4495 6.1591C31.4772 6.13148 31.5049 6.13148 31.5325 6.10386C32.5292 4.88867 33.0552 3.97728 33.6919 2.56876C33.6919 2.54115 33.7196 2.54115 33.7473 2.56876C33.775 2.56876 33.775 2.59638 33.7473 2.624C33.0552 4.44678 32.5569 5.19247 32.0309 5.80006C33.2213 4.99914 34.0518 4.11537 34.8547 2.90018C35.5745 1.76784 35.879 0.359327 35.4084 0.0831472Z" fill="#798393"/>
<path d="M30.0095 1.85062C29.4282 1.68492 28.4315 2.95534 27.9609 3.94959C27.1857 5.55143 26.7428 7.23612 27.1857 9.00367C27.2134 8.97606 27.2411 8.94844 27.2688 8.92082C28.0439 7.53992 28.0163 6.82186 28.7637 5.08193C28.7637 5.05431 28.7914 5.05431 28.8191 5.05431C28.8468 5.05431 28.8468 5.08193 28.8468 5.10954C28.3485 6.76662 28.127 7.84372 27.7394 8.53417C28.7361 7.59516 29.4282 6.57329 29.9819 5.24763C30.4525 4.00482 30.674 2.04395 30.0095 1.85062Z" fill="#798393"/>
<path d="M25.2214 4.25334C24.4463 4.11525 23.2835 5.74471 22.7299 7.01514C21.8993 9.00363 21.4564 11.075 22.1762 13.1739C22.2038 13.1463 22.2315 13.1187 22.2592 13.0911C23.1451 11.3235 23.0344 10.4674 23.8649 8.28556C23.8649 8.25794 23.8926 8.25794 23.9203 8.25794C23.948 8.25794 23.9756 8.28556 23.9756 8.28556C23.4773 10.3293 23.2559 11.655 22.8129 12.5111C24.031 11.2683 24.8339 9.97026 25.4152 8.31318C25.9689 6.79419 26.1073 4.39143 25.2214 4.25334Z" fill="#798393"/>
<path d="M19.0196 8.67209C18.2998 8.61685 17.6908 10.4949 17.4416 11.7653C17.054 13.8366 16.8879 15.7699 17.8845 17.7032C17.9122 17.6755 17.9399 17.6479 17.9676 17.6203C18.1337 16.267 18.0506 14.9966 18.549 12.7319C18.549 12.7043 18.5767 12.6767 18.6043 12.7043C18.632 12.7043 18.632 12.7319 18.632 12.7595C18.4105 14.9966 18.2998 16.5708 18.3552 17.0127C19.2411 15.6594 19.4625 14.5823 19.7117 12.8976C19.9332 11.3234 19.8501 8.69971 19.0196 8.67209Z" fill="#798393"/>
<path d="M14.2291 13.3397C13.5093 13.4226 13.1217 15.632 13.094 16.93C13.0386 19.029 13.3432 20.6861 14.672 22.4536C14.672 22.3984 14.672 22.3708 14.6997 22.3432C14.6443 20.9899 14.3398 19.7471 14.4505 17.4272C14.4505 17.3995 14.4782 17.3719 14.5059 17.3719C14.5336 17.3719 14.5613 17.3995 14.5613 17.4272C14.7274 19.6642 14.8935 21.2384 15.0042 21.6803C15.641 20.2166 15.8348 18.8633 15.7794 17.151C15.724 15.5768 15.0596 13.2292 14.2291 13.3397Z" fill="#798393"/>
<path d="M22.4799 19.6089C22.5629 20.1613 20.7911 21.0727 19.7114 21.4593C17.9673 22.0669 16.5001 22.3431 14.5898 21.9012C14.6175 21.8736 14.6452 21.846 14.6729 21.846C15.8356 21.5146 16.9707 21.3489 18.9086 20.6308C18.9363 20.6308 18.9363 20.6032 18.9363 20.5756C18.9363 20.5479 18.9086 20.5479 18.8809 20.5479C16.8876 21.0727 15.5311 21.4317 15.0882 21.4593C16.1125 20.5756 17.2199 20.0232 18.7425 19.5537C20.1544 19.1118 22.3691 18.9461 22.4799 19.6089Z" fill="#798393"/>
<path d="M26.1628 15.8801C26.3012 16.5154 24.3633 17.2887 23.1729 17.5925C21.2627 18.062 19.657 18.1724 17.6914 17.4544C17.7191 17.4268 17.7468 17.3991 17.7745 17.3991C19.0479 17.1506 20.2384 17.123 22.3424 16.5706C22.3701 16.5706 22.3701 16.543 22.3701 16.5154C22.3701 16.4877 22.3424 16.4877 22.3147 16.4877C20.2107 16.8192 18.7434 17.0125 18.3005 17.0125C19.4909 16.1839 20.6813 15.7144 22.2593 15.4106C23.7266 15.1068 26.0244 15.1897 26.1628 15.8801Z" fill="#798393"/>
<path d="M30.8409 12.0696C30.8963 12.7048 28.903 13.34 27.7126 13.5333C25.7747 13.8371 24.1966 13.8095 22.3418 12.8981C22.3695 12.8705 22.3972 12.8429 22.4249 12.8153C23.6983 12.7048 24.8888 12.7876 27.0205 12.401C27.0481 12.401 27.0481 12.3734 27.0481 12.3458C27.0481 12.3181 27.0205 12.3181 26.9928 12.3181C24.8888 12.4838 23.4215 12.5391 23.0062 12.4838C24.2797 11.7382 25.4978 11.3791 27.0758 11.2134C28.5431 11.0477 30.7855 11.3239 30.8409 12.0696Z" fill="#798393"/>
<path d="M34.7727 8.64471C34.7727 9.19707 32.9732 9.63895 31.8935 9.74942C30.1771 9.88751 28.7652 9.77704 27.2148 8.83803C27.2425 8.81041 27.2702 8.81041 27.2979 8.7828C28.4053 8.75518 29.4573 8.89327 31.3398 8.69994C31.3675 8.69994 31.3675 8.67232 31.3675 8.67232C31.3675 8.64471 31.3398 8.64471 31.3398 8.64471C29.485 8.64471 28.1838 8.61709 27.7962 8.53423C28.959 7.95426 30.0663 7.73331 31.4782 7.67808C32.8071 7.62284 34.7727 8.00949 34.7727 8.64471Z" fill="#798393"/>
<path d="M10.0217 18.5321C9.27419 18.7254 9.13576 21.073 9.27419 22.4539C9.49566 24.6633 10.0217 26.348 11.6274 28.0051C11.655 27.9498 11.655 27.9222 11.655 27.8946C11.4336 26.4585 10.9906 25.2156 10.7691 22.7853C10.7691 22.7576 10.7968 22.73 10.7968 22.73C10.8245 22.73 10.8522 22.7576 10.8522 22.7576C11.3505 25.1052 11.7104 26.707 11.9042 27.1489C12.3748 25.5194 12.4302 24.0833 12.1534 22.3158C11.8765 20.6587 10.8799 18.3112 10.0217 18.5321Z" fill="#798393"/>
<path d="M19.5734 23.4483C19.6564 24.194 17.6078 25.713 16.4451 26.3758C14.7009 27.3424 13.289 27.8119 11.5449 27.5081C11.5726 27.4805 11.6003 27.4529 11.6003 27.4253C12.6246 26.9005 13.7043 26.5967 15.6145 25.4368C15.6422 25.4368 15.6422 25.4092 15.6422 25.3815C15.6422 25.3539 15.6145 25.3539 15.5868 25.3539C13.6489 26.2653 12.3755 26.8453 11.9879 26.9281C12.9291 25.7406 13.9535 24.8844 15.4761 24.0559C16.9434 23.2273 19.4626 22.5369 19.5734 23.4483Z" fill="#798393"/>
<path d="M6.72769 24.5523C6.03558 24.7732 6.14632 27.535 6.45085 28.8607C6.94917 30.9872 7.66896 32.1472 9.44076 33.6938C9.44076 33.6386 9.44076 33.6109 9.46844 33.5833C9.08086 32.23 8.47181 31.0149 7.97349 28.6673C7.97349 28.6397 7.97349 28.6121 8.00117 28.6121C8.02886 28.6121 8.05654 28.6121 8.05654 28.6397C8.80402 30.8768 9.33002 32.4234 9.57918 32.8653C9.82834 31.2634 9.68992 29.8549 9.21928 28.1426C8.80402 26.5407 7.55822 24.3037 6.72769 24.5523Z" fill="#798393"/>
<path d="M3.93191 30.9047C3.15675 31.3742 3.87654 33.2523 4.34717 34.3017C5.1777 36.1521 6.17434 37.2016 8.47214 38.693C8.47214 38.6378 8.47214 38.6101 8.47214 38.5549C7.64161 37.1464 6.72803 36.014 5.73139 33.9427C5.73139 33.9151 5.73139 33.8875 5.75907 33.8875C5.78676 33.8875 5.81444 33.8875 5.81444 33.9151C7.03255 35.8483 8.00151 37.3397 8.41677 37.7816C8.25066 36.0969 7.72466 34.7989 6.83876 33.3351C6.09129 32.0923 4.79012 30.4076 3.93191 30.9047Z" fill="#798393"/>
<path d="M2.18641 36.4556C1.41124 37.0908 2.3802 39.024 2.98925 40.1011C4.06894 41.9792 5.23168 42.9734 7.83401 44.2438C7.83401 44.1886 7.80633 44.161 7.80633 44.1057C6.78201 42.6972 5.70232 41.6201 4.42884 39.4935C4.40115 39.4659 4.42884 39.4383 4.45652 39.4383C4.48421 39.4383 4.51189 39.4383 4.53958 39.4659C6.03453 41.3992 7.22496 42.8629 7.69559 43.2772C7.30801 41.4544 6.6159 40.1011 5.53621 38.6374C4.59494 37.4222 3.01694 35.7651 2.18641 36.4556Z" fill="#798393"/>
<path d="M17.1643 27.6184C17.4688 28.1708 15.5309 30.325 14.5066 31.1811C12.9009 32.5344 11.7105 33.0591 9.52344 33.4734C9.55112 33.4458 9.55112 33.4182 9.57881 33.3905C10.6308 32.562 11.7936 31.9268 13.5654 30.3526C13.593 30.325 13.593 30.2973 13.5654 30.2973C13.5377 30.2697 13.51 30.2973 13.51 30.2973C11.5998 31.6782 10.2986 32.6172 9.85565 32.8382C10.5478 31.5401 11.489 30.4907 12.9563 29.3307C14.3128 28.226 16.7767 26.9556 17.1643 27.6184Z" fill="#798393"/>
<path d="M14.9506 33.1145C15.3936 33.7773 14.0647 35.1582 13.2619 35.9039C11.8777 37.202 10.6872 37.8096 8.16797 38.3895C8.19565 38.3619 8.19565 38.3067 8.22334 38.2791C9.44145 37.34 10.6319 36.6496 12.2376 35.1858C12.2653 35.1582 12.2653 35.1582 12.2376 35.1306C12.2099 35.1306 12.1822 35.1306 12.1822 35.1306C10.4381 36.4287 9.05387 37.3953 8.55555 37.6438C9.30303 36.2629 10.2166 35.2963 11.5455 34.3021C12.6805 33.4459 14.4523 32.3688 14.9506 33.1145Z" fill="#798393"/>
<path d="M13.5378 37.7815C14.2022 38.472 13.0949 40.0738 12.3751 40.9576C11.1293 42.5042 9.93886 43.1946 7.44727 43.747C7.44727 43.6918 7.47495 43.6641 7.50263 43.6089C8.58232 42.5318 9.71738 41.7861 11.1293 40.1014C11.157 40.0738 11.1293 40.0462 11.1293 40.0462C11.1016 40.0186 11.0739 40.0462 11.0739 40.0462C9.49591 41.5099 8.25011 42.587 7.77948 42.8632C8.36085 41.289 9.13601 40.2119 10.2711 39.1348C11.24 38.2234 12.8457 37.0634 13.5378 37.7815Z" fill="#798393"/>
<path d="M0.720438 43.195C-0.0824085 44.1617 1.19107 46.3435 1.99392 47.531C3.40582 49.6024 4.79004 50.569 7.83531 51.4804C7.83531 51.4252 7.80763 51.3699 7.77995 51.3147C6.50647 49.8233 5.14993 48.7462 3.51656 46.4539C3.48887 46.4263 3.51656 46.3987 3.51656 46.3711C3.54424 46.3435 3.57192 46.3435 3.59961 46.3711C5.48214 48.3872 6.94942 49.9338 7.5031 50.3205C6.92173 48.1663 6.00815 46.6473 4.62393 45.1283C3.51656 43.775 1.57865 42.1179 0.720438 43.195Z" fill="#798393"/>
<path d="M13.0117 43.3056C13.8146 44.1065 13.0117 46.0673 12.458 47.1721C11.4614 49.1606 10.2987 50.1272 7.61328 51.1214C7.61328 51.0662 7.64097 51.011 7.64097 50.9557C8.66529 49.4644 9.77266 48.3873 10.9631 46.2331C10.9908 46.2054 10.9631 46.1778 10.9354 46.1502C10.9077 46.1226 10.88 46.1226 10.8523 46.1502C9.41276 48.0558 8.22234 49.5748 7.7517 49.9615C8.05623 47.9177 8.72065 46.4816 9.77266 45.0731C10.6862 43.8855 12.1535 42.4494 13.0117 43.3056Z" fill="#798393"/>
<path d="M0.11086 51.3697C-0.470511 52.4744 1.21823 54.3524 2.27024 55.3467C4.06972 57.1142 5.64773 57.7771 8.80374 58.0532C8.77606 57.998 8.74838 57.9428 8.72069 57.8875C7.14268 56.6723 5.62004 55.8714 3.54372 53.9382C3.51603 53.9105 3.51603 53.8829 3.54372 53.8553C3.54372 53.8553 3.5714 53.8553 3.59909 53.8553C5.84152 55.4571 7.61332 56.6723 8.25006 56.9485C7.22574 54.96 6.03531 53.6344 4.37425 52.4192C2.96235 51.3973 0.7476 50.1545 0.11086 51.3697Z" fill="#798393"/>
<path d="M0.996174 59.379C0.663962 60.5666 2.51881 62.4723 3.81998 63.0799C6.11778 64.1293 7.6681 64.5988 10.8241 64.295C10.7964 64.2398 10.7411 64.2122 10.7134 64.157C8.94158 63.2456 7.28052 62.7761 4.8443 61.2847C4.81661 61.2847 4.81661 61.2294 4.81661 61.2018C4.8443 61.1742 4.87198 61.1742 4.89967 61.1742C7.41894 62.3342 9.41222 63.1903 10.0766 63.3284C8.69242 61.5609 7.25284 60.5114 5.3703 59.6276C3.79229 58.8543 1.38375 58.081 0.996174 59.379Z" fill="#798393"/>
<path d="M2.21496 66.4762C2.07654 67.7466 4.37434 69.2932 5.81393 69.6523C8.38857 70.2875 10.0496 70.4532 13.2333 69.5418C13.178 69.4866 13.1503 69.459 13.0949 69.4313C11.1016 68.8514 9.30215 68.6856 6.53372 67.6362C6.50603 67.6362 6.47835 67.6085 6.50603 67.5533C6.50603 67.5257 6.5614 67.4981 6.58909 67.4981C9.38521 68.1885 11.9875 68.6856 12.6796 68.7133C10.9355 67.2219 8.8592 66.3934 6.75519 65.841C4.9834 65.4267 2.35338 65.0953 2.21496 66.4762Z" fill="#798393"/>
<path d="M13.2327 49.8229C14.0078 50.4581 13.3988 52.3361 12.9835 53.4132C12.2083 55.3741 11.2117 56.5064 8.60938 58.0806C8.60938 58.0254 8.60938 57.9702 8.60938 57.9149C9.52296 56.2579 10.5196 55.0427 11.5162 52.8056C11.5162 52.778 11.5162 52.7504 11.4885 52.7504C11.4609 52.7504 11.4332 52.7504 11.4332 52.778C10.1874 54.8217 9.10769 56.5064 8.66474 56.9759C8.80317 54.9598 9.35685 53.4684 10.2981 51.9495C11.0733 50.679 12.3468 49.1048 13.2327 49.8229Z" fill="#798393"/>
<path d="M14.3693 55.4291C15.2275 56.009 15.0337 58.3289 14.5077 59.4337C13.5665 61.4222 12.819 62.6373 10.5489 64.3497C10.5489 64.2944 10.5489 64.2392 10.5489 64.184C11.241 62.5545 12.0715 61.2841 12.8467 58.9089C12.8467 58.8813 12.8467 58.8537 12.819 58.8537C12.7913 58.8537 12.7636 58.8537 12.7636 58.8813C11.7116 61.1184 10.8811 62.8307 10.4935 63.3278C10.4104 61.3945 10.798 59.8756 11.5455 58.1632C12.2099 56.7271 13.4003 54.7938 14.3693 55.4291Z" fill="#798393"/>
<path d="M16.2236 60.6772C17.2479 61.2572 17.4417 63.4942 17.0265 64.5713C16.279 66.5874 15.5869 67.8302 13.1506 69.4045C13.1506 69.3492 13.1506 69.294 13.123 69.2111C13.732 67.4712 14.5072 66.2008 15.0609 63.8256C15.0609 63.798 15.0609 63.7704 15.0332 63.7704C15.0055 63.7704 14.9778 63.7704 14.9778 63.798C14.1196 65.9522 13.1783 67.996 12.8184 68.4931C12.5416 66.3665 12.9845 64.5713 13.6213 62.9971C14.1196 61.6991 15.1162 60.042 16.2236 60.6772Z" fill="#798393"/>
<path d="M5.09398 73.2708C5.0663 74.5689 7.5302 75.7841 9.02516 75.8945C11.6829 76.0879 13.3993 75.9774 16.5276 74.5136C16.4722 74.486 16.4169 74.4584 16.3615 74.4032C14.2852 74.1822 12.458 74.3203 9.57885 73.7403C9.55116 73.7403 9.52348 73.7127 9.55116 73.6851C9.55116 73.6575 9.57885 73.6299 9.60653 73.6299C12.5134 73.8232 15.1711 73.906 15.8909 73.8232C13.9807 72.608 11.8213 72.1109 9.6619 71.9452C7.80705 71.7518 5.12167 71.8623 5.09398 73.2708Z" fill="#798393"/>
<path d="M18.7969 65.6479C19.9597 66.0898 20.2642 68.2716 19.9043 69.4039C19.2676 71.3924 18.6308 72.6076 16.3884 74.3752C16.3607 74.3199 16.3607 74.2923 16.333 74.2371C16.776 72.6352 17.4404 71.3648 17.828 69.0449C17.828 69.0173 17.8003 68.9897 17.7726 68.9897C17.7449 68.9897 17.7173 68.9897 17.7173 69.0173C16.9975 71.1991 16.25 73.16 15.9455 73.6571C15.4471 71.8343 15.6963 70.0944 16.1946 68.4649C16.6099 67.084 17.5511 65.1784 18.7969 65.6479Z" fill="#798393"/>
<path d="M9.5239 78.7938C9.69001 80.0919 12.237 80.9756 13.7042 80.9204C16.3066 80.8099 17.9399 80.4785 20.7637 78.6557C20.7084 78.6281 20.653 78.6005 20.5976 78.5729C18.5767 78.6005 16.8049 78.9319 13.9257 78.711C13.898 78.711 13.8703 78.6833 13.8703 78.6557C13.8703 78.6281 13.898 78.6005 13.9257 78.6005C16.7772 78.4624 19.3518 78.2138 20.0163 78.0481C17.9953 77.0539 15.8359 76.8606 13.7042 76.9158C11.9324 76.971 9.33011 77.3853 9.5239 78.7938Z" fill="#798393"/>
<path d="M21.9536 69.9014C23.0332 70.1776 23.4762 72.3318 23.227 73.5194C22.8118 75.646 22.3411 76.944 20.3755 79.0982C20.3479 79.043 20.3479 79.0154 20.3202 78.9601C20.597 77.2754 21.123 75.8669 21.2891 73.4642C21.2891 73.4365 21.2614 73.4089 21.2338 73.4089C21.2061 73.4089 21.1784 73.4365 21.1784 73.4365C20.7078 75.7564 20.1541 77.8554 19.9049 78.4078C19.3235 76.6126 19.4066 74.8174 19.7665 73.0775C20.0987 71.6414 20.7908 69.5976 21.9536 69.9014Z" fill="#798393"/>
<path d="M15.1157 83.1302C15.3926 84.2349 17.635 84.8425 18.8808 84.6768C21.0955 84.4006 22.4797 84.014 24.7222 82.2188C24.6668 82.1912 24.6114 82.1912 24.5838 82.1636C22.8396 82.3293 21.3724 82.7435 18.8808 82.7435C18.8531 82.7435 18.8254 82.7159 18.8254 82.6883C18.8254 82.6607 18.8531 82.6331 18.8808 82.6331C21.317 82.3293 23.5041 81.9426 24.0578 81.7217C22.2306 81.0036 20.3481 80.9484 18.5486 81.1693C17.0259 81.3626 14.8389 81.915 15.1157 83.1302Z" fill="#798393"/>
<path d="M20.5704 87.936C21.0687 88.875 23.2557 88.9026 24.3354 88.4883C26.2456 87.7427 27.4084 87.0798 29.0141 84.9532C28.9587 84.9532 28.931 84.9532 28.8757 84.9256C27.353 85.4504 26.1349 86.1684 23.8925 86.7484C23.8648 86.7484 23.8371 86.7484 23.8371 86.7208C23.8371 86.6932 23.8371 86.6656 23.8648 86.6656C25.9688 85.837 27.8513 84.9809 28.2943 84.6771C26.4948 84.4561 24.7784 84.8428 23.2004 85.4504C21.8438 85.9199 20.0167 86.9141 20.5704 87.936Z" fill="#798393"/>
<path d="M25.5807 90.3107C26.079 91.084 27.9892 90.9183 28.9028 90.4212C30.5362 89.5651 31.5328 88.8746 32.8063 86.8585C32.7509 86.8585 32.7232 86.8585 32.6679 86.8585C31.3667 87.4661 30.3147 88.2118 28.3768 88.9298C28.3491 88.9298 28.3214 88.9298 28.3214 88.9022C28.3214 88.8746 28.3214 88.847 28.3491 88.847C30.1486 87.908 31.7543 86.9966 32.1419 86.6652C30.5362 86.6375 29.0689 87.1347 27.7124 87.8251C26.5773 88.4327 25.027 89.4822 25.5807 90.3107Z" fill="#798393"/>
<path d="M25.4419 73.4362C26.4939 73.7124 27.103 75.8113 26.9922 76.916C26.7708 78.9321 26.4385 80.2026 24.8052 82.2187C24.7775 82.1634 24.7775 82.1358 24.7498 82.0806C24.8605 80.4511 25.2481 79.1255 25.1651 76.8332C25.1651 76.8056 25.1374 76.7779 25.1097 76.7779C25.082 76.7779 25.0543 76.8056 25.0543 76.8056C24.8052 79.015 24.473 81.0311 24.3068 81.5559C23.5871 79.8159 23.504 78.1036 23.6701 76.4465C23.8085 75.0656 24.2792 73.1324 25.4419 73.4362Z" fill="#798393"/>
<path d="M29.2068 76.6953C30.2311 76.8886 30.9232 78.8219 30.8402 79.899C30.7017 81.8046 30.4249 83.0198 28.9299 85.0359C28.9023 84.9807 28.9023 84.953 28.8746 84.8978C28.9299 83.3788 29.2345 82.1084 29.0684 79.9542C29.0684 79.9266 29.0407 79.9266 29.013 79.9266C28.9853 79.9266 28.9576 79.9542 28.9576 79.9542C28.7915 82.0532 28.57 83.9588 28.4316 84.4559C27.6841 82.9093 27.518 81.2799 27.6288 79.7332C27.7118 78.4076 28.0994 76.5019 29.2068 76.6953Z" fill="#798393"/>
<path d="M33.0273 79.457C33.9132 79.5398 34.5222 81.2245 34.4669 82.1911C34.3561 83.9587 34.107 85.091 32.7781 87.0795C32.7504 87.0519 32.7504 86.9967 32.7227 86.969C32.7504 85.5605 33.0273 84.3729 32.9165 82.4121C32.9165 82.3845 32.8889 82.3845 32.8612 82.3845C32.8335 82.3845 32.8058 82.4121 32.8058 82.4121C32.6674 84.3453 32.4736 86.1129 32.3352 86.5824C31.6707 85.2291 31.56 83.7654 31.6431 82.3292C31.6984 81.114 32.0583 79.3741 33.0273 79.457Z" fill="#798393"/>
<path d="M31.0904 92.6862C31.7271 93.4043 33.3882 93.0176 34.0803 92.4653C35.3261 91.471 35.9905 90.6977 36.6272 88.6264C36.5996 88.6264 36.5442 88.6264 36.5165 88.6264C35.5199 89.3444 34.8001 90.2006 33.2497 91.0844C33.2221 91.0844 33.2221 91.0844 33.1944 91.0568C33.1944 91.0291 33.1944 91.0015 33.1944 91.0015C34.5509 89.9244 35.7137 88.8473 35.9905 88.4883C34.5509 88.6264 33.3882 89.2616 32.3638 90.0625C31.5056 90.7253 30.3983 91.9129 31.0904 92.6862Z" fill="#798393"/>
<path d="M36.4873 94.2328C37.1517 94.9233 38.6744 94.5919 39.2557 94.0671C40.3077 93.1281 40.8614 92.4101 41.249 90.3939C41.2213 90.3939 41.166 90.3939 41.1383 90.3939C40.2801 91.0844 39.6987 91.8853 38.3422 92.7139C38.3422 92.7139 38.3145 92.7139 38.2868 92.6862C38.2591 92.6586 38.2591 92.631 38.2868 92.631C39.4495 91.6091 40.4462 90.5873 40.64 90.2559C39.3111 90.3663 38.2868 90.9463 37.4009 91.7196C36.6534 92.3548 35.7398 93.4595 36.4873 94.2328Z" fill="#798393"/>
<path d="M41.3338 95.5862C41.8598 96.1386 42.9671 95.7243 43.4101 95.2272C44.1852 94.3158 44.6005 93.6254 44.822 91.8026C44.7943 91.8026 44.7666 91.8026 44.7389 91.8302C44.1022 92.5206 43.6869 93.2663 42.6903 94.0949C42.6903 94.0949 42.6626 94.0949 42.6626 94.0673C42.6626 94.0396 42.6626 94.0396 42.6626 94.012C43.4931 93.0178 44.2406 92.0235 44.379 91.7197C43.3824 91.9131 42.6349 92.5207 41.9982 93.2663C41.4168 93.9015 40.7801 94.9786 41.3338 95.5862Z" fill="#798393"/>
<path d="M38.9789 5.55136C39.0066 6.04848 38.0653 6.76655 36.8196 6.98749C35.0478 7.31891 33.2483 7.12558 31.6426 6.21419C31.6703 6.18657 31.6979 6.18657 31.7256 6.15895C33.3036 5.85516 34.3556 5.79992 35.9336 5.91039C35.9613 5.91039 35.9613 5.88277 35.9613 5.85516C35.9613 5.82754 35.9336 5.82754 35.9336 5.82754C33.9404 5.60659 33.0545 5.68945 32.2516 5.85516C33.4697 5.19233 34.6602 4.86091 36.1274 4.75044C37.484 4.63997 38.9236 4.999 38.9789 5.55136Z" fill="#798393"/>
<path d="M36.3766 81.6391C37.3179 81.6114 38.0653 83.0752 38.0653 83.9866C38.093 85.6437 37.9546 86.7208 36.7365 88.7369C36.7088 88.7093 36.6811 88.6816 36.6811 88.654C36.5981 87.3284 36.7918 86.1684 36.4873 84.3732C36.4873 84.3456 36.4596 84.3456 36.4319 84.3456C36.4043 84.3456 36.3766 84.3732 36.3766 84.4009C36.4043 86.2236 36.3212 87.8807 36.2382 88.3502C35.4353 87.1626 35.1862 85.8094 35.1585 84.4561C35.1308 83.3238 35.3523 81.6943 36.3766 81.6391Z" fill="#798393"/>
<path d="M40.0865 84.1522C41.0555 84.0694 41.969 85.3674 42.0798 86.1683C42.2736 87.6321 42.2182 88.5711 41.1662 90.3939C41.1385 90.3663 41.1108 90.3386 41.0831 90.311C40.8894 89.1787 40.9447 88.1568 40.4741 86.5826C40.4741 86.555 40.4464 86.555 40.4187 86.555C40.391 86.555 40.391 86.5826 40.391 86.5826C40.5848 88.1844 40.6956 89.6482 40.6402 90.0625C39.6989 89.0682 39.3114 87.9083 39.1452 86.7207C38.9791 85.7541 39.0345 84.2627 40.0865 84.1522Z" fill="#798393"/>
<path d="M44.268 86.3062C45.0155 86.2233 45.6799 87.328 45.7076 88.0185C45.7906 89.2889 45.7076 90.1174 44.8217 91.7193C44.794 91.6917 44.794 91.664 44.7663 91.664C44.6556 90.6698 44.7663 89.786 44.4618 88.4327C44.4618 88.4051 44.4341 88.4051 44.4341 88.4051C44.4064 88.4051 44.4064 88.4327 44.4064 88.4327C44.4895 89.8136 44.4895 91.0841 44.4341 91.4431C43.7697 90.6146 43.5205 89.5927 43.4375 88.5708C43.3544 87.7147 43.4375 86.389 44.268 86.3062Z" fill="#798393"/>
<path d="M51.9088 95.8624C51.9088 95.8624 51.5489 95.5034 50.8568 94.951C50.137 94.3987 49.0297 93.653 47.4516 93.0178C44.2403 91.8578 39.3401 90.5045 33.9417 87.9361C28.5156 85.4228 22.425 81.6944 17.4418 76.1156C14.9225 73.3538 12.8462 70.0949 11.2128 66.5874C10.3269 64.8475 9.77325 62.9694 9.10883 61.119C8.69356 59.2134 8.08451 57.3354 7.89072 55.3745C7.19861 51.4804 7.19861 47.5862 7.36471 43.7197C7.66924 39.8808 8.33367 36.1248 9.44104 32.6173C10.6315 29.1098 12.0157 25.7957 13.8429 22.9234C15.587 20.0235 17.5526 17.4827 19.6012 15.3285C20.5978 14.2237 21.6222 13.2295 22.6465 12.3457C23.6154 11.4343 24.6397 10.661 25.6087 9.91534C27.5189 8.45159 29.2907 7.26401 30.8134 6.43548C32.3083 5.52408 33.5264 4.94411 34.3846 4.52984C35.2152 4.11557 35.6581 3.89462 35.6581 3.89462C35.7412 3.86701 35.8242 3.89462 35.8796 3.94986C35.9073 4.03271 35.8796 4.11557 35.7965 4.1708C35.7965 4.1708 35.3536 4.39175 34.5231 4.80602C33.6925 5.22029 32.4744 5.80026 31.0071 6.71166C29.5122 7.56781 27.7681 8.72777 25.8579 10.1915C24.8889 10.9372 23.8646 11.7105 22.8956 12.6495C21.8713 13.5333 20.8747 14.4999 19.9057 15.6046C17.8848 17.7312 15.9469 20.2721 14.2304 23.172C12.4309 26.0166 11.0744 29.2755 9.93936 32.7278C8.85967 36.2076 8.22293 39.9361 7.94608 43.7197C7.80766 47.5034 7.83535 51.4527 8.52746 55.2364C8.72125 57.1697 9.3303 59.0201 9.77325 60.8981C10.4377 62.7209 10.9637 64.5713 11.8496 66.256C13.4553 69.7082 15.5316 72.9119 18.0232 75.5908C22.951 81.0316 28.9585 84.6771 34.3293 87.1351C37.0146 88.3503 39.5616 89.3998 41.804 90.256C44.0742 91.1121 46.0674 91.7197 47.7008 92.3825C49.3619 92.9901 50.5523 93.7358 51.3275 94.2882C52.1303 94.8129 52.4902 95.1167 52.4902 95.1167L52.5179 95.1443C52.7117 95.31 52.7394 95.5862 52.5732 95.7519C52.4071 95.9453 52.1303 95.9729 51.9365 95.8072C51.9365 95.89 51.9088 95.8624 51.9088 95.8624Z" fill="#798393"/>
<path d="M67.6872 1.02256C66.4968 0.608289 65.3063 0.746378 65.0848 1.18827C64.8357 1.68539 65.5832 2.56916 66.829 3.14914C68.3793 3.86721 70.0127 4.33671 71.7568 4.25386C70.8432 2.67964 69.4036 1.60253 67.6872 1.02256Z" fill="#798393"/>
<path d="M71.5918 0.0831472C72.0348 -0.193032 73.1145 0.331709 73.8896 1.29834C74.997 2.67923 75.6614 4.33631 75.5507 6.1591C75.523 6.13148 75.4953 6.13148 75.4676 6.10386C74.471 4.88867 73.945 3.97728 73.3083 2.56876C73.3083 2.54115 73.2806 2.54115 73.2529 2.56876C73.2252 2.56876 73.2252 2.59638 73.2529 2.624C73.945 4.44678 74.4433 5.19247 74.9693 5.80006C73.8066 5.05438 72.976 4.1706 72.1732 2.95541C71.4257 1.76784 71.1212 0.359327 71.5918 0.0831472Z" fill="#798393"/>
<path d="M76.9891 1.85062C77.5705 1.68492 78.5671 2.95534 79.0377 3.94959C79.7852 5.55143 80.2282 7.23612 79.8129 9.00367C79.7852 8.97606 79.7575 8.94844 79.7298 8.92082C78.9547 7.53992 78.9824 6.82186 78.2349 5.08193C78.2349 5.05431 78.2072 5.05431 78.1795 5.05431C78.1518 5.05431 78.1518 5.08193 78.1518 5.10954C78.6502 6.76662 78.8716 7.84372 79.2592 8.53417C78.2626 7.59516 77.5705 6.57329 77.0168 5.24763C76.5461 4.00482 76.3247 2.04395 76.9891 1.85062Z" fill="#798393"/>
<path d="M81.7795 4.25334C82.5547 4.11525 83.7174 5.74471 84.2711 7.01514C85.1293 9.03125 85.5446 11.1026 84.8525 13.1739C84.8248 13.1463 84.7971 13.1187 84.7694 13.0911C83.8558 11.3235 83.9666 10.4674 83.1361 8.28556C83.1361 8.25794 83.1084 8.25794 83.0807 8.25794C83.053 8.25794 83.0253 8.28556 83.0253 8.28556C83.5236 10.3293 83.7451 11.6273 84.1881 12.5111C82.9699 11.2683 82.1671 9.97026 81.5857 8.31318C81.032 6.79419 80.8936 4.39143 81.7795 4.25334Z" fill="#798393"/>
<path d="M87.9814 8.67218C88.7012 8.64456 89.3102 10.495 89.5594 11.7654C89.947 13.8367 90.1131 15.77 89.1164 17.7032C89.0887 17.6756 89.0611 17.648 89.0611 17.5928C88.8949 16.2395 88.9503 14.9967 88.4797 12.732C88.4797 12.7044 88.452 12.6768 88.4243 12.7044C88.3966 12.7044 88.3966 12.732 88.3966 12.7596C88.6181 14.9967 88.7288 16.5709 88.6735 17.0128C87.7876 15.6595 87.5661 14.5824 87.3169 12.8977C87.0678 11.3235 87.1508 8.6998 87.9814 8.67218Z" fill="#798393"/>
<path d="M92.7706 13.3397C93.4904 13.4226 93.878 15.632 93.9056 16.93C93.961 19.029 93.6565 20.6861 92.3276 22.4536C92.2999 22.426 92.3 22.3708 92.2723 22.3432C92.3276 20.9899 92.6045 19.7471 92.5214 17.4548C92.5214 17.4272 92.4937 17.3995 92.4661 17.3995C92.4384 17.3995 92.4107 17.4272 92.4107 17.4548C92.2446 19.6918 92.0785 21.2661 91.9677 21.7079C91.331 20.2442 91.1372 18.8909 91.1926 17.1786C91.2756 15.5768 91.94 13.2292 92.7706 13.3397Z" fill="#798393"/>
<path d="M84.5204 19.609C84.4373 20.1614 86.2091 21.0728 87.2888 21.4594C89.0053 22.067 90.5002 22.3156 92.4104 21.9013C92.3828 21.8737 92.3551 21.8461 92.3274 21.8461C91.1646 21.5147 90.0296 21.3489 88.0917 20.6309C88.064 20.6309 88.064 20.6033 88.064 20.5756C88.064 20.548 88.0917 20.548 88.1194 20.548C90.0849 21.0728 91.4692 21.4042 91.8844 21.4318C90.8601 20.548 89.7527 19.9957 88.2301 19.5262C86.8459 19.1119 84.6311 18.9462 84.5204 19.609Z" fill="#798393"/>
<path d="M80.8386 15.8801C80.7279 16.4877 82.6381 17.2887 83.8285 17.5925C85.7387 18.062 87.3444 18.1724 89.31 17.4544C89.2823 17.4268 89.2546 17.4268 89.2269 17.3991C87.9535 17.1506 86.763 17.123 84.659 16.5706C84.6313 16.5706 84.6313 16.543 84.6313 16.5154C84.6313 16.4877 84.659 16.4877 84.6867 16.4877C86.7907 16.8192 88.258 17.0125 88.7009 17.0125C87.5105 16.1839 86.3201 15.7144 84.7421 15.4106C83.2748 15.1068 80.977 15.1897 80.8386 15.8801Z" fill="#798393"/>
<path d="M76.1593 12.0689C76.104 12.7041 78.0972 13.3393 79.2877 13.5327C81.2256 13.8365 82.8036 13.8088 84.6584 12.8974C84.6307 12.8698 84.6031 12.8698 84.5754 12.8422C83.3019 12.7041 82.1115 12.8146 80.0075 12.4279C79.9798 12.4279 79.9798 12.4003 79.9798 12.3727C79.9798 12.3451 80.0075 12.3451 80.0351 12.3451C82.1392 12.4832 83.6064 12.566 84.0494 12.5108C82.7759 11.7651 81.5578 11.4061 79.9798 11.2404C78.4571 11.047 76.2147 11.3232 76.1593 12.0689Z" fill="#798393"/>
<path d="M72.2285 8.64471C72.2285 9.19707 74.028 9.63895 75.1077 9.74942C76.8241 9.91513 78.236 9.77704 79.7863 8.83803C79.7587 8.81041 79.731 8.81041 79.7033 8.7828C78.5959 8.75518 77.5439 8.89327 75.6614 8.69994C75.6337 8.69994 75.6337 8.67232 75.6337 8.67232C75.6337 8.64471 75.6614 8.64471 75.6614 8.64471C77.5162 8.64471 78.8174 8.61709 79.205 8.53423C78.0422 7.95426 76.9349 7.73331 75.523 7.67808C74.1941 7.62284 72.2285 8.00949 72.2285 8.64471Z" fill="#798393"/>
<path d="M96.9785 18.5321C97.726 18.7254 97.8644 21.073 97.726 22.4539C97.5045 24.6633 96.9785 26.348 95.3728 28.0051C95.3451 27.9498 95.3451 27.9222 95.3451 27.8946C95.5666 26.4861 96.0372 25.2433 96.231 22.8129C96.231 22.7853 96.2033 22.7576 96.2033 22.7576C96.1756 22.7576 96.148 22.7853 96.148 22.7853C95.6773 25.1052 95.3174 26.707 95.1236 27.1489C94.653 25.5194 94.5976 24.0833 94.8745 22.3158C95.1236 20.6587 96.1203 18.3112 96.9785 18.5321Z" fill="#798393"/>
<path d="M87.4263 23.4484C87.3432 24.194 89.3919 25.713 90.5546 26.3759C92.3264 27.3425 93.7106 27.8396 95.4547 27.5082C95.4271 27.4806 95.3994 27.453 95.3994 27.4254C94.375 26.9006 93.2954 26.5968 91.3851 25.4369C91.3575 25.4092 91.3575 25.3816 91.3575 25.354C91.3575 25.3264 91.3851 25.3264 91.4128 25.3264C93.3507 26.2378 94.6242 26.8178 95.0118 26.9006C94.0705 25.713 93.0462 24.8569 91.5236 24.0283C90.0563 23.2274 87.537 22.537 87.4263 23.4484Z" fill="#798393"/>
<path d="M100.272 24.5523C100.964 24.7732 100.854 27.535 100.549 28.8607C100.051 30.9872 99.3311 32.1472 97.5593 33.6938C97.5593 33.6386 97.5593 33.6109 97.5316 33.5833C97.9192 32.23 98.5282 31.0149 99.0266 28.6673C99.0266 28.6397 99.0266 28.6121 98.9989 28.6121C98.9712 28.6121 98.9435 28.6121 98.9435 28.6397C98.196 30.8768 97.67 32.4234 97.4209 32.8653C97.1717 31.2634 97.3101 29.8549 97.7808 28.1426C98.196 26.5407 99.4418 24.3037 100.272 24.5523Z" fill="#798393"/>
<path d="M103.068 30.9047C103.843 31.3742 103.123 33.2523 102.652 34.3017C101.822 36.1521 100.825 37.2016 98.5273 38.693C98.5273 38.6378 98.5273 38.6101 98.5273 38.5549C99.3579 37.1464 100.271 36.014 101.268 33.9427C101.268 33.9151 101.268 33.8875 101.24 33.8875C101.213 33.8875 101.185 33.8875 101.185 33.9151C99.9669 35.8483 98.998 37.3397 98.5827 37.7816C98.7488 36.0969 99.2748 34.7989 100.161 33.3351C100.908 32.0923 102.209 30.4076 103.068 30.9047Z" fill="#798393"/>
<path d="M104.812 36.4564C105.587 37.0916 104.618 39.0249 104.009 40.102C102.929 41.98 101.766 42.9743 99.1641 44.2447C99.1641 44.1895 99.1918 44.1618 99.1918 44.1066C100.216 42.6981 101.296 41.621 102.569 39.4944C102.597 39.4668 102.569 39.4392 102.542 39.4392C102.514 39.4392 102.486 39.4392 102.458 39.4668C100.964 41.4 99.7731 42.8638 99.3025 43.2781C99.6624 41.4829 100.327 40.102 101.434 38.6659C102.403 37.4231 103.981 35.766 104.812 36.4564Z" fill="#798393"/>
<path d="M89.8348 27.6184C89.5303 28.1708 91.4682 30.325 92.4925 31.1811C94.0982 32.5344 95.2886 33.0591 97.4757 33.4734C97.448 33.4458 97.448 33.4182 97.4203 33.3905C96.3683 32.562 95.2056 31.9268 93.4338 30.3526C93.4061 30.325 93.4061 30.2973 93.4338 30.2973C93.4615 30.2697 93.4892 30.2973 93.4892 30.2973C95.3994 31.6782 96.7005 32.6172 97.1435 32.8382C96.4514 31.5401 95.5101 30.4907 94.0428 29.3307C92.6863 28.226 90.2224 26.9556 89.8348 27.6184Z" fill="#798393"/>
<path d="M92.0784 33.1145C91.6355 33.7773 92.9643 35.1582 93.7672 35.9039C95.1514 37.202 96.3418 37.8096 98.8611 38.3895C98.8334 38.3619 98.8334 38.3067 98.8057 38.2791C97.5876 37.34 96.3972 36.6496 94.7915 35.1858C94.7638 35.1582 94.7638 35.1582 94.7915 35.1306C94.8192 35.1306 94.8469 35.1306 94.8469 35.1306C96.591 36.4287 97.9752 37.3953 98.4735 37.6438C97.726 36.2629 96.8125 35.2963 95.4836 34.3021C94.3209 33.4459 92.5491 32.3688 92.0784 33.1145Z" fill="#798393"/>
<path d="M93.4621 37.7815C92.7977 38.472 93.9051 40.0738 94.6249 40.9576C95.8707 42.5042 97.0611 43.1946 99.5527 43.747C99.5527 43.6918 99.525 43.6641 99.4973 43.6089C98.4176 42.5318 97.2826 41.7861 95.8707 40.1014C95.843 40.0738 95.8707 40.0462 95.8707 40.0462C95.8984 40.0186 95.926 40.0462 95.926 40.0462C97.504 41.5099 98.7498 42.587 99.2205 42.8632C98.6391 41.289 97.8639 40.2119 96.7289 39.1348C95.7599 38.2234 94.1542 37.0634 93.4621 37.7815Z" fill="#798393"/>
<path d="M106.279 43.195C107.082 44.1617 105.808 46.3435 105.005 47.531C103.594 49.6024 102.209 50.569 99.1641 51.4804C99.1641 51.4252 99.1917 51.3699 99.2194 51.3147C100.493 49.8233 101.849 48.7462 103.483 46.4539C103.511 46.4263 103.483 46.3987 103.483 46.3711C103.455 46.3435 103.427 46.3435 103.4 46.3711C101.517 48.3872 100.05 49.9338 99.4963 50.3205C100.078 48.1663 100.991 46.6473 102.375 45.1283C103.483 43.775 105.421 42.1179 106.279 43.195Z" fill="#798393"/>
<path d="M93.9876 43.3056C93.1847 44.1065 93.9876 46.0673 94.5413 47.1721C95.5379 49.1606 96.7006 50.1272 99.386 51.1214C99.386 51.0662 99.3583 51.011 99.3583 50.9557C98.334 49.4644 97.2266 48.3873 96.0362 46.2331C96.0085 46.2054 96.0362 46.1778 96.0639 46.1502C96.0916 46.1226 96.1193 46.1226 96.1469 46.1502C97.5865 48.0558 98.777 49.5748 99.2476 49.9615C98.9431 47.9177 98.2786 46.4816 97.2266 45.0731C96.3131 43.8855 94.8458 42.4494 93.9876 43.3056Z" fill="#798393"/>
<path d="M106.888 51.3694C107.47 52.4741 105.781 54.3522 104.729 55.3464C102.929 57.114 101.351 57.7768 98.1953 58.053C98.223 57.9977 98.2507 57.9425 98.2784 57.8872C99.8564 56.6721 101.379 55.8711 103.455 53.9379C103.483 53.9103 103.483 53.8826 103.455 53.855C103.428 53.8274 103.4 53.8274 103.372 53.8274C101.13 55.4293 99.3581 56.6444 98.7213 56.9206C99.7456 54.9321 100.936 53.6065 102.597 52.3913C104.037 51.397 106.251 50.1542 106.888 51.3694Z" fill="#798393"/>
<path d="M106.004 59.379C106.336 60.5666 104.481 62.4723 103.18 63.0799C100.882 64.1293 99.3318 64.5988 96.1758 64.295C96.2035 64.2398 96.2588 64.2122 96.2865 64.157C98.0583 63.2456 99.7194 62.7761 102.156 61.2847C102.183 61.2847 102.183 61.2294 102.183 61.2018C102.156 61.1742 102.128 61.1742 102.1 61.1742C99.581 62.3342 97.5877 63.1903 96.9232 63.3284C98.3075 61.5609 99.7471 60.5114 101.63 59.6276C103.208 58.8543 105.616 58.081 106.004 59.379Z" fill="#798393"/>
<path d="M104.784 66.4772C104.922 67.7476 102.625 69.2942 101.185 69.6533C98.6104 70.2885 96.9493 70.4542 93.7656 69.5428C93.821 69.4875 93.8487 69.4599 93.904 69.4323C95.8973 68.8523 97.6968 68.6866 100.465 67.6371C100.493 67.6371 100.521 67.6095 100.493 67.5543C100.493 67.5267 100.465 67.4991 100.41 67.4991C97.6138 68.1895 95.0114 68.6866 94.3193 68.7142C96.0634 67.2229 98.1398 66.3943 100.244 65.842C102.043 65.4277 104.646 65.0963 104.784 66.4772Z" fill="#798393"/>
<path d="M93.7674 49.8229C92.9922 50.4581 93.6013 52.3361 94.0166 53.4132C94.7917 55.3741 95.7884 56.5064 98.3907 58.0806C98.3907 58.0254 98.3907 57.9702 98.3907 57.9149C97.4771 56.2579 96.4805 55.0427 95.4838 52.8056C95.4838 52.778 95.4838 52.7504 95.5115 52.7504C95.5392 52.7504 95.5669 52.7504 95.5669 52.778C96.8127 54.8217 97.8924 56.5064 98.3353 56.9759C98.1969 54.9598 97.6432 53.4684 96.702 51.9495C95.9268 50.679 94.6533 49.1048 93.7674 49.8229Z" fill="#798393"/>
<path d="M92.6315 55.4291C91.7733 56.009 91.967 58.3289 92.493 59.4337C93.4343 61.4222 94.1818 62.6373 96.4519 64.3497C96.4519 64.2944 96.4519 64.2392 96.4519 64.184C95.7598 62.5545 94.9293 61.2841 94.1541 58.9089C94.1541 58.8813 94.1541 58.8537 94.1818 58.8537C94.2095 58.8537 94.2372 58.8537 94.2372 58.8813C95.2892 61.1184 96.1197 62.8307 96.5073 63.3278C96.5903 61.3945 96.2027 59.8756 95.4553 58.1632C94.7908 56.7271 93.6004 54.7938 92.6315 55.4291Z" fill="#798393"/>
<path d="M90.7767 60.6772C89.7524 61.2572 89.5586 63.4942 89.9738 64.5713C90.7213 66.5874 91.4134 67.8302 93.8496 69.4045C93.8496 69.3492 93.8496 69.294 93.8773 69.2111C93.2683 67.4712 92.4931 66.2008 91.9394 63.8256C91.9394 63.798 91.9394 63.7704 91.9671 63.7704C91.9948 63.7704 92.0225 63.7704 92.0225 63.798C92.8807 65.9522 93.822 67.996 94.1819 68.4931C94.4587 66.3665 94.0157 64.5713 93.379 62.9971C92.8807 61.6991 91.8841 60.042 90.7767 60.6772Z" fill="#798393"/>
<path d="M101.906 73.2708C101.934 74.5689 99.4701 75.7841 97.9751 75.8945C95.3174 76.0879 93.601 75.9774 90.4727 74.5136C90.528 74.486 90.5834 74.4584 90.6388 74.4032C92.7151 74.1822 94.5423 74.3203 97.4214 73.7403C97.4491 73.7403 97.4768 73.7127 97.4491 73.6851C97.4491 73.6575 97.4214 73.6299 97.3937 73.6299C94.4869 73.8232 91.8292 73.906 91.1094 73.8232C93.0196 72.608 95.179 72.1109 97.3384 71.9452C99.1932 71.7518 101.879 71.8623 101.906 73.2708Z" fill="#798393"/>
<path d="M88.2011 65.6479C87.0384 66.0897 86.7338 68.2716 87.0937 69.4039C87.7305 71.3924 88.3672 72.6076 90.6097 74.3751C90.6373 74.3199 90.6373 74.2923 90.665 74.237C90.2498 72.6628 89.5576 71.3648 89.1701 69.0725C89.1701 69.0449 89.1978 69.0172 89.2254 69.0172C89.2531 69.0172 89.2808 69.0172 89.2808 69.0449C90.0006 71.2267 90.7481 73.1876 91.0526 73.6847C91.5509 71.8619 91.3018 70.122 90.8034 68.4925C90.3882 67.084 89.4469 65.1784 88.2011 65.6479Z" fill="#798393"/>
<path d="M97.4762 78.7948C97.3101 80.0928 94.7631 80.9766 93.2958 80.9214C90.6935 80.8109 89.0601 80.4795 86.2363 78.6567C86.2917 78.6291 86.3471 78.6015 86.4024 78.5738C88.4234 78.6015 90.1952 78.9329 93.0744 78.7119C93.102 78.7119 93.1297 78.6843 93.1297 78.6567C93.1297 78.6291 93.102 78.6015 93.0744 78.6015C90.2229 78.4634 87.6482 78.2148 86.9838 78.0491C89.0048 77.0549 91.1641 76.8615 93.2958 76.9168C95.0676 76.972 97.67 77.3863 97.4762 78.7948Z" fill="#798393"/>
<path d="M85.0462 69.9014C83.9665 70.1776 83.5235 72.3318 83.7727 73.5194C84.1879 75.646 84.6863 76.944 86.6242 79.0982C86.6519 79.043 86.6518 79.0154 86.6795 78.9601C86.4027 77.2754 85.8767 75.8669 85.7106 73.4642C85.7106 73.4365 85.7383 73.4089 85.7659 73.4089C85.7936 73.4089 85.8213 73.4365 85.8213 73.4365C86.292 75.7564 86.8456 77.8554 87.0948 78.4078C87.6762 76.6126 87.5931 74.8174 87.2332 73.0775C86.901 71.6414 86.2089 69.5976 85.0462 69.9014Z" fill="#798393"/>
<path d="M91.8838 83.1302C91.607 84.2349 89.3645 84.8425 88.1187 84.6768C85.904 84.4006 84.5198 84.014 82.2773 82.2188C82.3327 82.1912 82.3881 82.1912 82.4158 82.1636C84.1599 82.3293 85.6272 82.7435 88.1187 82.7435C88.1464 82.7435 88.1741 82.7159 88.1741 82.6883C88.1741 82.6607 88.1464 82.6331 88.1187 82.6331C85.6825 82.3293 83.4955 81.9426 82.9418 81.7217C84.7689 81.0036 86.6515 80.9484 88.451 81.1693C90.0013 81.3626 92.1607 81.915 91.8838 83.1302Z" fill="#798393"/>
<path d="M86.4301 87.936C85.9317 88.875 83.7447 88.9026 82.665 88.4883C80.7548 87.7427 79.592 87.0798 77.9863 84.9532C78.0417 84.9532 78.0694 84.9532 78.1247 84.9256C79.6474 85.4504 80.8655 86.1684 83.1079 86.7484C83.1356 86.7484 83.1633 86.7484 83.1633 86.7208C83.1633 86.6932 83.1633 86.6656 83.1356 86.6656C81.0316 85.837 79.1491 84.9809 78.7061 84.6771C80.5333 84.4561 82.222 84.8428 83.8 85.4504C85.1566 85.9199 86.9837 86.9141 86.4301 87.936Z" fill="#798393"/>
<path d="M81.419 90.3107C80.9207 91.084 79.0104 90.9183 78.0969 90.4212C76.4635 89.5651 75.4668 88.8746 74.1934 86.8585C74.2487 86.8585 74.2764 86.8585 74.3318 86.8585C75.6329 87.4661 76.685 88.2118 78.6229 88.9298C78.6505 88.9298 78.6782 88.9298 78.6782 88.9022C78.6782 88.8746 78.6782 88.847 78.6505 88.847C76.8511 87.908 75.2454 86.9966 74.8578 86.6652C76.4635 86.6375 77.9307 87.1347 79.2873 87.8251C80.4223 88.4327 81.9727 89.4822 81.419 90.3107Z" fill="#798393"/>
<path d="M81.5574 73.4362C80.5054 73.7124 79.8963 75.8113 80.007 76.916C80.2285 78.9321 80.5607 80.2026 82.1941 82.2187C82.2218 82.1634 82.2218 82.1358 82.2495 82.0806C82.1387 80.4511 81.7512 79.1255 81.8342 76.8332C81.8342 76.8056 81.8619 76.7779 81.8896 76.7779C81.9173 76.7779 81.945 76.8056 81.945 76.8056C82.1941 79.015 82.5263 81.0311 82.6924 81.5559C83.4122 79.8159 83.4953 78.1036 83.3292 76.4465C83.1907 75.0656 82.7201 73.1324 81.5574 73.4362Z" fill="#798393"/>
<path d="M77.7925 76.6953C76.7681 76.8886 76.076 78.8219 76.1591 79.899C76.2975 81.8046 76.5744 83.0198 78.0693 85.0359C78.097 84.9807 78.097 84.953 78.1247 84.8978C78.0693 83.3788 77.7648 82.1084 77.9309 79.9542C77.9309 79.9266 77.9586 79.9266 77.9863 79.9266C78.0139 79.9266 78.0416 79.9542 78.0416 79.9542C78.2077 82.0532 78.4292 83.9588 78.5676 84.4559C79.3151 82.9093 79.4812 81.2799 79.3705 79.7332C79.3151 78.4076 78.9275 76.5019 77.7925 76.6953Z" fill="#798393"/>
<path d="M73.9724 79.457C73.0865 79.5398 72.4774 81.2245 72.5328 82.1911C72.6435 83.9587 72.8927 85.091 74.2215 87.0795C74.2492 87.0519 74.2492 86.9967 74.2769 86.969C74.2492 85.5605 73.9724 84.3729 74.0831 82.4121C74.0831 82.3845 74.1108 82.3845 74.1385 82.3845C74.1662 82.3845 74.1938 82.4121 74.1938 82.4121C74.3323 84.3453 74.5261 86.1129 74.6645 86.5824C75.3289 85.2291 75.4396 83.7654 75.3566 82.3292C75.3012 81.114 74.9413 79.3741 73.9724 79.457Z" fill="#798393"/>
<path d="M75.9099 92.6862C75.2732 93.4043 73.6121 93.0176 72.92 92.4653C71.6742 91.471 71.0098 90.6977 70.373 88.6264C70.4007 88.6264 70.4561 88.6264 70.4838 88.6264C71.4804 89.3444 72.2002 90.2006 73.7505 91.0844C73.7782 91.0844 73.7782 91.0844 73.8059 91.0568C73.8059 91.0291 73.8059 91.0015 73.8059 91.0015C72.4494 89.9244 71.2866 88.8473 71.0098 88.4883C72.4494 88.6264 73.6121 89.2616 74.6364 90.0625C75.5223 90.7253 76.602 91.9129 75.9099 92.6862Z" fill="#798393"/>
<path d="M70.539 94.2328C69.8746 94.9233 68.352 94.5919 67.7706 94.0671C66.7186 93.1281 66.1649 92.4101 65.7773 90.3939C65.805 90.3939 65.8604 90.3939 65.8881 90.3939C66.7463 91.0844 67.3277 91.8853 68.6842 92.7139C68.6842 92.7139 68.7119 92.7139 68.7396 92.6862C68.7673 92.6586 68.7673 92.631 68.7396 92.631C67.5768 91.6091 66.5802 90.5873 66.3864 90.2559C67.7152 90.3663 68.7396 90.9463 69.6255 91.7196C70.3453 92.3548 71.2588 93.4595 70.539 94.2328Z" fill="#798393"/>
<path d="M65.666 95.5862C65.14 96.1386 64.0326 95.7243 63.5896 95.2272C62.8145 94.3158 62.3992 93.6254 62.1777 91.8026C62.2054 91.8026 62.2331 91.8026 62.2608 91.8302C62.8975 92.5206 63.3128 93.2663 64.3094 94.0949C64.3094 94.0949 64.3371 94.0949 64.3371 94.0673C64.3371 94.0396 64.3371 94.0396 64.3371 94.012C63.5066 93.0178 62.7591 92.0235 62.6207 91.7197C63.6173 91.9131 64.3648 92.5207 65.0015 93.2663C65.5829 93.9015 66.2473 94.9786 65.666 95.5862Z" fill="#798393"/>
<path d="M68.0201 5.55136C67.9924 6.04848 68.9337 6.76655 70.1795 6.98749C71.9513 7.31891 73.7508 7.12558 75.3565 6.21419C75.3288 6.18657 75.3011 6.18657 75.2734 6.15895C73.6954 5.85516 72.6434 5.79992 71.0654 5.91039C71.0377 5.91039 71.0377 5.88277 71.0377 5.85516C71.0377 5.82754 71.0654 5.82754 71.0654 5.82754C73.0587 5.60659 73.9446 5.68945 74.7474 5.85516C73.5293 5.19233 72.3389 4.86091 70.8716 4.75044C69.5151 4.63997 68.0755 4.999 68.0201 5.55136Z" fill="#798393"/>
<path d="M70.6215 81.6391C69.6802 81.6114 68.9327 83.0752 68.9327 83.9866C68.9051 85.6437 69.0435 86.7208 70.2616 88.7369C70.2893 88.7093 70.317 88.6816 70.317 88.654C70.4 87.3284 70.2062 86.1684 70.5108 84.3732C70.5108 84.3456 70.5384 84.3456 70.5661 84.3456C70.5938 84.3456 70.6215 84.3732 70.6215 84.4009C70.5938 86.2236 70.6769 87.8807 70.7599 88.3502C71.5628 87.1626 71.8119 85.8094 71.8396 84.4561C71.8673 83.3238 71.6458 81.6943 70.6215 81.6391Z" fill="#798393"/>
<path d="M66.9131 84.1522C65.9442 84.0694 65.0306 85.3674 64.9198 86.1683C64.726 87.6321 64.7814 88.5711 65.8334 90.3939C65.8611 90.3663 65.8888 90.3386 65.9165 90.311C66.1103 89.1787 66.0549 88.1568 66.5255 86.5826C66.5255 86.555 66.5532 86.555 66.5809 86.555C66.6086 86.555 66.6086 86.5826 66.6086 86.5826C66.4148 88.1844 66.304 89.6482 66.3594 90.0625C67.3007 89.0682 67.6883 87.9083 67.8544 86.7207C68.0205 85.7541 67.9651 84.2627 66.9131 84.1522Z" fill="#798393"/>
<path d="M62.7322 86.3062C61.9847 86.2233 61.3203 87.328 61.2926 88.0185C61.2095 89.2889 61.2926 90.1174 62.1785 91.7193C62.2062 91.6917 62.2062 91.664 62.2339 91.664C62.3446 90.6698 62.2339 89.786 62.5384 88.4327C62.5384 88.4051 62.5661 88.4051 62.5661 88.4051C62.5938 88.4051 62.5938 88.4327 62.5938 88.4327C62.5107 89.8136 62.5107 91.0841 62.5661 91.4431C63.2305 90.6146 63.4796 89.5927 63.5627 88.5708C63.6734 87.7147 63.5627 86.389 62.7322 86.3062Z" fill="#798393"/>
<path d="M55.0915 95.8627C55.0915 95.8627 55.4514 95.5037 56.1435 94.9513C56.8633 94.3989 57.9707 93.6532 59.5487 93.018C62.7601 91.8581 67.6602 90.5048 73.0587 87.9363C78.4848 85.4231 84.5753 81.6947 89.5585 76.1158C92.0778 73.354 94.1541 70.0951 95.7875 66.5877C96.6734 64.8477 97.2271 62.9697 97.8915 61.1193C98.3068 59.2137 98.9158 57.3356 99.1096 55.3748C99.8017 51.4806 99.8017 47.5865 99.6356 43.72C99.3311 39.8811 98.6667 36.125 97.5593 32.6176C96.3689 29.1377 94.9847 25.8236 93.1852 22.9789C91.4411 20.079 89.4755 17.5382 87.4268 15.384C86.4302 14.2792 85.4059 13.285 84.3815 12.4012C83.4126 11.4622 82.3606 10.6889 81.4193 9.94323C79.5091 8.47948 77.7373 7.29191 76.2147 6.46337C74.7197 5.52436 73.4739 4.91676 72.6434 4.50249C71.8129 4.08822 71.3699 3.86728 71.3699 3.86728C71.2869 3.83966 71.2038 3.86728 71.1484 3.92252C71.1208 4.00537 71.1484 4.08822 71.2315 4.14346C71.2315 4.14346 71.6744 4.3644 72.505 4.77867C73.3355 5.19294 74.5536 5.77292 76.0209 6.68431C77.5158 7.54047 79.2599 8.70042 81.1702 10.1642C82.1114 10.9099 83.1358 11.6832 84.1047 12.6222C85.129 13.5059 86.1257 14.5002 87.1223 15.5773C89.1433 17.7039 91.0812 20.2447 92.7976 23.1446C94.5971 25.9893 95.9259 29.2758 97.0887 32.728C98.1684 36.2079 98.8051 39.9363 99.0819 43.72C99.2204 47.5036 99.1927 51.453 98.5006 55.2367C98.3068 57.1699 97.6977 59.0203 97.2548 60.8984C96.5904 62.7211 96.0644 64.5715 95.1785 66.2562C93.5728 69.7085 91.4964 72.9122 89.0048 75.5911C84.077 81.0318 78.0695 84.6774 72.6988 87.1354C70.0134 88.3506 67.4664 89.4001 65.224 90.2562C62.9539 91.1124 60.9606 91.72 59.3272 92.3828C57.6662 92.9904 56.4757 93.7361 55.7006 94.2885C54.8977 94.8132 54.5378 95.117 54.5378 95.117L54.5101 95.1446C54.3164 95.3103 54.2887 95.5865 54.4548 95.7522C54.6209 95.9455 54.8977 95.9732 55.0915 95.8074C55.0638 95.8903 55.0915 95.8627 55.0915 95.8627Z" fill="#798393"/>
<path d="M42.3853 65.9523C42.0254 65.9523 41.7762 65.8142 41.6101 65.6485C41.2779 65.8971 40.918 66.0628 40.5581 66.0628C39.6445 66.0352 39.5061 64.9581 39.9768 63.881C40.4474 62.7762 41.444 61.8372 42.2469 61.8649C43.1605 61.8649 43.2989 62.9696 42.8282 64.0467C42.6621 64.4609 42.2746 65.0409 41.8316 65.4552C41.9147 65.6485 42.1084 65.759 42.3853 65.759C43.1605 65.759 43.7695 64.2676 44.074 63.6876C44.1294 63.5772 44.3509 63.6048 44.2678 63.7981C44.074 64.2676 43.3819 65.9523 42.3853 65.9523ZM40.8073 63.8257C40.3366 64.82 40.2259 65.6485 40.6689 65.7866C40.8903 65.8418 41.1949 65.7314 41.4717 65.4828C41.3333 65.2895 41.2779 65.0685 41.2779 64.9028C41.2779 64.6266 41.3887 64.3781 41.6932 64.3781C41.887 64.3781 42.0531 64.5438 42.0531 64.7371C42.0531 64.7924 42.0531 64.82 42.0254 64.8752C42.1638 64.6819 42.3022 64.4609 42.3853 64.24C42.8559 63.2458 42.9113 62.4172 42.4683 62.2791C41.9977 62.1134 41.2502 62.8867 40.8073 63.8257Z" fill="#798393"/>
<path d="M45.6236 66.0344C45.2084 66.1172 44.4886 65.7582 44.9592 64.5154C45.1253 64.0183 45.5683 63.4107 45.7067 63.1069C45.8728 62.7202 45.4575 62.5545 44.7931 62.5545L44.6547 62.9412C44.3779 63.6868 43.7965 65.0125 43.2151 65.5925C43.1321 65.6753 43.049 65.5372 43.1321 65.4268C44.0733 64.184 44.7378 62.3612 44.9869 61.0355C45.0976 60.3727 45.9005 60.6765 45.7067 61.4774C45.6237 61.8088 45.2638 62.1402 45.0423 62.2783C45.4852 62.3059 46.122 62.2783 46.7033 62.2231C46.7864 62.3888 46.5926 62.8583 46.4542 63.1345C46.2604 63.4935 45.0423 65.7029 45.7621 65.7306C46.2604 65.7306 47.0079 64.2392 47.257 63.7421C47.3678 63.5487 47.5339 63.6316 47.3955 63.8525C47.0079 64.5982 46.3988 65.8687 45.6236 66.0344Z" fill="#798393"/>
<path d="M47.6181 65.7862C47.7842 65.8138 48.0333 65.6757 48.1441 65.5653C48.5317 65.1786 48.9469 64.4329 49.2791 63.7701C49.3622 63.5491 49.556 63.632 49.4452 63.8806C49.1407 64.5434 48.4486 66.0624 47.5627 66.0624C46.6768 66.0624 46.6768 65.1234 46.926 64.5158L47.7011 62.5549C47.7842 62.334 47.6181 62.113 47.5904 62.0578H48.2548C48.6424 62.0578 48.6424 62.1959 48.504 62.472L47.535 64.7091C47.535 64.7091 47.4243 64.9853 47.3966 65.0681C47.2582 65.4272 47.2859 65.7862 47.6181 65.7862ZM48.4763 61.5607C48.1994 61.5607 48.0057 61.3397 48.061 61.0635C48.1164 60.7874 48.3656 60.5664 48.6424 60.5664C48.9192 60.5664 49.113 60.7874 49.0577 61.0635C49.0023 61.3397 48.7531 61.5607 48.4763 61.5607Z" fill="#798393"/>
<path d="M52.323 66.2005C51.797 67.7195 50.219 69.8461 48.4749 69.8461C47.7274 69.8461 47.3398 69.5423 47.3398 68.9347C47.3398 68.3547 47.8105 67.8852 48.3918 67.5538C49.5546 66.8634 50.662 66.6424 51.5755 66.2558C51.714 65.8415 51.797 65.3996 51.8524 64.9301C51.9078 64.4606 51.9078 64.0739 51.8524 63.9359C51.4648 64.6815 50.4959 66.2834 49.5546 66.0072C48.3642 65.4825 49.084 63.7701 49.9699 62.7207C50.6896 61.8645 51.8524 61.4502 52.766 62.1683C53.1812 62.5273 52.766 62.8864 52.6276 62.5273C52.323 61.6712 51.4371 62.1683 50.6896 62.9692C49.8037 63.9635 49.1393 65.3996 49.7761 65.6758C50.4959 65.9796 51.6586 64.1568 51.8801 63.3835C52.0462 62.8311 52.4338 63.0521 52.6276 62.914C52.7937 63.8806 52.7106 64.8749 52.4614 65.8139C52.7383 65.6205 53.0705 65.3444 53.292 65.0406C53.6796 64.5158 53.8733 63.9911 53.9841 63.7701C54.0948 63.5492 54.2886 63.6321 54.1502 63.853C53.5411 65.1234 53.2089 65.7863 52.323 66.2005ZM51.0219 66.7529C50.136 67.0567 49.1393 67.3881 48.3918 67.9128C47.6167 68.4376 47.1737 69.6252 48.1704 69.6252C48.6964 69.6252 49.3885 69.2109 49.693 68.9899C50.0529 68.6861 50.4405 68.2719 50.7727 67.83C51.0495 67.4157 51.2987 67.0291 51.4648 66.6148L51.0219 66.7529Z" fill="#798393"/>
<path d="M54.3993 65.7862C54.5654 65.8138 54.8146 65.6757 54.9253 65.5653C55.3129 65.1786 55.7282 64.4329 56.0604 63.7701C56.1434 63.5491 56.3372 63.632 56.2265 63.8806C55.922 64.5434 55.2299 66.0624 54.344 66.0624C53.4581 66.0624 53.4581 65.1234 53.7072 64.5158L54.4824 62.5549C54.5654 62.334 54.3993 62.113 54.3716 62.0578H55.0361C55.4236 62.0578 55.4236 62.1959 55.2852 62.472L54.3163 64.7091C54.3163 64.7091 54.2055 64.9853 54.1779 65.0681C54.0394 65.4272 54.0671 65.7862 54.3993 65.7862ZM55.2575 61.5607C54.9807 61.5607 54.7869 61.3397 54.8423 61.0635C54.8976 60.7874 55.1468 60.5664 55.4237 60.5664C55.7005 60.5664 55.8943 60.7874 55.8389 61.0635C55.7835 61.3397 55.5344 61.5607 55.2575 61.5607Z" fill="#798393"/>
<path d="M58.3029 66.1181C57.8877 66.1181 57.3063 65.8419 57.6662 64.7095C57.7492 64.4057 57.9984 63.9915 58.3306 63.4391C58.6075 62.9696 58.4137 62.6382 57.4724 63.522C57.0571 63.881 56.4758 64.5715 55.8113 65.8971C55.7283 66.0628 55.6175 66.0628 55.3684 66.0628C55.2023 66.0628 55.0915 66.0628 54.9531 66.1457C55.5345 65.0133 56.0328 63.881 56.6142 62.8039C56.9187 62.2239 57.0848 62.0306 57.4724 62.0582C57.6385 62.0582 57.8046 62.1411 57.9707 62.1135C57.6108 62.3068 56.9464 63.4943 56.5311 64.3781C56.7803 64.0743 57.1679 63.6324 57.5278 63.301C58.1091 62.7763 59.3273 62.0306 59.7425 62.1687C59.7425 62.1687 58.469 64.4057 58.3029 65.2619C58.2199 65.759 58.3306 65.8695 58.4967 65.8695C59.1335 65.8695 59.8809 64.2953 60.1301 63.7981C60.2131 63.5772 60.4069 63.6601 60.2962 63.9086C59.9086 64.5991 59.2165 66.1181 58.3029 66.1181Z" fill="#798393"/>
<path d="M62.6497 66.0896C62.2621 66.1172 61.6807 65.8134 62.0406 64.543C61.8468 64.8468 61.5146 65.3439 61.1824 65.6753C59.7982 67.001 58.8846 64.902 60.7118 62.7202C61.4316 61.864 62.8158 61.4222 63.4802 62.1678C63.6463 62.3336 63.5633 62.5545 63.3418 62.5269C63.2034 62.085 62.7604 62.0021 62.3175 62.2231C61.7915 62.5269 61.1547 63.2173 60.7118 63.9354C60.6287 64.1011 60.2965 64.6811 60.2135 65.1506C60.1027 65.9791 60.7671 65.8963 61.3208 65.2334C61.7361 64.7363 62.0683 64.1563 62.4005 63.5487C62.6774 63.0516 62.8435 62.7478 63.2034 62.7754C63.3695 62.7754 63.5356 62.8583 63.7017 62.8307C63.4525 63.0792 62.7327 64.3497 62.5943 65.0677C62.4836 65.5649 62.5666 65.7858 62.7051 65.7858C63.2034 65.8134 64.0062 64.2944 64.2554 63.7697C64.3661 63.5487 64.5322 63.6316 64.4215 63.8525C64.117 64.5982 63.3695 66.0344 62.6497 66.0896Z" fill="#798393"/>
<path d="M64.9748 63.7425C64.9194 63.9358 64.8087 64.2396 64.7256 64.5434C64.3657 65.9795 65.3347 66.1729 65.9714 65.2891C66.359 64.7367 66.6912 64.0739 66.8573 63.7701C66.9681 63.5768 67.1342 63.5768 67.0511 63.8253C66.7466 64.4606 66.1375 66.0624 64.9194 66.0624C63.5629 66.0624 64.1443 64.4329 64.3657 63.7149C64.7256 62.3616 65.5008 60.6493 66.1929 59.4893C67.0511 58.0532 68.3523 58.2189 67.4664 60.1522C66.8573 61.395 66.1375 62.693 64.9748 63.7425ZM66.9404 59.4341C66.359 60.2626 65.4177 62.3892 65.0578 63.3558C65.9161 62.4997 66.7743 61.0912 67.2449 59.9588C67.4941 59.4341 67.6048 58.5227 66.9404 59.4341Z" fill="#798393"/>
<path d="M54.1235 76.4191L56.449 76.502L54.5941 77.8829L55.2309 80.1199L53.3484 78.7667L51.4104 80.0647L52.1026 77.8553L50.2754 76.4467L52.6009 76.4191L53.376 74.2373L54.1235 76.4191Z" fill="#798393"/>
<path d="M63.7579 74.928L65.6681 74.9832L64.1178 76.1156L64.6715 77.966L63.0935 76.8612L61.5155 77.9383L62.0969 76.1156L60.5742 74.928H62.4844L63.1489 73.1328L63.7579 74.928Z" fill="#798393"/>
<path d="M71.7577 70.9788L73.4742 71.034L72.09 72.0559L72.5606 73.713L71.1764 72.7187L69.7368 73.6854L70.2628 72.0559L68.9062 71.0064L70.6227 70.9788L71.2041 69.377L71.7577 70.9788Z" fill="#798393"/>
<path d="M77.7929 64.9576L79.5093 65.0128L78.1251 66.0347L78.6234 67.6641L77.2115 66.6699L75.7996 67.6365L76.2979 66.0071L74.9414 64.9576L76.6578 64.93L77.2392 63.3281L77.7929 64.9576Z" fill="#798393"/>
<path d="M81.6687 58.5226L83.2467 58.5779L81.9733 59.4893L82.4162 61.0082L81.1427 60.0968L79.8416 60.9806L80.3122 59.4893L79.0664 58.5226H80.6444L81.1704 57.0312L81.6687 58.5226Z" fill="#798393"/>
<path d="M43.2442 74.928L41.334 74.9832L42.8843 76.1156L42.3306 77.966L43.9086 76.8612L45.4866 77.9383L44.9053 76.1156L46.4279 74.928H44.5177L43.8533 73.1328L43.2442 74.928Z" fill="#798393"/>
<path d="M54.1235 11.3791L56.449 11.4619L54.5941 12.8428L55.2309 15.0799L53.3484 13.7266L51.4104 15.0247L52.1026 12.8152L50.2754 11.4067L52.6009 11.3791L53.376 9.19727L54.1235 11.3791Z" fill="#798393"/>
<path d="M63.7579 13.3404L65.6681 13.3956L64.1178 14.5279L64.6715 16.3783L63.0935 15.2736L61.5155 16.3507L62.0969 14.5279L60.5742 13.3404H62.4844L63.1489 11.5176L63.7579 13.3404Z" fill="#798393"/>
<path d="M43.2442 13.3404L41.334 13.3956L42.8843 14.5279L42.3306 16.3783L43.9086 15.2736L45.4866 16.3507L44.9053 14.5279L46.4279 13.3404H44.5177L43.8533 11.5176L43.2442 13.3404Z" fill="#798393"/>
<path d="M35.2438 70.9788L33.5273 71.034L34.9116 72.0559L34.4409 73.713L35.8251 72.7187L37.2647 73.6854L36.7387 72.0559L38.0953 71.0064L36.3788 70.9788L35.7975 69.377L35.2438 70.9788Z" fill="#798393"/>
<path d="M71.7577 17.9517L73.4742 18.007L72.09 19.0288L72.5606 20.6859L71.1764 19.6917L69.7368 20.6583L70.2628 19.0288L68.9062 17.9793L70.6227 17.9517L71.2041 16.3223L71.7577 17.9517Z" fill="#798393"/>
<path d="M35.2438 17.9517L33.5273 18.007L34.9116 19.0288L34.4409 20.6859L35.8251 19.6917L37.2647 20.6583L36.7387 19.0288L38.0953 17.9793L36.3788 17.9517L35.7975 16.3223L35.2438 17.9517Z" fill="#798393"/>
<path d="M29.2086 64.9576L27.4922 65.0128L28.8764 66.0347L28.3781 67.6641L29.79 66.6699L31.2019 67.6365L30.7036 66.0071L32.0601 64.9576L30.3437 64.93L29.7623 63.3281L29.2086 64.9576Z" fill="#798393"/>
<path d="M77.7929 23.6692L79.5093 23.7245L78.1251 24.7463L78.6234 26.4034L77.2115 25.4092L75.7996 26.3758L76.2979 24.7463L74.9414 23.6968L76.6578 23.6692L77.2392 22.0674L77.7929 23.6692Z" fill="#798393"/>
<path d="M29.2086 23.6692L27.4922 23.7245L28.8764 24.7463L28.3781 26.4034L29.79 25.4092L31.2019 26.3758L30.7036 24.7463L32.0601 23.6968L30.3437 23.6692L29.7623 22.0674L29.2086 23.6692Z" fill="#798393"/>
<path d="M25.3319 58.5226L23.7539 58.5779L25.0274 59.4893L24.5844 61.0082L25.8579 60.0968L27.1591 60.9806L26.6884 59.4893L27.9342 58.5226H26.3562L25.8302 57.0312L25.3319 58.5226Z" fill="#798393"/>
<path d="M81.6687 29.6346L83.2467 29.6899L81.9733 30.6289L82.4162 32.1203L81.1427 31.2089L79.8416 32.0926L80.3122 30.6013L79.0664 29.6623L80.6444 29.6346L81.1704 28.1709L81.6687 29.6346Z" fill="#798393"/>
<path d="M25.3319 29.6346L23.7539 29.6899L25.0274 30.6289L24.5844 32.1203L25.8579 31.2089L27.1591 32.0926L26.6884 30.6013L27.9342 29.6623L26.3562 29.6346L25.8302 28.1709L25.3319 29.6346Z" fill="#798393"/>
<path d="M76.272 56.4795H30.7589C30.6205 56.4795 30.5098 56.3691 30.5098 56.231C30.5098 56.0929 30.6205 55.9824 30.7589 55.9824H76.272C76.4104 55.9824 76.5211 56.0929 76.5211 56.231C76.5211 56.3691 76.4104 56.4795 76.272 56.4795Z" fill="#798393"/>
<path d="M76.272 32.0928H30.7589C30.6205 32.0928 30.5098 31.9824 30.5098 31.8443C30.5098 31.7062 30.6205 31.5957 30.7589 31.5957H76.272C76.4104 31.5957 76.5211 31.7062 76.5211 31.8443C76.5211 31.9824 76.4104 32.0928 76.272 32.0928Z" fill="#798393"/>
<path d="M29.3462 43.8302C29.3462 44.7416 28.5988 45.5149 27.6575 45.5149C26.7162 45.5149 25.9688 44.7692 25.9688 43.8302C25.9688 42.9188 26.7162 42.1455 27.6575 42.1455C28.5988 42.1455 29.3462 42.9188 29.3462 43.8302Z" fill="#798393"/>
<path d="M81.0044 43.8302C81.0044 44.7416 80.257 45.5149 79.3157 45.5149C78.3744 45.5149 77.627 44.7692 77.627 43.8302C77.627 42.9188 78.3744 42.1455 79.3157 42.1455C80.257 42.1455 81.0044 42.9188 81.0044 43.8302Z" fill="#798393"/>
<g opacity="0.8">
<path d="M25.4427 40.6809C24.6399 40.018 24.2246 39.0238 24.2246 37.7257C24.2246 36.4001 24.6122 35.4334 25.3874 34.7706C26.1625 34.1078 27.2699 33.7764 28.7095 33.7764C29.3739 33.7764 29.9553 33.8316 30.4536 33.9421C30.9519 34.0525 31.3949 34.2183 31.7271 34.4392C31.8101 34.4944 31.8655 34.5773 31.8655 34.6601C31.8655 34.7154 31.8378 34.8258 31.7548 34.9363L31.1734 35.903C31.118 36.0134 31.035 36.0687 30.9519 36.0687C30.8965 36.0687 30.8135 36.041 30.6751 35.9858C30.4536 35.8753 30.2321 35.7925 29.983 35.7372C29.7338 35.682 29.457 35.6544 29.1247 35.6544C28.4603 35.6544 27.962 35.8201 27.6021 36.1791C27.2422 36.5382 27.0761 37.0629 27.0761 37.7257C27.0761 38.3886 27.2699 38.9133 27.6575 39.2723C28.045 39.6314 28.5711 39.8247 29.2078 39.8247C29.7892 39.8247 30.3152 39.7142 30.7858 39.4933C30.9242 39.438 31.0073 39.4104 31.0626 39.4104C31.1457 39.4104 31.2287 39.4657 31.2841 39.5761L31.8932 40.5428C31.9762 40.6532 32.0039 40.7637 32.0039 40.8189C32.0039 40.9018 31.9485 40.9847 31.8655 41.0399C31.5333 41.2608 31.0903 41.4265 30.5643 41.537C30.0383 41.6475 29.457 41.7027 28.8202 41.7027C27.3529 41.6751 26.2456 41.3437 25.4427 40.6809Z" fill="#798393"/>
<path d="M32.752 41.344C32.6413 41.2335 32.5859 41.0678 32.5859 40.8745V34.5776C32.5859 34.3567 32.6413 34.1909 32.752 34.1081C32.8628 33.9976 33.0566 33.9424 33.3057 33.9424H34.7176C34.9945 33.9424 35.1883 33.9976 35.2713 34.0805C35.3821 34.1909 35.4374 34.329 35.4374 34.5776V36.787H37.5691V34.5776C37.5691 34.3567 37.6245 34.1909 37.7352 34.1081C37.846 33.9976 38.0398 33.9424 38.2889 33.9424H39.7008C39.9777 33.9424 40.1714 33.9976 40.2545 34.0805C40.3652 34.1909 40.4206 34.329 40.4206 34.5776V40.8745C40.4206 41.0954 40.3652 41.2611 40.2545 41.344C40.1438 41.4545 39.95 41.5097 39.7008 41.5097H38.2889C38.0398 41.5097 37.846 41.4545 37.7352 41.344C37.6245 41.2335 37.5691 41.0678 37.5691 40.8745V38.6651H35.4374V40.8745C35.4374 41.0954 35.3821 41.2611 35.2713 41.344C35.1606 41.4545 34.9668 41.5097 34.7176 41.5097H33.3057C33.0566 41.5097 32.8628 41.4545 32.752 41.344Z" fill="#798393"/>
<path d="M41.0566 41.2611C41.0566 41.2059 41.0843 41.1231 41.112 41.0126L44.0742 34.3567C44.1573 34.1909 44.2403 34.0805 44.3234 34.0252C44.4064 33.97 44.5449 33.9424 44.711 33.9424H46.0121C46.1782 33.9424 46.3167 33.97 46.3997 34.0252C46.4828 34.0805 46.5658 34.1909 46.6489 34.3567L49.6111 41.0126C49.6388 41.0954 49.6665 41.1783 49.6665 41.2611C49.6665 41.4268 49.5834 41.4821 49.4173 41.4821H47.1749C46.9257 41.4821 46.7596 41.3716 46.7042 41.1783L46.4274 40.3497H44.2957L44.0189 41.1783C43.9635 41.3716 43.7974 41.4821 43.5482 41.4821H41.3058C41.1397 41.5097 41.0566 41.4268 41.0566 41.2611ZM45.8183 38.6098L45.3477 37.2289L44.8771 38.6098H45.8183Z" fill="#798393"/>
<path d="M50.1095 41.3437C49.9987 41.2332 49.9434 41.0675 49.9434 40.8742V34.5773C49.9434 34.3564 49.9987 34.2183 50.1095 34.1078C50.2202 33.9973 50.414 33.9697 50.6631 33.9697H52.0474C52.2135 33.9697 52.3519 33.9973 52.4626 34.025C52.5734 34.0802 52.6564 34.1354 52.7118 34.2735L54.096 37.5324L55.4802 34.2735C55.5356 34.1631 55.6186 34.0802 55.7294 34.025C55.8401 33.9973 55.9785 33.9697 56.1447 33.9697H57.5289C57.8057 33.9697 57.9995 34.025 58.0826 34.1078C58.1933 34.2183 58.2487 34.3564 58.2487 34.5773V40.8742C58.2487 41.0952 58.1933 41.2609 58.0826 41.3437C57.9718 41.4542 57.778 41.5094 57.5289 41.5094H56.3938C56.1447 41.5094 55.9509 41.4542 55.8401 41.3437C55.7294 41.2332 55.674 41.0675 55.674 40.8742V37.8362L54.9819 39.3552C54.8989 39.5762 54.7881 39.7143 54.6774 39.8247C54.5666 39.9076 54.3728 39.9628 54.1237 39.9628C53.8745 39.9628 53.6807 39.9076 53.57 39.8247C53.4593 39.7419 53.3485 39.5762 53.2655 39.3552L52.5734 37.8362V40.8742C52.5734 41.0952 52.518 41.2609 52.4073 41.3437C52.2965 41.4542 52.1027 41.5094 51.8536 41.5094H50.6631C50.414 41.5094 50.2202 41.4542 50.1095 41.3437Z" fill="#798393"/>
<path d="M59.2735 41.344C59.1628 41.2335 59.1074 41.0678 59.1074 40.8745V34.5776C59.1074 34.3567 59.1628 34.1909 59.2735 34.1081C59.3843 33.9976 59.5781 33.9424 59.8272 33.9424H62.6787C63.8691 33.9424 64.755 34.1633 65.281 34.6052C65.8347 35.0471 66.1116 35.7099 66.1116 36.5937C66.1116 37.4775 65.8347 38.1403 65.281 38.5822C64.7273 39.0241 63.8691 39.245 62.6787 39.245H61.9589V40.8745C61.9589 41.0954 61.9035 41.2611 61.7928 41.344C61.6821 41.4545 61.4883 41.5097 61.2391 41.5097H59.8272C59.5504 41.5097 59.3843 41.4545 59.2735 41.344ZM62.4295 37.3394C62.6787 37.3394 62.8725 37.2842 63.0386 37.1461C63.177 37.008 63.2601 36.8423 63.2601 36.5661C63.2601 36.3175 63.177 36.1242 63.0386 35.9861C62.9002 35.848 62.6787 35.7928 62.4295 35.7928H61.6267V37.3118H62.4295V37.3394Z" fill="#798393"/>
<path d="M66.6095 41.344C66.4987 41.2335 66.4434 41.0678 66.4434 40.8745V34.5776C66.4434 34.3567 66.4987 34.1909 66.6095 34.1081C66.7202 33.9976 66.914 33.9424 67.1632 33.9424H68.5751C68.8519 33.9424 69.0457 33.9976 69.1287 34.0805C69.2395 34.1909 69.2948 34.329 69.2948 34.5776V40.8745C69.2948 41.0954 69.2395 41.2611 69.1287 41.344C69.018 41.4545 68.8242 41.5097 68.5751 41.5097H67.1632C66.914 41.5097 66.7202 41.4545 66.6095 41.344Z" fill="#798393"/>
<path d="M71.0117 40.6259C70.2919 39.9354 69.9043 38.9688 69.9043 37.6984C69.9043 36.428 70.2642 35.4613 71.0117 34.7709C71.7315 34.0804 72.8112 33.749 74.2231 33.749C75.635 33.749 76.7146 34.0804 77.4344 34.7709C78.1542 35.4613 78.5418 36.428 78.5418 37.6984C78.5418 38.9688 78.1819 39.9354 77.4344 40.6259C76.7146 41.3163 75.635 41.6478 74.2231 41.6478C72.8112 41.6754 71.7315 41.3163 71.0117 40.6259ZM75.3581 39.2726C75.5796 38.9412 75.718 38.4165 75.718 37.6984C75.718 36.9803 75.6073 36.4832 75.3581 36.1242C75.1366 35.7928 74.7491 35.5994 74.2231 35.5994C73.6971 35.5994 73.3372 35.7651 73.088 36.1242C72.8665 36.4556 72.7281 36.9803 72.7281 37.6984C72.7281 38.3888 72.8388 38.9136 73.088 39.2726C73.3095 39.604 73.6971 39.7974 74.2231 39.7974C74.7491 39.7974 75.1366 39.6316 75.3581 39.2726Z" fill="#798393"/>
<path d="M79.3165 41.3437C79.2058 41.2332 79.1504 41.0675 79.1504 40.8742V34.5773C79.1504 34.3564 79.2058 34.2183 79.3165 34.1078C79.4272 33.9973 79.621 33.9697 79.8702 33.9697H81.0052C81.1713 33.9697 81.3098 33.9973 81.3928 34.025C81.4759 34.0802 81.5866 34.1354 81.6697 34.2735L83.829 37.2563V34.6049C83.829 34.384 83.8844 34.2183 83.9952 34.1354C84.1059 34.025 84.2997 33.9697 84.5488 33.9697H85.9607C86.2376 33.9697 86.4314 34.025 86.5144 34.1078C86.6252 34.2183 86.6805 34.3564 86.6805 34.6049V40.9018C86.6805 41.1228 86.6252 41.2609 86.5144 41.3713C86.4037 41.4818 86.2099 41.5094 85.9607 41.5094H84.8257C84.6596 41.5094 84.5212 41.4818 84.4381 41.4542C84.355 41.4266 84.2443 41.3437 84.1613 41.2056L82.0019 38.2229V40.9018C82.0019 41.1228 81.9465 41.2609 81.8358 41.3713C81.725 41.4818 81.5312 41.5094 81.2821 41.5094H79.8702C79.5933 41.5094 79.4272 41.4542 79.3165 41.3437Z" fill="#798393"/>
</g>
<g opacity="0.8">
<path d="M43.381 50.4584V51.6183L44.2392 51.7288V52.0602H41.9968L41.9414 51.8393C42.1075 51.7564 42.3013 51.6735 42.5228 51.6183V48.1108L42.0245 48.0556V47.7242L44.1562 47.6689C44.6822 47.6689 45.0974 47.807 45.4296 48.0556C45.7618 48.3318 45.928 48.6632 45.928 49.0498C45.928 49.4365 45.7618 49.7679 45.4573 50.0165C45.1528 50.2927 44.7375 50.4031 44.2669 50.4307H43.381V50.4584ZM43.381 48.2213V49.9336C43.6025 49.9612 43.8239 49.9889 44.0177 49.9889C44.3499 49.9889 44.5714 49.906 44.7375 49.7127C44.9036 49.5193 44.9867 49.2984 44.9867 49.0498C44.9867 48.8565 44.9313 48.6632 44.8483 48.4975C44.7652 48.3318 44.6268 48.1937 44.4884 48.1108L43.381 48.2213Z" fill="#798393"/>
<path d="M52.5998 51.7284V52.0598H51.354L50.3573 50.3475H49.6375V51.6179L50.3296 51.7007V52.0322H48.1979L48.1426 51.8112L48.7516 51.5626V48.0552L48.2533 47.9999V47.6685L50.385 47.6133C50.911 47.6133 51.3263 47.7238 51.6585 47.9723C51.9907 48.2209 52.1568 48.5247 52.1568 48.9113C52.1568 49.1875 52.0738 49.4361 51.9077 49.657C51.7415 49.878 51.4924 50.0437 51.1879 50.1541L52.1291 51.5903L52.5998 51.7284ZM49.6099 49.8503C49.8313 49.878 49.9974 49.9056 50.1635 49.9056C50.5511 49.9056 50.828 49.8227 50.9941 49.6294C51.1602 49.4637 51.2432 49.2427 51.2432 48.9666C51.2432 48.5523 51.0771 48.2761 50.7449 48.1104L49.6375 48.2209V49.8503H49.6099Z" fill="#798393"/>
<path d="M57.0578 51.7282V52.0597H54.9538L54.8984 51.8387L55.5075 51.5901V48.1103L54.9538 48.055V47.7236H56.9194L56.9748 47.9446C56.864 47.9998 56.6426 48.0827 56.3657 48.1931V51.673L57.0578 51.7282Z" fill="#798393"/>
<path d="M63.2029 50.734C63.1752 51.1206 63.1199 51.5349 63.0091 52.032H59.6316L59.4102 51.673L62.0955 48.1655L60.3237 48.2484L60.1576 49.0217H59.6593C59.6039 48.7455 59.5763 48.4141 59.5763 48.055L59.604 47.7236H62.9261H62.9538L63.1475 48.0827L60.5175 51.5073L62.4001 51.4797L62.6769 50.6788L63.2029 50.734Z" fill="#798393"/>
<path d="M69.293 50.7898C69.293 51.2317 69.2653 51.6459 69.21 52.0326H65.694L65.6387 51.8116L66.2477 51.5631V48.0556L65.7494 48.0004V47.6689H69.2376V47.8623C69.2376 48.1661 69.21 48.4975 69.1269 48.8565H68.6563L68.5455 48.2213L67.1336 48.1385V49.6298L68.7116 49.5193V50.1546L67.1336 50.0993V51.5355L68.6009 51.4526L68.8224 50.7345L69.293 50.7898Z" fill="#798393"/>
</g>
<path opacity="0.8" d="M36.9319 45.0172C39.6173 45.1277 42.718 45.2381 46.0678 45.2934C47.7288 45.321 49.4729 45.3762 51.2171 45.3762C52.9612 45.3762 54.7607 45.4038 56.5325 45.4038C58.3043 45.4038 60.1037 45.3762 61.8478 45.3762C63.592 45.3762 65.3361 45.321 66.9971 45.2934C70.3469 45.2381 73.4753 45.1277 76.133 45.0172C81.4761 44.7962 85.0473 44.4924 85.0473 44.4924C85.0473 44.4924 81.4761 44.1887 76.133 43.9677C73.4476 43.8572 70.3469 43.7468 66.9971 43.6915C65.3361 43.6639 63.592 43.6087 61.8478 43.6087C60.1037 43.6087 58.3043 43.5811 56.5325 43.5811C54.7607 43.5811 52.9612 43.6087 51.2171 43.6087C49.4729 43.6087 47.7288 43.6639 46.0678 43.6915C42.718 43.7468 39.5896 43.8572 36.9319 43.9677C31.5889 44.1887 28.0176 44.4924 28.0176 44.4924C28.0176 44.4924 31.5889 44.8239 36.9319 45.0172Z" fill="#798393"/>
</g>
<defs>
<clipPath id="clip0_128_193427">
<rect width="107" height="96" fill="white"/>
</clipPath>
</defs>
</svg>
