<svg width="41" height="36" viewBox="0 0 41 36" fill="none" xmlns="http://www.w3.org/2000/svg">
<path d="M13.7532 31.9229C14.3501 32.3841 15.0934 32.6554 15.9073 32.6554C17.8552 32.6554 19.4342 31.0764 19.4342 29.1285C19.4342 28.32 19.1574 27.5712 18.7017 26.9744C18.1319 26.5945 17.4537 26.3721 16.7212 26.3721C14.757 26.3721 13.1563 27.9727 13.1563 29.9369C13.1509 30.6749 13.3734 31.3531 13.7532 31.9229ZM16.7158 28.3851C17.5731 28.3851 18.2676 29.0796 18.2676 29.9369C18.2676 30.7943 17.5731 31.4888 16.7158 31.4888C15.8585 31.4888 15.1639 30.7943 15.1639 29.9369C15.1639 29.0796 15.8585 28.3851 16.7158 28.3851Z" fill="#FF7D44"/>
<path d="M30.8249 31.9229C31.4218 32.3841 32.1651 32.6554 32.9736 32.6554C34.9215 32.6554 36.5005 31.0764 36.5005 29.1285C36.5005 28.32 36.2237 27.5712 35.768 26.9744C35.2037 26.5945 34.52 26.3721 33.7875 26.3721C31.8233 26.3721 30.2227 27.9727 30.2227 29.9369C30.2227 30.6749 30.4451 31.3586 30.8249 31.9229ZM33.7875 28.3851C34.6448 28.3851 35.3393 29.0796 35.3393 29.9369C35.3393 30.7943 34.6448 31.4888 33.7875 31.4888C32.9302 31.4888 32.2357 30.7943 32.2357 29.9369C32.2357 29.0796 32.9302 28.3851 33.7875 28.3851Z" fill="#FF7D44"/>
<path d="M32.9768 32.6551C32.1683 32.6551 31.4196 32.3783 30.8281 31.9226C31.4684 32.8775 32.559 33.507 33.7907 33.507C35.7549 33.507 37.3555 31.9063 37.3555 29.9421C37.3555 28.7104 36.7261 27.6198 35.7712 26.9795C36.2324 27.5764 36.5037 28.3197 36.5037 29.1336C36.5037 31.0761 34.9247 32.6551 32.9768 32.6551Z" fill="white"/>
<path d="M15.9002 32.6551C15.0917 32.6551 14.3429 32.3783 13.7461 31.9226C14.3864 32.8775 15.477 33.507 16.7087 33.507C18.6728 33.507 20.2735 31.9063 20.2735 29.9421C20.2735 28.7104 19.6441 27.6198 18.6891 26.9795C19.1503 27.5764 19.4216 28.3197 19.4216 29.1336C19.427 31.0761 17.8481 32.6551 15.9002 32.6551Z" fill="white"/>
<path d="M33.7901 31.4943C34.6474 31.4943 35.3419 30.7998 35.3419 29.9425C35.3419 29.0851 34.6474 28.3906 33.7901 28.3906C32.9328 28.3906 32.2383 29.0851 32.2383 29.9425C32.2383 30.7998 32.9328 31.4943 33.7901 31.4943Z" fill="white"/>
<path d="M16.7167 24.8252C13.8952 24.8252 11.6055 27.1204 11.6055 29.9365C11.6055 32.758 13.9006 35.0478 16.7167 35.0478C19.5382 35.0478 21.8279 32.7526 21.8279 29.9365C21.8279 27.1204 19.5382 24.8252 16.7167 24.8252ZM16.7167 26.3716C17.4492 26.3716 18.1329 26.5941 18.6972 26.9739C19.6521 27.6142 20.2815 28.7048 20.2815 29.9365C20.2815 31.9007 18.6809 33.5013 16.7167 33.5013C15.485 33.5013 14.3944 32.8719 13.7541 31.917C13.3743 31.3472 13.1519 30.669 13.1519 29.9365C13.1519 27.9723 14.7525 26.3716 16.7167 26.3716Z" fill="#1C3F39"/>
<path d="M33.7909 24.8252C30.9694 24.8252 28.6797 27.1204 28.6797 29.9365C28.6797 32.758 30.9749 35.0478 33.7909 35.0478C36.607 35.0478 38.9022 32.7526 38.9022 29.9365C38.9022 27.1204 36.6124 24.8252 33.7909 24.8252ZM33.7909 26.3716C34.5234 26.3716 35.2071 26.5941 35.7714 26.9739C36.7263 27.6142 37.3558 28.7048 37.3558 29.9365C37.3558 31.9007 35.7551 33.5013 33.7909 33.5013C32.5592 33.5013 31.4686 32.8719 30.8284 31.917C30.4485 31.3472 30.2261 30.669 30.2261 29.9365C30.2261 27.9723 31.8267 26.3716 33.7909 26.3716Z" fill="#1C3F39"/>
<path d="M16.712 31.4943C17.569 31.4943 18.2638 30.7995 18.2638 29.9425C18.2638 29.0854 17.569 28.3906 16.712 28.3906C15.8549 28.3906 15.1602 29.0854 15.1602 29.9425C15.1602 30.7995 15.8549 31.4943 16.712 31.4943Z" fill="white"/>
<path d="M39.6826 22.4702H11.0988L10.388 18.455H12.1352C12.2708 18.455 12.3739 18.3465 12.3739 18.2162V17.1527C12.3739 17.0171 12.2654 16.914 12.1352 16.914H10.1167L9.82372 15.2645H11.4081C11.5437 15.2645 11.6468 15.156 11.6468 15.0257V13.9623C11.6468 13.8266 11.5383 13.7235 11.4081 13.7235H9.55242L9.25942 12.074H10.7787C10.9143 12.074 11.0174 11.9655 11.0174 11.8353V10.7718C11.0174 10.6361 10.9089 10.533 10.7787 10.533H8.98812L8.69512 8.88353H10.0625C10.1981 8.88353 10.3012 8.77501 10.3012 8.64479V7.56502C10.3012 7.42937 10.1927 7.32627 10.0625 7.32627H8.4184L7.40917 1.60728C7.38747 1.49334 7.33864 1.38482 7.27895 1.298C7.1433 1.08639 6.90456 0.945312 6.63327 0.945312H2.73744C2.3088 0.945312 1.96154 1.29258 1.96154 1.7158C1.96154 2.13903 2.30879 2.48629 2.73202 2.48629H5.99301L6.84488 7.31542H0.691866C0.561644 7.32085 0.453125 7.42937 0.453125 7.56502V8.62851C0.453125 8.76416 0.561644 8.86725 0.691866 8.86725H7.1216L7.4146 10.5168H1.40809C1.27244 10.5168 1.16935 10.6253 1.16935 10.7555V11.819C1.16935 11.9546 1.27787 12.0577 1.40809 12.0577H7.6859L7.9789 13.7072H2.0375C1.90185 13.7072 1.79876 13.8158 1.79876 13.946V15.0095C1.79876 15.1451 1.90728 15.2482 2.0375 15.2482H8.2502L8.5432 16.8977H2.76457C2.62893 16.8977 2.52583 17.0062 2.52583 17.1365V18.1999C2.52583 18.3356 2.63435 18.4387 2.76457 18.4387H8.81449L9.68264 23.3546C9.70435 23.4632 9.74775 23.5662 9.80201 23.6531C9.81829 23.6748 9.83457 23.691 9.85085 23.7128C9.8617 23.729 9.87798 23.7453 9.88883 23.7616C10.0299 23.9081 10.2252 24.0003 10.4477 24.0003H39.6826C40.1113 24.0003 40.4531 23.6531 40.4531 23.2244C40.4531 22.8175 40.1113 22.4702 39.6826 22.4702Z" fill="#1C3F39"/>
<path d="M36.3556 12.5459H27.0664V19.1005H36.3556V12.5459Z" fill="#FF7D44"/>
<path d="M25.5176 19.1005V12.5459H15.2734V18.8672C15.2734 18.992 15.382 19.1005 15.5068 19.1005H25.5176Z" fill="#FF7D44"/>
<path d="M25.5176 4.30371H15.5068C15.382 4.30371 15.2734 4.41223 15.2734 4.53703V10.9994H25.5176V4.30371Z" fill="#FF7D44"/>
<path d="M27.0664 10.9994H36.3882L36.361 4.30371H27.0664V10.9994Z" fill="#FF7D44"/>
<path d="M37.3182 10.9994V4.53703C37.3182 4.41223 37.2097 4.30371 37.0849 4.30371H36.3633L36.3904 10.9994H37.3182Z" fill="white"/>
<path d="M36.3633 19.1005H37.0849C37.2097 19.1005 37.3182 18.992 37.3182 18.8672V12.5459H36.3633V19.1005Z" fill="white"/>
<path d="M37.0837 2.75781H15.5102C14.5281 2.75781 13.7305 3.55543 13.7305 4.53754V18.8676C13.7305 19.8497 14.5281 20.6473 15.5102 20.6473H37.0837C38.0658 20.6473 38.8634 19.8497 38.8634 18.8676V4.53754C38.8634 3.55543 38.0658 2.75781 37.0837 2.75781ZM15.2769 4.53754C15.2769 4.41274 15.3854 4.30422 15.5102 4.30422H25.521V10.9999H15.2769V4.53754ZM36.362 4.30422H37.0837C37.2085 4.30422 37.317 4.41274 37.317 4.53754V10.9999H36.3892H27.0674V4.30422H36.362ZM37.317 18.8676C37.317 18.9924 37.2085 19.1009 37.0837 19.1009H36.362H27.0674V12.5463H36.3566H37.3116V18.8676H37.317ZM15.2769 18.8676V12.5463H25.521V19.1009H15.5102C15.3854 19.1009 15.2769 18.9924 15.2769 18.8676Z" fill="#1C3F39"/>
</svg>
