<svg width="59" height="59" viewBox="0 0 59 59" fill="none" xmlns="http://www.w3.org/2000/svg">
<circle cx="29.5" cy="29.5" r="29" stroke="white" stroke-dasharray="3 3"/>
<path d="M16.3953 25.4166C16.0501 25.4166 15.7363 25.1831 15.6484 24.8329C14.8545 21.6572 14.8545 18.3494 14.8545 16.9374V15.3957C14.8545 14.9702 15.2 14.625 15.6255 14.625C16.051 14.625 16.3962 14.9702 16.3962 15.3957V16.9374C16.3962 18.2933 16.3962 21.4675 17.144 24.4583C17.2472 24.8715 16.9961 25.2902 16.5826 25.3934C16.5203 25.4096 16.4579 25.4166 16.3953 25.4166Z" fill="white"/>
<path d="M39.5208 46.9999H37.979C23.1028 46.9999 11 34.8971 11 20.0208V18.4791C11 17.4485 11.4008 16.4802 12.1271 15.7527C12.856 15.0249 13.8243 14.625 14.8541 14.625H17.9375C18.5503 14.625 19.1299 14.8661 19.5695 15.3048C20.0088 15.7465 20.2499 16.3255 20.2499 16.9374C20.2499 18.5756 20.5775 20.8865 20.9806 22.088C21.7931 24.5254 20.4349 25.698 19.6233 26.3987C19.4901 26.5134 19.3628 26.6228 19.2534 26.7325L18.0669 27.9187C19.1508 30.6198 20.7851 33.1281 22.8114 35.1985C24.8736 37.2157 27.3809 38.8491 30.0806 39.9321L31.2677 38.745C31.3776 38.6356 31.4856 38.5083 31.6014 38.3757C32.3027 37.5632 33.4736 36.205 35.911 37.0183C37.1204 37.4206 39.4314 37.7491 41.0633 37.7491C41.6808 37.7491 42.2619 37.9905 42.6983 38.4265C43.1346 38.8629 43.3749 39.4443 43.3749 40.0623V42.3748C43.3749 42.8011 43.0305 43.1458 42.6042 43.1458H41.0625C39.6504 43.1458 36.3427 43.1458 33.1675 42.3518C32.7544 42.2486 32.5033 41.8299 32.6065 41.4176C32.7097 41.0036 33.1275 40.7522 33.5407 40.8563C36.5323 41.604 39.7066 41.604 41.0625 41.604H41.8335V40.0623C41.8335 39.8559 41.7532 39.6624 41.6076 39.5166C41.4618 39.3716 41.2683 39.2908 41.0625 39.2908C39.4855 39.2908 36.9446 38.987 35.4232 38.4798C33.9662 37.9949 33.4375 38.6071 32.7691 39.3825C32.6273 39.546 32.4933 39.701 32.3583 39.8356L30.8157 41.3773C30.6031 41.5917 30.2823 41.6611 30.0003 41.5541C26.9269 40.4017 24.0649 38.5809 21.7222 36.2885C19.4198 33.9367 17.5991 31.0744 16.4452 27.9996C16.3388 27.7167 16.4082 27.3976 16.6216 27.1842L18.1633 25.6425C18.2974 25.5084 18.4524 25.3725 18.6165 25.2317C19.3922 24.5618 20.0041 24.0337 19.5186 22.5767C19.012 21.0644 18.7082 18.5215 18.7082 16.9374C18.7082 16.7363 18.6268 16.5434 18.4786 16.394C18.3321 16.2476 18.1395 16.1667 17.9375 16.1667H14.8541C14.236 16.1667 13.6541 16.4069 13.2168 16.8433C12.7822 17.2788 12.5417 17.8601 12.5417 18.4791V20.0208C12.5417 34.0467 23.9532 45.4582 37.979 45.4582H39.5208C39.9771 45.4582 40.8143 45.3873 41.2883 44.9133C41.5897 44.6119 42.0769 44.6119 42.3783 44.9133C42.6797 45.2147 42.6797 45.7019 42.3783 46.0033C41.555 46.8264 40.3703 46.9999 39.5208 46.9999Z" fill="white"/>
<path d="M31.5 18.5L34 16.5H35.5L36 17.5L36.5 19V20.5L36 21.5L35 22.5L36.5 23L38.5 25L39 26V27.5L37.5 28L36.5 28.5H35H31.5L30 28L29.5 27V25H30L32.5 23L33 22L31.5 21.5V18.5Z" fill="#FF7D44"/>
<path d="M34.1604 23.2287C32.4894 23.2287 31.1299 21.8691 31.1299 20.1979V18.9859C31.1299 17.3146 32.4894 15.9551 34.1604 15.9551C35.8314 15.9551 37.191 17.3146 37.191 18.9859V20.1979C37.191 21.8691 35.8314 23.2287 34.1604 23.2287ZM34.1604 17.1673C33.1579 17.1673 32.3421 17.9833 32.3421 18.9859V20.1979C32.3421 21.2004 33.1579 22.0164 34.1604 22.0164C35.163 22.0164 35.9787 21.2004 35.9787 20.1979V18.9859C35.9787 17.9833 35.163 17.1673 34.1604 17.1673Z" fill="white"/>
<path d="M35.9798 29.2909H32.3407C30.2949 29.2909 28.9391 27.958 28.8822 27.9011C28.7687 27.7878 28.7051 27.6331 28.7051 27.4727V25.3723C28.7051 24.967 28.9062 24.5899 29.244 24.3644L32.3419 22.2994V22.0176H33.5541V22.6236C33.5541 22.8261 33.4529 23.0153 33.2843 23.1279L29.9173 25.3723V27.1957C30.281 27.4828 31.1745 28.0787 32.3407 28.0787H35.9798C37.1574 28.0787 38.0423 27.4858 38.403 27.1975V25.373L35.036 23.1279C34.8675 23.0153 34.7664 22.8261 34.7664 22.6236V22.0176H35.9784V22.2994L39.0751 24.3637C39.4134 24.5899 39.6152 24.967 39.6152 25.373V27.4727C39.6152 27.6331 39.5517 27.7878 39.4377 27.9011C39.3808 27.958 38.0254 29.2903 35.9798 29.2909Z" fill="white"/>
<path d="M28.7057 34.1388C28.6276 34.1388 28.5487 34.1242 28.4736 34.0925C28.2474 33.9993 28.0997 33.7774 28.0997 33.5325V31.108C28.0997 30.773 28.3711 30.502 28.7057 30.502C29.0403 30.502 29.312 30.773 29.312 31.108V32.0694L30.7018 30.6795C30.8151 30.5656 30.9691 30.502 31.1302 30.502H42.0404C42.375 30.502 42.6464 30.2303 42.6464 29.8957V15.955C42.6464 15.6211 42.375 15.349 42.0404 15.349H26.2812C25.9473 15.349 25.6752 15.6211 25.6752 15.955V29.8957C25.6752 30.2303 25.9473 30.502 26.2812 30.502C26.6157 30.502 26.8874 30.773 26.8874 31.108C26.8874 31.4433 26.6157 31.7142 26.2812 31.7142C25.2786 31.7142 24.4629 30.8983 24.4629 29.8957V15.955C24.4629 14.9524 25.2786 14.1367 26.2812 14.1367H42.0404C43.043 14.1367 43.8587 14.9524 43.8587 15.955V29.8957C43.8587 30.8983 43.043 31.7142 42.0404 31.7142H31.3811L29.1342 33.961C29.0185 34.0768 28.8634 34.1388 28.7057 34.1388Z" fill="white"/>
</svg>
