<svg width="174" height="33" viewBox="0 0 174 33" fill="none" xmlns="http://www.w3.org/2000/svg">
<g clip-path="url(#clip0_303_199123)">
<path fill-rule="evenodd" clip-rule="evenodd" d="M18.7356 31.7791H8.74365C9.19247 31.4514 9.56609 30.8363 9.79882 30.0543L17.6734 30.0321C17.9069 30.8245 18.2829 31.4474 18.7356 31.7791ZM62.2957 29.7273C62.3836 30.6519 62.7161 31.4166 63.1633 31.7783H59.1936C59.6432 31.4166 59.9796 30.6527 60.0746 29.7273H62.2957ZM37.3098 31.7791C36.8523 31.4451 36.4739 30.8134 36.242 30.0115L23.0893 30.078C22.8558 30.8482 22.4853 31.4546 22.0412 31.7791H37.3098ZM46.8285 29.7171C46.6084 30.6582 46.1952 31.4047 45.6838 31.7783H53.0312C52.4969 31.3477 52.1225 30.3511 52.1225 29.1899C52.1225 28.1767 52.4668 27.1112 52.8943 26.6157L47.1815 25.9983C47.4166 27.0511 47.6525 28.1038 47.8876 29.1566C47.8805 29.2952 47.8741 29.4337 47.867 29.5722C47.7839 29.6205 47.7008 29.6688 47.6177 29.7178H46.8285V29.7171ZM44.8068 26.9656C45.3949 26.9656 45.8715 27.921 45.8715 29.1004C45.8715 30.2791 45.3949 31.2353 44.8068 31.2353C44.5939 31.2353 44.396 31.1102 44.2297 30.8949C44.6556 30.7429 44.9786 29.9981 44.9786 29.1012C44.9786 28.2044 44.6556 27.4587 44.2297 27.3075C44.396 27.0906 44.5939 26.9656 44.8068 26.9656ZM41.2645 26.9656C41.8526 26.9656 42.3292 27.921 42.3292 29.1004C42.3292 30.2791 41.8526 31.2353 41.2645 31.2353C41.0516 31.2353 40.8537 31.1102 40.6875 30.8949C41.1125 30.7429 41.4363 29.9981 41.4363 29.1012C41.4363 28.2044 41.1133 27.4587 40.6875 27.3075C40.8537 27.0906 41.0516 26.9656 41.2645 26.9656ZM68.9631 27.6566C69.2109 27.6566 69.6019 28.445 69.6019 29.4171C69.6019 30.3899 69.2109 31.1775 68.9631 31.1775C68.7154 31.1775 68.6877 31.0469 68.5808 30.8276C68.789 30.6155 68.937 30.0638 68.937 29.4171C68.937 28.7703 68.789 28.2186 68.5808 28.0065C68.6877 27.7864 68.7154 27.6566 68.9631 27.6566ZM66.4182 27.6566C66.666 27.6566 67.057 28.445 67.057 29.4171C67.057 30.3899 66.666 31.1775 66.4182 31.1775C66.1697 31.1775 66.1428 31.0469 66.0359 30.8276C66.2441 30.6155 66.3921 30.0638 66.3921 29.4171C66.3921 28.7703 66.2433 28.2186 66.0359 28.0065C66.1428 27.7864 66.1697 27.6566 66.4182 27.6566ZM14.8071 26.4732H16.7235C16.7963 26.4732 16.8557 26.5326 16.8557 26.6054V27.1714C16.8557 27.2442 16.7963 27.3044 16.7235 27.3044H14.8071C14.7343 27.3044 14.6749 27.245 14.6749 27.1714V26.6054C14.6749 26.5326 14.7343 26.4732 14.8071 26.4732ZM1.63535 26.4732H2.65569C2.72851 26.4732 2.78788 26.5326 2.78788 26.6054V27.1714C2.78788 27.2442 2.72851 27.3044 2.65569 27.3044H1.63535C1.56253 27.3044 1.50316 27.245 1.50316 27.1714V26.6054C1.50237 26.5326 1.56253 26.4732 1.63535 26.4732ZM33.3338 23.0164L35.228 22.9982L35.3816 22.9468V22.9436L35.3895 22.9444L35.4465 22.9254L35.4908 22.8811C35.4021 19.5193 35.3879 14.9923 35.1575 10.8429L33.0528 10.8492L33.3338 23.0164ZM21.3953 26.1297C21.6676 26.1297 21.917 26.3117 22.1117 26.6141C21.8813 26.113 21.5465 25.7972 21.1737 25.7972C20.4795 25.7972 19.9167 26.8904 19.9167 28.2384C19.9167 29.5864 20.4795 30.6796 21.1737 30.6796C21.5465 30.6796 21.8813 30.3638 22.1117 29.8627C21.917 30.1651 21.6676 30.3471 21.3953 30.3471C21.2196 30.3471 21.0526 30.2712 20.9045 30.1358C20.9109 30.1358 20.918 30.1366 20.9243 30.1366C21.3154 30.1366 21.6542 29.7194 21.8228 29.1099C21.7183 29.3387 21.5726 29.4804 21.4119 29.4804C21.0937 29.4804 20.8357 28.9247 20.8357 28.2392C20.8357 27.5537 21.0937 26.998 21.4119 26.998C21.5726 26.998 21.7183 27.1397 21.8228 27.3677C21.6549 26.7582 21.3154 26.341 20.9243 26.341C20.918 26.341 20.9109 26.341 20.9045 26.341C21.0534 26.2049 21.2196 26.1297 21.3953 26.1297ZM20.4233 28.1181C20.5278 28.1181 20.6125 28.1901 20.6125 28.2788C20.6125 28.3674 20.5278 28.4395 20.4233 28.4395C20.3188 28.4395 20.2341 28.3674 20.2341 28.2788C20.2333 28.1909 20.318 28.1181 20.4233 28.1181ZM20.5159 27.4104C20.6204 27.4191 20.6979 27.492 20.69 27.5727C20.6821 27.6542 20.5911 27.7128 20.4866 27.7041C20.3821 27.6954 20.3045 27.6226 20.3124 27.541C20.3204 27.4611 20.4114 27.4017 20.5159 27.4104ZM20.5159 29.0965C20.6204 29.0878 20.6979 29.0149 20.69 28.9342C20.6821 28.8527 20.5911 28.7941 20.4866 28.8028C20.3821 28.8115 20.3045 28.8843 20.3124 28.9651C20.3204 29.0466 20.4114 29.1052 20.5159 29.0965ZM20.7858 26.7384C20.8903 26.7724 20.9679 26.8698 20.96 26.9569C20.952 27.0439 20.861 27.0867 20.7565 27.0526C20.652 27.0186 20.5745 26.9212 20.5824 26.8342C20.5903 26.7479 20.6813 26.7051 20.7858 26.7384ZM20.8119 29.7685C20.9164 29.7345 20.994 29.6371 20.9861 29.55C20.9782 29.4638 20.8871 29.421 20.7826 29.4543C20.6782 29.4883 20.5998 29.5857 20.6085 29.6727C20.6164 29.759 20.7074 29.8025 20.8119 29.7685ZM10.4044 11.374L21.0051 10.7867C22.6381 7.71063 24.8624 5.87102 28.597 4.47469C26.4424 5.6383 23.8618 7.38608 22.7386 9.4402C22.46 9.94998 22.4829 10.2302 23.1241 10.227C26.2856 10.2112 29.4028 10.1835 32.5454 10.1621C32.5881 8.64389 32.3609 7.12486 32.0459 5.60663C32.5723 7.08845 32.9087 8.60431 33.0235 10.159C33.7193 10.1542 34.4166 10.1502 35.1164 10.1471C34.9383 7.26893 34.6612 4.67812 34.0612 2.46093C33.8008 1.96937 33.4011 1.67728 32.7733 1.60683C30.9226 1.80868 29.3751 2.14431 27.7667 2.81318C28.3398 2.33191 28.7688 2.05565 29.3371 1.76594C25.9152 1.96858 22.3903 2.21476 19.2391 2.70553C16.3047 3.16227 14.7248 4.16835 12.096 6.73541C13.9743 3.99579 16.0981 2.38574 19.452 1.9005C23.831 1.26646 27.7279 0.782806 32.144 0.742436C33.4834 0.730563 34.2631 1.14455 34.8045 1.80868L38.6674 1.59733C39.4629 1.5538 39.9972 1.50155 40.6962 1.85459L57.9841 10.5864L41.16 4.16123C40.5363 3.92296 39.8769 4.04803 39.8888 4.79765C39.9758 10.383 40.0954 15.616 40.1824 21.2013C53.6352 22.7766 61.1345 24.3526 74.5864 25.9278L74.4946 26.3307L74.6252 26.341C74.4661 26.5484 74.3062 26.7566 74.1471 26.964C72.807 26.9189 71.4669 26.8737 70.1267 26.8286C70.3278 28.0548 70.5281 29.2801 70.7291 30.5063C70.6183 30.5894 70.5075 30.6725 70.3967 30.7556L69.8845 30.7192C69.7262 31.1862 69.4959 31.5575 69.2228 31.7791H75.2094C75.7817 31.7791 76.3572 32.1242 76.3572 32.7424C45.3158 32.7424 31.2084 32.7424 0.166992 32.7424C0.166992 32.1242 0.741672 31.7791 1.31398 31.7791H5.43726C4.89741 31.3849 4.46759 30.5767 4.25862 29.5627C3.69739 29.5706 3.03168 29.5651 2.49817 29.5762C2.18075 29.5825 1.95911 29.4202 1.82058 29.1052C7.61725 29.0498 13.4139 28.9991 19.2106 28.9437C19.2747 27.9202 19.3388 26.8975 19.4029 25.874C19.4077 25.8265 19.4132 25.779 19.4188 25.7323L13.5833 25.8297L1.22453 25.9959L1.27519 25.5162C1.34406 24.1959 1.70739 23.4423 2.91295 22.7315C2.46888 23.6774 2.43484 24.4705 2.44751 25.4917L3.71323 25.4798L3.84225 20.6393V20.0053C3.89687 19.015 4.70744 18.7277 5.52513 18.4372C4.90533 18.8243 4.62511 19.0847 4.40031 19.6815L11.1469 19.4013C12.5202 18.7562 13.949 18.21 15.4174 17.8269C14.3139 18.3477 13.1883 18.8583 12.1347 19.4773C11.773 19.6895 11.6376 19.8034 11.6099 20.2768L11.5514 24.7389C11.5601 25.0159 11.5102 25.2494 11.359 25.4062L12.5123 25.3951C13.2398 24.5149 13.9197 23.7589 14.7366 23.2111L14.7058 23.2127C15.3366 22.8233 15.9667 22.4346 16.5976 22.0452C19.0816 20.7494 21.3621 19.7702 23.4946 21.8417C21.879 20.671 19.9562 21.032 18.9272 21.7467C18.1491 22.2866 17.747 23.0394 17.4311 24.0209L17.1343 25.3421L19.4805 25.3128C19.8723 23.0077 21.0074 22.6349 21.746 22.6555C24.127 22.722 24.3336 26.432 24.3906 29.117C28.0089 29.0585 31.6279 28.9991 35.2462 28.9405C35.3222 28.8574 35.399 28.7743 35.475 28.6912L35.4837 28.5234L24.8972 28.6255C24.8972 26.7946 24.7603 25.7402 24.2845 23.9402C24.6051 24.2441 24.7872 24.6043 25.2154 24.6067L35.6737 24.6565L35.6934 24.2552C35.5897 24.1096 35.4853 23.9647 35.3816 23.8191V23.7953L24.9803 23.7542L24.3716 23.1035L32.866 23.0235L32.5628 10.8532L26.607 10.8722L26.8017 15.81C26.8136 16.0498 26.7645 16.1535 26.5421 16.1836C25.3698 16.3261 24.1967 16.4678 23.0244 16.6102C22.684 16.6514 22.6618 16.4147 22.6951 16.1393L23.3275 10.8824L22.3674 10.8856L21.8212 15.1981C21.7547 15.7221 21.5117 15.9619 21.0074 15.9944C17.1549 16.1108 12.9912 16.243 9.13865 16.3593C8.77373 16.3704 8.54259 16.2873 8.64946 15.867L9.67375 11.8307C9.45923 11.8323 9.26846 11.8395 9.03099 11.8355C8.32254 11.8228 8.26634 11.4389 8.64866 10.9695C8.88534 10.679 9.12202 10.3877 9.35949 10.0972C9.23126 10.3568 9.10303 10.6165 8.97479 10.8761C8.72861 11.3265 8.93046 11.3851 9.32229 11.3954C9.65792 11.3922 10.0774 11.3724 10.4131 11.3693L10.4044 11.374Z" fill="#798393"/>
<path fill-rule="evenodd" clip-rule="evenodd" d="M39.624 6.2793L66.4559 15.8834L39.6256 8.08012L39.624 6.2793Z" fill="#798393"/>
<path fill-rule="evenodd" clip-rule="evenodd" d="M39.4385 10.5615L71.2968 20.1039L39.4401 12.3631L39.4385 10.5615Z" fill="#798393"/>
<path fill-rule="evenodd" clip-rule="evenodd" d="M39.3145 15.2773L73.9037 23.516L39.316 17.079L39.3145 15.2773Z" fill="#798393"/>
<path d="M81.2126 8.20711C81.2126 8.27518 81.15 8.30922 81.0266 8.30922C80.5611 8.30922 79.8542 8.26885 78.9075 8.18811C77.9608 8.10737 77.2508 8.067 76.779 8.067C76.1829 8.067 75.8347 8.08917 75.7357 8.13191C75.5062 8.23719 75.3914 8.53561 75.3914 9.02638C75.3914 9.6161 75.5402 9.95173 75.8386 10.0325C75.9629 10.0633 76.1521 10.0792 76.407 10.0792C76.8352 10.0792 77.4764 10.0562 78.3305 10.0095C79.1846 9.96281 79.8257 9.93986 80.254 9.93986C80.459 9.93986 80.5611 10.486 80.5611 11.5792C80.5611 12.5291 80.5271 13.0824 80.459 13.2375C80.4155 13.3491 80.3316 13.4053 80.2073 13.4053C80.288 13.4053 80.0925 13.384 79.6207 13.3404C78.9558 13.2787 77.9505 13.247 76.6025 13.247C76.1679 13.247 75.9225 13.2502 75.8663 13.2565C75.5497 13.3064 75.3914 13.4402 75.3914 13.6571C75.3914 14.5389 75.4286 15.5545 75.503 16.703C75.5647 17.74 75.5964 18.2031 75.5964 18.0906C75.5964 18.2521 75.4009 18.3455 75.0098 18.3701C75.1151 18.3637 74.8389 18.3606 74.1811 18.3606C73.0198 18.3606 72.2718 18.3202 71.9362 18.2395C71.7557 18.1959 71.6662 18.0994 71.6662 17.9505C71.6662 17.2611 71.6892 16.2257 71.7359 14.8444C71.7826 13.4623 71.8056 12.427 71.8056 11.7375C71.8056 10.9174 71.7684 9.88682 71.694 8.64485C71.5823 6.72608 71.523 5.69546 71.5166 5.55218L71.5071 5.44057C71.5008 5.28543 71.5942 5.20785 71.7866 5.20785C72.2457 5.20785 72.9399 5.21735 73.8684 5.23556C74.7969 5.25455 75.4935 5.26326 75.9597 5.26326C76.4568 5.26326 77.2033 5.22606 78.1999 5.15165C79.1965 5.07724 79.9429 5.04004 80.44 5.04004C80.7503 5.04004 80.9244 5.16748 80.9616 5.42158C80.9616 5.68833 80.9743 6.08887 80.9989 6.62318C81.0115 6.76012 81.0519 7.02371 81.12 7.41475C81.1809 7.75671 81.2126 8.0203 81.2126 8.20711Z" fill="#798393"/>
<path d="M93.8346 18.1459C93.8346 18.1894 93.7721 18.2203 93.6486 18.2393C93.4127 18.2765 92.8198 18.2955 91.8691 18.2955C91.0554 18.2955 90.5029 18.2765 90.2108 18.2393C90.0739 18.2203 89.9963 18.2052 89.9781 18.1926C89.9409 18.1736 89.8973 18.1118 89.8475 18.0066C89.7541 17.7643 89.6179 17.4042 89.4374 16.9261C89.1952 16.3055 88.8161 15.3888 88.3007 14.1785C88.1891 13.9363 87.9311 13.8025 87.5274 13.778C87.7134 13.7907 87.3936 13.797 86.568 13.797C86.4746 13.797 86.4279 13.9553 86.4279 14.2719C86.4279 14.6946 86.4667 15.3247 86.5442 16.163C86.6218 17.0013 86.6606 17.6313 86.6606 18.054C86.6606 18.1593 86.6329 18.2219 86.5767 18.2401C86.4896 18.2464 86.4026 18.2527 86.3163 18.2591C85.9498 18.2836 85.3783 18.2963 84.6025 18.2963C83.7144 18.2963 83.1801 18.2773 83.0004 18.2401C82.8199 18.2029 82.7305 18.1063 82.7305 17.9511C82.7305 17.268 82.7629 16.2374 82.8286 14.8585C82.8935 13.4796 82.9268 12.4458 82.9268 11.7563C82.9268 9.12989 82.8674 7.08052 82.7495 5.6082L82.74 5.47759C82.7336 5.37231 82.8318 5.30028 83.0336 5.26307C83.2355 5.22587 84.1838 5.18867 85.8793 5.15146C87.0279 5.12692 87.9437 5.11426 88.6269 5.11426C90.043 5.11426 91.1979 5.43405 92.0924 6.07364C93.1048 6.79397 93.6106 7.83409 93.6106 9.19401C93.6106 10.1011 93.48 10.8239 93.2196 11.3645C92.9591 11.9051 92.4771 12.4299 91.7757 12.9389C91.6325 13.0379 91.5612 13.1313 91.5612 13.2183C91.5612 13.212 91.9396 13.9917 92.6979 15.5566C93.4555 17.1208 93.8346 17.9844 93.8346 18.1459ZM89.9219 9.79006C89.9219 9.03253 89.6733 8.50772 89.177 8.21563C88.7915 7.99241 88.1899 7.88 87.3699 7.88C86.7801 7.88 86.4667 7.97024 86.4287 8.14993C86.3915 8.36128 86.3725 8.96999 86.3725 9.97529C86.3725 10.1186 86.3756 10.3291 86.382 10.6085C86.3883 10.888 86.3915 11.0962 86.3915 11.2323C86.3915 11.2632 86.4904 11.2948 86.6899 11.3257C87.0683 11.3819 87.4664 11.4096 87.882 11.4096C89.2419 11.4112 89.9219 10.8706 89.9219 9.79006Z" fill="#798393"/>
<path d="M104.845 15.3424C104.845 15.6091 104.792 16.0999 104.687 16.8139C104.575 17.5904 104.475 18.0527 104.388 18.2015C104.314 18.3195 104.211 18.3788 104.081 18.3788C104.025 18.3788 103.932 18.3693 103.802 18.3511C103.348 18.2886 102.026 18.2577 99.8337 18.2577C99.3556 18.2577 98.6448 18.2546 97.7004 18.2482C96.7561 18.2419 96.0484 18.2387 95.5767 18.2387C95.3716 18.2387 95.2695 18.1485 95.2695 17.9688C95.2695 17.273 95.3083 16.2282 95.3859 14.8342C95.4635 13.4402 95.5022 12.3954 95.5022 11.6996C95.5022 10.9919 95.465 9.67237 95.3906 7.74094C95.3716 7.24383 95.3376 6.50213 95.2885 5.51505L95.279 5.38444C95.2664 5.24195 95.3439 5.16992 95.5117 5.16992C95.9709 5.16992 96.6619 5.18259 97.5841 5.20713C98.5063 5.23166 99.1973 5.24433 99.6564 5.24433C100.11 5.24433 100.793 5.23166 101.706 5.20713C102.618 5.18259 103.302 5.16992 103.755 5.16992C104.078 5.16992 104.264 5.29103 104.314 5.53325C104.345 5.67653 104.393 6.10952 104.458 6.83301C104.523 7.5565 104.556 7.99583 104.556 8.15097C104.556 8.28158 104.494 8.34649 104.37 8.34649C104.333 8.34649 104.268 8.34333 104.175 8.33699C102.523 8.20084 101.038 8.13198 99.7221 8.13198C99.3928 8.13198 99.191 8.20955 99.1166 8.3647C99.0857 8.43911 99.0699 8.67816 99.0699 9.08186C99.0699 9.50456 99.1316 9.78398 99.2559 9.92013C99.3612 10.0381 99.563 10.0974 99.8614 10.0974C99.9232 10.0974 100.044 10.0927 100.225 10.0832C100.404 10.0737 100.554 10.0689 100.672 10.0689C101.454 10.0689 102.246 10.0476 103.047 10.004C103.116 9.99771 103.287 9.98267 103.56 9.95734C103.771 9.9328 103.939 9.92013 104.063 9.92013C104.212 9.92013 104.286 9.99137 104.286 10.1346C104.286 10.004 104.23 10.479 104.118 11.5595C104.069 12.0566 104.044 12.5529 104.044 13.05C104.044 13.1743 103.954 13.236 103.774 13.236L102.936 13.1426C102.582 13.1054 101.775 13.0864 100.514 13.0864H99.5266C99.2717 13.0864 99.1229 13.1482 99.0794 13.2724C99.073 13.3033 99.0699 13.4957 99.0699 13.8495C99.0699 14.3213 99.1007 14.626 99.1633 14.7622C99.2685 14.9981 99.6659 15.1382 100.355 15.1809C100.343 15.1809 100.796 15.1809 101.715 15.1809C102.045 15.1809 102.534 15.1516 103.182 15.0922C103.831 15.0337 104.317 15.0036 104.64 15.0036C104.777 15.0068 104.845 15.1184 104.845 15.3424Z" fill="#798393"/>
<path d="M110.285 11.3546C110.285 12.0876 110.304 13.1895 110.341 14.6618C110.378 16.1341 110.397 17.236 110.397 17.969C110.397 18.0933 110.369 18.1708 110.313 18.2017C110.301 18.2081 110.22 18.2207 110.071 18.2389C109.667 18.2888 109.127 18.3133 108.45 18.3133C107.544 18.3133 106.966 18.2888 106.717 18.2389C106.537 18.2017 106.447 18.1051 106.447 17.95C106.447 18.0497 106.475 17.5028 106.531 16.3107C106.643 13.7958 106.699 12.1438 106.699 11.3554C106.699 10.6913 106.677 9.69472 106.634 8.36567C106.591 7.03663 106.569 6.04004 106.569 5.37591C106.569 5.23897 106.64 5.1709 106.784 5.1709C106.976 5.1709 107.267 5.1804 107.654 5.1986C108.042 5.2176 108.333 5.22631 108.525 5.22631C108.717 5.22631 109.002 5.21681 109.378 5.1986C109.754 5.17961 110.037 5.1709 110.23 5.1709C110.41 5.1709 110.5 5.23897 110.5 5.37591C110.5 6.04004 110.464 7.03742 110.393 8.36567C110.32 9.69393 110.285 10.6905 110.285 11.3546Z" fill="#798393"/>
<path d="M124.863 17.9406C124.876 18.1084 124.789 18.1923 124.603 18.1923C124.485 18.1923 124.145 18.1243 123.583 17.9873C123.021 17.8512 122.675 17.7578 122.544 17.7079C121.246 18.2169 120.001 18.4718 118.809 18.4718C116.89 18.4718 115.315 17.8322 114.086 16.553C112.869 15.292 112.261 13.6994 112.261 11.7743C112.261 9.80566 112.85 8.17265 114.031 6.87448C115.248 5.53276 116.828 4.8623 118.772 4.8623C119.716 4.8623 120.604 5.04278 121.437 5.40295C122.337 5.80031 123.045 6.35916 123.56 7.07949C123.666 7.22831 123.719 7.33438 123.719 7.39612C123.719 7.5948 123.441 8.04046 122.885 8.73308C122.33 9.4257 121.971 9.77162 121.809 9.77162C121.772 9.77162 121.629 9.64418 121.381 9.38929C121.077 9.08533 120.766 8.84865 120.45 8.68163C119.978 8.42674 119.456 8.2993 118.885 8.2993C117.953 8.2993 117.214 8.6468 116.667 9.34259C116.158 9.98218 115.904 10.7801 115.904 11.7363C115.904 12.7487 116.167 13.5498 116.695 14.1395C117.241 14.7482 118.015 15.0522 119.014 15.0522C119.648 15.0522 120.356 14.8939 121.138 14.5772C121.119 14.3722 121.064 13.8506 120.97 13.0123C120.89 12.3664 120.849 11.8447 120.849 11.4474C120.849 11.3294 120.89 11.2582 120.97 11.2329C121.001 11.2202 121.051 11.2139 121.119 11.2139C121.299 11.2139 121.571 11.2313 121.935 11.2653C122.298 11.2993 122.573 11.3168 122.759 11.3168C122.957 11.3168 123.256 11.3025 123.653 11.2748C124.05 11.2471 124.349 11.2329 124.547 11.2329C124.703 11.2329 124.78 11.335 124.78 11.54C124.78 11.8384 124.763 12.2888 124.729 12.8904C124.695 13.4928 124.677 13.9432 124.677 14.2408C124.677 15.0419 124.737 16.2403 124.855 17.8361L124.863 17.9406Z" fill="#798393"/>
<path d="M139.088 17.9498C139.088 18.0804 139.061 18.1612 139.004 18.192C138.98 18.2102 138.893 18.2261 138.744 18.2387C138.365 18.2759 137.831 18.2949 137.142 18.2949C136.167 18.2949 135.594 18.2759 135.423 18.2387C135.252 18.2015 135.167 18.1176 135.167 17.987C135.167 17.4962 135.19 16.7593 135.237 15.7746C135.283 14.7907 135.306 14.0529 135.306 13.5621C135.306 13.3199 135.238 13.1798 135.101 13.1426C134.89 13.0927 134.139 13.0682 132.847 13.0682C131.549 13.0682 130.791 13.0927 130.574 13.1426C130.437 13.1735 130.369 13.3136 130.369 13.5621C130.369 14.0466 130.385 14.7717 130.416 15.7374C130.447 16.7031 130.463 17.4282 130.463 17.9126C130.463 18.0986 130.379 18.2079 130.211 18.2387C130.012 18.2759 129.429 18.2949 128.46 18.2949C127.622 18.2949 127.087 18.2759 126.858 18.2387C126.677 18.2079 126.588 18.1113 126.588 17.9498C126.588 17.2794 126.62 16.2669 126.686 14.9134C126.751 13.5598 126.784 12.5442 126.784 11.8674C126.784 11.1471 126.753 10.065 126.691 8.62117C126.628 7.17734 126.597 6.09527 126.597 5.37494C126.597 5.238 126.662 5.16992 126.793 5.16992C126.985 5.16992 127.276 5.17942 127.664 5.19763C128.052 5.21662 128.342 5.22533 128.534 5.22533C128.733 5.22533 129.033 5.21583 129.434 5.19763C129.834 5.17863 130.133 5.16992 130.333 5.16992C130.438 5.16992 130.491 5.22612 130.491 5.33773C130.491 5.80318 130.457 6.50055 130.389 7.42906C130.321 8.35757 130.287 9.05415 130.287 9.52039C130.287 9.73807 130.346 9.86472 130.464 9.90193C130.626 9.95179 131.42 9.97633 132.849 9.97633C134.178 9.97633 134.948 9.95179 135.159 9.90193C135.308 9.86472 135.382 9.73728 135.382 9.52039C135.382 9.07315 135.36 8.39794 135.317 7.49476C135.274 6.59158 135.252 5.91321 135.252 5.45964C135.252 5.26728 135.33 5.17071 135.485 5.17071C135.665 5.17071 135.94 5.18021 136.309 5.19842C136.679 5.21742 136.957 5.22612 137.143 5.22612C137.323 5.22612 137.598 5.21662 137.967 5.19842C138.337 5.17942 138.615 5.17071 138.801 5.17071C138.981 5.17071 139.071 5.24512 139.071 5.39394C139.071 6.10793 139.042 7.18526 138.982 8.62592C138.923 10.0666 138.894 11.1471 138.894 11.8674C138.894 12.5442 138.926 13.5598 138.992 14.9134C139.056 16.2669 139.088 17.2786 139.088 17.9498Z" fill="#798393"/>
<path d="M150.295 8.02028C150.295 8.14455 150.226 8.2063 150.089 8.2063C149.854 8.2063 148.919 8.15959 147.286 8.06619C147.249 9.63745 147.23 10.7338 147.23 11.3544C147.23 12.0874 147.259 13.1892 147.318 14.6615C147.378 16.1331 147.407 17.2357 147.407 17.9687C147.407 18.0867 147.379 18.1611 147.323 18.1919C147.304 18.2046 147.218 18.2197 147.063 18.2387C146.69 18.2885 146.144 18.3131 145.423 18.3131C144.622 18.3131 144.06 18.2885 143.737 18.2387C143.563 18.2078 143.477 18.1112 143.477 17.9497C143.477 17.2167 143.508 16.118 143.57 14.652C143.632 13.1869 143.664 12.0874 143.664 11.3544C143.664 10.8699 143.639 9.78944 143.589 8.11289C142.347 8.23717 141.357 8.29891 140.618 8.29891C140.518 8.29891 140.469 8.26804 140.469 8.2055C140.469 8.12476 140.512 7.88571 140.599 7.48834C140.698 7.05377 140.754 6.78939 140.767 6.69677C140.785 6.40468 140.808 6.11339 140.832 5.8213C140.876 5.35585 140.95 5.12234 141.055 5.12234C141.068 5.12234 141.111 5.12551 141.186 5.13184C142.192 5.26245 143.679 5.32736 145.648 5.32736C146.207 5.32736 147.237 5.26799 148.741 5.15005C149.548 5.0883 149.955 5.05664 149.961 5.05664C150.086 5.05664 150.157 5.06456 150.176 5.0796C150.195 5.09543 150.207 5.15559 150.213 5.26087C150.213 5.42868 150.207 5.6614 150.195 5.95982C150.182 6.28911 150.176 6.52184 150.176 6.65878C150.176 6.81393 150.196 7.04269 150.237 7.34349C150.275 7.64666 150.295 7.87146 150.295 8.02028Z" fill="#798393"/>
<path d="M161.249 15.3424C161.249 15.6091 161.196 16.0999 161.091 16.8139C160.98 17.5904 160.88 18.0527 160.793 18.2015C160.718 18.3195 160.615 18.3788 160.486 18.3788C160.429 18.3788 160.337 18.3693 160.206 18.3511C159.753 18.2886 158.43 18.2577 156.238 18.2577C155.76 18.2577 155.049 18.2546 154.105 18.2482C153.16 18.2419 152.453 18.2387 151.981 18.2387C151.776 18.2387 151.674 18.1485 151.674 17.9688C151.674 17.273 151.713 16.2282 151.79 14.8342C151.868 13.4402 151.907 12.3954 151.907 11.6996C151.907 10.9919 151.869 9.67237 151.795 7.74094C151.777 7.24383 151.742 6.50213 151.693 5.51505L151.683 5.38444C151.671 5.24195 151.748 5.16992 151.916 5.16992C152.375 5.16992 153.066 5.18259 153.988 5.20713C154.911 5.23166 155.602 5.24433 156.061 5.24433C156.514 5.24433 157.197 5.23166 158.11 5.20713C159.023 5.18259 159.706 5.16992 160.159 5.16992C160.482 5.16992 160.668 5.29103 160.718 5.53325C160.749 5.67653 160.797 6.10952 160.862 6.83301C160.927 7.5565 160.961 7.99583 160.961 8.15097C160.961 8.28158 160.899 8.34649 160.775 8.34649C160.737 8.34649 160.672 8.34333 160.579 8.33699C158.927 8.20084 157.443 8.13198 156.126 8.13198C155.797 8.13198 155.595 8.20955 155.521 8.3647C155.49 8.43911 155.474 8.67816 155.474 9.08186C155.474 9.50456 155.536 9.78398 155.66 9.92013C155.765 10.0381 155.967 10.0974 156.266 10.0974C156.327 10.0974 156.449 10.0927 156.629 10.0832C156.809 10.0737 156.958 10.0689 157.076 10.0689C157.858 10.0689 158.651 10.0476 159.452 10.004C159.52 9.99771 159.691 9.98267 159.964 9.95734C160.175 9.9328 160.342 9.92013 160.467 9.92013C160.615 9.92013 160.69 9.99137 160.69 10.1346C160.69 10.004 160.634 10.479 160.522 11.5595C160.472 12.0566 160.448 12.5529 160.448 13.05C160.448 13.1743 160.357 13.236 160.178 13.236L159.339 13.1426C158.986 13.1054 158.178 13.0864 156.917 13.0864H155.93C155.675 13.0864 155.526 13.1482 155.483 13.2724C155.477 13.3033 155.473 13.4957 155.473 13.8495C155.473 14.3213 155.504 14.626 155.567 14.7622C155.672 14.9981 156.069 15.1382 156.759 15.1809C156.746 15.1809 157.2 15.1809 158.119 15.1809C158.448 15.1809 158.936 15.1516 159.586 15.0922C160.235 15.0337 160.721 15.0036 161.044 15.0036C161.181 15.0068 161.249 15.1184 161.249 15.3424Z" fill="#798393"/>
<path d="M173.191 16.9992C173.191 17.6079 173.164 17.9681 173.107 18.0797C173.039 18.2166 172.828 18.2847 172.474 18.2847C172.418 18.2847 172.294 18.2847 172.101 18.2847C171.915 18.2784 171.758 18.2752 171.631 18.2752C171.504 18.2752 171.315 18.2689 171.063 18.2562C170.811 18.2436 170.623 18.2372 170.499 18.2372C170.399 18.2372 169.953 17.6412 169.158 16.4491C168.363 15.257 167.95 14.6578 167.919 14.6514C167.788 14.7567 167.341 15.3844 166.577 16.533C165.844 17.6325 165.416 18.2 165.291 18.238C165.204 18.2626 164.972 18.2752 164.593 18.2752C163.32 18.2752 162.683 18.2103 162.683 18.0797C162.683 17.9491 162.675 17.7631 162.66 17.5209C162.644 17.2786 162.637 17.099 162.637 16.9802C162.637 16.21 162.684 15.7572 162.777 15.6203C162.783 15.614 163.295 14.934 164.314 13.5804C165.139 12.4873 165.553 11.8635 165.553 11.7084C165.553 11.5532 165.139 10.9382 164.314 9.864C163.792 9.19988 163.274 8.53179 162.758 7.86133C162.702 7.78059 162.668 7.64682 162.656 7.4608C162.65 7.33019 162.65 7.15367 162.656 6.92965C162.675 6.6629 162.684 6.51408 162.684 6.48242C162.684 6.35814 162.673 6.16579 162.652 5.90457C162.629 5.64415 162.619 5.451 162.619 5.32673C162.619 5.20878 162.728 5.14941 162.945 5.14941C163.088 5.14941 163.299 5.15891 163.579 5.17712C163.858 5.19532 164.066 5.20482 164.202 5.20482C164.327 5.20482 164.509 5.19849 164.752 5.18662C164.994 5.17474 165.174 5.16762 165.292 5.16762C165.391 5.16762 165.843 5.77159 166.647 6.97952C167.452 8.18746 167.872 8.79143 167.909 8.79143C168.033 8.71702 168.489 8.08376 169.279 6.89087C170.03 5.7423 170.462 5.16762 170.574 5.16762H172.791C173.008 5.16762 173.117 5.22066 173.117 5.32593V7.58903C173.117 7.75051 172.637 8.45501 171.678 9.70332C170.718 10.9516 170.239 11.6126 170.239 11.687C170.239 11.7923 170.661 12.4042 171.505 13.5218C172.499 14.8319 173.017 15.5182 173.061 15.5807C173.148 15.72 173.191 16.1926 173.191 16.9992Z" fill="#798393"/>
<path d="M81.8584 28.3128V22.8066H83.9418C84.3883 22.8066 84.7817 22.885 85.1212 23.0409C85.4608 23.1969 85.7426 23.4067 85.9659 23.6695C86.1891 23.9323 86.3577 24.2275 86.4717 24.5552C86.5857 24.8829 86.6426 25.2178 86.6426 25.5597C86.6426 25.9017 86.5857 26.2365 86.4717 26.5642C86.3577 26.8919 86.1891 27.1872 85.9659 27.45C85.7426 27.7128 85.4608 27.9226 85.1212 28.0785C84.7817 28.2344 84.3883 28.3128 83.9418 28.3128H81.8584ZM83.8896 23.8111H83.0038V27.2933H83.8896C84.2513 27.2933 84.5505 27.2094 84.7864 27.04C85.0223 26.8714 85.198 26.6529 85.3144 26.3853C85.4308 26.1178 85.4893 25.8399 85.4893 25.5518C85.4893 25.2645 85.4308 24.9874 85.3144 24.7222C85.198 24.4571 85.0215 24.2386 84.7864 24.0676C84.5505 23.8974 84.2521 23.8111 83.8896 23.8111Z" fill="#798393"/>
<path d="M87.6104 28.3128V22.8066H91.4051V23.804H88.7565V25.0389H91.0632V25.999H88.7565V27.3162H91.4423V28.3136H87.6104V28.3128Z" fill="#798393"/>
<path d="M92.5508 28.3128V22.8066H93.697V27.3154H96.3907V28.3128H92.5508Z" fill="#798393"/>
<path d="M97.499 28.3128V22.8066H98.6452V28.3128H97.499Z" fill="#798393"/>
<path d="M101.323 28.3128L99.4482 22.8066H100.654L102.09 27.1896L103.518 22.8066H104.724L102.849 28.3128H101.323Z" fill="#798393"/>
<path d="M105.527 28.3128V22.8066H109.322V23.804H106.674V25.0389H108.98V25.999H106.674V27.3162H109.359V28.3136H105.527V28.3128Z" fill="#798393"/>
<path d="M110.468 28.3128V22.8066H112.7C113.107 22.8066 113.455 22.8787 113.746 23.0227C114.036 23.1668 114.259 23.3647 114.415 23.618C114.571 23.8713 114.65 24.1634 114.65 24.4959C114.65 24.8584 114.558 25.1742 114.374 25.4442C114.191 25.7149 113.93 25.912 113.593 26.0355L114.791 28.312H113.518L112.425 26.1914H111.613V28.312H110.468V28.3128ZM112.685 23.7969H111.613V25.255H112.685C112.938 25.255 113.136 25.1853 113.28 25.0468C113.424 24.9083 113.496 24.7365 113.496 24.5331C113.496 24.3249 113.424 24.1499 113.28 24.0082C113.136 23.8673 112.938 23.7969 112.685 23.7969Z" fill="#798393"/>
<path d="M117.225 28.3128V26.4304L115.29 22.8066H116.548L117.798 25.255L119.048 22.8066H120.305L118.371 26.4304V28.3128H117.225Z" fill="#798393"/>
<path d="M125.536 28.3882C125.079 28.3882 124.681 28.3074 124.341 28.146C124.002 27.9845 123.717 27.7692 123.489 27.4985C123.261 27.2277 123.09 26.9246 122.976 26.5874C122.862 26.2502 122.805 25.905 122.805 25.5528C122.805 25.2053 122.862 24.8633 122.976 24.5261C123.09 24.1889 123.261 23.8849 123.489 23.6142C123.717 23.3443 124.002 23.1298 124.341 22.9707C124.681 22.8124 125.079 22.7324 125.536 22.7324C125.918 22.7324 126.244 22.7807 126.514 22.8773C126.785 22.9739 127.01 23.0981 127.191 23.2493C127.372 23.4005 127.518 23.562 127.63 23.733C127.742 23.9039 127.825 24.0654 127.879 24.2166C127.934 24.3678 127.978 24.5404 128.013 24.7335H126.875C126.84 24.5997 126.798 24.4842 126.748 24.3876C126.698 24.291 126.626 24.1952 126.529 24.101C126.432 24.0068 126.303 23.9261 126.142 23.8596C125.98 23.7923 125.781 23.7591 125.543 23.7591C125.201 23.7591 124.914 23.847 124.683 24.0235C124.453 24.2 124.279 24.424 124.162 24.6971C124.046 24.9702 123.987 25.2552 123.987 25.5528C123.987 25.8504 124.046 26.137 124.162 26.4124C124.279 26.6879 124.453 26.9135 124.683 27.0892C124.913 27.265 125.2 27.3536 125.543 27.3536C125.781 27.3536 125.98 27.3212 126.142 27.257C126.303 27.1929 126.432 27.1122 126.529 27.0148C126.626 26.9182 126.699 26.8217 126.748 26.7243C126.798 26.6277 126.84 26.5145 126.875 26.3855H128.013C127.978 26.5787 127.934 26.7512 127.879 26.9024C127.825 27.0536 127.742 27.2151 127.63 27.3861C127.518 27.557 127.372 27.7185 127.191 27.8697C127.01 28.0209 126.784 28.1452 126.514 28.2417C126.243 28.3391 125.917 28.3882 125.536 28.3882Z" fill="#798393"/>
<path d="M131.555 28.3884C131.098 28.3884 130.697 28.3076 130.349 28.1462C130.002 27.9847 129.71 27.7694 129.474 27.4986C129.239 27.2279 129.063 26.9248 128.946 26.5876C128.83 26.2503 128.771 25.9052 128.771 25.553C128.771 25.2007 128.83 24.8572 128.946 24.5223C129.063 24.1875 129.239 23.8859 129.474 23.6184C129.71 23.3508 130.002 23.1363 130.349 22.9748C130.696 22.8133 131.098 22.7334 131.555 22.7334C132.016 22.7334 132.42 22.8141 132.767 22.9748C133.115 23.1363 133.405 23.3508 133.638 23.6184C133.871 23.8859 134.046 24.1875 134.163 24.5223C134.279 24.8572 134.338 25.2007 134.338 25.553C134.338 25.9052 134.279 26.2503 134.163 26.5876C134.047 26.9248 133.872 27.2287 133.638 27.4986C133.405 27.7694 133.115 27.9847 132.767 28.1462C132.421 28.3076 132.016 28.3884 131.555 28.3884ZM131.555 27.3538C131.902 27.3538 132.194 27.2667 132.432 27.0934C132.671 26.92 132.849 26.6952 132.968 26.4197C133.087 26.1443 133.147 25.8553 133.147 25.553C133.147 25.2506 133.088 24.9625 132.968 24.6902C132.85 24.4171 132.671 24.1938 132.432 24.0205C132.194 23.8471 131.901 23.7601 131.555 23.7601C131.207 23.7601 130.916 23.8471 130.681 24.0205C130.445 24.1938 130.268 24.4171 130.149 24.6902C130.03 24.9633 129.97 25.2506 129.97 25.553C129.97 25.8553 130.029 26.1443 130.149 26.4197C130.268 26.6952 130.445 26.9192 130.681 27.0934C130.916 27.2667 131.207 27.3538 131.555 27.3538Z" fill="#798393"/>
<path d="M135.306 28.3128V22.8066H136.853L138.111 25.6413L139.406 22.8066H140.901V28.3128H139.77V24.5623L138.639 27.0249H137.575L136.437 24.5473V28.312H135.306V28.3128Z" fill="#798393"/>
<path d="M142.076 28.3128V22.8066H144.346C144.797 22.8066 145.173 22.8961 145.473 23.0742C145.773 23.2531 145.998 23.4826 146.15 23.7621C146.301 24.0423 146.377 24.3336 146.377 24.6367C146.377 24.9494 146.301 25.2455 146.15 25.5257C145.998 25.8059 145.773 26.0355 145.473 26.2143C145.173 26.3932 144.797 26.4819 144.346 26.4819H143.222V28.312H142.076V28.3128ZM144.346 23.8111H143.222V25.4853H144.346C144.539 25.4853 144.7 25.4442 144.829 25.3626C144.958 25.2811 145.056 25.1766 145.123 25.0499C145.19 24.9233 145.223 24.7887 145.223 24.6447C145.223 24.5061 145.19 24.3716 145.123 24.2425C145.056 24.1135 144.958 24.009 144.829 23.9299C144.7 23.8515 144.539 23.8111 144.346 23.8111Z" fill="#798393"/>
<path d="M146.443 28.3128L148.319 22.8066H149.844L151.719 28.3128H150.514L150.164 27.2339H148.006L147.649 28.3128H146.443ZM148.326 26.2373H149.844L149.085 23.9378L148.326 26.2373Z" fill="#798393"/>
<path d="M152.612 28.3128V22.8066H153.661L156.035 26.3188V22.8066H157.173V28.3128H156.109L153.751 24.8972V28.3128H152.612Z" fill="#798393"/>
<path d="M159.941 28.3128V26.4304L158.007 22.8066H159.265L160.515 25.255L161.764 22.8066H163.022L161.088 26.4304V28.3128H159.941Z" fill="#798393"/>
</g>
<defs>
<clipPath id="clip0_303_199123">
<rect width="173.022" height="32" fill="white" transform="translate(0.168945 0.742188)"/>
</clipPath>
</defs>
</svg>
