<svg width="15" height="13" viewBox="0 0 15 13" fill="none" xmlns="http://www.w3.org/2000/svg">
<path d="M14.8935 2.15412C14.5346 2.71238 14.0561 3.21083 13.4579 3.64947V4.00836C13.4579 6.10185 12.7003 8.00593 11.185 9.7206C9.68964 11.4153 7.69584 12.2627 5.20358 12.2627C3.60854 12.2627 2.13313 11.8241 0.777344 10.9468C1.09635 10.9867 1.32564 11.0066 1.46521 11.0066C2.80105 11.0066 3.99733 10.5879 5.05405 9.7505C4.43597 9.73057 3.87771 9.54116 3.37926 9.18227C2.8808 8.80345 2.54186 8.32494 2.36242 7.74673C2.60167 7.78661 2.78111 7.80655 2.90074 7.80655C3.10012 7.80655 3.35932 7.76667 3.67833 7.68692C3.02037 7.54735 2.46211 7.21838 2.00353 6.69999C1.5649 6.16166 1.34558 5.54358 1.34558 4.84575V4.81585C1.78421 5.0551 2.22285 5.17473 2.66149 5.17473C1.80415 4.61646 1.37548 3.80898 1.37548 2.75226C1.37548 2.25381 1.50508 1.7753 1.76428 1.31672C3.2995 3.21083 5.28334 4.2177 7.71577 4.33733C7.6759 4.19777 7.65596 3.97845 7.65596 3.67938C7.65596 2.86192 7.93509 2.17406 8.49336 1.61579C9.05162 1.05753 9.73948 0.778396 10.5569 0.778396C11.3744 0.778396 12.0722 1.08744 12.6504 1.70551C13.2486 1.60582 13.8667 1.36657 14.5047 0.987745C14.3053 1.68558 13.8766 2.2239 13.2187 2.60272C13.8367 2.54291 14.395 2.39338 14.8935 2.15412Z" fill="#1C3F39"/>
</svg>
