<svg width="14" height="10" viewBox="0 0 14 10" fill="none" xmlns="http://www.w3.org/2000/svg">
<g clip-path="url(#clip0_303_199065)">
<path d="M13.8799 4.69635L9.68062 0.151095C9.5907 0.0547445 9.46631 0 9.33367 0H6.53337C6.34978 0 6.18268 0.105109 6.107 0.269343C6.03206 0.433577 6.06278 0.625547 6.18643 0.758394L10.1055 5L6.18643 9.24088C6.06353 9.37445 6.03131 9.56642 6.107 9.72993C6.18268 9.89416 6.34978 10 6.53337 10H9.33292C9.46556 10 9.5907 9.94452 9.67987 9.85036L13.8799 5.30511C14.0396 5.13212 14.0396 4.86788 13.8799 4.69635Z" fill="#07847F"/>
<path d="M7.81429 4.69635L3.61421 0.151095C3.52504 0.0547445 3.3999 0 3.26727 0H0.466966C0.283377 0 0.116273 0.105109 0.0405893 0.269343C-0.0343452 0.433577 -0.00362204 0.625547 0.12002 0.758394L4.03909 5L0.12002 9.24088C-0.0028727 9.37445 -0.0350945 9.56642 0.0405893 9.72993C0.116273 9.89416 0.283377 10 0.466966 10H3.26727C3.3999 10 3.52504 9.94452 3.61421 9.85036L7.81429 5.30511C7.9739 5.13212 7.9739 4.86788 7.81429 4.69635Z" fill="#07847F"/>
</g>
<defs>
<clipPath id="clip0_303_199065">
<rect width="14" height="10" fill="white"/>
</clipPath>
</defs>
</svg>
