<svg width="130" height="130" viewBox="0 0 130 130" fill="none" xmlns="http://www.w3.org/2000/svg">
<g filter="url(#filter0_d_128_157216)">
<rect x="20" y="10" width="90" height="90" rx="15" fill="#FF7D44"/>
</g>
<g clip-path="url(#clip0_128_157216)">
<path d="M46.9599 52.1458C46.582 52.148 46.2756 51.8426 46.2734 51.4658C46.2724 51.0889 46.5766 50.7814 46.9535 50.7793H46.961C47.3379 50.7793 47.6443 51.0846 47.6443 51.4626C47.6421 51.8394 47.3368 52.1458 46.9599 52.1458Z" fill="white"/>
<path d="M80.5456 39.5725C76.462 35.7025 70.9552 33.6976 65.3394 34.0371C63.2554 34.1758 61.2024 34.62 59.2476 35.3534C57.2949 36.0932 55.4714 37.1374 53.8443 38.4462C50.5507 41.049 48.1261 44.5913 46.8898 48.6033C46.8386 48.7806 46.8599 48.9717 46.9507 49.1329C47.0404 49.2941 47.1909 49.4137 47.3681 49.4628C47.7236 49.5631 48.0941 49.3571 48.1966 49.0016C49.3518 45.2554 51.6173 41.948 54.6931 39.517C57.7593 37.0754 61.5035 35.6385 65.4163 35.4014C70.6509 35.1036 75.7787 36.9687 79.6008 40.5579C83.4229 44.1483 85.603 49.1489 85.6329 54.3919C85.6862 59.4918 83.6908 64.4006 80.094 68.0165C76.4983 71.6336 71.6011 73.6567 66.501 73.6332H48.0514L51.9034 68.497C52.2845 67.9888 52.2632 67.2842 51.8511 66.8005C48.8873 63.2753 47.2955 58.7989 47.3692 54.1944C47.3724 54.0129 47.303 53.8378 47.177 53.7075C47.051 53.5773 46.8781 53.5026 46.6966 53.5004C46.3208 53.4983 46.0112 53.7972 46.0026 54.1741C45.9236 59.1085 47.6318 63.9042 50.8112 67.6792L46.9603 72.8143C46.6496 73.2285 46.5994 73.7826 46.8311 74.246C47.0628 74.7093 47.5357 75.0008 48.0535 75.0008H66.5021C74.9075 75.0008 82.4599 69.8699 85.5581 62.0572C88.6532 54.2435 86.6674 45.3312 80.5456 39.5725Z" fill="white"/>
<path d="M66.5002 71.583C66.6593 71.583 66.813 71.5275 66.9347 71.4272C67.4194 71.0289 78.7992 61.5209 78.7992 49.7186C78.7992 42.9266 73.2935 37.4199 66.5002 37.4199C59.7069 37.4199 54.2012 42.9266 54.2012 49.7186C54.2012 61.5209 65.581 71.0289 66.0657 71.4272C66.1885 71.5286 66.3422 71.5841 66.5002 71.583ZM55.5688 49.7186C55.5688 43.6814 60.4628 38.7864 66.5013 38.7864C72.5398 38.7864 77.4338 43.6803 77.4338 49.7186C77.4338 59.6078 68.5842 68.1261 66.5013 69.9934C64.4173 68.1261 55.5688 59.6078 55.5688 49.7186Z" fill="white"/>
<path d="M72.6506 49.7197C72.6506 46.3236 69.8972 43.5703 66.5011 43.5703C63.105 43.5703 60.3516 46.3236 60.3516 49.7197C60.3516 53.1157 63.105 55.869 66.5011 55.869C69.8951 55.8658 72.6463 53.1146 72.6506 49.7197ZM61.7171 49.7197C61.7171 47.0784 63.8587 44.9368 66.5 44.9368C69.1413 44.9368 71.283 47.0784 71.283 49.7197C71.283 52.3609 69.1413 54.5025 66.5 54.5025C63.8598 54.5004 61.7203 52.3598 61.7171 49.7197Z" fill="white"/>
</g>
<defs>
<filter id="filter0_d_128_157216" x="0" y="0" width="130" height="130" filterUnits="userSpaceOnUse" color-interpolation-filters="sRGB">
<feFlood flood-opacity="0" result="BackgroundImageFix"/>
<feColorMatrix in="SourceAlpha" type="matrix" values="0 0 0 0 0 0 0 0 0 0 0 0 0 0 0 0 0 0 127 0" result="hardAlpha"/>
<feOffset dy="10"/>
<feGaussianBlur stdDeviation="10"/>
<feComposite in2="hardAlpha" operator="out"/>
<feColorMatrix type="matrix" values="0 0 0 0 0.53776 0 0 0 0 0.594056 0 0 0 0 0.729167 0 0 0 0.2 0"/>
<feBlend mode="normal" in2="BackgroundImageFix" result="effect1_dropShadow_128_157216"/>
<feBlend mode="normal" in="SourceGraphic" in2="effect1_dropShadow_128_157216" result="shape"/>
</filter>
<clipPath id="clip0_128_157216">
<rect width="41" height="41" fill="white" transform="translate(46 34)"/>
</clipPath>
</defs>
</svg>
