<svg width="1927" height="692" viewBox="0 0 1927 692" fill="none" xmlns="http://www.w3.org/2000/svg">
<g filter="url(#filter0_d_8_46)">
<circle cx="414" cy="253" r="32" fill="#E0E8F4"/>
</g>
<g filter="url(#filter1_d_8_46)">
<circle cx="320.5" cy="535.5" r="36.5" fill="#E0E8F4"/>
</g>
<g filter="url(#filter2_d_8_46)">
<circle cx="136.5" cy="364.5" r="44.5" fill="#E0E8F4"/>
</g>
<g filter="url(#filter3_d_8_46)">
<circle cx="1596.5" cy="501.5" r="44.5" fill="#E0E8F4"/>
</g>
<g filter="url(#filter4_d_8_46)">
<circle cx="1620" cy="316" r="38" fill="#E0E8F4"/>
</g>
<g filter="url(#filter5_d_8_46)">
<circle cx="1792.5" cy="399.5" r="34.5" fill="#E0E8F4"/>
</g>
<path d="M1082.69 300H1035.5V262.25C1035.5 241.429 1052.43 224.5 1073.25 224.5H1077.97C1085.81 224.5 1092.12 218.189 1092.12 210.344V182.031C1092.12 174.186 1085.81 167.875 1077.97 167.875H1073.25C1021.11 167.875 978.875 210.108 978.875 262.25V403.812C978.875 419.443 991.557 432.125 1007.19 432.125H1082.69C1098.32 432.125 1111 419.443 1111 403.812V328.312C1111 312.682 1098.32 300 1082.69 300ZM912.812 300H865.625V262.25C865.625 241.429 882.554 224.5 903.375 224.5H908.094C915.939 224.5 922.25 218.189 922.25 210.344V182.031C922.25 174.186 915.939 167.875 908.094 167.875H903.375C851.233 167.875 809 210.108 809 262.25V403.812C809 419.443 821.682 432.125 837.312 432.125H912.812C928.443 432.125 941.125 419.443 941.125 403.812V328.312C941.125 312.682 928.443 300 912.812 300Z" fill="url(#paint0_linear_8_46)"/>
<defs>
<filter id="filter0_d_8_46" x="282" y="141" width="264" height="264" filterUnits="userSpaceOnUse" color-interpolation-filters="sRGB">
<feFlood flood-opacity="0" result="BackgroundImageFix"/>
<feColorMatrix in="SourceAlpha" type="matrix" values="0 0 0 0 0 0 0 0 0 0 0 0 0 0 0 0 0 0 127 0" result="hardAlpha"/>
<feOffset dy="20"/>
<feGaussianBlur stdDeviation="50"/>
<feComposite in2="hardAlpha" operator="out"/>
<feColorMatrix type="matrix" values="0 0 0 0 0.353872 0 0 0 0 0.363901 0 0 0 0 0.454167 0 0 0 0.25 0"/>
<feBlend mode="normal" in2="BackgroundImageFix" result="effect1_dropShadow_8_46"/>
<feBlend mode="normal" in="SourceGraphic" in2="effect1_dropShadow_8_46" result="shape"/>
</filter>
<filter id="filter1_d_8_46" x="184" y="419" width="273" height="273" filterUnits="userSpaceOnUse" color-interpolation-filters="sRGB">
<feFlood flood-opacity="0" result="BackgroundImageFix"/>
<feColorMatrix in="SourceAlpha" type="matrix" values="0 0 0 0 0 0 0 0 0 0 0 0 0 0 0 0 0 0 127 0" result="hardAlpha"/>
<feOffset dy="20"/>
<feGaussianBlur stdDeviation="50"/>
<feComposite in2="hardAlpha" operator="out"/>
<feColorMatrix type="matrix" values="0 0 0 0 0.353872 0 0 0 0 0.363901 0 0 0 0 0.454167 0 0 0 0.25 0"/>
<feBlend mode="normal" in2="BackgroundImageFix" result="effect1_dropShadow_8_46"/>
<feBlend mode="normal" in="SourceGraphic" in2="effect1_dropShadow_8_46" result="shape"/>
</filter>
<filter id="filter2_d_8_46" x="-8" y="240" width="289" height="289" filterUnits="userSpaceOnUse" color-interpolation-filters="sRGB">
<feFlood flood-opacity="0" result="BackgroundImageFix"/>
<feColorMatrix in="SourceAlpha" type="matrix" values="0 0 0 0 0 0 0 0 0 0 0 0 0 0 0 0 0 0 127 0" result="hardAlpha"/>
<feOffset dy="20"/>
<feGaussianBlur stdDeviation="50"/>
<feComposite in2="hardAlpha" operator="out"/>
<feColorMatrix type="matrix" values="0 0 0 0 0.353872 0 0 0 0 0.363901 0 0 0 0 0.454167 0 0 0 0.25 0"/>
<feBlend mode="normal" in2="BackgroundImageFix" result="effect1_dropShadow_8_46"/>
<feBlend mode="normal" in="SourceGraphic" in2="effect1_dropShadow_8_46" result="shape"/>
</filter>
<filter id="filter3_d_8_46" x="1452" y="377" width="289" height="289" filterUnits="userSpaceOnUse" color-interpolation-filters="sRGB">
<feFlood flood-opacity="0" result="BackgroundImageFix"/>
<feColorMatrix in="SourceAlpha" type="matrix" values="0 0 0 0 0 0 0 0 0 0 0 0 0 0 0 0 0 0 127 0" result="hardAlpha"/>
<feOffset dy="20"/>
<feGaussianBlur stdDeviation="50"/>
<feComposite in2="hardAlpha" operator="out"/>
<feColorMatrix type="matrix" values="0 0 0 0 0.353872 0 0 0 0 0.363901 0 0 0 0 0.454167 0 0 0 0.25 0"/>
<feBlend mode="normal" in2="BackgroundImageFix" result="effect1_dropShadow_8_46"/>
<feBlend mode="normal" in="SourceGraphic" in2="effect1_dropShadow_8_46" result="shape"/>
</filter>
<filter id="filter4_d_8_46" x="1482" y="198" width="276" height="276" filterUnits="userSpaceOnUse" color-interpolation-filters="sRGB">
<feFlood flood-opacity="0" result="BackgroundImageFix"/>
<feColorMatrix in="SourceAlpha" type="matrix" values="0 0 0 0 0 0 0 0 0 0 0 0 0 0 0 0 0 0 127 0" result="hardAlpha"/>
<feOffset dy="20"/>
<feGaussianBlur stdDeviation="50"/>
<feComposite in2="hardAlpha" operator="out"/>
<feColorMatrix type="matrix" values="0 0 0 0 0.353872 0 0 0 0 0.363901 0 0 0 0 0.454167 0 0 0 0.25 0"/>
<feBlend mode="normal" in2="BackgroundImageFix" result="effect1_dropShadow_8_46"/>
<feBlend mode="normal" in="SourceGraphic" in2="effect1_dropShadow_8_46" result="shape"/>
</filter>
<filter id="filter5_d_8_46" x="1658" y="285" width="269" height="269" filterUnits="userSpaceOnUse" color-interpolation-filters="sRGB">
<feFlood flood-opacity="0" result="BackgroundImageFix"/>
<feColorMatrix in="SourceAlpha" type="matrix" values="0 0 0 0 0 0 0 0 0 0 0 0 0 0 0 0 0 0 127 0" result="hardAlpha"/>
<feOffset dy="20"/>
<feGaussianBlur stdDeviation="50"/>
<feComposite in2="hardAlpha" operator="out"/>
<feColorMatrix type="matrix" values="0 0 0 0 0.353872 0 0 0 0 0.363901 0 0 0 0 0.454167 0 0 0 0.25 0"/>
<feBlend mode="normal" in2="BackgroundImageFix" result="effect1_dropShadow_8_46"/>
<feBlend mode="normal" in="SourceGraphic" in2="effect1_dropShadow_8_46" result="shape"/>
</filter>
<linearGradient id="paint0_linear_8_46" x1="960" y1="167.875" x2="960" y2="432.125" gradientUnits="userSpaceOnUse">
<stop stop-color="#E4F3F3"/>
<stop offset="1" stop-color="white" stop-opacity="0"/>
</linearGradient>
</defs>
</svg>
