<svg width="61" height="61" viewBox="0 0 61 61" fill="none" xmlns="http://www.w3.org/2000/svg">
<path d="M59.5703 29.4973L47.8833 22.7499C46.7224 17.6508 43.8635 13.0224 39.7983 9.67858C35.5638 6.19563 30.207 4.27734 24.7145 4.27734C11.6124 4.27734 0.953125 14.9367 0.953125 28.0389C0.953125 41.141 11.6124 51.8002 24.7145 51.8002C29.7139 51.8002 34.47 50.2748 38.5116 47.384L46.5604 52.0308C46.7079 52.116 46.8724 52.1585 47.037 52.1585C47.2015 52.1585 47.366 52.116 47.5135 52.0308L59.5703 45.07C59.8652 44.8998 60.0469 44.5852 60.0469 44.2446V30.3227C60.0469 29.9821 59.8652 29.6675 59.5703 29.4973ZM47.037 24.4623L49.411 25.8329L39.2604 31.6933L36.8865 30.3227L47.037 24.4623ZM40.2135 34.4447L41.8037 35.3628V38.6438L40.2135 37.7257V34.4447ZM41.1665 32.7939L51.3171 26.9335L52.9074 27.8516L42.7569 33.712L41.1665 32.7939ZM35.9333 31.9735L38.3072 33.3441V38.276C38.3072 38.6165 38.4889 38.9312 38.7837 39.1014L42.2801 41.12C42.4276 41.2052 42.5922 41.2477 42.7567 41.2477C42.9212 41.2477 43.0858 41.2052 43.2333 41.12C43.5281 40.9498 43.7098 40.6353 43.7098 40.2946V36.4633L46.0837 37.8339V49.5547L35.9332 43.6943V31.9735H35.9333ZM47.037 36.1831L44.6631 34.8125L54.8135 28.9521L57.1875 30.3227L47.037 36.1831ZM45.9565 22.8851L34.8009 29.3257C34.2849 29.2829 33.8612 29.2008 33.4673 29.0668C31.1106 27.4877 31.7088 26.5459 32.6914 24.9985C33.2659 24.0936 33.91 23.079 33.5899 21.972C33.7234 21.7575 33.9938 21.4616 34.1695 21.3639C36.0721 21.9211 40.4634 22.022 41.3145 21.7888C42.3174 21.5137 43.1532 19.9478 43.0017 18.6272C42.8575 17.3708 41.8913 16.5861 40.4169 16.5283C40.2011 16.5198 39.8197 16.5553 39.0457 16.6294C38.2516 16.7054 36.3137 16.8914 35.4904 16.8406C35.2827 16.0077 35.1508 14.5282 35.7811 13.9518C36.5192 13.277 37.8727 12.8251 38.8609 12.4951C39.1986 12.3824 39.4861 12.2855 39.7341 12.189C42.7309 15.0205 44.9441 18.6988 45.9565 22.8851ZM12.171 10.1519C12.914 10.3859 13.4604 10.5812 13.913 10.7432C15.8549 11.4379 16.1115 11.4379 19.4048 10.7447C21.4472 10.315 21.872 10.6629 22.5147 11.19C23.1035 11.6726 23.8362 12.2733 25.3934 12.4952C26.3061 12.6252 26.5725 12.744 26.6354 12.8207C26.6615 12.8526 26.7842 13.0673 26.6282 14.1577C26.6083 14.2965 26.5912 14.4403 26.5741 14.5861C26.4616 15.5428 26.362 15.8234 26.111 15.8909C25.724 15.9951 25.2916 16.0847 24.8339 16.1795C23.735 16.4072 22.5986 16.6427 21.7863 17.15C21.5706 17.2846 21.3208 17.4125 21.0562 17.5478C19.9407 18.1186 18.4128 18.9002 17.9763 21.136C17.8838 21.6093 17.0547 21.7659 15.8935 21.9354C14.6794 22.1127 13.4239 22.2959 12.9279 23.3659C12.4635 24.3678 13.0391 25.4928 13.5125 26.2518L13.7528 26.6378C14.5836 27.9745 15.0006 28.6454 15.6287 29.0367C16.3515 29.4867 17.0829 29.4012 18.1904 29.2723C18.6069 29.2237 19.0783 29.1687 19.669 29.1213C20.4427 29.1475 25.5082 30.583 27.1768 32.4161C27.3727 32.6314 27.6018 32.9471 27.5803 33.229C27.4087 35.4904 26.3433 36.7473 25.2154 38.0781C24.1136 39.378 22.9742 40.722 22.7022 42.9218C22.4111 45.276 21.6154 46.3834 21.3177 46.4674C21.2312 46.4252 20.3306 45.8851 19.6371 41.9968C18.8673 37.6808 17.6214 36.527 16.1918 35.5572C15.2932 34.9477 14.6998 34.545 14.6637 31.3294C14.6369 28.9409 13.6534 28.0181 12.9352 27.3443C12.8295 27.2452 12.7297 27.1516 12.6421 27.0612C12.382 26.793 12.0069 26.5758 11.4878 26.275C9.83113 25.3154 6.78196 23.547 5.00891 18.5917C6.63959 15.2033 9.11998 12.298 12.171 10.1519ZM24.7145 49.8939C12.6636 49.8939 2.85938 40.0897 2.85938 28.0389C2.85938 25.6109 3.2579 23.2744 3.99204 21.0907C6.0477 25.324 9.00131 27.0378 10.532 27.9245C10.8234 28.0933 11.1861 28.3034 11.2736 28.3883C11.3926 28.511 11.5138 28.6247 11.6309 28.7345C12.226 29.2929 12.7399 29.775 12.7576 31.3509C12.8014 35.27 13.7221 36.1854 15.1217 37.1348C16.0792 37.7843 17.0693 38.456 17.7605 42.3315C18.0998 44.2342 18.5451 45.701 19.0836 46.6912C19.8361 48.0747 20.7028 48.3759 21.3143 48.3759C21.3311 48.3759 21.3476 48.3757 21.3641 48.3752C22.9392 48.333 24.2071 46.2844 24.5941 43.156C24.7964 41.5207 25.6644 40.4967 26.6695 39.3108C27.885 37.8768 29.2627 36.2515 29.4811 33.3734C29.5447 32.536 29.1842 31.7201 28.4099 30.9485C26.2366 28.7829 20.6343 27.131 19.5381 27.2194C18.903 27.2699 18.3854 27.3303 17.9695 27.3788C17.2611 27.4614 16.7931 27.516 16.6366 27.4185C16.3853 27.2621 15.9602 26.5781 15.3718 25.6315L15.13 25.243C14.7087 24.5676 14.6659 24.2604 14.6637 24.1739C14.8755 24.0105 15.6803 23.893 16.1689 23.8216C17.57 23.6171 19.4889 23.337 19.8473 21.5013C20.1063 20.175 20.9087 19.7646 21.9245 19.2449C22.2131 19.0972 22.5115 18.9445 22.7962 18.7667C23.3194 18.4399 24.286 18.2397 25.2209 18.0459C25.6853 17.9497 26.1657 17.8501 26.6065 17.7315C28.1733 17.3099 28.3574 15.744 28.4673 14.8085C28.4826 14.679 28.4975 14.5512 28.5152 14.4278C28.6849 13.2426 28.6811 12.3104 28.1108 11.6134C27.549 10.9268 26.632 10.7461 25.6623 10.608C24.6327 10.4613 24.2114 10.1158 23.7234 9.71587C22.6845 8.86414 21.7384 8.30561 19.0123 8.87939C16.0848 9.4957 16.0849 9.49582 14.5553 8.94837C14.4657 8.91632 14.37 8.88213 14.2688 8.84615C17.374 7.14923 20.9337 6.18371 24.7148 6.18371C29.6715 6.18371 34.3263 7.87658 38.0559 10.7544C36.9286 11.1326 35.4726 11.6512 34.495 12.5449C32.7874 14.1061 33.5458 17.1993 33.8424 17.9423C33.8532 17.9696 33.8654 17.9964 33.8788 18.0226C34.3124 18.8709 35.4082 18.8927 39.2275 18.5268C39.6867 18.4828 40.2064 18.433 40.3371 18.433C40.3389 18.433 40.3407 18.433 40.3423 18.4332C40.777 18.4502 41.0271 18.5527 41.086 18.7377C41.2038 19.108 40.9343 19.7485 40.7348 19.9615C39.9089 20.0659 36.0925 19.9858 34.6292 19.511C33.9172 19.2798 33.0994 19.6097 32.385 20.4163C31.9955 20.856 31.3931 21.704 31.736 22.4415C31.8717 22.7337 31.4704 23.3656 31.0824 23.9768C30.1087 25.5101 28.4793 28.0764 32.5162 30.7233C32.577 30.7631 32.6421 30.7959 32.7104 30.821C33.173 30.9908 33.6229 31.091 34.0273 31.1533V44.2447C34.0273 44.5852 34.209 44.8999 34.5038 45.0701L36.6824 46.3279C33.1262 48.665 29.0186 49.8939 24.7145 49.8939ZM47.9901 49.5547V37.8339L58.1406 31.9735V43.6943L47.9901 49.5547ZM48.223 19.8071C48.223 19.2807 48.6498 18.854 49.1761 18.854H56.3246L56.1207 18.6948C55.7059 18.3707 55.6321 17.7718 55.9562 17.357C56.2802 16.9421 56.8792 16.8685 57.294 17.1923L59.6804 19.0559C59.9117 19.2366 60.0469 19.5138 60.0469 19.8072C60.0469 20.1006 59.9117 20.3778 59.6804 20.5584L57.294 22.4221C57.1198 22.5583 56.9131 22.624 56.7081 22.624C56.4246 22.624 56.1442 22.4982 55.9562 22.2576C55.6322 21.8427 55.7059 21.2437 56.1207 20.9197L56.3248 20.7603H49.1762C48.6498 20.7602 48.223 20.3335 48.223 19.8071ZM58.2786 53.9073C58.2786 54.4336 57.8518 54.8604 57.3255 54.8604H39.5176L39.7215 55.0196C40.1363 55.3436 40.2101 55.9426 39.886 56.3574C39.6981 56.5981 39.4176 56.7239 39.1341 56.7239C38.929 56.7239 38.7224 56.658 38.5482 56.5221L36.1618 54.6585C35.9305 54.4777 35.7953 54.2006 35.7953 53.9072C35.7953 53.6137 35.9305 53.3366 36.1618 53.156L38.5482 51.2923C38.963 50.968 39.5621 51.0418 39.886 51.4568C40.21 51.8718 40.1363 52.4707 39.7215 52.7946L39.5174 52.954H57.3255C57.8519 52.9542 58.2786 53.3809 58.2786 53.9073Z" fill="#FF7D44"/>
</svg>
