<svg width="51" height="51" viewBox="0 0 51 51" fill="none" xmlns="http://www.w3.org/2000/svg">
<path d="M33.4746 3.98438C32.9248 3.98438 32.4785 4.43062 32.4785 4.98047C32.4785 5.53031 32.9248 5.97656 33.4746 5.97656C34.0245 5.97656 34.4707 5.53031 34.4707 4.98047C34.4707 4.43062 34.0245 3.98438 33.4746 3.98438Z" fill="#FF7D44"/>
<path d="M17.5371 3.98438C16.9873 3.98438 16.541 4.43062 16.541 4.98047C16.541 5.53031 16.9873 5.97656 17.5371 5.97656C18.087 5.97656 18.5332 5.53031 18.5332 4.98047C18.5332 4.43062 18.087 3.98438 17.5371 3.98438Z" fill="#FF7D44"/>
<path d="M46.7217 49.3151L40.1304 42.429C42.7933 42.3336 44.9305 40.1389 44.9305 37.4531V7.89603C44.9305 6.28665 44.368 4.71501 43.3464 3.47059C42.3241 2.22647 40.8919 1.36913 39.3142 1.05705C35.7789 0.355606 32.1593 0 28.5558 0H23.2934C19.8662 0 16.2963 0.328312 12.6838 1.05028C9.43607 1.70003 7.07891 4.57586 7.07891 7.88807V37.4531C7.07891 40.1615 9.25239 42.3703 11.9465 42.4307L5.28076 49.3108C5.00235 49.5981 4.92286 50.024 5.07895 50.3923C5.23484 50.7606 5.59612 51 5.99616 51H13.1182C13.4376 51 13.7375 50.8469 13.9249 50.5883L16.9464 46.418H35.1516L38.1732 50.5884C38.3605 50.8469 38.6606 51 38.9798 51H46.0023C46.4012 51 46.7616 50.7619 46.9183 50.3952C47.075 50.0282 46.9977 49.6034 46.7217 49.3151ZM9.0711 37.4531V7.88807C9.0711 5.52205 10.7548 3.4679 13.0744 3.00372C16.3259 2.35387 19.7618 1.99219 23.2933 1.99219H28.5557C32.0294 1.99219 35.5185 2.33494 38.9268 3.01109C40.0538 3.23412 41.0768 3.84652 41.8067 4.73493C42.5364 5.62375 42.9382 6.74634 42.9382 7.89594V37.4531C42.9382 39.1009 41.5976 40.4414 39.9499 40.4414H12.0593C10.4116 40.4414 9.0711 39.1009 9.0711 37.4531ZM12.6099 49.0078H8.34813L14.7175 42.4336H17.3732L12.6099 49.0078ZM18.3899 44.4258L19.8333 42.4336H32.2648L33.7082 44.4258H18.3899ZM39.4881 49.0078L34.725 42.4336H37.3771L43.6699 49.0078H39.4881Z" fill="#FF7D44"/>
<path d="M39.4512 7.96875H11.5605C11.0105 7.96875 10.5645 8.4148 10.5645 8.96484V25.5C10.5645 26.05 11.0105 26.4961 11.5605 26.4961H39.4512C40.0012 26.4961 40.4473 26.05 40.4473 25.5V8.96484C40.4473 8.4148 40.0012 7.96875 39.4512 7.96875ZM24.5098 24.5039H12.5566V9.96094H24.5098V24.5039ZM38.4551 24.5039H26.502V9.96094H38.4551V24.5039Z" fill="#FF7D44"/>
<path d="M29.4902 3.98438H21.5215C20.9714 3.98438 20.5254 4.43043 20.5254 4.98047C20.5254 5.53051 20.9714 5.97656 21.5215 5.97656H29.4902C30.0403 5.97656 30.4863 5.53051 30.4863 4.98047C30.4863 4.43043 30.0403 3.98438 29.4902 3.98438Z" fill="#FF7D44"/>
<path d="M36.4629 29.4844C34.2659 29.4844 32.4785 31.2718 32.4785 33.4688C32.4785 35.6657 34.2659 37.4531 36.4629 37.4531C38.6599 37.4531 40.4473 35.6657 40.4473 33.4688C40.4473 31.2718 38.6599 29.4844 36.4629 29.4844ZM36.4629 35.4609C35.3644 35.4609 34.4707 34.5672 34.4707 33.4688C34.4707 32.3703 35.3644 31.4766 36.4629 31.4766C37.5614 31.4766 38.4551 32.3703 38.4551 33.4688C38.4551 34.5672 37.5614 35.4609 36.4629 35.4609Z" fill="#FF7D44"/>
<path d="M14.5488 29.4844C12.3518 29.4844 10.5645 31.2718 10.5645 33.4688C10.5645 35.6657 12.3519 37.4531 14.5488 37.4531C16.7458 37.4531 18.5332 35.6657 18.5332 33.4688C18.5332 31.2718 16.7458 29.4844 14.5488 29.4844ZM14.5488 35.4609C13.4503 35.4609 12.5566 34.5672 12.5566 33.4688C12.5566 32.3703 13.4503 31.4766 14.5488 31.4766C15.6473 31.4766 16.541 32.3703 16.541 33.4688C16.541 34.5672 15.6473 35.4609 14.5488 35.4609Z" fill="#FF7D44"/>
<path d="M29.4902 30.4805H21.5215C20.9714 30.4805 20.5254 30.9265 20.5254 31.4766C20.5254 32.0266 20.9714 32.4727 21.5215 32.4727H29.4902C30.0403 32.4727 30.4863 32.0266 30.4863 31.4766C30.4863 30.9265 30.0404 30.4805 29.4902 30.4805Z" fill="#FF7D44"/>
<path d="M29.4902 34.4648H21.5215C20.9714 34.4648 20.5254 34.9109 20.5254 35.4609C20.5254 36.011 20.9714 36.457 21.5215 36.457H29.4902C30.0403 36.457 30.4863 36.011 30.4863 35.4609C30.4863 34.9109 30.0404 34.4648 29.4902 34.4648Z" fill="#FF7D44"/>
</svg>
