<svg width="52" height="38" viewBox="0 0 52 38" fill="none" xmlns="http://www.w3.org/2000/svg">
<path fill-rule="evenodd" clip-rule="evenodd" d="M17.5529 0.0758976C27.0196 0.0758976 34.6938 7.75031 34.6938 17.2169C34.6938 26.6834 27.0196 34.3579 17.5529 34.3579C8.08625 34.3579 0.412075 26.6834 0.412075 17.2169C0.412075 7.75031 8.08625 0.0758976 17.5529 0.0758976Z" fill="#FF7D44"/>
<path d="M23.784 14.7383C23.488 15.1988 23.0933 15.6099 22.5999 15.9717V16.2677C22.5999 17.9945 21.975 19.5651 20.7252 20.9794C19.4917 22.3772 17.8472 23.0762 15.7915 23.0762C14.4759 23.0762 13.2589 22.7144 12.1406 21.9908C12.4038 22.0237 12.5929 22.0401 12.708 22.0401C13.8098 22.0401 14.7966 21.6948 15.6682 21.004C15.1584 20.9876 14.6979 20.8314 14.2868 20.5353C13.8756 20.2229 13.596 19.8282 13.448 19.3513C13.6454 19.3842 13.7934 19.4006 13.8921 19.4006C14.0565 19.4006 14.2703 19.3677 14.5334 19.3019C13.9907 19.1868 13.5303 18.9155 13.152 18.4879C12.7902 18.0439 12.6093 17.534 12.6093 16.9585V16.9338C12.9711 17.1311 13.3329 17.2298 13.6947 17.2298C12.9876 16.7693 12.634 16.1033 12.634 15.2317C12.634 14.8205 12.7409 14.4259 12.9547 14.0476C14.221 15.6099 15.8573 16.4404 17.8636 16.5391C17.8308 16.424 17.8143 16.2431 17.8143 15.9964C17.8143 15.3221 18.0445 14.7548 18.505 14.2943C18.9655 13.8338 19.5329 13.6036 20.2071 13.6036C20.8814 13.6036 21.457 13.8585 21.9339 14.3683C22.4273 14.2861 22.9371 14.0887 23.4633 13.7763C23.2989 14.3519 22.9453 14.7959 22.4026 15.1083C22.9124 15.059 23.3729 14.9357 23.784 14.7383Z" fill="white"/>
</svg>
