<svg width="53" height="38" viewBox="0 0 53 38" fill="none" xmlns="http://www.w3.org/2000/svg">
<path fill-rule="evenodd" clip-rule="evenodd" d="M17.6604 1.0759C27.127 1.0759 34.8012 8.75031 34.8012 18.2169C34.8012 27.6834 27.127 35.3579 17.6604 35.3579C8.19371 35.3579 0.519428 27.6834 0.519428 18.2169C0.519428 8.75031 8.19371 1.0759 17.6604 1.0759Z" fill="#FF7D44"/>
<path d="M13.1782 13.3065C14.4187 12.0661 15.9128 11.4459 17.6608 11.4459C19.4087 11.4459 20.8935 12.0661 22.1151 13.3065C23.3556 14.5282 23.9758 16.013 23.9758 17.7609C23.9758 19.5088 23.3556 21.003 22.1151 22.2435C20.8935 23.4651 19.4087 24.076 17.6608 24.076C15.9128 24.076 14.4187 23.4651 13.1782 22.2435C11.9565 21.003 11.3457 19.5088 11.3457 17.7609C11.3457 16.013 11.9565 14.5282 13.1782 13.3065ZM17.6608 23.1738C19.1643 23.1738 20.4424 22.6476 21.4949 21.5951C22.5474 20.5426 23.0737 19.2645 23.0737 17.7609C23.0737 16.2573 22.5474 14.9793 21.4949 13.9268C20.4424 12.8743 19.1643 12.348 17.6608 12.348C16.1572 12.348 14.8791 12.8743 13.8266 13.9268C12.7741 14.9793 12.2479 16.2573 12.2479 17.7609C12.2479 19.2645 12.7741 20.5426 13.8266 21.5951C14.1649 21.9334 14.616 22.2529 15.1798 22.5536C15.1798 22.4972 15.1892 22.422 15.208 22.3281C15.2268 22.2341 15.2456 22.1589 15.2644 22.1025L16.082 18.6631C15.9316 18.3811 15.8565 18.0428 15.8565 17.6482C15.8565 17.1783 15.9786 16.793 16.223 16.4923C16.4673 16.1728 16.7586 16.013 17.0969 16.013C17.36 16.013 17.5668 16.107 17.7171 16.2949C17.8675 16.4829 17.9427 16.7084 17.9427 16.9715C17.9427 17.1407 17.9051 17.3474 17.8299 17.5918C17.7735 17.8361 17.689 18.118 17.5762 18.4375C17.4822 18.757 17.4164 19.0108 17.3788 19.1987C17.3037 19.537 17.36 19.8284 17.548 20.0727C17.7547 20.2982 18.0273 20.411 18.3656 20.411C18.9482 20.411 19.4275 20.0915 19.8034 19.4525C20.1793 18.7946 20.3672 17.9959 20.3672 17.0561C20.3672 16.3419 20.1323 15.7687 19.6624 15.3364C19.2113 14.8853 18.5723 14.6598 17.7453 14.6598C16.8244 14.6598 16.0726 14.9605 15.49 15.5619C14.9261 16.1446 14.6442 16.8494 14.6442 17.6763C14.6442 18.165 14.7852 18.5785 15.0671 18.9168C15.1611 19.0296 15.1892 19.1423 15.1517 19.2551C15.1329 19.2927 15.1047 19.3773 15.0671 19.5088C15.0295 19.6404 15.0107 19.725 15.0107 19.7626C14.9543 19.9317 14.8509 19.9881 14.7006 19.9317C13.836 19.5746 13.4037 18.7664 13.4037 17.5072C13.4037 16.5111 13.8078 15.6089 14.616 14.8007C15.4242 13.9738 16.5237 13.5603 17.9145 13.5603C19.0798 13.5603 20.0383 13.9268 20.7901 14.6598C21.5419 15.374 21.9178 16.2197 21.9178 17.1971C21.9178 18.4563 21.5983 19.49 20.9593 20.2982C20.339 21.1064 19.5214 21.5105 18.5065 21.5105C18.1682 21.5105 17.8487 21.4353 17.548 21.2849C17.2661 21.1346 17.0687 20.9466 16.956 20.7211C16.7304 21.6984 16.5895 22.2811 16.5331 22.469C16.4391 22.7509 16.3733 22.9295 16.3357 23.0047C16.768 23.1174 17.2097 23.1738 17.6608 23.1738Z" fill="white"/>
</svg>
