<svg width="115" height="99" viewBox="0 0 115 99" fill="none" xmlns="http://www.w3.org/2000/svg">
<g clip-path="url(#clip0_128_192852)">
<path d="M4.98416 32.4594C4.82422 31.6619 4.71759 30.4922 5.14411 30.4124C5.54397 30.3327 5.89051 31.1834 6.10377 32.1404C6.37035 33.3899 6.34369 34.3469 6.45032 36.3407C5.33071 34.4532 5.19742 33.5228 4.98416 32.4594Z" fill="#798393"/>
<path d="M7.35734 38.069C7.33069 37.3246 7.43732 36.2346 7.86384 36.2612C8.2637 36.2878 8.47696 37.1119 8.50361 38.0424C8.55693 39.2387 8.37033 40.0894 8.10375 41.8971C7.384 39.9299 7.384 39.0526 7.35734 38.069Z" fill="#798393"/>
<path d="M8.79578 41.7903C8.82244 40.9927 9.00904 39.8496 9.43556 39.8496C9.86208 39.8762 9.99537 40.7801 9.96871 41.7371C9.9154 43.0131 9.67548 43.917 9.30227 45.8577C8.68915 43.7841 8.74247 42.8536 8.79578 41.7903Z" fill="#798393"/>
<path d="M6.18428 36.8993C5.81108 36.2347 5.14464 35.384 4.7981 35.6233C4.45155 35.8626 4.71813 36.6601 5.19796 37.4576C5.78442 38.4944 6.39754 39.1324 7.57047 40.568C7.17061 38.4944 6.69077 37.75 6.18428 36.8993Z" fill="#798393"/>
<path d="M6.93143 40.8334C6.47825 40.1688 5.73185 39.2649 5.3853 39.5042C5.03875 39.7168 5.3853 40.5675 5.91845 41.3916C6.61154 42.455 7.30463 43.1196 8.61085 44.5818C8.0777 42.4816 7.51789 41.7107 6.93143 40.8334Z" fill="#798393"/>
<path d="M0.426518 43.0665C0.10663 42.3221 -0.213259 41.2056 0.186602 41.0461C0.559805 40.8866 1.0663 41.6309 1.46616 42.5348C1.97265 43.7045 2.13259 44.6615 2.61242 46.5756C1.17293 44.9274 0.826379 44.0501 0.426518 43.0665Z" fill="#798393"/>
<path d="M2.98497 46.7082C2.79837 45.9904 2.69174 44.9005 3.0916 44.8473C3.49146 44.7942 3.86466 45.5651 4.07792 46.4424C4.37115 47.5855 4.37115 48.4628 4.50444 50.2971C3.38483 48.516 3.22488 47.6653 2.98497 46.7082Z" fill="#798393"/>
<path d="M5.17223 50.0578C5.03894 49.2603 4.98562 48.0906 5.41214 48.0374C5.812 47.9577 6.13189 48.8084 6.31849 49.7654C6.53175 51.0149 6.47844 51.9719 6.5051 53.9391C5.46546 52.0251 5.35883 51.0946 5.17223 50.0578Z" fill="#798393"/>
<path d="M2.90496 48.729C2.37181 48.1973 1.49212 47.5327 1.22554 47.8517C0.95897 48.1707 1.4388 48.8885 2.07858 49.5265C2.93162 50.3772 3.67802 50.8292 5.17084 51.9191C4.26449 50.0316 3.62471 49.4468 2.90496 48.729Z" fill="#798393"/>
<path d="M4.66501 52.3445C4.07855 51.8128 3.11889 51.1482 2.82565 51.4407C2.55908 51.7597 3.09223 52.4774 3.81198 53.1155C4.74499 53.9662 5.59802 54.4447 7.25078 55.5081C6.18449 53.6472 5.43808 53.0623 4.66501 52.3445Z" fill="#798393"/>
<path d="M11.4627 52.5575C11.4094 52.5575 11.356 52.531 11.356 52.4778C10.7163 51.122 9.64997 49.9523 8.37041 49.1813C8.3171 49.1547 8.29044 49.0484 8.3171 48.9952C8.34376 48.9421 8.42373 48.9155 8.5037 48.9421C9.80991 49.7396 10.9029 50.9625 11.596 52.3449C11.6226 52.398 11.596 52.5044 11.5426 52.531C11.516 52.5575 11.4893 52.5575 11.4627 52.5575Z" fill="#798393"/>
<path d="M14.9292 60.3202C14.8759 60.3202 14.8226 60.2936 14.796 60.2404C14.2628 58.6188 14.0762 56.8908 14.2895 55.1894C14.2895 55.1097 14.3694 55.0565 14.4494 55.0831C14.5294 55.0831 14.5827 55.1628 14.556 55.2426C14.3428 56.8908 14.5027 58.5922 15.0359 60.1873C15.0625 60.267 15.0092 60.3202 14.9559 60.3468C14.9559 60.3202 14.9559 60.3202 14.9292 60.3202Z" fill="#798393"/>
<path d="M12.45 54.817C12.3967 54.817 12.3434 54.7904 12.3167 54.7106C11.8902 53.0624 11.9168 51.3344 12.3967 49.7128C12.4233 49.633 12.5033 49.6064 12.5566 49.633C12.6366 49.6596 12.6632 49.7394 12.6366 49.7925C12.1568 51.361 12.1301 53.0624 12.5566 54.6575C12.5833 54.7372 12.53 54.7904 12.45 54.817C12.4766 54.817 12.4766 54.817 12.45 54.817Z" fill="#798393"/>
<path d="M15.1144 60.6661C15.0611 60.6661 15.0344 60.6395 15.0078 60.5864C14.368 59.4166 13.1151 58.5394 11.8089 58.3001C11.7289 58.3001 11.6756 58.2204 11.7022 58.1406C11.7022 58.0608 11.7822 58.0077 11.8622 58.0343C13.275 58.2735 14.5812 59.204 15.2743 60.4534C15.301 60.5066 15.2743 60.5864 15.221 60.6395C15.1677 60.6661 15.1411 60.6661 15.1144 60.6661Z" fill="#798393"/>
<path d="M17.0349 63.7496C16.9816 63.7496 16.9283 63.723 16.9016 63.6698C16.3951 62.3938 16.1819 60.9848 16.2885 59.629C16.2885 59.5493 16.3418 59.4961 16.4218 59.4961C16.5018 59.4961 16.5551 59.5758 16.5551 59.629C16.4751 60.9582 16.6884 62.314 17.1682 63.5635C17.1949 63.6432 17.1682 63.6964 17.0882 63.723C17.0616 63.7496 17.0616 63.7496 17.0349 63.7496Z" fill="#798393"/>
<path d="M17.9143 65.1856C17.8877 65.1856 17.861 65.1856 17.8344 65.159L14.3956 62.8461C14.3422 62.793 14.3156 62.7132 14.3689 62.6601C14.4222 62.6069 14.5022 62.5803 14.5555 62.6335L17.9943 64.9463C18.0476 64.9995 18.0743 65.0792 18.021 65.1324C17.9943 65.1856 17.941 65.1856 17.9143 65.1856Z" fill="#798393"/>
<path d="M10.1034 59.629C10.0768 59.629 10.0501 59.629 10.0235 59.6024C9.09047 58.8847 7.9442 58.4061 6.74461 58.3264C6.66464 58.3264 6.61133 58.2466 6.61133 58.1935C6.61133 58.1137 6.66464 58.0605 6.74461 58.0605C7.97086 58.1669 9.1971 58.6454 10.1568 59.3898C10.2101 59.4429 10.2367 59.5227 10.1834 59.5759C10.1834 59.6024 10.1301 59.629 10.1034 59.629Z" fill="#798393"/>
<path d="M12.7689 63.1909C12.7423 63.1909 12.7156 63.1909 12.689 63.1643C11.9159 62.5528 10.9562 62.2338 9.99657 62.2073C9.9166 62.2073 9.86328 62.1541 9.86328 62.0743C9.86328 61.9946 9.9166 61.9414 9.99657 61.9414C11.0362 61.968 12.0492 62.3136 12.8489 62.9516C12.9022 63.0048 12.9289 63.0845 12.8756 63.1377C12.8223 63.1643 12.7956 63.1909 12.7689 63.1909Z" fill="#798393"/>
<path d="M18.9799 69.6513C18.9533 69.6513 18.9266 69.6513 18.9266 69.6247C17.9669 69.0664 16.874 68.7208 15.7544 68.6145C15.6744 68.6145 15.6211 68.5347 15.6211 68.4816C15.6211 68.4018 15.7011 68.3486 15.7544 68.3486C16.9006 68.455 18.0469 68.8006 19.0332 69.3854C19.0866 69.412 19.1132 69.4918 19.0866 69.5715C19.0599 69.6247 19.0332 69.6513 18.9799 69.6513Z" fill="#798393"/>
<path d="M6.26404 35.2245C6.26404 35.2245 6.8505 37.2715 7.7302 40.3021C8.66321 43.3327 9.88945 47.4001 11.4089 51.3612C12.9017 55.3222 14.6345 59.177 16.2606 61.9152C17.0603 63.271 17.8067 64.3609 18.3932 65.0521C18.9796 65.7433 19.3262 66.1421 19.3262 66.1421L19.3528 66.1686C19.4595 66.275 19.4328 66.4611 19.3262 66.5408C19.2195 66.6472 19.0329 66.6206 18.953 66.5142C18.953 66.5142 18.6064 66.1155 17.9933 65.3711C17.3802 64.6533 16.6338 63.5368 15.8074 62.1544C14.981 60.772 14.128 59.1238 13.3016 57.2895C12.4486 55.4817 11.6755 53.5145 10.9291 51.5207C9.43627 47.533 8.13006 43.4922 7.33034 40.4084C6.4773 37.3512 6.05078 35.2511 6.05078 35.2511C6.05078 35.1979 6.07744 35.1182 6.15741 35.1182C6.18407 35.1182 6.23738 35.1713 6.26404 35.2245Z" fill="#798393"/>
<path d="M2.39892 45.8582C2.39892 45.8582 5.65112 53.0626 10.3961 59.3631C12.7153 62.5266 15.3811 65.4509 17.4603 67.551C18.4733 68.6144 19.3797 69.4385 20.0195 70.0234C20.6592 70.6082 21.0058 70.9538 21.0058 70.9538C21.1124 71.0602 21.1391 71.2197 21.0324 71.326C20.9258 71.4323 20.7659 71.4323 20.6592 71.3526C20.6592 71.3526 20.286 71.007 19.6463 70.4487C19.0065 69.8639 18.0735 69.0398 17.0338 67.9764C15.9675 66.9396 14.7946 65.6636 13.5684 64.2812C12.3688 62.8722 11.1159 61.3303 9.94296 59.7352C7.59711 56.5451 5.49118 53.1689 4.18496 50.5105C2.85209 47.8521 2.23897 45.9646 2.23897 45.9646C2.21232 45.9114 2.23897 45.8582 2.29229 45.8582C2.31895 45.8051 2.37226 45.8051 2.39892 45.8582Z" fill="#798393"/>
<path d="M15.3821 54.5239C15.3821 54.9492 15.0355 55.2948 14.609 55.2948C14.1825 55.2948 13.8359 54.9492 13.8359 54.5239C13.8359 54.0985 14.1825 53.7529 14.609 53.7529C15.0355 53.7529 15.3821 54.0985 15.3821 54.5239Z" fill="#798393"/>
<path d="M12.1028 57.9272C12.1028 58.3525 11.7562 58.6981 11.3297 58.6981C10.9032 58.6981 10.5566 58.3525 10.5566 57.9272C10.5566 57.5018 10.9032 57.1562 11.3297 57.1562C11.7562 57.1562 12.1028 57.5018 12.1028 57.9272Z" fill="#798393"/>
<path d="M10.3176 62.101C10.3176 62.5264 9.97107 62.872 9.54455 62.872C9.11803 62.872 8.77148 62.5264 8.77148 62.101C8.77148 61.6757 9.11803 61.3301 9.54455 61.3301C9.94441 61.3301 10.3176 61.6757 10.3176 62.101Z" fill="#798393"/>
<path d="M7.9972 49.4733C8.35054 49.4733 8.63698 49.1877 8.63698 48.8353C8.63698 48.4829 8.35054 48.1973 7.9972 48.1973C7.64386 48.1973 7.35742 48.4829 7.35742 48.8353C7.35742 49.1877 7.64386 49.4733 7.9972 49.4733Z" fill="#798393"/>
<path d="M12.6886 49.9782C13.0419 49.9782 13.3284 49.6925 13.3284 49.3402C13.3284 48.9878 13.0419 48.7021 12.6886 48.7021C12.3353 48.7021 12.0488 48.9878 12.0488 49.3402C12.0488 49.6925 12.3353 49.9782 12.6886 49.9782Z" fill="#798393"/>
<path d="M16.421 59.735C16.7744 59.735 17.0608 59.4494 17.0608 59.097C17.0608 58.7446 16.7744 58.459 16.421 58.459C16.0677 58.459 15.7812 58.7446 15.7812 59.097C15.7812 59.4494 16.0677 59.735 16.421 59.735Z" fill="#798393"/>
<path d="M6.42493 58.8044C6.77827 58.8044 7.06471 58.5187 7.06471 58.1663C7.06471 57.814 6.77827 57.5283 6.42493 57.5283C6.07159 57.5283 5.78516 57.814 5.78516 58.1663C5.78516 58.5187 6.07159 58.8044 6.42493 58.8044Z" fill="#798393"/>
<path d="M15.2218 69.1188C15.5751 69.1188 15.8616 68.8332 15.8616 68.4808C15.8616 68.1284 15.5751 67.8428 15.2218 67.8428C14.8685 67.8428 14.582 68.1284 14.582 68.4808C14.582 68.8332 14.8685 69.1188 15.2218 69.1188Z" fill="#798393"/>
<path d="M14.1554 63.111C14.5087 63.111 14.7952 62.8254 14.7952 62.473C14.7952 62.1206 14.5087 61.835 14.1554 61.835C13.8021 61.835 13.5156 62.1206 13.5156 62.473C13.5156 62.8254 13.8021 63.111 14.1554 63.111Z" fill="#798393"/>
<path d="M15.1401 82.2783C15.1401 82.2783 14.3403 82.8897 12.5543 83.2087C10.7683 83.5277 9.06218 83.6341 8.9289 83.2885C8.79561 82.9429 10.5817 81.9593 12.421 81.8529C14.2337 81.7466 15.1401 82.2783 15.1401 82.2783Z" fill="#798393"/>
<path d="M9.38314 67.4444C9.38314 67.4444 8.3435 66.9393 7.54378 65.5037C6.74406 64.0682 6.45083 62.606 6.74406 62.3934C7.06395 62.1807 8.47679 63.4567 9.08991 64.9986C9.67637 66.5139 9.38314 67.4444 9.38314 67.4444Z" fill="#798393"/>
<path d="M19.3518 77.9182C19.2452 77.0409 19.3252 76.1902 19.3252 76.1902C19.3252 76.1637 19.3518 76.1637 19.3518 76.1637C19.3785 76.1637 19.3785 76.1902 19.3785 76.1902C19.3785 76.1902 19.3518 77.0675 19.5118 77.8916C19.6451 78.7423 19.965 79.5399 19.965 79.5399C19.9916 79.593 19.9383 79.6196 19.9116 79.6462L20.7647 80.3906C20.7647 80.3906 20.738 79.0613 20.4181 77.3068C20.0716 75.313 19.2719 73.1862 18.8987 73.1065C18.5255 73.0267 17.8324 74.1698 17.9923 75.9776C18.0989 77.2802 18.8187 78.6626 18.8187 78.6626L19.6451 79.3804C19.5651 79.0879 19.4052 78.5297 19.3518 77.9182Z" fill="#798393"/>
<path d="M15.3801 73.4525C15.2468 71.6447 14.7936 69.6243 14.4737 69.4648C14.1805 69.3053 13.5141 70.1294 13.4874 71.7245C13.4607 72.8676 13.9406 74.25 13.9406 74.25L15.3801 76.1907C15.3801 76.1907 15.4867 75.0475 15.3801 73.4525ZM14.7936 75.1805C14.7136 75.207 14.6603 75.1539 14.6337 75.1007C14.6337 75.1007 14.4204 74.25 14.3938 73.3727C14.3404 72.4954 14.5004 71.6447 14.5004 71.6447C14.5004 71.6182 14.527 71.6182 14.527 71.6182C14.5537 71.6182 14.5537 71.6447 14.5537 71.6447C14.5537 71.6447 14.4737 72.4954 14.5537 73.3461C14.6337 74.1968 14.9002 75.0209 14.9002 75.0209C14.9269 75.1007 14.8736 75.1805 14.7936 75.1805Z" fill="#798393"/>
<path d="M11.5157 65.2116C11.2224 65.0256 10.556 65.7699 10.4227 67.3118C10.3161 68.4283 10.6626 69.7841 10.6626 69.7841L11.1691 70.5817C11.1158 70.2892 11.0625 69.6778 11.0892 69.0398C11.1158 68.1625 11.3291 67.3118 11.3291 67.3118C11.3291 67.2852 11.3557 67.2852 11.3824 67.2852C11.409 67.2852 11.409 67.3118 11.409 67.3118C11.409 67.3118 11.2491 68.1625 11.2758 69.0132C11.2758 69.8639 11.489 70.7146 11.489 70.7146C11.5157 70.7943 11.4624 70.8475 11.3824 70.8741L11.9155 71.778C11.9155 71.778 12.0755 70.688 12.0755 69.1195C12.1021 67.3916 11.8089 65.3977 11.5157 65.2116Z" fill="#798393"/>
<path d="M11.0622 70.661C11.0622 70.661 9.88923 69.8103 8.7163 69.5179C7.11686 69.1191 5.99725 69.5444 6.0239 69.9166C6.05056 70.2888 7.86326 71.299 9.62265 71.9104C11.1688 72.4421 12.3684 72.6814 12.3684 72.6814L11.0622 70.661ZM11.3287 71.5383C11.3287 71.5383 10.5823 71.1395 9.75594 70.9002C8.92956 70.6344 8.07652 70.5812 8.07652 70.5812C8.04987 70.5812 8.04987 70.5547 8.04987 70.5547C8.04987 70.5281 8.07652 70.5281 8.07652 70.5281C8.07652 70.5281 8.95622 70.5546 9.80925 70.7673C10.6623 70.9534 11.462 71.3256 11.462 71.3256C11.542 71.3522 11.5686 71.4319 11.542 71.5117C11.4887 71.5383 11.4087 71.5649 11.3287 71.5383Z" fill="#798393"/>
<path d="M14.981 75.606C14.981 75.606 13.6214 74.968 12.3685 74.9148C10.6358 74.835 9.59617 75.4996 9.7028 75.8452C9.80943 76.1908 11.862 76.882 13.7814 77.1745C15.4608 77.4137 16.7404 77.4137 16.7404 77.4137L14.981 75.606ZM15.3808 76.4035C15.3808 76.4035 14.5811 76.1111 13.7281 76.0047C12.875 75.8718 12.022 75.9516 12.022 75.9516C11.9953 75.9516 11.9953 75.9516 11.9953 75.925C11.9953 75.8984 11.9953 75.8984 12.022 75.8984C12.022 75.8984 12.875 75.7921 13.7547 75.8718C14.6344 75.925 15.4875 76.1642 15.4875 76.1642C15.5674 76.1908 15.5941 76.244 15.5941 76.3238C15.5408 76.3769 15.4608 76.4301 15.3808 76.4035Z" fill="#798393"/>
<path d="M25.0842 81.0559C24.6044 79.7001 23.778 78.2912 23.4848 78.3178C23.1915 78.3443 22.845 79.2748 23.1649 80.5508C23.4048 81.4547 24.0712 82.3586 24.0712 82.3586L25.6707 83.2359C25.6973 83.2093 25.5374 82.2788 25.0842 81.0559ZM24.8176 82.5447C24.7643 82.5712 24.6844 82.5712 24.631 82.4915V82.4649C24.631 82.4649 24.4178 81.9598 24.2845 81.4281C24.1512 80.8964 24.0446 80.3913 24.0446 80.3913C24.0446 80.3647 24.0446 80.3647 24.0712 80.3647C24.0979 80.3647 24.0979 80.3647 24.0979 80.3913C24.0979 80.3913 24.2312 80.8964 24.4178 81.4015C24.5777 81.9066 24.8443 82.3586 24.8443 82.3586C24.8976 82.4383 24.871 82.5181 24.8176 82.5447Z" fill="#798393"/>
<path d="M26.2565 83.5277C26.2298 83.5543 26.2565 83.5808 26.2298 83.5808C26.2298 83.5808 26.2298 83.5808 26.2032 83.5808C26.2032 83.5808 25.5367 83.7403 24.897 84.0328C24.2572 84.3252 23.6974 84.724 23.6974 84.724C23.6707 84.724 23.6707 84.724 23.6441 84.724C23.6441 84.6974 23.6441 84.6974 23.6441 84.6708C23.6441 84.6708 24.1772 84.2189 24.817 83.8733C25.2169 83.634 25.6434 83.4745 25.8833 83.3948L25.0569 83.1289C25.0569 83.1289 23.6707 83.2884 22.7644 83.9264C21.4848 84.8037 21.1383 86.0532 21.4315 86.319C21.7247 86.6115 23.6174 86.1064 25.1635 85.2822C26.5231 84.5645 27.4028 83.8467 27.4028 83.8467L26.2565 83.5277Z" fill="#798393"/>
<path d="M19.2464 82.1982C19.2464 82.1982 17.8335 82.5704 16.8739 83.2616C15.541 84.2452 15.1678 85.3884 15.461 85.601C15.7543 85.8137 17.7003 85.0693 19.2997 84.1123C20.7125 83.2616 21.6456 82.4907 21.6456 82.4907L19.2464 82.1982ZM20.2327 82.5704C20.2327 82.5704 19.4596 82.7565 18.7666 83.1021C18.0468 83.4477 17.4337 83.9528 17.4337 83.9528C17.407 83.9794 17.3804 83.9528 17.3804 83.9528C17.3804 83.9262 17.3804 83.8996 17.3804 83.8996C17.3804 83.8996 17.9668 83.3414 18.6599 82.9426C19.353 82.5438 20.1261 82.3046 20.1261 82.3046C20.2061 82.278 20.2594 82.3312 20.286 82.3843C20.3393 82.4641 20.3127 82.5438 20.2327 82.5704Z" fill="#798393"/>
<path d="M17.5931 80.7899C16.2603 80.1253 14.5009 79.5936 14.1543 79.7266C13.8078 79.8861 13.8878 80.6836 14.9541 81.3748C15.7271 81.8799 17.06 82.1457 17.06 82.1457L19.5125 81.9596C19.5125 81.9331 18.7927 81.4014 17.5931 80.7899ZM17.7797 82.0394C17.7797 82.0394 17.3799 81.7204 16.9001 81.4545C16.4469 81.1887 15.967 80.9494 15.967 80.9494C15.9404 80.9494 15.9404 80.9229 15.9404 80.8963C15.9404 80.8697 15.967 80.8697 15.9937 80.8697C15.9937 80.8697 16.5002 81.0558 16.98 81.2684C17.4865 81.4811 17.9397 81.8001 17.9397 81.8001C17.993 81.8533 18.0197 81.9331 17.9663 81.9862C17.9397 82.0926 17.8597 82.0926 17.7797 82.0394C17.7797 82.066 17.7797 82.066 17.7797 82.0394Z" fill="#798393"/>
<path d="M42.7846 5.37003C39.959 6.69925 36.7334 8.21455 35.0273 10.8464C38.2795 10.4742 41.3985 9.25134 44.1708 7.52336C46.9432 5.79538 49.6089 3.16353 50.3553 0C48.5693 2.55209 45.6103 4.04082 42.7846 5.37003ZM44.9439 5.79538C44.9439 5.79538 44.5174 6.11439 43.7976 6.51316C43.0779 6.88534 42.1182 7.33727 41.1585 7.78921C39.2126 8.66649 37.3199 9.62352 37.3199 9.62352C37.2932 9.62352 37.2932 9.62352 37.2666 9.59694C37.2666 9.57035 37.2666 9.57035 37.2666 9.54377C37.2666 9.54377 37.6931 9.22476 38.4128 8.82599C39.1059 8.4804 40.0656 7.9753 41.0519 7.54995C42.0382 7.1246 43.0246 6.69925 43.7177 6.35365C44.4374 6.03464 44.8906 5.74221 44.8906 5.74221H44.9172C44.9439 5.7688 44.9439 5.7688 44.9439 5.79538Z" fill="#798393"/>
<path d="M35.9341 4.75859C34.1747 5.90172 32.3354 7.01826 31.2157 8.77282C30.0428 10.6071 29.8029 12.6541 30.0961 14.8075C31.1358 13.877 32.2554 12.7605 33.4017 12.0161C33.8282 9.72986 35.2677 8.00188 36.7072 6.19414C38.1467 4.38641 39.5862 2.68501 40.3326 0.478516C39.4795 2.33942 37.6668 3.61546 35.9341 4.75859ZM34.0414 7.57653C34.0414 7.57653 32.8685 8.66648 32.282 10.1286C31.6423 11.5642 31.6956 13.1592 31.6956 13.1592C31.7222 13.239 31.6423 13.2922 31.589 13.2922C31.509 13.2922 31.4557 13.239 31.4557 13.1592V13.1327C31.4557 13.1327 31.429 11.4844 32.1221 10.0489C32.7619 8.56015 33.9881 7.49678 33.9881 7.49678C34.0148 7.47019 34.0414 7.47019 34.0414 7.49678C34.0681 7.54994 34.0414 7.57653 34.0414 7.57653Z" fill="#798393"/>
<path d="M23.8055 12.495C22.9258 15.9244 23.1924 19.5399 23.5123 23.0756L24.5786 21.2413C24.5519 21.2413 24.5519 21.2679 24.5252 21.2679C24.4453 21.2413 24.4186 21.1615 24.4453 21.1084C24.4453 21.1084 24.6319 20.5235 24.7652 19.5931C24.8985 18.6626 24.9784 17.4131 25.1117 16.1637C25.2183 14.9142 25.3783 13.6648 25.5649 12.7343C25.6982 11.8039 25.8581 11.219 25.8581 11.219C25.8581 11.1924 25.8848 11.1658 25.9114 11.1924C25.9381 11.1924 25.9381 11.219 25.9381 11.2456C25.9381 11.2456 25.7781 11.857 25.6449 12.7875C25.4849 13.7179 25.3783 14.9674 25.2983 16.2169C25.2183 17.4397 25.1384 18.6892 25.0051 19.6196C24.9251 20.2045 24.8185 20.6298 24.7652 20.8957L25.4849 19.6728C28.3639 14.223 25.9914 8.32131 28.4172 3.29688C26.5246 6.1414 24.6852 9.17201 23.8055 12.495Z" fill="#798393"/>
<path d="M36.3601 14.2228C33.6411 14.7013 31.8017 14.5418 29.3226 15.7913C27.3233 16.8015 25.8038 19.7257 24.6309 21.6398C25.9637 19.8055 28.1763 18.8485 30.3889 18.2902C32.5748 17.7319 34.9206 17.6256 37.0799 16.9344C40.2521 15.9242 42.3847 13.6113 43.8508 10.9795C41.9315 12.9467 39.0792 13.7443 36.3601 14.2228ZM37.4264 15.552C37.4264 15.552 36.8133 15.7913 35.8536 15.9508C34.894 16.1103 33.5877 16.2698 32.3348 16.5356C31.0553 16.8015 29.8024 17.0939 28.9227 17.4661C28.043 17.8117 27.4565 18.1307 27.4565 18.1307C27.4032 18.1573 27.3233 18.1307 27.2699 18.0775C27.2433 18.0243 27.2699 17.918 27.3233 17.8914C27.3233 17.8914 27.8831 17.5724 28.8161 17.2002C29.7224 16.8546 31.002 16.4824 32.2815 16.2964C33.5611 16.0837 34.8673 15.9773 35.827 15.8444C36.7866 15.7381 37.3998 15.5254 37.3998 15.5254C37.4264 15.5254 37.4264 15.5254 37.4264 15.552C37.4531 15.552 37.4531 15.5254 37.4264 15.552Z" fill="#798393"/>
<path d="M21.9659 17.8377C21.6993 16.8541 21.1129 15.9768 20.5264 15.1261C19.94 14.2754 19.3535 13.4247 19.0603 12.4411C18.767 11.4575 18.8203 10.3143 19.4335 9.49023C18.3672 10.3941 17.9673 11.8031 17.9406 13.1855C17.8873 14.5944 18.2605 15.9502 18.6604 17.306C19.0603 18.6352 19.5134 19.991 19.6467 21.3734C19.9133 24.0319 19.7 25.7864 21.0329 27.4878C21.0329 27.4878 21.1129 27.222 21.6194 26.3447C21.0062 23.5533 22.739 20.6025 21.9659 17.8377ZM21.1662 26.8498C21.0862 26.8764 21.0329 26.8232 21.0062 26.7435C21.0062 26.7435 20.8996 26.1586 20.873 25.2547C20.8463 24.3775 20.8996 23.2077 20.9529 22.038C21.0062 20.8683 20.9529 19.6986 20.793 18.8479C20.633 17.9972 20.3665 17.4655 20.3665 17.4655C20.3665 17.4389 20.3665 17.4389 20.3931 17.4124C20.4198 17.4124 20.4198 17.4124 20.4464 17.4389C20.4464 17.4389 20.7397 17.944 20.9529 18.8213C21.1129 19.672 21.2195 20.8683 21.2195 22.038C21.1928 23.2077 21.1662 24.3775 21.1662 25.2547C21.1662 26.132 21.2728 26.6903 21.2728 26.6903C21.2728 26.77 21.2462 26.8498 21.1662 26.8498Z" fill="#798393"/>
<path d="M27.2445 24.0053C24.9786 24.8826 22.5794 25.8662 21.1133 27.8069C21.1133 27.8335 21.0866 27.8335 21.0866 27.8601C21.2999 27.7271 21.5931 27.5676 21.9663 27.3815C22.7394 27.0094 23.779 26.6372 24.872 26.3448C25.9383 26.0523 27.0312 25.7599 27.8043 25.4675C28.5773 25.175 29.0039 24.8029 29.0039 24.8029C29.0305 24.8029 29.0305 24.8029 29.0572 24.8029C29.0572 24.8294 29.0572 24.8294 29.0572 24.856C29.0572 24.856 28.6307 25.2282 27.8576 25.5738C27.0845 25.9194 25.9916 26.2384 24.9519 26.584C23.8856 26.9296 22.846 27.2752 22.0996 27.6474C21.3532 27.993 20.9 28.312 20.9 28.312C20.8734 28.312 20.8734 28.312 20.8467 28.312C20.6068 28.7373 20.3935 29.1893 20.127 29.6678C21.0333 28.7639 22.2862 28.2322 23.5391 27.8866C24.792 27.5145 26.0716 27.2752 27.2711 26.8233C30.2034 25.6536 32.5493 23.1812 33.2957 20.124C31.9095 22.0913 29.5104 23.1281 27.2445 24.0053Z" fill="#798393"/>
<path d="M17.9129 36.7923C17.8329 36.8189 17.7796 36.7923 17.7263 36.7125C17.7263 36.7125 16.9532 35.0111 16.6067 33.1768C16.2335 31.3425 16.2335 29.5082 16.2335 29.5082C16.2335 29.4816 16.2601 29.455 16.2601 29.455C16.2868 29.455 16.3134 29.4816 16.3134 29.5082C16.3134 29.5082 16.3668 31.3691 16.8199 33.1502C17.1931 34.7985 17.8329 36.3404 17.9395 36.5796C17.9662 36.3669 18.0195 36.1543 18.0462 35.9416C18.1528 30.0399 16.7666 24.085 14.0742 18.8213C14.8206 21.0012 15.0605 23.0748 15.0605 25.3079C15.0339 27.5409 14.8739 29.774 15.3271 31.9539C15.7536 34.0807 16.7666 36.0479 17.7529 37.962C17.7796 37.5632 17.8596 37.1379 17.9662 36.7125C17.9395 36.7391 17.9395 36.7657 17.9129 36.7923Z" fill="#798393"/>
<path d="M22.2848 31.7682C19.9922 33.6291 18.4194 36.3673 17.9929 39.265C17.9663 39.5308 17.913 39.7701 17.8596 40.0359C18.0196 39.903 18.3395 39.5574 18.7127 39.0789C19.2192 38.4409 19.7523 37.4838 20.3121 36.5268C20.8453 35.5698 21.3784 34.5861 21.8849 33.895C22.3647 33.2038 22.8446 32.9379 22.8446 32.9379H22.8712V32.9645C22.8712 32.9645 22.3914 33.2835 21.9649 34.0013C21.5117 34.6925 21.0052 35.6761 20.5254 36.6597C20.0189 37.6433 19.4857 38.627 18.9526 39.2916C18.4461 39.9562 17.9663 40.3018 17.9663 40.3018C17.9396 40.3284 17.8863 40.3018 17.833 40.3018C17.753 40.86 17.6464 41.4449 17.5664 42.0298C19.1125 41.7107 20.3121 40.6208 21.1118 39.265C21.9382 37.9092 22.4447 36.4205 23.2178 35.0381C24.8439 32.1936 27.3763 30.0402 30.5219 29.0832C27.5629 28.9237 24.5773 29.9073 22.2848 31.7682Z" fill="#798393"/>
<path d="M16.7676 46.1769C16.341 42.2159 14.5816 38.4143 11.8359 35.5166C13.622 38.1484 13.8352 41.4715 14.2084 44.635C14.5816 47.7986 15.0348 51.0684 16.9275 53.6205C16.8475 51.1216 17.0341 48.6227 16.7676 46.1769ZM16.7409 50.2443C16.7142 50.2709 16.7142 50.2709 16.6876 50.2709L16.581 50.2975C16.2077 50.3507 15.7546 47.453 15.7013 47.0808C15.4613 45.4591 15.1681 43.8375 15.1681 43.8375C15.1681 43.8109 15.1681 43.8109 15.1948 43.8109C15.2214 43.8109 15.2214 43.8109 15.2214 43.8375C15.2214 43.8375 15.568 45.4326 15.8879 47.0542C16.341 49.3936 16.7942 50.2975 16.7409 50.0848C16.7942 50.1114 16.7942 50.1911 16.7409 50.2443Z" fill="#798393"/>
<path d="M19.7002 45.8848C17.6476 49.5534 18.7672 52.9828 17.8609 57.3958C17.8342 58.2199 17.8342 58.8579 17.9942 59.6821C17.9142 57.6882 18.5806 55.7476 19.407 53.9398C20.2334 52.1321 21.433 50.4573 22.1261 48.5964C23.4323 45.0607 23.9388 41.1262 25.0317 37.9893C23.4589 40.9667 21.1397 43.3327 19.7002 45.8848ZM20.26 49.3673C19.4337 51.4941 18.8205 53.7006 18.8205 53.7006L18.7939 53.7272L18.7672 53.7006C18.7672 53.7006 19.0338 51.3878 19.9135 49.261C20.7665 47.1077 22.1261 45.1936 22.1261 45.1936C22.1261 45.167 22.1527 45.167 22.1794 45.1936C22.1794 45.1936 22.206 45.2202 22.1794 45.2202C22.1794 45.2202 21.0598 47.2406 20.26 49.3673Z" fill="#798393"/>
<path d="M18.793 63.5628C18.793 63.5628 19.0062 64.4666 19.2728 65.5034C19.4061 65.0515 19.646 64.1742 19.8859 63.2969C20.2591 62.0475 20.6323 60.7714 20.6323 60.7714C20.6323 60.7448 20.659 60.7448 20.659 60.7448C20.6856 60.7448 20.6856 60.7714 20.6856 60.7714C20.6856 60.7714 20.4457 62.2335 20.1258 63.5096C19.8059 64.7856 19.4327 65.8756 19.4327 65.8756C19.4327 65.9022 19.3794 65.9022 19.3794 65.9022C19.6193 66.8592 19.9126 67.8694 20.1258 68.4543C22.2584 64.4135 21.6453 56.9167 23.6446 53.7266C20.579 55.6406 19.3794 59.5219 18.793 63.5628Z" fill="#798393"/>
<path d="M24.8716 62.207C22.5524 65.4503 21.5127 69.5709 22.0725 73.5054C22.2858 74.9675 23.4321 76.0309 24.2051 77.3069C25.1381 74.9409 24.7383 72.2559 24.3917 69.7304C24.0452 67.2049 24.2318 64.2274 24.8716 62.207ZM23.4054 72.2027C23.4587 73.7978 23.2188 75.2599 23.2188 75.2599C23.2188 75.3397 23.1388 75.3929 23.0855 75.3929C23.0055 75.3929 22.9522 75.3131 22.9522 75.2333C22.9522 75.2333 23.0855 73.6649 23.1122 72.0698C23.1388 70.4748 23.2988 68.8797 23.2988 68.8797C23.2988 68.8531 23.3254 68.8531 23.3521 68.8531C23.3788 68.8531 23.3788 68.8797 23.3788 68.9063C23.4054 68.8797 23.3521 70.6077 23.4054 72.2027Z" fill="#798393"/>
<path d="M26.7114 81.0286C26.7114 81.0286 25.7517 80.1248 24.4988 78.3436C23.2193 76.5625 21.6198 73.8243 20.287 70.3151C19.6205 68.5606 18.9541 66.6465 18.4476 64.5464C17.9144 62.4728 17.4879 60.2397 17.1947 57.9269C16.8748 55.614 16.7149 53.1948 16.6349 50.7491C16.5549 48.3033 16.6349 45.8044 16.7948 43.3321C17.0348 40.8331 17.3813 38.3608 17.9144 35.9682C18.4742 33.5756 19.1673 31.2362 20.047 29.0829C20.8734 26.8764 21.9664 24.8826 23.0593 23.0216C24.1789 21.1873 25.3785 19.5391 26.5781 18.077C29.0039 15.2059 31.3764 13.1057 33.1358 11.8297C34.0155 11.1916 34.7353 10.7131 35.2684 10.4473C35.7749 10.1548 36.0415 9.99533 36.0415 9.99533C36.1481 9.94217 36.2547 9.96875 36.308 10.0751C36.3614 10.1548 36.3347 10.2878 36.2547 10.3409C36.2547 10.3409 35.2951 11.1119 33.589 12.4411C31.9362 13.7969 29.5637 15.7907 27.1912 18.6087C26.0183 20.0176 24.8454 21.6393 23.7524 23.447C22.6861 25.2547 21.6198 27.222 20.7934 29.3753C19.9137 31.502 19.2473 33.7883 18.6875 36.1543C18.1544 38.5203 17.8078 40.9395 17.5679 43.3852L17.3813 47.0805C17.3813 48.3033 17.408 49.5262 17.408 50.7225C17.4879 53.1683 17.6479 55.5609 17.9678 57.8471C18.261 60.1334 18.6875 62.3398 19.2207 64.3868C19.7271 66.4338 20.3669 68.3479 21.0067 70.0493C22.3396 73.4787 23.8857 76.1637 25.1386 77.8917C26.3915 79.6462 27.2445 80.4704 27.2445 80.4704C27.4045 80.6299 27.4045 80.8691 27.2712 81.0286C27.1112 81.1881 26.8713 81.1881 26.7114 81.0286Z" fill="#798393"/>
<path d="M9.2506 66.7802C10.077 68.8006 11.2232 70.6881 12.5561 72.416C13.2226 73.2933 13.9156 74.1174 14.6621 74.915C15.4085 75.7125 16.1815 76.4834 17.0079 77.2012C18.6607 78.6102 20.3934 79.966 22.3127 81.0294C23.2191 81.6142 24.2321 82.0661 25.2184 82.5712C26.2047 83.0498 27.2443 83.422 28.2307 83.8473L28.0174 84.3258C25.7249 83.289 23.1658 82.7308 20.6333 82.4915C19.3538 82.3852 18.0742 82.332 16.7946 82.332C15.5151 82.332 14.2355 82.4383 12.9293 82.5181C12.876 82.5181 12.8227 82.4915 12.8227 82.4383C12.8227 82.3852 12.8493 82.3586 12.9027 82.332C15.4618 81.8801 18.0742 81.7471 20.66 81.9598C23.2457 82.2257 25.8582 82.6776 28.2573 83.8473C28.3906 83.9005 28.4439 84.06 28.3906 84.1929C28.3373 84.3258 28.1774 84.379 28.0441 84.3258C27.0311 83.9005 25.9914 83.5017 24.9785 83.0232C23.9921 82.5181 22.9792 82.0661 22.0462 81.4547C20.1002 80.3647 18.3408 79.009 16.6614 77.5468C14.9819 76.0847 13.5158 74.4099 12.2096 72.6287C10.93 70.821 9.8104 68.9069 9.03734 66.8333C9.01068 66.7802 9.03734 66.7004 9.11731 66.6738C9.17063 66.7004 9.22394 66.727 9.2506 66.7802Z" fill="#798393"/>
<path d="M110.042 32.4594C110.202 31.6619 110.309 30.4922 109.882 30.4124C109.483 30.3327 109.136 31.1834 108.923 32.1404C108.656 33.3899 108.683 34.3469 108.576 36.3407C109.669 34.4532 109.829 33.5228 110.042 32.4594Z" fill="#798393"/>
<path d="M107.642 38.069C107.668 37.3246 107.562 36.2346 107.135 36.2612C106.735 36.2878 106.522 37.1119 106.495 38.0424C106.442 39.2387 106.629 40.0894 106.895 41.8971C107.642 39.9299 107.615 39.0526 107.642 38.069Z" fill="#798393"/>
<path d="M106.203 41.7903C106.176 40.9927 105.99 39.8496 105.563 39.8496C105.163 39.8762 105.004 40.7535 105.057 41.7371C105.11 43.0131 105.35 43.917 105.723 45.8577C106.336 43.7841 106.256 42.8536 106.203 41.7903Z" fill="#798393"/>
<path d="M108.816 36.8993C109.189 36.2347 109.856 35.384 110.202 35.6233C110.549 35.8626 110.282 36.6601 109.802 37.4576C109.216 38.4944 108.603 39.1324 107.43 40.568C107.856 38.4944 108.309 37.75 108.816 36.8993Z" fill="#798393"/>
<path d="M108.07 40.8334C108.523 40.1688 109.27 39.2649 109.616 39.5042C109.963 39.7168 109.616 40.5675 109.083 41.3916C108.39 42.455 107.697 43.1196 106.391 44.5818C106.95 42.4816 107.484 41.7107 108.07 40.8334Z" fill="#798393"/>
<path d="M114.6 43.0668C114.92 42.3225 115.24 41.2059 114.84 41.0464C114.467 40.8869 113.96 41.6579 113.56 42.5617C113.054 43.7314 112.894 44.6885 112.414 46.6026C113.854 44.9277 114.173 44.0505 114.6 43.0668Z" fill="#798393"/>
<path d="M112.014 46.7092C112.2 45.9914 112.307 44.9015 111.907 44.8483C111.507 44.7951 111.134 45.5661 110.921 46.4434C110.627 47.5865 110.627 48.4638 110.494 50.2981C111.614 48.5169 111.8 47.6662 112.014 46.7092Z" fill="#798393"/>
<path d="M109.829 50.0588C109.962 49.2613 110.016 48.0916 109.589 48.0384C109.189 47.9586 108.869 48.8093 108.683 49.7664C108.469 51.0158 108.523 51.9729 108.496 53.9401C109.536 52.026 109.669 51.0956 109.829 50.0588Z" fill="#798393"/>
<path d="M112.094 48.729C112.627 48.1973 113.507 47.5327 113.773 47.8517C114.04 48.1707 113.56 48.8885 112.92 49.5265C112.067 50.3772 111.321 50.8292 109.828 51.9191C110.734 50.0316 111.374 49.4468 112.094 48.729Z" fill="#798393"/>
<path d="M110.361 52.3445C110.948 51.8128 111.907 51.1482 112.201 51.4407C112.467 51.7597 111.934 52.4774 111.214 53.1155C110.281 53.9662 109.428 54.4447 107.775 55.5081C108.842 53.6472 109.561 53.0623 110.361 52.3445Z" fill="#798393"/>
<path d="M103.538 52.5575C103.592 52.5575 103.645 52.531 103.645 52.4778C104.285 51.122 105.351 49.9523 106.631 49.1813C106.684 49.1547 106.711 49.0484 106.684 48.9952C106.657 48.9421 106.577 48.9155 106.497 48.9421C105.191 49.7396 104.098 50.9625 103.405 52.3449C103.378 52.398 103.405 52.5044 103.458 52.531C103.512 52.5575 103.512 52.5575 103.538 52.5575Z" fill="#798393"/>
<path d="M100.073 60.3202C100.126 60.3202 100.179 60.2936 100.206 60.2404C100.739 58.6188 100.926 56.8908 100.712 55.1894C100.712 55.1097 100.633 55.0565 100.553 55.0831C100.473 55.0831 100.419 55.1628 100.446 55.2426C100.659 56.8908 100.499 58.5922 99.9661 60.1873C99.9394 60.267 99.9927 60.3202 100.046 60.3468C100.046 60.3202 100.073 60.3202 100.073 60.3202Z" fill="#798393"/>
<path d="M102.552 54.817C102.605 54.817 102.659 54.7904 102.685 54.7106C103.112 53.0624 103.085 51.3344 102.605 49.7128C102.579 49.633 102.499 49.6064 102.445 49.633C102.365 49.6596 102.339 49.7394 102.365 49.7925C102.845 51.361 102.872 53.0624 102.445 54.6575C102.419 54.7372 102.472 54.7904 102.552 54.817Z" fill="#798393"/>
<path d="M99.8852 60.6661C99.9386 60.6661 99.9652 60.6395 99.9919 60.5864C100.632 59.4166 101.885 58.5394 103.191 58.3001C103.271 58.3001 103.324 58.2204 103.297 58.1406C103.297 58.0608 103.217 58.0077 103.137 58.0343C101.725 58.2735 100.418 59.204 99.7253 60.4534C99.6986 60.5066 99.7253 60.5864 99.7786 60.6395C99.8586 60.6661 99.8852 60.6661 99.8852 60.6661Z" fill="#798393"/>
<path d="M97.9929 63.7496C98.0462 63.7496 98.0995 63.723 98.1262 63.6698C98.6327 62.3938 98.8459 60.9848 98.7393 59.629C98.7393 59.5493 98.686 59.4961 98.606 59.4961C98.526 59.4961 98.4727 59.5758 98.4727 59.629C98.5527 60.9582 98.3394 62.314 97.8596 63.5635C97.8329 63.6432 97.8596 63.6964 97.9396 63.723C97.9396 63.7496 97.9662 63.7496 97.9929 63.7496Z" fill="#798393"/>
<path d="M97.1123 65.1856C97.1389 65.1856 97.1656 65.1856 97.1922 65.159L100.631 62.8461C100.684 62.793 100.711 62.7132 100.658 62.6601C100.604 62.6069 100.524 62.5803 100.471 62.6335L97.0323 64.9463C96.979 64.9995 96.9523 65.0792 97.0056 65.1324C97.0323 65.1856 97.0589 65.1856 97.1123 65.1856Z" fill="#798393"/>
<path d="M104.923 59.629C104.95 59.629 104.977 59.629 105.003 59.6024C105.936 58.8847 107.083 58.4061 108.282 58.3264C108.362 58.3264 108.416 58.2466 108.416 58.1935C108.416 58.1137 108.362 58.0605 108.282 58.0605C107.056 58.1669 105.83 58.6454 104.87 59.3898C104.817 59.4429 104.79 59.5227 104.844 59.5759C104.844 59.6024 104.87 59.629 104.923 59.629Z" fill="#798393"/>
<path d="M102.259 63.1909C102.285 63.1909 102.312 63.1909 102.339 63.1643C103.112 62.5528 104.071 62.2338 105.031 62.2073C105.111 62.2073 105.164 62.1541 105.164 62.0743C105.164 61.9946 105.111 61.9414 105.031 61.9414C103.991 61.968 102.978 62.3136 102.179 62.9516C102.125 63.0048 102.099 63.0845 102.152 63.1377C102.179 63.1643 102.205 63.1909 102.259 63.1909Z" fill="#798393"/>
<path d="M96.0468 69.6513C96.0734 69.6513 96.1001 69.6513 96.1001 69.6247C97.0598 69.0664 98.1527 68.7208 99.2723 68.6145C99.3523 68.6145 99.4056 68.5347 99.4056 68.4816C99.4056 68.4018 99.3256 68.3486 99.2723 68.3486C98.1261 68.455 96.9798 68.8006 95.9935 69.3854C95.9401 69.412 95.9135 69.4918 95.9401 69.5715C95.9401 69.6247 95.9935 69.6513 96.0468 69.6513Z" fill="#798393"/>
<path d="M108.762 35.2245C108.762 35.2245 108.176 37.2715 107.296 40.3021C106.363 43.3327 105.137 47.4001 103.617 51.3612C102.124 55.3222 100.392 59.177 98.7656 61.9152C97.9659 63.271 97.2195 64.3609 96.633 65.0521C96.0466 65.7433 95.7 66.1421 95.7 66.1421L95.6733 66.1686C95.5667 66.275 95.5934 66.4611 95.7 66.5408C95.8066 66.6472 95.9932 66.6206 96.0732 66.5142C96.0732 66.5142 96.4198 66.1155 97.0329 65.3711C97.646 64.6533 98.3924 63.5368 99.2188 62.1544C100.045 60.772 100.898 59.1238 101.725 57.2895C102.578 55.4817 103.351 53.5145 104.097 51.5207C105.59 47.533 106.896 43.4922 107.696 40.4084C108.549 37.3512 108.975 35.2511 108.975 35.2511C109.002 35.1979 108.949 35.1182 108.869 35.1182C108.842 35.1182 108.762 35.1713 108.762 35.2245Z" fill="#798393"/>
<path d="M112.627 45.8582C112.627 45.8582 109.375 53.0626 104.63 59.3631C102.311 62.5266 99.645 65.4509 97.5658 67.551C96.5528 68.6144 95.6198 69.4385 95.0066 70.0234C94.3669 70.6082 94.0203 70.9538 94.0203 70.9538C93.9137 71.0602 93.887 71.2197 93.9937 71.326C94.1003 71.4323 94.2602 71.4323 94.3669 71.3526C94.3669 71.3526 94.7401 71.007 95.3798 70.4487C96.0196 69.8905 96.9526 69.0398 97.9923 67.9764C99.0586 66.9396 100.231 65.6636 101.458 64.2812C102.657 62.8722 103.91 61.3303 105.083 59.7352C107.429 56.5451 109.535 53.1689 110.841 50.5105C112.174 47.8521 112.787 45.9646 112.787 45.9646C112.814 45.9114 112.787 45.8582 112.734 45.8582C112.681 45.8051 112.627 45.8051 112.627 45.8582Z" fill="#798393"/>
<path d="M99.6191 54.5239C99.6191 54.9492 99.9657 55.2948 100.392 55.2948C100.819 55.2948 101.165 54.9492 101.165 54.5239C101.165 54.0985 100.819 53.7529 100.392 53.7529C99.9657 53.7529 99.6191 54.0985 99.6191 54.5239Z" fill="#798393"/>
<path d="M102.924 57.9272C102.924 58.3525 103.27 58.6981 103.697 58.6981C104.123 58.6981 104.47 58.3525 104.47 57.9272C104.47 57.5018 104.123 57.1562 103.697 57.1562C103.27 57.1562 102.924 57.5018 102.924 57.9272Z" fill="#798393"/>
<path d="M104.711 62.101C104.711 62.5264 105.057 62.872 105.484 62.872C105.911 62.872 106.257 62.5264 106.257 62.101C106.257 61.6757 105.911 61.3301 105.484 61.3301C105.057 61.3301 104.711 61.6757 104.711 62.101Z" fill="#798393"/>
<path d="M107.03 49.4733C107.384 49.4733 107.67 49.1877 107.67 48.8353C107.67 48.4829 107.384 48.1973 107.03 48.1973C106.677 48.1973 106.391 48.4829 106.391 48.8353C106.391 49.1877 106.677 49.4733 107.03 49.4733Z" fill="#798393"/>
<path d="M102.312 49.9782C102.665 49.9782 102.951 49.6925 102.951 49.3402C102.951 48.9878 102.665 48.7021 102.312 48.7021C101.958 48.7021 101.672 48.9878 101.672 49.3402C101.672 49.6925 101.958 49.9782 102.312 49.9782Z" fill="#798393"/>
<path d="M98.5792 59.735C98.9326 59.735 99.219 59.4494 99.219 59.097C99.219 58.7446 98.9326 58.459 98.5792 58.459C98.2259 58.459 97.9395 58.7446 97.9395 59.097C97.9395 59.4494 98.2259 59.735 98.5792 59.735Z" fill="#798393"/>
<path d="M108.603 58.8044C108.956 58.8044 109.242 58.5187 109.242 58.1663C109.242 57.814 108.956 57.5283 108.603 57.5283C108.249 57.5283 107.963 57.814 107.963 58.1663C107.963 58.5187 108.249 58.8044 108.603 58.8044Z" fill="#798393"/>
<path d="M99.7785 69.1188C100.132 69.1188 100.418 68.8332 100.418 68.4808C100.418 68.1284 100.132 67.8428 99.7785 67.8428C99.4251 67.8428 99.1387 68.1284 99.1387 68.4808C99.1387 68.8332 99.4251 69.1188 99.7785 69.1188Z" fill="#798393"/>
<path d="M100.232 62.473C100.232 62.8186 100.526 63.111 100.872 63.111C101.219 63.111 101.512 62.8186 101.512 62.473C101.512 62.1274 101.219 61.835 100.872 61.835C100.499 61.835 100.232 62.1274 100.232 62.473Z" fill="#798393"/>
<path d="M99.8848 82.2783C99.8848 82.2783 100.684 82.8897 102.471 83.2087C104.257 83.5277 105.963 83.6341 106.096 83.2885C106.229 82.9429 104.443 81.9593 102.604 81.8529C100.791 81.7466 99.8848 82.2783 99.8848 82.2783Z" fill="#798393"/>
<path d="M105.616 67.4444C105.616 67.4444 106.656 66.9393 107.456 65.5037C108.255 64.0682 108.549 62.606 108.255 62.3934C107.935 62.1807 106.523 63.4567 105.91 64.9986C105.323 66.5139 105.616 67.4444 105.616 67.4444Z" fill="#798393"/>
<path d="M95.6726 77.9182C95.7792 77.0409 95.6993 76.1902 95.6993 76.1902C95.6993 76.1637 95.6726 76.1637 95.6726 76.1637C95.6459 76.1637 95.646 76.1902 95.646 76.1902C95.646 76.1902 95.6726 77.0675 95.5127 77.8916C95.3794 78.7423 95.0595 79.5399 95.0595 79.5399C95.0328 79.593 95.0861 79.6196 95.1128 79.6462L94.2598 80.3906C94.2598 80.3906 94.2864 79.0613 94.6063 77.3068C94.9529 75.313 95.7526 73.1862 96.1258 73.1065C96.499 73.0267 97.1921 74.1698 97.0321 75.9776C96.9255 77.2802 96.2058 78.6626 96.2058 78.6626L95.3794 79.3804C95.4327 79.0879 95.5926 78.5297 95.6726 77.9182Z" fill="#798393"/>
<path d="M99.6176 76.1907L101.057 74.25C101.057 74.25 101.537 72.8676 101.51 71.7245C101.484 70.1294 100.844 69.3053 100.524 69.4648C100.231 69.6243 99.7509 71.6447 99.6176 73.4525C99.5376 75.0475 99.6176 76.1907 99.6176 76.1907ZM100.124 75.0209C100.124 75.0209 100.391 74.1968 100.471 73.3461C100.551 72.4954 100.471 71.6447 100.471 71.6447C100.471 71.6182 100.471 71.6182 100.497 71.6182C100.524 71.6182 100.524 71.6182 100.524 71.6447C100.524 71.6447 100.657 72.4954 100.631 73.3727C100.604 74.25 100.391 75.1007 100.391 75.1007C100.364 75.1805 100.284 75.207 100.231 75.1805C100.124 75.1805 100.097 75.1007 100.124 75.0209Z" fill="#798393"/>
<path d="M103.483 65.2116C103.776 65.0256 104.443 65.7699 104.576 67.3118C104.683 68.4283 104.336 69.7841 104.336 69.7841L103.83 70.5817C103.883 70.2892 103.936 69.6778 103.91 69.0398C103.883 68.1625 103.67 67.3118 103.67 67.3118C103.67 67.2852 103.643 67.2852 103.617 67.2852C103.59 67.2852 103.59 67.3118 103.59 67.3118C103.59 67.3118 103.75 68.1625 103.723 69.0132C103.723 69.8639 103.51 70.7146 103.51 70.7146C103.483 70.7943 103.537 70.8475 103.617 70.8741L103.083 71.778C103.083 71.778 102.923 70.688 102.923 69.1195C102.897 67.3916 103.217 65.3977 103.483 65.2116Z" fill="#798393"/>
<path d="M102.656 72.6554C102.656 72.6554 103.856 72.4427 105.402 71.8844C107.161 71.273 108.974 70.2362 109.001 69.8906C109.027 69.545 107.908 69.0931 106.308 69.4918C105.162 69.7843 103.962 70.635 103.962 70.635L102.656 72.6554ZM103.669 71.5388C103.589 71.5654 103.536 71.5388 103.483 71.4591C103.456 71.3793 103.483 71.3262 103.563 71.273C103.563 71.273 104.362 70.9008 105.215 70.7147C106.068 70.502 106.948 70.4755 106.948 70.4755C106.975 70.4755 106.975 70.4755 106.975 70.502C106.975 70.5286 106.975 70.5286 106.948 70.5286C106.948 70.5286 106.095 70.6084 105.269 70.8476C104.442 71.1401 103.696 71.5388 103.669 71.5388Z" fill="#798393"/>
<path d="M98.3125 77.4136C98.3125 77.4136 99.5654 77.4136 101.245 77.1744C103.137 76.9085 105.217 76.2173 105.323 75.8451C105.43 75.473 104.364 74.8084 102.658 74.9147C101.431 74.9679 100.045 75.6059 100.045 75.6059L98.3125 77.4136ZM99.6187 76.4034C99.5387 76.43 99.4854 76.3768 99.4588 76.2971C99.4321 76.2173 99.4854 76.1642 99.5654 76.1376C99.5654 76.1376 100.418 75.8983 101.298 75.8451C102.178 75.7654 103.031 75.8717 103.031 75.8717C103.058 75.8717 103.058 75.8983 103.058 75.8983C103.058 75.9249 103.031 75.9249 103.031 75.9249C103.031 75.9249 102.178 75.8717 101.325 75.9781C100.445 76.111 99.6454 76.4034 99.6187 76.4034Z" fill="#798393"/>
<path d="M89.3027 83.2085L90.9022 82.3312C90.9022 82.3312 91.5953 81.4539 91.8085 80.5235C92.1284 79.2474 91.7819 78.2904 91.4886 78.2904C91.1954 78.2638 90.3957 79.6728 89.8892 81.0286C89.4893 82.2781 89.3027 83.2085 89.3027 83.2085ZM90.1558 82.3578C90.1558 82.3578 90.3957 81.9059 90.5823 81.4008C90.7689 80.8957 90.9022 80.3906 90.9022 80.3906C90.9022 80.364 90.9288 80.364 90.9288 80.364C90.9555 80.364 90.9555 80.3906 90.9555 80.3906C90.9555 80.3906 90.8489 80.9223 90.7156 81.4274C90.5823 81.959 90.369 82.4641 90.369 82.4641V82.4907C90.3424 82.5439 90.2357 82.5705 90.1824 82.5439C90.1291 82.5173 90.1291 82.4376 90.1558 82.3578Z" fill="#798393"/>
<path d="M88.742 83.5277C88.7686 83.5543 88.742 83.5808 88.7686 83.5808C88.7686 83.5808 88.7686 83.5808 88.7953 83.5808C88.7953 83.5808 89.4617 83.7403 90.1015 84.0328C90.7413 84.3252 91.3011 84.724 91.3011 84.724C91.3277 84.724 91.3277 84.724 91.3544 84.724C91.3544 84.6974 91.3544 84.6974 91.3544 84.6708C91.3544 84.6708 90.8213 84.2189 90.1815 83.8733C89.7816 83.634 89.3551 83.4745 89.1152 83.3948L89.9416 83.1289C89.9416 83.1289 91.3277 83.2884 92.2341 83.9264C93.5136 84.8037 93.8602 86.0532 93.567 86.319C93.2737 86.6115 91.3811 86.1064 89.8349 85.2822C88.4754 84.5645 87.5957 83.8467 87.5957 83.8467L88.742 83.5277Z" fill="#798393"/>
<path d="M93.3809 82.4907C93.3809 82.4907 94.3139 83.2616 95.7267 84.1123C97.2995 85.0693 99.2721 85.8137 99.5654 85.601C99.8586 85.3884 99.4854 84.2452 98.1525 83.2616C97.1929 82.5438 95.78 82.1982 95.78 82.1982L93.3809 82.4907ZM94.767 82.5704C94.6871 82.5438 94.6604 82.4641 94.6871 82.4109C94.7137 82.3312 94.7937 82.3046 94.847 82.3312C94.847 82.3312 95.6201 82.5704 96.3132 82.9692C97.0063 83.3679 97.5927 83.9262 97.5927 83.9262C97.6194 83.9528 97.6194 83.9528 97.5927 83.9794C97.5661 84.006 97.5661 84.006 97.5394 83.9794C97.5394 83.9794 96.9263 83.4743 96.2065 83.1287C95.5401 82.7565 94.7937 82.5704 94.767 82.5704Z" fill="#798393"/>
<path d="M95.5137 81.9325L97.9661 82.1186C97.9661 82.1186 99.2724 81.8527 100.045 81.3476C101.112 80.6564 101.192 79.8323 100.845 79.6994C100.499 79.5399 98.7392 80.0716 97.4063 80.7628C96.2334 81.4008 95.5137 81.9325 95.5137 81.9325ZM97.2197 82.0654C97.1664 82.1186 97.0865 82.092 97.0331 82.0388C96.9798 81.9856 97.0065 81.9059 97.0598 81.8527C97.0598 81.8527 97.513 81.5337 98.0195 81.321C98.4993 81.1084 99.0058 80.9223 99.0058 80.9223C99.0324 80.9223 99.0324 80.9223 99.0591 80.9488C99.0591 80.9754 99.0591 80.9754 99.0324 81.002C99.0324 81.002 98.5526 81.2413 98.0994 81.5071C97.6463 81.7198 97.2464 82.0388 97.2197 82.0654Z" fill="#798393"/>
<path d="M64.6445 0C65.3909 3.16353 68.0567 5.79538 70.829 7.52336C73.6014 9.25134 76.7203 10.4742 79.9725 10.8464C78.2665 8.21455 75.0676 6.69925 72.2152 5.37003C69.3895 4.04082 66.4572 2.55209 64.6445 0ZM70.0826 5.74221C70.0826 5.74221 70.1093 5.71563 70.1093 5.74221C70.1093 5.74221 70.5625 6.03464 71.2822 6.35365C72.002 6.69925 72.9883 7.1246 73.948 7.54995C74.9343 7.9753 75.8673 8.4804 76.587 8.85258C77.3068 9.25134 77.7333 9.57035 77.7333 9.57035C77.7333 9.57035 77.76 9.59694 77.7333 9.62352C77.7333 9.65011 77.7067 9.65011 77.68 9.65011C77.68 9.65011 75.7873 8.66649 73.8413 7.81579C72.8817 7.36386 71.922 6.91192 71.2022 6.53974C70.4825 6.16756 70.056 5.82197 70.056 5.82197C70.0826 5.7688 70.056 5.7688 70.0826 5.74221Z" fill="#798393"/>
<path d="M74.668 0.452148C75.4144 2.65865 76.8539 4.36004 78.2934 6.16778C79.7329 8.00209 81.1724 9.70349 81.5989 11.9897C82.7452 12.7607 83.8648 13.8772 84.9044 14.7811C85.2243 12.6278 84.9844 10.5808 83.7848 8.74645C82.6652 6.99189 80.7992 5.87535 79.0664 4.73222C77.3337 3.61568 75.5477 2.33963 74.668 0.452148ZM80.9858 7.52358C81.0124 7.49699 81.0391 7.49699 81.0391 7.52358C81.0391 7.52358 82.2653 8.58695 82.9051 10.0757C83.5982 11.5378 83.5715 13.1595 83.5715 13.1595V13.186C83.5715 13.2392 83.5182 13.2924 83.4382 13.2924C83.3583 13.2924 83.305 13.2392 83.305 13.1595C83.305 13.1595 83.3583 11.591 82.7185 10.1288C82.1587 8.6667 80.9591 7.57674 80.9591 7.57674C80.9591 7.57674 80.9591 7.55016 80.9858 7.52358Z" fill="#798393"/>
<path d="M91.1944 12.495C92.1008 15.9244 91.8076 19.5399 91.5143 23.049L90.448 21.2147C90.4747 21.2147 90.4747 21.2413 90.4747 21.2413C90.5547 21.2147 90.5813 21.1615 90.5813 21.0818C90.5813 21.0818 90.3947 20.4969 90.2614 19.5665C90.1281 18.636 90.0482 17.3866 89.9149 16.1371C89.8083 14.8876 89.6483 13.6382 89.4884 12.7077C89.3018 11.7773 89.1418 11.1658 89.1418 11.1658C89.1418 11.1392 89.1152 11.1127 89.0885 11.1392C89.0618 11.1392 89.0619 11.1658 89.0619 11.1924C89.0619 11.1924 89.2218 11.8039 89.3551 12.7343C89.515 13.6648 89.6217 14.9142 89.7016 16.1637C89.7816 17.4131 89.8616 18.6626 89.9949 19.5931C90.0748 20.1779 90.1815 20.6033 90.2348 20.8691L89.5417 19.6728C86.6627 14.223 89.0352 8.32131 86.6094 3.29688C88.4754 6.1414 90.3414 9.17201 91.1944 12.495Z" fill="#798393"/>
<path d="M71.1758 10.9795C72.6153 13.5848 74.7745 15.9242 77.9468 16.9344C80.106 17.6256 82.4252 17.7053 84.6378 18.2902C86.8237 18.8485 89.0629 19.8055 90.3958 21.6398C89.2495 19.7257 87.7034 16.8015 85.7041 15.7913C83.2249 14.5418 81.3856 14.7279 78.6665 14.2228C75.9208 13.7443 73.0951 12.9467 71.1758 10.9795ZM77.5736 15.5254C77.5736 15.4988 77.6002 15.4988 77.6002 15.4988C77.6002 15.4988 78.2133 15.7115 79.173 15.8178C80.1327 15.9508 81.4389 16.0571 82.7184 16.2698C84.0246 16.4559 85.2775 16.828 86.1839 17.1736C87.1169 17.5458 87.6767 17.8648 87.6767 17.8648C87.73 17.8914 87.7833 17.9978 87.73 18.0509C87.7034 18.1041 87.6234 18.1307 87.5434 18.1041C87.5434 18.1041 86.957 17.7851 86.0773 17.4395C85.1709 17.0939 83.918 16.7749 82.6651 16.509C81.4122 16.2698 80.1327 16.1103 79.173 15.9508C78.2133 15.7913 77.6002 15.552 77.6002 15.552C77.5736 15.552 77.5736 15.5254 77.5736 15.5254Z" fill="#798393"/>
<path d="M93.3807 26.3455C93.8872 27.2227 93.9672 27.4886 93.9672 27.4886C95.3267 25.7872 95.0868 24.0326 95.3534 21.3742C95.4867 19.9918 95.9398 18.636 96.3397 17.3068C96.7396 15.9776 97.1128 14.5952 97.0595 13.2128C97.0328 11.8038 96.6329 10.4214 95.5666 9.51758C96.1798 10.3417 96.2331 11.4848 95.9398 12.4684C95.6466 13.4521 95.0601 14.3293 94.4737 15.1535C93.8872 16.0042 93.3274 16.8814 93.0342 17.8651C92.2878 20.6032 94.0205 23.5541 93.3807 26.3455ZM93.7539 26.691C93.7539 26.691 93.8606 26.1328 93.8606 25.2555C93.8339 24.3782 93.8339 23.2085 93.8072 22.0388C93.8072 20.8691 93.8872 19.6728 94.1005 18.8221C94.3137 17.9448 94.607 17.4397 94.607 17.4397C94.607 17.4131 94.6336 17.4131 94.6603 17.4131C94.6869 17.4131 94.6869 17.4397 94.6869 17.4663C94.6869 17.4663 94.4204 17.998 94.2604 18.8487C94.0738 19.6994 94.0472 20.8691 94.1005 22.0388C94.1538 23.2085 94.2071 24.3782 94.1805 25.2555C94.1805 26.1328 94.0472 26.7442 94.0472 26.7442C94.0205 26.824 93.9672 26.8771 93.8872 26.8506C93.7806 26.8506 93.7273 26.7708 93.7539 26.691Z" fill="#798393"/>
<path d="M87.7563 24.0053C90.0222 24.8826 92.4214 25.8662 93.8875 27.8069C93.8875 27.8335 93.9142 27.8335 93.9142 27.8601C93.7009 27.7271 93.4077 27.5676 93.0345 27.3815C92.2614 27.0094 91.2218 26.6372 90.1288 26.3448C89.0625 26.0523 87.9696 25.7599 87.1965 25.4675C86.4234 25.175 85.9969 24.8029 85.9969 24.8029C85.9703 24.8029 85.9703 24.8029 85.9436 24.8029C85.9436 24.8294 85.9436 24.8294 85.9436 24.856C85.9436 24.856 86.3701 25.2282 87.1432 25.5738C87.9162 25.9194 88.9825 26.2384 90.0488 26.584C91.1151 26.9296 92.1548 27.2752 92.9012 27.6474C93.6476 27.993 94.1008 28.312 94.1008 28.312C94.1274 28.312 94.1274 28.312 94.1541 28.312C94.394 28.7373 94.6073 29.1893 94.8738 29.6678C93.9675 28.7639 92.7146 28.2322 91.4617 27.8866C90.2088 27.5145 88.9292 27.2752 87.7297 26.8233C84.7973 25.6536 82.4515 23.1812 81.7051 20.124C83.0913 22.0913 85.4904 23.1281 87.7563 24.0053Z" fill="#798393"/>
<path d="M97.0863 36.7923C97.1662 36.8189 97.2196 36.7923 97.2729 36.7125C97.2729 36.7125 98.0459 35.0111 98.3925 33.1768C98.7657 31.3425 98.7657 29.5082 98.7657 29.5082C98.7657 29.4816 98.739 29.455 98.739 29.455C98.7124 29.455 98.6857 29.4816 98.6857 29.5082C98.6857 29.5082 98.6324 31.3691 98.1792 33.1502C97.806 34.7985 97.1662 36.3404 97.0596 36.5796C97.033 36.3669 96.9796 36.1543 96.953 35.9416C96.8464 30.0399 98.2325 24.085 100.925 18.8213C100.205 21.0278 99.9386 23.1014 99.9653 25.3344C99.9919 27.5675 100.152 29.8006 99.6987 31.9805C99.2722 34.1073 98.2592 36.0745 97.2729 37.9886C97.2462 37.5898 97.1662 37.1645 97.0596 36.7391C97.0863 36.7391 97.0596 36.7657 97.0863 36.7923Z" fill="#798393"/>
<path d="M92.7156 31.7682C95.0082 33.6291 96.581 36.3673 97.0075 39.265C97.0341 39.5308 97.0875 39.7701 97.1408 40.0359C96.9808 39.903 96.6609 39.5574 96.2877 39.0789C95.7812 38.4409 95.2481 37.4838 94.6883 36.5268C94.1551 35.5698 93.622 34.5861 93.1155 33.895C92.6357 33.2038 92.1558 32.9379 92.1558 32.9379H92.1292V32.9645C92.1292 32.9645 92.609 33.2835 93.0355 34.0013C93.4887 34.6925 93.9952 35.6761 94.475 36.6597C94.9815 37.6433 95.5147 38.627 96.0478 39.2916C96.5543 39.9562 97.0342 40.3018 97.0342 40.3018C97.0608 40.3284 97.1141 40.3018 97.1674 40.3018C97.2741 40.86 97.354 41.4449 97.434 42.0298C95.8879 41.7107 94.6883 40.6208 93.8886 39.265C93.0622 37.9092 92.5557 36.4205 91.7826 35.0381C90.1565 32.1936 87.6241 30.0402 84.4785 29.0832C87.4375 28.9237 90.4231 29.9073 92.7156 31.7682Z" fill="#798393"/>
<path d="M98.0996 53.5942C99.9923 51.0421 100.445 47.7456 100.819 44.6087C101.192 41.4717 101.405 38.1221 103.191 35.4902C100.445 38.3879 98.7127 42.1895 98.2596 46.1505C97.993 48.6229 98.1529 51.1218 98.0996 53.5942ZM98.2596 50.0584C98.2062 50.2711 98.6594 49.3672 99.1126 47.0278C99.4325 45.4328 99.779 43.8111 99.779 43.8111C99.779 43.7845 99.8057 43.7845 99.8057 43.7845C99.8323 43.7845 99.8323 43.8111 99.8323 43.8111C99.8323 43.8111 99.5391 45.4062 99.2992 47.0544C99.2459 47.4266 98.7927 50.3243 98.4195 50.2711L98.3129 50.2445C98.2862 50.2445 98.2596 50.2445 98.2596 50.2179C98.2329 50.1914 98.2329 50.1116 98.2596 50.0584Z" fill="#798393"/>
<path d="M89.9688 37.9893C91.0884 41.1262 91.5682 45.0607 92.8744 48.5964C93.5675 50.4573 94.7671 52.1321 95.5935 53.9398C96.4198 55.7476 97.0863 57.6882 97.0063 59.6821C97.1662 58.8579 97.1662 58.2465 97.1396 57.3958C96.2599 52.9828 97.3795 49.58 95.3002 45.8848C93.8874 43.3327 91.5415 40.9667 89.9688 37.9893ZM92.8478 45.2202C92.8478 45.1936 92.8478 45.1936 92.8478 45.1936C92.8744 45.1936 92.8744 45.1936 92.9011 45.1936C92.9011 45.1936 94.2606 47.1077 95.1136 49.261C96.02 51.3878 96.2599 53.7006 96.2599 53.7006C96.2599 53.7006 96.2599 53.7272 96.2332 53.7272C96.2332 53.7272 96.2066 53.7272 96.2066 53.7006C96.2066 53.7006 95.5935 51.4941 94.7671 49.3673C93.9407 47.2406 92.8478 45.2202 92.8478 45.2202Z" fill="#798393"/>
<path d="M96.2345 63.5628C96.2345 63.5628 96.0212 64.4666 95.7546 65.5034C95.6213 65.0515 95.3814 64.1742 95.1415 63.2969C94.7683 62.0475 94.3951 60.7714 94.3951 60.7714C94.3951 60.7448 94.3684 60.7448 94.3684 60.7448C94.3418 60.7448 94.3418 60.7714 94.3418 60.7714C94.3418 60.7714 94.5817 62.2335 94.9016 63.5096C95.2215 64.7856 95.5947 65.8756 95.5947 65.8756C95.5947 65.9022 95.648 65.9022 95.648 65.9022C95.4081 66.8592 95.1148 67.8694 94.9016 68.4543C92.769 64.4135 93.3821 56.9167 91.3828 53.7266C94.4218 55.6406 95.648 59.5219 96.2345 63.5628Z" fill="#798393"/>
<path d="M90.6087 69.7304C90.2622 72.2559 89.8623 74.9143 90.7953 77.3069C91.5684 76.0309 92.7147 74.9941 92.9279 73.5054C93.4877 69.5443 92.4481 65.4503 90.1289 62.207C90.7687 64.2274 90.9553 67.2049 90.6087 69.7304ZM91.6217 68.8797C91.6217 68.8531 91.6484 68.8265 91.6484 68.8265C91.675 68.8265 91.7017 68.8531 91.7017 68.8531C91.7017 68.8531 91.8883 70.4482 91.8883 72.0432C91.915 73.6383 92.0482 75.2068 92.0482 75.2068C92.0482 75.2865 91.9949 75.3397 91.9416 75.3663C91.8616 75.3663 91.8083 75.3131 91.8083 75.2333C91.8083 75.2333 91.5684 73.7712 91.6217 72.1762C91.6484 70.6077 91.6217 68.8797 91.6217 68.8797Z" fill="#798393"/>
<path d="M88.3171 81.0286C88.3171 81.0286 89.2767 80.1248 90.5296 78.3436C91.8092 76.5625 93.4086 73.8243 94.7415 70.3152C95.4079 68.5606 96.0744 66.6465 96.5809 64.5464C97.114 62.4728 97.5405 60.2397 97.8338 57.9269C98.1537 55.614 98.3136 53.1949 98.3936 50.7491C98.4735 48.3033 98.3936 45.8044 98.2336 43.3321C97.9937 40.8331 97.6472 38.3608 97.114 35.9682C96.5542 33.5756 95.8611 31.2362 94.9548 29.0829C94.1284 26.8764 93.0354 24.8826 91.9425 23.0216C90.8229 21.1873 89.6233 19.5391 88.4237 18.077C85.9979 15.2059 83.6254 13.1057 81.866 11.8297C80.9863 11.1916 80.2665 10.7131 79.7334 10.4473C79.2269 10.1548 78.9603 9.99533 78.9603 9.99533C78.8537 9.94217 78.7471 9.96875 78.6938 10.0751C78.6404 10.1548 78.6671 10.2878 78.7471 10.3409C78.7471 10.3409 79.7067 11.1119 81.4128 12.4411C83.0656 13.7969 85.4381 15.7907 87.8106 18.6087C88.9835 20.0176 90.1564 21.6393 91.2494 23.447C92.3157 25.2547 93.382 27.222 94.1817 29.3753C95.0614 31.502 95.7278 33.7883 96.2876 36.1543C96.8208 38.5203 97.1673 40.9395 97.4072 43.3852L97.5938 47.0805C97.5938 48.3033 97.5672 49.5262 97.5672 50.7225C97.4872 53.1417 97.3273 55.5343 97.0074 57.8205C96.7141 60.1068 96.2876 62.3133 95.7545 64.3603C95.248 66.4073 94.6082 68.3213 93.9684 70.0227C92.6356 73.4521 91.0894 76.1371 89.8365 77.8651C88.5836 79.6197 87.7306 80.4438 87.7306 80.4438C87.5707 80.6033 87.5707 80.8425 87.704 81.002C87.8906 81.1881 88.1571 81.1881 88.3171 81.0286Z" fill="#798393"/>
<path d="M105.75 66.7802C104.924 68.8006 103.778 70.6881 102.445 72.416C101.778 73.2933 101.085 74.1174 100.339 74.915C99.5924 75.7125 98.8194 76.4834 97.993 77.2012C96.3402 78.6102 94.6075 79.966 92.6882 81.0294C91.7818 81.6142 90.7688 82.0661 89.7825 82.5712C88.7962 83.0498 87.7565 83.422 86.7702 83.8473L86.9835 84.3258C89.276 83.289 91.8351 82.7308 94.3676 82.4915C95.6471 82.3852 96.9267 82.332 98.2062 82.332C99.4858 82.332 100.765 82.4383 102.072 82.5181C102.125 82.5181 102.178 82.4915 102.178 82.4383C102.178 82.3852 102.152 82.3586 102.098 82.332C99.5391 81.8801 96.9267 81.7471 94.3409 81.9598C91.7551 82.2257 89.1427 82.6776 86.7436 83.8473C86.6103 83.9005 86.557 84.06 86.6103 84.1929C86.6636 84.3258 86.8235 84.379 86.9568 84.3258C87.9698 83.9005 89.0094 83.5017 90.0224 83.0232C91.0087 82.5181 92.0217 82.0661 92.9547 81.4547C94.9007 80.3647 96.6601 79.009 98.3395 77.5468C100.019 76.0847 101.485 74.4099 102.791 72.6287C104.071 70.821 105.217 68.9069 105.964 66.8333C105.99 66.7802 105.964 66.7004 105.884 66.6738C105.857 66.7004 105.777 66.727 105.75 66.7802Z" fill="#798393"/>
<path d="M35.8275 91.7687C35.8009 91.7687 35.7476 91.7687 35.7209 91.7687C30.8959 90.4927 25.8843 88.5254 25.831 88.5254C25.6711 88.4723 25.5645 88.3128 25.5645 88.1533C25.5645 88.0735 25.5911 87.9672 25.6178 87.914L27.7504 84.0859L25.911 78.2639C25.8577 78.1044 25.911 77.9449 26.0176 77.8651C26.1243 77.7588 26.2842 77.7322 26.4441 77.7854C26.4975 77.812 32.7086 80.2311 37.9335 81.4274C38.0934 81.454 38.2267 81.6135 38.2534 81.773C38.28 81.9325 38.1734 82.092 38.0401 82.1718C37.1871 82.5971 36.2541 83.3681 36.2274 83.8466V91.4231C36.2274 91.556 36.1741 91.6624 36.0675 91.7421C35.9875 91.7421 35.9075 91.7687 35.8275 91.7687Z" fill="#798393"/>
<path d="M79.1985 91.7692C79.1185 91.7692 79.0385 91.7426 78.9585 91.6894C78.8519 91.6097 78.7986 91.5033 78.7986 91.3704V83.7939C78.7719 83.3153 77.8389 82.5444 76.9859 82.1191C76.8259 82.0393 76.746 81.8798 76.7726 81.7203C76.7993 81.5608 76.9059 81.4279 77.0925 81.3747C82.344 80.1784 88.5285 77.7592 88.5819 77.7326C88.7151 77.6795 88.8751 77.7061 89.0084 77.8124C89.115 77.9187 89.1683 78.0782 89.115 78.2112L87.2757 84.0331L89.4082 87.8613C89.4349 87.9144 89.4616 87.9942 89.4616 88.0474C89.4616 88.2069 89.3549 88.4195 89.195 88.4727C89.1417 88.4993 84.1301 90.4399 79.3051 91.716C79.2518 91.7692 79.2251 91.7692 79.1985 91.7692Z" fill="#798393"/>
<path d="M37.8535 85.6017C37.8002 85.6017 37.7202 85.5751 37.6669 85.5485C37.6136 85.5219 36.2807 84.8573 35.5343 84.0598C35.4543 83.98 35.5076 83.7142 35.5076 83.7142C35.5076 83.7142 35.561 83.2091 35.7476 82.9167C35.8542 82.7572 36.0941 82.5711 36.2541 82.4382C36.8672 81.9862 38.2534 81.5875 38.0668 81.4014C38.2 81.4811 38.2534 81.614 38.2534 81.747V85.1763C38.2534 85.3093 38.1734 85.4422 38.0668 85.5219C38.0134 85.6017 37.9335 85.6017 37.8535 85.6017Z" fill="#798393"/>
<path d="M76.9327 85.5483C76.8261 85.4686 76.7461 85.3356 76.7461 85.2027V81.7733C76.7461 81.6404 76.8261 81.5075 76.9327 81.4277C76.7461 81.6138 78.1056 82.0126 78.7454 82.4645C78.932 82.5974 79.1453 82.757 79.2519 82.943C79.4385 83.2089 79.4918 83.7406 79.4918 83.7406C79.4918 83.7406 79.5451 84.0064 79.4651 84.0862C78.7187 84.8837 77.3859 85.5483 77.3326 85.5749C77.2792 85.6015 77.2259 85.6281 77.146 85.6281C77.066 85.6015 76.986 85.6015 76.9327 85.5483Z" fill="#798393"/>
<path d="M57.9799 98.9997C48.7564 98.9997 38.2268 97.4047 35.5077 93.8424C35.4544 93.7626 35.4277 93.6829 35.4277 93.6031V83.7935C35.4277 83.5277 35.481 83.2352 35.7476 82.9428C35.8009 83.1289 36.0142 83.3948 36.1475 83.5543C38.2534 86.319 46.8104 88.2065 57.4201 88.2065C68.1364 88.2065 76.7467 86.3456 78.8526 83.5543C78.8526 83.5543 79.1192 83.1821 79.2258 82.8896C79.4924 83.1821 79.5724 83.4745 79.5724 83.7935V93.6031C79.5724 93.6829 79.5457 93.7626 79.4924 93.8424C76.6134 97.6439 66.4836 98.9997 57.9799 98.9997Z" fill="#798393"/>
<path d="M40.3066 93.7358C40.5465 93.8156 40.7598 93.8156 40.9464 93.7358C41.133 93.6561 41.2662 93.47 41.3729 93.2307C41.4262 93.0712 41.4262 92.9117 41.3462 92.7522C41.2662 92.5927 41.1863 92.4332 41.053 92.2737C40.9197 92.1142 40.7864 91.9547 40.6265 91.7686C40.4665 91.5825 40.3332 91.423 40.2266 91.2103C40.12 91.0242 40.04 90.8115 39.9867 90.5989C39.96 90.3862 39.9867 90.1469 40.0667 89.9077C40.12 89.7482 40.2 89.6152 40.3066 89.5089C40.4132 89.4026 40.5465 89.3228 40.7064 89.2697C40.8664 89.2165 41.053 89.1899 41.2662 89.2165C41.4795 89.2165 41.7194 89.2696 41.986 89.376C42.1193 89.4292 42.2526 89.5089 42.3592 89.5887C42.4658 89.6684 42.5458 89.7747 42.6258 89.8545C42.7057 89.9608 42.7857 90.0406 42.839 90.1469C42.8923 90.0938 42.9457 90.0672 42.999 90.0406C43.0523 90.014 43.1056 89.9874 43.1589 89.9608C43.2122 89.9343 43.2656 89.9343 43.3189 89.9077L43.4788 89.9608L43.0523 91.1571L42.8124 91.0774C42.839 90.8647 42.8124 90.652 42.7591 90.4394C42.7324 90.2799 42.6524 90.0938 42.5458 89.9343C42.4392 89.7748 42.2792 89.6418 42.066 89.5621C41.986 89.5355 41.906 89.5355 41.8261 89.5355C41.7461 89.5355 41.6661 89.5621 41.5861 89.6152C41.5062 89.6684 41.4528 89.7216 41.3729 89.7748C41.3196 89.8545 41.2662 89.9343 41.2129 90.0406C41.1596 90.2267 41.1596 90.3862 41.2129 90.5723C41.2662 90.7318 41.3729 90.9179 41.5062 91.0774C41.6394 91.2369 41.7727 91.423 41.9327 91.5825C42.0926 91.7686 42.2259 91.9281 42.3325 92.1142C42.4392 92.3003 42.5458 92.4863 42.5991 92.699C42.6524 92.9117 42.6258 93.1244 42.5458 93.3371C42.4925 93.4966 42.3859 93.6295 42.2792 93.7624C42.1459 93.8953 42.0127 93.9751 41.8261 94.0282C41.6394 94.0814 41.4262 94.108 41.1863 94.108C40.9464 94.0814 40.6798 94.0282 40.3866 93.9219C40.1999 93.8687 40.04 93.789 39.9334 93.6826C39.8001 93.6029 39.7201 93.4966 39.6401 93.4168C39.5602 93.3105 39.4802 93.2041 39.4269 93.0978C39.3736 93.151 39.3203 93.1775 39.2669 93.2041C39.2136 93.2307 39.1603 93.2573 39.107 93.2839C39.0537 93.3105 39.0004 93.3105 38.9471 93.3371L38.7871 93.2839L39.2136 92.0876L39.4535 92.1673C39.4535 92.4066 39.4535 92.6193 39.5069 92.8054C39.5335 92.8851 39.5602 92.9914 39.6135 93.0712C39.6401 93.151 39.6935 93.2307 39.7734 93.3105C39.8267 93.3902 39.9067 93.47 40.0133 93.5231C40.0933 93.6295 40.2 93.6826 40.3066 93.7358Z" fill="white"/>
<path d="M44.0391 90.1737L44.0657 90.0674L45.9317 90.4927L45.9051 90.5991H45.5052L44.5722 94.7462L44.9454 94.9323L44.9188 95.0386L43.0527 94.6133L43.0794 94.507H43.4793L44.4123 90.3598L44.0391 90.1737Z" fill="white"/>
<path d="M49.9831 91.3962L49.4766 91.1303V91.024L50.7295 91.1835V91.2898L50.1697 91.4227L49.5833 95.8357L49.3967 95.8092L46.7842 91.8215L46.3577 95.0116L46.8642 95.2775V95.3838L45.6113 95.2243V95.118L46.1711 94.985L46.7043 90.8911L46.2511 90.705V90.5986L46.9442 90.6784C47.0775 90.705 47.1841 90.7315 47.2907 90.7581C47.3974 90.8113 47.4773 90.8379 47.5307 90.8911C47.584 90.9442 47.6639 90.9974 47.6906 91.0771C47.7439 91.1303 47.7706 91.1835 47.7972 91.2367L49.5833 93.9748L49.9831 91.3962Z" fill="white"/>
<path d="M53.2096 91.2104C53.3696 91.2104 53.5029 91.2635 53.6361 91.3167C53.7694 91.3699 53.8761 91.423 53.956 91.4762C54.0627 91.556 54.1693 91.6091 54.2493 91.7155C54.2759 91.6623 54.3292 91.6091 54.3826 91.556C54.4359 91.5028 54.4625 91.4762 54.5158 91.4496C54.5692 91.423 54.5958 91.3965 54.6491 91.3699H54.8091L54.7291 92.6193L54.4625 92.5928C54.4092 92.3801 54.3292 92.1674 54.2226 92.0079C54.1426 91.8484 54.0093 91.7155 53.8761 91.5825C53.7161 91.4496 53.5295 91.3699 53.3163 91.3699C53.183 91.3699 53.0497 91.3965 52.9164 91.4496C52.7831 91.5028 52.6498 91.6357 52.5432 91.7952C52.4366 91.9547 52.3299 92.194 52.2766 92.4864C52.1966 92.7788 52.1433 93.1244 52.1167 93.5498C52.09 93.9751 52.1167 94.3473 52.1433 94.6397C52.1966 94.9322 52.25 95.1714 52.3566 95.3575C52.4632 95.5436 52.5699 95.6765 52.7298 95.7563C52.8631 95.836 53.023 95.8892 53.2096 95.8892C53.3696 95.8892 53.5295 95.8626 53.6628 95.8095C53.8227 95.7563 53.956 95.6499 54.0627 95.5436C54.196 95.4373 54.2759 95.3044 54.3559 95.1448C54.4359 94.9853 54.4625 94.8524 54.4892 94.6663H54.6491C54.6491 94.8524 54.5958 95.0385 54.5158 95.198C54.4359 95.3575 54.3026 95.517 54.1693 95.6234C54.036 95.7563 53.8494 95.836 53.6628 95.9158C53.4762 95.9955 53.2629 96.0221 53.0497 95.9955C52.7031 95.969 52.3832 95.9158 52.1167 95.7829C51.8501 95.6499 51.6102 95.4904 51.4236 95.2778C51.237 95.0651 51.1037 94.7992 51.0237 94.5068C50.9437 94.1878 50.8904 93.8422 50.9171 93.47C50.9437 93.0713 50.9971 92.7257 51.1303 92.4332C51.237 92.1408 51.3969 91.9016 51.6102 91.6889C51.7968 91.5028 52.0367 91.3433 52.3033 91.2635C52.6232 91.237 52.9164 91.1838 53.2096 91.2104Z" fill="white"/>
<path d="M57.6877 93.6566C57.7144 93.5768 57.7411 93.4705 57.7677 93.3907C57.7944 93.311 57.821 93.2312 57.8744 93.1781C57.9277 93.0983 57.9543 93.0451 58.0076 92.992H58.2209V94.4807H58.0076C57.9543 94.4275 57.9277 94.3478 57.8744 94.2946C57.8477 94.2414 57.7944 94.1617 57.7677 94.0819C57.7411 94.0022 57.7144 93.9224 57.6877 93.8161H56.9147V95.8631H58.4875C58.4875 95.677 58.5141 95.5441 58.5674 95.4111C58.6208 95.2782 58.6741 95.1719 58.7274 95.0921C58.7807 94.9858 58.8607 94.906 58.9406 94.8529H59.1273V96.0492L55.4219 96.0226V95.9163L55.8217 95.8099L55.8484 91.5564L55.4485 91.4501V91.3438L59.0206 91.3703V92.5666H58.8074C58.7274 92.4869 58.6474 92.4071 58.5941 92.3008C58.5408 92.221 58.4875 92.1147 58.4608 91.9818C58.4075 91.8488 58.4075 91.7159 58.4075 91.5298H56.968V93.63L57.6877 93.6566Z" fill="white"/>
<path d="M63.365 95.623L63.8449 95.7293V95.8356L61.8189 95.9685V95.8622L62.2721 95.7027L62.0321 92.0607L61.3657 92.5923L61.2324 92.4328L62.3787 91.2631L63.0984 91.21L63.365 95.623Z" fill="white"/>
<path d="M67.2564 91.7424C67.2564 91.8487 67.2564 91.9551 67.2298 92.0614C67.2031 92.1678 67.1231 92.2741 67.0698 92.3804C66.9899 92.4868 66.9099 92.5665 66.8033 92.6463C66.6966 92.726 66.59 92.7792 66.4834 92.8324C66.8832 92.9653 67.2031 93.1248 67.4697 93.3375C67.7096 93.5501 67.8695 93.8426 67.8962 94.2147C67.9229 94.3742 67.8962 94.5338 67.8429 94.6933C67.7896 94.8528 67.683 94.9857 67.5497 95.1452C67.4164 95.2781 67.2031 95.3844 66.9899 95.4908C66.7499 95.5971 66.4834 95.6503 66.1368 95.7035C65.8436 95.73 65.577 95.73 65.3638 95.7035C65.1505 95.6769 64.9639 95.5971 64.8039 95.5174C64.644 95.4376 64.5374 95.3047 64.4574 95.1718C64.3774 95.0389 64.3241 94.8794 64.2975 94.7198C64.2708 94.5869 64.2975 94.4806 64.3508 94.3477C64.4041 94.2147 64.4574 94.1084 64.5374 93.9755C64.6173 93.8691 64.724 93.7628 64.8573 93.6565C64.9906 93.5501 65.1238 93.4704 65.2571 93.4172C65.1238 93.364 64.9906 93.2843 64.8573 93.2311C64.7506 93.1514 64.644 93.0716 64.5374 92.9919C64.4574 92.9121 64.3774 92.8058 64.3241 92.6729C64.2708 92.5665 64.2175 92.4336 64.2175 92.2741C64.1908 92.1146 64.2175 91.9551 64.2708 91.7956C64.3241 91.6361 64.4041 91.5031 64.5374 91.3702C64.6707 91.2373 64.8306 91.131 65.0439 91.0512C65.2571 90.9715 65.497 90.8917 65.7903 90.8651C66.0035 90.8385 66.2168 90.8385 66.3767 90.8917C66.5633 90.9449 66.7233 90.998 66.8299 91.0778C66.9632 91.1575 67.0698 91.2639 67.1498 91.3702C67.1765 91.4766 67.2298 91.6095 67.2564 91.7424ZM66.8033 94.5338C66.7766 94.3211 66.6433 94.1084 66.4034 93.9223C66.1635 93.7362 65.8702 93.5767 65.497 93.4704C65.2838 93.5767 65.0972 93.7362 64.9639 93.9223C64.8306 94.1084 64.7773 94.3477 64.8306 94.6135C64.8573 94.7464 64.8839 94.8794 64.9639 95.0123C65.0439 95.1186 65.1238 95.2249 65.2305 95.3047C65.3371 95.3844 65.4437 95.4376 65.6037 95.4908C65.737 95.544 65.8702 95.544 66.0302 95.5174C66.3234 95.4908 66.51 95.3845 66.67 95.1984C66.8033 95.0389 66.8566 94.8262 66.8033 94.5338ZM65.2571 91.9019C65.3104 92.2475 65.6303 92.5133 66.2701 92.726C66.4034 92.6463 66.5367 92.5133 66.6167 92.3804C66.7233 92.2209 66.7499 92.0348 66.7233 91.7956C66.6966 91.6626 66.67 91.5563 66.6167 91.45C66.5633 91.3436 66.4834 91.2639 66.4034 91.1841C66.3234 91.1044 66.2168 91.0512 66.1368 91.0246C66.0302 90.998 65.9236 90.9715 65.8436 90.998C65.657 91.0246 65.497 91.1044 65.3904 91.2639C65.2571 91.4234 65.2305 91.6361 65.2571 91.9019Z" fill="white"/>
<path d="M69.9494 94.932C70.0827 94.9054 70.1893 94.8522 70.2693 94.7991C70.3759 94.7193 70.4293 94.6396 70.4826 94.5066C70.5359 94.3737 70.5625 94.2408 70.5625 94.0547C70.5625 93.8686 70.5625 93.6559 70.5092 93.4167C70.4026 92.9382 70.2693 92.6191 70.0561 92.4596C69.8428 92.3001 69.6029 92.247 69.3363 92.3001C69.203 92.3267 69.0964 92.3799 68.9898 92.4331C68.8831 92.5128 68.8032 92.566 68.7232 92.6457C68.6432 92.7255 68.5632 92.8052 68.4833 92.9116L68.3233 92.8318L68.1367 90.5987L70.0561 90.2C70.0561 90.0671 70.0561 89.9341 70.0827 89.8278C70.1094 89.7215 70.136 89.6417 70.1627 89.562C70.1893 89.4822 70.2427 89.4024 70.296 89.3227L70.4826 89.2695L70.7491 90.5456L68.3766 91.0241L68.5099 92.566C68.5899 92.4862 68.6699 92.4331 68.7498 92.3799C68.8298 92.3267 68.9098 92.2736 69.0164 92.2204C69.123 92.1672 69.2563 92.114 69.3896 92.0875C69.7095 92.0077 70.0027 92.0077 70.2693 92.0077C70.5092 92.0343 70.7491 92.0875 70.9091 92.1938C71.0957 92.3001 71.229 92.4065 71.3623 92.5926C71.4689 92.7521 71.5489 92.9382 71.6022 93.1774C71.7088 93.6294 71.6288 94.0281 71.3889 94.3471C71.149 94.6927 70.7225 94.9054 70.1094 95.0383C69.8694 95.0915 69.6562 95.0915 69.4696 95.0915C69.283 95.0649 69.123 95.0383 68.9898 94.9852C68.8565 94.932 68.7498 94.8522 68.6699 94.7725C68.5899 94.6927 68.5366 94.5864 68.5099 94.4801C68.4833 94.3205 68.5099 94.2142 68.5632 94.1079C68.6432 94.0015 68.7498 93.9218 68.8831 93.8952C68.9098 93.8952 68.9364 93.8952 68.9898 93.8952C69.0164 93.8952 69.0431 93.8952 69.0697 93.8952C69.0964 93.8952 69.123 93.8952 69.1497 93.8952L69.363 94.932C69.4163 94.932 69.4429 94.9586 69.5229 94.9586C69.5762 94.9586 69.6295 94.9586 69.6828 94.9586C69.7895 94.9586 69.8695 94.9586 69.9494 94.932Z" fill="white"/>
<path d="M75.9214 93.2042L75.948 93.3106L74.0287 93.9752L74.0021 93.8688L74.4019 93.603L74.082 92.6725L72.296 93.284L72.1094 93.1511L73.3889 89.2166L73.9754 89.0039L75.015 92.0079L75.6815 91.7687L75.7881 92.0611L75.1217 92.3004L75.4415 93.2308L75.9214 93.2042ZM73.9487 92.3535L73.229 90.28L72.3759 92.8852L73.9487 92.3535Z" fill="white"/>
<g clip-path="url(#clip1_128_192852)">
<path d="M34.8136 56.7741C34.6553 56.6272 34.5762 56.4011 34.5762 56.0846V46.985C34.5762 46.6797 34.6553 46.4424 34.8136 46.2954C34.9718 46.1485 35.2318 46.0693 35.6161 46.0693H39.7307C41.4489 46.0693 42.7037 46.3858 43.4949 47.0302C44.2862 47.6632 44.6705 48.624 44.6705 49.9127C44.6705 51.2013 44.2749 52.1621 43.4949 52.7838C42.7037 53.4169 41.4602 53.7334 39.7534 53.7334H38.7021V56.0846C38.7021 56.4011 38.623 56.6272 38.4647 56.7741C38.3065 56.9211 38.0352 57.0002 37.6508 57.0002H35.6048C35.2318 57.0002 34.9605 56.9211 34.8136 56.7741ZM39.3577 51.0091C39.7194 51.0091 40.0133 50.9187 40.2281 50.7378C40.4429 50.557 40.5446 50.2857 40.5446 49.9127C40.5446 49.5396 40.4429 49.257 40.2281 49.0762C40.0133 48.8953 39.7307 48.8049 39.3577 48.8049H38.1934V51.0091H39.3577Z" fill="#798393"/>
<path d="M45.4171 56.7741C45.2588 56.6272 45.1797 56.3898 45.1797 56.0846V46.985C45.1797 46.6797 45.2588 46.4424 45.4171 46.2954C45.5753 46.1485 45.8353 46.0693 46.2196 46.0693H50.3343C52.0525 46.0693 53.3072 46.3858 54.0985 47.0302C54.8897 47.6632 55.2741 48.624 55.2741 49.9127C55.2741 50.6813 55.1384 51.3369 54.8558 51.8682C54.5732 52.3995 54.1437 52.8178 53.5559 53.1117L55.161 56.3107C55.2062 56.4011 55.2288 56.4915 55.2288 56.6046C55.2288 56.7176 55.1836 56.8193 55.1045 56.8985C55.0141 56.9776 54.9123 57.0115 54.7654 57.0115H51.8603C51.6794 57.0115 51.5325 56.9889 51.4194 56.9437C51.3064 56.8985 51.2386 56.808 51.1821 56.695L49.9047 53.7108H49.3169V56.1072C49.3169 56.4237 49.2378 56.6498 49.0795 56.7967C48.9213 56.9437 48.65 57.0228 48.2656 57.0228H46.2196C45.8353 57.0002 45.564 56.9211 45.4171 56.7741ZM49.9612 51.0091C50.323 51.0091 50.6169 50.9187 50.8316 50.7378C51.0464 50.557 51.1481 50.2857 51.1481 49.9127C51.1481 49.5396 51.0464 49.257 50.8316 49.0762C50.6169 48.8953 50.3343 48.8049 49.9612 48.8049H48.7856V51.0091H49.9612Z" fill="#798393"/>
<path d="M56.3585 56.7741C56.2002 56.6272 56.1211 56.3898 56.1211 56.0846V46.985C56.1211 46.6797 56.2002 46.4424 56.3585 46.2954C56.5167 46.1485 56.7767 46.0693 57.1611 46.0693H59.2071C59.6027 46.0693 59.874 46.1372 60.0209 46.2841C60.1792 46.4311 60.2583 46.6571 60.2583 46.985V56.0846C60.2583 56.4011 60.1792 56.6272 60.0209 56.7741C59.8627 56.9211 59.5914 57.0002 59.2071 57.0002H57.1611C56.7767 57.0002 56.5167 56.9211 56.3585 56.7741Z" fill="#798393"/>
<path d="M61.2867 56.8198C61.1737 56.6954 61.1172 56.4693 61.1172 56.1415C61.1172 55.8024 61.1511 55.5311 61.2076 55.3389C61.2754 55.1468 61.4337 54.8981 61.6824 54.5816L66.2152 48.8166H62.2363C61.8519 48.8166 61.592 48.7375 61.4337 48.5905C61.2754 48.4436 61.1963 48.2062 61.1963 47.901V46.9967C61.1963 46.6915 61.2754 46.4541 61.4337 46.3071C61.592 46.1602 61.8519 46.0811 62.2363 46.0811H70.7368C71.0759 46.0811 71.3133 46.1376 71.4263 46.2619C71.5394 46.3863 71.5959 46.6123 71.5959 46.9402C71.5959 47.268 71.562 47.5393 71.5055 47.7314C71.4376 47.9236 71.2794 48.1836 71.0307 48.5001L66.5431 54.2651H70.6012C70.9855 54.2651 71.2455 54.3442 71.4037 54.4911C71.562 54.6381 71.6411 54.8755 71.6411 55.1807V56.085C71.6411 56.4015 71.562 56.6276 71.4037 56.7745C71.2455 56.9215 70.9855 57.0006 70.6012 57.0006H61.9763C61.6372 57.0006 61.3998 56.9441 61.2867 56.8198Z" fill="#798393"/>
<path d="M72.7276 56.7741C72.5694 56.6272 72.4902 56.3898 72.4902 56.0846V46.985C72.4902 46.6797 72.5694 46.4424 72.7276 46.2954C72.8859 46.1485 73.1459 46.0693 73.5302 46.0693H80.6516C81.0134 46.0693 81.2734 46.1372 81.3977 46.2841C81.5333 46.4311 81.6012 46.6571 81.6012 46.985V47.8893C81.6012 48.2058 81.5333 48.4432 81.3977 48.5901C81.2621 48.7371 81.0134 48.8049 80.6516 48.8049H76.6275V50.1839H79.103C79.4647 50.1839 79.7247 50.2518 79.8491 50.3987C79.9847 50.5457 80.0525 50.7718 80.0525 51.0996V51.97C80.0525 52.2865 79.9847 52.5239 79.8491 52.6708C79.7134 52.8178 79.4647 52.8856 79.103 52.8856H76.6275V54.2647H80.6403C81.0021 54.2647 81.2621 54.3325 81.3864 54.4794C81.522 54.6264 81.5786 54.8525 81.5786 55.1803V56.0846C81.5786 56.4011 81.5107 56.6385 81.3864 56.7854C81.2507 56.9324 81.0021 57.0002 80.6403 57.0002H73.5302C73.1459 57.0002 72.8859 56.9211 72.7276 56.7741Z" fill="#798393"/>
<path d="M46.5921 42.1353L45.2017 42.7118L45.0095 42.7231C44.5009 42.7231 44.0713 42.6214 43.7322 42.4179C43.3931 42.2144 43.1331 41.9545 42.9635 41.6266C42.794 41.2988 42.7148 40.9597 42.7148 40.5867C42.7148 39.9198 42.9409 39.3659 43.3818 38.9363C43.8339 38.5068 44.4104 38.292 45.1339 38.292C45.6878 38.292 46.1625 38.4276 46.5356 38.6763L46.5243 38.6989L46.5356 38.8572C46.5356 39.1285 46.4903 39.3998 46.4112 39.6824H45.9025L45.7895 39.038C45.4278 38.8685 45.0434 38.7894 44.6365 38.7894L44.3765 38.8007C44.1165 38.9589 43.9131 39.185 43.7774 39.4902C43.6418 39.7954 43.5739 40.1345 43.5739 40.4963C43.5739 40.9823 43.7096 41.378 43.9809 41.6945C44.2522 42.011 44.6026 42.1692 45.0434 42.1692C45.2356 42.1692 45.4843 42.1466 45.7782 42.0788V41.1519C45.473 41.0614 45.2356 40.971 45.0661 40.8806L45.1113 40.6658H47.1008L47.1121 40.971L46.5921 41.0501V42.1353Z" fill="#798393"/>
<path d="M53.5889 42.2704L53.5776 42.5869H52.3793L51.4185 40.9478L50.729 40.9591V42.1912L51.4072 42.2704L51.3959 42.5869H49.3499L49.3047 42.3834L49.8812 42.1573V38.7888L49.3838 38.7436L49.3951 38.4271L51.4411 38.3818C51.9498 38.3818 52.3567 38.5062 52.6732 38.7436C52.9898 38.9809 53.148 39.2861 53.148 39.6479C53.148 39.9079 53.0689 40.1452 52.8993 40.36C52.7298 40.5861 52.5037 40.7443 52.2098 40.8461L53.1254 42.2365L53.5889 42.2704ZM50.729 40.4731C50.9324 40.507 51.102 40.5183 51.249 40.5183C51.622 40.5183 51.882 40.4278 52.0402 40.2583C52.1985 40.0887 52.2776 39.8739 52.2776 39.6253C52.2776 39.2296 52.1194 38.947 51.8028 38.7888L50.729 38.8792V40.4731Z" fill="#798393"/>
<path d="M60.576 42.2705L60.5647 42.5871H58.5752L58.53 42.3836C58.6769 42.3045 58.8917 42.2253 59.163 42.1462L58.8465 41.3775H57.1057L56.7666 42.2027L57.4335 42.2819L57.4222 42.5984H55.6136L55.5684 42.3949C55.7379 42.3158 55.9188 42.2366 56.1336 42.1688L57.6935 38.6307L57.6257 38.4724L58.3378 38.2803L60.0673 42.2366L60.576 42.2705ZM58.6656 40.9254L57.9874 39.275L57.2979 40.9254H58.6656Z" fill="#798393"/>
<path d="M66.8038 42.5872L65.9786 42.6663H65.9673L65.9786 42.655L63.684 39.309L63.797 40.1342V42.2028L64.3961 42.2706L64.3848 42.5872H62.6214L62.5762 42.3837L63.1527 42.1576V38.789L62.6892 38.7325L62.7005 38.416H64.0683L66.2838 41.7054L66.1708 40.8916V38.823L65.5039 38.7438L65.5152 38.4273H67.3351L67.3803 38.6308C67.2447 38.6986 67.0525 38.7777 66.8151 38.8569L66.8038 42.5872Z" fill="#798393"/>
<path d="M71.8909 38.3711C72.5013 38.3711 73.01 38.5746 73.417 38.9815C73.8239 39.3884 74.0161 39.8858 74.0161 40.4736C74.0161 41.0953 73.8126 41.604 73.3943 41.9996C72.9874 42.384 72.4335 42.5874 71.744 42.5987H69.7093L69.6641 42.3953L70.2406 42.1692V38.8006L69.7545 38.7554L69.7658 38.4389C70.5345 38.3824 71.2353 38.3711 71.8909 38.3711ZM71.6649 42.1127C72.0944 42.1127 72.4448 41.9657 72.7048 41.6605C72.9648 41.3553 73.1004 40.971 73.1004 40.4962C73.1004 40.1345 73.0213 39.7954 72.8518 39.4789C72.6822 39.1737 72.4674 38.9476 72.2074 38.8006L71.077 38.8911V42.0336C71.2805 42.0788 71.4727 42.1127 71.6649 42.1127Z" fill="#798393"/>
<path d="M48.8526 20.1041L47.8691 19.9911L48.4569 20.7823L52.3229 25.9821L48.5587 31.2497L48.1404 31.8262L48.83 31.7358C51.0229 31.4532 53.2159 31.1932 55.4088 30.888L56.5053 33.1827C56.8896 33.9966 57.2853 34.7879 57.6809 35.6017C57.3531 34.7652 57.0253 33.9401 56.6862 33.1036L55.6801 30.6167L55.6349 30.5037L55.4993 30.515C53.4872 30.6845 51.4751 30.8654 49.463 31.0576L53.1028 26.2082L53.2724 25.9821L53.1141 25.756L49.7343 21.0762L55.4767 21.7206L55.8045 21.7545L55.9401 21.4493L58.2574 16.159L60.6199 21.4267L60.733 21.6866L61.0156 21.6527L67.0405 20.9293C65.8762 22.5797 64.7119 24.2187 63.5589 25.8804L63.4798 25.9934L63.5589 26.0952L65.1641 28.1525C65.6954 28.842 66.238 29.5202 66.7805 30.1985C66.2945 29.475 65.8197 28.7516 65.3223 28.0394L63.9207 26.0047C65.2771 24.2526 66.5997 22.4892 67.9335 20.7258L68.3631 20.1719L67.6509 20.2397L61.2077 20.8615L58.6417 14.9043L58.2574 14L57.8505 14.9043L55.2393 20.7823L48.8526 20.1041Z" fill="#798393"/>
<path d="M54.4488 25.9712L54.3697 25.8695L52.8323 23.9026C52.3237 23.247 51.8037 22.6027 51.2837 21.947C51.7472 22.6366 52.2106 23.3374 52.6741 24.0156L54.0079 25.9599C53.0019 27.2373 52.0185 28.5259 51.035 29.8145L50.6055 30.3684L51.3176 30.3006L55.9974 29.8711L57.8626 34.2005L58.2582 35.1048L58.6651 34.2005L60.5642 29.9389L65.1988 30.425L66.1822 30.5267L65.5944 29.7354L62.7798 25.9599L65.4927 22.1166L65.8996 21.5401L65.2101 21.6305C63.6049 21.8453 61.9885 22.0488 60.3833 22.2862L59.366 20.161C59.0043 19.4037 58.6425 18.6689 58.2695 17.9229C58.5747 18.7028 58.8686 19.4715 59.1851 20.2515L60.1233 22.5688L60.1686 22.6818L60.3042 22.6705C61.7285 22.5688 63.1528 22.4444 64.5884 22.3201L61.9885 25.7564L61.8189 25.9825L61.9885 26.2199L64.3284 29.4754L60.3381 29.0233L60.0103 28.9894L59.8747 29.2946L58.2695 32.9796L56.6191 29.3285L56.4948 29.0685L56.2122 29.1024L51.9393 29.6337C52.7532 28.4581 53.5784 27.2938 54.381 26.1069L54.4488 25.9712Z" fill="#798393"/>
</g>
<g clip-path="url(#clip2_128_192852)">
<path d="M49.9605 74.1497L49.0605 74.2497L49.6005 73.5297L53.1205 68.7897L49.6905 63.9897L49.3105 63.4597L49.9405 63.5397C51.9405 63.7997 53.9405 64.0397 55.9405 64.3097L56.9405 62.2097C57.2905 61.4697 57.6505 60.7397 58.0105 60.0097C57.7105 60.7697 57.4205 61.5297 57.1105 62.2897L56.1905 64.5597L56.1505 64.6697L56.0305 64.6597C54.1905 64.5097 52.3605 64.3397 50.5205 64.1697L53.8405 68.5997L53.9905 68.7997L53.8405 69.0097L50.7605 73.2797L56.0005 72.6897L56.3005 72.6597L56.4205 72.9397L58.5405 77.7697L60.7005 72.9597L60.8105 72.7197L61.0605 72.7497L66.5505 73.4097C65.4905 71.9097 64.4205 70.3997 63.3705 68.8897L63.3005 68.7897L63.3705 68.6997L64.8305 66.8297C65.3205 66.1997 65.8105 65.5897 66.3105 64.9697C65.8705 65.6297 65.4305 66.2897 64.9805 66.9397L63.7105 68.7997C64.9405 70.3997 66.1505 72.0097 67.3805 73.6097L67.7705 74.1197L67.1205 74.0597L61.2505 73.4897L58.9005 78.8897L58.5405 79.7197L58.1705 78.8897L55.7905 73.5297L49.9605 74.1497Z" fill="#798393"/>
<path d="M55.0608 68.7896L54.9908 68.8796L53.5908 70.6696C53.1208 71.2696 52.6508 71.8596 52.1708 72.4496C52.5908 71.8196 53.0108 71.1796 53.4408 70.5596L54.6508 68.7796C53.7308 67.6196 52.8408 66.4396 51.9408 65.2696L51.5508 64.7596L52.2008 64.8196L56.4708 65.2196L58.1708 61.2696L58.5308 60.4396L58.9008 61.2696L60.6308 65.1596L64.8608 64.7196L65.7608 64.6296L65.2208 65.3496L62.6508 68.7996L65.1308 72.2996L65.5108 72.8296L64.8808 72.7396C63.4108 72.5396 61.9408 72.3596 60.4808 72.1496L59.5508 74.0896C59.2208 74.7796 58.8808 75.4596 58.5508 76.1396C58.8108 75.4296 59.0808 74.7196 59.3708 74.0196L60.2208 71.9096L60.2608 71.7996L60.3808 71.8096C61.6808 71.8996 62.9808 72.0196 64.2808 72.1296L61.9108 68.9996L61.7608 68.7996L61.9108 68.5896L64.0408 65.6196L60.4008 66.0296L60.1008 66.0596L60.0008 65.7696L58.5308 62.4096L57.0208 65.7496L56.9108 65.9896L56.6608 65.9596L52.7708 65.4696C53.5208 66.5396 54.2708 67.6096 55.0008 68.6896L55.0608 68.7896Z" fill="#798393"/>
<path d="M78.4393 68.1697L78.0893 68.1397L74.8993 67.8297L73.6293 70.7797L73.4293 71.2197L73.2293 70.7697L71.9393 67.8597L68.7693 68.1997L68.2793 68.2497L68.5693 67.8597L70.4793 65.2797L68.6193 62.6697L68.4193 62.3797L68.7593 62.4197C69.8493 62.5597 70.9293 62.6897 72.0193 62.8397L72.5593 61.6997C72.7493 61.2997 72.9493 60.8997 73.1393 60.4997C72.9793 60.9097 72.8193 61.3297 72.6493 61.7397L72.1493 62.9697L72.1293 63.0297L72.0593 63.0197C71.0593 62.9397 70.0693 62.8397 69.0693 62.7497L70.8693 65.1497L70.9493 65.2597L70.8693 65.3797L69.2093 67.7197L72.0593 67.3997L72.2193 67.3797L72.2893 67.5297L73.4393 70.1497L74.6093 67.5397L74.6693 67.4097L74.8093 67.4297L77.7893 67.7897C77.2093 66.9697 76.6293 66.1597 76.0593 65.3297L76.0193 65.2697L76.0593 65.2197L76.8593 64.1997C77.1193 63.8597 77.3893 63.5197 77.6593 63.1897C77.4193 63.5497 77.1793 63.9097 76.9393 64.2597L76.2493 65.2697C76.9193 66.1397 77.5793 67.0097 78.2393 67.8797L78.4393 68.1697Z" fill="#798393"/>
<path d="M71.5406 65.29L71.5006 65.34L70.7406 66.31C70.4906 66.64 70.2306 66.96 69.9706 67.28C70.2006 66.94 70.4306 66.59 70.6606 66.25L71.3206 65.28C70.8206 64.65 70.3406 64.01 69.8506 63.37L69.6406 63.09L69.9906 63.12L72.3106 63.34L73.2306 61.19L73.4206 60.74L73.6206 61.19L74.5606 63.3L76.8606 63.06L77.3506 63.01L77.0606 63.4L75.6606 65.27L77.0106 67.17L77.2106 67.46L76.8706 67.41C76.0706 67.3 75.2806 67.2 74.4806 67.09L73.9706 68.14C73.7906 68.51 73.6106 68.88 73.4306 69.25C73.5806 68.87 73.7306 68.48 73.8806 68.1L74.3406 66.95L74.3606 66.89H74.4306C75.1406 66.94 75.8406 67 76.5506 67.06L75.2606 65.36L75.1806 65.25L75.2606 65.13L76.4206 63.52L74.4406 63.74L74.2806 63.76L74.2106 63.61L73.4106 61.79L72.5906 63.6L72.5306 63.73L72.3906 63.71L70.2706 63.45C70.6806 64.03 71.0806 64.61 71.4806 65.2L71.5406 65.29Z" fill="#798393"/>
<path d="M38 68.2497L38.29 67.8597L40.2 65.2797L38.34 62.6697L38.14 62.3797L38.48 62.4197C39.57 62.5597 40.65 62.6897 41.74 62.8397L42.28 61.6997C42.47 61.2997 42.67 60.8997 42.86 60.4997C42.7 60.9097 42.54 61.3297 42.37 61.7397L41.87 62.9697L41.85 63.0297L41.78 63.0197C40.78 62.9397 39.79 62.8397 38.79 62.7497L40.59 65.1497L40.67 65.2597L40.6 65.3997L38.92 67.7197L41.77 67.3997L41.93 67.3797L42 67.5297L43.15 70.1497L44.32 67.5397L44.38 67.4097L44.52 67.4297L47.5 67.7897C46.92 66.9697 46.34 66.1597 45.77 65.3297L45.73 65.2697L45.77 65.2197L46.57 64.1997C46.83 63.8597 47.1 63.5197 47.37 63.1897C47.13 63.5497 46.89 63.9097 46.65 64.2597L45.96 65.2697C46.63 66.1397 47.29 67.0097 47.95 67.8797L48.16 68.1597L47.81 68.1297L44.62 67.8197L43.34 70.7697L43.15 71.2197L42.95 70.7697L41.66 67.8597L38.49 68.1997L38 68.2497Z" fill="#798393"/>
<path d="M41.2594 65.29L41.2194 65.34L40.4594 66.31C40.2094 66.64 39.9494 66.96 39.6894 67.28C39.9194 66.94 40.1494 66.59 40.3794 66.25L41.0394 65.28C40.5394 64.65 40.0594 64.01 39.5694 63.37L39.3594 63.09L39.7094 63.12L42.0294 63.34L42.9494 61.19L43.1394 60.74L43.3394 61.19L44.2794 63.3L46.5794 63.06L47.0694 63.01L46.7794 63.4L45.3794 65.27L46.7294 67.17L46.9294 67.46L46.5894 67.41C45.7894 67.3 44.9994 67.2 44.1994 67.09L43.6894 68.14C43.5094 68.51 43.3294 68.88 43.1494 69.25C43.2994 68.87 43.4494 68.48 43.5994 68.1L44.0594 66.95L44.0794 66.89H44.1494C44.8594 66.94 45.5594 67 46.2694 67.06L44.9794 65.36L44.8994 65.28L44.9794 65.16L46.1394 63.55L44.1594 63.77L43.9994 63.79L43.9294 63.64L43.1294 61.82L42.3094 63.63L42.2494 63.76L42.1094 63.74L39.9894 63.48C40.3994 64.06 40.7994 64.64 41.1994 65.23L41.2594 65.29Z" fill="#798393"/>
</g>
</g>
<defs>
<clipPath id="clip0_128_192852">
<rect width="115" height="99" fill="white"/>
</clipPath>
<clipPath id="clip1_128_192852">
<rect width="47.0242" height="43" fill="white" transform="translate(34.5762 14)"/>
</clipPath>
<clipPath id="clip2_128_192852">
<rect width="40.44" height="19.72" fill="white" transform="matrix(1 0 0 -1 38 79.7197)"/>
</clipPath>
</defs>
</svg>
