<svg width="108" height="107" viewBox="0 0 108 107" fill="none" xmlns="http://www.w3.org/2000/svg">
<path d="M19.5645 29.4603C17.633 31.6671 14.4322 33.1015 11.7832 32.798C12.1695 31.4188 12.3903 29.5155 13.5492 28.6604C15.2324 27.3915 17.2467 26.6191 19.3162 26.3984C19.6473 27.4191 19.6749 28.3845 19.5645 29.4603Z" fill="#798393"/>
<path d="M52.2343 3.39255C50.3028 2.0685 47.8194 1.5444 45.5292 2.04092C43.2389 2.50985 41.1694 3.97183 39.9277 5.95791C41.9972 6.81302 44.2599 7.08887 46.4673 6.61993C48.6472 6.12341 50.6891 5.02003 52.2343 3.39255Z" fill="#798393"/>
<path d="M38.74 6.26166C40.1749 4.52385 40.8371 2.23434 40.5888 0C38.7952 0.579273 37.0569 1.43439 35.76 2.81361C34.4631 4.19283 33.6905 6.09616 33.9388 7.94431C35.4564 7.17195 37.0844 6.70302 38.74 6.26166Z" fill="#798393"/>
<path d="M30.8487 9.40653C32.0352 7.19977 32.3939 4.41374 31.6765 1.87598C29.7726 3.28278 28.117 4.93785 27.1512 6.81359C26.2406 8.57899 25.9647 10.5927 26.627 12.1926C27.8411 11.1168 29.2759 10.2892 30.8487 9.40653Z" fill="#798393"/>
<path d="M23.8676 14.4264C24.8334 11.8335 24.8334 8.60609 23.7021 5.7373C21.8533 7.99923 20.3909 9.93014 19.7562 12.1645C19.2044 14.123 19.3975 16.4676 20.2529 17.8469C21.2187 16.6607 22.4604 15.6125 23.8676 14.4264Z" fill="#798393"/>
<path d="M17.9914 20.4672C18.4329 17.3778 17.7707 13.4883 15.8116 10.123C14.5147 13.7642 13.5765 16.495 13.6041 19.088C13.6041 21.1844 14.3215 23.3636 15.3701 24.4669C15.9495 23.2256 16.8601 21.9844 17.9914 20.4672Z" fill="#798393"/>
<path d="M13.383 28.5223C13.4382 25.2949 12.2241 21.1849 9.71312 17.6816C8.9681 22.0951 8.49901 25.1846 8.9405 27.8603C9.29922 29.9567 10.2926 31.9428 11.4239 32.7979C11.7826 31.529 12.4724 30.1774 13.383 28.5223Z" fill="#798393"/>
<path d="M10.0711 36.467C9.10529 33.5706 6.70468 30.2605 3.72461 28.3848C3.91776 31.6949 3.94536 34.7016 4.96631 36.9359C5.84929 38.8393 7.64285 40.2461 9.18807 40.9357C9.18807 39.5013 9.65716 38.2876 10.0711 36.467Z" fill="#798393"/>
<path d="M8.58063 44.4934C7.17337 41.6522 4.1657 38.48 0.744141 36.8525C1.59953 40.4109 2.23418 43.528 3.64143 45.652C4.82794 47.3898 6.78706 48.5208 8.35988 48.9897C8.13913 47.5829 8.44266 46.3692 8.58063 44.4934Z" fill="#798393"/>
<path d="M8.80225 54.59C7.00869 51.9695 3.58712 49.2386 0 48.0801C1.35207 51.5005 2.37302 54.4797 4.05621 56.383C5.46346 57.9553 7.56055 58.7828 9.18855 59.0311C9.18855 59.0587 9.18855 56.9623 8.80225 54.59Z" fill="#798393"/>
<path d="M11.2024 65.4306C9.24327 63.1686 5.79411 61.0998 2.42773 60.6309C4.11092 63.7479 5.46299 66.5063 7.25655 68.0511C8.719 69.3475 10.7057 69.7889 12.1957 69.7337C12.2233 69.7337 11.8922 67.6925 11.2024 65.4306Z" fill="#798393"/>
<path d="M10.6501 36.5768C12.7196 34.3425 16.3067 32.6598 19.7835 32.1357C18.2383 35.0873 16.9414 37.4595 15.0926 39.087C13.5198 40.4662 11.2848 40.9903 9.60156 40.9903C10.2086 39.6939 10.2638 38.3974 10.6501 36.5768Z" fill="#798393"/>
<path d="M9.27179 44.5213C11.1205 42.0939 14.8456 40.1078 18.2396 39.2803C16.9979 42.3697 15.8942 44.8523 14.211 46.6453C12.7761 48.1625 10.5963 48.9072 8.94067 49.0452C8.85789 47.5004 8.96826 45.9833 9.27179 44.5213Z" fill="#798393"/>
<path d="M9.40968 54.6446C10.8997 51.8586 14.3765 49.1277 17.6877 47.6934C16.8599 51.0311 16.1148 53.6792 14.7076 55.748C13.5211 57.4858 11.5068 58.6168 9.85118 59.1133C9.52006 57.6238 9.38209 56.1342 9.40968 54.6446Z" fill="#798393"/>
<path d="M11.5332 65.8437C12.1403 62.9474 14.5133 59.7476 17.107 57.7891C17.245 61.0992 17.2726 63.7473 16.5552 65.9541C15.9481 67.8022 14.4305 69.2366 13.0784 70.009C12.4162 68.6573 11.8919 67.2781 11.5332 65.8437Z" fill="#798393"/>
<path d="M15.7833 75.4988C15.6729 72.8231 17.1078 69.8716 18.9565 68.0234C19.7843 71.0301 20.3914 73.43 20.2258 75.4712C20.0879 77.1815 19.0669 78.5055 18.046 79.2227C17.1906 78.0366 16.418 76.7953 15.7833 75.4988Z" fill="#798393"/>
<path d="M23.5646 85.65C22.3505 83.4432 22.3781 80.5193 23.2611 78.4229C25.2478 80.7124 26.8206 82.5605 27.5105 84.2983C28.0899 85.7603 27.7588 87.1947 27.1518 88.105C25.8549 87.3602 24.6684 86.5603 23.5646 85.65Z" fill="#798393"/>
<path d="M38.4935 6.28906L34.0234 8.05447C34.8236 9.57161 36.5068 10.4543 38.2176 10.675C39.9008 10.8957 41.6392 10.5646 43.2948 10.1233C41.8599 7.69587 40.5906 7.03384 38.4935 6.28906Z" fill="#798393"/>
<path d="M29.7179 10.0133C32.2564 9.70984 34.9882 10.5374 36.7541 12.4683C35.1813 13.4613 33.5533 13.7648 31.7322 13.7648C29.773 13.7923 27.7035 13.2406 26.793 12.1649C27.8691 11.3097 29.7179 10.0133 29.7179 10.0133Z" fill="#798393"/>
<path d="M22.957 15.227C24.8058 14.565 26.9304 14.5374 28.7792 15.2546L23.1226 18.7303C22.1016 18.6751 21.191 18.4544 20.584 17.9855C21.467 16.9097 22.957 15.227 22.957 15.227Z" fill="#798393"/>
<path d="M19.6734 19.7227C19.7561 20.9364 19.8941 22.3983 19.8665 23.6121C19.8665 23.5845 19.8113 23.7224 19.8113 23.6672C18.542 24.1913 17.19 24.4672 15.8379 24.4948C16.7761 22.7018 17.9902 20.8812 19.6734 19.7227Z" fill="#798393"/>
<path d="M25.4971 87.4151C25.4971 87.4151 25.166 87.2495 24.5037 86.7806C23.8691 86.3393 23.0413 85.6221 22.0204 84.6566C21.027 83.6636 19.8405 82.4774 18.654 80.9327C17.4399 79.4156 16.1982 77.595 14.9841 75.5537C13.8252 73.4573 12.6111 71.1678 11.7005 68.5749C10.7071 66.0371 9.9621 63.2235 9.32746 60.3271C9.05153 58.8652 8.83078 57.3756 8.61003 55.8585C8.49966 54.3137 8.30651 52.7966 8.25132 51.1967C8.16854 48.1072 8.27891 44.9074 8.80319 41.7352C9.05153 40.1629 9.32746 38.5906 9.76895 37.0735C10.1277 35.5287 10.6243 34.0392 11.1762 32.5496C12.2248 29.5981 13.6596 26.8396 15.1772 24.2743C16.8052 21.7641 18.4884 19.4194 20.3648 17.4058C22.2135 15.3645 24.145 13.6543 26.0766 12.2475C27.9805 10.7855 29.8568 9.68213 31.5676 8.77184C32.4506 8.35807 33.2508 7.94431 33.9958 7.58571C34.796 7.30986 35.5135 7.03402 36.1481 6.78576C37.445 6.26166 38.5487 6.12373 39.2385 5.93064C39.956 5.76514 40.3423 5.6548 40.3423 5.6548C40.3975 5.62721 40.4802 5.68238 40.4802 5.73755C40.5078 5.79272 40.4527 5.87547 40.3975 5.87547C40.3975 5.87547 40.0112 5.98581 39.3213 6.20649C38.6315 6.45475 37.5554 6.67542 36.3137 7.2547C35.679 7.50296 34.9892 7.80638 34.2166 8.10981C33.4716 8.49599 32.6989 8.90976 31.8436 9.35111C30.188 10.289 28.3668 11.4199 26.5457 12.9095C24.7521 14.3715 22.9309 16.1369 21.1098 18.0954C19.2886 20.0539 17.633 22.3434 16.0326 24.826C14.5702 27.3637 13.1353 30.0394 12.1144 32.9358C11.5625 34.3702 11.0658 35.8322 10.7347 37.3493C10.2932 38.8389 10.0449 40.3836 9.76895 41.9283C9.24468 44.9902 9.1619 48.1072 9.21708 51.2243C9.27227 52.7138 9.46542 54.2586 9.5758 55.7757C9.79654 57.2653 10.0173 58.7272 10.2932 60.1892C10.9279 63.058 11.6453 65.7889 12.6111 68.299C13.5216 70.8368 14.6805 73.0987 15.7843 75.14C16.9432 77.1536 18.1297 78.9466 19.3162 80.4362C20.4751 81.9533 21.6065 83.1395 22.5722 84.1049C23.538 85.0428 24.3658 85.7324 24.9452 86.1462C25.4695 86.5599 25.8558 86.753 25.8558 86.753C26.049 86.8634 26.1593 87.084 26.049 87.3047C25.9662 87.4978 25.7179 87.5806 25.5247 87.4978L25.4971 87.4151Z" fill="#798393"/>
<path d="M5.35239 69.2098C5.15924 69.3201 5.04887 69.5684 5.07646 69.7615C5.13165 70.7545 8.00135 74.0371 11.0366 74.975C9.65694 72.2993 5.98704 68.8788 5.35239 69.2098Z" fill="#798393"/>
<path d="M28.7797 96.0221C28.8073 96.2979 29.028 96.5462 29.3039 96.6565C30.518 97.1254 36.1195 95.6635 39.0443 92.7119C35.0157 91.6637 28.7245 95.1118 28.7797 96.0221Z" fill="#798393"/>
<path d="M24.7227 93.7874C24.7227 94.0632 24.9158 94.3391 25.1641 94.4494C26.2955 95.0011 31.7037 94.0081 34.7114 91.3324C31.0139 89.9532 24.7502 92.8771 24.7227 93.7874Z" fill="#798393"/>
<path d="M20.5554 91.664C20.5278 91.9398 20.7209 92.2157 20.9417 92.326C21.9902 92.9329 27.3433 92.0777 30.4062 89.4848C26.9018 88.0228 20.6382 90.7537 20.5554 91.664Z" fill="#798393"/>
<path d="M16.4443 88.9327C16.3891 89.2086 16.5547 89.4844 16.7754 89.6499C17.7688 90.3395 23.1495 89.9534 26.3779 87.6087C22.9839 85.8157 16.5823 88.0225 16.4443 88.9327Z" fill="#798393"/>
<path d="M13.3267 85.9807C13.2715 86.2565 13.3819 86.5324 13.575 86.6979C14.4304 87.4151 19.342 87.3047 22.4601 85.1531C19.5352 83.2222 13.5475 85.098 13.3267 85.9807Z" fill="#798393"/>
<path d="M10.1804 82.8642C10.0976 83.1125 10.1804 83.4159 10.3736 83.5814C11.1462 84.3814 16.0026 84.8503 19.3138 83.1676C16.5544 80.9885 10.4563 82.0643 10.1804 82.8642Z" fill="#798393"/>
<path d="M7.61471 79.8846C7.50434 80.1329 7.58712 80.4363 7.75268 80.6018C8.4701 81.4293 13.2713 82.2017 16.6653 80.7121C14.0715 78.395 7.94583 79.0847 7.61471 79.8846Z" fill="#798393"/>
<path d="M5.79463 76.7958C5.73944 77.0165 5.82222 77.2371 5.96019 77.4026C6.56724 78.1198 10.4579 79.0853 13.6311 77.9819C10.9822 75.5545 5.9326 76.1338 5.79463 76.7958Z" fill="#798393"/>
<path d="M4.85547 73.5132C4.85547 73.6787 4.93825 73.8993 5.02103 74.0373C5.46252 74.6993 8.27703 76.0785 11.3123 75.5544C8.8013 72.5753 4.88306 72.9063 4.85547 73.5132Z" fill="#798393"/>
<path d="M52.9244 97.759C52.9244 97.759 51.3792 97.0969 48.9786 96.628C47.7645 96.4073 46.3296 96.2143 44.812 96.2694C43.322 96.3246 41.6112 96.6004 40.4247 97.5383C39.8452 98.0072 39.4865 98.6693 39.3485 99.3865C39.2382 100.104 39.4037 100.876 39.9004 101.262C40.4247 101.704 41.1145 101.759 41.7492 101.566C42.3562 101.373 42.7425 100.876 42.7425 100.324C42.7425 99.7726 42.4114 99.3313 42.0527 99.2761C41.6664 99.1658 41.3353 99.3865 41.3077 99.5795C41.2525 99.8002 41.3628 100.021 41.418 100.076C41.5008 100.131 41.5284 100.131 41.5284 100.131C41.7216 100.131 41.8871 100.269 41.8871 100.462C41.8871 100.655 41.7492 100.821 41.556 100.821C41.5284 100.821 41.5008 100.821 41.4732 100.821L41.3077 100.793C41.3077 100.793 41.1145 100.766 40.9214 100.517C40.7282 100.297 40.5626 99.883 40.7282 99.414C40.8938 98.8899 41.556 98.5589 42.1631 98.752C42.8253 98.8899 43.2668 99.6347 43.2392 100.352C43.2668 101.097 42.7149 101.897 41.9423 102.145C41.1973 102.421 40.2039 102.366 39.4589 101.814C38.6863 101.207 38.438 100.186 38.5483 99.2761C38.6311 98.3658 39.1278 97.428 39.8728 96.8487C41.3628 95.6901 43.184 95.4419 44.7844 95.3591C46.4124 95.304 47.9024 95.4971 49.1717 95.7177C50.441 95.966 51.462 96.297 52.1794 96.5453C52.8692 96.8211 53.2555 96.959 53.2555 96.959H53.2831C53.5039 97.0418 53.6143 97.29 53.5315 97.5107C53.4211 97.759 53.1728 97.8693 52.9244 97.759C52.952 97.7866 52.952 97.759 52.9244 97.759Z" fill="#798393"/>
<path d="M68.3764 106.862C68.3764 106.862 67.6866 106.09 66.2794 104.931C64.8721 103.773 62.7198 102.228 59.9605 100.738C57.1736 99.2213 53.7244 98.0076 49.9166 96.8215C46.1363 95.6078 42.0801 94.3665 38.0515 92.9321C34.0504 91.4977 30.077 89.8978 26.5451 88.0221C22.9579 86.1739 19.9227 83.9671 17.4669 81.9259C14.9835 79.8847 13.1347 77.9537 11.9482 76.5193C10.7617 75.085 10.2099 74.1471 10.2099 74.1471C10.1823 74.0643 10.1823 73.9816 10.265 73.954C10.3202 73.9264 10.403 73.9264 10.4582 74.0092C10.4582 74.0092 11.0377 74.8643 12.3345 76.2159C13.5762 77.5676 15.5078 79.3605 17.9912 81.3466C20.5021 83.2775 23.4822 85.4843 26.9866 87.2773C30.4909 89.1254 34.4091 90.6977 38.4102 92.1046C42.4112 93.5114 46.4398 94.7802 50.2477 95.9664C54.028 97.1249 57.6151 98.3662 60.4296 99.9661C66.1138 103.028 69.0387 106.338 69.0387 106.338C69.2042 106.504 69.1767 106.752 69.0111 106.917C68.7903 107.055 68.5144 107.028 68.3764 106.862Z" fill="#798393"/>
<path d="M88.4387 29.4601C90.3702 31.6668 93.571 33.1012 96.22 32.7978C95.8337 31.4186 95.6129 29.5152 94.454 28.6601C92.7708 27.4188 90.7565 26.6189 88.687 26.4258C88.3835 27.4188 88.3559 28.3843 88.4387 29.4601Z" fill="#798393"/>
<path d="M55.7949 3.39255C57.7264 2.0685 60.2098 1.5444 62.5001 2.04092C64.7903 2.50985 66.8598 3.97183 68.1015 5.95791C66.032 6.81302 63.7694 7.08887 61.5619 6.61993C59.3545 6.12341 57.3401 5.02003 55.7949 3.39255Z" fill="#798393"/>
<path d="M69.2886 6.26166C67.8537 4.52385 67.1915 2.23434 67.4398 0C69.2334 0.579273 70.9718 1.43439 72.2686 2.81361C73.5655 4.19283 74.3381 6.09616 74.0898 7.94431C72.5446 7.17195 70.9442 6.70302 69.2886 6.26166Z" fill="#798393"/>
<path d="M77.1528 9.40653C75.9663 7.19977 75.6352 4.41374 76.325 1.87598C78.2289 3.28278 79.8845 4.93785 80.8503 6.81359C81.7609 8.57899 82.0368 10.5927 81.3746 12.1926C80.1605 11.1168 78.7256 10.2892 77.1528 9.40653Z" fill="#798393"/>
<path d="M84.1323 14.4264C83.1942 11.8335 83.1942 8.60609 84.3255 5.7373C86.1742 7.99923 87.6367 9.93014 88.2713 12.1921C88.8232 14.1506 88.63 16.4952 87.7747 17.8745C86.8089 16.6607 85.5672 15.6125 84.1323 14.4264Z" fill="#798393"/>
<path d="M90.0112 20.4672C89.5697 17.3778 90.2596 13.4883 92.1911 10.123C93.5156 13.7642 94.4261 16.495 94.4261 19.088C94.4261 21.1844 93.7087 23.3636 92.6602 24.4669C92.0531 23.2256 91.1425 21.9844 90.0112 20.4672Z" fill="#798393"/>
<path d="M94.6463 28.5223C94.5911 25.2949 95.8053 21.1849 98.3162 17.6816C99.0613 22.0951 99.5303 25.1846 99.0888 27.8603C98.7301 29.9567 97.7368 31.9428 96.6054 32.7979C96.2467 31.529 95.5293 30.1774 94.6463 28.5223Z" fill="#798393"/>
<path d="M97.9297 36.467C98.8955 33.5706 101.296 30.2605 104.276 28.3848C104.083 31.6949 104.055 34.7016 103.034 36.9359C102.151 38.8393 100.358 40.2461 98.8127 40.9357C98.8403 39.5013 98.3436 38.2876 97.9297 36.467Z" fill="#798393"/>
<path d="M99.4473 44.4934C100.855 41.6522 103.862 38.48 107.284 36.8525C106.428 40.4109 105.794 43.528 104.386 45.652C103.2 47.3898 101.241 48.5208 99.668 48.9897C99.8612 47.5829 99.5852 46.3692 99.4473 44.4934Z" fill="#798393"/>
<path d="M99.2261 54.59C100.992 51.9695 104.414 49.2386 108.028 48.0801C106.676 51.5005 105.655 54.4797 103.972 56.383C102.565 57.9553 100.468 58.7828 98.8398 59.0311C98.8122 59.0587 98.8398 56.9623 99.2261 54.59Z" fill="#798393"/>
<path d="M96.798 65.4306C98.7572 63.1686 102.206 61.0998 105.573 60.6309C103.89 63.7479 102.537 66.5063 100.744 68.0511C99.2814 69.3475 97.2947 69.7889 95.8047 69.7337C95.8047 69.7337 96.1082 67.6925 96.798 65.4306Z" fill="#798393"/>
<path d="M97.3775 36.5768C95.308 34.3425 91.7209 32.6598 88.2441 32.1357C89.7894 35.0873 91.0862 37.4595 92.935 39.087C94.5078 40.4662 96.7429 40.9903 98.426 40.9903C97.819 39.6939 97.7362 38.3974 97.3775 36.5768Z" fill="#798393"/>
<path d="M98.7569 44.5213C96.9081 42.0939 93.183 40.1078 89.7891 39.2803C91.0308 42.3697 92.1345 44.8523 93.8177 46.6453C95.2525 48.1625 97.4324 48.9072 99.088 49.0452C99.1432 47.5004 99.0328 45.9833 98.7569 44.5213Z" fill="#798393"/>
<path d="M98.5924 54.6446C97.1024 51.8586 93.6256 49.1277 90.3145 47.6934C91.1423 51.0311 91.8873 53.6792 93.2945 55.748C94.481 57.4858 96.4953 58.6168 98.1509 59.1133C98.4821 57.6238 98.62 56.1342 98.5924 54.6446Z" fill="#798393"/>
<path d="M96.468 65.8437C95.861 62.9474 93.4879 59.7476 90.8942 57.7891C90.7562 61.0992 90.7286 63.7473 91.446 65.9541C92.0531 67.8022 93.5707 69.2366 94.9228 70.009C95.585 68.6573 96.1093 67.2781 96.468 65.8437Z" fill="#798393"/>
<path d="M92.2179 75.4988C92.3283 72.8231 90.8934 69.8716 89.0447 68.0234C88.2169 71.0301 87.6098 73.43 87.7754 75.4712C87.9133 77.1815 88.9343 78.5055 89.9552 79.2227C90.8382 78.0366 91.5832 76.7953 92.2179 75.4988Z" fill="#798393"/>
<path d="M84.4641 85.65C85.6782 83.4432 85.6506 80.5193 84.7676 78.4229C82.7809 80.7124 81.2081 82.5605 80.5182 84.2983C79.9388 85.7603 80.2699 87.1947 80.8769 88.105C82.1462 87.3602 83.3603 86.5603 84.4641 85.65Z" fill="#798393"/>
<path d="M69.5356 6.28906L74.0057 8.05447C73.2055 9.57161 71.5223 10.4543 69.8115 10.675C68.1283 10.8957 66.39 10.5646 64.7344 10.1233C66.1692 7.69587 67.4109 7.03384 69.5356 6.28906Z" fill="#798393"/>
<path d="M78.3117 10.0133C75.7731 9.70984 73.0414 10.5374 71.2754 12.4683C72.8482 13.4613 74.4762 13.7648 76.2974 13.7648C78.2565 13.7923 80.326 13.2131 81.2366 12.1649C80.1328 11.3097 78.3117 10.0133 78.3117 10.0133Z" fill="#798393"/>
<path d="M85.0429 15.227C83.1941 14.565 81.0695 14.5374 79.2207 15.2546L84.8773 18.7303C85.8983 18.6751 86.8089 18.4544 87.4159 17.9855C86.5605 16.9097 85.0429 15.227 85.0429 15.227Z" fill="#798393"/>
<path d="M88.3555 19.7227C88.2727 20.9364 88.1348 22.3983 88.1348 23.6121C88.1348 23.5845 88.1899 23.7224 88.1899 23.6672C89.4592 24.1913 90.8113 24.4672 92.1634 24.4948C91.2252 22.7018 90.0111 20.8812 88.3555 19.7227Z" fill="#798393"/>
<path d="M82.5041 87.4151C82.5041 87.4151 82.8353 87.2495 83.4975 86.7806C84.1322 86.3393 84.9599 85.6221 85.9809 84.6566C86.9743 83.6636 88.1608 82.4774 89.3473 80.9327C90.5614 79.4156 91.8031 77.595 93.0172 75.5537C94.1761 73.4573 95.3902 71.1678 96.3008 68.5749C97.2941 66.0371 98.0391 63.2235 98.6738 60.3271C98.9497 58.8652 99.1705 57.3756 99.3912 55.8585C99.5016 54.3137 99.6948 52.7966 99.7499 51.1967C99.8327 48.1072 99.7223 44.9074 99.1981 41.7352C98.9497 40.1629 98.6738 38.5906 98.2323 37.0735C97.8736 35.5287 97.3769 34.0392 96.8251 32.5496C95.7765 29.5981 94.3417 26.8396 92.824 24.2743C91.196 21.7641 89.5128 19.4194 87.6365 17.4058C85.7877 15.3645 83.8562 13.6543 81.9247 12.2475C80.0208 10.8131 78.1444 9.68213 76.4336 8.77184C75.5507 8.35807 74.7504 7.94431 74.0054 7.58571C73.2052 7.30986 72.4878 7.03402 71.8532 6.78576C70.5563 6.26166 69.4525 6.12373 68.7627 5.93064C68.0453 5.76514 67.659 5.6548 67.659 5.6548C67.6038 5.62721 67.521 5.68238 67.521 5.73755C67.4934 5.79272 67.5486 5.87547 67.6038 5.87547C67.6038 5.87547 67.9901 5.98581 68.6799 6.20649C69.3698 6.45475 70.4459 6.67542 71.6876 7.2547C72.3222 7.50296 73.0121 7.80638 73.7847 8.10981C74.5297 8.49599 75.3023 8.90976 76.1577 9.35111C77.8133 10.289 79.6345 11.4199 81.4556 12.9095C83.3044 14.3439 85.1255 16.1093 86.9467 18.0678C88.7126 20.0539 90.3958 22.3434 91.9686 24.826C93.4311 27.3637 94.8659 30.0394 95.8869 32.9358C96.4387 34.3702 96.9354 35.8322 97.2665 37.3493C97.708 38.8389 97.9564 40.3836 98.2323 41.9283C98.7566 44.9902 98.8394 48.1072 98.7842 51.2243C98.729 52.7138 98.5358 54.2586 98.4255 55.7757C98.2047 57.2653 97.984 58.7272 97.708 60.1892C97.0734 63.058 96.356 65.7889 95.3902 68.299C94.4796 70.8368 93.3207 73.0987 92.217 75.14C91.0581 77.1536 89.8715 78.9466 88.685 80.4362C87.5261 81.9533 86.3948 83.1395 85.429 84.1049C84.4633 85.0428 83.6355 85.7324 83.056 86.1462C82.5317 86.5599 82.1454 86.753 82.1454 86.753C81.9523 86.8634 81.8419 87.084 81.9523 87.3047C82.0351 87.4978 82.2834 87.5806 82.4766 87.4978L82.5041 87.4151Z" fill="#798393"/>
<path d="M102.676 69.2098C102.87 69.3201 102.98 69.5684 102.952 69.7615C102.897 70.7545 100.027 74.0095 96.9922 74.975C98.3443 72.2993 102.042 68.8788 102.676 69.2098Z" fill="#798393"/>
<path d="M79.2491 96.0221C79.2215 96.2979 79.0007 96.5462 78.7248 96.6565C77.5107 97.1254 71.9093 95.6635 68.9844 92.7119C72.9854 91.6637 79.3043 95.1118 79.2491 96.0221Z" fill="#798393"/>
<path d="M83.2778 93.7874C83.2778 94.0632 83.0847 94.3391 82.8363 94.4494C81.705 95.0011 76.2967 94.0081 73.2891 91.3324C77.0142 89.9532 83.2502 92.8771 83.2778 93.7874Z" fill="#798393"/>
<path d="M87.4445 91.664C87.4721 91.9398 87.279 92.2157 87.0582 92.326C86.0097 92.9329 80.6566 92.0777 77.5938 89.4848C81.0981 88.0228 87.3618 90.7537 87.4445 91.664Z" fill="#798393"/>
<path d="M91.584 88.9327C91.6391 89.2086 91.4736 89.4844 91.2528 89.6499C90.2595 90.3395 84.8788 89.9534 81.6504 87.6087C85.0444 85.8157 91.446 88.0225 91.584 88.9327Z" fill="#798393"/>
<path d="M94.6744 85.9807C94.7296 86.2565 94.6192 86.5324 94.426 86.6979C93.5707 87.4151 88.6591 87.3047 85.541 85.1531C88.4935 83.2222 94.4812 85.098 94.6744 85.9807Z" fill="#798393"/>
<path d="M97.8189 82.8642C97.9017 83.1125 97.8189 83.4159 97.6258 83.5814C96.8256 84.3814 91.9691 84.8227 88.6855 83.1676C91.4449 80.9885 97.543 82.0643 97.8189 82.8642Z" fill="#798393"/>
<path d="M100.385 79.8846C100.495 80.1329 100.412 80.4363 100.247 80.6018C99.5292 81.4293 94.728 82.2017 91.334 80.7121C93.9278 78.395 100.053 79.0847 100.385 79.8846Z" fill="#798393"/>
<path d="M102.235 76.7958C102.29 76.9889 102.18 77.2371 102.042 77.4026C101.435 78.1198 97.5443 79.0853 94.3711 77.9819C97.0476 75.5545 102.097 76.1338 102.235 76.7958Z" fill="#798393"/>
<path d="M103.144 73.5132C103.144 73.6787 103.062 73.8993 102.979 74.0373C102.537 74.6993 99.7228 76.0785 96.6875 75.5544C99.1985 72.5753 103.117 72.9063 103.144 73.5132Z" fill="#798393"/>
<path d="M55.0779 97.759C55.0779 97.759 56.6231 97.0969 59.0237 96.628C60.2378 96.4073 61.6727 96.2143 63.1903 96.2694C64.6803 96.3246 66.3911 96.6004 67.5776 97.5383C68.1571 98.0072 68.5158 98.6693 68.6538 99.3865C68.7641 100.104 68.5986 100.876 68.1019 101.262C67.5776 101.704 66.8878 101.759 66.2532 101.566C65.6461 101.373 65.2598 100.876 65.2598 100.324C65.2598 99.7726 65.5909 99.3313 65.9496 99.2761C66.3359 99.1658 66.6671 99.3865 66.6947 99.5795C66.7498 99.8002 66.6395 100.021 66.5843 100.076C66.5015 100.131 66.4739 100.131 66.4739 100.131C66.2808 100.131 66.1152 100.269 66.1152 100.462C66.1152 100.655 66.2532 100.821 66.4463 100.821C66.4739 100.821 66.5015 100.821 66.5291 100.821L66.6947 100.793C66.6947 100.793 66.8878 100.766 67.081 100.517C67.2741 100.297 67.4397 99.883 67.2741 99.414C67.1086 98.8899 66.4463 98.5589 65.8393 98.752C65.177 98.8899 64.7355 99.6347 64.7631 100.352C64.7355 101.097 65.2874 101.897 66.06 102.145C66.805 102.421 67.7984 102.366 68.5434 101.814C69.316 101.207 69.5644 100.186 69.454 99.2761C69.3712 98.3658 68.8745 97.428 68.1295 96.8487C66.6395 95.6901 64.8183 95.4419 63.2179 95.3591C61.5899 95.304 60.0999 95.4971 58.8306 95.7177C57.5613 95.966 56.5403 96.297 55.8229 96.5453C55.1331 96.8211 54.7468 96.959 54.7468 96.959H54.7192C54.4984 97.0418 54.3881 97.29 54.4708 97.5107C54.5812 97.759 54.8296 97.8693 55.0779 97.759Z" fill="#798393"/>
<path d="M39.6524 106.862C39.6524 106.862 40.3422 106.09 41.7495 104.931C43.1567 103.773 45.309 102.228 48.0683 100.738C50.8552 99.2213 54.3044 98.0076 58.1123 96.8215C61.8925 95.6078 65.9488 94.3665 69.9774 92.9321C73.9784 91.4977 77.9518 89.8978 81.4838 88.0221C85.0709 86.1739 88.1061 83.9671 90.5619 81.9259C93.0453 79.8847 94.8941 77.9537 96.0806 76.5193C97.2671 75.085 97.819 74.1471 97.819 74.1471C97.8466 74.0643 97.8466 73.9816 97.7638 73.954C97.7086 73.9264 97.6258 73.9264 97.5706 74.0092C97.5706 74.0092 96.9912 74.8643 95.6943 76.2159C94.4526 77.5676 92.5211 79.3605 90.0377 81.3466C87.5267 83.2775 84.5466 85.4843 81.0423 87.2773C77.5379 89.1254 73.6197 90.6977 69.6187 92.1046C65.6176 93.5114 61.589 94.7802 57.7811 95.9664C54.0009 97.1249 50.4137 98.3662 47.5992 99.9661C41.915 103.028 38.9901 106.338 38.9901 106.338C38.8246 106.504 38.8522 106.752 39.0177 106.917C39.2385 107.055 39.4868 107.028 39.6524 106.862Z" fill="#798393"/>
<path d="M54.0274 97.8141C53.9722 97.8141 53.917 97.8141 53.8342 97.7865C37.8853 95.1108 18.6528 79.0843 18.6528 63.1405C18.6528 52.1895 18.5977 19.9984 18.5977 19.9984C18.5977 19.6674 18.7632 19.3364 19.0667 19.1709C39.9548 6.78548 68.0448 6.78548 88.9329 19.1709C89.2364 19.3364 89.402 19.6674 89.402 19.9984C89.402 19.9984 89.3468 52.1895 89.3468 63.1405C89.3468 79.0291 70.2522 95.0281 54.3309 97.7589C54.2481 97.8141 54.1378 97.8141 54.0274 97.8141ZM20.5292 20.5501C20.5292 24.8257 20.5844 53.0446 20.5844 63.1681C20.5844 76.5741 37.4163 93.042 53.9998 95.9108C70.5833 93.042 87.4152 76.5741 87.4152 63.1681C87.4152 53.0446 87.4704 24.8533 87.4704 20.5501C67.3825 8.85432 40.6171 8.85432 20.5292 20.5501Z" fill="#798393"/>
<path d="M87.9117 19.8334C77.9229 14.0406 66.1958 10.9512 54.0272 10.9512C41.8586 10.9512 30.1038 14.0406 20.1151 19.8334L19.7012 20.0816V23.6124C19.7288 32.3291 19.7564 54.4518 19.7564 63.1685C19.7564 76.878 36.9746 93.7872 53.8616 96.7112L53.9996 96.7387L54.1376 96.7112C71.0246 93.7872 88.2428 76.8504 88.2428 63.1685C88.2428 54.4242 88.2704 32.1636 88.298 23.5297V20.1092L87.9117 19.8334ZM87.4426 63.1409C87.4426 76.5469 70.6107 93.0148 54.0272 95.8836C37.4436 93.0148 20.6117 76.5469 20.6117 63.1409C20.5842 53.045 20.529 24.8261 20.529 20.5506C40.6169 8.88234 67.3823 8.88234 87.4978 20.5506C87.4702 24.8261 87.4426 53.045 87.4426 63.1409Z" fill="#798393"/>
<path opacity="0.8" d="M87.9116 19.833C77.9229 14.0403 66.1957 10.4268 54.0271 10.4268C40.0097 10.4268 30.1313 14.0127 20.1426 19.833C30.1313 14.0403 41.8585 10.9509 54.0271 10.9509C66.1957 10.9509 77.9229 14.0403 87.9116 19.833Z" fill="#798393"/>
<path opacity="0.8" d="M54.138 96.7111L54 96.7387C54 96.7387 64.651 95.9387 76.2126 86.0911C87.7741 76.2434 88.188 64.6855 88.188 64.6855L88.1329 64.7407C86.8912 78.1467 70.3904 93.8975 54.138 96.7111Z" fill="#798393"/>
<path d="M37.7754 24.7706V21.8467H37.941V24.6051H39.569V24.7706H37.7754Z" fill="#798393"/>
<path d="M40.0664 21.8467H40.232V24.7706H40.0664V21.8467Z" fill="#798393"/>
<path d="M41.1699 21.709C41.2803 21.8745 41.3907 22.04 41.501 22.2055C41.6114 22.371 41.7494 22.5641 41.8598 22.7296C41.9977 22.8951 42.1081 23.0882 42.2185 23.2537C42.3288 23.4192 42.4392 23.5571 42.522 23.6951C42.5496 23.6399 42.6048 23.5847 42.66 23.502C42.7151 23.4192 42.7979 23.3089 42.8807 23.1985C42.9635 23.0882 43.0463 22.9503 43.129 22.8399C43.2118 22.702 43.3222 22.5641 43.405 22.4538C43.4878 22.3158 43.5981 22.2055 43.6809 22.0676C43.7637 21.9297 43.8465 21.8193 43.9292 21.7366V24.7984H43.7637V22.371C43.7637 22.3434 43.7637 22.3158 43.7637 22.2883C43.7637 22.2607 43.7637 22.2331 43.7637 22.2055C43.6809 22.3434 43.5705 22.4813 43.4602 22.6469C43.3498 22.8124 43.2394 22.9779 43.129 23.1158C43.0187 23.2813 42.9083 23.4468 42.8255 23.5847C42.7151 23.7226 42.6324 23.8606 42.5496 23.9985C42.4944 23.9433 42.4392 23.8606 42.3564 23.7502C42.2737 23.6399 42.2185 23.5296 42.1357 23.4192C42.0529 23.3089 41.9701 23.171 41.8873 23.0606C41.8046 22.9227 41.7218 22.8124 41.639 22.702C41.5562 22.5917 41.501 22.4813 41.4459 22.3986C41.3907 22.3158 41.3631 22.2607 41.3355 22.2055C41.3355 22.2331 41.3355 22.2607 41.3355 22.2883C41.3355 22.3158 41.3355 22.3434 41.3355 22.371V24.7709H41.1699V21.709Z" fill="#798393"/>
<path d="M44.8672 21.8467H45.0327V24.7706H44.8672V21.8467Z" fill="#798393"/>
<path d="M47.4615 21.8467V22.0122H46.6337V24.7706H46.4682V22.0122H45.668V21.8467H47.4615Z" fill="#798393"/>
<path d="M48.0684 24.7706V21.8467H49.8619V22.0122H48.2339V23.2259H49.6964V23.3914H48.2339V24.6327H49.9171V24.7982H48.0684V24.7706Z" fill="#798393"/>
<path d="M50.6055 21.8467H51.2401C51.5436 21.8467 51.792 21.9018 51.9851 21.9846C52.1783 22.0674 52.3438 22.1777 52.4818 22.3432C52.6198 22.4811 52.7026 22.6466 52.7577 22.8121C52.8129 22.9776 52.8405 23.1707 52.8405 23.3362C52.8405 23.5569 52.8129 23.75 52.7302 23.9431C52.6474 24.081 52.5646 24.2465 52.4266 24.3844C52.2887 24.5224 52.1231 24.6051 51.9575 24.6879C51.7644 24.743 51.5988 24.7982 51.3781 24.7982H50.6055V21.8467ZM51.3781 24.6051C51.5436 24.6051 51.7368 24.5775 51.8748 24.5224C52.0403 24.4672 52.1783 24.3844 52.2887 24.2741C52.399 24.1638 52.5094 24.0258 52.5646 23.8603C52.6474 23.6948 52.675 23.5293 52.675 23.3087C52.675 23.1431 52.6474 22.9776 52.5922 22.8397C52.537 22.6742 52.4542 22.5363 52.3438 22.426C52.2335 22.3156 52.0955 22.2053 51.9023 22.1225C51.7368 22.0398 51.516 22.0122 51.2953 22.0122H50.771V24.6051H51.3781Z" fill="#798393"/>
<path d="M54.5801 24.7706V21.8467H56.3736V22.0122H54.7456V23.2259H56.2081V23.3914H54.7456V24.6327H56.4288V24.7982H54.5801V24.7706Z" fill="#798393"/>
<path d="M57.1191 21.8467H57.7538C58.0573 21.8467 58.3057 21.9018 58.4988 21.9846C58.692 22.0674 58.8575 22.1777 58.9955 22.3432C59.1334 22.4811 59.2162 22.6466 59.2714 22.8121C59.3266 22.9776 59.3542 23.1707 59.3542 23.3362C59.3542 23.5569 59.3266 23.75 59.2438 23.9431C59.161 24.1086 59.0507 24.2741 58.9127 24.412C58.7747 24.55 58.6092 24.6327 58.4436 24.7155C58.2781 24.7706 58.0849 24.8258 57.8642 24.8258H57.1191V21.8467ZM57.8917 24.6051C58.0573 24.6051 58.2505 24.5775 58.3884 24.5224C58.554 24.4672 58.692 24.3844 58.8023 24.2741C58.9127 24.1638 59.0231 24.0258 59.0783 23.8603C59.161 23.6948 59.1886 23.5293 59.1886 23.3087C59.1886 23.1431 59.161 22.9776 59.1059 22.8397C59.0507 22.6742 58.9679 22.5363 58.8575 22.426C58.7471 22.3156 58.6092 22.2053 58.416 22.1225C58.2505 22.0398 58.0297 22.0122 57.809 22.0122H57.2847V24.6051H57.8917Z" fill="#798393"/>
<path d="M60.0703 21.8467H60.2359V24.7706H60.0703V21.8467Z" fill="#798393"/>
<path d="M62.6371 21.8467V22.0122H61.8369V24.7706H61.6713V22.0122H60.8711V21.8467H62.6371Z" fill="#798393"/>
<path d="M63.2715 21.8467H63.437V24.7706H63.2715V21.8467Z" fill="#798393"/>
<path d="M64.127 23.3089C64.127 23.0882 64.1545 22.8951 64.2373 22.7296C64.3201 22.5365 64.4305 22.3986 64.5684 22.2607C64.7064 22.1228 64.872 22.0124 65.0375 21.9297C65.2307 21.8469 65.4238 21.8193 65.617 21.8193C65.8101 21.8193 66.0309 21.8469 66.1964 21.9297C66.3896 22.0124 66.5276 22.1228 66.6655 22.2607C66.8035 22.3986 66.9139 22.5641 66.9967 22.7296C67.0794 22.9227 67.107 23.1158 67.107 23.3089C67.107 23.502 67.0794 23.6951 66.9967 23.8882C66.9139 24.0813 66.8035 24.2192 66.6655 24.3571C66.5276 24.495 66.362 24.6054 66.1964 24.6881C66.0033 24.7709 65.8101 24.7985 65.617 24.7985C65.3962 24.7985 65.2031 24.7709 65.0375 24.6881C64.8444 24.6054 64.7064 24.495 64.5684 24.3571C64.4305 24.2192 64.3201 24.0537 64.2373 23.8882C64.1545 23.6951 64.127 23.502 64.127 23.3089ZM64.2925 23.3089C64.2925 23.502 64.3201 23.6675 64.4029 23.833C64.4581 23.9985 64.5684 24.1364 64.6788 24.2468C64.7892 24.3571 64.9272 24.4674 65.0927 24.5226C65.2583 24.6054 65.4238 24.6329 65.617 24.6329C65.8101 24.6329 65.9757 24.6054 66.1413 24.5226C66.3068 24.4399 66.4448 24.3571 66.5552 24.2468C66.6655 24.1364 66.7759 23.9985 66.8311 23.833C66.9139 23.6675 66.9415 23.502 66.9415 23.3089C66.9415 23.1158 66.9139 22.9503 66.8311 22.7848C66.7483 22.6193 66.6655 22.4814 66.5552 22.371C66.4448 22.2607 66.3068 22.1504 66.1413 22.0952C65.9757 22.0124 65.8101 21.9848 65.617 21.9848C65.4238 21.9848 65.2583 22.0124 65.0927 22.0952C64.9272 22.1779 64.7892 22.2607 64.6788 22.371C64.5684 22.4814 64.4581 22.6469 64.4029 22.7848C64.3201 22.9503 64.2925 23.1158 64.2925 23.3089Z" fill="#798393"/>
<path d="M70.2527 21.8469V24.9088C70.0871 24.7157 69.9216 24.495 69.7284 24.2743C69.5353 24.0537 69.3421 23.8054 69.1214 23.5571C68.9282 23.3089 68.735 23.0882 68.5419 22.8399C68.3487 22.6193 68.1832 22.3986 68.0452 22.2055L67.9624 22.0952V22.2331V24.7709H67.7969V21.709C67.9624 21.9021 68.128 22.1228 68.3211 22.371C68.5143 22.5917 68.7075 22.8399 68.9006 23.0606C69.0938 23.3089 69.2869 23.5296 69.4801 23.7502C69.6732 23.9709 69.8388 24.1916 70.0043 24.3847L70.0871 24.495V24.3571V21.8469H70.2527Z" fill="#798393"/>
<path d="M45.0588 77.5126H43.8723V70.782H42.6582L42.6858 70.2028C43.2377 70.2028 44.0103 70.0924 45.0588 69.3477V77.5126Z" fill="#798393"/>
<path d="M51.7908 73.2646C51.7908 75.3611 51.0734 77.5954 49.0591 77.5954C47.5139 77.5954 46.4102 76.3265 46.4102 73.5957C46.4102 71.0579 47.3759 69.3477 49.2247 69.3477C51.1562 69.3477 51.7908 71.251 51.7908 73.2646ZM49.1971 76.7679C50.2732 76.7679 50.6595 75.0301 50.6595 73.1267C50.6595 70.5614 49.9421 69.8993 49.335 69.8993C48.3141 69.8993 47.7622 71.6923 47.7622 73.5681C47.7622 75.0852 48.1209 76.7679 49.1971 76.7679Z" fill="#798393"/>
<path d="M58.2205 73.2646C58.2205 75.3611 57.5031 77.5954 55.4888 77.5954C53.9436 77.5954 52.8398 76.3265 52.8398 73.5957C52.8398 71.0579 53.8056 69.3477 55.6544 69.3477C57.5859 69.3477 58.2205 71.251 58.2205 73.2646ZM55.5992 76.7679C56.6753 76.7679 57.0616 75.0301 57.0616 73.1267C57.0616 70.5614 56.3442 69.8993 55.7371 69.8993C54.7162 69.8993 54.1643 71.6923 54.1643 73.5681C54.1919 75.0852 54.5506 76.7679 55.5992 76.7679Z" fill="#798393"/>
<path d="M61.5601 71.6096C61.5601 72.4647 61.2014 73.4302 60.2632 73.4302C59.5458 73.4302 59.0215 72.8785 59.0215 71.6372C59.0215 70.6165 59.5182 69.8718 60.346 69.8718C61.3117 69.8718 61.5601 70.7545 61.5601 71.6096ZM60.346 73.0164C60.7875 73.0164 61.0082 72.3819 61.0082 71.6096C61.0082 70.5062 60.7047 70.2028 60.3736 70.2028C59.9045 70.2028 59.6285 70.8648 59.6285 71.6647C59.6285 72.0785 59.6837 73.0164 60.346 73.0164ZM61.0634 77.5126H60.4287L63.1329 69.3477H63.7951L61.0634 77.5126ZM65.1748 75.6921C65.1748 76.5472 64.8161 77.5126 63.8779 77.5126C63.1605 77.5126 62.6362 76.961 62.6362 75.7197C62.6362 74.699 63.1329 73.9543 63.9607 73.9543C64.954 73.9543 65.1748 74.837 65.1748 75.6921ZM63.9607 77.0989C64.4022 77.0989 64.6505 76.4644 64.6505 75.6921C64.6505 74.5887 64.347 74.2853 64.0159 74.2853C63.5468 74.2853 63.2708 74.9473 63.2708 75.7472C63.2708 76.161 63.2984 77.0989 63.9607 77.0989Z" fill="#798393"/>
<path d="M39.0978 71.9404C39.2358 73.4851 38.6839 74.2299 38.408 74.5058C38.3804 74.423 38.3252 74.2851 38.27 74.0644C38.1872 73.7334 38.132 73.2369 38.0768 72.7404C38.0217 72.2438 37.9665 71.7749 37.8837 71.3887C37.8285 71.0301 37.7457 70.7819 37.7457 70.7819C37.7457 70.7543 37.6905 70.7267 37.6629 70.7543C37.6353 70.7543 37.6078 70.7819 37.6353 70.837C37.6353 70.837 37.6905 71.0853 37.7181 71.4439C37.7457 71.8025 37.7733 72.299 37.7733 72.7955C37.7733 73.2921 37.8009 73.7886 37.8561 74.1748C37.8561 74.2299 37.8837 74.2851 37.8837 74.3403C35.3451 71.9956 37.249 70.1198 37.387 68.851C37.4146 68.8234 38.9598 70.3405 39.0978 71.9404Z" fill="#798393"/>
<path d="M37.47 75.1677C37.4424 75.1677 37.4148 75.1677 37.3873 75.1677C37.0009 75.2229 36.5319 75.3608 36.0628 75.4712C35.5937 75.6091 35.1246 75.747 34.7659 75.8022C34.4072 75.8849 34.1588 75.9125 34.1588 75.9125C34.1312 75.9125 34.1037 75.9401 34.1037 75.9677C34.1037 75.9953 34.1312 76.0229 34.1588 76.0229C34.1588 76.0229 34.4072 76.0229 34.7935 75.9677C35.1522 75.9125 35.6489 75.8298 36.1456 75.747C36.6422 75.6643 37.1113 75.5815 37.47 75.5539C37.6632 75.5263 37.8287 75.5539 37.9115 75.5539C37.7736 75.8849 37.2493 76.6849 35.6489 77.0159C34.0485 77.3469 32.1445 76.2987 32.1445 76.2987C33.3034 75.8574 34.5176 73.5127 37.47 75.1677Z" fill="#798393"/>
<path d="M34.4905 71.1959C35.2631 71.9131 35.7322 72.9613 35.953 73.513L32.3934 71.0579C32.3658 71.0304 32.3382 71.0579 32.3382 71.0579C32.3106 71.0855 32.3382 71.1131 32.3382 71.1131L35.7322 73.8716C35.2079 73.844 34.1594 73.7336 33.1384 73.044C31.7036 72.0786 31.3173 70.8649 30.5723 69.7891C31.8967 70.1477 33.3868 70.2028 34.4905 71.1959Z" fill="#798393"/>
<path d="M68.8714 71.9404C68.7334 73.4851 69.2853 74.2299 69.5612 74.5058C69.5888 74.423 69.644 74.2851 69.6992 74.0644C69.782 73.7334 69.8372 73.2369 69.8923 72.7404C69.9475 72.2438 70.0027 71.7749 70.0579 71.3887C70.1131 71.0301 70.1959 70.7819 70.1959 70.7819C70.1959 70.7543 70.2511 70.7267 70.2786 70.7543C70.3062 70.7543 70.3338 70.7819 70.3062 70.837C70.3062 70.837 70.2511 71.0853 70.2235 71.4439C70.1959 71.8025 70.1683 72.299 70.1683 72.7955C70.1683 73.2921 70.1407 73.7886 70.0855 74.1748C70.0855 74.2299 70.0579 74.2851 70.0579 74.3403C72.5965 71.9956 70.6925 70.1198 70.5546 68.851C70.5546 68.8234 69.0094 70.3405 68.8714 71.9404Z" fill="#798393"/>
<path d="M70.5001 75.1677C70.5277 75.1677 70.5553 75.1677 70.5829 75.1677C70.9692 75.2229 71.4383 75.3608 71.9073 75.4712C72.3764 75.6091 72.8455 75.747 73.2042 75.8022C73.5629 75.8849 73.8113 75.9125 73.8113 75.9125C73.8389 75.9125 73.8665 75.9401 73.8665 75.9677C73.8665 75.9953 73.8389 76.0229 73.8113 76.0229C73.8113 76.0229 73.5629 76.0229 73.1766 75.9677C72.8179 75.9125 72.3212 75.8298 71.8246 75.747C71.3555 75.6643 70.8588 75.5815 70.5001 75.5539C70.3069 75.5263 70.1414 75.5539 70.0586 75.5539C70.1966 75.8849 70.7208 76.6849 72.3212 77.0159C73.9216 77.3469 75.8256 76.2987 75.8256 76.2987C74.6667 75.8574 73.4526 73.5127 70.5001 75.1677Z" fill="#798393"/>
<path d="M73.5074 71.1959C72.7347 71.9131 72.2657 72.9613 72.0449 73.513L75.6044 71.0579C75.632 71.0304 75.6596 71.0579 75.6596 71.0579C75.6872 71.0855 75.6596 71.1131 75.6596 71.1131L72.2657 73.8716C72.7899 73.844 73.8385 73.7336 74.8594 73.044C76.2943 72.0786 76.6806 70.8649 77.4256 69.7891C76.1011 70.1477 74.6111 70.2028 73.5074 71.1959Z" fill="#798393"/>
<path d="M33.0832 32.1356V37.2939C34.8768 37.2663 35.5942 35.6664 35.5942 34.2044C35.5942 32.9079 35.2079 31.2529 32.5865 31.2529C30.793 31.2529 29.3857 32.3562 29.3857 34.3147C29.3857 35.556 29.8824 35.9698 30.0204 36.1077C28.889 36.1077 28.1992 35.5836 28.1992 34.2871C28.1992 32.3562 30.3791 30.7012 32.8349 30.7012C35.5114 30.7012 37.0291 32.1356 37.0291 33.9561C37.0291 35.6664 35.815 37.7352 33.4143 37.7352H33.0832V42.066H31.4552V32.3562L33.0832 32.1356Z" fill="#798393"/>
<path d="M39.2637 34.4802V35.7491C39.7328 35.0319 40.2019 34.3975 41.0573 34.3975C41.7471 34.3975 42.0506 34.8112 42.0506 35.3077C42.0506 35.9146 41.6091 36.1077 41.3608 36.1077C41.0021 36.1077 40.9469 35.7215 40.5054 35.7215C40.0639 35.7215 39.6224 36.1077 39.2637 36.4663V42.0383H37.7461V34.4802H39.2637Z" fill="#798393"/>
<path d="M44.3133 39.0316C44.4513 40.6315 45.1963 40.9901 46.0517 40.9901C47.0174 40.9901 47.928 40.5212 48.4523 39.3351H48.949C48.4247 40.8246 46.9898 42.1487 45.4446 42.1487C44.0374 42.1487 42.7129 41.2384 42.7129 38.6455C42.7129 36.9352 43.4303 34.3975 45.6102 34.3975C46.6035 34.3975 47.6245 34.7561 47.6245 36.356C47.5969 37.7903 46.3552 38.811 44.3133 39.0316ZM46.6311 36.2456C46.6311 35.5008 46.3552 35.1698 45.8861 35.1698C44.8376 35.1698 44.3133 36.9628 44.3133 38.4524C45.7206 38.2317 46.6311 37.3766 46.6311 36.2456Z" fill="#798393"/>
<path d="M49.9432 34.4802V35.5284C50.4674 34.563 51.1021 34.3975 51.5988 34.3975C52.6473 34.3975 53.144 34.9767 53.3923 35.7491C53.9442 34.5354 54.6616 34.3975 55.1307 34.3975C56.9794 34.3975 57.2002 35.9422 57.2002 37.1007C57.2002 37.8179 57.1174 38.8937 57.1174 39.6661C57.1174 39.9971 57.145 40.9626 57.8072 40.9626C58.2763 40.9626 58.6626 40.466 58.911 39.3075H59.4628C59.0213 41.8453 58.028 42.1211 57.3933 42.1211C56.124 42.1211 55.6274 41.0177 55.6274 39.804C55.6274 39.4178 55.6826 37.5697 55.6826 37.1559C55.6826 35.8594 55.2411 35.5284 54.7168 35.5284C54.0822 35.5284 53.6958 35.9974 53.5303 37.1835V42.0383H52.0127V36.9904C52.0127 36.2732 51.9299 35.556 51.1573 35.556C50.5226 35.556 50.2467 36.0801 49.9708 37.2111V42.0659H48.4531V34.4802H49.9432Z" fill="#798393"/>
<path d="M59.6828 31.2803C60.2347 31.2803 60.7038 31.7492 60.7038 32.3009C60.7038 32.8526 60.2347 33.2939 59.6828 33.2939C59.1309 33.2939 58.6895 32.8526 58.6895 32.3009C58.6895 31.7768 59.1309 31.2803 59.6828 31.2803ZM60.483 34.4801V39.6384C60.483 40.0245 60.5106 40.99 61.1728 40.99C61.6695 40.99 62.0282 40.4383 62.2766 39.3349H62.8284C62.3869 41.8727 61.3936 42.1485 60.7314 42.1485C59.3241 42.1485 58.993 40.9348 58.993 39.9418V34.4801H60.483Z" fill="#798393"/>
<path d="M67.3818 34.4805V39.6388C67.3818 40.0249 67.4094 40.9904 68.0717 40.9904C68.5684 40.9904 68.9271 40.4387 69.1754 39.3353H69.7273C69.2858 41.8731 68.2924 42.1489 67.6302 42.1489C66.692 42.1489 66.3057 41.4593 66.1677 40.7146C65.7814 41.7076 65.1192 42.1489 64.4294 42.1489C63.2429 42.1489 62.3047 41.5145 62.3047 39.8043V34.4805H63.8223V39.6388C63.8223 40.6318 64.2086 40.9904 64.7329 40.9904C65.3124 40.9904 65.9194 40.3835 65.9194 39.3353V34.4805H67.3818Z" fill="#798393"/>
<path d="M70.6658 34.4802V35.5284C71.1901 34.563 71.8247 34.3975 72.3214 34.3975C73.37 34.3975 73.8666 34.9767 74.115 35.7491C74.6668 34.5354 75.3843 34.3975 75.8533 34.3975C77.7021 34.3975 77.9228 35.9422 77.9228 37.1007C77.9228 37.8179 77.8401 38.8937 77.8401 39.6661C77.8401 39.9971 77.8677 40.9626 78.5299 40.9626C78.999 40.9626 79.3853 40.466 79.6336 39.3075H80.1855C79.744 41.8453 78.7506 42.1211 78.116 42.1211C76.8467 42.1211 76.35 41.0177 76.35 39.804C76.35 39.4178 76.4052 37.5697 76.4052 37.1559C76.4052 35.8594 75.9361 35.5284 75.4395 35.5284C74.8048 35.5284 74.4185 35.9974 74.2529 37.1835V42.0383H72.7353V36.9904C72.7353 36.2732 72.6525 35.556 71.8799 35.556C71.2453 35.556 70.9418 36.0801 70.6934 37.2111V42.0659H69.1758V34.4802H70.6658Z" fill="#798393"/>
<path d="M36.7249 51.5277C36.7249 52.2449 36.7801 53.2931 37.1388 54.0655C37.6355 53.9 38.1046 53.8448 38.3805 53.8448C38.96 53.8448 39.4015 54.0379 39.8154 54.3413C40.4776 53.4035 40.7535 51.7208 40.7535 50.0106C40.7535 46.1488 39.4015 45.3212 37.6631 45.3212C35.6488 45.3212 33.8828 46.4522 33.8828 48.7417C33.8828 49.8451 34.2691 50.1485 34.3519 50.1761C33.2482 50.1761 32.5859 49.5968 32.5859 48.521C32.5859 46.4522 35.0141 44.7695 37.8838 44.7695C41.6089 44.7695 42.5747 47.5831 42.5747 50.3968C42.5747 52.2725 42.1608 54.2862 40.9191 55.3895C41.5537 56.024 42.1884 56.5757 43.1817 56.5757C43.3197 56.5757 43.4301 56.5481 43.5405 56.5481C43.3749 57.2377 43.0162 57.5135 42.3815 57.5135C41.2502 57.5135 40.6432 56.686 40.1189 55.9136C39.6774 56.1067 39.1531 56.2447 38.5461 56.2447C36.5318 56.2447 34.8762 54.9482 34.8762 51.2519C34.8762 48.9624 35.5384 46.0936 37.5251 46.0936C37.7459 46.0936 38.0218 46.1212 38.2977 46.2039C37.2492 46.7832 36.7249 49.4037 36.7249 51.5277ZM37.3872 54.5068C37.6355 54.8378 37.9942 55.0585 38.4909 55.0585C38.7944 55.0585 39.0704 54.9758 39.3187 54.8103C39.0428 54.5068 38.684 54.3137 38.2426 54.3137C37.9942 54.3137 37.6907 54.3689 37.3872 54.5068Z" fill="#798393"/>
<path d="M49.0869 48.5479V53.7061C49.0869 54.0923 49.1145 55.0578 49.7768 55.0578C50.2734 55.0578 50.6321 54.5061 50.8805 53.4027H51.4324C50.9633 55.9405 49.9975 56.2163 49.3353 56.2163C48.4247 56.2163 48.0108 55.5267 47.8728 54.7819C47.4865 55.775 46.8243 56.2163 46.1344 56.2163C44.9479 56.2163 44.0098 55.5819 44.0098 53.8716V48.5479H45.5274V53.7061C45.5274 54.6992 45.9137 55.0578 46.438 55.0578C47.0174 55.0578 47.6245 54.4509 47.6245 53.4027V48.5479H49.0869Z" fill="#798393"/>
<path d="M56.4545 48.5486V53.7069C56.4545 54.093 56.4821 55.0585 57.1443 55.0585C57.641 55.0585 57.9997 54.5068 58.2481 53.4034H58.7999C58.3584 55.9412 57.3651 56.217 56.7028 56.217C55.7922 56.217 55.3784 55.5274 55.2404 54.7827C54.9369 55.5826 54.2194 56.217 53.2813 56.217C52.0672 56.217 50.6875 55.3068 50.6875 52.7414C50.6875 50.8657 51.5153 48.4658 53.5572 48.4658C54.0539 48.4658 54.6885 48.6589 54.9645 49.2658V48.5486H56.4545ZM54.9369 53.4034V49.9554C54.7989 49.6244 54.4954 49.2934 54.0539 49.2934C52.757 49.2934 52.2603 51.2243 52.2603 52.6311C52.2603 54.3689 52.757 55.0585 53.64 55.0585C54.2194 55.0585 54.9369 54.3413 54.9369 53.4034Z" fill="#798393"/>
<path d="M59.7381 45.5137V53.7062C59.7381 54.0924 59.7657 55.0579 60.4279 55.0579C60.9246 55.0579 61.2833 54.5062 61.5316 53.4028H62.0835C61.642 55.9406 60.6487 56.2164 59.9864 56.2164C58.6068 56.2164 58.248 55.0027 58.248 54.0097V45.7343L59.7381 45.5137Z" fill="#798393"/>
<path d="M62.2219 45.3486C62.7737 45.3486 63.2428 45.8176 63.2428 46.3693C63.2428 46.9209 62.7737 47.3623 62.2219 47.3623C61.67 47.3623 61.2285 46.9209 61.2285 46.3693C61.2285 45.8176 61.67 45.3486 62.2219 45.3486ZM63.0221 48.5484V53.7067C63.0221 54.0929 63.0497 55.0583 63.7119 55.0583C64.2086 55.0583 64.5673 54.5067 64.8156 53.4033H65.3675C64.926 55.9411 63.9327 56.2169 63.2704 56.2169C61.8632 56.2169 61.532 55.0032 61.532 54.0101V48.5484H63.0221Z" fill="#798393"/>
<path d="M66.3053 46.2314V48.5485H67.4642V49.0726H66.3053V53.7068C66.3053 54.1758 66.3329 55.0585 67.0228 55.0585C67.5746 55.0585 68.0989 54.5068 68.3748 53.4034H68.9267C68.2644 55.9412 67.2711 56.217 66.5537 56.217C65.0912 56.217 64.7601 55.0309 64.7601 54.0103V49.0726H64.291V48.5485H64.8153V46.4521L66.3053 46.2314Z" fill="#798393"/>
<path d="M73.48 48.5479V55.8026C74.5009 55.4715 75.0528 55.1129 75.246 53.4027H75.7978C75.4667 55.5543 74.8045 55.9405 73.4524 56.3542V57.3197C73.4524 59.223 72.5694 59.9126 71.5485 59.9126C70.5551 59.9126 69.9481 59.2506 69.9481 58.4231C69.9481 57.3749 70.9414 56.7128 71.9348 56.2991V55.3336C71.5485 55.9129 70.9966 56.1887 70.4723 56.1887C69.2858 56.1887 68.3477 55.5543 68.3477 53.8441V48.5479H69.8653V53.7061C69.8653 54.6992 70.2516 55.0578 70.7759 55.0578C71.3277 55.0578 71.9624 54.4785 71.9624 53.4855V48.5479H73.48ZM71.9624 57.9817V56.9335C70.969 57.4025 70.5551 57.8162 70.5551 58.3955C70.5551 58.8644 70.831 59.1403 71.2725 59.1403C71.852 59.1127 71.9624 58.6713 71.9624 57.9817Z" fill="#798393"/>
<path d="M87.4424 61.8994H20.584C20.584 62.0373 20.584 62.2028 20.584 62.3408H87.4424C87.4424 62.2028 87.4424 62.0649 87.4424 61.8994Z" fill="#798393"/>
<path d="M87.4705 27.4189H20.5293C20.5293 27.5569 20.5293 27.7224 20.5293 27.8603H87.4705C87.4705 27.7224 87.4705 27.5845 87.4705 27.4189Z" fill="#798393"/>
</svg>
