<svg width="124" height="104" viewBox="0 0 124 104" fill="none" xmlns="http://www.w3.org/2000/svg">
<g clip-path="url(#clip0_128_193592)">
<path d="M81.2303 13.4368C81.2873 13.4368 81.3159 13.4081 81.3444 13.3508C81.3729 13.2935 81.3444 13.2076 81.2873 13.1503C79.8902 12.4054 78.3791 11.9183 76.7824 11.7178C76.6969 11.7178 76.6398 11.7751 76.6113 11.8324C76.6113 11.9183 76.6683 11.9756 76.7254 12.0043C78.265 12.2048 79.7477 12.6919 81.1163 13.4081C81.1733 13.4081 81.2018 13.4368 81.2303 13.4368Z" fill="#798393"/>
<path d="M98.6794 24.6678C98.7079 24.6678 98.7649 24.6392 98.7934 24.6105C98.8505 24.5532 98.8219 24.4673 98.7649 24.41C98.1947 23.9229 97.5104 23.2353 96.8261 22.5191C95.8852 21.545 94.9158 20.5422 94.203 20.1411C94.1459 20.1125 94.0604 20.1411 94.0034 20.1984C93.9749 20.2557 94.0034 20.3417 94.0604 20.399C94.7447 20.7714 95.7141 21.7742 96.6265 22.7196C97.2823 23.4072 97.9951 24.1235 98.5653 24.6105C98.6224 24.6678 98.6509 24.6678 98.6794 24.6678Z" fill="#798393"/>
<path d="M106.549 37.5322C106.577 37.5322 106.577 37.5322 106.606 37.5322C106.691 37.5036 106.72 37.4176 106.691 37.3603C106.406 36.5008 105.95 35.6986 105.38 35.0397C105.323 34.9824 105.237 34.9824 105.18 35.011C105.123 35.0683 105.123 35.1543 105.152 35.2116C105.693 35.8705 106.149 36.6441 106.406 37.4463C106.435 37.5036 106.492 37.5322 106.549 37.5322Z" fill="#798393"/>
<path d="M108.888 53.0314C108.945 53.0314 109.002 53.0028 109.03 52.9455C109.458 52 109.6 50.94 109.458 49.9085C109.458 49.8226 109.401 49.7939 109.315 49.7939C109.315 49.7939 109.315 49.7939 109.287 49.7939C109.201 49.7939 109.144 49.8799 109.173 49.9659C109.287 50.94 109.144 51.9427 108.745 52.8309C108.717 52.9168 108.745 53.0028 108.831 53.0314C108.859 53.0314 108.888 53.0314 108.888 53.0314Z" fill="#798393"/>
<path d="M109.114 57.9016C109.2 57.9016 109.257 57.8157 109.257 57.7584C109.2 56.9275 109.371 56.068 109.742 55.3231C109.77 55.2658 109.742 55.1799 109.685 55.1226C109.599 55.0939 109.542 55.1226 109.485 55.1799C109.086 55.9534 108.886 56.8989 108.943 57.787C108.972 57.8443 109.029 57.9016 109.114 57.9016Z" fill="#798393"/>
<path d="M104.867 69.906C104.924 69.906 104.952 69.8774 104.981 69.8201C105.694 68.5594 106.121 67.1842 106.435 65.2647C106.435 65.1787 106.406 65.1214 106.321 65.0928C106.235 65.0928 106.178 65.1214 106.15 65.2074C105.836 67.0983 105.408 68.4448 104.724 69.6768C104.696 69.7341 104.696 69.82 104.781 69.8773C104.81 69.906 104.838 69.906 104.867 69.906Z" fill="#798393"/>
<path d="M103.64 75.4075C103.697 75.4075 103.754 75.3502 103.783 75.2929C103.897 74.6053 104.153 73.9464 104.524 73.3734C104.581 73.3161 104.552 73.2301 104.495 73.1728C104.438 73.1155 104.353 73.1442 104.296 73.2015C103.897 73.8031 103.64 74.5194 103.498 75.2356C103.469 75.3216 103.526 75.4075 103.64 75.4075Z" fill="#798393"/>
<path d="M79.8899 12.4343C79.947 12.4343 80.004 12.4057 80.0325 12.3197C80.061 12.2338 80.004 12.1765 79.947 12.1478C78.4643 11.6894 76.7251 10.572 75.5275 9.74119C75.4705 9.68389 75.385 9.71254 75.328 9.76984C75.2709 9.82714 75.2994 9.9131 75.3565 9.9704C76.554 10.8299 78.3217 11.9186 79.8614 12.4057C79.8614 12.4343 79.8899 12.4343 79.8899 12.4343Z" fill="#798393"/>
<path d="M88.6446 16.1012C87.7037 15.7288 86.7057 15.4995 85.7363 15.2703C84.3392 14.9265 82.9136 14.5827 81.602 13.8951C79.093 12.5772 77.4107 10.142 76.0421 7.96456C75.8426 7.62076 75.6145 7.30561 75.4149 6.96181C74.1888 5.0136 73.0484 3.15134 71.2806 1.77613C71.1665 1.69018 71.138 1.51828 71.2236 1.40368C71.2806 1.28908 71.4517 1.23178 71.5657 1.28908C72.7917 1.86208 74.1033 2.29184 75.3864 2.69294C76.2132 2.95079 77.0401 3.23729 77.8669 3.55244C80.5186 4.5552 82.3148 5.72985 83.5409 7.27696C84.3962 8.33701 84.9665 9.59762 85.5082 10.8009C85.6508 11.1161 85.7933 11.4312 85.9359 11.7464C86.5917 13.1502 87.4756 14.6973 88.8727 15.5855C88.9867 15.6715 89.0437 15.8147 88.9867 15.958C88.9297 16.0726 88.8442 16.1299 88.7301 16.1299C88.7301 16.1012 88.6731 16.1012 88.6446 16.1012ZM75.8996 6.64666C76.0992 6.96181 76.2988 7.30561 76.5269 7.62076C77.8669 9.74087 79.4921 12.0902 81.8872 13.3508C83.1417 14.0097 84.4818 14.3535 85.9074 14.6973C86.4206 14.8119 86.9624 14.9552 87.4756 15.0984C86.6202 14.1816 85.9929 13.0643 85.5082 12.0042C85.3657 11.6891 85.2231 11.3739 85.0805 11.0588C84.5388 9.88412 83.9686 8.65217 83.1702 7.64941C82.0012 6.18825 80.262 5.0709 77.7244 4.09679C76.926 3.78164 76.0707 3.52379 75.2723 3.23729C74.5025 2.97944 73.7041 2.72159 72.9058 2.43509C74.0463 3.69569 74.9587 5.1282 75.8996 6.64666Z" fill="#798393"/>
<path d="M87.7591 15.1274C87.7591 15.1274 87.0748 14.8982 86.1909 14.4112C85.3071 13.9241 84.1666 13.0933 83.2542 12.0619C82.3133 11.0305 81.4864 9.94176 80.8877 9.0536C80.3174 8.16545 79.8327 7.6211 79.8327 7.6211C79.8042 7.59245 79.7472 7.59245 79.7186 7.6211C79.6901 7.64975 79.6901 7.70705 79.7186 7.7357C79.7186 7.7357 80.1463 8.28005 80.6596 9.19685C81.2013 10.085 81.9426 11.317 82.912 12.3484C83.8814 13.4084 85.0219 14.2679 85.9628 14.7836C86.9323 15.328 87.588 15.5285 87.588 15.5285H87.6166C87.7306 15.5572 87.8447 15.4999 87.8732 15.3853C87.9302 15.2707 87.8732 15.1561 87.7591 15.1274Z" fill="#798393"/>
<path d="M78.1514 18.2792C76.2981 18.0213 74.7869 17.477 73.0192 16.8467C72.1638 16.5315 71.2514 16.2164 70.225 15.8726C70.1109 15.8439 70.0254 15.7293 70.0254 15.6147C70.0254 15.5001 70.0824 15.3855 70.1965 15.3282C73.2473 14.0103 75.7849 13.466 78.1229 13.6092C81.0882 13.7811 83.4262 15.0417 85.9067 16.3883C85.9923 16.4456 86.0493 16.5315 86.0493 16.6461C86.0493 16.7607 85.9923 16.8467 85.9067 16.904C84.2245 17.964 82.3997 18.4797 80.2613 18.4797C79.6055 18.4224 78.8927 18.3651 78.1514 18.2792ZM78.0944 14.1536C76.0415 14.039 73.789 14.4687 71.1374 15.5574C71.8787 15.8153 72.563 16.0445 73.2188 16.2737C74.958 16.904 76.4407 17.4483 78.2369 17.6775C81.0026 18.05 83.2266 17.7062 85.1939 16.6175C82.9415 15.4142 80.746 14.3255 78.0944 14.1536Z" fill="#798393"/>
<path d="M96.5698 19.2529C94.4599 18.3074 93.519 16.216 92.8347 14.3537C91.9793 12.0904 92.0363 9.7124 92.0934 7.39174C92.1504 4.92782 92.1789 2.63581 91.2665 0.401102C91.2095 0.257851 91.2665 0.114601 91.3806 0.0286501C91.4946 -0.0286501 91.6657 0 91.7512 0.114601C94.0892 3.35207 97.026 7.39173 97.5107 11.9758C97.7673 14.3537 97.3681 16.7317 96.969 19.0523C96.9405 19.1383 96.9119 19.1956 96.8264 19.2529C96.7979 19.2815 96.7409 19.2815 96.6839 19.2815C96.6553 19.2815 96.5983 19.2815 96.5698 19.2529ZM92.6351 7.39174C92.5781 9.6551 92.5496 11.9758 93.3479 14.1532C94.1178 16.1873 94.9446 17.7344 96.4558 18.5653C96.8264 16.4165 97.1971 14.2105 96.9405 12.0331C96.5413 8.22259 94.4314 4.87052 92.293 1.89091C92.7206 3.69587 92.6921 5.55813 92.6351 7.39174Z" fill="#798393"/>
<path d="M85.4781 16.4737C85.4781 16.4737 84.8794 16.5023 83.967 16.3877C83.0546 16.3018 81.8571 16.0726 80.6596 15.872C78.236 15.4136 75.7555 15.4996 75.7555 15.4996C75.6984 15.4996 75.6699 15.5282 75.6699 15.5855C75.6699 15.6142 75.6984 15.6715 75.7555 15.6715C75.7555 15.6715 76.3542 15.7288 77.2666 15.7861C78.179 15.9007 79.3765 16.0726 80.574 16.2731C81.7716 16.4737 82.9691 16.7029 83.91 16.8175C84.8509 16.9321 85.4496 16.9034 85.4496 16.9034H85.4781C85.5922 16.9034 85.7062 16.7888 85.6777 16.6742C85.7062 16.5596 85.5922 16.4737 85.4781 16.4737Z" fill="#798393"/>
<path d="M94.2324 8.42351C94.2324 8.42351 94.3465 9.08246 94.4605 10.0566C94.5746 11.0307 94.6601 12.3772 94.7456 13.6951C94.8312 15.013 95.2018 16.3882 95.6295 17.3051C96.0572 18.2219 96.4279 18.7949 96.4279 18.7949C96.4849 18.9095 96.6275 18.9381 96.7415 18.8522C96.827 18.7949 96.8556 18.6516 96.7985 18.5657C96.7985 18.5657 96.4849 17.9927 96.0857 17.1045C95.6866 16.2163 95.3444 14.9844 95.2304 13.6378C95.0593 12.3199 94.8882 11.002 94.7171 10.0279C94.5461 9.05381 94.318 8.39486 94.318 8.39486C94.318 8.36621 94.2895 8.36621 94.2609 8.36621C94.2324 8.39486 94.2324 8.42351 94.2324 8.42351Z" fill="#798393"/>
<path d="M98.3658 26.3577C97.1397 25.7847 95.7997 25.8993 94.3741 26.0139C93.8893 26.0426 93.4332 26.0999 92.977 26.0999C90.9241 26.1285 88.8427 25.6988 86.9894 24.8106C86.0485 24.3522 85.1646 23.7506 84.2807 23.2062C83.1687 22.4613 81.9997 21.6878 80.7167 21.2294C80.6882 21.2294 80.6882 21.2294 80.6596 21.2007C80.5171 21.1434 80.4315 20.9715 80.4886 20.8283C80.5456 20.685 80.7167 20.5991 80.8592 20.6564C80.8877 20.6564 80.8877 20.6564 80.9162 20.685C82.5129 21.2867 84.3662 21.0288 86.1625 20.7996C86.5617 20.7423 86.9609 20.7137 87.3315 20.6564C89.4414 20.4272 91.865 20.3126 93.8608 21.4586C94.8588 22.0316 95.6571 22.9197 96.4269 23.7506C97.1112 24.4955 97.7955 25.269 98.6224 25.8134C98.7364 25.8993 98.7935 26.0712 98.7079 26.1858C98.6509 26.2718 98.5654 26.3291 98.4513 26.3291C98.4513 26.3864 98.3943 26.3577 98.3658 26.3577ZM97.1968 25.4409C96.7691 25.0398 96.3699 24.6101 95.9993 24.1803C95.2294 23.3208 94.5166 22.5186 93.5757 21.9743C91.7224 20.8856 89.4129 21.0288 87.3885 21.2294C87.0179 21.258 86.6187 21.3153 86.2195 21.3726C85.1076 21.5159 83.9386 21.6591 82.8266 21.6018C83.4253 21.9456 83.9956 22.3467 84.5943 22.7192C85.4497 23.2635 86.3051 23.8652 87.2175 24.2949C88.9852 25.1544 90.9811 25.6128 92.9199 25.5269C93.3761 25.5269 93.8323 25.4696 94.2885 25.4409C94.8588 25.3836 95.4575 25.355 96.0278 25.355C96.4555 25.355 96.8261 25.3836 97.1968 25.4409Z" fill="#798393"/>
<path d="M106.492 31.8592C106.378 31.8305 106.292 31.7159 106.292 31.6013C106.207 29.9969 105.323 28.5071 104.496 27.046L104.068 26.2724C103.298 24.9831 102.529 23.6366 102.129 22.1468C101.531 19.8834 101.873 17.5055 102.357 15.2994C102.443 14.8983 102.529 14.4972 102.614 14.1247C103.013 12.3484 103.412 10.5148 103.412 8.70987C103.412 8.56662 103.526 8.45202 103.669 8.42336C103.812 8.39471 103.954 8.50932 103.983 8.65257C104.467 10.6294 105.351 12.2625 106.321 14.0101C106.72 14.7264 107.119 15.4713 107.49 16.2449C108.63 18.5369 109.856 21.9176 109.343 25.155C109.001 27.4471 108.145 29.6818 106.805 31.7446C106.748 31.8305 106.663 31.8878 106.577 31.8878C106.549 31.8592 106.52 31.8592 106.492 31.8592ZM103.184 14.268C103.099 14.6691 103.013 15.0702 102.928 15.4426C102.471 17.5914 102.129 19.8548 102.7 22.0035C103.07 23.4074 103.84 24.7253 104.581 25.9859L105.038 26.7595C105.779 28.0201 106.52 29.338 106.805 30.7418C107.86 28.9369 108.545 27.0173 108.83 25.0404C109.2 22.6338 108.545 19.5969 107.005 16.4741C106.634 15.7005 106.235 14.9842 105.836 14.268C105.123 12.9787 104.439 11.7181 103.926 10.3429C103.755 11.6608 103.469 12.9787 103.184 14.268Z" fill="#798393"/>
<path d="M105.295 39.0787C103.67 38.2765 101.76 38.1619 99.9349 38.0759C97.9961 37.99 96.0287 37.8754 94.261 36.9586C92.9494 36.271 91.8945 35.2109 90.868 34.1795C89.699 33.0048 88.6155 31.9161 87.1899 31.3145C87.0474 31.2572 86.9903 31.1139 87.0188 30.9707C87.0759 30.8274 87.1899 30.7415 87.361 30.7701C88.7581 31.1139 90.2122 31.2572 91.7804 31.4004C93.9758 31.6296 96.2568 31.8302 98.3667 32.661C99.6498 33.1481 100.961 34.0649 102.159 35.2396C103.442 36.5288 104.696 37.6748 105.637 38.563C105.751 38.6489 105.751 38.8208 105.694 38.9354C105.637 39.0214 105.552 39.05 105.466 39.05C105.381 39.1073 105.324 39.1073 105.295 39.0787ZM91.2672 33.8071C92.2651 34.8098 93.2916 35.8412 94.5176 36.4715C96.1713 37.331 98.0246 37.417 99.9634 37.5316C101.361 37.5889 102.786 37.6748 104.155 38.0473C103.413 37.3597 102.587 36.5575 101.731 35.698C100.591 34.552 99.3647 33.7211 98.1386 33.2341C96.1143 32.4605 93.8618 32.2313 91.6949 32.0021C90.7254 31.9161 89.8131 31.8015 88.9007 31.6869C89.756 32.3172 90.5259 33.0622 91.2672 33.8071Z" fill="#798393"/>
<path d="M112.166 47.0725C112.08 47.0152 111.995 46.9293 111.995 46.8147C111.966 45.3249 111.71 43.835 111.482 42.3739C111.367 41.6863 111.253 40.97 111.168 40.2824C110.911 38.3915 110.74 35.899 111.596 33.6069C112.052 32.3177 112.822 31.1717 113.563 30.0257C114.504 28.5932 115.416 27.218 115.73 25.6136C115.758 25.499 115.758 25.3844 115.787 25.2698C115.815 25.1265 115.958 25.0119 116.101 25.0406C116.243 25.0692 116.357 25.2125 116.329 25.3557C116.3 25.4703 116.3 25.5849 116.272 25.7282C115.787 28.6505 116.129 31.5155 116.471 34.5238L116.5 34.7243C116.728 36.6725 116.785 38.3342 116.671 39.7954C116.5 42.3739 114.874 45.153 112.451 47.0152C112.394 47.0439 112.337 47.0725 112.28 47.0725C112.223 47.1012 112.194 47.0725 112.166 47.0725ZM114.019 30.3408C113.306 31.4295 112.565 32.5755 112.109 33.8075C111.31 35.9849 111.482 38.3915 111.71 40.2251C111.795 40.9127 111.909 41.6003 112.023 42.3166C112.223 43.6058 112.451 44.9237 112.508 46.2417C114.532 44.494 115.901 42.0014 116.072 39.7954C116.158 38.3629 116.101 36.7585 115.901 34.8389L115.872 34.6384C115.616 32.375 115.359 30.1689 115.473 27.9629C115.046 28.7651 114.532 29.5386 114.019 30.3408Z" fill="#798393"/>
<path d="M107.606 55.1513C107.149 54.4923 106.408 54.0053 105.267 53.6042C104.982 53.4896 104.669 53.4036 104.355 53.3177C103.699 53.1171 102.987 52.9166 102.359 52.5728C100.962 51.8565 99.7931 50.5386 98.8237 48.619C98.396 47.7882 98.0539 46.9 97.7117 46.0119C97.4266 45.2956 97.113 44.5221 96.7708 43.8058C95.8869 41.9436 94.8605 40.683 93.6345 39.938C93.5204 39.8521 93.4634 39.7089 93.5204 39.5656C93.5774 39.4223 93.7485 39.365 93.8911 39.4223C94.3188 39.5942 94.6609 39.7375 95.0316 39.9094C95.3737 40.0527 95.7159 40.2246 96.1436 40.3678C98.7097 41.4279 101.618 42.6025 103.585 44.8945C105.21 46.7854 106.009 49.1347 106.807 51.4268C107.206 52.5441 107.605 53.7188 108.09 54.8361C108.147 54.9794 108.09 55.1226 107.976 55.2086C107.919 55.2372 107.891 55.2372 107.834 55.2372C107.748 55.2659 107.663 55.2372 107.606 55.1513ZM97.3126 43.5766C97.6547 44.3215 97.9683 45.0664 98.2535 45.8113C98.5956 46.6708 98.9378 47.5303 99.3654 48.3612C100.278 50.1661 101.361 51.3981 102.644 52.0571C103.243 52.3722 103.87 52.5441 104.526 52.7733C104.84 52.8593 105.153 52.9739 105.467 53.0598C106.094 53.289 106.636 53.5182 107.064 53.8334C106.779 53.1171 106.551 52.4009 106.294 51.6846C105.496 49.3353 104.726 47.1292 103.186 45.3529C101.304 43.1755 98.4531 42.0009 95.944 40.9695C95.8014 40.9122 95.6303 40.8549 95.4878 40.7689C96.1721 41.4852 96.7708 42.4306 97.3126 43.5766Z" fill="#798393"/>
<path d="M109.201 65.265C109.144 65.1791 109.115 65.0644 109.144 64.9785C109.657 63.6319 109.885 62.1708 110.085 60.7383C110.17 60.0793 110.284 59.3917 110.399 58.7328C110.826 56.5267 111.853 54.6644 113.449 53.146C114.875 51.7994 116.529 50.854 118.496 50.281L118.724 50.2237C120.463 49.708 122.26 49.135 123.514 47.8457C123.628 47.7311 123.799 47.7311 123.913 47.8457C124.027 47.9603 124.027 48.1322 123.942 48.2468C122.431 50.0804 121.433 52.3151 120.463 54.4925C119.465 56.6986 118.468 58.9906 116.899 60.8815C115.018 63.1449 112.394 64.7493 109.515 65.4082C109.486 65.4082 109.486 65.4082 109.458 65.4082C109.344 65.3509 109.258 65.3223 109.201 65.265ZM118.895 50.7394L118.667 50.7967C116.785 51.3697 115.217 52.2578 113.849 53.5471C112.337 54.9796 111.368 56.7559 110.969 58.8187C110.855 59.4777 110.741 60.1366 110.655 60.7956C110.484 62.0848 110.284 63.4027 109.857 64.6633C112.423 63.9757 114.732 62.5146 116.415 60.4518C117.926 58.6182 118.924 56.3835 119.893 54.206C120.606 52.573 121.347 50.9113 122.317 49.3928C121.29 49.9945 120.064 50.3669 118.895 50.7394Z" fill="#798393"/>
<path d="M102.445 73.7459C101.589 73.1156 100.791 72.8291 100.021 72.5712C99.0516 72.2274 98.0537 71.855 96.9988 70.8236C95.7442 69.5916 94.9174 67.7866 94.5182 65.466C94.3186 64.32 94.2616 63.1453 94.176 61.9993C94.119 61.2258 94.0905 60.4236 94.005 59.65C93.7484 57.3293 93.2066 55.639 92.2372 54.3211C92.1517 54.2065 92.1802 54.0346 92.2657 53.9486C92.3798 53.8627 92.5223 53.834 92.6364 53.9486C93.1496 54.3784 93.6058 54.8081 94.0905 55.2092C94.5752 55.639 95.0314 56.0401 95.5446 56.4698C98.4529 58.9624 100.962 61.1112 102.159 65.1795C102.616 66.6979 102.616 68.3023 102.616 69.8781C102.616 71.1387 102.616 72.3707 102.844 73.4307C102.872 73.5453 102.815 73.6599 102.73 73.7172C102.673 73.7459 102.616 73.7745 102.559 73.7745C102.559 73.8032 102.502 73.8032 102.445 73.7459ZM94.6037 59.5927C94.6893 60.3663 94.7463 61.1685 94.7748 61.9707C94.8318 63.088 94.9173 64.2627 95.0884 65.38C95.4591 67.5861 96.2289 69.2765 97.3979 70.4225C98.3673 71.3679 99.2797 71.6831 100.221 72.0269C100.848 72.2561 101.504 72.4853 102.216 72.915C102.074 71.9696 102.074 70.9668 102.074 69.9068C102.074 68.3883 102.074 66.8125 101.646 65.38C100.477 61.4836 98.0252 59.3635 95.2025 56.9283C94.6893 56.4985 94.2331 56.0687 93.7484 55.6676C93.6913 55.6103 93.6343 55.553 93.5773 55.5244C94.0905 56.6131 94.4041 57.9597 94.6037 59.5927Z" fill="#798393"/>
<path d="M104.954 77.241C104.868 77.155 104.84 77.0404 104.868 76.9545C105.381 75.3214 107.377 69.8492 111.626 68.56C112.738 68.2162 113.878 68.1016 114.99 67.987C116.102 67.8724 117.271 67.7291 118.354 67.3853C120.037 66.8696 121.263 66.268 122.346 64.8641C122.432 64.7495 122.603 64.7209 122.717 64.8068C122.831 64.8928 122.888 65.036 122.831 65.1793C121.976 67.1561 120.978 68.9324 120.122 70.4222C118.982 72.3418 117.556 74.4906 115.389 75.6079C113.65 76.5247 111.654 76.6107 109.744 76.6966C108.233 76.7826 106.636 76.8399 105.21 77.3269C105.182 77.3269 105.153 77.3556 105.125 77.3556C105.096 77.3269 105.011 77.2983 104.954 77.241ZM118.554 67.9297C117.414 68.2735 116.245 68.4167 115.104 68.5313C114.021 68.6459 112.88 68.7892 111.825 69.1043C108.831 70.0211 106.693 73.4592 105.609 76.582C106.95 76.2096 108.375 76.1523 109.744 76.0663C111.683 75.9804 113.536 75.8944 115.161 75.0349C117.214 73.9749 118.583 71.9407 119.666 70.0784C120.293 68.9897 121.006 67.7578 121.662 66.3826C120.778 67.1275 119.78 67.5572 118.554 67.9297Z" fill="#798393"/>
<path d="M97.7386 25.4413C97.7386 25.4413 97.1684 25.0688 96.256 24.6104C95.3436 24.152 94.0605 23.6363 92.7205 23.2925C90.0403 22.6335 87.2746 22.9773 87.2746 22.9773C87.2461 22.9773 87.2461 23.006 87.2461 23.0346C87.2461 23.0633 87.2746 23.0633 87.3031 23.0633C87.3031 23.0633 90.0403 22.8914 92.6349 23.6936C95.2581 24.3525 97.5105 25.8997 97.5105 25.8997C97.6246 25.9856 97.7671 25.957 97.8527 25.8424C97.9097 25.6991 97.8812 25.5272 97.7386 25.4413C97.7671 25.4413 97.7671 25.4413 97.7386 25.4413Z" fill="#798393"/>
<path d="M104.811 17.4769C104.811 17.4769 104.868 18.3364 105.267 19.597C105.609 20.829 106.151 22.462 106.436 24.1524C106.778 25.8141 106.835 27.5331 106.749 28.7937C106.692 30.0543 106.521 30.8852 106.521 30.8852C106.493 31.0284 106.578 31.143 106.721 31.1717C106.863 31.2003 106.977 31.1144 107.006 30.9711V30.9425C107.006 30.9425 107.633 27.4472 106.863 24.0378C106.521 22.3474 105.923 20.7144 105.523 19.5111C105.096 18.3078 105.01 17.4483 105.01 17.4483C105.01 17.391 104.953 17.3623 104.896 17.3623C104.839 17.3623 104.811 17.4196 104.811 17.4769Z" fill="#798393"/>
<path d="M104.667 37.8756C104.667 37.8756 103.955 37.6751 102.957 37.274C101.93 36.8729 100.619 36.2712 99.3072 35.6409C97.9956 34.982 96.627 34.4376 95.5721 34.1225C94.5171 33.8073 93.7758 33.75 93.7758 33.75C93.7473 33.75 93.7188 33.7787 93.7188 33.8073C93.7188 33.836 93.7473 33.8646 93.7758 33.8646C93.7758 33.8646 94.4886 34.0079 95.515 34.409C96.5415 34.7814 97.8245 35.469 99.1361 36.0993C100.448 36.7296 101.788 37.3599 102.814 37.761C103.841 38.1621 104.553 38.3913 104.553 38.3913C104.696 38.4486 104.839 38.3627 104.867 38.2481C104.867 38.0762 104.81 37.9329 104.667 37.8756Z" fill="#798393"/>
<path d="M113.906 35.1538C113.906 35.1538 113.678 35.8414 113.564 36.9301C113.421 38.0188 113.421 39.48 113.364 40.9125C113.307 42.345 113.165 43.7488 112.794 44.7516C112.452 45.7543 112.024 46.2987 112.024 46.2987C111.939 46.4133 111.967 46.5566 112.053 46.6425C112.167 46.7285 112.309 46.6998 112.395 46.6139L112.423 46.5852C112.423 46.5852 112.908 45.9836 113.279 44.9235C113.65 43.8634 113.878 42.4023 113.849 40.9411C113.821 39.48 113.735 38.0475 113.821 36.9874C113.878 35.9274 114.049 35.2111 114.049 35.2111C114.049 35.1824 114.049 35.1251 113.992 35.1251C113.963 35.0965 113.935 35.1251 113.906 35.1538Z" fill="#798393"/>
<path d="M107.405 53.805C107.405 53.805 106.834 53.4325 106.122 52.7449C105.409 52.0573 104.582 50.9973 103.841 49.8512C103.099 48.7339 102.415 47.5592 101.788 46.7284C101.189 45.8975 100.619 45.4678 100.619 45.4678C100.59 45.4391 100.562 45.4391 100.533 45.4678C100.505 45.4964 100.505 45.5251 100.533 45.5537C100.533 45.5537 101.075 45.9835 101.617 46.8143C102.187 47.6452 102.814 48.8485 103.527 50.0231C104.24 51.1978 105.067 52.2865 105.808 53.0314C106.549 53.7763 107.119 54.1488 107.119 54.1488L107.148 54.1774C107.262 54.2634 107.405 54.2347 107.49 54.1201C107.576 54.0342 107.519 53.8909 107.405 53.805Z" fill="#798393"/>
<path d="M116.842 55.1229C116.842 55.1229 116.272 55.6673 115.616 56.6128C114.931 57.5582 114.219 58.9048 113.449 60.2227C112.708 61.5406 111.824 62.7725 111.025 63.5174C110.227 64.291 109.543 64.6061 109.543 64.6061C109.429 64.6634 109.372 64.8067 109.429 64.9499C109.486 65.0645 109.628 65.1218 109.771 65.0645H109.799C109.799 65.0645 110.541 64.7207 111.367 63.8899C112.223 63.0877 113.135 61.7984 113.848 60.4519C114.561 59.1053 115.217 57.7301 115.844 56.7847C116.443 55.8392 116.984 55.2948 116.984 55.2948C117.013 55.2662 117.013 55.1802 116.984 55.1516C116.956 55.0656 116.87 55.0656 116.842 55.1229Z" fill="#798393"/>
<path d="M97.1691 61.7985C97.1691 61.7985 97.5113 62.5147 97.8249 63.6607C98.1671 64.8067 98.6232 66.3252 99.1365 67.815C99.6782 69.3048 100.334 70.7659 100.961 71.7974C101.589 72.8288 102.159 73.4304 102.159 73.4304C102.244 73.545 102.415 73.545 102.501 73.4591C102.615 73.3731 102.615 73.2012 102.529 73.1153C102.529 73.1153 101.988 72.5709 101.36 71.5682C100.733 70.594 100.077 69.1615 99.5071 67.6717C98.9369 66.2106 98.4522 64.6921 98.053 63.5748C97.6823 62.4288 97.3117 61.7125 97.3117 61.7125C97.2832 61.6552 97.2261 61.6552 97.1976 61.6839C97.1406 61.6839 97.1406 61.7412 97.1691 61.7985Z" fill="#798393"/>
<path d="M115.217 71.5395C115.217 71.5395 114.761 72.0552 113.877 72.5709C112.993 73.0867 111.71 73.5737 110.398 74.0321C109.087 74.4905 107.804 75.0062 106.863 75.4933C105.922 75.9803 105.38 76.4387 105.38 76.4387C105.266 76.5247 105.238 76.6966 105.323 76.7825C105.409 76.8971 105.551 76.9258 105.665 76.8398C105.665 76.8398 106.179 76.4101 107.062 75.923C107.946 75.436 109.229 74.9203 110.512 74.4332C111.795 73.9175 113.079 73.4018 113.991 72.8288C114.903 72.2844 115.36 71.7114 115.36 71.7114V71.6828C115.388 71.6255 115.388 71.5682 115.331 71.5109C115.331 71.4822 115.245 71.5109 115.217 71.5395Z" fill="#798393"/>
<path d="M91.0958 17.3325C91.2384 17.3325 91.3524 17.2466 91.3809 17.1033C91.4094 16.9601 91.3239 16.7882 91.1528 16.7595C89.5276 16.4444 87.6743 16.3011 85.4218 16.3298C85.2508 16.3298 85.1367 16.473 85.1367 16.6163C85.1367 16.7882 85.2793 16.9314 85.4218 16.9028C87.5888 16.8741 89.4421 17.0174 91.0388 17.3325C91.0673 17.3325 91.0958 17.3325 91.0958 17.3325Z" fill="#798393"/>
<path d="M97.2829 21.1721C97.3684 21.1721 97.4254 21.1435 97.4824 21.0862C97.5965 20.9716 97.568 20.7997 97.4539 20.6851C95.4011 18.8228 92.892 17.5908 90.4399 16.4162C89.7556 16.0724 89.0713 15.7572 88.4441 15.4134C88.3015 15.3275 88.1304 15.3848 88.0734 15.528C87.9879 15.6713 88.0449 15.8432 88.1874 15.9005C88.8432 16.2443 89.499 16.5594 90.2118 16.9032C92.6068 18.0779 95.0874 19.2812 97.0833 21.0862C97.1688 21.1435 97.2258 21.1721 97.2829 21.1721Z" fill="#798393"/>
<path d="M99.7629 27.1031C99.7914 27.1031 99.8484 27.1031 99.8769 27.0745C100.019 27.0172 100.077 26.8453 100.019 26.702C98.7935 24.0949 97.767 21.4877 96.9116 18.6514C96.8546 18.5081 96.7121 18.4222 96.541 18.4508C96.3984 18.5081 96.3129 18.6514 96.3414 18.8233C97.2253 21.6596 98.2517 24.3241 99.4777 26.9312C99.5348 27.0458 99.6488 27.1031 99.7629 27.1031Z" fill="#798393"/>
<path d="M106.32 33.8643C106.377 33.8643 106.435 33.8643 106.463 33.8357C106.606 33.7497 106.634 33.5778 106.577 33.4346C104.61 30.1112 101.616 27.3035 98.166 25.5845C98.0234 25.5272 97.8523 25.5845 97.7953 25.7277C97.7383 25.871 97.7953 26.0429 97.9378 26.1002C101.302 27.7619 104.211 30.4836 106.121 33.7211C106.149 33.8357 106.235 33.8643 106.32 33.8643Z" fill="#798393"/>
<path d="M107.147 40.5107C107.176 40.5107 107.204 40.5107 107.233 40.5107C107.375 40.4821 107.461 40.3102 107.432 40.1669C106.691 37.4165 106.52 34.1217 106.919 31.1135C106.948 30.9702 106.834 30.827 106.663 30.7983C106.52 30.7697 106.377 30.8843 106.349 31.0562C105.95 34.1217 106.121 37.5025 106.891 40.3388C106.891 40.4534 107.005 40.5107 107.147 40.5107Z" fill="#798393"/>
<path d="M111.654 48.2754C111.682 48.2754 111.711 48.2754 111.711 48.2754C111.853 48.2468 111.967 48.0749 111.91 47.9316C110.998 44.1498 108.603 40.6831 105.381 38.4771C105.238 38.3911 105.067 38.4198 104.982 38.563C104.896 38.7063 104.925 38.8782 105.067 38.9641C108.175 41.1129 110.485 44.4363 111.368 48.1035C111.397 48.1895 111.511 48.2754 111.654 48.2754Z" fill="#798393"/>
<path d="M108.632 65.7231C108.746 65.7231 108.86 65.6657 108.888 65.5511C110.285 61.9985 109.943 58.0735 107.89 54.5495C107.805 54.4062 107.634 54.3776 107.491 54.4349C107.349 54.5208 107.32 54.6927 107.377 54.836C109.316 58.2167 109.658 61.9412 108.318 65.3506C108.261 65.4938 108.318 65.6658 108.489 65.7231C108.575 65.7231 108.603 65.7231 108.632 65.7231Z" fill="#798393"/>
<path d="M102.871 73.9745C102.985 73.9745 103.099 73.8886 103.128 73.774C104.382 70.1927 106.721 67.0985 109.572 65.2649C109.714 65.1789 109.743 65.007 109.657 64.8638C109.572 64.7205 109.401 64.6919 109.258 64.7778C106.293 66.6974 103.869 69.9062 102.586 73.5734C102.529 73.7167 102.615 73.8886 102.757 73.9459C102.786 73.9745 102.814 73.9745 102.871 73.9745Z" fill="#798393"/>
<path d="M104.24 77.9283C104.269 77.9283 104.297 77.9283 104.297 77.9283C104.44 77.8997 104.554 77.7278 104.497 77.5845C104.155 76.152 103.442 74.3757 102.701 73.1724C102.615 73.0291 102.444 73.0005 102.302 73.0864C102.159 73.1724 102.131 73.3443 102.216 73.4875C102.9 74.6335 103.613 76.3525 103.927 77.7278C104.012 77.8424 104.126 77.9283 104.24 77.9283Z" fill="#798393"/>
<path d="M102.929 78.9305C103.784 78.3289 104.725 77.6986 105.723 77.0969C105.866 77.011 105.894 76.8391 105.809 76.6958C105.723 76.5526 105.552 76.5239 105.409 76.6099C104.297 77.2975 103.271 77.9564 102.33 78.644L102.929 78.9305Z" fill="#798393"/>
<path d="M107.775 54.7787C107.861 54.7787 107.946 54.75 108.003 54.6641C109.771 52.4867 111.482 49.4784 112.594 46.5847C112.651 46.4415 112.565 46.2696 112.423 46.2123C112.28 46.155 112.109 46.2409 112.052 46.3842C110.969 49.2206 109.287 52.2002 107.547 54.3203C107.462 54.4349 107.462 54.6354 107.576 54.7214C107.633 54.75 107.69 54.7787 107.775 54.7787Z" fill="#798393"/>
<path d="M73.5612 11.6033C73.3616 11.3168 73.3901 11.0016 73.6182 10.7151C74.0459 10.1994 75.0724 10.2281 75.8707 10.5146C76.555 10.7438 76.9827 11.1162 76.9827 11.546C76.9827 11.9185 76.7546 12.205 76.3269 12.3482C76.1273 12.4055 75.8992 12.4342 75.6711 12.4342C74.8443 12.4342 73.8748 12.0904 73.5612 11.6033ZM73.8463 10.887C73.7038 11.0876 73.6753 11.2595 73.7893 11.4314C74.1314 11.9471 75.5 12.2909 76.2414 12.0617C76.555 11.9758 76.6976 11.7752 76.6976 11.546C76.6976 11.2595 76.3269 10.973 75.7852 10.7724C75.443 10.6578 75.0724 10.6005 74.7302 10.6005C74.3595 10.5719 74.0174 10.6578 73.8463 10.887Z" fill="#798393"/>
<path d="M74.8153 10.1991C74.131 10.1418 73.0476 9.45421 72.905 8.7666C72.848 8.4801 72.962 8.22225 73.2187 8.079C73.7034 7.82115 74.5017 8.1363 75.0434 8.5947C75.4996 8.9958 75.6992 9.42556 75.5852 9.74071C75.4711 10.0272 75.243 10.1705 74.9009 10.1705C74.8724 10.1991 74.8439 10.1991 74.8153 10.1991ZM73.3612 8.33685C73.1901 8.4228 73.1331 8.5374 73.1616 8.7093C73.2757 9.19635 74.1881 9.85531 74.8153 9.91261C75.186 9.94126 75.2715 9.74071 75.3 9.65476C75.3856 9.45421 75.186 9.13905 74.8439 8.8239C74.4447 8.4801 73.96 8.27955 73.6178 8.27955C73.5323 8.27955 73.4467 8.3082 73.3612 8.33685Z" fill="#798393"/>
<path d="M91.1248 16.7889C90.2409 16.3019 89.5566 14.5256 89.6707 13.4942C89.7277 12.8925 90.0413 12.692 90.2694 12.6347C90.9822 12.4341 91.638 13.2077 92.0087 13.9812C92.5219 14.9553 92.7215 16.1873 92.1797 16.6743C92.0087 16.8462 91.8091 16.9035 91.581 16.9035C91.4384 16.9035 91.2673 16.8749 91.1248 16.7889ZM90.3549 12.8925C90.1268 12.9498 90.0128 13.1504 89.9558 13.5228C89.8417 14.4396 90.469 16.1013 91.2673 16.5311C91.5239 16.6743 91.7806 16.6457 92.0372 16.4451C92.4648 16.0727 92.2653 14.9553 91.8091 14.0958C91.4099 13.3509 90.9252 12.8925 90.526 12.8925C90.4405 12.8925 90.412 12.8925 90.3549 12.8925Z" fill="#798393"/>
<path d="M90.8966 19.7678C90.5545 19.424 90.4404 19.0802 90.5545 18.765C90.7541 18.2493 91.4099 18.0774 92.3508 18.3066C93.4057 18.5645 94.4892 19.2234 94.4036 19.9397C94.3751 20.3408 94.1755 20.6273 93.8334 20.7419C93.6908 20.7992 93.5198 20.8279 93.3202 20.8279C92.4933 20.8279 91.4384 20.3408 90.8966 19.7678ZM90.8111 18.8796C90.7256 19.1375 90.9537 19.424 91.0962 19.5672C91.695 20.1975 93.0351 20.7419 93.7193 20.4841C93.976 20.3981 94.1185 20.1975 94.1185 19.911C94.1755 19.3953 93.1776 18.7937 92.2652 18.5931C92.0371 18.5358 91.809 18.5072 91.5809 18.5072C91.2388 18.5072 90.9251 18.5931 90.8111 18.8796Z" fill="#798393"/>
<path d="M101.589 27.8189C100.791 27.2459 100.278 25.3836 100.506 24.4668C100.62 24.0371 100.848 23.8938 101.019 23.8652C101.732 23.7792 102.33 24.6674 102.644 25.4982C102.986 26.3864 103.1 27.4751 102.558 27.8189C102.387 27.9335 102.245 27.9908 102.074 27.9908C101.931 27.9908 101.76 27.9335 101.589 27.8189ZM101.047 24.1517C100.905 24.1803 100.819 24.2949 100.762 24.5241C100.563 25.355 101.047 27.1026 101.732 27.5897C101.96 27.7329 102.159 27.7329 102.387 27.5897C102.73 27.3605 102.701 26.501 102.359 25.6128C102.102 24.8966 101.589 24.1517 101.104 24.1517C101.104 24.1517 101.076 24.1517 101.047 24.1517Z" fill="#798393"/>
<path d="M104.383 35.3826C103.442 35.0388 102.501 33.5777 102.444 32.7181C102.416 32.2884 102.615 32.0878 102.786 32.0019C103.471 31.6581 104.44 32.403 105.039 33.2339C105.495 33.8642 105.866 34.7237 105.466 35.1534C105.267 35.354 105.039 35.4686 104.782 35.4686C104.64 35.4399 104.526 35.4113 104.383 35.3826ZM102.9 32.2311C102.758 32.2884 102.701 32.4316 102.729 32.6608C102.758 33.4344 103.67 34.781 104.469 35.0961C104.782 35.2107 105.039 35.1534 105.238 34.9242C105.466 34.6664 105.295 34.0361 104.811 33.3485C104.354 32.7182 103.67 32.1451 103.157 32.1451C103.071 32.1738 102.986 32.2024 102.9 32.2311Z" fill="#798393"/>
<path d="M107.946 40.8836C107.433 39.8236 108.06 37.4743 108.716 36.7294C108.973 36.4429 109.201 36.4142 109.343 36.4715C110.142 36.758 110.256 38.1332 110.113 39.1933C109.971 40.2533 109.515 41.342 108.859 41.3993C108.83 41.3993 108.802 41.3993 108.773 41.3993C108.403 41.428 108.117 41.2274 107.946 40.8836ZM108.944 36.9299C108.374 37.5889 107.775 39.8236 108.232 40.769C108.374 41.0269 108.574 41.1701 108.859 41.1415C109.286 41.1128 109.714 40.282 109.857 39.1933C109.999 38.1905 109.857 36.9872 109.286 36.7867C109.172 36.7294 109.03 36.844 108.944 36.9299Z" fill="#798393"/>
<path d="M108.232 49.708C107.348 48.7912 106.835 46.5565 107.32 45.6683C107.491 45.3532 107.776 45.2099 108.146 45.2672C109.03 45.4391 109.772 46.929 109.971 48.2469C110.114 49.1637 109.943 49.8226 109.515 50.0232C109.372 50.0805 109.23 50.1378 109.087 50.1378C108.802 50.1091 108.517 49.9659 108.232 49.708ZM108.089 45.5537C107.833 45.4964 107.69 45.5824 107.576 45.8116C107.177 46.5852 107.662 48.7053 108.46 49.5075C108.774 49.8226 109.087 49.9086 109.372 49.7653C109.686 49.6221 109.8 49.0491 109.686 48.2755C109.515 47.0722 108.831 45.6683 108.089 45.5537Z" fill="#798393"/>
<path d="M109.856 55.6383C109.428 55.4378 109.229 55.0367 109.314 54.4637C109.457 53.2031 110.826 51.3694 111.795 51.1689C112.137 51.0829 112.451 51.2262 112.622 51.57C113.049 52.3722 112.394 53.9193 111.51 54.8648C111.025 55.4091 110.54 55.6956 110.141 55.6956C110.027 55.6956 109.942 55.667 109.856 55.6383ZM111.852 51.4554C110.997 51.6273 109.714 53.3463 109.599 54.4923C109.542 54.9507 109.685 55.2372 109.999 55.3805C110.312 55.5237 110.826 55.2659 111.31 54.6929C112.137 53.8047 112.736 52.3722 112.394 51.7132C112.308 51.5413 112.166 51.4554 111.995 51.4554C111.937 51.4267 111.88 51.4554 111.852 51.4554Z" fill="#798393"/>
<path d="M105.58 64.892C104.925 64.0325 105.096 61.9983 105.523 61.0528C105.723 60.6231 105.98 60.3939 106.265 60.3652H106.293C106.892 60.3652 107.32 61.0528 107.434 62.2275C107.576 63.574 107.291 65.1212 106.55 65.2644C106.464 65.2644 106.407 65.2931 106.35 65.2931C106.037 65.2931 105.78 65.1498 105.58 64.892ZM106.265 60.6517C106.094 60.6517 105.923 60.8523 105.78 61.1674C105.324 62.1415 105.267 64.0038 105.809 64.7201C105.98 64.9493 106.208 65.0352 106.493 64.9779C106.978 64.892 107.32 63.574 107.149 62.2561C107.063 61.4826 106.778 60.6517 106.265 60.6517Z" fill="#798393"/>
<path d="M104.669 73.6588C104.269 73.4582 104.07 73.0858 104.098 72.5987C104.184 71.4241 105.553 69.791 106.465 69.5045C106.779 69.4185 107.064 69.4758 107.206 69.6764C107.748 70.364 107.235 71.7106 106.465 72.6847C105.952 73.3436 105.41 73.7161 104.954 73.7161C104.868 73.7161 104.783 73.6874 104.669 73.6588ZM106.55 69.7624C105.752 70.0202 104.469 71.5387 104.384 72.5987C104.355 72.9712 104.498 73.229 104.783 73.3723C105.125 73.5442 105.695 73.1717 106.237 72.4841C106.921 71.596 107.406 70.3926 106.978 69.8483C106.95 69.8196 106.893 69.7337 106.722 69.7337C106.693 69.7337 106.636 69.7337 106.55 69.7624Z" fill="#798393"/>
<path d="M106.863 79.7329C105.609 79.7042 104.212 79.2458 104.126 78.5296C104.098 78.1285 104.269 77.7847 104.611 77.5841C105.552 77.0111 107.747 77.3262 108.688 77.9852C109.116 78.2717 109.173 78.5582 109.144 78.7588C109.03 79.475 108.004 79.7329 107.006 79.7329C106.977 79.7329 106.92 79.7329 106.863 79.7329ZM108.888 78.7015C108.916 78.5009 108.717 78.329 108.546 78.2144C107.69 77.6127 105.609 77.2976 104.753 77.8133C104.497 77.9852 104.383 78.1858 104.411 78.5009C104.468 78.988 105.58 79.4177 106.863 79.4464C106.92 79.4464 106.977 79.4464 107.034 79.4464C108.089 79.4464 108.802 79.1599 108.888 78.7015Z" fill="#798393"/>
<path d="M42.7678 13.4368C42.7108 13.4368 42.6823 13.4081 42.6538 13.3508C42.6253 13.2935 42.6538 13.2076 42.7108 13.1503C44.1079 12.4054 45.619 11.9183 47.2157 11.7178C47.3013 11.7178 47.3583 11.7751 47.3868 11.8324C47.3868 11.9183 47.3298 11.9756 47.2728 12.0043C45.7331 12.2048 44.2505 12.6919 42.8819 13.4081C42.8248 13.4081 42.7963 13.4368 42.7678 13.4368Z" fill="#798393"/>
<path d="M25.319 24.6675C25.2904 24.6675 25.2334 24.6389 25.2049 24.6102C25.1479 24.5816 25.1764 24.467 25.2334 24.4383C25.8037 23.9513 26.488 23.2637 27.1723 22.5474C28.1132 21.5733 29.0826 20.5705 29.7954 20.1694C29.8524 20.1408 29.938 20.1694 29.995 20.2267C30.0235 20.284 29.995 20.37 29.938 20.4273C29.2537 20.7997 28.2842 21.8025 27.3718 22.748C26.6876 23.4356 26.0033 24.1518 25.4045 24.6389C25.376 24.6675 25.3475 24.6675 25.319 24.6675Z" fill="#798393"/>
<path d="M17.4482 37.5312C17.4197 37.5312 17.4197 37.5312 17.3912 37.5312C17.3056 37.5026 17.2771 37.4166 17.3056 37.3593C17.5907 36.4998 18.0469 35.6976 18.6172 35.0387C18.6742 34.9814 18.7597 34.9814 18.8168 35.01C18.8738 35.0673 18.8738 35.1533 18.8453 35.2106C18.3035 35.8695 17.8473 36.6431 17.5907 37.4453C17.5622 37.5026 17.5052 37.5312 17.4482 37.5312Z" fill="#798393"/>
<path d="M15.11 53.0314C15.053 53.0314 14.996 53.0028 14.9675 52.9455C14.5398 52 14.3972 50.94 14.5398 49.9085C14.5398 49.8226 14.5968 49.7939 14.6824 49.7939C14.6824 49.7939 14.6824 49.7939 14.7109 49.7939C14.7964 49.7939 14.8534 49.8799 14.8249 49.9659C14.7109 50.94 14.8534 51.9427 15.2526 52.8309C15.2811 52.9168 15.2526 53.0028 15.1671 53.0314C15.1385 53.0314 15.1385 53.0314 15.11 53.0314Z" fill="#798393"/>
<path d="M14.8826 57.9016C14.7971 57.9016 14.74 57.8157 14.74 57.7584C14.8256 56.9275 14.626 56.068 14.2553 55.3231C14.2268 55.2658 14.2553 55.1799 14.3124 55.1226C14.3979 55.0939 14.4549 55.1226 14.5119 55.1799C14.9111 55.9534 15.1107 56.8989 15.0537 57.787C15.0252 57.8443 14.9681 57.9016 14.8826 57.9016Z" fill="#798393"/>
<path d="M19.1307 69.906C19.0737 69.906 19.0451 69.8774 19.0166 69.8201C18.3038 68.5594 17.8761 67.1842 17.5625 65.2647C17.5625 65.1787 17.591 65.1214 17.6765 65.0928C17.7621 65.0928 17.8191 65.1214 17.8476 65.2074C18.1613 67.0983 18.5889 68.4448 19.2732 69.6768C19.3018 69.7341 19.3018 69.82 19.2162 69.8773C19.1877 69.906 19.1592 69.906 19.1307 69.906Z" fill="#798393"/>
<path d="M20.3577 75.4066C20.3007 75.4066 20.2436 75.3493 20.2151 75.292C20.1011 74.6044 19.8445 73.9454 19.4738 73.3724C19.4453 73.3151 19.4453 73.2292 19.5023 73.1719C19.5593 73.1146 19.6449 73.1432 19.7019 73.2005C20.1011 73.8022 20.3577 74.5184 20.5002 75.2347C20.5288 75.3206 20.4717 75.4066 20.3577 75.4066C20.3862 75.4066 20.3862 75.4066 20.3577 75.4066Z" fill="#798393"/>
<path d="M25.66 82.684C25.603 82.684 25.5745 82.6553 25.546 82.598C25.1183 81.7958 24.8047 80.9077 24.6051 79.9909C24.5766 79.9049 24.6336 79.8476 24.7191 79.819C24.8047 79.7903 24.8617 79.8476 24.8902 79.9336C25.0613 80.8217 25.3749 81.6526 25.8026 82.4548C25.8311 82.5121 25.8026 82.598 25.7456 82.6553C25.7171 82.6553 25.6885 82.684 25.66 82.684Z" fill="#798393"/>
<path d="M44.1072 12.434C44.0502 12.434 43.9931 12.4053 43.9646 12.3194C43.9361 12.2334 43.9931 12.1761 44.0502 12.1475C45.5613 11.6891 47.272 10.6004 48.4696 9.76951C48.5266 9.71221 48.6121 9.74086 48.6691 9.79816C48.7262 9.85547 48.6977 9.94142 48.6406 9.99872C47.4431 10.8582 45.6754 11.9469 44.1357 12.434H44.1072Z" fill="#798393"/>
<path d="M35.2412 16.1015C35.1271 16.1015 35.0416 16.0442 34.9846 15.9296C34.9275 15.7864 34.9561 15.6431 35.0986 15.5572C36.4957 14.669 37.3511 13.1219 38.0354 11.7181C38.1779 11.4029 38.3205 11.0878 38.4631 10.7726C39.0048 9.5693 39.6036 8.30869 40.4304 7.24864C41.6564 5.70153 43.4812 4.52688 46.1044 3.52412C46.9312 3.20897 47.7581 2.95112 48.5849 2.66462C49.868 2.23487 51.1795 1.80511 52.4056 1.26076C52.5481 1.20346 52.6907 1.26076 52.7762 1.37536C52.8618 1.48996 52.8333 1.66186 52.7192 1.74781C50.9515 3.12302 49.811 4.95663 48.5849 6.90484C48.3853 7.24864 48.1858 7.56379 47.9577 7.90759C46.5891 10.085 44.8783 12.5203 42.3978 13.8382C41.0862 14.5258 39.6321 14.8696 38.2635 15.2134C37.2941 15.4426 36.2961 15.7004 35.3552 16.0442C35.3267 16.1015 35.2697 16.1015 35.2412 16.1015ZM51.151 2.43542C50.3527 2.72192 49.5829 2.97977 48.7845 3.23762C47.9862 3.49547 47.1308 3.78197 46.3325 4.09712C43.7949 5.07123 42.0556 6.18858 40.8866 7.64974C40.0883 8.6525 39.518 9.88445 38.9763 11.0591C38.8337 11.3743 38.6912 11.6894 38.5486 12.0046C38.0354 13.0646 37.4366 14.182 36.5813 15.0988C37.123 14.9555 37.6362 14.8123 38.1494 14.6977C39.575 14.3539 40.8866 14.0101 42.1697 13.3511C44.5362 12.0905 46.1899 9.7412 47.53 7.62109C47.7296 7.30594 47.9577 6.96214 48.1572 6.64699C49.0411 5.12853 49.9535 3.69602 51.151 2.43542Z" fill="#798393"/>
<path d="M36.238 15.1274C36.238 15.1274 36.9223 14.8982 37.8062 14.4112C38.69 13.9241 39.8305 13.0933 40.7429 12.0619C41.6838 11.0305 42.5107 9.94176 43.1094 9.0536C43.6797 8.16545 44.1644 7.6211 44.1644 7.6211C44.1929 7.59245 44.2499 7.59245 44.2785 7.6211C44.307 7.64975 44.307 7.70705 44.2785 7.7357C44.2785 7.7357 43.8508 8.28005 43.3375 9.19685C42.7958 10.085 42.0545 11.317 41.0851 12.3484C40.1157 13.4084 38.9752 14.2679 38.0343 14.7836C37.0648 15.328 36.4091 15.5285 36.4091 15.5285H36.3805C36.2665 15.5572 36.1524 15.4999 36.1239 15.3853C36.0669 15.2707 36.1239 15.1561 36.238 15.1274Z" fill="#798393"/>
<path d="M43.7079 18.4218C41.5695 18.4218 39.7447 17.9061 38.0625 16.8461C37.9769 16.8174 37.9199 16.7028 37.9199 16.6169C37.9199 16.5023 37.9769 16.4163 38.0625 16.359C40.5431 15.0125 42.9096 13.7519 45.8463 13.58C48.1844 13.4654 50.7219 13.9811 53.7728 15.299C53.8868 15.3563 53.9438 15.4709 53.9438 15.5855C53.9438 15.7001 53.8583 15.8147 53.7442 15.8433C52.7178 16.1585 51.8339 16.5023 50.95 16.8174C49.1823 17.4477 47.6711 18.0207 45.8178 18.2499C45.105 18.3645 44.3922 18.4218 43.7079 18.4218ZM38.8038 16.6455C40.7712 17.7629 43.0236 18.1067 45.7608 17.7056C47.5571 17.4477 49.0397 16.932 50.779 16.3017C51.4348 16.0725 52.1191 15.8147 52.8604 15.5855C50.2087 14.5254 47.9848 14.067 45.9034 14.1816C43.2517 14.3249 41.0563 15.4136 38.8038 16.6455Z" fill="#798393"/>
<path d="M27.3142 19.2815C27.2572 19.2815 27.2287 19.2815 27.1717 19.2529C27.1146 19.1956 27.0576 19.1383 27.0291 19.0523C26.6299 16.7317 26.2308 14.3537 26.4874 11.9758C26.9721 7.39173 29.9089 3.35207 32.2754 0.114601C32.3324 0 32.5035 -0.0286501 32.6175 0.0286501C32.7316 0.0859504 32.7886 0.257851 32.7316 0.401102C31.8192 2.60716 31.8477 4.92782 31.9047 7.39174C31.9617 9.7124 31.9903 12.0904 31.1634 14.3537C30.4506 16.216 29.5382 18.3074 27.4283 19.2529C27.3998 19.2815 27.3427 19.2815 27.3142 19.2815ZM31.6766 1.89091C29.5667 4.87052 27.4568 8.22259 27.0576 12.0331C26.801 14.2105 27.1717 16.4165 27.5423 18.5653C29.0535 17.7344 29.8803 16.1873 30.6502 14.1532C31.4485 12.0044 31.42 9.6551 31.363 7.39174C31.3345 5.55813 31.2774 3.69587 31.6766 1.89091Z" fill="#798393"/>
<path d="M38.5185 16.4737C38.5185 16.4737 39.1172 16.5023 40.0296 16.3877C40.942 16.3018 42.1395 16.0726 43.337 15.872C45.7606 15.4136 48.2412 15.4996 48.2412 15.4996C48.2982 15.4996 48.3267 15.5282 48.3267 15.5855C48.3267 15.6142 48.2982 15.6715 48.2412 15.6715C48.2412 15.6715 47.6424 15.7288 46.73 15.7861C45.8176 15.9007 44.6201 16.0726 43.4226 16.2731C42.2251 16.4737 41.0276 16.7029 40.0866 16.8175C39.1457 16.9321 38.547 16.9034 38.547 16.9034H38.5185C38.4044 16.9034 38.2904 16.7888 38.3189 16.6742C38.2904 16.5596 38.4044 16.4737 38.5185 16.4737Z" fill="#798393"/>
<path d="M29.7665 8.42318C29.7665 8.42318 29.6524 9.08213 29.5384 10.0562C29.4243 11.0303 29.3388 12.3769 29.2533 13.6948C29.1677 15.0127 28.7971 16.3879 28.3694 17.3047C27.9702 18.2502 27.5995 18.7945 27.5995 18.7945C27.514 18.9091 27.4 18.9378 27.2859 18.8805C27.2004 18.8232 27.1719 18.6799 27.2289 18.594C27.2289 18.594 27.5425 18.021 27.9417 17.1328C28.3409 16.2447 28.683 15.0127 28.7971 13.6662C28.9681 12.3483 29.1392 11.0303 29.3103 10.0562C29.4814 9.08213 29.7095 8.42318 29.7095 8.42318C29.7095 8.39453 29.738 8.39453 29.7665 8.39453V8.42318Z" fill="#798393"/>
<path d="M25.5185 26.3864C25.4045 26.3864 25.3189 26.3291 25.2619 26.2432C25.2049 26.0999 25.2334 25.928 25.376 25.8421C26.2028 25.2977 26.8871 24.5242 27.5714 23.7793C28.3412 22.9198 29.1111 22.0603 30.1375 21.4872C32.1334 20.3126 34.5569 20.4558 36.6668 20.685C37.066 20.7137 37.4367 20.771 37.8358 20.8283C39.6321 21.0575 41.4854 21.2867 43.0821 20.7137C43.1106 20.7137 43.1106 20.7137 43.1391 20.685C43.2817 20.6277 43.4528 20.7137 43.5098 20.8569C43.5668 21.0002 43.4813 21.1721 43.3387 21.2294C43.3102 21.2294 43.3102 21.2294 43.2817 21.258C42.0271 21.7451 40.8581 22.49 39.7176 23.2349C38.8623 23.8079 37.9784 24.3809 37.009 24.8393C35.1557 25.7561 33.0743 26.1859 31.0214 26.1286C30.5652 26.1286 30.0805 26.0713 29.6243 26.0426C28.1987 25.8994 26.8586 25.7848 25.6326 26.3578C25.6041 26.3578 25.547 26.3864 25.5185 26.3864ZM27.9136 25.355C28.4838 25.355 29.0826 25.4123 29.6528 25.441C30.109 25.4696 30.5652 25.5269 31.0214 25.5269C32.9887 25.6129 34.9561 25.1545 36.7239 24.295C37.6363 23.8366 38.5201 23.2636 39.347 22.7192C39.9172 22.3468 40.4875 21.9743 41.1148 21.6018C40.0028 21.6305 38.8623 21.5159 37.7218 21.3726C37.3226 21.3153 36.9234 21.2867 36.5528 21.2294C34.5284 21.0288 32.1904 20.8856 30.3656 21.9743C29.4532 22.5187 28.7119 23.3209 27.9421 24.1804C27.5999 24.6101 27.2007 25.0399 26.8016 25.441C27.1722 25.3837 27.5429 25.355 27.9136 25.355Z" fill="#798393"/>
<path d="M17.4193 31.8585C17.3337 31.8585 17.2197 31.8012 17.1912 31.7153C15.8511 29.6238 14.9957 27.4178 14.6536 25.1257C14.1403 21.8883 15.3949 18.5076 16.5069 16.2156C16.8775 15.442 17.3052 14.6971 17.6759 13.9808C18.6453 12.2332 19.5292 10.6001 20.0139 8.62327C20.0424 8.48002 20.185 8.36542 20.3275 8.39407C20.4701 8.42272 20.5841 8.53732 20.5841 8.68057C20.5841 10.5428 20.9833 12.3478 21.3825 14.1241C21.468 14.5252 21.5535 14.9263 21.6391 15.2988C22.1238 17.5048 22.4659 19.8541 21.8672 22.1461C21.468 23.6359 20.6982 24.9825 19.9569 26.2718L19.5007 27.0453C18.6738 28.5065 17.7899 29.9963 17.7044 31.6007C17.7044 31.7153 17.6188 31.8299 17.5048 31.8585C17.4763 31.8585 17.4478 31.8585 17.4193 31.8585ZM20.0994 10.3423C19.5862 11.7175 18.9019 12.9781 18.1891 14.2673C17.7899 14.9836 17.3908 15.7285 17.0201 16.4734C15.4804 19.5963 14.8532 22.6332 15.1953 25.0398C15.5089 27.0167 16.1932 28.9362 17.2197 30.7412C17.5048 29.3373 18.2461 28.0194 18.9874 26.7588L19.4436 25.9853C20.185 24.7246 20.9548 23.4067 21.3254 22.0029C21.8957 19.8541 21.5535 17.5621 21.0974 15.442C21.0118 15.0409 20.9263 14.6398 20.8407 14.2673C20.5271 12.9781 20.242 11.6602 20.0994 10.3423Z" fill="#798393"/>
<path d="M18.5884 39.1076C18.5028 39.1076 18.4173 39.0503 18.3603 38.993C18.2747 38.8784 18.3033 38.7065 18.4173 38.6206C19.3867 37.7324 20.6413 36.5864 21.8958 35.2972C23.0933 34.0939 24.4049 33.2057 25.6879 32.7187C27.7979 31.9165 30.0788 31.6873 32.2743 31.4581C33.8425 31.3148 35.3251 31.1716 36.6937 30.8278C36.8648 30.7991 36.9788 30.8851 37.0358 31.0283C37.0929 31.1716 37.0073 31.3148 36.8648 31.3721C35.4391 31.9738 34.3272 33.0625 33.1582 34.2371C32.1317 35.2685 31.0768 36.3286 29.7652 37.0162C27.9974 37.933 26.0016 38.0189 24.0913 38.1335C22.2665 38.2195 20.3561 38.3341 18.7309 39.1363C18.6739 39.1076 18.6169 39.1076 18.5884 39.1076ZM35.097 31.6873C34.1846 31.8305 33.2722 31.9165 32.3028 32.0024C30.1359 32.203 27.8834 32.4322 25.859 33.2344C24.633 33.6928 23.407 34.5523 22.2665 35.6983C21.4396 36.5291 20.5842 37.3313 19.8429 38.0476C21.2115 37.6751 22.6371 37.5892 24.0342 37.5319C25.9731 37.4459 27.8264 37.3313 29.4801 36.4718C30.7061 35.8415 31.7325 34.8101 32.7305 33.8074C33.4718 33.0625 34.2416 32.3176 35.097 31.6873Z" fill="#798393"/>
<path d="M11.7174 47.1012C11.6603 47.1012 11.6033 47.0725 11.5463 47.0439C9.12275 45.1529 7.49755 42.3739 7.32647 39.824C7.21242 38.3629 7.29796 36.7012 7.49755 34.7529L7.52606 34.5524C7.86821 31.5155 8.21035 28.6505 7.72565 25.7282C7.69713 25.5849 7.66862 25.4703 7.66862 25.3557C7.64011 25.2125 7.75416 25.0692 7.89672 25.0406C8.03928 25.0119 8.18184 25.1265 8.21036 25.2698C8.23887 25.3844 8.26738 25.499 8.29589 25.6136C8.60953 27.1893 9.52192 28.5645 10.4628 30.0257C11.2041 31.143 11.974 32.3177 12.4302 33.6069C13.2855 35.899 13.086 38.3915 12.8579 40.2824C12.7723 40.97 12.6583 41.6863 12.5442 42.3739C12.3161 43.835 12.0595 45.3249 12.031 46.8147C12.031 46.9293 11.974 47.0152 11.8599 47.0725C11.8029 47.0725 11.7744 47.1012 11.7174 47.1012ZM8.52399 27.9056C8.60953 30.1116 8.38143 32.3177 8.12482 34.581L8.09631 34.7816C7.86821 36.7012 7.81118 38.3342 7.92523 39.7381C8.06779 41.9728 9.4649 44.4367 11.4893 46.1844C11.5748 44.8664 11.7744 43.5485 11.974 42.2593C12.088 41.5717 12.2021 40.8841 12.2876 40.1678C12.5157 38.3342 12.6868 35.9563 11.8884 33.7502C11.4322 32.5182 10.6909 31.4009 9.97812 30.2835C9.4649 29.5386 8.95167 28.7651 8.52399 27.9056Z" fill="#798393"/>
<path d="M16.165 55.2665C16.108 55.2665 16.0795 55.2665 16.0224 55.2379C15.8799 55.1519 15.8514 55.0087 15.9084 54.8654C16.3931 53.7767 16.7923 52.6021 17.1914 51.456C17.9898 49.164 18.7881 46.8147 20.4133 44.9238C22.3807 42.6318 25.2889 41.4285 27.8551 40.3971C28.2542 40.2252 28.6249 40.0819 28.967 39.9387C29.3092 39.7954 29.6798 39.6235 30.1075 39.4516C30.2501 39.3943 30.3926 39.4516 30.4782 39.5949C30.5352 39.7381 30.5067 39.8814 30.3641 39.9673C29.1381 40.7122 28.1117 41.9729 27.2278 43.8351C26.8856 44.5514 26.6005 45.2963 26.2869 46.0412C25.9447 46.9007 25.6026 47.7888 25.1749 48.6483C24.2055 50.5392 23.0365 51.8858 21.6394 52.6021C21.0121 52.9459 20.2993 53.1464 19.6435 53.347C19.3299 53.4329 19.0447 53.5189 18.7311 53.6335C17.5906 54.0346 16.8208 54.5216 16.3931 55.1806C16.3361 55.2379 16.2505 55.2665 16.165 55.2665ZM28.5108 40.7409C28.3683 40.7982 28.2257 40.8555 28.0546 40.9415C25.5456 41.9729 22.6943 43.1189 20.8125 45.3249C19.2728 47.1299 18.503 49.3359 17.7047 51.6566C17.4481 52.3729 17.22 53.0891 16.9348 53.8054C17.3625 53.5189 17.9043 53.261 18.5315 53.0318C18.8452 52.9172 19.1588 52.8313 19.4724 52.7453C20.1282 52.5448 20.784 52.3442 21.3542 52.0291C22.6373 51.3701 23.7208 50.1095 24.6332 48.3332C25.0323 47.5023 25.403 46.6428 25.7451 45.7833C26.0303 45.0384 26.3439 44.2935 26.686 43.5486C27.2278 42.4313 27.8265 41.4858 28.5108 40.7409Z" fill="#798393"/>
<path d="M14.5687 65.351C14.5401 65.351 14.5401 65.351 14.5116 65.351C11.6319 64.7207 9.00876 63.1163 7.12695 60.8243C5.55877 58.9334 4.53233 56.6414 3.56291 54.4353C2.59349 52.2579 1.59556 50.0232 0.0844093 48.1896C-0.0011276 48.075 -0.0011276 47.9031 0.112922 47.7885C0.226971 47.6739 0.398045 47.7025 0.512094 47.7885C1.76664 49.0777 3.56291 49.6221 5.30216 50.1664L5.53026 50.2237C7.49761 50.8254 9.15132 51.7708 10.5769 53.0888C12.1736 54.6072 13.2001 56.4695 13.6278 58.6755C13.7418 59.3345 13.8559 60.0221 13.9414 60.681C14.141 62.1135 14.3406 63.5747 14.8823 64.9213C14.9108 65.0072 14.9108 65.1218 14.8253 65.2078C14.7397 65.3224 14.6542 65.351 14.5687 65.351ZM1.62407 49.3929C2.59349 50.9113 3.33481 52.5731 4.04762 54.2061C5.01704 56.3835 6.01497 58.6182 7.52612 60.4518C9.20835 62.486 11.5464 63.9758 14.084 64.6634C13.6563 63.4028 13.4852 62.0849 13.2856 60.7956C13.2001 60.1367 13.086 59.4777 12.972 58.8188C12.5728 56.756 11.6034 54.9797 10.0922 53.5472C8.72364 52.2579 7.15546 51.3697 5.27365 50.7967L5.04555 50.7394C3.93357 50.367 2.70754 49.9945 1.62407 49.3929Z" fill="#798393"/>
<path d="M21.3824 73.8025C21.3254 73.8025 21.2683 73.7738 21.2113 73.7452C21.1258 73.6879 21.0687 73.5733 21.0973 73.4587C21.3254 72.37 21.3254 71.1667 21.3254 69.906C21.3254 68.3303 21.3254 66.7259 21.7816 65.2074C23.0076 61.1391 25.5167 58.9903 28.3964 56.4978C28.9096 56.068 29.3658 55.6383 29.8505 55.2372C30.3352 54.8074 30.7914 54.4063 31.3047 53.9766C31.4187 53.8906 31.5898 53.8906 31.6753 53.9766C31.7894 54.0625 31.7894 54.2344 31.7038 54.349C30.7629 55.6383 30.1927 57.3286 29.9361 59.6779C29.8505 60.4515 29.7935 61.2537 29.765 62.0273C29.708 63.1733 29.6224 64.3479 29.4229 65.4939C29.0522 67.8146 28.1968 69.6195 26.9423 70.8515C25.8873 71.8829 24.8894 72.2554 23.92 72.5992C23.1501 72.8857 22.3518 73.1722 21.4964 73.7738C21.4964 73.8025 21.4394 73.8025 21.3824 73.8025ZM30.4208 55.495C30.3638 55.5523 30.3067 55.6096 30.2497 55.6383C29.765 56.068 29.3088 56.4691 28.7956 56.8989C25.9444 59.3341 23.5208 61.4543 22.3518 65.3507C21.9241 66.7832 21.9241 68.3589 21.9241 69.8774C21.9241 70.9375 21.9241 71.9402 21.7816 72.8857C22.4944 72.4559 23.1501 72.2267 23.7774 71.9975C24.7468 71.6537 25.6307 71.3386 26.6001 70.3931C27.7691 69.2471 28.539 67.5567 28.9096 65.3507C29.0807 64.2333 29.1662 63.0587 29.2233 61.9413C29.2803 61.1678 29.3088 60.3656 29.3943 59.5634C29.5939 57.9589 29.9076 56.6124 30.4208 55.495Z" fill="#798393"/>
<path d="M18.8457 77.3266C18.8172 77.3266 18.7887 77.3266 18.7602 77.298C17.3345 76.8109 15.7664 76.725 14.2267 76.6677C12.3164 76.5817 10.3205 76.4671 8.58127 75.579C6.41433 74.4616 4.96021 72.3415 3.84823 70.3933C2.99286 68.9035 1.99493 67.1272 1.13956 65.1503C1.08253 65.0071 1.13956 64.8638 1.25361 64.7779C1.36766 64.7206 1.53873 64.7492 1.62427 64.8352C2.70773 66.239 3.96228 66.8407 5.61599 67.3564C6.69946 67.7002 7.83995 67.8148 8.98044 67.958C10.0924 68.0726 11.2614 68.2159 12.3449 68.531C16.5932 69.8203 18.5891 75.2638 19.1023 76.9255C19.1308 77.0401 19.1023 77.1547 19.0168 77.212C18.9883 77.298 18.9027 77.3266 18.8457 77.3266ZM2.33707 66.4109C2.99286 67.7575 3.70567 69.0181 4.33294 70.1068C5.4164 71.969 6.81351 74.0032 8.83788 75.0633C10.4631 75.9228 12.3164 76.0087 14.2552 76.0947C15.6238 76.152 17.0494 76.2379 18.3895 76.6104C17.306 73.4875 15.1676 70.0208 12.1738 69.1327C11.1189 68.8175 10.0069 68.7029 8.8949 68.5597C7.75441 68.4451 6.5569 68.3018 5.44492 67.958C4.21889 67.5569 3.22096 67.1272 2.33707 66.4109Z" fill="#798393"/>
<path d="M30.1086 87.8701C29.9946 87.8701 29.8805 87.7842 29.852 87.6696C29.5099 86.7528 29.0822 85.836 28.683 84.9765C28.2553 84.0883 27.8276 83.1428 27.457 82.1687C26.8582 80.5357 26.345 78.1291 27.3429 76.0376C28.1128 74.4046 29.5669 73.3158 30.9925 72.2558L31.4487 71.912C32.9884 70.766 34.528 69.4767 34.7846 67.7004C34.8132 67.5572 34.9557 67.4426 35.0698 67.4712C35.2123 67.4712 35.3264 67.5858 35.3549 67.7291C35.64 70.8806 35.0698 74.0608 33.7012 76.8971C33.3875 77.5561 33.0169 78.1864 32.6747 78.8167C32.019 79.9627 31.3632 81.166 30.964 82.4266C30.4223 84.2602 30.3652 86.0652 30.3652 87.5836C30.3652 87.7269 30.2797 87.8415 30.1371 87.8701C30.1657 87.8701 30.1371 87.8701 30.1086 87.8701ZM34.8987 69.2475C34.2144 70.5081 33.0169 71.4822 31.8194 72.3704L31.3347 72.7142C29.9661 73.7169 28.5405 74.777 27.8562 76.2668C26.9438 78.1864 27.4285 80.4211 27.9987 81.9682C28.3409 82.9136 28.7685 83.8304 29.1962 84.7186C29.4243 85.177 29.6524 85.6641 29.852 86.1511C29.909 84.9478 30.0516 83.6012 30.4508 82.2547C30.8499 80.9081 31.5342 79.7048 32.19 78.5302C32.5322 77.9285 32.9028 77.2696 33.2165 76.6393C34.3284 74.3473 34.8987 71.7974 34.8987 69.2475Z" fill="#798393"/>
<path d="M29.623 87.1253C29.5375 87.1253 29.4234 87.068 29.3949 86.9821C28.6821 85.8647 27.285 85.1198 25.1181 84.7187C23.6069 84.4322 21.9817 84.5182 20.4421 84.6328L20.0714 84.6614C18.3036 84.776 16.5644 84.8333 14.8822 84.3463C13.8842 84.0598 12.9433 83.6013 12.0594 83.1716C11.2326 82.7705 10.3487 82.3407 9.46481 82.0542C9.32225 82.0256 9.23672 81.8823 9.26523 81.7391C9.29374 81.5958 9.4363 81.4812 9.57886 81.5099C11.2896 81.6245 13.0289 81.4812 14.8536 81.0515C15.4524 80.9082 16.0226 80.765 16.5929 80.5931C17.6478 80.3066 18.7598 79.9914 19.8718 79.8482C21.6396 79.6476 23.4073 80.1633 24.8615 81.252C26.0875 82.1975 28.7106 84.5182 29.8796 86.6956C29.9652 86.8388 29.9081 87.0107 29.7656 87.068C29.7371 87.0967 29.68 87.1253 29.623 87.1253ZM22.7801 83.9738C23.5784 83.9738 24.4053 84.0311 25.2036 84.1743C26.3441 84.3749 27.285 84.6901 28.0263 85.0912C26.7433 83.6013 25.1751 82.2548 24.4908 81.7391C23.1507 80.7363 21.5255 80.2493 19.9288 80.4498C18.8454 80.5644 17.7904 80.8796 16.7355 81.1661C16.1367 81.338 15.5664 81.5099 14.9677 81.6245C13.6561 81.9396 12.4016 82.0829 11.1756 82.1115C11.5462 82.2834 11.9454 82.484 12.316 82.6559C13.1999 83.0856 14.1123 83.544 15.0532 83.8019C16.6499 84.2603 18.3321 84.203 20.0429 84.0884L20.4135 84.0597C21.1834 84.0024 21.9817 83.9738 22.7801 83.9738Z" fill="#798393"/>
<path d="M26.2587 25.4413C26.2587 25.4413 26.8289 25.0688 27.7413 24.6104C28.6537 24.152 29.9367 23.6363 31.2768 23.2925C33.957 22.6335 36.7227 22.9773 36.7227 22.9773C36.7512 22.9773 36.7512 23.006 36.7512 23.0346C36.7512 23.0633 36.7227 23.0633 36.6942 23.0633C36.6942 23.0633 33.957 22.8914 31.3624 23.6936C28.7392 24.3239 26.5153 25.871 26.5153 25.871C26.4012 25.957 26.2301 25.9283 26.1731 25.8137C26.0876 25.6991 26.1161 25.5272 26.2587 25.4413C26.2301 25.4413 26.2301 25.4413 26.2587 25.4413Z" fill="#798393"/>
<path d="M19.1875 17.4769C19.1875 17.4769 19.1305 18.3364 18.7313 19.597C18.3892 20.829 17.8474 22.462 17.5623 24.1524C17.2487 25.7854 17.1917 27.5045 17.2487 28.7651C17.3057 30.0257 17.4768 30.8565 17.4768 30.8565C17.5053 30.9998 17.4198 31.1144 17.2772 31.143C17.1346 31.1717 17.0206 31.0857 16.9921 30.9425V30.9138C16.9921 30.9138 16.3648 27.4758 17.1631 24.0378C17.5053 22.3474 18.1041 20.7144 18.5032 19.5111C18.9309 18.3078 19.0164 17.4483 19.0164 17.4483C19.0164 17.391 19.0735 17.3623 19.1305 17.3623C19.159 17.3623 19.216 17.4196 19.1875 17.4769Z" fill="#798393"/>
<path d="M19.3304 37.8756C19.3304 37.8756 20.0433 37.6751 21.0412 37.274C22.0676 36.8729 23.3792 36.2712 24.6908 35.6409C26.0023 34.982 27.3709 34.4376 28.4259 34.1225C29.4808 33.8073 30.2221 33.75 30.2221 33.75C30.2507 33.75 30.2792 33.7787 30.2792 33.8073C30.2792 33.836 30.2507 33.8646 30.2221 33.8646C30.2221 33.8646 29.5093 34.0079 28.4829 34.409C27.4565 34.7814 26.1734 35.469 24.8618 36.0993C23.5503 36.7296 22.2102 37.3599 21.1837 37.761C20.1573 38.1621 19.4445 38.3913 19.4445 38.3913C19.3019 38.4486 19.1594 38.3627 19.1309 38.2481C19.1309 38.0762 19.1879 37.9329 19.3304 37.8756Z" fill="#798393"/>
<path d="M10.0918 35.1538C10.0918 35.1538 10.3199 35.8414 10.4339 36.9301C10.5765 38.0188 10.5765 39.48 10.6335 40.9125C10.6905 42.345 10.8331 43.7488 11.2038 44.7516C11.5459 45.7543 11.9736 46.2987 11.9736 46.2987C12.0591 46.4133 12.0306 46.5566 11.9451 46.6425C11.831 46.7285 11.6885 46.6998 11.6029 46.6139L11.5744 46.5852C11.5744 46.5852 11.0897 45.9836 10.7191 44.9235C10.3484 43.8634 10.1203 42.4023 10.1488 40.9411C10.1773 39.48 10.2629 38.0475 10.1773 36.9874C10.1203 35.9274 9.94922 35.2111 9.94922 35.2111C9.94922 35.1824 9.94922 35.1251 10.0062 35.1251C10.0348 35.0965 10.0633 35.1251 10.0918 35.1538Z" fill="#798393"/>
<path d="M16.5935 53.8046C16.5935 53.8046 17.1638 53.4322 17.8766 52.7446C18.5894 52.057 19.4162 50.9969 20.1576 49.8509C20.8989 48.7336 21.5832 47.5589 22.2104 46.7281C22.8092 45.8972 23.3794 45.4961 23.3794 45.4961C23.408 45.4674 23.4365 45.4674 23.465 45.4961C23.4935 45.5247 23.4935 45.5534 23.465 45.582C23.465 45.582 22.9232 46.0118 22.3815 46.8427C21.8113 47.6735 21.184 48.8768 20.4712 50.0515C19.7584 51.2261 18.9315 52.3148 18.1902 53.0597C17.4489 53.8046 16.8786 54.1771 16.8786 54.1771L16.8501 54.2057C16.7361 54.2917 16.5935 54.263 16.508 54.1484C16.4224 54.0338 16.4795 53.8906 16.5935 53.8046Z" fill="#798393"/>
<path d="M7.15496 55.1231C7.15496 55.1231 7.72521 55.6674 8.38099 56.6129C9.06529 57.5583 9.7781 58.9049 10.5479 60.2228C11.2892 61.5407 12.1731 62.7726 12.9715 63.5175C13.7698 64.2911 14.4541 64.6062 14.4541 64.6062C14.5682 64.6635 14.6252 64.8068 14.5682 64.9501C14.5397 65.036 14.3686 65.0933 14.2545 65.036H14.226C14.226 65.036 13.4847 64.6922 12.6578 63.8614C11.8025 63.0591 10.8901 61.7699 10.1773 60.4233C9.46446 59.0768 8.80868 57.7016 8.18141 56.7561C7.58265 55.8107 7.04092 55.2663 7.04092 55.2663C7.0124 55.2377 7.0124 55.1517 7.04092 55.1231C7.04092 55.0658 7.12645 55.0658 7.15496 55.1231Z" fill="#798393"/>
<path d="M26.8568 61.7985C26.8568 61.7985 26.5147 62.5147 26.201 63.6607C25.8589 64.8067 25.4027 66.3252 24.8895 67.815C24.3477 69.3048 23.692 70.7659 23.0647 71.7974C22.4374 72.8288 21.8672 73.4304 21.8672 73.4304C21.7816 73.545 21.6106 73.545 21.525 73.4591C21.411 73.3731 21.411 73.2012 21.4965 73.1153C21.4965 73.1153 22.0383 72.5709 22.6655 71.5682C23.2928 70.594 23.9486 69.1615 24.5188 67.6717C25.0891 66.2106 25.5738 64.6921 25.9729 63.5748C26.3436 62.4288 26.7143 61.7125 26.7143 61.7125C26.7428 61.6552 26.7998 61.6552 26.8283 61.6839C26.8568 61.6839 26.8568 61.7412 26.8568 61.7985Z" fill="#798393"/>
<path d="M8.78043 71.5395C8.78043 71.5395 9.23663 72.0552 10.1205 72.5709C11.0044 73.0867 12.2874 73.5737 13.599 74.0321C14.9106 74.4905 16.1936 75.0062 17.1345 75.4933C18.0754 75.9803 18.6172 76.4387 18.6172 76.4387C18.7312 76.5247 18.7597 76.6966 18.6742 76.7825C18.5887 76.8971 18.4176 76.9258 18.3321 76.8398C18.3321 76.8398 17.8188 76.4101 16.9349 75.923C16.0511 75.436 14.768 74.9203 13.485 74.4332C12.2019 73.9175 10.9189 73.4018 10.0065 72.8288C9.09407 72.2844 8.63787 71.7114 8.63787 71.7114V71.6828C8.60936 71.6255 8.60936 71.5682 8.66638 71.5109C8.66638 71.4822 8.75192 71.5109 8.78043 71.5395Z" fill="#798393"/>
<path d="M29.5664 86.38C29.5664 86.38 29.3383 85.807 29.1102 84.8902C28.9106 83.9734 28.7681 82.7128 28.7966 81.4522C28.8536 80.1916 29.1673 78.9597 29.4524 78.0715C29.7375 77.1834 30.0797 76.639 30.0797 76.639C30.1082 76.6104 30.1367 76.6104 30.1652 76.6104C30.1937 76.6104 30.1937 76.639 30.1937 76.6677C30.1937 76.6677 30.0226 77.2693 29.823 78.1575C29.5949 79.0456 29.4809 80.2489 29.4524 81.4522C29.4239 82.6555 29.5379 83.8588 29.7375 84.747C29.8801 85.6351 30.0511 86.2081 30.0511 86.2081C30.0797 86.3514 30.0226 86.4947 29.8801 86.5233C29.766 86.5806 29.6235 86.5233 29.5664 86.38Z" fill="#798393"/>
<path d="M20.1009 82.1686C20.1009 82.1686 22.4675 81.9394 24.7199 82.7703C27.0009 83.4865 28.7687 85.1769 28.7687 85.1769C28.8827 85.2628 28.8827 85.4347 28.7972 85.5207C28.7116 85.6353 28.5406 85.6353 28.455 85.5493C28.455 85.5493 28.0559 85.1482 27.3431 84.6612C26.6588 84.1455 25.6608 83.6011 24.6059 83.1714C22.4675 82.2832 20.1294 82.3978 20.1294 82.3978C20.0724 82.3978 20.0154 82.3692 20.0154 82.2832C19.9869 82.2259 20.0439 82.1686 20.1009 82.1686Z" fill="#798393"/>
<path d="M32.9038 17.3335C32.7612 17.3335 32.6472 17.2475 32.6187 17.1043C32.5902 16.961 32.6757 16.7891 32.8468 16.7605C34.472 16.4453 36.3253 16.3021 38.5778 16.3307C38.7488 16.3307 38.8629 16.474 38.8629 16.6172C38.8629 16.7891 38.7203 16.9324 38.5778 16.9037C36.4108 16.8751 34.5575 17.0183 32.9608 17.3335C32.9323 17.3335 32.9038 17.3335 32.9038 17.3335Z" fill="#798393"/>
<path d="M26.7148 21.1724C26.6293 21.1724 26.5722 21.1438 26.5152 21.0865C26.4012 20.9432 26.4012 20.7713 26.5152 20.6567C28.5681 18.7945 31.0772 17.5625 33.5292 16.3879C34.2135 16.0441 34.8978 15.7289 35.5251 15.3851C35.6677 15.2992 35.8387 15.3565 35.8958 15.4997C35.9813 15.643 35.9243 15.8149 35.7817 15.8722C35.1259 16.216 34.4702 16.5311 33.7573 16.8749C31.3623 18.0782 28.9103 19.2815 26.8859 21.0865C26.8574 21.1438 26.7718 21.1724 26.7148 21.1724Z" fill="#798393"/>
<path d="M24.2355 27.1031C24.207 27.1031 24.15 27.1031 24.1214 27.0745C23.9789 27.0172 23.9219 26.8453 23.9789 26.702C25.2049 24.1235 26.2314 21.4877 27.0867 18.6514C27.1437 18.5081 27.2863 18.4222 27.4574 18.4508C27.5999 18.5368 27.6855 18.68 27.657 18.8233C26.7731 21.6596 25.7466 24.3241 24.5206 26.9312C24.4636 27.0458 24.3495 27.1031 24.2355 27.1031Z" fill="#798393"/>
<path d="M17.6767 33.8643C17.6197 33.8643 17.5627 33.8643 17.5342 33.8357C17.3916 33.7497 17.3631 33.5778 17.4201 33.4346C19.3875 30.1112 22.3813 27.3035 25.8312 25.5845C25.9738 25.5272 26.1449 25.5845 26.2019 25.7277C26.2589 25.871 26.2019 26.0429 26.0593 26.1002C22.6949 27.7619 19.7866 30.4836 17.8763 33.7211C17.8478 33.8357 17.7623 33.8643 17.6767 33.8643Z" fill="#798393"/>
<path d="M16.8509 40.5117C16.8224 40.5117 16.7939 40.5117 16.7654 40.5117C16.6228 40.4831 16.5088 40.3112 16.5658 40.1679C17.3071 37.4175 17.5067 34.0941 17.1075 31.1145C17.079 30.9712 17.193 30.828 17.3641 30.7993C17.5067 30.7707 17.6778 30.8853 17.6778 31.0572C18.0769 34.1227 17.9059 37.5034 17.136 40.3398C17.1075 40.4544 16.9935 40.5117 16.8509 40.5117Z" fill="#798393"/>
<path d="M12.3458 48.2754C12.3173 48.2754 12.2888 48.2754 12.2888 48.2754C12.1462 48.2468 12.0322 48.0749 12.0892 47.9316C13.0016 44.1498 15.3966 40.6831 18.6185 38.4771C18.7611 38.3911 18.9322 38.4198 19.0177 38.563C19.1032 38.7063 19.0747 38.8782 18.9322 38.9641C15.8243 41.1129 13.5148 44.4363 12.6309 48.1035C12.6024 48.1895 12.4884 48.2754 12.3458 48.2754Z" fill="#798393"/>
<path d="M15.3677 65.7231C15.2537 65.7231 15.1396 65.6657 15.1111 65.5511C13.714 61.9985 14.0562 58.0735 16.1091 54.5495C16.1946 54.4062 16.3657 54.3776 16.5082 54.4349C16.6508 54.5208 16.6793 54.6927 16.6223 54.836C14.6834 58.2167 14.3413 61.9412 15.6814 65.3506C15.7384 65.4938 15.6814 65.6658 15.5103 65.7231C15.4248 65.7231 15.3963 65.7231 15.3677 65.7231Z" fill="#798393"/>
<path d="M21.1561 73.9742C21.042 73.9742 20.928 73.8883 20.8995 73.7737C19.6449 70.1924 17.3069 67.0982 14.4557 65.2646C14.2846 65.2073 14.2561 65.0067 14.3416 64.8921C14.4272 64.7489 14.5982 64.7202 14.7408 64.8062C17.7061 66.7257 20.1296 69.9345 21.4127 73.6018C21.4697 73.745 21.3842 73.9169 21.2416 73.9742C21.2131 73.9742 21.1846 73.9742 21.1561 73.9742Z" fill="#798393"/>
<path d="M19.7579 77.9283C19.7294 77.9283 19.7009 77.9283 19.7009 77.9283C19.5583 77.8997 19.4443 77.7278 19.5013 77.5845C19.8435 76.152 20.5563 74.3757 21.2976 73.1724C21.3831 73.0291 21.5542 73.0005 21.6968 73.0864C21.8393 73.1724 21.8678 73.3443 21.7823 73.4875C21.098 74.6335 20.3852 76.3525 20.0716 77.7278C19.986 77.8424 19.872 77.9283 19.7579 77.9283Z" fill="#798393"/>
<path d="M30.1944 88.0133C30.0803 88.0133 29.9948 87.956 29.9378 87.87C29.9092 87.8127 26.7729 82.2546 18.2762 77.1262C18.1337 77.0403 18.1052 76.8684 18.1907 76.7251C18.2762 76.5819 18.4473 76.5532 18.5899 76.6392C27.2291 81.8821 30.4225 87.5549 30.451 87.6122C30.5365 87.7554 30.4795 87.9273 30.3369 88.0133C30.2799 87.9846 30.2514 88.0133 30.1944 88.0133Z" fill="#798393"/>
<path d="M16.2232 54.7787C16.1376 54.7787 16.0521 54.75 15.9951 54.6641C14.2558 52.5153 12.5166 49.4784 11.4046 46.5847C11.3476 46.4415 11.4331 46.2696 11.5757 46.2123C11.7182 46.155 11.8893 46.2409 11.9463 46.3842C13.0298 49.2206 14.712 52.2002 16.4513 54.3203C16.5653 54.4349 16.5368 54.6068 16.4227 54.7214C16.3657 54.75 16.3087 54.7787 16.2232 54.7787Z" fill="#798393"/>
<path d="M48.3272 12.4342C48.0991 12.4342 47.871 12.4055 47.6714 12.3482C47.2437 12.205 47.0156 11.9185 47.0156 11.546C47.0156 11.1449 47.4433 10.7438 48.0991 10.5146C48.8974 10.2281 49.9524 10.1994 50.3516 10.7151C50.5797 11.0016 50.6082 11.3168 50.4086 11.6033C50.1235 12.0904 49.1541 12.4342 48.3272 12.4342ZM49.2681 10.5719C48.926 10.5719 48.5553 10.6292 48.2131 10.7438C47.6714 10.9443 47.3007 11.2308 47.3007 11.5174C47.3007 11.7752 47.4433 11.9471 47.7569 12.0331C48.4983 12.2623 49.8669 11.9185 50.209 11.4028C50.3231 11.2308 50.3231 11.0589 50.152 10.8584C49.9809 10.6578 49.6388 10.5719 49.2681 10.5719Z" fill="#798393"/>
<path d="M49.0966 10.1992C48.7545 10.1992 48.5264 10.0559 48.4123 9.76941C48.2983 9.45426 48.4979 9.02451 48.9541 8.6234C49.4958 8.165 50.2941 7.8212 50.7788 8.1077C51.064 8.2796 51.178 8.5088 51.0925 8.7953C50.9499 9.45426 49.8664 10.1705 49.1821 10.1992C49.1536 10.1992 49.1251 10.1992 49.0966 10.1992ZM50.3797 8.2796C50.0375 8.2796 49.5528 8.48015 49.1536 8.82395C48.8115 9.13911 48.6119 9.45426 48.6974 9.65481C48.726 9.71211 48.8115 9.94131 49.1821 9.91266C49.8094 9.85536 50.7218 9.22506 50.8359 8.70935C50.8644 8.53745 50.8074 8.42285 50.6363 8.3369C50.5793 8.30825 50.4652 8.2796 50.3797 8.2796Z" fill="#798393"/>
<path d="M32.418 16.9035C32.1899 16.9035 31.9903 16.8176 31.7908 16.6457C31.249 16.1586 31.4486 14.9267 31.9618 13.9526C32.361 13.179 33.0168 12.4341 33.7011 12.606C33.9292 12.6633 34.2428 12.8639 34.2998 13.4655C34.4139 14.4969 33.7296 16.2732 32.8457 16.7603C32.7317 16.8749 32.5606 16.9035 32.418 16.9035ZM33.5015 12.8925C33.1023 12.8925 32.5891 13.3509 32.2184 14.0958C31.7622 14.9553 31.5627 16.0727 31.9903 16.4451C32.2184 16.6457 32.4751 16.6743 32.7602 16.5311C33.53 16.1013 34.1573 14.4396 34.0717 13.5228C34.0432 13.179 33.9007 12.9498 33.6726 12.8925C33.6155 12.8925 33.5585 12.8925 33.5015 12.8925Z" fill="#798393"/>
<path d="M30.6786 20.828C30.5076 20.828 30.308 20.7993 30.1654 20.742C29.8233 20.5988 29.5952 20.3409 29.5667 19.9398C29.5096 19.2236 30.5646 18.5646 31.6196 18.3068C32.5605 18.1062 33.2448 18.2495 33.4158 18.7652C33.5299 19.0803 33.4158 19.4241 33.0737 19.7679C32.5605 20.3409 31.5055 20.828 30.6786 20.828ZM32.3894 18.5073C32.1613 18.5073 31.9332 18.536 31.7051 18.5933C30.7927 18.7938 29.8233 19.3955 29.8518 19.9112C29.8803 20.1977 30.0229 20.3982 30.251 20.4842C30.9353 20.742 32.2753 20.1977 32.8741 19.5674C33.0167 19.4241 33.2448 19.1376 33.1592 18.8798C33.1022 18.5933 32.76 18.5073 32.3894 18.5073Z" fill="#798393"/>
<path d="M21.9254 27.9908C21.7544 27.9908 21.6118 27.9335 21.4407 27.8189C20.899 27.4751 21.013 26.3864 21.3552 25.4982C21.6688 24.6674 22.2676 23.7792 22.9804 23.8652C23.1515 23.8938 23.4081 24.0084 23.4936 24.4668C23.7217 25.3836 23.2085 27.2745 22.4101 27.8189C22.2391 27.9335 22.068 27.9908 21.9254 27.9908ZM22.8663 24.1517C22.3816 24.1517 21.8684 24.8966 21.6118 25.6128C21.2696 26.501 21.2696 27.3605 21.5833 27.5897C21.8114 27.7329 22.011 27.7329 22.2391 27.5897C22.9234 27.1026 23.4081 25.355 23.2085 24.5241C23.18 24.2949 23.0944 24.1517 22.9519 24.1517C22.9234 24.1517 22.8948 24.1517 22.8663 24.1517Z" fill="#798393"/>
<path d="M19.2444 35.4402C18.9878 35.4402 18.7597 35.3256 18.5601 35.1251C18.161 34.6667 18.5031 33.8358 18.9878 33.2055C19.5866 32.3747 20.556 31.6298 21.2403 31.9736C21.4114 32.0595 21.6109 32.2601 21.5824 32.6898C21.5254 33.578 20.5845 35.0105 19.6436 35.3543C19.501 35.4116 19.3585 35.4402 19.2444 35.4402ZM20.8411 32.1741C20.3279 32.1741 19.6436 32.7471 19.1874 33.3774C18.7027 34.0364 18.5316 34.6953 18.7597 34.9532C18.9593 35.1824 19.2159 35.2397 19.5295 35.1251C20.3564 34.8386 21.2403 33.4634 21.2688 32.6898C21.2688 32.4606 21.2118 32.3174 21.0977 32.2601C21.0122 32.2028 20.9266 32.1741 20.8411 32.1741Z" fill="#798393"/>
<path d="M15.2246 41.4277C15.196 41.4277 15.1675 41.4277 15.139 41.4277C14.4832 41.3704 14.027 40.2817 13.8845 39.2216C13.7419 38.1615 13.856 36.7863 14.6543 36.4998C14.7969 36.4425 15.025 36.4425 15.2816 36.7577C15.9374 37.5026 16.5646 39.8233 16.0514 40.912C15.8803 41.2271 15.5952 41.4277 15.2246 41.4277ZM14.7398 36.7577C14.1411 36.9869 14.027 38.1615 14.1696 39.1643C14.3122 40.253 14.7398 41.0839 15.1675 41.1125C15.4812 41.1412 15.6522 40.9979 15.7948 40.7401C16.251 39.7946 15.6522 37.5599 15.082 36.9009C14.9679 36.8436 14.8254 36.729 14.7398 36.7577Z" fill="#798393"/>
<path d="M14.939 50.1085C14.7965 50.1085 14.6539 50.0798 14.5113 49.9939C14.0837 49.7933 13.9126 49.1344 14.0552 48.2176C14.2262 46.9283 14.9961 45.4099 15.8799 45.2379C16.2221 45.1806 16.5357 45.3239 16.7068 45.6391C17.163 46.5272 16.6783 48.7619 15.7944 49.6787C15.4808 49.9652 15.1956 50.1085 14.939 50.1085ZM15.9085 45.5531C15.1671 45.6964 14.4828 47.0716 14.3118 48.2749C14.1977 49.0484 14.3118 49.5928 14.6254 49.7647C14.9105 49.9079 15.2242 49.822 15.5378 49.5068C16.3076 48.7046 16.8208 46.5845 16.4217 45.811C16.3076 45.5818 16.1651 45.4958 15.9085 45.5531Z" fill="#798393"/>
<path d="M13.8557 55.6953C13.4565 55.6953 13.0003 55.4088 12.4871 54.8645C11.6317 53.8904 10.9474 52.3719 11.4036 51.5697C11.5747 51.2546 11.8598 51.1113 12.2305 51.1686C13.1999 51.3692 14.5685 53.1741 14.7111 54.4634C14.7681 55.0364 14.597 55.4375 14.1693 55.638C14.0553 55.6667 13.9697 55.6953 13.8557 55.6953ZM12.0309 51.4265C11.8598 51.4265 11.7458 51.5124 11.6317 51.6843C11.2611 52.3433 11.8883 53.7471 12.7152 54.6639C13.2284 55.2369 13.7416 55.4948 14.0268 55.3515C14.3404 55.2083 14.4544 54.9218 14.4259 54.4634C14.3119 53.3174 13.0003 51.5984 12.1735 51.4265C12.1164 51.4551 12.0594 51.4265 12.0309 51.4265Z" fill="#798393"/>
<path d="M17.6759 65.2931C17.6189 65.2931 17.5334 65.2931 17.4764 65.2644C16.735 65.1212 16.4214 63.574 16.5925 62.2275C16.735 61.0528 17.1627 60.3652 17.733 60.3652H17.7615C18.0466 60.3652 18.3032 60.6231 18.5028 61.0528C18.9305 61.9983 19.1016 64.0325 18.4458 64.892C18.2177 65.1498 17.9611 65.2931 17.6759 65.2931ZM17.733 60.6517C17.2197 60.6517 16.9631 61.4826 16.8776 62.2561C16.735 63.574 17.0487 64.892 17.5334 64.9779C17.8185 65.0352 18.0466 64.9493 18.2177 64.7201C18.7594 64.0038 18.6739 62.1415 18.2462 61.1674C18.0751 60.8523 17.904 60.6517 17.733 60.6517Z" fill="#798393"/>
<path d="M19.0173 73.7161C18.5897 73.7161 18.0479 73.3437 17.5062 72.6847C16.7364 71.7106 16.2517 70.3641 16.7649 69.6765C16.9359 69.4473 17.1926 69.39 17.5062 69.5046C18.4186 69.7911 19.7872 71.4241 19.8727 72.5988C19.9012 73.0858 19.7016 73.4583 19.3025 73.6588C19.2169 73.6875 19.1314 73.7161 19.0173 73.7161ZM17.2496 69.7338C17.0785 69.7338 17.0215 69.8197 16.993 69.8484C16.5653 70.3927 17.05 71.6247 17.7343 72.5128C18.276 73.2004 18.8748 73.5442 19.1884 73.401C19.5021 73.2577 19.6161 72.9999 19.5876 72.6274C19.5021 71.5674 18.2475 70.0489 17.4207 69.7911C17.3636 69.7338 17.3066 69.7338 17.2496 69.7338Z" fill="#798393"/>
<path d="M16.963 79.7329C15.965 79.7329 14.9386 79.475 14.8245 78.7588C14.796 78.5582 14.853 78.2717 15.2807 77.9852C16.2216 77.3262 18.4171 77.0111 19.358 77.5841C19.7286 77.8133 19.8712 78.1285 19.8427 78.5296C19.7572 79.2745 18.3886 79.7042 17.1055 79.7329C17.077 79.7329 17.02 79.7329 16.963 79.7329ZM15.1097 78.7015C15.1952 79.1599 15.908 79.4464 16.9344 79.4464C16.9915 79.4464 17.0485 79.4464 17.1055 79.4464C18.3886 79.4177 19.5005 78.9593 19.5576 78.5009C19.5861 78.2144 19.472 77.9852 19.2154 77.8133C18.3601 77.2976 16.3072 77.6127 15.4233 78.2144C15.2807 78.329 15.0811 78.5009 15.1097 78.7015Z" fill="#798393"/>
<path d="M24.6049 80.1343C24.5764 80.1343 24.5479 80.1343 24.5193 80.1343C23.778 80.077 23.2933 78.6732 23.2078 77.3553C23.1508 76.1233 23.4644 75.2925 24.0917 75.1779C24.3483 75.1206 24.7189 75.1779 25.0896 75.7222C25.7169 76.6104 26.0305 78.6159 25.4888 79.59C25.2892 79.9338 24.9755 80.1343 24.6049 80.1343ZM24.1487 75.493C23.6925 75.5503 23.4359 76.2952 23.4929 77.3553C23.5499 78.6445 24.0346 79.7905 24.5193 79.8478C24.833 79.8765 25.0611 79.7332 25.2322 79.4467C25.6883 78.6445 25.4888 76.7823 24.8615 75.8941C24.7189 75.6649 24.4623 75.4071 24.1487 75.493Z" fill="#798393"/>
<path d="M65.2071 101.651C58.079 101.651 52.8613 99.4447 52.7757 99.4161C52.6332 99.3588 52.5762 99.1869 52.6332 99.0436C52.6902 98.9004 52.8613 98.8144 53.0038 98.9004C53.0894 98.929 62.698 102.969 73.5612 99.9891C85.5079 96.723 88.7298 91.6805 88.7583 91.6519C88.8438 91.5086 89.0149 91.48 89.1574 91.5659C89.3 91.6519 89.3285 91.8238 89.243 91.967C89.1004 92.1676 85.907 97.21 73.7323 100.562C70.7385 101.336 67.8588 101.651 65.2071 101.651Z" fill="#798393"/>
<path d="M64.1507 102.654C56.0817 102.654 50.6074 100.19 50.5218 100.161C50.3793 100.104 50.3222 99.9321 50.3793 99.7888C50.4363 99.6456 50.6074 99.5883 50.7499 99.6456C50.864 99.7029 61.2139 104.344 74.4437 100.706C86.3048 97.4395 90.8953 91.7954 90.9238 91.7381C91.0093 91.6235 91.2089 91.5949 91.3229 91.6808C91.437 91.7668 91.4655 91.9673 91.38 92.0819C91.1804 92.3111 86.6754 97.9266 74.5862 101.25C70.8226 102.281 67.2871 102.654 64.1507 102.654Z" fill="#798393"/>
<path d="M62.4123 103.8C53.4024 103.8 47.5859 101.278 47.5003 101.25C47.3578 101.192 47.3008 101.021 47.3578 100.877C47.4148 100.734 47.5859 100.677 47.7284 100.734C47.8425 100.791 58.7057 105.49 73.8457 101.88C87.5316 98.6139 93.6903 92.1677 93.7473 92.1104C93.8614 91.9958 94.0324 91.9958 94.1465 92.1104C94.2605 92.225 94.2605 92.3969 94.1465 92.5115C94.0894 92.5688 87.8453 99.1296 73.9598 102.453C69.7685 103.427 65.8623 103.8 62.4123 103.8Z" fill="#798393"/>
<path d="M102.13 98.0691C101.075 98.0691 100.219 97.9831 99.9629 97.7539C99.8773 97.668 99.8203 97.582 99.8203 97.4674C99.8203 97.095 100.162 96.6079 102.729 96.3501C104.097 96.2068 104.411 95.9776 104.496 95.9203V81.5666C104.496 81.452 104.582 81.3374 104.696 81.3088C106.663 80.5925 111.425 80.9077 111.624 80.9363C111.767 80.9363 111.881 81.0796 111.881 81.2228V97.4101C111.881 97.4961 111.853 97.5534 111.795 97.6107C111.738 97.668 111.653 97.7253 111.567 97.6966C109.686 97.5534 108.317 97.5247 106.464 97.7539C105.209 97.9258 103.498 98.0691 102.13 98.0691Z" fill="#798393"/>
<path d="M17.1055 102.882C15.7084 102.882 14.5679 102.796 14.4539 102.796C14.3113 102.796 14.1973 102.653 14.1973 102.51V86.2653C14.1973 86.1793 14.2258 86.122 14.2828 86.0647C14.3398 86.0074 14.4254 85.9788 14.5109 85.9788C16.4783 86.122 17.8183 86.1507 19.6146 85.9215C22.2377 85.6063 25.5166 85.4058 26.0869 85.9215C26.1724 86.0074 26.2295 86.122 26.2295 86.2366C26.2295 86.6377 25.8873 87.0961 23.3212 87.354C21.9526 87.4972 21.639 87.7264 21.5534 87.7837V102.137C21.5534 102.252 21.4679 102.367 21.3539 102.395C20.3844 102.796 18.6167 102.882 17.1055 102.882Z" fill="#798393"/>
<path d="M25.9443 88.3571C22.922 88.2998 21.2968 88.0706 21.2398 88.0706C21.1258 88.042 21.0402 87.956 21.0117 87.8701C21.0117 87.8128 21.0117 87.6409 21.0973 87.5263C21.3254 87.1825 22.0382 86.9533 23.2927 86.8387C24.9749 86.6668 26.1154 86.3803 26.201 86.0938C26.201 86.0938 26.258 86.2084 26.258 86.2657V88.0706C26.258 88.1566 26.2295 88.2139 26.1724 88.2712C26.0869 88.3285 26.0299 88.3571 25.9443 88.3571Z" fill="#798393"/>
<path d="M100.075 93.1699C103.098 93.2272 104.723 95.5765 104.78 95.5765C104.894 95.6052 104.922 95.6911 104.951 95.7771C104.951 95.8344 105.008 96.0063 104.922 96.1209C104.694 96.4647 103.982 96.6939 102.727 96.8085C101.045 96.9804 99.9043 97.2669 99.8187 97.5534C99.8187 97.5534 99.7617 97.4388 99.7617 97.3815V93.4278C99.7617 93.3418 99.7902 93.2845 99.8473 93.2272C99.9328 93.1986 100.018 93.1699 100.075 93.1699Z" fill="#798393"/>
<path d="M26.913 104C23.2634 104 21.2675 103.713 21.239 103.713C21.0965 103.685 20.9824 103.57 20.9824 103.427V87.7839C20.9824 87.698 21.0109 87.5547 21.125 87.4401C21.1535 87.4688 21.239 87.4974 21.3246 87.4974C21.3816 87.4974 27.2836 88.3569 37.5196 87.0677C42.5662 86.4374 49.6943 84.1167 56.6228 81.8534C64.0075 79.4467 71.6488 76.9542 77.0946 76.3812C91.921 74.7768 101.016 76.0087 104.951 80.1057C105.008 80.163 105.037 80.2203 105.037 80.3063V95.9492C105.037 96.0638 104.894 96.293 104.695 96.379C104.666 96.3217 104.609 96.2357 104.523 96.1498C99.5623 90.9641 85.2491 91.709 77.1517 92.5972C71.7913 93.1988 64.2071 95.6627 56.8794 98.0407C49.9224 100.304 42.7088 102.653 37.6051 103.284C33.2142 103.828 29.6216 104 26.913 104Z" fill="#798393"/>
<path d="M53.2044 49.6225V36.3862C53.2044 36.3862 53.1473 36.4148 53.0333 36.4435C52.9192 36.4721 52.8052 36.5008 52.6341 36.5294C52.463 36.5581 52.292 36.6154 52.0924 36.644C51.8928 36.6727 51.6932 36.73 51.5221 36.7586C51.3225 36.7873 51.1515 36.8159 50.9804 36.8732C50.8378 36.9019 50.6953 36.9305 50.5812 36.9592L50.4102 36.9878V35.3834C52.0354 34.9537 53.1188 34.3806 53.6891 33.6357H55.2858V49.6225H53.2044Z" fill="#798393"/>
<path d="M63.0128 49.7945C61.6727 49.7945 60.6463 49.3934 59.962 48.5625C59.2492 47.7317 58.8785 46.5857 58.793 45.1531L60.7603 44.6088C60.9029 46.9008 61.6442 48.0468 63.0128 48.0468C63.583 48.0468 64.0107 47.8749 64.3244 47.5598C64.6095 47.2446 64.7805 46.7862 64.7805 46.1559C64.7805 45.8121 64.752 45.4969 64.6665 45.2104C64.581 44.9239 64.4669 44.6661 64.2673 44.4082C64.0963 44.1504 63.9252 43.9498 63.7541 43.7779C63.583 43.606 63.3549 43.3768 63.0698 43.0903L60.3897 40.7124C59.8479 40.2253 59.4488 39.7096 59.2207 39.1653C58.964 38.6209 58.85 37.962 58.85 37.1884C58.85 36.0424 59.1921 35.1256 59.8479 34.4953C60.5037 33.8363 61.4161 33.5212 62.5851 33.5212C63.8682 33.4925 64.8091 33.8363 65.4363 34.4953C66.0636 35.1829 66.4628 36.2143 66.5768 37.6468L64.695 38.1625C64.6665 37.8187 64.638 37.5036 64.581 37.2457C64.5239 36.9879 64.4669 36.7014 64.3529 36.4435C64.2388 36.157 64.1248 35.9564 63.9822 35.7845C63.8396 35.6126 63.6401 35.4694 63.412 35.3834C63.1553 35.2975 62.8987 35.2402 62.5566 35.2688C61.3876 35.3548 60.7888 35.9278 60.7888 37.0165C60.7888 37.4749 60.8744 37.876 61.0169 38.1912C61.188 38.5063 61.4446 38.8501 61.8153 39.1939L64.4954 41.5719C65.1797 42.2022 65.75 42.8611 66.1491 43.606C66.5483 44.3223 66.7764 45.1531 66.7764 46.0413C66.7764 47.216 66.4343 48.1328 65.7215 48.8204C65.0372 49.4507 64.1248 49.7945 63.0128 49.7945Z" fill="#798393"/>
<path d="M70.1973 49.6225V35.2974H67.2891V33.6357H75.2155V35.2974H72.4213V49.6225H70.1973Z" fill="#798393"/>
<path d="M47.7294 63.5468C47.3017 63.5468 46.931 63.4895 46.6174 63.3749C46.3038 63.2603 46.0186 63.0884 45.819 62.8879C45.6195 62.716 45.4484 62.4581 45.3343 62.1716C45.1918 61.8851 45.1062 61.57 45.0777 61.2262C45.0207 60.911 44.9922 60.5386 44.9922 60.1375V56.4989C44.9922 56.0691 45.0207 55.668 45.0777 55.3242C45.1348 54.9804 45.2203 54.6653 45.3343 54.3788C45.4769 54.0923 45.6195 53.8344 45.8476 53.6625C46.0471 53.462 46.3038 53.3187 46.6459 53.2041C46.9595 53.0895 47.3302 53.0322 47.7579 53.0322C48.6703 53.0322 49.3546 53.2901 49.7537 53.7771C50.1529 54.2928 50.3525 55.0091 50.3525 55.9832V56.814H48.9839V56.0978C48.9839 55.9259 48.9839 55.8113 48.9839 55.7253C48.9839 55.6394 48.9839 55.5248 48.9839 55.3815C48.9839 55.2383 48.9554 55.1523 48.9554 55.0664C48.9269 54.9804 48.9269 54.8945 48.8984 54.8085C48.8699 54.7226 48.8414 54.6366 48.7843 54.5793C48.7558 54.522 48.6988 54.4647 48.6418 54.4074C48.5847 54.3501 48.4992 54.2928 48.4422 54.2642C48.3566 54.2355 48.2711 54.2069 48.1571 54.1782C48.043 54.1496 47.929 54.1496 47.7864 54.1496C47.5868 54.1496 47.4157 54.1782 47.2732 54.2069C47.1306 54.2642 47.0166 54.3215 46.9025 54.4074C46.817 54.4934 46.7314 54.608 46.6744 54.7226C46.6174 54.8372 46.5604 54.9804 46.5319 55.1523C46.5033 55.3242 46.4748 55.4961 46.4748 55.668C46.4748 55.8399 46.4463 56.0405 46.4463 56.2697V60.338C46.4463 61.1116 46.5319 61.6559 46.7314 61.9424C46.931 62.2576 47.2732 62.4008 47.7579 62.4008C47.9575 62.4008 48.1 62.3722 48.2426 62.3435C48.3852 62.3149 48.4992 62.2289 48.5847 62.143C48.6703 62.057 48.7558 61.9424 48.8128 61.8565C48.8699 61.7419 48.8984 61.5986 48.9269 61.4267C48.9554 61.2548 48.9554 61.0829 48.9839 60.9397C48.9839 60.7964 48.9839 60.5959 48.9839 60.3667V59.5931H50.3525V60.3667C50.3525 60.7678 50.324 61.1116 50.267 61.4267C50.2099 61.7419 50.1244 62.0284 50.0104 62.2862C49.8963 62.5441 49.7252 62.7733 49.5256 62.9738C49.3261 63.1457 49.098 63.289 48.7843 63.4036C48.4707 63.4895 48.1285 63.5468 47.7294 63.5468Z" fill="#798393"/>
<path d="M51.6934 63.4322V53.1182H53.119V57.5589H55.7421V53.1182H57.1677V63.4322H55.7421V58.5903H53.119V63.4322H51.6934Z" fill="#798393"/>
<path d="M61.4153 63.5468C60.9021 63.5468 60.4744 63.4609 60.1037 63.3176C59.7331 63.1744 59.448 62.9452 59.2199 62.63C58.9918 62.3149 58.8492 61.9711 58.7637 61.5986C58.6781 61.1975 58.6211 60.7391 58.6211 60.1948V56.2983C58.6211 55.2383 58.8492 54.4074 59.2769 53.8631C59.7046 53.3187 60.4174 53.0322 61.4153 53.0322C62.4132 53.0322 63.126 53.3187 63.5537 53.8631C63.9814 54.4074 64.2095 55.2383 64.2095 56.2983V60.1948C64.2095 61.2835 63.9814 62.0857 63.5537 62.6587C63.0975 63.2603 62.3847 63.5468 61.4153 63.5468ZM60.7025 62.2862C60.8736 62.3722 61.1302 62.4295 61.3868 62.4295C61.6719 62.4295 61.9 62.3722 62.0711 62.2862C62.2422 62.2003 62.3847 62.057 62.4988 61.8851C62.5843 61.7132 62.6698 61.5127 62.6984 61.2835C62.7269 61.0829 62.7554 60.7964 62.7554 60.4813V55.9545C62.7554 55.6394 62.7269 55.3815 62.6984 55.181C62.6698 54.9804 62.5843 54.7799 62.4988 54.608C62.4132 54.4361 62.2707 54.3215 62.0711 54.2355C61.9 54.1496 61.6434 54.1209 61.3868 54.1209C61.1017 54.1209 60.8736 54.1496 60.7025 54.2355C60.5314 54.3215 60.3889 54.4361 60.2748 54.608C60.1893 54.7799 60.1037 54.9804 60.0752 55.181C60.0467 55.3815 60.0182 55.6394 60.0182 55.9545V60.4813C60.0182 60.7964 60.0467 61.0543 60.0752 61.2835C60.1037 61.484 60.1893 61.6846 60.2748 61.8851C60.3889 62.0857 60.5314 62.2003 60.7025 62.2862Z" fill="#798393"/>
<path d="M65.6914 63.4322V53.1182H67.0885V63.4322H65.6914Z" fill="#798393"/>
<path d="M71.3087 63.5462C70.881 63.5462 70.5103 63.4889 70.1967 63.3743C69.883 63.2597 69.6264 63.0878 69.3983 62.8872C69.1987 62.6867 69.0277 62.4288 68.8851 62.1423C68.7426 61.8558 68.657 61.5407 68.6285 61.1969C68.5715 60.8817 68.543 60.5093 68.543 60.1082V56.4696C68.543 56.0398 68.5715 55.6387 68.6285 55.2949C68.6855 54.9511 68.7711 54.636 68.8851 54.3495C68.9992 54.063 69.1702 53.8051 69.3983 53.6332C69.5979 53.4327 69.8545 53.2894 70.1967 53.1748C70.5103 53.0602 70.881 53.0029 71.3087 53.0029C72.2211 53.0029 72.9053 53.2608 73.3045 53.7478C73.7037 54.2635 73.9033 54.9798 73.9033 55.9539V56.7847H72.5347V56.0685C72.5347 55.8966 72.5347 55.782 72.5347 55.696C72.5347 55.6101 72.5347 55.4955 72.5347 55.3522C72.5347 55.209 72.5062 55.123 72.5062 55.0371C72.4777 54.9511 72.4777 54.8652 72.4492 54.7792C72.4206 54.6933 72.3921 54.6073 72.3351 54.55C72.3066 54.4927 72.2496 54.4354 72.1925 54.3781C72.1355 54.3208 72.05 54.2635 71.993 54.2349C71.9074 54.2062 71.8219 54.1776 71.7078 54.1489C71.5938 54.1203 71.4797 54.1203 71.3372 54.1203C71.1376 54.1203 70.9665 54.1489 70.824 54.1776C70.6814 54.2349 70.5673 54.2922 70.4533 54.3781C70.3678 54.4641 70.2822 54.5787 70.2252 54.6933C70.1682 54.8079 70.1111 54.9511 70.0826 55.123C70.0541 55.2949 70.0256 55.4668 70.0256 55.6387C70.0256 55.8106 69.9971 56.0112 69.9971 56.2404V60.3087C69.9971 61.0823 70.0826 61.6266 70.2822 61.9131C70.4818 62.2283 70.824 62.3715 71.3087 62.3715C71.5082 62.3715 71.6508 62.3429 71.7934 62.3142C71.9359 62.2856 72.05 62.1996 72.1355 62.1137C72.2211 62.0277 72.3066 61.9131 72.3636 61.8272C72.4206 61.7126 72.4492 61.5693 72.4777 61.3974C72.5062 61.2255 72.5062 61.0536 72.5347 60.9104C72.5347 60.7671 72.5347 60.5666 72.5347 60.3374V59.5638H73.9033V60.3374C73.9033 60.7385 73.8748 61.0823 73.8177 61.3974C73.7607 61.7126 73.6752 61.9991 73.5611 62.2569C73.4471 62.5148 73.276 62.744 73.0764 62.9445C72.8768 63.1164 72.6487 63.2597 72.3351 63.3743C72.0785 63.4889 71.7078 63.5462 71.3087 63.5462Z" fill="#798393"/>
<path d="M75.2715 63.4322V53.1182H79.2347V54.1782H76.6971V57.5876H78.7785V58.619H76.6971V62.4008H79.2632V63.4322H75.2715Z" fill="#798393"/>
<path d="M62.5266 22.4908L64.4369 22.5481L62.8972 23.7228L63.439 25.5851L61.8708 24.4677L60.2741 25.5564L60.8444 23.6941L59.3047 22.5195L61.2435 22.4908L61.8993 20.6572L62.5266 22.4908Z" fill="#798393"/>
<path d="M70.5099 24.1236L72.1065 24.1809L70.8235 25.1264L71.2797 26.6735L69.9681 25.7567L68.6566 26.6448L69.1413 25.1264L67.8867 24.1522L69.4834 24.1236L69.9966 22.6338L70.5099 24.1236Z" fill="#798393"/>
<path d="M53.4873 24.1236L51.8906 24.1809L53.1737 25.1264L52.7175 26.6735L54.029 25.7567L55.3406 26.6448L54.8559 25.1264L56.1104 24.1522L54.5138 24.1236L54.0005 22.6338L53.4873 24.1236Z" fill="#798393"/>
<path d="M77.1536 27.9921L78.5792 28.0494L77.4388 28.9089L77.8379 30.2841L76.6689 29.4532L75.4999 30.2554L75.9276 28.8802L74.7871 28.0207L76.2127 27.9921L76.6974 26.6455L77.1536 27.9921Z" fill="#798393"/>
<path d="M46.8436 27.9921L45.418 28.0494L46.5585 28.9089L46.1593 30.2841L47.3283 29.4532L48.4973 30.2554L48.0696 28.8802L49.2101 28.0207L47.7845 27.9921L47.2998 26.6455L46.8436 27.9921Z" fill="#798393"/>
<path d="M82.2005 32.8049L83.6261 32.8335L82.4856 33.693L82.8848 35.0683L81.7158 34.2374L80.5183 35.0396L80.946 33.6644L79.834 32.8049L81.2596 32.7762L81.7443 31.4297L82.2005 32.8049Z" fill="#798393"/>
<path d="M41.7987 32.8049L40.373 32.8335L41.5135 33.693L41.1144 35.0683L42.2834 34.2374L43.4809 35.0396L43.0532 33.6644L44.1652 32.8049L42.7396 32.7762L42.2549 31.4297L41.7987 32.8049Z" fill="#798393"/>
<path d="M85.4208 37.7899L86.7039 37.8186L85.6774 38.5921L86.0481 39.8527L84.9646 39.1078L83.9097 39.8241L84.2803 38.5921L83.2539 37.7899L84.5655 37.7613L84.9932 36.5293L85.4208 37.7899Z" fill="#798393"/>
<path d="M38.576 37.7899L37.293 37.8186L38.3194 38.5921L37.9773 39.8527L39.0322 39.1078L40.1157 39.8241L39.7165 38.5921L40.743 37.7899L39.4314 37.7613L39.0037 36.5293L38.576 37.7899Z" fill="#798393"/>
<path d="M83.1978 66.4112H40.8C40.7144 66.4112 40.6289 66.3252 40.6289 66.2393C40.6289 66.1533 40.7144 66.0674 40.8 66.0674H83.1978C83.2833 66.0674 83.3688 66.1533 83.3688 66.2393C83.3688 66.3252 83.3118 66.4112 83.1978 66.4112Z" fill="#798393"/>
<path d="M45.2188 71.9412V68.9043H45.3898V71.7693H47.0721V71.9412H45.2188Z" fill="#798393"/>
<path d="M47.6133 68.9043H47.7844V71.9412H47.6133V68.9043Z" fill="#798393"/>
<path d="M48.7258 68.7891C48.8398 68.961 48.9539 69.1329 49.0679 69.3048C49.182 69.4767 49.3245 69.6772 49.4386 69.8491C49.5811 70.021 49.6952 70.2216 49.8092 70.3935C49.9233 70.5654 50.0373 70.7086 50.1229 70.8519C50.1514 70.7946 50.2084 70.7373 50.2654 70.6513C50.3225 70.5654 50.408 70.4508 50.4935 70.3362C50.5791 70.2216 50.6646 70.0783 50.7501 69.9637C50.8357 69.8205 50.9497 69.6772 51.0353 69.5626C51.1208 69.4194 51.2349 69.3048 51.3204 69.1615C51.4059 69.0183 51.4915 68.9037 51.577 68.8177V71.9979H51.4059V69.5053C51.4059 69.4767 51.4059 69.448 51.4059 69.4194C51.4059 69.3907 51.4059 69.3621 51.4059 69.3334C51.3204 69.4767 51.2063 69.6199 51.0923 69.7918C50.9783 69.9637 50.8642 70.1356 50.7501 70.2789C50.6361 70.4508 50.5221 70.6227 50.4365 70.7659C50.3225 70.9092 50.2369 71.0524 50.1514 71.1957C50.0944 71.1384 50.0373 71.0524 49.9518 70.9378C49.8663 70.8232 49.8092 70.7086 49.7237 70.594C49.6382 70.4794 49.5526 70.3362 49.4671 70.2216C49.3816 70.0783 49.296 69.9637 49.2105 69.8491C49.125 69.7345 49.0679 69.6199 49.0109 69.534C48.9539 69.448 48.8969 69.3907 48.8683 69.3334C48.8683 69.3621 48.8683 69.3907 48.8683 69.4194C48.8683 69.448 48.8683 69.4767 48.8683 69.5053V71.9979H48.6973V68.7891H48.7258Z" fill="#798393"/>
<path d="M52.5469 68.9043H52.7179V71.9412H52.5469V68.9043Z" fill="#798393"/>
<path d="M55.2271 68.9043V69.0762H54.4003V71.9412H54.2292V69.0762H53.4023V68.9043H55.2271Z" fill="#798393"/>
<path d="M55.8828 71.9412V68.9043H57.7361V69.0762H56.0539V70.3368H57.565V70.5087H56.0539V71.798H57.7931V71.9699H55.8828V71.9412Z" fill="#798393"/>
<path d="M58.4777 68.9043H59.1335C59.4471 68.9043 59.7038 68.9616 59.9033 69.0476C60.1029 69.1335 60.274 69.2481 60.4166 69.42C60.5591 69.5633 60.6447 69.7352 60.7017 69.9071C60.7587 70.079 60.7872 70.2795 60.7872 70.4514C60.7872 70.6806 60.7587 70.8812 60.6732 71.0817C60.5876 71.2536 60.4736 71.4255 60.331 71.5688C60.1885 71.712 60.0174 71.798 59.8463 71.8839C59.6752 71.9412 59.4757 71.9985 59.2476 71.9985H58.4492V68.9043H58.4777ZM59.2761 71.7693C59.4472 71.7693 59.6467 71.7407 59.7893 71.6834C59.9319 71.6261 60.1029 71.5401 60.217 71.4255C60.331 71.3109 60.4451 71.1677 60.5021 70.9958C60.5876 70.8239 60.6162 70.652 60.6162 70.4228C60.6162 70.2509 60.5876 70.079 60.5306 69.9357C60.4736 69.7638 60.3881 69.6206 60.274 69.506C60.16 69.3914 60.0174 69.2767 59.8178 69.1908C59.6467 69.1048 59.4186 69.0762 59.1905 69.0762H58.6488V71.7693H59.2761Z" fill="#798393"/>
<path d="M62.6113 71.9412V68.9043H64.4646V69.0762H62.7824V70.3368H64.2936V70.5087H62.7824V71.798H64.5217V71.9699H62.6113V71.9412Z" fill="#798393"/>
<path d="M65.2062 68.9043H65.862C66.1757 68.9043 66.4323 68.9616 66.6319 69.0476C66.8314 69.1335 67.0025 69.2481 67.1451 69.42C67.2876 69.5633 67.3732 69.7352 67.4302 69.9071C67.4872 70.079 67.5157 70.2795 67.5157 70.4514C67.5157 70.6806 67.4872 70.8812 67.4017 71.0817C67.3162 71.2536 67.2021 71.4255 67.0595 71.5688C66.917 71.712 66.7459 71.798 66.5748 71.8839C66.4038 71.9412 66.2042 71.9985 65.9761 71.9985H65.1777V68.9043H65.2062ZM66.0331 71.7693C66.2327 71.7693 66.4038 71.7407 66.5463 71.6834C66.6889 71.6261 66.86 71.5401 66.974 71.4255C67.0881 71.3109 67.2021 71.1677 67.2591 70.9958C67.3447 70.8239 67.3732 70.652 67.3732 70.4228C67.3732 70.2509 67.3447 70.079 67.2876 69.9357C67.2306 69.7638 67.1451 69.6206 67.031 69.506C66.917 69.3914 66.7744 69.2767 66.5748 69.1908C66.4038 69.1048 66.1757 69.0762 65.9476 69.0762H65.4058V71.7693H66.0331Z" fill="#798393"/>
<path d="M68.2559 68.9043H68.4269V71.9412H68.2559V68.9043Z" fill="#798393"/>
<path d="M70.9361 68.9043V69.0762H70.1093V71.9412H69.9382V69.0762H69.1113V68.9043H70.9361Z" fill="#798393"/>
<path d="M71.5645 68.9043H71.7355V71.9412H71.5645V68.9043Z" fill="#798393"/>
<path d="M72.4473 70.4221C72.4473 70.1929 72.4758 69.9924 72.5613 69.8205C72.6469 69.6199 72.7609 69.4767 72.9035 69.3334C73.046 69.1902 73.2171 69.0755 73.3882 68.9896C73.5878 68.9036 73.7873 68.875 73.9869 68.875C74.1865 68.875 74.4146 68.9036 74.5857 68.9896C74.7853 69.0755 74.9278 69.1902 75.0704 69.3334C75.213 69.4767 75.327 69.6486 75.4125 69.8205C75.4981 70.021 75.5266 70.2216 75.5266 70.4221C75.5266 70.6227 75.4981 70.8519 75.4125 71.0238C75.327 71.2243 75.213 71.3676 75.0704 71.5108C74.9278 71.6541 74.7568 71.7687 74.5857 71.8546C74.3861 71.9406 74.1865 71.9692 73.9869 71.9692C73.7588 71.9692 73.5592 71.9406 73.3882 71.8546C73.1886 71.7687 73.046 71.6541 72.9035 71.5108C72.7609 71.3676 72.6469 71.1957 72.5613 71.0238C72.5043 70.8519 72.4473 70.6513 72.4473 70.4221ZM72.6183 70.4508C72.6183 70.6513 72.6469 70.8232 72.7324 70.9951C72.7894 71.167 72.9035 71.3103 73.0175 71.4249C73.1316 71.5395 73.2741 71.6541 73.4452 71.7114C73.6163 71.7973 73.7873 71.826 73.9869 71.826C74.1865 71.826 74.3576 71.7973 74.5287 71.7114C74.6997 71.6254 74.8423 71.5395 74.9564 71.4249C75.0704 71.3103 75.1844 71.167 75.2415 70.9951C75.327 70.8232 75.3555 70.6513 75.3555 70.4508C75.3555 70.2502 75.327 70.0783 75.2415 69.9064C75.1559 69.7345 75.0704 69.5913 74.9564 69.4767C74.8423 69.362 74.6997 69.2474 74.5287 69.1901C74.3576 69.1042 74.1865 69.0756 73.9869 69.0756C73.7873 69.0756 73.6163 69.1042 73.4452 69.1901C73.2741 69.2761 73.1316 69.362 73.0175 69.4767C72.9035 69.5913 72.7894 69.7632 72.7324 69.9064C72.6754 70.0783 72.6183 70.2502 72.6183 70.4508Z" fill="#798393"/>
<path d="M78.7778 68.904V72.0842C78.6068 71.8836 78.4357 71.6544 78.2361 71.4252C78.0365 71.196 77.8369 70.9382 77.6088 70.6803C77.4092 70.4225 77.2097 70.1932 77.0101 69.9354C76.8105 69.7062 76.6394 69.477 76.4968 69.2764L76.4113 69.1618V69.3051V71.9409H76.2402V68.7607C76.4113 68.9613 76.5824 69.1905 76.782 69.4483C76.9816 69.6775 77.1811 69.9354 77.3807 70.1646C77.5803 70.4224 77.7799 70.6517 77.9795 70.8809C78.1791 71.1101 78.3501 71.3393 78.5212 71.5398L78.6068 71.6544V71.5112V68.8753H78.7778V68.904Z" fill="#798393"/>
<path d="M29.9941 92.6844L31.876 92.6557C33.102 92.6271 34.0144 93.0282 34.0429 94.3461C34.0714 95.6067 33.159 96.1797 31.9615 96.2083L31.0776 96.237L31.1346 98.2998L30.1367 98.3284L29.9941 92.6844ZM31.8474 95.4061C32.6743 95.3775 33.0735 95.0337 33.0735 94.3461C33.045 93.6298 32.6458 93.4006 31.8189 93.4293L31.0206 93.4579L31.0776 95.4348L31.8474 95.4061Z" fill="white"/>
<path d="M38.5199 97.7551L37.0658 95.7209L36.2104 95.8069L36.467 97.9843L35.4691 98.0989L34.8418 92.5121L36.7236 92.2829C37.8926 92.1396 38.8335 92.4548 38.9761 93.7154C39.0616 94.5749 38.691 95.1479 38.0352 95.4344L39.6319 97.6118L38.5199 97.7551ZM36.1248 95.0333L36.8947 94.9474C37.6645 94.8614 38.0352 94.489 37.9496 93.8586C37.8641 93.2283 37.4364 93.0278 36.6666 93.1424L35.8968 93.2284L36.1248 95.0333Z" fill="white"/>
<path d="M39.6309 91.9103L42.9098 91.2227L43.0808 92.0535L40.7714 92.5406L41.0565 93.9444L43.0238 93.5433L43.1949 94.3742L41.2275 94.7753L41.5697 96.4083L43.9647 95.8926L44.1358 96.7235L40.7999 97.4111L39.6309 91.9103Z" fill="white"/>
<path d="M43.8516 90.9647L44.878 90.6496L46.6743 92.9989L47.3301 93.9157H47.3586L47.3871 92.7983L47.5011 89.8474L48.5561 89.5322L50.2098 94.9185L49.3259 95.205L48.5561 92.741C48.4135 92.254 48.2425 91.5091 48.1569 90.9934H48.1284L48.0714 92.3399L47.9003 95.0617L47.4726 95.205L45.7904 93.0562L44.9921 91.9675H44.9635C45.1631 92.4545 45.4483 93.1421 45.5908 93.6292L46.3606 96.0931L45.5053 96.351L43.8516 90.9647Z" fill="white"/>
<path d="M49.8379 89.0456L50.7788 88.7305L52.5751 94.0594L51.6342 94.3745L49.8379 89.0456Z" fill="white"/>
<path d="M52.0332 88.2717L52.9741 87.9565L54.0291 91.0221C54.4282 92.1681 54.9985 92.3973 55.6258 92.1968C56.2815 91.9676 56.5952 91.4232 56.196 90.2772L55.141 87.2116L56.0534 86.8965L57.0799 89.8761C57.6786 91.6238 57.1369 92.5692 55.9109 92.999C54.6848 93.4287 53.6584 93.0276 53.0596 91.28L52.0332 88.2717Z" fill="white"/>
<path d="M57.3945 86.4094L58.421 86.0656L60.2458 88.3863L60.9301 89.2744H60.9586L60.9871 88.1571L61.0726 85.2061L62.1276 84.8623L63.8668 90.2199L62.9829 90.5064L62.1846 88.0711C62.0135 87.5841 61.871 86.8392 61.7569 86.3235H61.7284L61.6999 87.67L61.5858 90.3918L61.1582 90.535L59.4474 88.4149L58.6206 87.3262H58.592C58.7916 87.8133 59.1053 88.5009 59.2478 88.9879L60.0462 91.4232L59.1908 91.7097L57.3945 86.4094Z" fill="white"/>
<path d="M71.8222 89.3603C71.6511 89.4749 71.366 89.6468 70.9954 89.7327C69.9119 90.0192 69.028 89.6468 68.4863 88.9305C67.2602 89.0165 66.2338 88.2143 65.8346 86.6385C65.3784 84.8909 66.0912 83.6016 67.4883 83.2292C68.914 82.8567 70.14 83.6589 70.5962 85.4066C70.9954 86.925 70.5392 88.1283 69.4842 88.644C69.8549 89.0165 70.3681 89.0451 70.9098 88.9305C71.1379 88.8732 71.3375 88.7873 71.4801 88.7013L71.8222 89.3603ZM68.7144 88.0424C69.5697 87.8132 69.9119 86.8964 69.5982 85.6644C69.2846 84.4611 68.5433 83.8595 67.6879 84.0887C66.8326 84.3179 66.4904 85.1774 66.804 86.4093C67.1177 87.6126 67.8875 88.2429 68.7144 88.0424Z" fill="white"/>
<path d="M71.1953 82.3986L72.1647 82.2267L72.7635 85.4068C72.9916 86.6101 73.5048 86.9253 74.1891 86.782C74.8734 86.6674 75.2441 86.1804 75.016 84.9771L74.4172 81.7969L75.3581 81.625L75.9284 84.7192C76.2705 86.5242 75.5862 87.4123 74.3317 87.6415C73.0486 87.8707 72.1077 87.3264 71.7656 85.4928L71.1953 82.3986Z" fill="white"/>
<path d="M80.0043 85.178L78.151 85.3786L77.8944 86.9543L76.8965 87.0689L78.1225 81.2816L79.2915 81.167L81.7151 86.5532L80.6601 86.6678L80.0043 85.178ZM79.7192 84.4045L79.4626 83.7455C79.2345 83.1725 78.9779 82.5422 78.7498 81.9405H78.7213C78.6357 82.5709 78.5502 83.2298 78.4362 83.8315L78.3221 84.5477L79.7192 84.4045Z" fill="white"/>
<path d="M82.1152 80.8802L83.1132 80.8516L83.2272 85.6361L85.5367 85.6075L85.5652 86.4383L82.2578 86.5243L82.1152 80.8802Z" fill="white"/>
<path d="M86.5621 80.9092L87.56 80.9378L87.3319 86.5533L86.334 86.5246L86.5621 80.9092Z" fill="white"/>
<path d="M90.3272 81.9686L88.7305 81.7967L88.816 80.9658L93.0073 81.3956L92.9218 82.2264L91.3251 82.0545L90.8404 86.8104L89.8424 86.7245L90.3272 81.9686Z" fill="white"/>
<path d="M94.4311 85.2353L93.4902 81.4248L94.5167 81.654L94.8303 83.1725C94.9158 83.6309 95.0014 84.032 95.0584 84.4904H95.0869C95.3435 84.1179 95.6001 83.7741 95.8567 83.373L96.7406 82.0838L97.7671 82.2843L95.4006 85.4072L94.9729 87.4413L94.0035 87.2408L94.4311 85.2353Z" fill="white"/>
</g>
<defs>
<clipPath id="clip0_128_193592">
<rect width="124" height="104" fill="white"/>
</clipPath>
</defs>
</svg>
