<svg width="1920" height="830" viewBox="0 0 1920 830" fill="none" xmlns="http://www.w3.org/2000/svg">
<g clip-path="url(#clip0_303_163381)">
<rect width="1920" height="830" fill="#F2F8FA"/>
<g clip-path="url(#clip1_303_163381)">
<path d="M-1.70542 421.131L2.57212 416.829L1.60615 415.857L-2.67139 420.159L-1.70542 421.131ZM6.84965 412.526L11.1272 408.224L10.1612 407.253L5.88369 411.555L6.84965 412.526ZM15.4026 403.924L19.6801 399.622L18.7142 398.65L14.4366 402.953L15.4026 403.924ZM23.9577 395.32L28.2352 391.017L27.2693 390.046L22.9917 394.348L23.9577 395.32ZM32.5128 386.715L36.7903 382.413L35.8243 381.442L31.5468 385.744L32.5128 386.715ZM41.0657 378.113L45.3432 373.811L44.3773 372.839L40.0997 377.141L41.0657 378.113ZM49.6208 369.509L53.8983 365.206L52.9323 364.235L48.6548 368.537L49.6208 369.509ZM58.1737 360.906L62.4513 356.604L61.4853 355.633L57.2078 359.935L58.1737 360.906Z" fill="#07847F"/>
<path d="M65.7632 351.329L67.6333 349.448L67.6333 346.789L69.0001 346.789L69.0001 350.017L66.7291 352.301L65.7632 351.329Z" fill="#07847F"/>
<path d="M69.0002 340.768L69.0002 334.747L67.6333 334.747L67.6333 340.768L69.0002 340.768ZM69.0002 328.727L69.0002 322.707L67.6333 322.707L67.6333 328.727L69.0002 328.727ZM69.0002 316.687L69.0002 310.667L67.6333 310.667L67.6333 316.687L69.0002 316.687ZM69.0002 304.645L69.0002 298.625L67.6333 298.625L67.6333 304.645L69.0002 304.645Z" fill="#07847F"/>
<path d="M65.7632 291.256L69.0001 288.001L69.0001 292.605L67.6333 292.605L67.6333 291.319L66.7291 292.228L65.7632 291.256Z" fill="#07847F"/>
<path d="M-1.70542 361.057L2.57212 356.754L1.60615 355.783L-2.67139 360.085L-1.70542 361.057ZM6.84965 352.452L11.1272 348.15L10.1612 347.178L5.88369 351.481L6.84965 352.452ZM15.4026 343.85L19.6801 339.548L18.7142 338.576L14.4366 342.878L15.4026 343.85ZM23.9577 335.246L28.2352 330.943L27.2693 329.972L22.9917 334.274L23.9577 335.246ZM32.5128 326.643L36.7903 322.341L35.8243 321.369L31.5468 325.672L32.5128 326.643ZM41.0657 318.039L45.3432 313.737L44.3773 312.765L40.0997 317.067L41.0657 318.039ZM49.6208 309.434L53.8983 305.132L52.9323 304.161L48.6548 308.463L49.6208 309.434ZM58.1737 300.832L62.4513 296.53L61.4853 295.558L57.2078 299.861L58.1737 300.832Z" fill="#07847F"/>
</g>
<g clip-path="url(#clip2_303_163381)">
<path d="M-1.70542 521.131L2.57212 516.829L1.60615 515.857L-2.67139 520.159L-1.70542 521.131ZM6.84965 512.526L11.1272 508.224L10.1612 507.253L5.88369 511.555L6.84965 512.526ZM15.4026 503.924L19.6801 499.622L18.7142 498.65L14.4366 502.953L15.4026 503.924ZM23.9577 495.32L28.2352 491.017L27.2693 490.046L22.9917 494.348L23.9577 495.32ZM32.5128 486.715L36.7903 482.413L35.8243 481.442L31.5468 485.744L32.5128 486.715ZM41.0657 478.113L45.3432 473.811L44.3773 472.839L40.0997 477.141L41.0657 478.113ZM49.6208 469.509L53.8983 465.206L52.9323 464.235L48.6548 468.537L49.6208 469.509ZM58.1737 460.906L62.4513 456.604L61.4853 455.633L57.2078 459.935L58.1737 460.906Z" fill="#07847F"/>
<path d="M65.7632 451.329L67.6333 449.448L67.6333 446.789L69.0001 446.789L69.0001 450.017L66.7291 452.301L65.7632 451.329Z" fill="#07847F"/>
<path d="M69.0002 440.768L69.0002 434.747L67.6333 434.747L67.6333 440.768L69.0002 440.768ZM69.0002 428.727L69.0002 422.707L67.6333 422.707L67.6333 428.727L69.0002 428.727ZM69.0002 416.687L69.0002 410.667L67.6333 410.667L67.6333 416.687L69.0002 416.687ZM69.0002 404.645L69.0002 398.625L67.6333 398.625L67.6333 404.645L69.0002 404.645Z" fill="#07847F"/>
<path d="M65.7632 391.256L69.0001 388.001L69.0001 392.605L67.6333 392.605L67.6333 391.319L66.7291 392.228L65.7632 391.256Z" fill="#07847F"/>
<path d="M-1.70542 461.057L2.57212 456.754L1.60615 455.783L-2.67139 460.085L-1.70542 461.057ZM6.84965 452.452L11.1272 448.15L10.1612 447.178L5.88369 451.481L6.84965 452.452ZM15.4026 443.85L19.6801 439.548L18.7142 438.576L14.4366 442.878L15.4026 443.85ZM23.9577 435.246L28.2352 430.943L27.2693 429.972L22.9917 434.274L23.9577 435.246ZM32.5128 426.643L36.7903 422.341L35.8243 421.369L31.5468 425.672L32.5128 426.643ZM41.0657 418.039L45.3432 413.737L44.3773 412.765L40.0997 417.067L41.0657 418.039ZM49.6208 409.434L53.8983 405.132L52.9323 404.161L48.6548 408.463L49.6208 409.434ZM58.1737 400.832L62.4513 396.53L61.4853 395.558L57.2078 399.861L58.1737 400.832Z" fill="#07847F"/>
</g>
<g clip-path="url(#clip3_303_163381)">
<path d="M-3.70542 621.131L0.572116 616.829L-0.393849 615.857L-4.67139 620.159L-3.70542 621.131ZM4.84965 612.526L9.12719 608.224L8.16123 607.253L3.88369 611.555L4.84965 612.526ZM13.4026 603.924L17.6801 599.622L16.7142 598.65L12.4366 602.953L13.4026 603.924ZM21.9577 595.32L26.2352 591.017L25.2693 590.046L20.9917 594.348L21.9577 595.32ZM30.5128 586.715L34.7903 582.413L33.8243 581.442L29.5468 585.744L30.5128 586.715ZM39.0657 578.113L43.3432 573.811L42.3773 572.839L38.0997 577.141L39.0657 578.113ZM47.6208 569.509L51.8983 565.206L50.9323 564.235L46.6548 568.537L47.6208 569.509ZM56.1737 560.906L60.4513 556.604L59.4853 555.633L55.2078 559.935L56.1737 560.906Z" fill="#07847F"/>
<path d="M63.7632 551.329L65.6333 549.448L65.6333 546.789L67.0001 546.789L67.0001 550.017L64.7291 552.301L63.7632 551.329Z" fill="#07847F"/>
<path d="M67.0002 540.768L67.0002 534.747L65.6333 534.747L65.6333 540.768L67.0002 540.768ZM67.0002 528.727L67.0002 522.707L65.6333 522.707L65.6333 528.727L67.0002 528.727ZM67.0002 516.687L67.0002 510.667L65.6333 510.667L65.6333 516.687L67.0002 516.687ZM67.0002 504.645L67.0002 498.625L65.6333 498.625L65.6333 504.645L67.0002 504.645Z" fill="#07847F"/>
<path d="M63.7632 491.256L67.0001 488.001L67.0001 492.605L65.6333 492.605L65.6333 491.319L64.7291 492.228L63.7632 491.256Z" fill="#07847F"/>
<path d="M-3.70542 561.057L0.572116 556.754L-0.393849 555.783L-4.67139 560.085L-3.70542 561.057ZM4.84965 552.452L9.12719 548.15L8.16123 547.178L3.88369 551.481L4.84965 552.452ZM13.4026 543.85L17.6801 539.548L16.7142 538.576L12.4366 542.878L13.4026 543.85ZM21.9577 535.246L26.2352 530.943L25.2693 529.972L20.9917 534.274L21.9577 535.246ZM30.5128 526.643L34.7903 522.341L33.8243 521.369L29.5468 525.672L30.5128 526.643ZM39.0657 518.039L43.3432 513.737L42.3773 512.765L38.0997 517.067L39.0657 518.039ZM47.6208 509.434L51.8983 505.132L50.9323 504.161L46.6548 508.463L47.6208 509.434ZM56.1737 500.832L60.4513 496.53L59.4853 495.558L55.2078 499.861L56.1737 500.832Z" fill="#07847F"/>
</g>
<path d="M105 405.965L105 397L124.002 414.682L143 397L143 405.965L124.002 423.647L105 405.965Z" fill="#07847F"/>
<path d="M105 427.748L105 418.783L124.002 436.469L143 418.783L143 427.748L124.002 445.431L105 427.748Z" fill="#07847F"/>
<path d="M105 449.536L105 440.57L124.002 458.252L143 440.57L143 449.536L124.002 467.218L105 449.536Z" fill="#07847F"/>
<path d="M105 471.319L105 462.354L124.002 480.036L143 462.354L143 471.319L124.002 489.001L105 471.319Z" fill="#07847F"/>
<path d="M105 410.965L105 402L124.002 419.682L143 402L143 410.965L124.002 428.647L105 410.965Z" fill="#07847F"/>
<path d="M105 432.748L105 423.783L124.002 441.469L143 423.783L143 432.748L124.002 450.431L105 432.748Z" fill="#07847F"/>
<path d="M105 454.536L105 445.57L124.002 463.252L143 445.57L143 454.536L124.002 472.218L105 454.536Z" fill="#07847F"/>
<path d="M105 476.319L105 467.354L124.002 485.036L143 467.354L143 476.319L124.002 494.001L105 476.319Z" fill="#07847F"/>
<path d="M42 443.596L42 432L66.5023 454.871L91 432L91 443.596L66.5023 466.468L42 443.596Z" fill="#FF7D44"/>
<path d="M42 471.772L42 460.176L66.5023 483.052L91 460.176L91 471.772L66.5023 494.643L42 471.772Z" fill="#FF7D44"/>
<path d="M42 499.952L42 488.355L66.5023 511.227L91 488.355L91 499.952L66.5023 522.823L42 499.952Z" fill="#FF7D44"/>
<path d="M42 528.128L42 516.531L66.5023 539.403L91 516.531L91 528.128L66.5023 550.999L42 528.128Z" fill="#FF7D44"/>
<path d="M42 438.596L42 427L66.5023 449.871L91 427L91 438.596L66.5023 461.468L42 438.596Z" fill="#FF7D44"/>
<path d="M42 466.772L42 455.176L66.5023 478.052L91 455.176L91 466.772L66.5023 489.643L42 466.772Z" fill="#FF7D44"/>
<path d="M42 494.952L42 483.355L66.5023 506.227L91 483.355L91 494.952L66.5023 517.823L42 494.952Z" fill="#FF7D44"/>
<path d="M42 523.128L42 511.531L66.5023 534.403L91 511.531L91 523.128L66.5023 545.999L42 523.128Z" fill="#FF7D44"/>
<path d="M123.524 575.629L123.524 570.299L112.261 580.812L101 570.299L101 575.629L112.261 586.143L123.524 575.629Z" fill="#CBF6FF"/>
<path d="M123.524 588.581L123.524 583.25L112.261 593.766L101 583.25L101 588.581L112.261 599.094L123.524 588.581Z" fill="#CBF6FF"/>
<path d="M123.524 601.536L123.524 596.205L112.261 606.719L101 596.205L101 601.536L112.261 612.049L123.524 601.536Z" fill="#CBF6FF"/>
<path d="M123.524 614.487L123.524 609.156L112.261 619.67L101 609.156L101 614.487L112.261 625L123.524 614.487Z" fill="#CBF6FF"/>
<path d="M123.524 573.331L123.524 568L112.261 578.513L101 568L101 573.331L112.261 583.844L123.524 573.331Z" fill="#CBF6FF"/>
<path d="M123.524 586.282L123.524 580.951L112.261 591.467L101 580.951L101 586.282L112.261 596.795L123.524 586.282Z" fill="#CBF6FF"/>
<path d="M123.524 599.237L123.524 593.906L112.261 604.42L101 593.906L101 599.237L112.261 609.75L123.524 599.237Z" fill="#CBF6FF"/>
<path d="M123.524 612.188L123.524 606.857L112.261 617.371L101 606.857L101 612.188L112.261 622.701L123.524 612.188Z" fill="#CBF6FF"/>
<path d="M1404.62 1005.08H1402C1414.13 856.457 1477.76 718.373 1584.29 611.742C1696.38 499.557 1843.26 434.888 2000.56 427.803V430.424C1685.59 444.853 1430.52 692.915 1404.62 1005.08Z" fill="#E0E8F4"/>
<path d="M2000.56 1005.08H1833.17C1833.43 1004.69 1833.69 1004.35 1833.97 1003.96C1832.29 1002.71 1830.58 1001.44 1828.81 1000.15C1827.65 1001.75 1826.48 1003.34 1825.21 1005.08H1809.24C1808.51 1004.56 1807.79 1004.01 1807.06 1003.49C1806.67 1004.01 1806.28 1004.56 1805.9 1005.08H1741.57C1743.13 1002.74 1745.1 999.808 1746.81 997.239C1744.27 995.345 1741.21 993.113 1738.72 991.27C1736.59 994.073 1734.1 997.395 1732.16 999.964C1734.52 1001.39 1737.65 1003.29 1740.64 1005.08H1722.41C1723.71 1003.31 1725.52 1001.88 1727.83 1000.64C1721.74 999.964 1717.72 997.109 1716.68 991.504C1715.62 985.613 1718.75 981.591 1724.25 978.996C1716.6 977.335 1713.1 974.039 1712.76 968.46C1712.48 963.97 1715.38 959.143 1719.84 958.079C1722.41 957.457 1725.62 957.535 1727.96 958.599C1730.42 959.714 1732.18 962.361 1733.53 963.633C1735.14 960.726 1737.06 957.301 1739 953.798C1734.96 952.993 1732.24 949.983 1730.52 945.909C1729.82 940.148 1731.8 935.814 1737.14 933.167C1737.6 932.933 1737.86 932.362 1738.23 931.921C1732.13 932.025 1728.01 928.833 1726.95 923.228C1726.04 918.323 1728.99 913.237 1733.74 911.55C1739.42 909.526 1744.24 911.965 1748.1 919.076C1747.97 913.341 1750.54 909.5 1755.6 907.138C1747.74 904.751 1744.47 901.403 1744.47 895.954C1744.47 891.36 1747.48 886.845 1752.04 885.937C1754.64 885.444 1757.64 885.885 1760.19 886.741C1762.31 887.468 1764.23 888.843 1766.17 890.115C1766.93 886.222 1769.47 883.471 1773.36 881.473C1765.89 879.475 1762.65 876.335 1762.29 870.963C1761.97 866.474 1764.85 861.569 1769.29 860.557C1771.96 859.934 1775.17 860.219 1777.79 861.154C1780.36 862.062 1782.43 864.268 1783.7 865.176C1783.6 861.725 1786.61 858.351 1791.53 855.704C1785.41 854.874 1781.34 852.33 1780.36 846.543C1779.37 840.653 1782.61 836.994 1787.75 834.269C1781.19 833.698 1777.38 830.558 1776.73 825.497C1776.08 820.515 1778.59 816.103 1783.11 814.339C1787.59 812.574 1793.09 813.975 1795.24 818.257C1796.51 820.8 1797.11 824.304 1796.46 827.003C1795.84 829.624 1793.22 831.752 1791.45 834.113C1795.71 834.84 1799.13 836.994 1800.79 841.457C1800.97 841.924 1801.62 842.236 1802.06 842.625C1800.55 837.279 1803.8 834.061 1807.45 830.999C1799.98 827.703 1797.37 824.122 1798.19 818.517C1798.92 813.794 1802.4 810.342 1807.14 809.694C1811.78 809.045 1816.24 811.562 1818.11 815.87C1820.23 820.774 1818.65 825.238 1813.62 829.442C1816.47 831.336 1819.48 833.309 1822.02 834.969C1824.17 832.452 1826.59 829.65 1828.97 826.873C1823.81 825.835 1820.16 822.669 1819.56 816.726C1819.14 812.652 1821.66 808.448 1825.5 806.657C1831.59 803.829 1836.2 806.268 1840.17 811.51C1841.36 805.801 1844.42 802.272 1849.71 801.597C1855.34 800.87 1859.18 803.881 1861.74 809.382C1861.98 803.647 1864.57 800.092 1869.68 797.756C1868.12 797.367 1867.14 797.159 1866.15 796.9C1861.41 795.55 1858.22 791.398 1858.27 786.649C1858.32 781.719 1861.77 777.541 1866.69 776.451C1871.39 775.387 1876 777.618 1878.31 782.03C1878.8 782.964 1879.4 783.821 1879.97 784.703C1879.74 778.734 1882.04 774.193 1886.92 772.999C1889.56 772.35 1892.78 772.714 1895.42 773.596C1898.04 774.478 1900.27 776.58 1901.59 777.463C1902.34 772.895 1905.04 769.392 1910.25 768.484C1916.32 767.42 1920.18 770.612 1922.78 776.061C1924.05 768.899 1926.95 765.214 1932.19 764.487C1938.07 763.683 1941.94 766.745 1944.4 772.117C1945.82 764.903 1948.65 761.321 1953.86 760.621C1959.75 759.816 1963.61 762.878 1966.26 768.64C1966.57 763.242 1968.64 759.505 1973.52 757.092C1966.41 755.56 1963.09 751.979 1962.99 746.607C1962.91 741.91 1966.02 737.629 1970.38 736.435C1975.2 735.111 1980.26 737.291 1982.54 741.651C1985.08 746.556 1983.55 751.279 1978.31 755.846C1981.24 757.766 1984.3 759.79 1986.87 761.477C1988.94 758.752 1991.22 755.768 1993.35 752.965C1987.46 751.097 1984.53 747.594 1984.72 742.118C1984.87 737.603 1988.09 733.58 1992.36 732.568C1995.22 731.893 1998.22 732.335 2000.53 733.762V751.434C2000.38 751.616 2000.22 751.772 2000.09 751.953C2000.22 752.083 2000.38 752.213 2000.53 752.343V816.596C1998.9 815.455 1997.26 814.287 1995.71 813.197C1994.15 815.558 1992.49 818.076 1990.81 820.593C1992.99 822.046 1995.45 823.707 1997.89 825.342C1998.74 824.2 1999.62 823.032 2000.51 821.864V836.033C2000.25 835.852 2000.01 835.67 1999.75 835.488C1998.2 837.798 1996.75 839.978 1995.27 842.158C1996.93 843.274 1998.69 844.493 2000.51 845.713V862.581C2000.27 862.944 2000.04 863.308 1999.78 863.645C2000.01 863.801 2000.27 863.982 2000.51 864.138V1005.08H2000.56ZM1983.76 871.274C1985.03 869.536 1986.3 867.771 1987.67 865.877C1985.7 864.424 1983.89 863.074 1982.07 861.751C1980.83 863.645 1979.56 865.565 1978.26 867.538C1980.1 868.757 1981.94 870.003 1983.76 871.274ZM1983.24 888.532C1984.79 889.648 1986.04 890.556 1987.49 891.594C1988.42 890.296 1989.33 888.999 1990.39 887.52C1989.02 886.404 1987.67 885.314 1986.12 884.042C1985.18 885.547 1984.25 886.975 1983.24 888.532ZM1984.53 844.026C1982.56 842.729 1980.67 841.457 1978.67 840.16C1977.2 842.132 1975.72 844.13 1974.19 846.154C1976.03 847.478 1977.97 848.905 1979.95 850.306C1981.4 848.36 1982.87 846.284 1984.53 844.026ZM1973.23 937.578C1974.11 936.437 1974.86 935.476 1975.72 934.361C1974.55 933.556 1973.54 932.855 1972.37 932.051C1971.6 933.115 1970.95 934.023 1970.12 935.191C1971.1 935.944 1972.06 936.696 1973.23 937.578ZM1969.47 916.351C1970.43 915.131 1971.34 913.963 1972.4 912.614C1971.1 911.628 1969.83 910.668 1968.38 909.552C1967.37 911.057 1966.59 912.225 1965.63 913.652C1966.83 914.482 1968.02 915.313 1969.47 916.351ZM1965.79 895.383C1966.7 894.137 1967.6 892.865 1968.64 891.386C1967.16 890.193 1965.74 889.025 1964.18 887.753C1963.14 889.129 1962.18 890.452 1960.97 892.087C1962.65 893.229 1964.08 894.215 1965.79 895.383ZM1962.16 874.7C1963.4 873.091 1964.65 871.508 1966 869.743C1964.36 868.628 1962.73 867.512 1960.91 866.266C1959.8 867.901 1958.74 869.406 1957.62 871.041C1959.18 872.312 1960.66 873.48 1962.16 874.7ZM1957.26 843.429C1955.86 845.454 1954.38 847.582 1952.75 849.917C1954.56 851.033 1956.51 852.227 1958.5 853.446C1960.03 851.526 1961.54 849.658 1963.04 847.763C1961.04 846.232 1959.2 844.883 1957.26 843.429ZM1960.29 826.12C1958.01 824.485 1955.52 822.695 1953.14 820.982C1951.63 823.266 1950 825.757 1948.31 828.326C1950.54 829.805 1952.95 831.388 1955.31 832.945C1956.92 830.765 1958.63 828.43 1960.29 826.12ZM1951.63 941.627C1952.57 940.277 1953.24 939.343 1953.99 938.253C1952.88 937.449 1951.89 936.722 1950.65 935.814C1949.87 936.93 1949.14 937.942 1948.31 939.135C1949.38 939.94 1950.36 940.667 1951.63 941.627ZM1947.87 920.295C1948.88 918.92 1949.77 917.7 1950.73 916.377C1949.53 915.52 1948.44 914.742 1947.22 913.86C1946.24 915.235 1945.33 916.455 1944.27 917.934C1945.64 918.842 1946.71 919.517 1947.87 920.295ZM1944.32 898.886C1945.46 897.381 1946.47 896.083 1947.59 894.656C1946.19 893.644 1944.79 892.632 1943.26 891.542C1942.17 893.047 1941.16 894.448 1939.99 896.057C1941.44 896.992 1942.79 897.874 1944.32 898.886ZM1940.56 877.892C1941.81 876.231 1942.87 874.804 1944.09 873.195C1942.61 871.975 1941.08 870.704 1939.52 869.406C1938.38 871.171 1937.27 872.883 1936.08 874.726C1937.5 875.738 1938.93 876.75 1940.56 877.892ZM1935.56 847.296C1934.16 849.32 1932.65 851.474 1931.07 853.732C1933.04 855.081 1935.19 856.535 1937.4 858.04C1938.9 855.912 1940.35 853.836 1941.78 851.811C1939.73 850.306 1937.68 848.827 1935.56 847.296ZM1938.64 830.039C1936.18 828.248 1933.74 826.484 1931.46 824.797C1929.88 827.184 1928.19 829.753 1926.56 832.193C1928.71 833.594 1931.15 835.177 1933.64 836.812C1935.22 834.71 1936.98 832.297 1938.64 830.039ZM1930.22 945.208C1931.05 944.118 1931.69 943.21 1932.52 942.094C1931.51 941.367 1930.61 940.718 1929.54 939.966C1928.76 940.9 1928.01 941.782 1927.05 942.95C1928.14 943.703 1929.13 944.403 1930.22 945.208ZM1926.38 923.98C1927.39 922.657 1928.32 921.463 1929.39 920.088C1928.17 919.076 1927.03 918.115 1925.68 916.974C1924.59 918.66 1923.71 920.036 1922.7 921.619C1923.99 922.449 1925.16 923.176 1926.38 923.98ZM1923.22 903.35C1924.38 901.767 1925.52 900.184 1926.77 898.471C1924.95 897.121 1923.42 895.98 1921.79 894.76C1920.65 896.473 1919.46 898.237 1918.24 900.054C1919.9 901.144 1921.48 902.182 1923.22 903.35ZM1919.59 882.355C1920.65 880.772 1921.74 879.112 1922.96 877.269C1921.25 875.894 1919.51 874.518 1917.62 872.987C1916.32 874.752 1915 876.568 1913.65 878.359C1915.62 879.682 1917.59 881.006 1919.59 882.355ZM1913.75 851.007C1912.46 853.005 1911.19 855.003 1909.89 857.054C1911.89 858.533 1913.88 860.012 1915.9 861.517C1917.36 859.623 1918.81 857.728 1920.34 855.73C1918 854.069 1915.88 852.538 1913.75 851.007ZM1917.05 833.88C1914.58 832.089 1912.15 830.298 1909.84 828.612C1908.26 830.999 1906.49 833.646 1904.83 836.111C1907.09 837.616 1909.6 839.277 1911.99 840.886C1913.62 838.654 1915.39 836.189 1917.05 833.88ZM1908.93 949.62C1909.86 948.478 1910.77 947.362 1911.94 945.935C1910.49 944.871 1909.27 943.988 1907.95 943.028C1907.04 944.352 1906.21 945.597 1905.2 947.05C1906.42 947.881 1907.53 948.659 1908.93 949.62ZM1905.3 928.548C1906.39 927.094 1907.45 925.719 1908.62 924.136C1906.91 922.864 1905.48 921.8 1904 920.711C1902.97 922.242 1901.96 923.721 1900.82 925.434C1902.24 926.446 1903.67 927.432 1905.3 928.548ZM1901.64 907.476C1902.84 905.815 1904 904.154 1905.25 902.415C1903.59 901.17 1901.9 899.872 1900.04 898.471C1898.72 900.443 1897.5 902.208 1896.3 903.998C1898.09 905.14 1899.86 906.308 1901.64 907.476ZM1856.61 905.633C1855.16 907.683 1853.71 909.733 1852.25 911.809C1854.33 913.185 1856.35 914.508 1858.37 915.832C1859.67 913.963 1861.04 912.043 1862.49 909.993C1860.58 908.618 1858.61 907.138 1856.61 905.633ZM1859.18 888.22C1857.1 886.663 1854.82 884.976 1852.67 883.367C1851.03 885.677 1849.38 888.013 1847.82 890.244C1850.02 891.698 1852.38 893.229 1854.66 894.734C1856.01 892.736 1857.54 890.556 1859.18 888.22ZM1868.9 848.568C1870.71 846.206 1872.53 843.793 1874.16 841.639C1871.62 839.796 1868.85 837.798 1866.23 835.878C1864.91 838.11 1863.3 840.834 1861.77 843.455C1864 845.064 1866.51 846.855 1868.9 848.568ZM1870.19 857.936C1868.64 860.142 1866.98 862.477 1865.4 864.709C1867.58 866.136 1870.01 867.745 1872.53 869.406C1873.85 867.46 1875.35 865.176 1876.73 863.126C1874.58 861.439 1872.3 859.623 1870.19 857.936ZM1874.4 879.838C1872.97 881.862 1871.47 884.016 1869.86 886.326C1871.93 887.701 1874.16 889.18 1876.29 890.582C1877.64 888.61 1879.09 886.533 1880.51 884.431C1878.49 882.926 1876.47 881.395 1874.4 879.838ZM1878.34 902.13C1877.01 903.998 1875.64 905.971 1874.29 907.865C1876.21 909.137 1878.1 910.408 1880 911.654C1881.21 909.915 1882.46 908.124 1883.86 906.152C1881.99 904.803 1880.25 903.505 1878.34 902.13ZM1890.31 844.986C1892 842.651 1893.92 840.004 1895.53 837.746C1893.09 835.982 1890.47 834.087 1888.03 832.323C1886.48 834.684 1884.69 837.435 1882.95 840.056C1885.36 841.665 1887.88 843.352 1890.31 844.986ZM1892.05 854.614C1890.7 856.742 1889.41 858.792 1888.03 860.946C1889.95 862.347 1892.05 863.904 1894.13 865.436C1895.45 863.437 1896.85 861.335 1898.22 859.285C1896.15 857.728 1894 856.093 1892.05 854.614ZM1896.15 876.179C1894.77 878.125 1893.32 880.202 1891.79 882.355C1893.71 883.653 1895.79 885.028 1897.86 886.404C1899.21 884.431 1900.63 882.407 1901.9 880.539C1899.86 878.982 1898.04 877.606 1896.15 876.179ZM1891.22 975.181C1892.18 973.858 1892.91 972.845 1893.79 971.6C1892.57 970.614 1891.43 969.705 1890.13 968.693C1889.23 969.991 1888.37 971.185 1887.36 972.586C1888.68 973.494 1889.8 974.247 1891.22 975.181ZM1887.31 953.979C1888.34 952.578 1889.41 951.203 1890.47 949.775C1889.04 948.685 1887.72 947.673 1886.17 946.48C1885.1 948.037 1884.17 949.412 1883.05 951.021C1884.4 951.981 1885.73 952.889 1887.31 953.979ZM1883.73 932.778C1884.92 931.091 1886.01 929.534 1887.1 927.977C1885.57 926.809 1884.04 925.667 1882.33 924.344C1881.14 926.004 1879.92 927.717 1878.62 929.508C1880.41 930.65 1882.07 931.714 1883.73 932.778ZM1873.31 1000.22C1874.08 999.159 1874.81 998.173 1875.72 996.98C1874.52 996.019 1873.38 995.111 1872.06 994.073C1871.18 995.215 1870.43 996.201 1869.49 997.447C1870.74 998.355 1871.91 999.211 1873.31 1000.22ZM1869.83 979.022C1870.79 977.776 1871.7 976.608 1872.71 975.337C1871.08 974.117 1869.75 973.131 1868.38 972.067C1867.52 973.338 1866.67 974.584 1865.71 976.011C1867.06 976.998 1868.33 977.958 1869.83 979.022ZM1865.84 958.313C1866.98 956.782 1868.15 955.199 1869.34 953.59C1867.73 952.396 1866.12 951.203 1864.46 949.983C1863.25 951.696 1862.11 953.331 1860.86 955.043C1862.49 956.107 1864.05 957.145 1865.84 958.313ZM1862.16 937.137C1863.38 935.373 1864.59 933.608 1865.81 931.817C1864.08 930.52 1862.36 929.222 1860.52 927.847C1859.12 929.845 1857.88 931.61 1856.58 933.452C1858.42 934.672 1860.29 935.918 1862.16 937.137ZM1851.86 1004.64C1852.93 1003.13 1853.89 1001.81 1855.03 1000.17C1853.42 999.004 1852.02 997.94 1850.54 996.85C1849.45 998.381 1848.42 999.834 1847.2 1001.52C1848.73 1002.53 1850.23 1003.55 1851.86 1004.64ZM1848.08 983.278C1849.06 981.772 1850 980.345 1851.01 978.84C1849.5 977.672 1848.13 976.608 1846.68 975.492C1845.62 977.049 1844.6 978.529 1843.54 980.086C1844.97 981.098 1846.42 982.11 1848.08 983.278ZM1844.35 962.725C1845.64 960.856 1846.78 959.195 1848.03 957.405C1846.37 956.159 1844.68 954.862 1842.79 953.46C1841.55 955.199 1840.22 957.016 1838.8 959.014C1840.59 960.181 1842.4 961.401 1844.35 962.725ZM1840.56 941.419C1841.86 939.577 1843.2 937.63 1844.63 935.632C1842.61 934.153 1840.79 932.829 1838.82 931.402C1837.45 933.297 1836 935.295 1834.49 937.371C1836.41 938.642 1838.46 940.018 1840.56 941.419ZM1836.75 920.166C1838.1 918.219 1839.6 916.065 1841.13 913.834C1839.16 912.38 1837.03 910.797 1834.86 909.162C1833.25 911.394 1831.72 913.574 1830.14 915.78C1832.19 917.129 1834.47 918.66 1836.75 920.166ZM1837.86 892.035C1835.58 890.348 1833.17 888.558 1830.89 886.845C1829.26 889.258 1827.54 891.75 1825.83 894.241C1827.99 895.642 1830.53 897.303 1833.04 898.938C1834.52 896.836 1836.23 894.371 1837.86 892.035ZM1826.59 987.715C1827.62 986.132 1828.63 984.523 1829.8 982.733C1828.09 981.357 1826.33 979.982 1824.64 978.658C1823.27 980.449 1822.02 982.084 1820.73 983.823C1822.62 985.094 1824.59 986.392 1826.59 987.715ZM1822.93 966.643C1824.17 964.905 1825.44 963.14 1826.79 961.245C1824.93 959.87 1822.98 958.391 1820.91 956.86C1819.69 958.702 1818.44 960.571 1817.23 962.413C1819.17 963.841 1821.06 965.242 1822.93 966.643ZM1818.99 945.779C1820.34 943.807 1821.79 941.627 1823.32 939.395C1821.35 937.942 1819.22 936.385 1817.07 934.802C1815.54 936.904 1813.93 939.136 1812.33 941.341C1814.55 942.846 1816.78 944.326 1818.99 945.779ZM1819.95 917.545C1817.82 916.065 1815.72 914.612 1813.65 913.185C1812.12 915.261 1810.43 917.545 1808.64 919.932C1810.69 921.385 1813 923.046 1815.18 924.603C1816.71 922.319 1818.39 919.828 1819.95 917.545ZM1805.01 992.179C1806.34 990.206 1807.79 988.078 1809.21 985.951C1807.17 984.471 1805.14 982.966 1803.12 981.461C1801.59 983.589 1800.06 985.717 1798.56 987.819C1800.74 989.298 1802.84 990.725 1805.01 992.179ZM1801.23 970.925C1802.5 968.901 1803.85 966.747 1805.14 964.671C1803.3 963.322 1801.49 961.998 1799.7 960.675C1798.3 962.621 1796.87 964.645 1795.42 966.669C1797.31 968.071 1799.31 969.524 1801.23 970.925ZM1797.62 949.542C1799.05 947.569 1800.61 945.467 1802.24 943.236C1800.19 941.757 1797.96 940.199 1795.84 938.668C1794.25 940.796 1792.57 943.08 1790.83 945.416C1793.06 946.765 1795.32 948.14 1797.62 949.542ZM1792.08 915.832C1790.39 918.323 1788.47 921.178 1786.63 923.902C1788.91 925.252 1791.4 926.731 1793.81 928.132C1795.52 925.901 1797.37 923.513 1799.15 921.23C1796.87 919.517 1794.33 917.57 1792.08 915.832ZM1796.2 899.665C1793.63 897.744 1790.62 895.512 1788.16 893.67C1786.32 896.343 1784.09 899.561 1782.17 902.337C1784.63 903.817 1787.77 905.711 1790.65 907.45C1792.49 904.881 1794.44 902.13 1796.2 899.665ZM1783.44 996.694C1784.95 994.436 1786.48 992.101 1788.11 989.661C1786.24 988.338 1784.09 986.833 1781.94 985.328C1780.25 987.508 1778.44 989.843 1776.75 991.997C1778.96 993.554 1781.21 995.137 1783.44 996.694ZM1779.92 974.506C1781.24 972.664 1782.77 970.536 1784.3 968.382C1782.3 966.669 1780.15 964.801 1778.05 962.984C1776.44 965.268 1774.63 967.837 1772.86 970.302C1775.02 971.6 1777.4 973.027 1779.92 974.506ZM1776.8 954.057C1778.46 951.773 1780.31 949.23 1781.89 947.05C1779.29 945.078 1776.55 943.002 1774.16 941.212C1772.66 943.599 1770.95 946.35 1769.39 948.867C1771.7 950.476 1774.32 952.318 1776.8 954.057ZM1778.46 925.278C1775.87 923.332 1772.92 921.152 1770.35 919.231C1768.48 921.878 1766.2 925.148 1764.26 927.925C1766.77 929.43 1769.99 931.376 1772.89 933.141C1774.76 930.494 1776.78 927.639 1778.46 925.278ZM1762.16 1000.33C1763.82 998.095 1765.68 995.63 1767.39 993.346C1764.96 991.426 1762.47 989.48 1760.34 987.819C1758.6 990.362 1756.63 993.217 1754.69 996.019C1756.87 997.291 1759.54 998.822 1762.16 1000.33ZM1758.86 979.515C1760.65 976.972 1762.6 974.195 1764.33 971.73C1761.79 969.809 1758.86 967.629 1756.48 965.839C1754.66 968.46 1752.49 971.6 1750.59 974.325C1753.03 975.882 1756.04 977.75 1758.86 979.515ZM1755.21 958.521C1756.71 956.055 1758.47 953.123 1760 950.58C1757.62 948.607 1754.84 946.298 1752.49 944.352C1750.98 946.817 1749.09 949.957 1747.35 952.837C1749.79 954.602 1752.61 956.652 1755.21 958.521ZM1734.15 968.719C1733.64 972.845 1731.28 976.556 1726.32 978.477C1731.51 978.788 1735.11 981.253 1737.03 984.731C1739.18 981.539 1741.44 978.217 1743.28 975.518C1740.58 973.52 1737.27 971.055 1734.15 968.719ZM1748.08 922.216C1747.27 926.887 1744.71 931.221 1738.38 931.895C1743.7 932.44 1748.86 933.297 1750.93 938.487C1753.24 935.113 1755.62 931.662 1757.44 929.015C1754.74 927.068 1751.37 924.603 1748.08 922.216ZM1765.94 896.758C1765.32 900.625 1763.22 904.491 1758.22 906.386C1763.27 906.775 1766.9 909.188 1768.82 912.692C1770.92 909.526 1773.1 906.256 1774.99 903.427C1772.4 901.533 1769.1 899.094 1765.94 896.758ZM1783.7 871.093C1783.18 875.037 1780.98 878.826 1776.96 880.305C1780.28 882.329 1783.93 884.561 1786.99 886.404C1788.73 883.887 1790.99 880.591 1792.83 877.918C1790.16 875.92 1786.86 873.428 1783.7 871.093ZM1802.03 842.651C1800.89 847.997 1799.83 853.369 1793.35 855.289C1798.51 855.574 1802.37 857.754 1804.37 861.725C1806.57 858.507 1808.85 855.133 1811.08 851.837C1807.04 850.825 1802.6 848.749 1802.03 842.651ZM1806 867.823C1804.13 870.574 1801.88 873.921 1799.91 876.828C1802.19 878.1 1805.17 879.786 1807.92 881.317C1809.73 878.982 1811.86 876.231 1813.57 874.025C1811.11 872.001 1808.23 869.64 1806 867.823ZM1809.68 891.049C1808.02 893.281 1806.18 895.798 1804.37 898.263C1806.65 899.613 1809.19 901.144 1811.63 902.597C1813.36 900.339 1815.15 897.952 1816.78 895.824C1814.48 894.267 1811.99 892.606 1809.68 891.049ZM1823.53 843.819C1821.37 846.336 1819.12 849.009 1817.3 851.163C1819.92 852.642 1823.01 854.381 1825.89 856.015C1827.34 853.913 1829.1 851.37 1830.68 849.061C1828.45 847.426 1825.91 845.583 1823.53 843.819ZM1827.52 865.358C1825.76 867.693 1823.79 870.314 1821.89 872.832C1824.25 874.44 1826.84 876.205 1829.23 877.814C1830.94 875.427 1832.83 872.754 1834.7 870.159C1832.42 868.628 1829.8 866.889 1827.52 865.358ZM1845.51 821.449C1843.93 820.437 1842.66 818.906 1841.65 817.972C1839.21 820.956 1836.65 824.07 1834.7 826.458C1837.29 828.196 1840.66 830.428 1843.39 832.219C1845.3 829.52 1847.56 826.302 1849.74 823.188C1848.86 822.851 1847.02 822.409 1845.51 821.449ZM1844.55 839.251C1843.18 841.639 1841.47 844.597 1839.81 847.478C1841.96 848.957 1844.58 850.773 1847.15 852.538C1848.73 850.125 1850.39 847.582 1851.94 845.246C1849.61 843.352 1846.99 841.224 1844.55 839.251ZM1848.6 861.024C1847.02 863.437 1845.23 866.11 1843.49 868.731C1845.85 870.288 1848.36 871.949 1850.91 873.61C1852.46 871.378 1854.25 868.835 1855.91 866.474C1853.47 864.657 1850.88 862.737 1848.6 861.024ZM1862.42 813.586C1860.6 816.285 1858.32 819.685 1856.38 822.591C1858.84 824.096 1862.05 826.068 1865.06 827.911C1866.82 825.472 1869.05 822.409 1870.92 819.84C1868.28 817.894 1865.06 815.506 1862.42 813.586ZM1880 785.092C1879.04 790.308 1877.74 795.317 1871.54 797.185C1876.78 797.497 1880.72 799.754 1882.54 803.569C1884.79 800.377 1887.15 796.978 1889.51 793.63C1885.13 793.163 1881.5 790.308 1880 785.092ZM1884.07 809.771C1882.43 812.34 1880.33 815.636 1878.39 818.647C1880.77 820.126 1883.78 821.994 1886.58 823.733C1888.5 821.164 1890.57 818.361 1892.34 816C1889.69 814.001 1886.58 811.666 1884.07 809.771ZM1901.57 781.096C1901 787.22 1898.84 791.139 1894.9 792.722C1898.17 794.798 1901.7 797.03 1904.57 798.872C1906.47 796.251 1908.8 793.007 1911.06 789.867C1907.27 789.218 1903.54 786.935 1901.57 781.096ZM1905.74 806.138C1904.13 808.681 1902.16 811.796 1900.37 814.598C1902.79 816.181 1905.61 818.024 1908.33 819.814C1910.05 817.427 1912.09 814.624 1913.91 812.107C1911.34 810.238 1908.31 808.007 1905.74 806.138ZM1923.03 779.461C1922.78 783.431 1920.39 787.22 1916.71 788.855C1919.9 790.853 1923.42 793.085 1926.25 794.876C1928.14 792.255 1930.42 789.063 1932.24 786.52C1929.49 784.444 1926.15 781.848 1923.03 779.461ZM1927.42 802.375C1925.86 804.841 1923.94 807.877 1922.15 810.706C1924.56 812.315 1927.34 814.183 1929.88 815.87C1931.75 813.353 1933.82 810.576 1935.53 808.266C1932.96 806.424 1930.09 804.296 1927.42 802.375ZM1944.79 773.181C1944.53 779.383 1942.22 783.016 1938.57 784.911C1941.78 787.039 1945.15 789.244 1947.85 791.009C1949.79 788.31 1952.13 785.118 1954.33 782.082C1950.41 781.407 1946.81 779.098 1944.79 773.181ZM1949.09 798.535C1947.61 800.948 1945.75 803.932 1943.91 806.891C1946.14 808.37 1948.91 810.213 1951.61 811.977C1953.37 809.564 1955.42 806.787 1957.16 804.426C1954.51 802.479 1951.71 800.429 1949.09 798.535ZM1966.57 769.859C1966.05 775.465 1964.03 779.357 1960.14 781.044C1963.43 783.146 1966.72 785.248 1969.65 787.116C1971.52 784.573 1973.93 781.303 1976.21 778.189C1972.17 777.696 1968.64 775.283 1966.57 769.859ZM1970.79 794.564C1969.26 797.03 1967.42 800.04 1965.56 803.05C1967.63 804.348 1970.27 806.009 1972.66 807.514C1974.55 805.152 1976.57 802.635 1978.39 800.377C1975.98 798.535 1973.26 796.459 1970.79 794.564ZM1974.63 817.764C1973 820.022 1971.39 822.28 1969.81 824.459C1971.93 825.757 1974.22 827.132 1976.52 828.534C1978.03 826.587 1979.61 824.511 1981.32 822.28C1979.19 820.826 1976.89 819.269 1974.63 817.764ZM1988.35 769.47C1986.43 771.961 1984.07 775.075 1982.07 777.696C1984.51 779.072 1987.8 780.888 1990.65 782.497C1992.6 780.136 1994.96 777.281 1997.03 774.764C1994.49 773.207 1991.28 771.235 1988.35 769.47ZM1994.18 804.348C1996.05 801.805 1998.09 799.028 1999.99 796.459C1997.65 794.954 1994.78 793.111 1992.34 791.528C1990.6 793.941 1988.6 796.666 1986.79 799.184C1989.18 800.844 1991.82 802.713 1994.18 804.348ZM1990.11 905.711C1989.18 907.009 1988.29 908.306 1987.2 909.837C1988.71 910.849 1989.88 911.602 1991.28 912.536C1992.26 911.239 1993.19 909.967 1994.21 908.618C1992.86 907.631 1991.61 906.775 1990.11 905.711ZM1994.21 928.132C1993.4 929.17 1992.68 930.131 1991.66 931.428C1992.96 932.31 1993.89 932.933 1995.01 933.66C1995.86 932.492 1996.62 931.48 1997.42 930.39C1996.31 929.612 1995.37 928.963 1994.21 928.132Z" fill="#E6F9FB"/>
<path d="M1836.67 793.136C1840.14 799.832 1844.79 802.349 1850.44 800.584C1854.92 799.183 1857.96 794.616 1857.59 789.841C1857.2 784.676 1853.29 780.706 1848.16 780.239C1842.45 779.72 1838.69 782.886 1836.51 789.892C1834.23 788.18 1832.11 785.533 1829.51 784.884C1826.82 784.209 1823.29 784.754 1820.75 786C1816.45 788.102 1814.97 793.603 1816.65 798.093C1818.39 802.738 1823.03 805.359 1828.11 804.607C1833.3 803.854 1836.31 799.832 1836.67 793.136Z" fill="#E6F9FB"/>
<path d="M1940.3 753.458C1940.3 747.697 1935.82 743.181 1930.06 743.129C1924.15 743.077 1919.53 747.749 1919.64 753.665C1919.74 759.426 1924.31 763.864 1930.09 763.812C1935.82 763.734 1940.3 759.219 1940.3 753.458Z" fill="#E6F9FB"/>
<path d="M1896.87 761.113C1896.85 755.326 1892.36 750.914 1886.56 750.966C1880.77 750.992 1876.37 755.481 1876.42 761.294C1876.44 767.081 1880.93 771.493 1886.74 771.441C1892.52 771.389 1896.93 766.926 1896.87 761.113Z" fill="#E6F9FB"/>
<path d="M1908.2 747.023C1902.45 747.075 1898.01 751.564 1898.01 757.325C1898.01 763.242 1902.68 767.757 1908.62 767.602C1914.35 767.472 1918.7 762.879 1918.6 757.092C1918.5 751.382 1913.96 746.971 1908.2 747.023Z" fill="#E6F9FB"/>
<path d="M1865.14 775.231C1870.92 775.154 1875.28 770.56 1875.12 764.721C1874.96 759.116 1870.48 754.834 1864.8 754.912C1859.02 754.99 1854.66 759.583 1854.82 765.422C1854.98 771.027 1859.46 775.309 1865.14 775.231Z" fill="#E6F9FB"/>
<path d="M1854.2 768.977C1854.22 763.371 1849.84 758.908 1844.24 758.83C1838.64 758.752 1834.13 763.112 1834 768.691C1833.9 774.452 1838.38 779.045 1844.14 779.019C1849.74 779.019 1854.15 774.608 1854.2 768.977Z" fill="#E6F9FB"/>
<path d="M1936.15 732.491C1936.1 726.963 1931.56 722.474 1926.04 722.5C1920.52 722.551 1916.03 727.093 1916.06 732.646C1916.11 738.174 1920.6 742.611 1926.2 742.611C1931.64 742.611 1936.18 737.992 1936.15 732.491Z" fill="#E6F9FB"/>
<path d="M1775.25 827.132C1775.3 821.553 1770.87 817.011 1765.29 816.959C1759.72 816.908 1755.18 821.345 1755.13 826.899C1755.08 832.478 1759.51 837.019 1765.06 837.071C1770.66 837.149 1775.17 832.712 1775.25 827.132Z" fill="#E6F9FB"/>
<path d="M1804.47 808.499C1810.25 808.577 1814.76 804.113 1814.76 798.326C1814.74 792.695 1810.38 788.283 1804.78 788.232C1799 788.154 1794.49 792.617 1794.49 798.404C1794.51 804.01 1798.89 808.447 1804.47 808.499Z" fill="#E6F9FB"/>
<path d="M1832.44 772.895C1832.5 767.419 1827.88 762.8 1822.41 762.8C1816.91 762.826 1812.35 767.471 1812.43 772.947C1812.51 778.293 1816.94 782.73 1822.28 782.834C1827.75 782.938 1832.39 778.371 1832.44 772.895Z" fill="#E6F9FB"/>
<path d="M1904.44 725.638C1898.97 725.638 1894.39 730.257 1894.44 735.733C1894.49 741.235 1899.16 745.776 1904.63 745.672C1909.97 745.568 1914.4 741.105 1914.45 735.759C1914.5 730.283 1909.94 725.638 1904.44 725.638Z" fill="#E6F9FB"/>
<path d="M1792.98 802.115C1792.9 796.613 1788.21 792.098 1782.74 792.228C1777.24 792.357 1772.76 797.106 1772.97 802.582C1773.15 807.928 1777.69 812.288 1783 812.262C1788.5 812.236 1793.06 807.59 1792.98 802.115Z" fill="#E6F9FB"/>
<path d="M1871.02 743.519C1871.1 738.251 1866.64 733.632 1861.35 733.476C1855.96 733.32 1851.16 738.043 1851.22 743.467C1851.27 748.761 1855.81 753.302 1861.09 753.328C1866.36 753.328 1870.95 748.813 1871.02 743.519Z" fill="#E6F9FB"/>
<path d="M1882.64 749.514C1888.11 749.618 1892.8 744.973 1892.78 739.471C1892.75 734.125 1888.29 729.61 1882.95 729.532C1877.48 729.428 1872.79 734.073 1872.81 739.575C1872.81 744.895 1877.3 749.436 1882.64 749.514Z" fill="#E6F9FB"/>
<path d="M1800.71 766.797C1795.39 766.849 1790.86 771.469 1790.91 776.762C1790.96 782.082 1795.58 786.624 1800.86 786.572C1806.18 786.52 1810.72 781.901 1810.67 776.607C1810.61 771.313 1806 766.745 1800.71 766.797Z" fill="#E6F9FB"/>
<path d="M1753.39 830.973C1753.44 825.679 1748.91 821.06 1743.59 821.008C1738.3 820.956 1733.69 825.498 1733.64 830.818C1733.58 836.112 1738.12 840.731 1743.44 840.783C1748.72 840.835 1753.34 836.293 1753.39 830.973Z" fill="#E6F9FB"/>
<path d="M1761.25 815.921C1766.56 815.973 1771.15 811.406 1771.13 806.086C1771.1 800.74 1766.51 796.199 1761.2 796.303C1756.01 796.381 1751.63 800.74 1751.5 805.956C1751.4 811.25 1755.91 815.895 1761.25 815.921Z" fill="#E6F9FB"/>
<path d="M1850 747.307C1850.02 741.987 1845.51 737.445 1840.17 737.497C1834.83 737.523 1830.37 742.09 1830.45 747.41C1830.55 752.626 1834.88 756.934 1840.07 757.038C1845.41 757.116 1849.97 752.652 1850 747.307Z" fill="#E6F9FB"/>
<path d="M1778.98 770.949C1773.64 771.001 1769.49 775.231 1769.49 780.577C1769.49 786.052 1773.93 790.334 1779.4 790.153C1784.71 789.997 1788.81 785.663 1788.68 780.343C1788.6 775.023 1784.32 770.897 1778.98 770.949Z" fill="#E6F9FB"/>
<path d="M1731.33 834.89C1731.38 829.467 1727.28 825.289 1721.86 825.289C1716.45 825.289 1712.32 829.415 1712.38 834.839C1712.4 840.107 1716.39 844.155 1721.63 844.259C1727.08 844.337 1731.28 840.288 1731.33 834.89Z" fill="#E6F9FB"/>
<path d="M1922.23 720.422C1927.62 720.422 1931.8 716.27 1931.8 710.872C1931.8 705.474 1927.65 701.296 1922.26 701.296C1916.86 701.296 1912.69 705.448 1912.69 710.846C1912.66 716.244 1916.84 720.422 1922.23 720.422Z" fill="#E6F9FB"/>
<path d="M1910.07 714.818C1910.12 709.42 1906.03 705.268 1900.63 705.216C1895.24 705.164 1891.09 709.264 1891.04 714.662C1890.99 720.06 1895.09 724.212 1900.48 724.264C1905.9 724.289 1910.05 720.215 1910.07 714.818Z" fill="#E6F9FB"/>
<path d="M1818.65 741.573C1813.26 741.521 1809.06 745.673 1809.01 751.045C1808.95 756.443 1813.1 760.647 1818.47 760.699C1823.86 760.751 1828.06 756.599 1828.11 751.227C1828.17 745.829 1824.02 741.625 1818.65 741.573Z" fill="#E6F9FB"/>
<path d="M1739.78 818.646C1745.15 818.594 1749.17 814.416 1749.06 808.992C1748.96 803.646 1744.73 799.65 1739.31 799.806C1734.13 799.936 1730.21 804.01 1730.21 809.278C1730.26 814.624 1734.39 818.698 1739.78 818.646Z" fill="#E6F9FB"/>
<path d="M1757.51 793.785C1762.73 793.759 1766.77 789.685 1766.8 784.469C1766.8 779.097 1762.57 774.971 1757.2 775.101C1752.02 775.23 1748.05 779.382 1748.13 784.624C1748.18 789.789 1752.3 793.811 1757.51 793.785Z" fill="#E6F9FB"/>
<path d="M1867.39 721.797C1867.45 716.425 1863.3 712.299 1857.93 712.351C1852.72 712.403 1848.7 716.425 1848.68 721.641C1848.62 727.013 1852.77 731.139 1858.14 731.087C1863.32 731.036 1867.34 727.013 1867.39 721.797Z" fill="#E6F9FB"/>
<path d="M1806.26 755.092C1806.31 749.72 1802.16 745.594 1796.79 745.646C1791.58 745.698 1787.56 749.72 1787.54 754.936C1787.49 760.308 1791.63 764.434 1797 764.382C1802.21 764.33 1806.23 760.308 1806.26 755.092Z" fill="#E6F9FB"/>
<path d="M1888.34 717.516C1888.19 712.144 1883.94 708.2 1878.49 708.381C1873.15 708.563 1869.24 712.871 1869.47 718.346C1869.7 723.536 1873.85 727.377 1879.11 727.273C1884.51 727.195 1888.5 722.966 1888.34 717.516Z" fill="#E6F9FB"/>
<path d="M1845.67 725.664C1845.72 720.474 1841.62 716.296 1836.46 716.27C1831.28 716.218 1827.1 720.318 1827.08 725.482C1827.03 730.672 1831.12 734.851 1836.28 734.876C1841.44 734.928 1845.62 730.828 1845.67 725.664Z" fill="#E6F9FB"/>
<path d="M1784.48 758.674C1784.38 753.614 1779.99 749.436 1774.94 749.617C1769.88 749.773 1765.76 754.21 1765.99 759.271C1766.2 764.201 1770.43 768.198 1775.35 768.146C1780.41 768.068 1784.61 763.734 1784.48 758.674Z" fill="#E6F9FB"/>
<path d="M1700.06 829.39C1695 829.468 1690.83 833.828 1690.96 838.888C1691.09 843.948 1695.5 848.101 1700.55 847.893C1705.48 847.711 1709.5 843.507 1709.47 838.577C1709.42 833.516 1705.12 829.286 1700.06 829.39Z" fill="#E6F9FB"/>
<path d="M1918.5 679.965C1913.47 679.887 1909.14 684.221 1909.16 689.255C1909.22 694.16 1913.36 698.312 1918.26 698.39C1923.29 698.467 1927.62 694.134 1927.6 689.099C1927.52 684.221 1923.37 680.042 1918.5 679.965Z" fill="#E6F9FB"/>
<path d="M1727.23 812.885C1727.13 807.799 1722.67 803.621 1717.61 803.828C1712.69 804.062 1708.64 808.344 1708.77 813.248C1708.88 818.335 1713.33 822.513 1718.39 822.305C1723.29 822.097 1727.34 817.816 1727.23 812.885Z" fill="#E6F9FB"/>
<path d="M1823.91 729.53C1823.97 724.496 1819.61 720.162 1814.58 720.24C1809.68 720.318 1805.53 724.496 1805.51 729.375C1805.45 734.409 1809.81 738.743 1814.84 738.665C1819.71 738.587 1823.86 734.409 1823.91 729.53Z" fill="#E6F9FB"/>
<path d="M1896.64 702.258C1901.54 702.284 1905.79 698.132 1905.87 693.227C1905.97 688.192 1901.59 683.807 1896.54 683.885C1891.64 683.962 1887.46 688.218 1887.49 693.123C1887.54 698.002 1891.74 702.206 1896.64 702.258Z" fill="#E6F9FB"/>
<path d="M1735.84 779.124C1730.94 779.098 1726.71 783.25 1726.61 788.155C1726.51 793.189 1730.89 797.575 1735.94 797.497C1740.84 797.419 1745.02 793.163 1744.99 788.259C1744.94 783.354 1740.74 779.15 1735.84 779.124Z" fill="#E6F9FB"/>
<path d="M1863.14 700.985C1863.27 696.029 1859.1 691.799 1854.15 691.799C1849.32 691.799 1845.28 695.769 1845.15 700.622C1845.02 705.579 1849.19 709.809 1854.15 709.809C1858.97 709.809 1863.04 705.838 1863.14 700.985Z" fill="#E6F9FB"/>
<path d="M1884.95 696.964C1884.97 692.059 1880.77 687.829 1875.87 687.803C1870.97 687.777 1866.75 691.981 1866.72 696.886C1866.69 701.79 1870.89 706.02 1875.79 706.046C1880.67 706.098 1884.92 701.894 1884.95 696.964Z" fill="#E6F9FB"/>
<path d="M1762.57 762.748C1762.57 757.766 1758.32 753.613 1753.39 753.743C1748.57 753.873 1744.58 757.921 1744.58 762.748C1744.58 767.731 1748.83 771.883 1753.76 771.753C1758.6 771.649 1762.57 767.575 1762.57 762.748Z" fill="#E6F9FB"/>
<path d="M1792.85 742.325C1797.81 742.455 1802.03 738.277 1802.03 733.294C1802.03 728.468 1798.04 724.419 1793.22 724.289C1788.26 724.16 1784.04 728.338 1784.04 733.32C1784.04 738.147 1788.03 742.221 1792.85 742.325Z" fill="#E6F9FB"/>
<path d="M1832.57 695.121C1827.62 695.095 1823.76 698.858 1823.73 703.815C1823.71 708.771 1827.47 712.638 1832.42 712.664C1837.37 712.69 1841.23 708.927 1841.26 703.97C1841.29 699.014 1837.53 695.173 1832.57 695.121Z" fill="#E6F9FB"/>
<path d="M1705.92 816.986C1705.92 812.029 1702.08 808.163 1697.13 808.137C1692.18 808.137 1688.31 811.977 1688.29 816.934C1688.29 821.891 1692.13 825.757 1697.08 825.783C1702.06 825.783 1705.92 821.942 1705.92 816.986Z" fill="#E6F9FB"/>
<path d="M1722.9 791.994C1722.82 787.038 1718.91 783.301 1713.96 783.404C1709 783.482 1705.27 787.401 1705.38 792.357C1705.45 797.314 1709.37 801.051 1714.32 800.947C1719.25 800.869 1722.98 796.951 1722.9 791.994Z" fill="#E6F9FB"/>
<path d="M1771.49 728.493C1766.51 728.441 1762.7 732.204 1762.7 737.187C1762.7 742.169 1766.49 745.932 1771.46 745.906C1776.29 745.88 1779.97 742.221 1780.07 737.42C1780.15 732.412 1776.44 728.545 1771.49 728.493Z" fill="#E6F9FB"/>
<path d="M1723.32 767.186C1723.58 771.935 1727.44 775.412 1732.31 775.257C1737.21 775.075 1740.82 771.079 1740.56 766.07C1740.3 761.165 1736.23 757.662 1731.2 758.025C1726.45 758.363 1723.06 762.333 1723.32 767.186Z" fill="#E6F9FB"/>
<path d="M1901.38 671.245C1901.33 666.471 1897.5 662.76 1892.7 662.811C1887.93 662.863 1884.22 666.704 1884.27 671.505C1884.32 676.28 1888.16 679.991 1892.96 679.939C1897.73 679.887 1901.46 676.046 1901.38 671.245Z" fill="#E6F9FB"/>
<path d="M1914.48 658.92C1909.68 658.92 1905.95 662.631 1905.92 667.432C1905.87 672.363 1909.76 676.203 1914.71 676.1C1919.46 675.996 1923.14 672.207 1923.09 667.406C1923.03 662.605 1919.27 658.92 1914.48 658.92Z" fill="#E6F9FB"/>
<path d="M1810.79 716.375C1815.62 716.401 1819.38 712.716 1819.43 707.915C1819.48 702.906 1815.67 699.092 1810.67 699.17C1805.87 699.247 1802.19 703.01 1802.21 707.837C1802.26 712.638 1805.97 716.349 1810.79 716.375Z" fill="#E6F9FB"/>
<path d="M1683.93 820.749C1683.88 816.052 1679.97 812.211 1675.27 812.315C1670.58 812.418 1666.8 816.389 1666.95 821.086C1667.11 825.627 1670.87 829.312 1675.43 829.312C1680.12 829.338 1683.99 825.446 1683.93 820.749Z" fill="#E6F9FB"/>
<path d="M1749.66 749.564C1754.35 749.59 1758.24 745.724 1758.19 741.001C1758.16 736.304 1754.25 732.463 1749.55 732.541C1745.02 732.619 1741.28 736.355 1741.21 740.897C1741.13 745.62 1744.97 749.538 1749.66 749.564Z" fill="#E6F9FB"/>
<path d="M1863.43 675.553C1863.58 680.276 1867.6 683.961 1872.35 683.753C1877.07 683.546 1880.72 679.471 1880.44 674.748C1880.18 670.181 1876.31 666.626 1871.72 666.73C1867.01 666.834 1863.27 670.804 1863.43 675.553Z" fill="#E6F9FB"/>
<path d="M1710.98 778.916C1715.46 778.942 1719.35 775.153 1719.45 770.638C1719.56 766.018 1715.51 761.97 1710.9 762.048C1706.39 762.126 1702.57 766.018 1702.6 770.534C1702.63 775.049 1706.46 778.89 1710.98 778.916Z" fill="#E6F9FB"/>
<path d="M1850.46 687.568C1855 687.464 1858.79 683.572 1858.73 679.03C1858.68 674.333 1854.59 670.441 1849.92 670.648C1845.38 670.856 1841.67 674.852 1841.83 679.368C1841.99 683.935 1845.95 687.672 1850.46 687.568Z" fill="#E6F9FB"/>
<path d="M1789.07 703.164C1784.38 703.216 1780.51 707.239 1780.69 711.936C1780.85 716.477 1784.71 720.188 1789.25 720.136C1793.94 720.084 1797.81 716.062 1797.62 711.365C1797.49 706.823 1793.63 703.113 1789.07 703.164Z" fill="#E6F9FB"/>
<path d="M1701.69 795.134C1701.62 790.437 1697.57 786.596 1692.9 786.778C1688.37 786.96 1684.69 790.852 1684.76 795.394C1684.84 800.091 1688.89 803.931 1693.55 803.75C1698.12 803.568 1701.77 799.675 1701.69 795.134Z" fill="#E6F9FB"/>
<path d="M1828.63 691.332C1833.12 691.332 1837.03 687.362 1836.96 682.898C1836.9 678.409 1832.89 674.542 1828.43 674.646C1824.07 674.775 1820.36 678.538 1820.28 682.872C1820.23 687.362 1824.15 691.332 1828.63 691.332Z" fill="#E6F9FB"/>
<path d="M1767.52 707.213C1763.01 707.213 1759.12 711.183 1759.23 715.673C1759.33 720.059 1763.11 723.77 1767.5 723.77C1772.01 723.77 1775.9 719.799 1775.79 715.31C1775.66 710.95 1771.88 707.239 1767.52 707.213Z" fill="#E6F9FB"/>
<path d="M1736.28 744.946C1736.28 740.43 1732.34 736.59 1727.85 736.719C1723.47 736.849 1719.82 740.586 1719.82 744.972C1719.82 749.487 1723.76 753.328 1728.24 753.198C1732.62 753.068 1736.28 749.305 1736.28 744.946Z" fill="#E6F9FB"/>
<path d="M1815.07 686.973C1815.12 682.509 1811.52 678.824 1807.06 678.747C1802.6 678.695 1798.92 682.302 1798.84 686.765C1798.79 691.229 1802.39 694.914 1806.85 694.992C1811.34 695.044 1815.02 691.436 1815.07 686.973Z" fill="#E6F9FB"/>
<path d="M1697.31 774.478C1697.36 770.015 1694.07 766.563 1689.66 766.433C1685.05 766.278 1681.47 769.703 1681.42 774.297C1681.37 778.916 1684.84 782.393 1689.45 782.341C1693.89 782.263 1697.26 778.89 1697.31 774.478Z" fill="#E6F9FB"/>
<path d="M1671.59 807.15C1676.15 807.124 1679.63 803.595 1679.55 799.028C1679.5 794.486 1675.9 791.035 1671.33 791.165C1666.95 791.269 1663.61 794.694 1663.55 799.08C1663.55 803.647 1667.03 807.15 1671.59 807.15Z" fill="#E6F9FB"/>
<path d="M1745.82 711.521C1741.39 711.547 1738.02 714.895 1737.99 719.332C1737.97 723.951 1741.44 727.377 1746.08 727.273C1750.51 727.169 1753.78 723.744 1753.73 719.28C1753.65 714.817 1750.28 711.495 1745.82 711.521Z" fill="#E6F9FB"/>
<path d="M1918.58 645.996C1918.65 641.377 1915.2 637.847 1910.62 637.873C1906.18 637.873 1902.76 641.221 1902.68 645.659C1902.6 650.278 1906.05 653.807 1910.64 653.781C1915.1 653.755 1918.5 650.433 1918.58 645.996Z" fill="#E6F9FB"/>
<path d="M1889.67 641.793C1885.08 641.819 1881.71 645.348 1881.84 649.967C1881.97 654.379 1885.36 657.649 1889.8 657.623C1894.36 657.597 1897.75 654.068 1897.63 649.448C1897.52 645.037 1894.13 641.741 1889.67 641.793Z" fill="#E6F9FB"/>
<path d="M1785.33 682.145C1780.9 682.145 1777.5 685.493 1777.5 689.93C1777.5 694.368 1780.85 697.767 1785.28 697.767C1789.72 697.793 1793.11 694.42 1793.11 689.982C1793.11 685.545 1789.74 682.171 1785.33 682.145Z" fill="#E6F9FB"/>
<path d="M1875.92 653.704C1875.98 649.267 1872.71 645.841 1868.3 645.737C1863.71 645.634 1860.21 649.059 1860.24 653.652C1860.26 658.09 1863.61 661.412 1868.04 661.438C1872.48 661.438 1875.85 658.116 1875.92 653.704Z" fill="#E6F9FB"/>
<path d="M1661.77 824.51C1661.66 819.969 1658.06 816.544 1653.49 816.699C1648.96 816.829 1645.59 820.488 1645.79 825.081C1645.98 829.467 1649.45 832.737 1653.86 832.711C1658.39 832.659 1661.87 829.078 1661.77 824.51Z" fill="#E6F9FB"/>
<path d="M1707.03 756.624C1711.47 756.676 1714.92 753.355 1714.97 748.943C1715.02 744.505 1711.7 741.054 1707.29 741.002C1702.86 740.95 1699.41 744.272 1699.36 748.683C1699.28 753.121 1702.6 756.572 1707.03 756.624Z" fill="#E6F9FB"/>
<path d="M1832.44 661.126C1832.34 657 1828.79 653.548 1824.67 653.6C1820.39 653.652 1816.84 657.415 1817.07 661.671C1817.28 665.797 1820.93 669.145 1825.03 668.989C1829.18 668.859 1832.55 665.252 1832.44 661.126Z" fill="#E6F9FB"/>
<path d="M1846.52 665.2C1850.88 665.148 1854.28 661.619 1854.17 657.233C1854.07 652.873 1850.49 649.526 1846.11 649.681C1841.91 649.837 1838.64 653.237 1838.67 657.467C1838.67 661.826 1842.14 665.278 1846.52 665.2Z" fill="#E6F9FB"/>
<path d="M1649.86 795.369C1645.77 795.395 1642.24 798.976 1642.27 803.076C1642.29 807.176 1645.87 810.705 1649.97 810.68C1654.06 810.654 1657.59 807.072 1657.56 802.972C1657.51 798.872 1653.93 795.343 1649.86 795.369Z" fill="#E6F9FB"/>
<path d="M1763.45 701.506C1767.52 701.609 1771.13 698.184 1771.31 694.11C1771.46 689.906 1767.86 686.143 1763.61 686.169C1759.54 686.169 1756.01 689.672 1755.96 693.772C1755.91 697.846 1759.35 701.402 1763.45 701.506Z" fill="#E6F9FB"/>
<path d="M1724.95 730.934C1729.02 730.934 1732.57 727.456 1732.62 723.356C1732.68 719.126 1728.99 715.467 1724.77 715.571C1720.67 715.675 1717.22 719.256 1717.27 723.33C1717.33 727.43 1720.85 730.934 1724.95 730.934Z" fill="#E6F9FB"/>
<path d="M1667.99 785.845C1672.08 785.663 1675.53 781.874 1675.3 777.826C1675.04 773.7 1671.25 770.326 1667.21 770.612C1663.24 770.923 1659.98 774.478 1660.08 778.397C1660.21 782.549 1663.94 786.052 1667.99 785.845Z" fill="#E6F9FB"/>
<path d="M1685.46 760.152C1689.46 760.178 1692.88 756.831 1692.98 752.808C1693.06 748.682 1689.48 745.101 1685.36 745.179C1681.37 745.282 1678 748.708 1678.05 752.704C1678.05 756.727 1681.44 760.126 1685.46 760.152Z" fill="#E6F9FB"/>
<path d="M1632.08 836.189C1636.15 836.215 1639.75 832.582 1639.7 828.508C1639.65 824.408 1635.99 820.852 1631.92 820.956C1627.98 821.06 1624.56 824.512 1624.48 828.456C1624.43 832.53 1628.01 836.163 1632.08 836.189Z" fill="#E6F9FB"/>
<path d="M1810.61 665.303C1810.69 661.229 1807.09 657.596 1803.02 657.674C1799.08 657.726 1795.65 661.151 1795.58 665.096C1795.5 669.17 1799.1 672.803 1803.17 672.725C1807.11 672.673 1810.54 669.248 1810.61 665.303Z" fill="#E6F9FB"/>
<path d="M1749.24 697.845C1749.32 693.693 1746.16 690.475 1742.01 690.449C1737.86 690.424 1734.67 693.615 1734.7 697.768C1734.72 701.764 1737.73 704.852 1741.72 704.982C1745.9 705.086 1749.17 701.972 1749.24 697.845Z" fill="#E6F9FB"/>
<path d="M1703.2 734.359C1707.24 734.411 1710.35 731.426 1710.48 727.43C1710.64 723.252 1707.53 719.982 1703.35 719.93C1699.18 719.878 1695.99 723.07 1696.07 727.248C1696.14 731.271 1699.18 734.307 1703.2 734.359Z" fill="#E6F9FB"/>
<path d="M1864.23 624.769C1860.21 624.769 1857.15 627.754 1857.1 631.776C1857.05 635.954 1860.21 639.094 1864.39 639.016C1868.38 638.938 1871.36 635.85 1871.31 631.802C1871.28 627.78 1868.25 624.769 1864.23 624.769Z" fill="#E6F9FB"/>
<path d="M1893.09 628.039C1893.11 623.861 1889.9 620.721 1885.7 620.799C1881.68 620.876 1878.67 623.965 1878.65 627.987C1878.62 632.165 1881.84 635.305 1886.01 635.227C1890.05 635.149 1893.06 632.061 1893.09 628.039Z" fill="#E6F9FB"/>
<path d="M1906.75 616.879C1902.6 616.879 1899.44 620.097 1899.49 624.249C1899.54 628.401 1902.81 631.515 1906.96 631.412C1910.95 631.308 1913.96 628.22 1914.01 624.223C1914.06 620.071 1910.9 616.853 1906.75 616.879Z" fill="#E6F9FB"/>
<path d="M1788.6 668.988C1788.58 664.836 1785.36 661.748 1781.19 661.878C1777.19 662.008 1774.24 665.096 1774.29 669.118C1774.32 673.27 1777.53 676.358 1781.7 676.228C1785.67 676.099 1788.63 673.011 1788.6 668.988Z" fill="#E6F9FB"/>
<path d="M1617.43 832.555C1617.48 828.792 1614.5 825.626 1610.77 825.47C1606.85 825.314 1603.56 828.428 1603.51 832.321C1603.45 836.24 1606.64 839.458 1610.56 839.406C1614.29 839.38 1617.35 836.317 1617.43 832.555Z" fill="#E6F9FB"/>
<path d="M1653.03 781.329C1653.03 777.384 1649.87 774.296 1645.95 774.348C1642.04 774.4 1638.95 777.592 1639.05 781.536C1639.16 785.299 1642.19 788.283 1645.95 788.335C1649.89 788.387 1653.03 785.273 1653.03 781.329Z" fill="#E6F9FB"/>
<path d="M1728.06 701.635C1728.09 697.872 1725.11 694.732 1721.35 694.602C1717.43 694.472 1714.16 697.612 1714.11 701.505C1714.09 705.424 1717.3 708.616 1721.22 708.538C1724.98 708.486 1728.01 705.398 1728.06 701.635Z" fill="#E6F9FB"/>
<path d="M1820.93 646.566C1824.69 646.54 1827.8 643.426 1827.83 639.663C1827.86 635.771 1824.54 632.527 1820.65 632.657C1816.89 632.786 1813.85 635.978 1813.93 639.741C1814.01 643.504 1817.17 646.592 1820.93 646.566Z" fill="#E6F9FB"/>
<path d="M1842.71 642.778C1846.68 642.7 1849.69 639.482 1849.56 635.486C1849.43 631.541 1846.16 628.557 1842.17 628.739C1838.38 628.92 1835.48 632.008 1835.53 635.849C1835.58 639.819 1838.74 642.856 1842.71 642.778Z" fill="#E6F9FB"/>
<path d="M1635.24 806.968C1635.29 803.023 1632.18 799.883 1628.24 799.883C1624.3 799.883 1621.21 803.049 1621.27 806.994C1621.32 810.756 1624.3 813.793 1628.09 813.87C1632 813.974 1635.19 810.912 1635.24 806.968Z" fill="#E6F9FB"/>
<path d="M1663.79 749.591C1659.87 749.617 1656.74 752.887 1656.87 756.805C1656.99 760.568 1660.11 763.579 1663.87 763.553C1667.78 763.527 1670.92 760.257 1670.79 756.338C1670.68 752.575 1667.55 749.565 1663.79 749.591Z" fill="#E6F9FB"/>
<path d="M1766.72 672.622C1766.56 668.885 1763.3 665.849 1759.56 665.978C1755.67 666.108 1752.56 669.534 1752.85 673.426C1753.13 677.163 1756.45 680.096 1760.18 679.888C1763.92 679.655 1766.87 676.359 1766.72 672.622Z" fill="#E6F9FB"/>
<path d="M1681.75 724.133C1678.07 724.056 1674.81 727.273 1674.78 730.958C1674.75 734.669 1678.02 737.887 1681.7 737.835C1685.26 737.783 1688.34 734.747 1688.47 731.192C1688.63 727.533 1685.46 724.211 1681.75 724.133Z" fill="#E6F9FB"/>
<path d="M1806 643.427C1805.95 639.768 1802.6 636.55 1798.97 636.732C1795.45 636.887 1792.41 640.079 1792.46 643.583C1792.52 647.242 1795.86 650.459 1799.49 650.278C1803.02 650.122 1806.02 646.93 1806 643.427Z" fill="#E6F9FB"/>
<path d="M1745.46 675.942C1745.43 672.283 1742.37 669.351 1738.72 669.429C1735.06 669.533 1732.16 672.621 1732.31 676.254C1732.44 679.757 1735.35 682.56 1738.85 682.56C1742.5 682.612 1745.48 679.627 1745.46 675.942Z" fill="#E6F9FB"/>
<path d="M1692.93 705.32C1692.85 708.875 1695.55 711.781 1699.1 711.937C1702.81 712.119 1705.84 709.29 1705.89 705.579C1705.97 701.868 1703.07 698.936 1699.33 698.962C1695.78 698.988 1693.01 701.764 1692.93 705.32Z" fill="#E6F9FB"/>
<path d="M1777.56 653.756C1781.16 653.756 1783.88 651.057 1783.93 647.476C1783.99 643.713 1781.13 640.91 1777.37 641.014C1773.8 641.118 1771.15 643.895 1771.2 647.502C1771.23 651.057 1773.98 653.756 1777.56 653.756Z" fill="#E6F9FB"/>
<path d="M1648.49 760.308C1648.44 756.701 1645.66 754.028 1642.03 754.106C1638.43 754.158 1635.76 756.935 1635.84 760.568C1635.89 764.175 1638.66 766.848 1642.29 766.77C1645.9 766.692 1648.57 763.941 1648.49 760.308Z" fill="#E6F9FB"/>
<path d="M1606.41 817.088C1610.04 817.166 1612.81 814.519 1612.89 810.912C1612.97 807.279 1610.33 804.502 1606.72 804.424C1603.09 804.346 1600.32 806.993 1600.24 810.601C1600.19 814.234 1602.81 817.01 1606.41 817.088Z" fill="#E6F9FB"/>
<path d="M1888.37 606.239C1888.32 602.632 1885.6 599.959 1882.02 599.933C1878.28 599.933 1875.48 602.814 1875.64 606.576C1875.77 610.158 1878.57 612.779 1882.2 612.675C1885.78 612.623 1888.42 609.872 1888.37 606.239Z" fill="#E6F9FB"/>
<path d="M1910.1 602.294C1910.02 598.584 1907.04 595.859 1903.3 596.04C1899.78 596.222 1897.16 599.051 1897.26 602.632C1897.34 606.343 1900.32 609.068 1904.06 608.886C1907.58 608.704 1910.17 605.876 1910.1 602.294Z" fill="#E6F9FB"/>
<path d="M1624.35 778.837C1620.75 778.837 1618.05 781.536 1618 785.143C1617.97 788.906 1620.83 791.708 1624.59 791.605C1628.16 791.501 1630.81 788.724 1630.73 785.117C1630.68 781.484 1627.96 778.811 1624.35 778.837Z" fill="#E6F9FB"/>
<path d="M1924.75 592.174C1921.01 592.096 1918.13 594.899 1918.16 598.61C1918.16 602.191 1920.86 604.942 1924.41 605.02C1928.14 605.098 1931.02 602.295 1930.99 598.584C1930.97 595.003 1928.3 592.252 1924.75 592.174Z" fill="#E6F9FB"/>
<path d="M1749.76 651.549C1749.94 654.845 1752.93 657.57 1756.19 657.388C1759.49 657.206 1762.21 654.222 1762.03 650.952C1761.84 647.656 1758.86 644.932 1755.6 645.113C1752.3 645.269 1749.58 648.253 1749.76 651.549Z" fill="#E6F9FB"/>
<path d="M1844.86 614.233C1844.94 610.833 1842.3 608.004 1838.93 607.875C1835.37 607.745 1832.47 610.574 1832.5 614.129C1832.52 617.528 1835.24 620.253 1838.64 620.279C1842.04 620.305 1844.79 617.632 1844.86 614.233Z" fill="#E6F9FB"/>
<path d="M1659.77 741.132C1663.35 741.236 1666.17 738.537 1666.2 734.956C1666.25 731.348 1663.53 728.598 1659.95 728.598C1656.5 728.598 1653.83 731.167 1653.7 734.566C1653.57 738.173 1656.22 741.028 1659.77 741.132Z" fill="#E6F9FB"/>
<path d="M1860.5 603.904C1856.87 603.826 1854.09 606.499 1854.04 610.132C1854.02 613.765 1856.74 616.516 1860.37 616.49C1863.84 616.464 1866.51 613.895 1866.62 610.444C1866.75 606.81 1864.1 603.982 1860.5 603.904Z" fill="#E6F9FB"/>
<path d="M1717.35 686.09C1720.75 686.012 1723.42 683.236 1723.39 679.836C1723.37 676.281 1720.41 673.504 1716.86 673.686C1713.46 673.867 1710.87 676.722 1711 680.121C1711.16 683.547 1713.96 686.168 1717.35 686.09Z" fill="#E6F9FB"/>
<path d="M1671.64 709.497C1671.75 712.792 1674.78 715.595 1678.02 715.414C1681.31 715.232 1684.06 712.17 1683.83 708.926C1683.62 705.786 1680.77 703.139 1677.63 703.191C1674.39 703.269 1671.54 706.227 1671.64 709.497Z" fill="#E6F9FB"/>
<path d="M1816.97 611.871C1813.7 611.896 1810.79 614.933 1810.95 618.177C1811.08 621.317 1813.93 624.041 1817.04 624.015C1820.31 623.989 1823.21 620.953 1823.06 617.709C1822.93 614.569 1820.08 611.845 1816.97 611.871Z" fill="#E6F9FB"/>
<path d="M1795.39 616.024C1792.15 615.998 1789.53 618.645 1789.56 621.889C1789.59 625.133 1792.28 627.728 1795.5 627.624C1798.58 627.546 1801.07 625.055 1801.15 621.967C1801.23 618.723 1798.64 616.05 1795.39 616.024Z" fill="#E6F9FB"/>
<path d="M1740.71 655C1740.66 651.705 1738.04 649.239 1734.72 649.395C1731.59 649.551 1729.25 652.042 1729.31 655.208C1729.36 658.53 1731.98 660.969 1735.29 660.813C1738.43 660.684 1740.77 658.166 1740.71 655Z" fill="#E6F9FB"/>
<path d="M1620.62 770.015C1623.91 769.963 1626.37 767.342 1626.22 764.02C1626.06 760.88 1623.57 758.545 1620.41 758.596C1617.09 758.648 1614.66 761.269 1614.81 764.591C1614.97 767.731 1617.46 770.067 1620.62 770.015Z" fill="#E6F9FB"/>
<path d="M1608.41 789.269C1608.51 785.948 1606.02 783.379 1602.7 783.379C1599.54 783.379 1597.1 785.74 1597 788.906C1596.9 792.228 1599.38 794.797 1602.7 794.797C1605.89 794.797 1608.33 792.435 1608.41 789.269Z" fill="#E6F9FB"/>
<path d="M1695.47 678.123C1692.28 678.174 1689.92 680.536 1689.92 683.754C1689.92 687.101 1692.49 689.541 1695.83 689.411C1699.02 689.281 1701.28 686.79 1701.17 683.598C1701.1 680.38 1698.69 678.071 1695.47 678.123Z" fill="#E6F9FB"/>
<path d="M1584.74 820.203C1587.98 820.281 1590.39 817.997 1590.49 814.805C1590.57 811.562 1588.29 809.148 1585.1 809.044C1581.86 808.966 1579.45 811.25 1579.34 814.442C1579.26 817.686 1581.55 820.125 1584.74 820.203Z" fill="#E6F9FB"/>
<path d="M1643.88 738.587C1643.8 735.369 1641.39 733.086 1638.15 733.164C1634.93 733.241 1632.65 735.655 1632.73 738.899C1632.8 742.116 1635.22 744.4 1638.46 744.322C1641.67 744.244 1643.95 741.831 1643.88 738.587Z" fill="#E6F9FB"/>
<path d="M1905.3 581.508C1905.27 578.316 1902.76 575.929 1899.57 576.058C1896.56 576.188 1894.28 578.55 1894.31 581.612C1894.33 584.804 1896.85 587.191 1900.04 587.061C1903.07 586.932 1905.33 584.544 1905.3 581.508Z" fill="#E6F9FB"/>
<path d="M1920.62 583.17C1923.66 583.196 1926.04 580.938 1926.17 577.928C1926.3 574.736 1923.94 572.219 1920.75 572.167C1917.56 572.141 1915.13 574.606 1915.2 577.798C1915.26 580.86 1917.59 583.144 1920.62 583.17Z" fill="#E6F9FB"/>
<path d="M1779.14 625.652C1779.11 622.512 1776.6 620.098 1773.46 620.228C1770.5 620.332 1768.22 622.745 1768.25 625.73C1768.27 628.87 1770.79 631.283 1773.93 631.153C1776.88 631.023 1779.16 628.636 1779.14 625.652Z" fill="#E6F9FB"/>
<path d="M1883.55 584.622C1883.55 581.663 1881.16 579.25 1878.21 579.224C1875.12 579.172 1872.58 581.767 1872.71 584.855C1872.81 587.788 1875.3 590.123 1878.26 590.071C1881.19 590.02 1883.57 587.58 1883.55 584.622Z" fill="#E6F9FB"/>
<path d="M1656.04 718.605C1658.99 718.631 1661.43 716.27 1661.53 713.337C1661.61 710.249 1659.07 707.68 1655.98 707.758C1653.03 707.836 1650.67 710.275 1650.69 713.208C1650.69 716.166 1653.08 718.579 1656.04 718.605Z" fill="#E6F9FB"/>
<path d="M1856.4 593.888C1859.3 593.94 1861.85 591.397 1861.82 588.49C1861.79 585.584 1859.23 582.963 1856.35 583.17C1853.24 583.404 1851.4 585.22 1851.14 588.334C1850.9 591.241 1853.5 593.836 1856.4 593.888Z" fill="#E6F9FB"/>
<path d="M1673.98 692.837C1676.75 692.785 1679.14 690.294 1679.08 687.543C1679.03 684.766 1676.54 682.379 1673.8 682.431C1671.02 682.483 1668.64 684.974 1668.69 687.725C1668.74 690.501 1671.23 692.889 1673.98 692.837Z" fill="#E6F9FB"/>
<path d="M1834.91 587.193C1832.16 587.141 1829.67 589.528 1829.62 592.305C1829.57 595.056 1831.95 597.547 1834.73 597.599C1837.47 597.651 1839.96 595.263 1840.01 592.486C1840.07 589.736 1837.68 587.244 1834.91 587.193Z" fill="#E6F9FB"/>
<path d="M1718.68 658.789C1718.57 655.908 1715.82 653.443 1712.97 653.651C1710.22 653.858 1707.92 656.453 1708.05 659.152C1708.15 662.033 1710.9 664.498 1713.75 664.291C1716.47 664.083 1718.78 661.514 1718.68 658.789Z" fill="#E6F9FB"/>
<path d="M1752.69 624.431C1749.89 624.509 1747.56 627 1747.69 629.777C1747.82 632.58 1750.36 634.993 1753.11 634.682C1756.06 634.344 1757.77 632.554 1757.9 629.57C1758.03 626.767 1755.47 624.353 1752.69 624.431Z" fill="#E6F9FB"/>
<path d="M1598.79 772.271C1601.77 772.038 1603.64 770.533 1603.66 767.445C1603.69 764.408 1601.98 762.618 1598.92 762.566C1595.88 762.514 1594.09 764.253 1594.04 767.315C1593.99 770.403 1595.78 771.96 1598.79 772.271Z" fill="#E6F9FB"/>
<path d="M1621.53 742.558C1621.22 739.548 1619.63 737.758 1616.57 737.81C1613.54 737.861 1611.8 739.652 1611.83 742.688C1611.88 745.724 1613.67 747.463 1616.7 747.437C1619.79 747.385 1621.29 745.543 1621.53 742.558Z" fill="#E6F9FB"/>
<path d="M1818.05 596.405C1817.72 593.213 1816.16 591.423 1813.1 591.448C1810.07 591.5 1808.33 593.265 1808.36 596.327C1808.38 599.363 1810.17 601.076 1813.23 601.076C1816.32 601.076 1817.74 599.156 1818.05 596.405Z" fill="#E6F9FB"/>
<path d="M1696.4 662.319C1696.07 659.282 1694.61 657.466 1691.71 657.492C1688.83 657.492 1687.1 659.205 1687.1 662.085C1687.07 664.966 1688.78 666.678 1691.69 666.73C1694.61 666.756 1695.96 664.862 1696.4 662.319Z" fill="#E6F9FB"/>
<path d="M1585.9 793.215C1585.62 789.971 1584.09 788.155 1581 788.207C1577.94 788.259 1576.26 790.049 1576.31 793.111C1576.36 795.966 1578.05 797.627 1580.92 797.705C1584.04 797.783 1585.49 795.914 1585.9 793.215Z" fill="#E6F9FB"/>
<path d="M1639.13 716.711C1638.95 714.35 1637.55 712.611 1634.65 712.404C1631.9 712.196 1629.64 714.402 1629.77 717.153C1629.93 720.033 1631.53 721.642 1634.41 721.746C1637.03 721.824 1639.05 719.774 1639.13 716.711Z" fill="#E6F9FB"/>
<path d="M1735.84 633.489C1735.53 630.66 1734.1 628.844 1731.17 628.818C1728.29 628.792 1726.56 630.504 1726.53 633.385C1726.51 636.266 1728.19 638.004 1731.09 638.03C1734.02 638.082 1735.48 636.291 1735.84 633.489Z" fill="#E6F9FB"/>
<path d="M1562.88 813.766C1560.16 814.234 1558.55 815.791 1558.6 818.697C1558.65 821.448 1561.04 823.524 1563.76 823.135C1566.61 822.745 1568.12 820.955 1567.91 818.074C1567.68 815.194 1565.78 813.87 1562.88 813.766Z" fill="#E6F9FB"/>
<path d="M1657.28 690.501C1655.57 689.359 1653.94 687.464 1652.09 687.231C1649.53 686.893 1647.76 688.918 1647.84 691.617C1647.92 694.289 1649.73 696.262 1652.3 695.795C1654.14 695.457 1655.67 693.511 1657.33 692.291C1657.33 691.694 1657.31 691.098 1657.28 690.501Z" fill="#E6F9FB"/>
<path d="M1796.17 600.348C1795.78 597.338 1794.31 595.495 1791.4 595.573C1788.52 595.651 1786.84 597.442 1786.92 600.322C1786.99 602.995 1788.68 604.656 1791.38 604.708C1794.31 604.76 1795.71 602.891 1796.17 600.348Z" fill="#E6F9FB"/>
<path d="M1900.79 558.775C1899.05 557.737 1897.24 555.739 1895.63 555.894C1894.18 556.05 1892.1 558.412 1891.87 560.047C1891.48 562.616 1893.63 564.536 1896.23 563.991C1897.94 563.628 1899.31 561.759 1900.84 560.566C1900.81 559.943 1900.79 559.346 1900.79 558.775Z" fill="#E6F9FB"/>
<path d="M1770.35 610.002C1772.42 607.407 1774.31 606.032 1774.68 604.345C1775.25 601.75 1773.46 599.933 1770.76 599.803C1768.07 599.7 1766.12 601.386 1766.49 604.007C1766.74 605.72 1768.51 607.251 1770.35 610.002Z" fill="#E6F9FB"/>
<path d="M1922.49 555.143C1920.8 554.001 1919.09 551.925 1917.49 552.029C1916.03 552.107 1913.86 554.364 1913.52 555.973C1913 558.517 1915.05 560.541 1917.67 560.125C1919.38 559.84 1920.86 558.049 1922.44 556.934C1922.46 556.311 1922.49 555.74 1922.49 555.143Z" fill="#E6F9FB"/>
<path d="M1710.43 632.683C1706.93 633.488 1705.09 634.941 1705.69 637.406C1706.05 638.912 1707.97 640.78 1709.5 641.091C1711.99 641.61 1713.78 639.664 1713.33 637.147C1713.02 635.564 1711.44 634.163 1710.43 632.683Z" fill="#E6F9FB"/>
<path d="M1853.94 572.141C1854.82 570.454 1856.56 568.664 1856.3 567.159C1856.09 565.809 1853.81 564.019 1852.25 563.811C1849.71 563.5 1848.13 565.628 1848.78 568.093C1849.19 569.676 1850.93 570.896 1852.07 572.297C1852.72 572.245 1853.32 572.193 1853.94 572.141Z" fill="#E6F9FB"/>
<path d="M1873.46 558.958C1872.35 560.515 1870.61 561.968 1870.3 563.681C1869.83 566.146 1871.59 567.781 1874.19 567.833C1876.78 567.885 1878.62 566.354 1878.26 563.836C1878 562.124 1876.34 560.592 1875.3 558.984C1874.68 558.984 1874.08 558.984 1873.46 558.958Z" fill="#E6F9FB"/>
<path d="M1671.1 670.415C1672.03 668.884 1673.87 667.197 1673.64 665.848C1673.41 664.42 1671.15 662.318 1669.88 662.37C1668.58 662.422 1666.54 664.706 1666.41 666.133C1666.28 667.482 1668.27 669.014 1669.31 670.467C1669.91 670.467 1670.5 670.441 1671.1 670.415Z" fill="#E6F9FB"/>
<path d="M1594.17 741.989C1593.16 743.468 1591.22 745.051 1591.37 746.4C1591.53 747.827 1593.63 750.085 1594.92 750.111C1596.22 750.137 1598.4 747.983 1598.63 746.556C1598.84 745.206 1596.95 743.572 1595.99 742.04C1595.36 742.014 1594.77 741.989 1594.17 741.989Z" fill="#E6F9FB"/>
<path d="M1581.68 770.351C1580.17 769.365 1578.57 767.47 1577.22 767.626C1575.79 767.808 1574.6 769.962 1573.3 771.259C1574.6 772.557 1575.76 774.711 1577.22 774.892C1578.57 775.074 1580.17 773.154 1581.68 772.167C1581.68 771.571 1581.68 770.974 1581.68 770.351Z" fill="#E6F9FB"/>
<path d="M1831.2 565.341C1829.33 567.703 1827.23 569.234 1827.41 570.402C1827.65 571.907 1829.7 573.153 1830.97 574.502C1832.21 573.256 1834.31 572.14 1834.49 570.765C1834.65 569.442 1832.83 567.885 1831.2 565.341Z" fill="#E6F9FB"/>
<path d="M1618.13 721.201C1615.77 719.332 1614.24 717.23 1613.07 717.412C1611.57 717.646 1610.33 719.696 1608.98 720.967C1610.22 722.213 1611.34 724.315 1612.71 724.497C1614.03 724.652 1615.61 722.836 1618.13 721.201Z" fill="#E6F9FB"/>
<path d="M1565.52 796.769C1563.06 795.031 1561.43 793.033 1560.26 793.292C1558.76 793.603 1557.64 795.705 1556.37 797.055C1557.67 798.249 1558.91 800.273 1560.29 800.377C1561.63 800.454 1563.09 798.56 1565.52 796.769Z" fill="#E6F9FB"/>
<path d="M1754.3 607.77C1751.81 606.058 1750.15 604.085 1749.01 604.345C1747.51 604.682 1746.42 606.81 1745.15 608.16C1746.47 609.327 1747.74 611.351 1749.11 611.429C1750.44 611.507 1751.89 609.587 1754.3 607.77Z" fill="#E6F9FB"/>
<path d="M1547.27 822.123C1544.96 820.617 1543.36 818.853 1542.32 819.112C1540.94 819.476 1540.01 821.474 1538.9 822.745C1540.14 823.783 1541.38 825.6 1542.65 825.626C1543.87 825.678 1545.14 823.835 1547.27 822.123Z" fill="#E6F9FB"/>
<path d="M1814.27 574.606C1811.81 572.997 1810.38 571.311 1809.24 571.492C1807.99 571.674 1806.41 573.516 1806.18 574.814C1806.05 575.67 1808.07 577.668 1809.19 577.72C1810.46 577.746 1811.81 576.215 1814.27 574.606Z" fill="#E6F9FB"/>
<path d="M1635.55 695.51C1633.14 693.849 1631.74 692.136 1630.6 692.266C1629.36 692.422 1627.72 694.212 1627.49 695.536C1627.33 696.392 1629.33 698.442 1630.42 698.52C1631.69 698.572 1633.04 697.067 1635.55 695.51Z" fill="#E6F9FB"/>
<path d="M1692.41 641.013C1690.21 639.586 1688.78 637.977 1687.85 638.236C1686.58 638.574 1685.7 640.338 1684.66 641.506C1685.77 642.466 1686.86 644.101 1688.06 644.153C1689.14 644.205 1690.34 642.596 1692.41 641.013Z" fill="#E6F9FB"/>
<path d="M1727.13 607.329C1725.78 609.509 1724.35 610.78 1724.43 611.974C1724.48 612.986 1726.56 614.803 1727.26 614.595C1728.48 614.258 1729.93 612.701 1730.14 611.481C1730.29 610.547 1728.66 609.327 1727.13 607.329Z" fill="#E6F9FB"/>
<path d="M1791.92 578.317C1789.85 576.968 1788.58 575.514 1787.54 575.67C1786.45 575.826 1785.59 577.539 1784.63 578.551C1785.67 579.511 1786.63 581.146 1787.72 581.224C1788.78 581.327 1789.95 579.796 1791.92 578.317Z" fill="#E6F9FB"/>
<path d="M1648.44 665.616C1647.04 667.64 1645.56 668.859 1645.69 669.846C1645.85 670.91 1647.4 672.285 1648.54 672.519C1649.24 672.648 1651.03 670.91 1651.06 669.975C1651.08 668.859 1649.76 667.692 1648.44 665.616Z" fill="#E6F9FB"/>
<path d="M1591.61 728.285C1592.88 726.728 1594.17 725.846 1594.15 725.015C1594.12 724.133 1592.82 723.277 1592.07 722.394C1591.22 723.147 1589.79 723.77 1589.64 724.652C1589.45 725.482 1590.59 726.572 1591.61 728.285Z" fill="#E6F9FB"/>
<path d="M1556.27 778.553C1557.38 776.892 1558.6 775.906 1558.47 775.101C1558.34 774.245 1557.05 773.181 1556.11 772.973C1555.57 772.87 1554.12 774.297 1554.12 775.023C1554.12 775.958 1555.18 776.866 1556.27 778.553Z" fill="#E6F9FB"/>
<path d="M1770.14 582.573C1768.56 581.354 1767.65 580.082 1766.82 580.16C1765.97 580.238 1764.8 581.457 1764.57 582.392C1764.41 582.937 1765.76 584.468 1766.49 584.52C1767.39 584.571 1768.4 583.559 1770.14 582.573Z" fill="#E6F9FB"/>
<path d="M1573.87 746.917C1572.84 748.449 1571.54 749.564 1571.72 750.291C1571.98 751.303 1573.35 752.056 1574.24 752.912C1575.04 751.952 1576.31 751.07 1576.44 750.032C1576.54 749.253 1575.12 748.319 1573.87 746.917Z" fill="#E6F9FB"/>
<path d="M1891.95 541.338C1893.04 539.988 1894.31 539.028 1894.18 538.405C1893.94 537.471 1892.75 536.745 1891.95 535.94C1891.25 536.693 1890.03 537.419 1889.95 538.224C1889.87 539.002 1890.96 539.911 1891.95 541.338Z" fill="#E6F9FB"/>
<path d="M1916.86 534.485C1915.52 533.369 1914.58 532.072 1913.96 532.202C1913 532.409 1912.27 533.603 1911.47 534.381C1912.22 535.108 1912.9 536.328 1913.73 536.432C1914.5 536.509 1915.41 535.445 1916.86 534.485Z" fill="#E6F9FB"/>
<path d="M1745.75 819.674C1745.75 817.936 1744.35 816.534 1742.61 816.534C1740.88 816.534 1739.48 817.936 1739.48 819.674C1739.48 821.413 1740.88 822.814 1742.61 822.814C1744.35 822.814 1745.75 821.413 1745.75 819.674Z" fill="#07847F"/>
<path d="M1779.09 819.674C1779.09 817.936 1777.69 816.534 1775.96 816.534C1774.22 816.534 1772.82 817.936 1772.82 819.674C1772.82 821.413 1774.22 822.814 1775.96 822.814C1777.69 822.814 1779.09 821.413 1779.09 819.674Z" fill="#07847F"/>
<path d="M1812.41 819.674C1812.41 817.936 1811.01 816.534 1809.27 816.534C1807.54 816.534 1806.14 817.936 1806.14 819.674C1806.14 821.413 1807.54 822.814 1809.27 822.814C1811.01 822.814 1812.41 821.413 1812.41 819.674Z" fill="#07847F"/>
<path d="M1845.73 819.674C1845.73 817.936 1844.33 816.534 1842.59 816.534C1840.85 816.534 1839.45 817.936 1839.45 819.674C1839.45 821.413 1840.85 822.814 1842.59 822.814C1844.33 822.814 1845.73 821.413 1845.73 819.674Z" fill="#07847F"/>
<path d="M1879.04 819.674C1879.04 817.936 1877.64 816.534 1875.91 816.534C1874.17 816.534 1872.77 817.936 1872.77 819.674C1872.77 821.413 1874.17 822.814 1875.91 822.814C1877.64 822.814 1879.04 821.413 1879.04 819.674Z" fill="#07847F"/>
<path d="M1912.36 819.674C1912.36 817.936 1910.96 816.534 1909.22 816.534C1907.49 816.534 1906.08 817.936 1906.08 819.674C1906.08 821.413 1907.49 822.814 1909.22 822.814C1910.96 822.814 1912.36 821.413 1912.36 819.674Z" fill="#07847F"/>
<path d="M1742.61 779.634C1744.35 779.634 1745.75 781.04 1745.75 782.774C1745.75 784.508 1744.35 785.914 1742.61 785.914C1740.88 785.914 1739.48 784.508 1739.48 782.774C1739.48 781.04 1740.88 779.634 1742.61 779.634Z" fill="#07847F"/>
<path d="M1775.93 779.634C1777.66 779.634 1779.07 781.04 1779.07 782.774C1779.07 784.508 1777.66 785.914 1775.93 785.914C1774.2 785.914 1772.79 784.508 1772.79 782.774C1772.79 781.04 1774.2 779.634 1775.93 779.634Z" fill="#07847F"/>
<path d="M1812.41 782.774C1812.41 781.035 1811.01 779.634 1809.27 779.634C1807.54 779.634 1806.14 781.035 1806.14 782.774C1806.14 784.513 1807.54 785.914 1809.27 785.914C1811.01 785.914 1812.41 784.513 1812.41 782.774Z" fill="#07847F"/>
<path d="M1845.73 782.774C1845.73 781.035 1844.33 779.634 1842.59 779.634C1840.85 779.634 1839.45 781.035 1839.45 782.774C1839.45 784.513 1840.85 785.914 1842.59 785.914C1844.33 785.914 1845.73 784.513 1845.73 782.774Z" fill="#07847F"/>
<path d="M1879.04 782.774C1879.04 781.035 1877.64 779.634 1875.91 779.634C1874.17 779.634 1872.77 781.035 1872.77 782.774C1872.77 784.513 1874.17 785.914 1875.91 785.914C1877.64 785.914 1879.04 784.513 1879.04 782.774Z" fill="#07847F"/>
<path d="M1909.22 779.634C1910.95 779.634 1912.36 781.04 1912.36 782.774C1912.36 784.508 1910.95 785.914 1909.22 785.914C1907.49 785.914 1906.08 784.508 1906.08 782.774C1906.08 781.04 1907.49 779.634 1909.22 779.634Z" fill="#07847F"/>
<path d="M1745.75 745.846C1745.75 744.107 1744.35 742.706 1742.61 742.706C1740.88 742.706 1739.48 744.107 1739.48 745.846C1739.48 747.585 1740.88 748.986 1742.61 748.986C1744.35 749.012 1745.75 747.611 1745.75 745.846Z" fill="#07847F"/>
<path d="M1779.09 745.846C1779.09 744.108 1777.69 742.706 1775.96 742.706C1774.22 742.706 1772.82 744.108 1772.82 745.846C1772.82 747.585 1774.22 748.986 1775.96 748.986C1777.69 748.986 1779.09 747.611 1779.09 745.846Z" fill="#07847F"/>
<path d="M1812.41 745.846C1812.41 744.107 1811.01 742.706 1809.27 742.706C1807.54 742.706 1806.14 744.107 1806.14 745.846C1806.14 747.585 1807.54 748.986 1809.27 748.986C1811.01 749.012 1812.41 747.611 1812.41 745.846Z" fill="#07847F"/>
<path d="M1845.73 745.846C1845.73 744.107 1844.33 742.706 1842.59 742.706C1840.85 742.706 1839.45 744.107 1839.45 745.846C1839.45 747.585 1840.85 748.986 1842.59 748.986C1844.33 749.012 1845.73 747.611 1845.73 745.846Z" fill="#07847F"/>
<path d="M1879.04 745.846C1879.04 744.107 1877.64 742.706 1875.91 742.706C1874.17 742.706 1872.77 744.107 1872.77 745.846C1872.77 747.585 1874.17 748.986 1875.91 748.986C1877.64 749.012 1879.04 747.611 1879.04 745.846Z" fill="#07847F"/>
<path d="M1912.36 745.846C1912.36 744.107 1910.96 742.706 1909.22 742.706C1907.49 742.706 1906.08 744.107 1906.08 745.846C1906.08 747.585 1907.49 748.986 1909.22 748.986C1910.96 749.012 1912.36 747.611 1912.36 745.846Z" fill="#07847F"/>
<path d="M1742.61 705.804C1744.35 705.804 1745.75 707.21 1745.75 708.944C1745.75 710.678 1744.35 712.084 1742.61 712.084C1740.88 712.084 1739.48 710.678 1739.48 708.944C1739.48 707.21 1740.88 705.804 1742.61 705.804Z" fill="#07847F"/>
<path d="M1775.93 705.804C1777.66 705.804 1779.07 707.21 1779.07 708.944C1779.07 710.678 1777.66 712.084 1775.93 712.084C1774.2 712.084 1772.79 710.678 1772.79 708.944C1772.79 707.21 1774.2 705.804 1775.93 705.804Z" fill="#07847F"/>
<path d="M1812.41 708.944C1812.41 707.205 1811.01 705.804 1809.27 705.804C1807.54 705.804 1806.14 707.205 1806.14 708.944C1806.14 710.682 1807.54 712.084 1809.27 712.084C1811.01 712.11 1812.41 710.682 1812.41 708.944Z" fill="#07847F"/>
<path d="M1845.73 708.944C1845.73 707.205 1844.33 705.804 1842.59 705.804C1840.85 705.804 1839.45 707.205 1839.45 708.944C1839.45 710.682 1840.85 712.084 1842.59 712.084C1844.33 712.11 1845.73 710.682 1845.73 708.944Z" fill="#07847F"/>
<path d="M1879.04 708.944C1879.04 707.205 1877.64 705.804 1875.91 705.804C1874.17 705.804 1872.77 707.205 1872.77 708.944C1872.77 710.682 1874.17 712.084 1875.91 712.084C1877.64 712.11 1879.04 710.682 1879.04 708.944Z" fill="#07847F"/>
<path d="M1909.22 705.804C1910.95 705.804 1912.36 707.21 1912.36 708.944C1912.36 710.678 1910.95 712.084 1909.22 712.084C1907.49 712.084 1906.08 710.678 1906.08 708.944C1906.08 707.21 1907.49 705.804 1909.22 705.804Z" fill="#07847F"/>
<path d="M1742.61 668.902C1744.35 668.902 1745.75 670.307 1745.75 672.042C1745.75 673.776 1744.35 675.182 1742.61 675.182C1740.88 675.182 1739.48 673.776 1739.48 672.042C1739.48 670.307 1740.88 668.902 1742.61 668.902Z" fill="#07847F"/>
<path d="M1775.93 668.902C1777.66 668.902 1779.07 670.307 1779.07 672.042C1779.07 673.776 1777.66 675.182 1775.93 675.182C1774.2 675.182 1772.79 673.776 1772.79 672.042C1772.79 670.307 1774.2 668.902 1775.93 668.902Z" fill="#07847F"/>
<path d="M1812.41 672.041C1812.41 670.303 1811.01 668.901 1809.27 668.901C1807.54 668.901 1806.14 670.303 1806.14 672.041C1806.14 673.78 1807.54 675.181 1809.27 675.181C1811.01 675.207 1812.41 673.78 1812.41 672.041Z" fill="#07847F"/>
<path d="M1845.73 672.041C1845.73 670.303 1844.33 668.901 1842.59 668.901C1840.85 668.901 1839.45 670.303 1839.45 672.041C1839.45 673.78 1840.85 675.181 1842.59 675.181C1844.33 675.207 1845.73 673.78 1845.73 672.041Z" fill="#07847F"/>
<path d="M1879.04 672.041C1879.04 670.303 1877.64 668.901 1875.91 668.901C1874.17 668.901 1872.77 670.303 1872.77 672.041C1872.77 673.78 1874.17 675.181 1875.91 675.181C1877.64 675.207 1879.04 673.78 1879.04 672.041Z" fill="#07847F"/>
<path d="M1909.22 668.902C1910.95 668.902 1912.36 670.307 1912.36 672.042C1912.36 673.776 1910.95 675.182 1909.22 675.182C1907.49 675.182 1906.08 673.776 1906.08 672.042C1906.08 670.307 1907.49 668.902 1909.22 668.902Z" fill="#07847F"/>
<path d="M1745.75 635.141C1745.75 633.402 1744.35 632.001 1742.61 632.001C1740.88 632.001 1739.48 633.402 1739.48 635.141C1739.48 636.88 1740.88 638.281 1742.61 638.281C1744.35 638.307 1745.75 636.88 1745.75 635.141Z" fill="#07847F"/>
<path d="M1779.09 635.139C1779.09 633.401 1777.69 631.999 1775.96 631.999C1774.22 631.999 1772.82 633.401 1772.82 635.139C1772.82 636.878 1774.22 638.279 1775.96 638.279C1777.69 638.279 1779.09 636.878 1779.09 635.139Z" fill="#07847F"/>
<path d="M1812.41 635.141C1812.41 633.402 1811.01 632.001 1809.27 632.001C1807.54 632.001 1806.14 633.402 1806.14 635.141C1806.14 636.88 1807.54 638.281 1809.27 638.281C1811.01 638.307 1812.41 636.88 1812.41 635.141Z" fill="#07847F"/>
<path d="M1845.73 635.141C1845.73 633.402 1844.33 632.001 1842.59 632.001C1840.85 632.001 1839.45 633.402 1839.45 635.141C1839.45 636.88 1840.85 638.281 1842.59 638.281C1844.33 638.307 1845.73 636.88 1845.73 635.141Z" fill="#07847F"/>
<path d="M1879.04 635.141C1879.04 633.402 1877.64 632.001 1875.91 632.001C1874.17 632.001 1872.77 633.402 1872.77 635.141C1872.77 636.88 1874.17 638.281 1875.91 638.281C1877.64 638.307 1879.04 636.88 1879.04 635.141Z" fill="#07847F"/>
<path d="M1912.36 635.141C1912.36 633.402 1910.96 632.001 1909.22 632.001C1907.49 632.001 1906.08 633.402 1906.08 635.141C1906.08 636.88 1907.49 638.281 1909.22 638.281C1910.96 638.307 1912.36 636.88 1912.36 635.141Z" fill="#07847F"/>
<path d="M1940.46 669.943C2043.12 669.943 2126.35 753.248 2126.35 856.01C2126.35 958.771 2043.12 1042.08 1940.46 1042.08C1837.79 1042.08 1754.56 958.771 1754.56 856.01C1754.56 753.248 1837.79 669.943 1940.46 669.943Z" stroke="#FF7D44" stroke-width="2" stroke-miterlimit="10"/>
</g>
<defs>
<clipPath id="clip0_303_163381">
<rect width="1920" height="830" fill="white"/>
</clipPath>
<clipPath id="clip1_303_163381">
<rect width="155" height="140" fill="white" transform="matrix(1 -8.74228e-08 -8.74228e-08 -1 -86 428)"/>
</clipPath>
<clipPath id="clip2_303_163381">
<rect width="155" height="140" fill="white" transform="matrix(1 -8.74228e-08 -8.74228e-08 -1 -86 528)"/>
</clipPath>
<clipPath id="clip3_303_163381">
<rect width="155" height="140" fill="white" transform="matrix(1 -8.74228e-08 -8.74228e-08 -1 -88 628)"/>
</clipPath>
</defs>
</svg>
