<svg width="130" height="130" viewBox="0 0 130 130" fill="none" xmlns="http://www.w3.org/2000/svg">
<g filter="url(#filter0_d_128_157196)">
<rect x="20" y="10" width="90" height="90" rx="15" fill="#FF7D44"/>
</g>
<g clip-path="url(#clip0_128_157196)">
<path d="M48.8458 42.2007C48.4737 42.2028 48.172 41.8974 48.1699 41.5205C48.1678 41.1436 48.4674 40.8361 48.8384 40.834H48.8458C49.2178 40.834 49.5184 41.1404 49.5184 41.5173C49.5184 41.8942 49.2178 42.2007 48.8458 42.2007Z" fill="white"/>
<path d="M50.7532 75.0001H79.5772C80.9572 74.999 82.1975 74.1417 82.7041 72.8369C83.2107 71.5333 82.8807 70.0459 81.8727 69.0882L79.2136 66.5652L81.9431 63.7934C82.4476 63.2809 82.7314 62.5859 82.7314 61.8609C82.7314 61.1359 82.4476 60.4408 81.9431 59.9283L76.2359 54.1296C75.1702 53.0982 73.4958 53.0982 72.4311 54.1296L71.0048 55.5785L69.4472 57.1608C69.2128 57.4043 68.8355 57.432 68.5685 57.2249C66.9205 55.9725 65.3512 54.6154 63.8703 53.1623C62.4398 51.6579 61.1029 50.0638 59.87 48.3886C59.6682 48.1184 59.6966 47.7383 59.9341 47.5002L61.4918 45.9179L62.9181 44.469C63.9681 43.4013 63.9681 41.6716 62.9181 40.6039L57.2108 34.8009C56.1451 33.7695 54.4708 33.7695 53.405 34.8009L51.9777 36.2498L49.5991 38.6671C49.3364 38.934 49.3364 39.3664 49.5991 39.6333C49.8619 39.9003 50.2886 39.9003 50.5514 39.6323L52.4538 37.6987L60.0634 45.4299L58.9808 46.5297C58.2714 47.2536 58.1925 48.396 58.7958 49.2128C60.0666 50.9382 61.4424 52.5804 62.917 54.1286C64.441 55.6255 66.0575 57.0242 67.755 58.315C68.559 58.9268 69.6837 58.8468 70.3963 58.1271L71.4789 57.0263L79.0895 64.7576L77.7536 66.1157L77.1871 66.6912C74.1632 69.7609 67.5774 66.594 59.1122 57.9926C57.09 55.9639 55.2054 53.7986 53.4712 51.5105C52.6178 50.3756 51.84 49.1829 51.1421 47.9423C50.4473 46.7389 49.9239 45.4427 49.5876 44.09C49.4993 43.7387 49.164 43.5123 48.8119 43.5657C48.629 43.5924 48.4661 43.697 48.3631 43.854C48.2601 44.0099 48.2275 44.2031 48.2738 44.3857C48.6364 45.8677 49.2071 47.2899 49.967 48.6085C50.6933 49.9036 51.5047 51.1475 52.3949 52.3327C54.166 54.672 56.0925 56.8864 58.1589 58.961C64.812 65.7185 70.3647 69.2046 74.3209 69.2046C75.7493 69.2441 77.1293 68.6846 78.1373 67.6564L78.2613 67.5304L80.9562 70.0887C81.5595 70.6642 81.756 71.5546 81.4512 72.3362C81.1475 73.1177 80.4044 73.6313 79.5772 73.6324H50.7532C50.0101 73.6324 49.4078 73.0206 49.4078 72.2657C49.4078 71.5108 50.0101 70.899 50.7532 70.899H59.4979C60.9841 70.899 62.1886 69.6755 62.1886 68.1657C62.1886 66.656 60.9841 65.4324 59.4979 65.4324H52.7712C52.0281 65.4324 51.4259 64.8206 51.4259 64.0657V60.649C51.4259 60.2711 51.1242 59.9657 50.7532 59.9657C50.3811 59.9657 50.0805 60.2721 50.0805 60.649V64.0657C50.0805 65.5755 51.285 66.799 52.7712 66.799H59.4979C60.241 66.799 60.8433 67.4108 60.8433 68.1657C60.8433 68.9206 60.241 69.5324 59.4979 69.5324H50.7532C49.267 69.5324 48.0625 70.756 48.0625 72.2657C48.0625 73.7765 49.267 75.0001 50.7532 75.0001ZM53.4039 36.7335L54.3551 35.7672C54.888 35.2504 55.7257 35.2504 56.2586 35.7672L61.9658 41.5648C62.4913 42.0987 62.4913 42.9635 61.9658 43.4974L61.0146 44.4637L53.4039 36.7335ZM72.4301 56.0611L73.3813 55.0948C73.9142 54.5781 74.7518 54.5781 75.2847 55.0948L80.9919 60.8936C81.2442 61.1498 81.3861 61.4979 81.3861 61.8598C81.3861 62.2218 81.2442 62.5699 80.9919 62.8261L80.0407 63.7934L72.4301 56.0611Z" fill="white"/>
<path d="M71.6069 45.6165C71.7856 45.6165 71.9559 45.5439 72.082 45.4158L76.7907 40.6324C77.0461 40.3644 77.0419 39.9384 76.7823 39.6747C76.5227 39.411 76.1033 39.4078 75.8395 39.6662L71.1308 44.4495C70.9385 44.6449 70.8807 44.9385 70.9847 45.1937C71.0898 45.4499 71.3347 45.6165 71.6069 45.6165Z" fill="white"/>
<path d="M68.9149 43.5674C69.2869 43.5674 69.5875 43.261 69.5875 42.8841V36.7341C69.5875 36.3561 69.2869 36.0508 68.9149 36.0508C68.5428 36.0508 68.2422 36.3572 68.2422 36.7341V42.8841C68.2422 43.261 68.5438 43.5674 68.9149 43.5674Z" fill="white"/>
<path d="M72.9512 47.6677C72.9512 48.0457 73.2528 48.351 73.6238 48.351H79.6779C80.05 48.351 80.3506 48.0457 80.3506 47.6677C80.3506 47.2897 80.0489 46.9844 79.6779 46.9844H73.6238C73.2528 46.9844 72.9512 47.2897 72.9512 47.6677Z" fill="white"/>
</g>
<defs>
<filter id="filter0_d_128_157196" x="0" y="0" width="130" height="130" filterUnits="userSpaceOnUse" color-interpolation-filters="sRGB">
<feFlood flood-opacity="0" result="BackgroundImageFix"/>
<feColorMatrix in="SourceAlpha" type="matrix" values="0 0 0 0 0 0 0 0 0 0 0 0 0 0 0 0 0 0 127 0" result="hardAlpha"/>
<feOffset dy="10"/>
<feGaussianBlur stdDeviation="10"/>
<feComposite in2="hardAlpha" operator="out"/>
<feColorMatrix type="matrix" values="0 0 0 0 0.53776 0 0 0 0 0.594056 0 0 0 0 0.729167 0 0 0 0.2 0"/>
<feBlend mode="normal" in2="BackgroundImageFix" result="effect1_dropShadow_128_157196"/>
<feBlend mode="normal" in="SourceGraphic" in2="effect1_dropShadow_128_157196" result="shape"/>
</filter>
<clipPath id="clip0_128_157196">
<rect width="35" height="41" fill="white" transform="translate(48 34)"/>
</clipPath>
</defs>
</svg>
