<svg width="130" height="130" viewBox="0 0 130 130" fill="none" xmlns="http://www.w3.org/2000/svg">
<g filter="url(#filter0_d_128_157174)">
<rect x="20" y="10" width="90" height="90" rx="15" fill="#FF7D44"/>
</g>
<g clip-path="url(#clip0_128_157174)">
<path d="M56.25 48.1628H54.75C54.3363 48.1628 54 47.8285 54 47.4173C54 47.0062 54.3352 46.6719 54.75 46.6719H56.25C56.6648 46.6719 57 47.005 57 47.4173C57 47.8285 56.6637 48.1628 56.25 48.1628Z" fill="white"/>
<path d="M71.25 48.1628H59.25C58.8352 48.1628 58.5 47.8285 58.5 47.4173C58.5 47.0062 58.8363 46.6719 59.25 46.6719H71.25C71.6648 46.6719 72 47.005 72 47.4173C72 47.8285 71.6648 48.1628 71.25 48.1628Z" fill="white"/>
<path d="M46.5 49.6537C46.5 50.066 46.1637 50.3991 45.75 50.3991C45.3363 50.3991 45 50.0648 45 49.6537C45 49.2425 45.3363 48.9082 45.75 48.9082C46.1637 48.9082 46.5 49.2425 46.5 49.6537Z" fill="white"/>
<path d="M81.75 34C80.3543 33.9988 78.982 34.3529 77.7621 35.0262C77.3672 34.8421 76.9359 34.7455 76.5 34.7455H54C52.343 34.7455 51 36.0803 51 37.7273V39.2182C49.343 39.2182 48 40.553 48 42.2V43.6909C46.343 43.6909 45 45.0257 45 46.6727C45 47.0851 45.3363 47.4182 45.75 47.4182C46.1648 47.4182 46.5 47.0851 46.5 46.6727C46.5012 46.512 46.5293 46.3536 46.582 46.2022L61.0336 59.3455L46.5832 72.4876C46.5305 72.3362 46.5023 72.1778 46.5 72.0182V52.6364C46.5 52.224 46.1637 51.8909 45.75 51.8909C45.3363 51.8909 45 52.224 45 52.6364V72.0182C45 73.6652 46.343 75 48 75H82.5C84.157 75 85.5 73.6652 85.5 72.0182V49.495C88.8961 47.7734 90.6621 43.9623 89.7703 40.2781C88.8785 36.594 85.5621 33.9977 81.75 34ZM76.1051 36.2364C75.2133 37.068 74.5195 38.0872 74.073 39.2182H56.9613L53.7129 36.2655C53.8066 36.2468 53.9039 36.2364 54 36.2364H76.1051ZM52.5 37.7273C52.5023 37.5665 52.5305 37.4093 52.5832 37.2579L54.7395 39.2182H52.5V37.7273ZM73.643 40.7091C73.452 41.6933 73.452 42.7055 73.643 43.6909H53.9613L50.7129 40.7382C50.8078 40.7196 50.9039 40.7103 51 40.7091H73.643ZM49.5 42.2C49.5023 42.0404 49.5305 41.882 49.5832 41.7306L51.7395 43.6909H49.5V42.2ZM74.073 45.1818C74.8184 47.0629 76.2328 48.6063 78.048 49.5171L67.848 58.7969L67.2867 59.3105C66.1312 60.3507 64.3711 60.3507 63.2156 59.3105L47.7129 45.2098C47.8078 45.1911 47.9039 45.1818 48 45.1818H74.073ZM48 73.5091C47.9039 73.5091 47.8078 73.4986 47.7141 73.48L62.1434 60.36L62.2008 60.4124C63.9316 61.9709 66.5684 61.9709 68.2992 60.4124L68.3555 60.3611L82.7848 73.4811C82.691 73.4998 82.5949 73.5091 82.4988 73.5091H48ZM84 72.0182C83.9977 72.1778 83.9695 72.3362 83.9168 72.4876L69.4676 59.3455L79.616 50.1123C81.0516 50.506 82.5691 50.4955 84 50.0832V72.0182ZM81.75 48.9091C78.0223 48.9091 75 45.9051 75 42.2C75 38.4949 78.0223 35.4909 81.75 35.4909C85.4777 35.4909 88.5 38.4949 88.5 42.2C88.4953 45.9028 85.4754 48.9044 81.75 48.9091Z" fill="white"/>
<path d="M82.038 37.0391C81.7579 36.9238 81.4356 36.9878 81.22 37.201L79.72 38.6919C79.4364 38.9842 79.4399 39.449 79.7294 39.7367C80.0188 40.0244 80.4864 40.0279 80.7805 39.746L81.0009 39.527V46.6729C81.0009 47.0852 81.3372 47.4184 81.7509 47.4184C82.1645 47.4184 82.5009 47.0852 82.5009 46.6729V37.7274C82.5009 37.4258 82.318 37.1544 82.038 37.0391Z" fill="white"/>
</g>
<defs>
<filter id="filter0_d_128_157174" x="0" y="0" width="130" height="130" filterUnits="userSpaceOnUse" color-interpolation-filters="sRGB">
<feFlood flood-opacity="0" result="BackgroundImageFix"/>
<feColorMatrix in="SourceAlpha" type="matrix" values="0 0 0 0 0 0 0 0 0 0 0 0 0 0 0 0 0 0 127 0" result="hardAlpha"/>
<feOffset dy="10"/>
<feGaussianBlur stdDeviation="10"/>
<feComposite in2="hardAlpha" operator="out"/>
<feColorMatrix type="matrix" values="0 0 0 0 0.53776 0 0 0 0 0.594056 0 0 0 0 0.729167 0 0 0 0.2 0"/>
<feBlend mode="normal" in2="BackgroundImageFix" result="effect1_dropShadow_128_157174"/>
<feBlend mode="normal" in="SourceGraphic" in2="effect1_dropShadow_128_157174" result="shape"/>
</filter>
<clipPath id="clip0_128_157174">
<rect width="45" height="41" fill="white" transform="translate(45 34)"/>
</clipPath>
</defs>
</svg>
