<svg width="16" height="16" viewBox="0 0 16 16" fill="none" xmlns="http://www.w3.org/2000/svg">
<path d="M2.42479 2.53133C3.86033 1.09579 5.60348 0.378024 7.65425 0.378024C9.70502 0.378024 11.4482 1.09579 12.8837 2.53133C14.3192 3.96687 15.037 5.71002 15.037 7.76079C15.037 9.81156 14.3192 11.5547 12.8837 12.9902C11.4482 14.4258 9.70502 15.1436 7.65425 15.1436C5.60348 15.1436 3.86033 14.4258 2.42479 12.9902C0.989253 11.5547 0.271484 9.81156 0.271484 7.76079C0.271484 5.71002 0.989253 3.96687 2.42479 2.53133ZM12.3454 3.76179C11.7045 4.71027 10.615 5.53058 9.07697 6.22271C9.23078 6.55596 9.3974 6.9533 9.57684 7.41472C11.0124 7.28655 12.4223 7.26091 13.8066 7.33782C13.7297 5.97918 13.2426 4.78718 12.3454 3.76179ZM7.65425 1.60848C7.21846 1.60848 6.71859 1.67257 6.15463 1.80074C6.92366 2.56978 7.71834 3.68489 8.53864 5.14606C9.92291 4.5821 10.9355 3.87715 11.5763 3.03121C10.4228 2.08273 9.11542 1.60848 7.65425 1.60848ZM4.88571 2.30062C3.2451 3.14656 2.18126 4.46674 1.6942 6.26117H2.6555C4.32175 6.26117 5.87264 6.04327 7.30818 5.60748C6.56478 4.27448 5.75729 3.1722 4.88571 2.30062ZM1.50195 7.45317V7.76079C1.50195 9.3245 2.01464 10.6831 3.04002 11.8367C4.01414 10.0166 5.57785 8.658 7.73115 7.76079C7.85933 7.70952 8.03877 7.65825 8.26948 7.60698C8.11567 7.19683 7.9875 6.88921 7.88496 6.68414C6.34688 7.17119 4.5781 7.44036 2.5786 7.49163C2.47606 7.49163 2.29662 7.49163 2.04027 7.49163C1.78393 7.46599 1.60448 7.45317 1.50195 7.45317ZM7.65425 13.9131C8.44892 13.9131 9.17951 13.7849 9.84601 13.5286C9.71784 12.4519 9.52558 11.4394 9.26923 10.4909C9.16669 10.0551 8.96161 9.42704 8.654 8.60673C8.34638 8.68364 8.12849 8.76054 8.00032 8.83744C6.07772 9.70902 4.70627 10.9651 3.88596 12.6057C5.01389 13.4773 6.26998 13.9131 7.65425 13.9131ZM10.9611 12.9133C12.653 11.8111 13.5887 10.3242 13.7681 8.45292C12.2557 8.35039 10.9867 8.35039 9.96136 8.45292C10.2433 9.2476 10.3972 9.73465 10.4228 9.9141C10.6535 10.8113 10.8329 11.8111 10.9611 12.9133Z" fill="#1C3F39"/>
</svg>
