<svg width="140" height="41" viewBox="0 0 140 41" fill="none" xmlns="http://www.w3.org/2000/svg">
<g clip-path="url(#clip0_303_199096)">
<path fill-rule="evenodd" clip-rule="evenodd" d="M134.481 16.6659L127.541 4.75647L122.952 4.74569L129.925 16.7212L127.552 20.7368L116.023 0.752968L129.902 0.742188L139.169 16.7953L125.292 40.7139L120.571 40.7287L134.481 16.6659Z" fill="#FF7D44"/>
<path fill-rule="evenodd" clip-rule="evenodd" d="M108.764 4.73491L120.246 24.8185L113.308 36.7279L108.718 36.7387L115.692 24.7619L113.317 20.7476L101.789 40.7314L115.667 40.7422L124.934 24.6891L111.059 0.770486L106.345 0.742188L108.764 4.73491Z" fill="#FF7D44"/>
<path fill-rule="evenodd" clip-rule="evenodd" d="M2.59399 9.68262H6.1582L4.01429 25.4029H9.92589L9.51085 28.6841H0L2.59399 9.68262Z" fill="#FF7D44"/>
<path fill-rule="evenodd" clip-rule="evenodd" d="M19.5632 14.2891C20.811 14.2891 21.9456 14.5761 22.9644 15.1542C23.9885 15.7269 24.7822 16.5435 25.3508 17.6026C25.9195 18.6564 26.2025 19.8436 26.2025 21.1574C26.2025 23.3404 25.4222 25.1973 23.8645 26.7321C22.3027 28.2629 20.3758 29.0297 18.0769 29.0297C16.0785 29.0297 14.4857 28.426 13.2945 27.2213C12.1073 26.0125 11.5117 24.4332 11.5117 22.4847C11.5117 20.1292 12.3189 18.1753 13.9292 16.623C15.5408 15.0652 17.4152 14.2891 19.5632 14.2891ZM19.3126 17.5703C17.8963 17.5703 16.8115 18.0729 16.0569 19.0836C15.3023 20.0942 14.9277 21.1871 14.9277 22.3607C14.9277 23.4105 15.2363 24.2527 15.8535 24.8928C16.4666 25.5328 17.2872 25.8549 18.3154 25.8549C19.7707 25.8549 20.8824 25.3657 21.6465 24.3901C22.4092 23.4159 22.7892 22.3042 22.7892 21.051C22.7892 20.0187 22.4671 19.1806 21.819 18.5365C21.1735 17.8924 20.3353 17.5703 19.3126 17.5703Z" fill="#FF7D44"/>
<path fill-rule="evenodd" clip-rule="evenodd" d="M40.6983 14.6327H44.148L42.5512 25.9155C42.2426 28.1214 41.9286 29.5848 41.6025 30.3044C41.0945 31.4161 40.2388 32.3378 39.0395 33.0655C37.8402 33.7972 36.331 34.1637 34.5186 34.1637C33.0094 34.1637 31.6955 33.8767 30.5798 33.3081C29.4586 32.7354 28.6258 31.9983 28.0747 31.0981L31.1013 29.5498C32.0095 30.4715 33.1926 30.9351 34.6479 30.9351C35.4902 30.9351 36.2232 30.7855 36.8404 30.485C37.4575 30.1845 37.9386 29.7843 38.2822 29.2722C38.6258 28.7655 38.8684 28.0069 39.0099 27.0057C37.7311 28.1255 36.2798 28.686 34.6601 28.686C33.5308 28.686 32.4892 28.4085 31.5325 27.8519C30.5757 27.3008 29.8251 26.5192 29.2781 25.514C28.731 24.5033 28.4574 23.3876 28.4574 22.1573C28.4574 20.772 28.8145 19.4717 29.5287 18.2535C30.2429 17.0367 31.2185 16.0745 32.4488 15.3603C33.6791 14.6462 34.9673 14.2891 36.3081 14.2891C37.1193 14.2891 37.8564 14.4481 38.518 14.7607C39.1797 15.0787 39.8278 15.6083 40.4639 16.3535L40.6983 14.6327ZM36.4334 17.5433C35.1452 17.5433 34.055 17.9799 33.1738 18.8531C32.2871 19.7263 31.8464 20.803 31.8464 22.0778C31.8464 23.114 32.1779 23.9481 32.8342 24.5694C33.4918 25.196 34.369 25.5086 35.4726 25.5086C36.3014 25.5086 37.0654 25.3186 37.7661 24.9345C38.4682 24.5505 39.0234 23.9993 39.433 23.2852C39.844 22.571 40.0461 21.7988 40.0461 20.9741C40.0461 19.9905 39.7066 19.1752 39.0315 18.5216C38.3563 17.8694 37.4912 17.5433 36.4334 17.5433Z" fill="#FF7D44"/>
<path fill-rule="evenodd" clip-rule="evenodd" d="M49.5429 8.88965C50.1291 8.88965 50.6277 9.09717 51.0468 9.51625C51.4658 9.93533 51.6734 10.4339 51.6734 11.0201C51.6734 11.6063 51.4658 12.1048 51.0468 12.5239C50.6277 12.943 50.1291 13.1505 49.5429 13.1505C48.9567 13.1505 48.4582 12.943 48.0391 12.5239C47.62 12.1048 47.4125 11.6063 47.4125 11.0201C47.4125 10.4339 47.62 9.93533 48.0391 9.51625C48.4582 9.09717 48.9567 8.88965 49.5429 8.88965ZM47.1874 14.6328H50.6331L48.7142 28.6848H45.2686L47.1874 14.6328Z" fill="#FF7D44"/>
<path fill-rule="evenodd" clip-rule="evenodd" d="M61.6869 16.6076L60.0551 19.2366C59.632 18.61 59.19 18.1478 58.7278 17.8513C58.2642 17.5562 57.833 17.4107 57.4315 17.4107C57.1229 17.4107 56.8574 17.4942 56.6458 17.6667C56.4302 17.8392 56.3238 18.0332 56.3238 18.2488C56.3238 18.4564 56.4073 18.6585 56.5798 18.866C56.7429 19.0735 57.2374 19.4697 58.0581 20.0653C59.3719 21.0086 60.233 21.8157 60.652 22.4909C61.0671 23.166 61.2746 23.8977 61.2746 24.6873C61.2746 25.7236 60.8461 26.7073 59.9904 27.6384C59.1307 28.5642 57.891 29.0277 56.2631 29.0277C55.3239 29.0277 54.4682 28.8377 53.6961 28.4591C52.924 28.0804 52.0683 27.3878 51.1196 26.3771L53.2501 23.8977C54.2163 25.163 55.27 25.799 56.4127 25.799C56.8722 25.799 57.2334 25.6885 57.5069 25.4729C57.7764 25.2519 57.9125 24.9919 57.9125 24.6927C57.9125 24.4542 57.8115 24.2076 57.6039 23.9556C57.3964 23.6996 56.8318 23.2495 55.9141 22.5973C54.8469 21.8427 54.1138 21.1945 53.7082 20.6569C53.1396 19.8982 52.8566 19.1045 52.8566 18.2623C52.8566 17.0886 53.3026 16.1319 54.1933 15.3948C55.0841 14.6577 56.1338 14.2871 57.3519 14.2871C58.2036 14.2871 59.0108 14.4906 59.7775 14.8908C60.5456 15.2978 61.1803 15.8664 61.6869 16.6076Z" fill="#FF7D44"/>
<path fill-rule="evenodd" clip-rule="evenodd" d="M66.3148 9.3916H69.7604L69.0462 14.6321H71.2292L70.8141 17.6223H68.6352L67.1273 28.6841H63.6817L65.1909 17.6223H63.4971L63.8973 14.6321H65.6006L66.3148 9.3916Z" fill="#FF7D44"/>
<path fill-rule="evenodd" clip-rule="evenodd" d="M75.4687 8.88965C76.0549 8.88965 76.5535 9.09717 76.9725 9.51625C77.3916 9.93533 77.5991 10.4339 77.5991 11.0201C77.5991 11.6063 77.3916 12.1048 76.9725 12.5239C76.5535 12.943 76.0549 13.1505 75.4687 13.1505C74.8825 13.1505 74.3839 12.943 73.9649 12.5239C73.5458 12.1048 73.3382 11.6063 73.3382 11.0201C73.3382 10.4339 73.5458 9.93533 73.9649 9.51625C74.3839 9.09717 74.8825 8.88965 75.4687 8.88965ZM73.1132 14.6328H76.5588L74.64 28.6848H71.1943L73.1132 14.6328Z" fill="#FF7D44"/>
<path fill-rule="evenodd" clip-rule="evenodd" d="M92.7431 17.5528L89.823 19.1361C88.9943 18.0904 87.8826 17.5703 86.4879 17.5703C85.5486 17.5703 84.7145 17.7684 83.9909 18.1659C83.2673 18.5675 82.6892 19.1402 82.262 19.8948C81.8295 20.6494 81.6138 21.4431 81.6138 22.2853C81.6138 23.362 81.9534 24.2257 82.6366 24.8793C83.3158 25.5274 84.251 25.8535 85.4381 25.8535C87.0875 25.8535 88.3501 25.3024 89.2274 24.1947L91.94 26.1096C91.1773 27.0232 90.2192 27.7374 89.0819 28.2535C87.9391 28.7696 86.6684 29.0297 85.2657 29.0297C83.0773 29.0297 81.3524 28.43 80.0911 27.2253C78.8299 26.0206 78.1992 24.4332 78.1992 22.4578C78.1992 20.1993 78.9794 18.2724 80.5372 16.6796C82.0949 15.0868 84.1014 14.2891 86.5579 14.2891C89.319 14.2891 91.3834 15.3779 92.7431 17.5528Z" fill="#FF7D44"/>
<path fill-rule="evenodd" clip-rule="evenodd" d="M104.556 16.6076L102.924 19.2366C102.501 18.61 102.059 18.1478 101.596 17.8513C101.133 17.5562 100.7 17.4107 100.3 17.4107C99.9915 17.4107 99.7261 17.4942 99.5145 17.6667C99.2989 17.8392 99.1924 18.0332 99.1924 18.2488C99.1924 18.4564 99.276 18.6585 99.4485 18.866C99.6115 19.0735 100.106 19.4697 100.927 20.0653C102.241 21.0086 103.102 21.8157 103.521 22.4909C103.936 23.166 104.143 23.8977 104.143 24.6873C104.143 25.7236 103.715 26.7073 102.859 27.6384C101.999 28.5642 100.76 29.0277 99.1318 29.0277C98.1926 29.0277 97.3369 28.8377 96.5648 28.4591C95.7926 28.0804 94.9369 27.3878 93.9883 26.3771L96.1187 23.8977C97.0849 25.163 98.1387 25.799 99.2814 25.799C99.7409 25.799 100.102 25.6885 100.376 25.4729C100.645 25.2519 100.781 24.9919 100.781 24.6927C100.781 24.4542 100.68 24.2076 100.473 23.9556C100.265 23.6996 99.7005 23.2495 98.7828 22.5973C97.7155 21.8427 96.9825 21.1945 96.5769 20.6569C96.0082 19.8982 95.7252 19.1045 95.7252 18.2623C95.7252 17.0886 96.1713 16.1319 97.062 15.3948C97.9527 14.6577 99.0024 14.2871 100.221 14.2871C101.072 14.2871 101.879 14.4906 102.646 14.8908C103.414 15.2978 104.049 15.8664 104.556 16.6076Z" fill="#FF7D44"/>
<path d="M46.5759 31.8927H45.3483L44.7554 35.3235H43.7623L44.3592 31.8927H43.1519L43.2907 31.1084H46.712L46.5759 31.8927Z" fill="#FF7D44"/>
<path d="M48.5933 33.8311H48.0435L47.7834 35.3215H46.793L47.522 31.1064L49.0097 31.1091C49.4867 31.1091 49.8532 31.221 50.1106 31.4433C50.368 31.6657 50.4838 31.9702 50.4569 32.3556C50.4353 32.6601 50.3477 32.9121 50.1928 33.1116C50.0378 33.311 49.8222 33.4687 49.5446 33.5845L50.1119 35.2717V35.3215H49.0555L48.5933 33.8311ZM48.1769 33.0496L48.7563 33.055C48.914 33.055 49.0514 33.0159 49.1687 32.9391C49.2859 32.8623 49.3694 32.7558 49.4193 32.6211C49.4692 32.4863 49.484 32.357 49.4624 32.2303C49.4233 32.016 49.2872 31.9028 49.0514 31.8907L48.3804 31.888L48.1769 33.0496Z" fill="#FF7D44"/>
<path d="M53.4228 34.5325H52.0766L51.7033 35.3235H50.6118L52.8433 31.1084H53.7758L54.5547 35.3235H53.5238L53.4228 34.5325ZM52.4471 33.7509H53.3217L53.1357 32.2969L52.4471 33.7509Z" fill="#FF7D44"/>
<path d="M58.6857 35.3235H57.7276L56.7196 32.6634L56.2561 35.3235H55.2656L55.9946 31.1084H56.9622L57.9674 33.7684L58.4283 31.1084H59.4187L58.6857 35.3235Z" fill="#FF7D44"/>
<path d="M62.0239 34.1819C62.0657 33.9636 61.9485 33.7952 61.6709 33.6753L61.1965 33.4785C60.5309 33.1794 60.2142 32.7724 60.2465 32.2563C60.26 32.0205 60.3409 31.8116 60.4891 31.627C60.6373 31.4424 60.8435 31.2996 61.1063 31.1972C61.369 31.0947 61.6547 31.0462 61.966 31.0489C62.3824 31.057 62.7179 31.1783 62.9726 31.4141C63.2259 31.6499 63.3512 31.9653 63.3472 32.3614H62.3635C62.3689 32.1997 62.3352 32.069 62.2611 31.972C62.187 31.875 62.0644 31.8238 61.8946 31.8197C61.7288 31.8157 61.5819 31.8548 61.4539 31.9356C61.3259 32.0165 61.2518 32.1256 61.2275 32.2631C61.1912 32.4558 61.334 32.6148 61.6574 32.7374C61.9808 32.8614 62.2153 32.9678 62.3622 33.0554C62.823 33.3316 63.04 33.7036 63.0103 34.1725C62.9955 34.4151 62.9173 34.6293 62.7758 34.8126C62.6344 34.9958 62.439 35.1373 62.1897 35.2384C61.9404 35.3381 61.6587 35.3866 61.3488 35.3826C61.1211 35.3785 60.9095 35.3435 60.7141 35.2761C60.5187 35.2088 60.3516 35.1104 60.2128 34.981C59.9312 34.7209 59.7965 34.3773 59.8072 33.9529L60.8004 33.9555C60.7882 34.1712 60.83 34.3356 60.9243 34.446C61.0187 34.5565 61.1777 34.6131 61.4014 34.6131C61.5671 34.6131 61.7059 34.5754 61.8164 34.4986C61.9309 34.4231 61.9997 34.318 62.0239 34.1819Z" fill="#FF7D44"/>
<path d="M64.9507 33.8891L64.7014 35.3215H63.7109L64.44 31.1064L65.9546 31.1091C66.4235 31.1091 66.7927 31.2399 67.0622 31.4999C67.3317 31.76 67.4503 32.0982 67.4166 32.5119C67.3937 32.7949 67.3021 33.0415 67.1444 33.249C66.9868 33.4579 66.7766 33.6169 66.5178 33.726C66.2578 33.8365 65.9667 33.8904 65.6446 33.8904L64.9507 33.8891ZM65.0868 33.1075L65.6837 33.1129C65.9344 33.1075 66.1271 33.0253 66.2605 32.8677C66.3939 32.71 66.4464 32.516 66.4195 32.2855C66.4046 32.1669 66.3588 32.074 66.2847 32.0052C66.2106 31.9365 66.1122 31.8988 65.991 31.8907L65.2997 31.888L65.0868 33.1075Z" fill="#FF7D44"/>
<path d="M69.5986 35.3812C69.1607 35.3718 68.809 35.2262 68.5449 34.9473C68.2808 34.667 68.1312 34.2924 68.0962 33.8235C68.0773 33.5917 68.0948 33.3195 68.1514 33.0055C68.208 32.6915 68.3064 32.4032 68.4492 32.139C68.592 31.8749 68.7699 31.6553 68.9842 31.4788C69.3426 31.1836 69.7563 31.0408 70.2239 31.0502C70.5109 31.0556 70.7629 31.1217 70.9785 31.2483C71.1941 31.375 71.3666 31.5569 71.4946 31.7941C71.6226 32.0312 71.6994 32.3021 71.721 32.6053C71.7358 32.8195 71.7237 33.0634 71.6819 33.3357C71.6402 33.6092 71.5647 33.8693 71.4528 34.1172C71.3424 34.3652 71.1982 34.5835 71.023 34.7735C70.8478 34.9621 70.6403 35.113 70.4018 35.2235C70.1633 35.334 69.8951 35.3866 69.5986 35.3812ZM70.7279 32.5959C70.709 32.1134 70.5217 31.8628 70.166 31.8426C69.8924 31.8291 69.6647 31.9383 69.4855 32.1687C69.3062 32.3991 69.1877 32.74 69.1297 33.1888C69.0933 33.4664 69.0799 33.682 69.0893 33.8342C69.1082 34.3247 69.2982 34.5767 69.6566 34.5902C69.8924 34.6023 70.0945 34.5174 70.2643 34.3369C70.4341 34.1563 70.5567 33.8935 70.6322 33.5499C70.7077 33.2063 70.7387 32.8869 70.7279 32.5959Z" fill="#FF7D44"/>
<path d="M74.0327 33.8311H73.4829L73.2229 35.3215H72.2324L72.9614 31.1064L74.4491 31.1091C74.9261 31.1091 75.2927 31.221 75.55 31.4433C75.8074 31.6657 75.9233 31.9702 75.8963 32.3556C75.8748 32.6601 75.7872 32.9121 75.6322 33.1116C75.4773 33.311 75.2617 33.4687 74.9841 33.5845L75.5514 35.2717V35.3215H74.4949L74.0327 33.8311ZM73.6163 33.0496L74.1958 33.055C74.3534 33.055 74.4909 33.0159 74.6081 32.9391C74.7253 32.8623 74.8089 32.7558 74.8588 32.6211C74.9086 32.4863 74.9234 32.357 74.9019 32.2303C74.8628 32.016 74.7267 31.9028 74.4909 31.8907L73.8198 31.888L73.6163 33.0496Z" fill="#FF7D44"/>
<path d="M80.053 31.8927H78.8254L78.2325 35.3235H77.2393L77.8363 31.8927H76.6289L76.7677 31.1084H80.1891L80.053 31.8927Z" fill="#FF7D44"/>
<path d="M82.3969 34.5325H81.0507L80.6774 35.3235H79.5859L81.8174 31.1084H82.7499L83.5288 35.3235H82.4979L82.3969 34.5325ZM81.4213 33.7509H82.2958L82.1099 32.2969L81.4213 33.7509Z" fill="#FF7D44"/>
<path d="M87.7034 31.8927H86.4758L85.8829 35.3235H84.8897L85.4867 31.8927H84.2793L84.4181 31.1084H87.8395L87.7034 31.8927Z" fill="#FF7D44"/>
<path d="M88.9787 35.3235H87.9883L88.7213 31.1084H89.7091L88.9787 35.3235Z" fill="#FF7D44"/>
<path d="M91.7979 35.3812C91.3599 35.3718 91.0082 35.2262 90.7441 34.9473C90.48 34.667 90.3304 34.2924 90.2954 33.8235C90.2765 33.5917 90.294 33.3195 90.3506 33.0055C90.4072 32.6915 90.5056 32.4032 90.6484 32.139C90.7913 31.8749 90.9691 31.6553 91.1834 31.4788C91.5418 31.1836 91.9555 31.0408 92.4231 31.0502C92.7101 31.0556 92.9621 31.1217 93.1777 31.2483C93.3933 31.375 93.5658 31.5569 93.6938 31.7941C93.8232 32.0312 93.8987 32.3021 93.9202 32.6053C93.935 32.8195 93.9229 33.0634 93.8811 33.3357C93.8394 33.6092 93.7639 33.8693 93.6521 34.1172C93.5416 34.3652 93.3974 34.5835 93.2222 34.7735C93.047 34.9621 92.8395 35.113 92.601 35.2235C92.3625 35.334 92.0957 35.3866 91.7979 35.3812ZM92.9271 32.5959C92.9082 32.1134 92.7209 31.8628 92.3652 31.8426C92.0916 31.8291 91.8639 31.9383 91.6847 32.1687C91.5055 32.3991 91.3869 32.74 91.3289 33.1888C91.2925 33.4664 91.2791 33.682 91.2885 33.8342C91.3074 34.3247 91.4974 34.5767 91.8558 34.5902C92.0916 34.6023 92.2938 34.5174 92.4635 34.3369C92.6333 34.1563 92.756 33.8935 92.8314 33.5499C92.9069 33.2063 92.9392 32.8869 92.9271 32.5959Z" fill="#FF7D44"/>
<path d="M97.8517 35.3235H96.8936L95.8856 32.6634L95.4221 35.3235H94.4316L95.1606 31.1084H96.1282L97.1334 33.7684L97.5943 31.1084H98.5847L97.8517 35.3235Z" fill="#FF7D44"/>
</g>
<defs>
<clipPath id="clip0_303_199096">
<rect width="139.169" height="40" fill="white" transform="translate(0 0.742188)"/>
</clipPath>
</defs>
</svg>
