<svg width="124" height="125" viewBox="0 0 124 125" fill="none" xmlns="http://www.w3.org/2000/svg">
<path opacity="0.3" fill-rule="evenodd" clip-rule="evenodd" d="M61.5969 1.72852C95.616 1.72852 123.194 29.1136 123.194 62.8951C123.194 96.6765 95.616 124.062 61.5969 124.062C27.5778 124.062 -0.000123194 96.6765 -0.000123194 62.8951C-0.000123194 29.1136 27.5778 1.72852 61.5969 1.72852Z" fill="white"/>
<path opacity="0.4" fill-rule="evenodd" clip-rule="evenodd" d="M62.1329 11.2131C90.5315 11.2131 113.553 34.1128 113.553 62.361C113.553 90.6093 90.5315 113.509 62.1329 113.509C33.7344 113.509 10.7128 90.6093 10.7128 62.361C10.7128 34.1128 33.7344 11.2131 62.1329 11.2131Z" fill="white"/>
<path fill-rule="evenodd" clip-rule="evenodd" d="M61.5977 22.8204C83.7841 22.8204 101.77 40.7624 101.77 62.895C101.77 85.0277 83.7841 102.97 61.5977 102.97C39.4113 102.97 21.4257 85.0277 21.4257 62.895C21.4257 40.7624 39.4113 22.8204 61.5977 22.8204Z" fill="#FF7D44"/>
<path d="M58.29 50.3508C56.4657 49.2461 54.1738 50.6084 54.1738 52.7972V69.789C54.1738 71.9768 56.4657 73.3391 58.29 72.2354L72.9096 63.3835C74.4535 62.4488 74.4535 60.1374 72.9096 59.2028L58.29 50.3508Z" fill="white"/>
</svg>
