<svg width="53" height="38" viewBox="0 0 53 38" fill="none" xmlns="http://www.w3.org/2000/svg">
<path fill-rule="evenodd" clip-rule="evenodd" d="M17.7775 2.0759C27.2442 2.0759 34.9184 9.75031 34.9184 19.2169C34.9184 28.6834 27.2442 36.3579 17.7775 36.3579C8.31093 36.3579 0.636684 28.6834 0.636684 19.2169C0.636684 9.75031 8.31093 2.0759 17.7775 2.0759Z" fill="#FF7D44"/>
<path d="M23.4848 14.8278V22.5188C23.4848 22.8558 23.3606 23.1486 23.1122 23.397C22.8638 23.6453 22.5622 23.7695 22.2074 23.7695H14.543C14.1882 23.7695 13.8866 23.6453 13.6382 23.397C13.3898 23.1486 13.2656 22.8558 13.2656 22.5188V14.8278C13.2656 14.473 13.3898 14.1714 13.6382 13.923C13.8866 13.6746 14.1882 13.5504 14.543 13.5504H22.2074C22.5622 13.5504 22.8638 13.6746 23.1122 13.923C23.3606 14.1714 23.4848 14.473 23.4848 14.8278ZM19.8655 17.1697C19.4574 16.7439 18.9607 16.531 18.3752 16.531C17.7897 16.531 17.2841 16.7439 16.8583 17.1697C16.4502 17.5777 16.2462 18.0745 16.2462 18.66C16.2462 19.2454 16.4502 19.7511 16.8583 20.1769C17.2841 20.5849 17.7897 20.789 18.3752 20.789C18.9607 20.789 19.4574 20.5849 19.8655 20.1769C20.2913 19.7511 20.5042 19.2454 20.5042 18.66C20.5042 18.0745 20.2913 17.5777 19.8655 17.1697ZM22.6332 16.1052V14.8278C22.6332 14.5439 22.4912 14.402 22.2074 14.402H20.93C20.6461 14.402 20.5042 14.5439 20.5042 14.8278V16.1052C20.5042 16.389 20.6461 16.531 20.93 16.531H22.2074C22.4912 16.531 22.6332 16.389 22.6332 16.1052ZM22.234 22.9179C22.5001 22.9179 22.6332 22.776 22.6332 22.4921V17.8084H21.2493C21.3203 18.039 21.3558 18.3229 21.3558 18.66C21.3558 19.4938 21.0719 20.1946 20.5042 20.7623C19.9187 21.3478 19.209 21.6405 18.3752 21.6405C17.5591 21.6405 16.8583 21.3478 16.2728 20.7623C15.6873 20.1769 15.3946 19.4761 15.3946 18.66C15.3946 18.3938 15.439 18.11 15.5277 17.8084H14.1172V22.4921C14.1172 22.6163 14.1616 22.7228 14.2503 22.8115C14.339 22.8825 14.4454 22.9179 14.5696 22.9179H22.234Z" fill="white"/>
</svg>
