<svg width="40" height="26" viewBox="0 0 40 26" fill="none" xmlns="http://www.w3.org/2000/svg">
<path d="M2.08387 19.3305H5.70789C6.45052 17.7349 8.06308 16.6868 9.84963 16.6868C9.8666 16.6868 9.88358 16.6868 9.90055 16.6868C9.91752 16.6868 9.9345 16.6868 9.95147 16.6868C11.738 16.6868 13.3506 17.7307 14.0932 19.3305H22.2621C22.6271 19.3305 22.9241 19.0334 22.9241 18.6685V5.0637V2.28418H1.42188V18.6685C1.42188 19.0334 1.71893 19.3305 2.08387 19.3305ZM20.1149 4.51204C20.1149 4.1768 20.3864 3.90521 20.7174 3.90521C21.0484 3.90521 21.32 4.1768 21.32 4.51204V11.5054C21.32 11.8406 21.0484 12.1122 20.7174 12.1122C20.3864 12.1122 20.1149 11.8406 20.1149 11.5054V4.51204ZM3.04292 3.26868C3.04292 3.12016 3.16599 2.99709 3.31451 2.99709H10.779C10.9275 2.99709 11.0506 3.12016 11.0506 3.26868V3.93492C11.0506 4.08344 10.9275 4.2065 10.779 4.2065H3.31451C3.16599 4.2065 3.04292 4.08344 3.04292 3.93492V3.26868ZM3.04292 5.81905C3.04292 5.67052 3.16599 5.54746 3.31451 5.54746H10.779C10.9275 5.54746 11.0506 5.67052 11.0506 5.81905V6.48528C11.0506 6.63381 10.9275 6.75687 10.779 6.75687H3.31451C3.16599 6.75687 3.04292 6.63381 3.04292 6.48528V5.81905ZM3.04292 8.36942C3.04292 8.22089 3.16599 8.09783 3.31451 8.09783H10.779C10.9275 8.09783 11.0506 8.22089 11.0506 8.36942V9.03565C11.0506 9.18418 10.9275 9.30724 10.779 9.30724H3.31451C3.16599 9.30724 3.04292 9.18418 3.04292 9.03565V8.36942Z" fill="#FF7D44"/>
<path d="M3.31456 4.20648H10.779C10.9275 4.20648 11.0506 4.08342 11.0506 3.93489V3.26866C11.0506 3.12013 10.9275 2.99707 10.779 2.99707H3.31456C3.16603 2.99707 3.04297 3.12013 3.04297 3.26866V3.93489C3.04297 4.08342 3.16603 4.20648 3.31456 4.20648Z" fill="#1C3F39"/>
<path d="M3.31456 6.75726H10.779C10.9275 6.75726 11.0506 6.6342 11.0506 6.48567V5.81944C11.0506 5.67091 10.9275 5.54785 10.779 5.54785H3.31456C3.16603 5.54785 3.04297 5.67091 3.04297 5.81944V6.48567C3.04297 6.6342 3.16603 6.75726 3.31456 6.75726Z" fill="#1C3F39"/>
<path d="M3.31456 9.30706H10.779C10.9275 9.30706 11.0506 9.184 11.0506 9.03548V8.36924C11.0506 8.22072 10.9275 8.09766 10.779 8.09766H3.31456C3.16603 8.09766 3.04297 8.22072 3.04297 8.36924V9.03548C3.04297 9.184 3.16603 9.30706 3.31456 9.30706Z" fill="#1C3F39"/>
<path d="M20.7201 12.1123C21.0554 12.1123 21.3227 11.8407 21.3227 11.5055V4.5121C21.3227 4.17686 21.0511 3.90527 20.7201 3.90527C20.3891 3.90527 20.1133 4.17686 20.1133 4.5121V11.5055C20.1133 11.8407 20.3849 12.1123 20.7201 12.1123Z" fill="white"/>
<path d="M22.9368 2.17859C22.9368 1.81365 22.6398 1.5166 22.2748 1.5166H2.08387C1.71893 1.5166 1.42188 1.81365 1.42188 2.17859V2.28468H22.9368V2.17859Z" fill="white"/>
<path d="M30.411 23.6038C29.1677 23.6038 28.1534 22.6108 28.1195 21.376H12.1976C12.1594 22.6108 11.1494 23.6038 9.90604 23.6038C8.66267 23.6038 7.64845 22.6108 7.6145 21.376H1.21094V21.5203C1.21094 21.8852 1.50799 22.1822 1.87294 22.1822H6.60029L6.7573 22.5514C7.2835 23.8033 8.49717 24.6096 9.85511 24.6096C11.2131 24.6096 12.4267 23.799 12.9529 22.5514L13.1099 22.1822H27.2114L27.3684 22.5514C27.8946 23.8033 29.1082 24.6096 30.4662 24.6096C31.8241 24.6096 33.0378 23.799 33.564 22.5514L33.721 22.1822H38.1301C38.495 22.1822 38.7921 21.8852 38.7921 21.5203V21.376H32.7026C32.6686 22.6108 31.6544 23.6038 30.411 23.6038Z" fill="#FF7D44"/>
<path d="M38.1259 20.5402H37.5997H33.7762L33.6319 20.1371C33.1566 18.7961 31.8878 17.8965 30.4662 17.8965C29.0446 17.8965 27.7715 18.7961 27.3005 20.1371L27.1562 20.5402H24.8095H22.2718H13.2712H13.1651L13.0208 20.1371C12.554 18.8131 11.3064 17.9219 9.90604 17.9007C8.50565 17.9219 7.25804 18.8173 6.79125 20.1371L6.64697 20.5402H6.54088H2.08512H1.87294C1.50799 20.5402 1.21094 20.8373 1.21094 21.2022V21.3762H7.6145C7.6145 21.355 7.61026 21.3295 7.61026 21.3083C7.61026 20.0437 8.64145 19.0125 9.90604 19.0125C11.1706 19.0125 12.2018 20.0437 12.2018 21.3083C12.2018 21.3295 12.1976 21.355 12.1976 21.3762H28.1152C28.1152 21.355 28.111 21.3295 28.111 21.3083C28.111 20.0437 29.1422 19.0125 30.4068 19.0125C31.6714 19.0125 32.7026 20.0437 32.7026 21.3083C32.7026 21.3295 32.6983 21.355 32.6983 21.3762H38.7836V21.2022C38.7921 20.8373 38.495 20.5402 38.1259 20.5402Z" fill="#FF7D44"/>
<path d="M24.1445 7.01172V18.6687C24.1445 19.0337 24.4416 19.3307 24.8065 19.3307H26.3172C27.0599 17.7351 28.6724 16.687 30.459 16.687C32.2455 16.687 33.8581 17.7309 34.6007 19.3307H37.5924C37.9574 19.3307 38.2544 19.0337 38.2544 18.6687V14.5907C38.1865 14.3488 37.9022 13.7844 37.4906 13.0588H31.8891C30.9597 13.0588 30.2001 12.3416 30.2001 11.4589V8.18718C30.2001 7.97925 30.3656 7.81375 30.5736 7.81375H31.0361C31.244 7.81375 31.4095 7.97925 31.4095 8.18718V11.4589C31.4095 11.6711 31.6302 11.8494 31.8891 11.8494H36.7989C35.7889 10.1519 34.4861 8.12353 33.6502 7.01596C33.6459 7.01596 33.6374 7.01172 33.6332 7.01172H24.1445Z" fill="#FF7D44"/>
<path d="M9.90667 22.3944C10.505 22.3944 10.993 21.9064 10.993 21.308C10.993 20.7097 10.505 20.2217 9.90667 20.2217C9.30832 20.2217 8.82031 20.7097 8.82031 21.308C8.82031 21.9106 9.30832 22.3944 9.90667 22.3944Z" fill="white"/>
<path d="M9.90515 23.6032C11.1485 23.6032 12.1627 22.6102 12.1967 21.3754C12.1967 21.3542 12.2009 21.3287 12.2009 21.3075C12.2009 20.0429 11.1697 19.0117 9.90515 19.0117C8.64057 19.0117 7.60938 20.0429 7.60938 21.3075C7.60938 21.3287 7.61362 21.3542 7.61362 21.3754C7.65181 22.6102 8.66178 23.6032 9.90515 23.6032ZM9.90515 20.2211C10.5035 20.2211 10.9915 20.7091 10.9915 21.3075C10.9915 21.9058 10.5035 22.3938 9.90515 22.3938C9.30681 22.3938 8.8188 21.9058 8.8188 21.3075C8.8188 20.7091 9.30681 20.2211 9.90515 20.2211Z" fill="#1C3F39"/>
<path d="M30.4106 22.3944C31.0089 22.3944 31.4969 21.9064 31.4969 21.308C31.4969 20.7097 31.0089 20.2217 30.4106 20.2217C29.8122 20.2217 29.3242 20.7097 29.3242 21.308C29.3242 21.9106 29.8122 22.3944 30.4106 22.3944Z" fill="white"/>
<path d="M30.4091 23.6032C31.6524 23.6032 32.6666 22.6102 32.7006 21.3754C32.7006 21.3542 32.7048 21.3287 32.7048 21.3075C32.7048 20.0429 31.6736 19.0117 30.4091 19.0117C29.1445 19.0117 28.1133 20.0429 28.1133 21.3075C28.1133 21.3287 28.1175 21.3542 28.1175 21.3754C28.1557 22.6102 29.1657 23.6032 30.4091 23.6032ZM30.4091 20.2211C31.0074 20.2211 31.4954 20.7091 31.4954 21.3075C31.4954 21.9058 31.0074 22.3938 30.4091 22.3938C29.8107 22.3938 29.3227 21.9058 29.3227 21.3075C29.3227 20.7091 29.8107 20.2211 30.4091 20.2211Z" fill="#1C3F39"/>
<path d="M33.6459 7.01606C33.3786 6.66384 33.1579 6.40074 33.0094 6.27344H24.1445V7.01181H33.6289C33.6332 7.01181 33.6417 7.01181 33.6459 7.01606Z" fill="white"/>
<path d="M39.181 19.6614C39.3635 19.3729 39.4696 19.0334 39.4696 18.6684V14.548C39.4696 13.8732 37.5939 10.8094 36.7834 9.52361C33.9826 5.06365 33.5031 5.06365 33.1551 5.06365H24.146V2.17804C24.146 1.14686 23.3057 0.306641 22.2703 0.306641H2.0836C1.05241 0.306641 0.212179 1.14686 0.212179 2.17804V18.6642C0.212179 19.1013 0.364948 19.5002 0.615319 19.8184C0.237641 20.1664 0 20.6587 0 21.2061V21.5243C0 22.5555 0.840229 23.3957 1.87142 23.3957H5.81371C6.59877 24.8852 8.14343 25.8273 9.8536 25.8273C11.5595 25.8273 13.1042 24.8852 13.8935 23.3957H26.4248C27.2098 24.8852 28.7545 25.8273 30.4647 25.8273C32.1706 25.8273 33.7153 24.8852 34.5046 23.3957H38.1286C39.1598 23.3957 40 22.5555 40 21.5243V21.2061C40 20.5653 39.6732 19.9967 39.181 19.6614ZM24.146 7.01143V6.27306H33.0151C33.1636 6.40036 33.3843 6.66346 33.6516 7.01568C34.4918 8.12748 35.7904 10.1517 36.8003 11.8491H31.8905C31.6317 11.8491 31.411 11.6708 31.411 11.4587V8.18689C31.411 7.97896 31.2455 7.81346 31.0376 7.81346H30.575C30.3671 7.81346 30.2016 7.97896 30.2016 8.18689V11.4587C30.2016 12.3413 30.9569 13.0585 31.8905 13.0585H37.5005C37.9079 13.7884 38.1965 14.3528 38.2644 14.5904V18.6684C38.2644 19.0334 37.9673 19.3304 37.6024 19.3304H34.6106C33.868 17.7349 32.2555 16.6867 30.4689 16.6867C28.6824 16.6867 27.0698 17.7306 26.3272 19.3304H24.8165C24.4515 19.3304 24.1545 19.0334 24.1545 18.6684V7.01143H24.146ZM1.4216 2.28413V2.17804C1.4216 1.8131 1.71865 1.51605 2.0836 1.51605H22.2703C22.6353 1.51605 22.9323 1.8131 22.9323 2.17804V2.28413V5.06365V18.6684C22.9323 19.0334 22.6353 19.3304 22.2703 19.3304H14.1014C13.3588 17.7349 11.7462 16.6867 9.95969 16.6867C9.94271 16.6867 9.92574 16.6867 9.90876 16.6867C9.89179 16.6867 9.87481 16.6867 9.85784 16.6867C8.07129 16.6867 6.45873 17.7306 5.7161 19.3304H2.0836C1.71865 19.3304 1.4216 19.0334 1.4216 18.6684V2.28413ZM38.7906 21.3801V21.5243C38.7906 21.8893 38.4935 22.1863 38.1286 22.1863H33.7153L33.5582 22.5555C33.032 23.8074 31.8184 24.6136 30.4604 24.6136C29.1025 24.6136 27.8888 23.8031 27.3626 22.5555L27.2056 22.1863H13.1084L12.9514 22.5555C12.4252 23.8074 11.2115 24.6136 9.8536 24.6136C8.49565 24.6136 7.28199 23.8031 6.75578 22.5555L6.59877 22.1863H1.87142C1.50647 22.1863 1.20942 21.8893 1.20942 21.5243V21.3801V21.2061C1.20942 20.8411 1.50647 20.5441 1.87142 20.5441H2.0836H6.5436H6.64969L6.78973 20.1367C7.25652 18.8127 8.50414 17.9216 9.90452 17.9004C11.3049 17.9216 12.5525 18.817 13.0193 20.1367L13.1636 20.5398H13.2697H22.2746H24.8122H27.1589L27.3032 20.1367C27.7785 18.7957 29.0516 17.8961 30.4689 17.8961C31.8905 17.8961 33.1636 18.7957 33.6346 20.1367L33.7789 20.5398H37.6024H38.1328C38.4978 20.5398 38.7948 20.8369 38.7948 21.2018V21.3801H38.7906Z" fill="#1C3F39"/>
</svg>
