<svg width="185" height="41" viewBox="0 0 185 41" fill="none" xmlns="http://www.w3.org/2000/svg">
<path d="M184.314 13.9416L178.633 11.2744L171.119 18.2714L184.314 13.9416Z" fill="#798393"/>
<path d="M171.12 18.2712L168.969 22.3482L184.314 13.9414L171.12 18.2712Z" fill="#798393"/>
<path d="M168.969 22.3485L171.12 18.2715L135.394 40.7417L168.969 22.3485Z" fill="#798393"/>
<path d="M171.12 18.272L159.542 18.2139C151.492 25.7233 143.443 33.2327 135.394 40.7422L171.12 18.272Z" fill="#798393"/>
<path d="M175.57 9.83691L159.542 18.2135L171.119 18.2716L175.57 9.83691Z" fill="#798393"/>
<path d="M171.119 18.2716L178.633 11.2746L175.57 9.83691L171.119 18.2716Z" fill="#798393"/>
<path d="M170.39 9.89615L150.891 0.742188L164.103 9.83728L170.39 9.89615Z" fill="#798393"/>
<path d="M150.891 0.742188L155.753 10.952C156.936 13.4343 156.373 16.3965 154.362 18.2728L164.103 9.83728L150.891 0.742188Z" fill="#798393"/>
<path d="M164.103 9.83691L154.362 18.2716L170.39 9.89578L164.103 9.83691Z" fill="#798393"/>
<path d="M26.0269 10.8622H37.0806L37.2932 15.2837H36.9106C36.3862 13.7532 35.7769 12.7116 35.0825 12.1589C34.4022 11.6062 33.3819 11.3298 32.0214 11.3298H31.4262V18.2384H32.3828C33.063 18.2384 33.6299 17.9904 34.0834 17.4944C34.5369 16.9984 34.8486 16.3182 35.0187 15.4537H35.3375V21.7458H34.9762C34.7494 20.683 34.4306 19.9248 34.0196 19.4713C33.6228 19.0178 33.0772 18.7911 32.3828 18.7911H31.4262V25.2745H34.0621V25.7422H26.0269V25.2745H27.2811V11.3298H26.0269V10.8622ZM38.6068 10.8622H46.2594V11.3298H44.0061V25.2745H44.7714C45.976 25.2745 46.9325 24.9061 47.6411 24.1692C48.3639 23.4322 49.0937 22.2985 49.8306 20.768H50.277L49.8731 25.7422H38.6068V25.2745H39.861V11.3298H38.6068V10.8622ZM57.5602 17.8558L60.5787 11.2023H58.4318V10.8622H62.6194V11.2023H61.2165L58.0066 18.3022V25.3383H59.3033V25.7422H52.5648V25.3383H53.8615V18.7061L50.2478 11.2023H49.2487V10.8622H56.051V11.2023H54.6693L57.5602 17.8558ZM63.1854 10.8622H74.2391L74.4517 15.2837H74.0691C73.5447 13.7532 72.9353 12.7116 72.2409 12.1589C71.5607 11.6062 70.5404 11.3298 69.1799 11.3298H68.5847V18.2384H69.5413C70.2215 18.2384 70.7884 17.9904 71.2419 17.4944C71.6953 16.9984 72.0071 16.3182 72.1772 15.4537H72.496V21.7458H72.1347C71.9079 20.683 71.5891 19.9248 71.1781 19.4713C70.7813 19.0178 70.2357 18.7911 69.5413 18.7911H68.5847V25.2745H71.2206V25.7422H63.1854V25.2745H64.4396V11.3298H63.1854V10.8622ZM82.3846 25.3383L80.8328 20.7468H76.6239L74.9871 25.3383H76.5814V25.7422H73.329V25.3383H74.3281L79.7487 10.7346H81.4918L86.8486 25.3383H87.8264V25.7422H80.8753V25.3383H82.3846ZM78.8134 14.7097L76.8152 20.2791H80.6628L78.8134 14.7097ZM94.6621 25.5084C95.3707 25.5084 95.9942 25.317 96.5327 24.9344C97.0854 24.5518 97.3617 23.9778 97.3617 23.2126C97.3617 22.4332 97.0641 21.838 96.4689 21.427C95.8879 21.016 95.0518 20.6617 93.9606 20.3641C92.8836 20.0524 92.0971 19.7831 91.6011 19.5564C91.1192 19.3296 90.6587 19.032 90.2193 18.6636C89.3407 17.9266 88.9014 16.7858 88.9014 15.2412C88.9014 13.9799 89.3478 12.8958 90.2406 11.9888C91.1476 11.0818 92.3805 10.6284 93.9393 10.6284C94.6904 10.6284 95.4699 10.7417 96.2776 10.9685C97.0996 11.181 97.6097 11.2873 97.8081 11.2873C98.0065 11.2873 98.1837 11.1456 98.3396 10.8622H98.5734L98.7222 15.1561H98.3821C97.7019 13.9232 96.9862 12.9383 96.2351 12.2014C95.4982 11.4503 94.6904 11.0748 93.8118 11.0748C92.9473 11.0748 92.2742 11.2802 91.7924 11.6912C91.3105 12.088 91.0696 12.6265 91.0696 13.3068C91.0696 13.9728 91.3531 14.4901 91.9199 14.8585C92.5009 15.2128 93.2095 15.5033 94.0456 15.7301C94.8817 15.9568 95.4273 16.1127 95.6824 16.1977C95.9517 16.2828 96.2776 16.4032 96.6603 16.5591C97.0571 16.7008 97.3759 16.8567 97.6168 17.0268C97.8719 17.1826 98.1341 17.3881 98.4033 17.6432C98.6868 17.8841 98.9064 18.1534 99.0623 18.451C99.4449 19.1312 99.6363 19.939 99.6363 20.8743C99.6363 22.4048 99.1544 23.6377 98.1908 24.573C97.2413 25.4942 95.9871 25.9548 94.4283 25.9548C93.6205 25.9548 92.6923 25.8485 91.6436 25.6359C90.6091 25.4233 90.0351 25.317 89.9217 25.317C89.7233 25.317 89.532 25.5296 89.3478 25.9548H89.0502L88.8376 20.8956H89.199C89.8225 22.1285 90.6161 23.2055 91.5798 24.1266C92.5576 25.0478 93.5851 25.5084 94.6621 25.5084ZM113.064 10.8622L113.277 16.1977H112.873C112.249 14.3129 111.697 13.0304 111.215 12.3502C110.733 11.6558 110.039 11.3086 109.132 11.3086H108.876V25.2958H110.683V25.7422H102.924V25.2958H104.731V11.3086H104.455C103.548 11.3086 102.847 11.67 102.351 12.3927C101.855 13.1013 101.309 14.3696 100.714 16.1977H100.31L100.522 10.8622H113.064ZM114.501 10.8622H125.555L125.768 15.0711H125.385C124.79 13.6398 124.166 12.662 123.515 12.1376C122.863 11.5991 121.906 11.3298 120.645 11.3298H119.901V17.8983H120.624C121.29 17.8983 121.849 17.6503 122.303 17.1543C122.756 16.6441 123.075 15.9639 123.259 15.1136H123.578V21.4057H123.217C122.962 20.3429 122.615 19.5847 122.175 19.1312C121.75 18.6777 121.162 18.451 120.411 18.451H119.901V25.2745H120.709C122.012 25.2745 123.118 24.8848 124.025 24.1054C124.946 23.326 125.576 22.3269 125.917 21.1081H126.342L126.172 25.7422H114.501V25.2745H115.756V11.3298H114.501V10.8622ZM134.292 18.2172H133.166V25.3383H134.547V25.7422H127.639V25.3383H129.021V11.2661H127.639V10.8622H134.059C135.901 10.8622 137.205 10.9614 137.97 11.1598C138.749 11.344 139.295 11.5708 139.607 11.84C140.287 12.3927 140.627 13.2713 140.627 14.4759C140.627 15.6805 140.329 16.5449 139.734 17.0693C139.139 17.5794 138.232 17.8841 137.013 17.9833V18.0471C138.161 18.203 138.962 18.5431 139.415 19.0674C139.869 19.5918 140.096 20.4704 140.096 21.7033V22.83C140.096 23.5669 140.131 24.0629 140.202 24.318C140.287 24.573 140.457 24.7006 140.712 24.7006C140.967 24.7006 141.166 24.5872 141.307 24.3605C141.463 24.1196 141.605 23.6236 141.732 22.8725L142.094 22.915C141.938 24.1196 141.662 24.9273 141.265 25.3383C140.882 25.7493 140.11 25.9548 138.948 25.9548C137.786 25.9548 136.957 25.6855 136.461 25.147C135.979 24.5943 135.738 23.5669 135.738 22.0647V20.5129C135.738 19.7193 135.632 19.1383 135.419 18.7698C135.221 18.4014 134.845 18.2172 134.292 18.2172ZM133.166 11.2661V17.8133H133.846C134.654 17.8133 135.249 17.5653 135.632 17.0693C136.028 16.5733 136.227 15.7655 136.227 14.646V14.0295C136.227 12.91 136.035 12.173 135.653 11.8188C135.284 11.4503 134.689 11.2661 133.867 11.2661H133.166Z" fill="#798393"/>
</svg>
