<svg width="14" height="14" viewBox="0 0 14 14" fill="none" xmlns="http://www.w3.org/2000/svg">
<path d="M13.8905 1.78914V11.667C13.8905 12.0999 13.731 12.4759 13.412 12.7949C13.093 13.1139 12.7057 13.2734 12.2499 13.2734H2.40624C1.95051 13.2734 1.56315 13.1139 1.24414 12.7949C0.925129 12.4759 0.765625 12.0999 0.765625 11.667V1.78914C0.765625 1.33341 0.925129 0.946043 1.24414 0.627034C1.56315 0.308026 1.95051 0.148522 2.40624 0.148522H12.2499C12.7057 0.148522 13.093 0.308026 13.412 0.627034C13.731 0.946043 13.8905 1.33341 13.8905 1.78914ZM9.24213 4.79693C8.71805 4.25006 8.08003 3.97662 7.32808 3.97662C6.57613 3.97662 5.92672 4.25006 5.37985 4.79693C4.85577 5.32101 4.59373 5.95903 4.59373 6.71098C4.59373 7.46293 4.85577 8.11234 5.37985 8.65921C5.92672 9.18329 6.57613 9.44534 7.32808 9.44534C8.08003 9.44534 8.71805 9.18329 9.24213 8.65921C9.789 8.11234 10.0624 7.46293 10.0624 6.71098C10.0624 5.95903 9.789 5.32101 9.24213 4.79693ZM12.7968 3.42975V1.78914C12.7968 1.42456 12.6145 1.24226 12.2499 1.24226H10.6093C10.2447 1.24226 10.0624 1.42456 10.0624 1.78914V3.42975C10.0624 3.79433 10.2447 3.97662 10.6093 3.97662H12.2499C12.6145 3.97662 12.7968 3.79433 12.7968 3.42975ZM12.2841 12.1797C12.6259 12.1797 12.7968 11.9974 12.7968 11.6328V5.61724H11.0195C11.1106 5.91346 11.1562 6.27804 11.1562 6.71098C11.1562 7.78194 10.7916 8.682 10.0624 9.41116C9.31049 10.1631 8.39904 10.5391 7.32808 10.5391C6.27991 10.5391 5.37985 10.1631 4.6279 9.41116C3.87596 8.65921 3.49998 7.75915 3.49998 6.71098C3.49998 6.36919 3.55695 6.0046 3.67088 5.61724H1.85937V11.6328C1.85937 11.7923 1.91633 11.929 2.03027 12.043C2.1442 12.1341 2.28091 12.1797 2.44042 12.1797H12.2841Z" fill="#1C3F39"/>
</svg>
