<svg width="36" height="36" viewBox="0 0 36 36" fill="none" xmlns="http://www.w3.org/2000/svg">
<circle cx="18.1349" cy="17.6017" r="17.5919" fill="#FF7D44"/>
<path d="M14.2349 23.3252V21.8212L18.9069 17.0852C19.1309 16.8505 19.3069 16.6319 19.4349 16.4292C19.5736 16.2265 19.6696 16.0292 19.7229 15.8372C19.7869 15.6345 19.8189 15.4319 19.8189 15.2292C19.8189 14.8132 19.6429 14.4665 19.2909 14.1892C18.9496 13.9119 18.5122 13.7732 17.9789 13.7732C17.4669 13.7732 16.9922 13.8799 16.5549 14.0932C16.1176 14.2959 15.6376 14.6479 15.1149 15.1492L13.9309 13.7092C14.5602 13.1225 15.2162 12.6852 15.8989 12.3972C16.5816 12.0985 17.2962 11.9492 18.0429 11.9492C18.8002 11.9492 19.4669 12.0825 20.0429 12.3492C20.6189 12.6159 21.0669 12.9839 21.3869 13.4532C21.7069 13.9225 21.8669 14.4719 21.8669 15.1012C21.8669 15.4639 21.8136 15.8052 21.7069 16.1252C21.6109 16.4452 21.4509 16.7705 21.2269 17.1012C21.0029 17.4212 20.7042 17.7679 20.3309 18.1412L16.9389 21.5492L22.0429 21.5332V23.3252H14.2349Z" fill="white"/>
</svg>
