<svg width="36" height="36" viewBox="0 0 36 36" fill="none" xmlns="http://www.w3.org/2000/svg">
<circle cx="18.1349" cy="17.6017" r="17.5919" fill="#FF7D44"/>
<path d="M17.8912 23.5012C17.0272 23.5012 16.2218 23.3519 15.4752 23.0532C14.7392 22.7439 14.1205 22.3119 13.6192 21.7572L15.0272 20.4452C15.4538 20.9039 15.8752 21.2239 16.2912 21.4052C16.7178 21.5759 17.2405 21.6612 17.8592 21.6612C18.3072 21.6612 18.6965 21.5972 19.0272 21.4692C19.3685 21.3305 19.6298 21.1385 19.8112 20.8932C20.0032 20.6479 20.0992 20.3652 20.0992 20.0452C20.0992 19.7465 20.0245 19.4905 19.8752 19.2772C19.7258 19.0639 19.5232 18.8985 19.2672 18.7812C19.0112 18.6532 18.7072 18.5892 18.3552 18.5892H16.9472V16.8612H18.1632C18.6645 16.8612 19.0592 16.7332 19.3472 16.4772C19.6352 16.2105 19.7792 15.8479 19.7792 15.3892C19.7792 15.0905 19.6938 14.8239 19.5232 14.5892C19.3525 14.3439 19.1178 14.1519 18.8192 14.0132C18.5312 13.8745 18.2005 13.8052 17.8272 13.8052C17.2725 13.8052 16.7925 13.9012 16.3872 14.0932C15.9925 14.2852 15.5765 14.6265 15.1392 15.1172L13.7152 13.8052C14.2378 13.2185 14.8618 12.7652 15.5872 12.4452C16.3232 12.1145 17.0965 11.9492 17.9072 11.9492C18.6858 11.9492 19.3738 12.0879 19.9712 12.3652C20.5685 12.6319 21.0378 13.0052 21.3792 13.4852C21.7205 13.9652 21.8912 14.5145 21.8912 15.1332C21.8912 15.7305 21.6938 16.2639 21.2992 16.7332C20.9045 17.1919 20.3925 17.5119 19.7632 17.6932C20.5098 17.8425 21.1018 18.1412 21.5392 18.5892C21.9872 19.0372 22.2112 19.5759 22.2112 20.2052C22.2112 20.8345 22.0245 21.3999 21.6512 21.9012C21.2778 22.4025 20.7658 22.7972 20.1152 23.0852C19.4752 23.3625 18.7338 23.5012 17.8912 23.5012Z" fill="white"/>
</svg>
