<svg width="40" height="40" viewBox="0 0 40 40" fill="none" xmlns="http://www.w3.org/2000/svg">
<path d="M19.323 13.1998C19.323 13.1953 19.323 13.1953 19.323 13.1953L6.76021 15.4844C6.71064 15.4934 6.6791 15.5249 6.66558 15.5475C6.65206 15.57 6.63404 15.606 6.64305 15.6511L10.4146 30.3633C10.4506 30.5075 10.4326 30.6517 10.374 30.7733H19.3996C19.35 30.6832 19.323 30.5841 19.323 30.4714V13.1998Z" fill="#FF7D44"/>
<path d="M28.7947 30.773L32.7465 15.3804L24.5681 13.8889L20.6073 13.168L20.6118 30.4711C20.6118 30.5793 20.5802 30.6829 20.5352 30.773H29.7004H28.7947Z" fill="#FF7D44"/>
<path d="M29.6936 30.7735C29.635 30.6518 29.617 30.5076 29.653 30.3634L33.4246 15.6512C33.4336 15.6062 33.4156 15.5701 33.402 15.5476C33.3885 15.5251 33.357 15.4935 33.3074 15.4845L32.7442 15.3809L28.7969 30.7735H29.6936Z" fill="white"/>
<path d="M29.2659 13.4428V5.85914C29.2659 5.69242 29.1307 5.55273 28.9595 5.55273H24.4715H15.6036H11.1111C10.9444 5.55273 10.8047 5.68791 10.8047 5.85914V13.4428L19.7807 11.8071C19.9519 11.7756 20.1232 11.7756 20.2944 11.8071L29.2659 13.4428ZM20.8666 7.37768C20.8666 6.84596 21.2992 6.41339 21.8309 6.41339H26.4902C27.0219 6.41339 27.4545 6.84596 27.4545 7.37768V9.31527C27.4545 9.84698 27.0219 10.2796 26.4902 10.2796H21.8309C21.2992 10.2796 20.8666 9.84698 20.8666 9.31527V7.37768ZM19.0913 9.31527C19.0913 9.84698 18.6587 10.2796 18.127 10.2796H13.4632C12.9315 10.2796 12.499 9.84698 12.499 9.31527V7.37768C12.499 6.84596 12.9315 6.41339 13.4632 6.41339H18.1225C18.6542 6.41339 19.0868 6.84596 19.0868 7.37768V9.31527H19.0913Z" fill="#FF7D44"/>
<path d="M26.1723 7.69824H22.1484V8.99598H26.1723V7.69824Z" fill="white"/>
<path d="M23.1861 2.53863C23.1861 2.26376 22.9608 2.04297 22.6905 2.04297H17.3824C17.1075 2.04297 16.8867 2.26827 16.8867 2.53863V4.26895H23.1861V2.53863Z" fill="#FF7D44"/>
<path d="M21.8315 10.2802H26.4907C27.0224 10.2802 27.455 9.84766 27.455 9.31595V7.37835C27.455 6.84664 27.0224 6.41406 26.4907 6.41406H21.8315C21.2998 6.41406 20.8672 6.84664 20.8672 7.37835V9.31595C20.8672 9.84766 21.2998 10.2802 21.8315 10.2802ZM22.1514 8.99602V7.69828H26.1753V8.99602H22.1514Z" fill="#1C3F39"/>
<path d="M17.8051 7.69824H13.7812V8.99598H17.8051V7.69824Z" fill="white"/>
<path d="M18.1241 6.41406H13.4604C12.9287 6.41406 12.4961 6.84664 12.4961 7.37835V9.31595C12.4961 9.84766 12.9287 10.2802 13.4604 10.2802H18.1196C18.6513 10.2802 19.0839 9.84766 19.0839 9.31595V7.37835C19.0884 6.84664 18.6558 6.41406 18.1241 6.41406ZM17.8042 8.99602H13.7803V7.69828H17.8042V8.99602Z" fill="#1C3F39"/>
<path d="M34.4449 14.7951C34.2196 14.4842 33.8726 14.2814 33.4941 14.2138L30.5471 13.6776V5.85961C30.5471 4.98545 29.8352 4.26899 28.9565 4.26899H24.4685V2.53867C24.4685 1.55636 23.671 0.758789 22.6886 0.758789H17.3805C16.3982 0.758789 15.6007 1.55636 15.6007 2.53867V4.26899H11.1081C10.234 4.26899 9.51752 4.98094 9.51752 5.85961V13.6776L6.53003 14.2228C6.14251 14.2949 5.81357 14.5112 5.59728 14.8401C5.38099 15.1691 5.30889 15.5566 5.39451 15.9396L9.25167 30.6698C9.31926 30.9357 9.56258 31.1204 9.83294 31.1204C10.0763 31.1204 10.279 30.9762 10.3782 30.778C10.4368 30.6563 10.4548 30.5121 10.4187 30.3679L6.64718 15.6557C6.63817 15.6107 6.6562 15.5746 6.66971 15.5521C6.68323 15.5296 6.71477 15.498 6.76434 15.489L19.3271 13.1999V13.2044V30.4761C19.3271 30.5842 19.3587 30.6878 19.4037 30.778C19.5119 30.9807 19.7237 31.1204 19.967 31.1204C20.2103 31.1204 20.4221 30.9807 20.5303 30.778C20.5798 30.6878 20.6069 30.5887 20.6069 30.4761L20.6023 13.1729L24.5631 13.8939L32.7416 15.3854L33.3048 15.489C33.3544 15.498 33.3859 15.5296 33.3995 15.5521C33.413 15.5746 33.431 15.6107 33.422 15.6557L29.6505 30.3634C29.6144 30.5076 29.6324 30.6518 29.691 30.7735C29.7856 30.9717 29.9884 31.1159 30.2362 31.1159C30.5111 31.1159 30.7499 30.9312 30.8175 30.6653L34.6702 15.9621L34.6747 15.9396C34.7648 15.5386 34.6837 15.1285 34.4449 14.7951ZM16.8849 2.53867C16.8849 2.2638 17.1102 2.04301 17.3805 2.04301H22.6841C22.959 2.04301 23.1798 2.26831 23.1798 2.53867V4.26899H16.8849V2.53867ZM29.2629 13.4433L20.2869 11.8076C20.1157 11.776 19.9445 11.776 19.7732 11.8076L10.7972 13.4433V5.85961C10.7972 5.69289 10.9324 5.55321 11.1036 5.55321H15.5962H24.4685H28.961C29.1277 5.55321 29.2674 5.68839 29.2674 5.85961V13.4433H29.2629Z" fill="#1C3F39"/>
<path d="M39.8173 33.1706L39.4523 32.8056C39.3081 32.6614 39.0783 32.6569 38.9251 32.7921C37.9338 33.6618 36.6766 34.1394 35.3473 34.1394C34.0181 34.1394 32.7609 33.6663 31.7695 32.7921C31.6929 32.7245 31.5938 32.693 31.4947 32.6975C31.4001 32.693 31.3009 32.7245 31.2198 32.7921C30.2285 33.6618 28.9713 34.1394 27.642 34.1394C26.3127 34.1394 25.0556 33.6663 24.0642 32.7921C23.9921 32.729 23.902 32.6975 23.8119 32.6975C23.8074 32.6975 23.8029 32.6975 23.8029 32.6975C23.7984 32.6975 23.7939 32.6975 23.7939 32.6975C23.7038 32.6975 23.6136 32.729 23.5415 32.7921C22.5502 33.6618 21.293 34.1394 19.9638 34.1394C18.6345 34.1394 17.3773 33.6663 16.386 32.7921C16.377 32.7876 16.3724 32.7831 16.3634 32.7741C16.3544 32.7651 16.3409 32.7561 16.3319 32.7516C16.3229 32.7471 16.3139 32.7425 16.3094 32.738C16.2958 32.729 16.2823 32.7245 16.2688 32.72C16.2598 32.7155 16.2553 32.7155 16.2463 32.711C16.2328 32.7065 16.2147 32.702 16.2012 32.6975C16.1922 32.6975 16.1832 32.693 16.1697 32.693C16.1562 32.693 16.1426 32.6885 16.1291 32.6885C16.1156 32.6885 16.1021 32.6885 16.0886 32.693C16.0796 32.693 16.0705 32.693 16.057 32.6975C16.0435 32.702 16.0255 32.7065 16.012 32.711C16.003 32.7155 15.9984 32.7155 15.9894 32.72C15.9759 32.7245 15.9624 32.7335 15.9489 32.738C15.9399 32.7425 15.9309 32.7471 15.9264 32.7516C15.9173 32.7606 15.9038 32.7651 15.8948 32.7741C15.8858 32.7786 15.8813 32.7831 15.8723 32.7921C14.881 33.6618 13.6238 34.1394 12.2945 34.1394C10.9652 34.1394 9.70804 33.6663 8.71671 32.7921C8.64461 32.729 8.55449 32.6975 8.46437 32.6975C8.45987 32.6975 8.45536 32.6975 8.45536 32.6975C8.45086 32.6975 8.44635 32.6975 8.44635 32.6975C8.35623 32.6975 8.26611 32.729 8.19401 32.7921C7.20269 33.6618 5.9455 34.1394 4.61623 34.1394C3.28695 34.1394 2.02977 33.6663 1.03844 32.7921C0.885236 32.6569 0.655429 32.6614 0.511236 32.8056L0.146248 33.1706C-0.0114634 33.3283 -0.00695735 33.5852 0.159766 33.7294C1.38991 34.8243 2.95801 35.4236 4.62073 35.4236C6.0176 35.4236 7.34688 35.0001 8.46437 34.216C9.58637 35.0001 10.9157 35.4236 12.308 35.4236C13.7004 35.4236 15.0251 35.0001 16.1426 34.2205C17.2601 35.0001 18.5894 35.4236 19.9773 35.4236C21.3741 35.4236 22.7034 35.0001 23.8209 34.216C24.9429 35.0001 26.2722 35.4236 27.6646 35.4236C29.0614 35.4236 30.3952 34.9956 31.5172 34.207C32.6392 34.9956 33.973 35.4236 35.3699 35.4236C37.0281 35.4236 38.5962 34.8243 39.8308 33.7294C39.9705 33.5852 39.975 33.3283 39.8173 33.1706Z" fill="#1C3F39"/>
<path d="M39.8834 37.4831L39.5184 37.1181C39.3742 36.9739 39.1444 36.9694 38.9912 37.1046C37.9999 37.9743 36.7427 38.4519 35.4134 38.4519C34.0841 38.4519 32.827 37.9788 31.8356 37.1046C31.759 37.037 31.6599 37.0055 31.5608 37.01C31.4661 37.0055 31.367 37.037 31.2859 37.1046C30.2946 37.9743 29.0374 38.4519 27.7081 38.4519C26.3788 38.4519 25.1217 37.9788 24.1303 37.1046C24.0582 37.0415 23.9681 37.01 23.878 37.01C23.8735 37.01 23.869 37.01 23.869 37.01C23.8645 37.01 23.86 37.01 23.86 37.01C23.7699 37.01 23.6797 37.0415 23.6076 37.1046C22.6163 37.9743 21.3591 38.4519 20.0299 38.4519C18.7006 38.4519 17.4434 37.9788 16.4521 37.1046C16.4431 37.1001 16.4385 37.0956 16.4295 37.0866C16.4205 37.0776 16.407 37.0686 16.398 37.0641C16.389 37.0596 16.38 37.055 16.3755 37.0505C16.3619 37.0415 16.3484 37.037 16.3349 37.0325C16.3259 37.028 16.3214 37.028 16.3124 37.0235C16.2989 37.019 16.2808 37.0145 16.2673 37.01C16.2583 37.01 16.2493 37.0055 16.2358 37.0055C16.2223 37.0055 16.2087 37.001 16.1952 37.001C16.1817 37.001 16.1682 37.001 16.1547 37.0055C16.1457 37.0055 16.1366 37.0055 16.1231 37.01C16.1096 37.0145 16.0916 37.019 16.0781 37.0235C16.0691 37.028 16.0645 37.028 16.0555 37.0325C16.042 37.037 16.0285 37.046 16.015 37.0505C16.006 37.055 15.997 37.0596 15.9925 37.0641C15.9834 37.0731 15.9699 37.0776 15.9609 37.0866C15.9519 37.0911 15.9474 37.0956 15.9384 37.1046C14.9471 37.9743 13.6899 38.4519 12.3606 38.4519C11.0313 38.4519 9.77414 37.9788 8.78281 37.1046C8.71071 37.0415 8.62059 37.01 8.53047 37.01C8.52597 37.01 8.52146 37.01 8.52146 37.01C8.51695 37.01 8.51245 37.01 8.51245 37.01C8.42233 37.01 8.33221 37.0415 8.26011 37.1046C7.26878 37.9743 6.0116 38.4519 4.68232 38.4519C3.35305 38.4519 2.09587 37.9788 1.10454 37.1046C0.951335 36.9694 0.721527 36.9739 0.577334 37.1181L0.18531 37.4831C0.0275991 37.6408 0.0321052 37.8977 0.198828 38.0419C1.42897 39.1368 2.99707 39.7361 4.65979 39.7361C6.05666 39.7361 7.38594 39.3126 8.50344 38.5285C9.62544 39.3126 10.9547 39.7361 12.3471 39.7361C13.7394 39.7361 15.0642 39.3126 16.1817 38.533C17.2992 39.3126 18.6285 39.7361 20.0163 39.7361C21.4132 39.7361 22.7425 39.3126 23.86 38.5285C24.982 39.3126 26.3113 39.7361 27.7036 39.7361C29.1005 39.7361 30.4343 39.3081 31.5563 38.5195C32.6783 39.3081 34.0121 39.7361 35.4089 39.7361C37.0671 39.7361 38.6352 39.1368 39.8699 38.0419C40.0366 37.8932 40.0411 37.6363 39.8834 37.4831Z" fill="#1C3F39"/>
</svg>
