<svg width="30" height="36" viewBox="0 0 30 36" fill="none" xmlns="http://www.w3.org/2000/svg">
<path d="M6.43968 25.496H15.3188V3.87792H10.9539C10.607 3.87792 10.3259 3.59688 10.3259 3.24997C10.3259 2.90306 10.607 2.62202 10.9539 2.62202H15.3188V1.26074H6.43968C4.81053 1.26074 3.48438 2.58689 3.48438 4.21604V22.5407C3.48438 24.1698 4.81053 25.496 6.43968 25.496ZM15.0202 23.4189C15.0202 23.6341 14.8445 23.8097 14.6294 23.8097H14.1595C13.9443 23.8097 13.7687 23.6341 13.7687 23.4189V17.7586H8.10836C7.89319 17.7586 7.71754 17.583 7.71754 17.3678V16.8979C7.71754 16.6828 7.89319 16.5071 8.10836 16.5071H14.1595H14.625H14.6294C14.8445 16.5071 15.0202 16.6828 15.0202 16.8979V23.4189ZM4.63049 6.27114C4.63049 5.52024 5.24087 4.90986 5.99178 4.90986H13.6589C14.4098 4.90986 15.0202 5.52024 15.0202 6.27114V13.9382C15.0202 14.6891 14.4098 15.2995 13.6589 15.2995H5.99178C5.24087 15.2995 4.63049 14.6891 4.63049 13.9382V6.27114ZM7.16424 19.054C8.76704 19.054 10.0756 20.3582 10.0756 21.9654C10.0756 23.5682 8.77143 24.8768 7.16424 24.8768C5.56143 24.8768 4.25284 23.5726 4.25284 21.9654C4.25723 20.3582 5.56143 19.054 7.16424 19.054Z" fill="#FF7D44"/>
<path d="M5.99259 14.0478H12.9132V6.16113H5.99259C5.93551 6.16113 5.88281 6.21383 5.88281 6.27091V13.938C5.88281 13.9951 5.93551 14.0478 5.99259 14.0478Z" fill="#FF7D44"/>
<path d="M13.6606 14.0488C13.7177 14.0488 13.7704 13.9961 13.7704 13.939V6.27189C13.7704 6.2148 13.7177 6.16211 13.6606 6.16211H12.9141V14.0444H13.6606V14.0488Z" fill="white"/>
<path d="M27.7974 33.251H2.85069L1.82753 35.2226C1.7924 35.2885 1.7441 35.3456 1.69141 35.3939H28.9566C28.9039 35.3456 28.8556 35.2885 28.8205 35.2226L27.7974 33.251Z" fill="#FF7D44"/>
<path d="M4.73345 29.6289L3.50391 32.0002H27.1464L25.9124 29.6289H4.73345Z" fill="#FF7D44"/>
<path d="M19.6891 2.62642C20.036 2.62642 20.3127 2.90745 20.3127 3.25436C20.3127 3.60127 20.0316 3.88231 19.6891 3.88231H15.3242V25.5004H24.2033C25.8325 25.5004 27.1586 24.1742 27.1586 22.5451V4.21604C27.1586 2.58689 25.8325 1.26074 24.2033 1.26074H15.3242V2.62642H19.6891ZM16.8963 23.4189C16.8963 23.6341 16.7206 23.8097 16.5055 23.8097H16.0356C15.8204 23.8097 15.6448 23.6341 15.6448 23.4189V17.3678V16.8979C15.6448 16.6828 15.8204 16.5071 16.0356 16.5071H16.5055H22.5566C22.7718 16.5071 22.9474 16.6828 22.9474 16.8979V17.3678C22.9474 17.583 22.7718 17.7586 22.5566 17.7586H16.8963V23.4189ZM26.4297 21.961C26.4297 23.5638 25.1255 24.8724 23.5183 24.8724C21.9155 24.8724 20.6069 23.5682 20.6069 21.961C20.6069 20.3582 21.9111 19.0496 23.5183 19.0496C25.1255 19.054 26.4297 20.3582 26.4297 21.961ZM24.6732 4.90986C25.4241 4.90986 26.0345 5.52024 26.0345 6.27114V13.9382C26.0345 14.6891 25.4241 15.2995 24.6732 15.2995H17.0061C16.2552 15.2995 15.6448 14.6891 15.6448 13.9382V6.27114C15.6448 5.52024 16.2552 4.90986 17.0061 4.90986H24.6732Z" fill="#FF7D44"/>
<path d="M7.1638 23.6206C8.07718 23.6206 8.82369 22.8784 8.82369 21.9607C8.82369 21.0473 8.08157 20.3008 7.1638 20.3008C6.24603 20.3008 5.50391 21.0429 5.50391 21.9607C5.5083 22.8784 6.25042 23.6206 7.1638 23.6206Z" fill="white"/>
<path d="M23.5154 20.3057C22.602 20.3057 21.8555 21.0478 21.8555 21.9656C21.8555 22.8789 22.5976 23.6254 23.5154 23.6254C24.4287 23.6254 25.1752 22.8833 25.1752 21.9656C25.1752 21.0478 24.4331 20.3057 23.5154 20.3057Z" fill="white"/>
<path d="M23.9644 14.0478V6.16113H17.0043C16.9472 6.16113 16.8945 6.21383 16.8945 6.27091V13.938C16.8945 13.9951 16.9472 14.0478 17.0043 14.0478H23.9644Z" fill="#FF7D44"/>
<path d="M24.6753 14.0488C24.7323 14.0488 24.785 13.9961 24.785 13.939V6.27189C24.785 6.2148 24.7323 6.16211 24.6753 6.16211H23.9727V14.0444H24.6753V14.0488Z" fill="white"/>
<path d="M5.9941 15.2998H13.6612C14.4121 15.2998 15.0225 14.6894 15.0225 13.9385V6.27144C15.0225 5.52054 14.4121 4.91016 13.6612 4.91016H5.9941C5.2432 4.91016 4.63281 5.52054 4.63281 6.27144V13.9385C4.63281 14.6894 5.2432 15.2998 5.9941 15.2998ZM5.88432 6.27144C5.88432 6.21435 5.93701 6.16166 5.9941 6.16166H12.9147H13.6612C13.7183 6.16166 13.771 6.21435 13.771 6.27144V13.9385C13.771 13.9956 13.7183 14.0483 13.6612 14.0483H12.9147H5.9941C5.93701 14.0483 5.88432 13.9956 5.88432 13.9385V6.27144Z" fill="#1C3F39"/>
<path d="M15.6445 6.27144V13.9385C15.6445 14.6894 16.2549 15.2998 17.0058 15.2998H24.6729C25.4238 15.2998 26.0342 14.6894 26.0342 13.9385V6.27144C26.0342 5.52054 25.4238 4.91016 24.6729 4.91016H17.0058C16.2549 4.91016 15.6445 5.52054 15.6445 6.27144ZM16.896 13.9385V6.27144C16.896 6.21435 16.9487 6.16166 17.0058 6.16166H23.9659H24.6685C24.7256 6.16166 24.7783 6.21435 24.7783 6.27144V13.9385C24.7783 13.9956 24.7256 14.0483 24.6685 14.0483H23.9659H17.0058C16.9487 14.0483 16.896 13.9956 16.896 13.9385Z" fill="#1C3F39"/>
<path d="M7.1653 24.8726C8.76811 24.8726 10.0767 23.5684 10.0767 21.9612C10.0767 20.3584 8.7725 19.0498 7.1653 19.0498C5.5625 19.0498 4.25391 20.354 4.25391 21.9612C4.2583 23.5684 5.5625 24.8726 7.1653 24.8726ZM7.1653 20.3057C8.07868 20.3057 8.82519 21.0478 8.82519 21.9656C8.82519 22.879 8.08307 23.6255 7.1653 23.6255C6.24753 23.6255 5.50541 22.8834 5.50541 21.9656C5.5098 21.0478 6.25192 20.3057 7.1653 20.3057Z" fill="#1C3F39"/>
<path d="M23.5169 19.0547C21.9141 19.0547 20.6055 20.3589 20.6055 21.9661C20.6055 23.5689 21.9097 24.8775 23.5169 24.8775C25.1197 24.8775 26.4283 23.5733 26.4283 21.9661C26.4283 20.3589 25.1241 19.0547 23.5169 19.0547ZM23.5169 23.6216C22.6035 23.6216 21.857 22.8795 21.857 21.9617C21.857 21.0483 22.5991 20.3018 23.5169 20.3018C24.4302 20.3018 25.1768 21.0439 25.1768 21.9617C25.1768 22.8795 24.4346 23.6216 23.5169 23.6216Z" fill="#1C3F39"/>
<path d="M20.3133 3.2549C20.3133 2.90799 20.0323 2.62695 19.6898 2.62695H15.3249H10.96C10.6131 2.62695 10.332 2.90799 10.332 3.2549C10.332 3.60181 10.6131 3.88285 10.96 3.88285H15.3249H19.6898C20.0323 3.87845 20.3133 3.59742 20.3133 3.2549Z" fill="#1C3F39"/>
<path d="M14.6306 16.5078H14.1607H8.10957C7.8944 16.5078 7.71875 16.6835 7.71875 16.8986V17.3685C7.71875 17.5837 7.8944 17.7593 8.10957 17.7593H13.7699V23.4152C13.7699 23.6304 13.9455 23.806 14.1607 23.806H14.6306C14.8457 23.806 15.0214 23.6304 15.0214 23.4152V16.8986C15.0214 16.6835 14.8457 16.5078 14.6306 16.5078Z" fill="#1C3F39"/>
<path d="M22.9472 17.3685V16.8986C22.9472 16.6835 22.7715 16.5078 22.5564 16.5078H16.5052H16.0354C15.8202 16.5078 15.6445 16.6835 15.6445 16.8986V17.3685V23.4152C15.6445 23.6304 15.8202 23.806 16.0354 23.806H16.5052C16.7204 23.806 16.896 23.6304 16.896 23.4152V17.7593H22.5564C22.7715 17.7593 22.9472 17.5837 22.9472 17.3685Z" fill="#1C3F39"/>
<path d="M29.9294 34.6434L25.6831 26.4801C27.2727 25.8785 28.4101 24.3416 28.4101 22.5412V4.21657C28.4101 1.898 26.5218 0.00976562 24.2033 0.00976562H6.44067C4.12209 0.00976562 2.23385 1.898 2.23385 4.21657V22.5412C2.23385 24.3416 3.3668 25.8785 4.96082 26.4801L0.714484 34.6434C0.556399 34.9508 0.674963 35.3285 0.98235 35.4865C1.21948 35.6095 1.50052 35.5656 1.68934 35.3943C1.74204 35.346 1.79034 35.2889 1.82547 35.2231L2.84863 33.2514H27.7953L28.8185 35.2231C28.8536 35.2889 28.9019 35.346 28.9546 35.3943C29.1434 35.5656 29.4244 35.6139 29.6616 35.4865C29.969 35.3285 30.0919 34.9508 29.9294 34.6434ZM3.48536 4.21657C3.48536 2.58742 4.81151 1.26127 6.44067 1.26127H15.3198H24.1989C25.828 1.26127 27.1542 2.58742 27.1542 4.21657V22.5412C27.1542 24.1703 25.828 25.4965 24.1989 25.4965H15.3242H6.44067C4.81151 25.4965 3.48536 24.1703 3.48536 22.5412V4.21657ZM6.23428 26.7436C6.30454 26.748 6.3748 26.748 6.44506 26.748H24.2076C24.2779 26.748 24.3482 26.748 24.4184 26.7436L25.2659 28.3771H5.38238L6.23428 26.7436ZM3.50292 31.9999L4.73686 29.6286H25.9158L27.1498 31.9999H3.50292Z" fill="#1C3F39"/>
</svg>
