<svg width="58" height="52" viewBox="0 0 58 52" fill="none" xmlns="http://www.w3.org/2000/svg">
<path d="M14.4998 43.8828C13.4326 43.8828 12.5664 44.749 12.5664 45.8162C12.5664 46.8834 13.4326 47.7494 14.4998 47.7494C15.567 47.7494 16.4331 46.8833 16.4331 45.8161C16.4331 44.7488 15.567 43.8828 14.4998 43.8828Z" fill="#FF7D44"/>
<path d="M24.1668 43.8828C23.0995 43.8828 22.2334 44.749 22.2334 45.8162C22.2334 46.8834 23.0997 47.7494 24.1668 47.7494C25.234 47.7494 26.1001 46.8833 26.1001 45.8161C26.1001 44.7488 25.234 43.8828 24.1668 43.8828Z" fill="#FF7D44"/>
<path d="M49.2996 43.8828C48.2324 43.8828 47.3662 44.749 47.3662 45.8162C47.3662 46.8834 48.2324 47.7494 49.2996 47.7494C50.3668 47.7494 51.233 46.8833 51.233 45.8161C51.233 44.7488 50.3668 43.8828 49.2996 43.8828Z" fill="#FF7D44"/>
<path d="M45.4334 31.317H51.2334C51.767 31.317 52.2001 30.8839 52.2001 30.3504V25.8322C52.2001 23.5256 50.3247 21.6504 48.0183 21.6504H45.4334C44.8999 21.6504 44.4668 22.0835 44.4668 22.617V30.3504C44.4667 30.8839 44.8998 31.317 45.4334 31.317ZM46.4001 23.5838H48.0183C49.2585 23.5838 50.2668 24.592 50.2668 25.8323V29.3838H46.4001V23.5838Z" fill="#FF7D44"/>
<path d="M24.9666 20C24.4331 20 24 20.4331 24 20.9666V34.5C24 35.0336 24.4331 35.4666 24.9666 35.4666C25.5002 35.4666 25.9333 35.0336 25.9333 34.5V20.9667C25.9333 20.4331 25.5002 20 24.9666 20Z" fill="#FF7D44"/>
<path d="M30.9334 15.8496C30.3999 15.8496 29.9668 16.2827 29.9668 16.8162V34.2162C29.9668 34.7498 30.3999 35.1829 30.9334 35.1829C31.467 35.1829 31.9001 34.7498 31.9001 34.2162V16.8162C31.9001 16.2827 31.467 15.8496 30.9334 15.8496Z" fill="#FF7D44"/>
<path d="M36.7332 15.8496C36.1997 15.8496 35.7666 16.2827 35.7666 16.8162V34.2162C35.7666 34.7498 36.1997 35.1829 36.7332 35.1829C37.2668 35.1829 37.6999 34.7498 37.6999 34.2162V16.8162C37.6999 16.2827 37.2668 15.8496 36.7332 15.8496Z" fill="#FF7D44"/>
<path d="M57.0334 37.1161H56.0667V24.0014C56.0667 20.5726 53.277 17.7828 49.8482 17.7828H42.5334V12.9494C42.5334 12.4159 42.1003 11.9828 41.5667 11.9828H25.0966C24.8643 8.94393 23.5457 6.20445 21.5301 4.15145C21.5063 4.12098 21.4811 4.0913 21.4531 4.06321C21.425 4.03523 21.3953 4.00996 21.3648 3.98618C19.0963 1.75895 15.9893 0.382812 12.5666 0.382812C9.14395 0.382812 6.0371 1.75895 3.76841 3.98618C3.73794 4.00996 3.70826 4.03523 3.68017 4.06321C3.65219 4.0913 3.62693 4.12098 3.60314 4.15145C1.37603 6.42002 0 9.52687 0 12.9494C0 16.3728 1.37671 19.4803 3.60484 21.7491C3.62828 21.7789 3.65321 21.8079 3.68073 21.8354C3.70815 21.8629 3.73715 21.8877 3.76683 21.9111C4.90111 23.0251 6.24497 23.9263 7.73337 24.5488V37.1161H6.76674C6.23319 37.1161 5.80011 37.5491 5.80011 38.0827V45.8161C5.80011 46.3496 6.23319 46.7827 6.76674 46.7827H8.78213C9.24375 49.5225 11.6308 51.6161 14.5001 51.6161C16.516 51.6161 18.2937 50.5825 19.3335 49.0178C20.3733 50.5825 22.151 51.6161 24.1669 51.6161C27.036 51.6161 29.4232 49.5225 29.8848 46.7827H43.5822C44.0439 49.5225 46.4309 51.6161 49.3002 51.6161C52.1695 51.6161 54.5566 49.5225 55.0182 46.7827H57.0336C57.5671 46.7827 58.0002 46.3496 58.0002 45.8161V38.0827C58 37.5491 57.5669 37.1161 57.0334 37.1161ZM49.848 19.7161C52.2116 19.7161 54.1333 21.6378 54.1333 24.0013V37.1161H42.5333V19.7161H49.848ZM20.7341 19.7501L19.4013 18.4173C19.0243 18.0403 18.4124 18.0403 18.0345 18.4173C17.6575 18.7953 17.6575 19.4072 18.0345 19.7842L19.3672 21.1169C17.7551 22.4616 15.7404 23.3385 13.5333 23.5384V21.6494C13.5333 21.1159 13.1002 20.6828 12.5666 20.6828C12.0331 20.6828 11.6 21.1159 11.6 21.6494V23.5384C9.39283 23.3385 7.37823 22.4616 5.76602 21.1169L7.09877 19.7842C7.47577 19.4072 7.47577 18.7952 7.09877 18.4173C6.72075 18.0403 6.10892 18.0403 5.73192 18.4173L4.39916 19.7501C3.05452 18.1379 2.17761 16.1232 1.97766 13.9161H3.86663C4.40018 13.9161 4.83326 13.483 4.83326 12.9494C4.83326 12.4159 4.40018 11.9828 3.86663 11.9828H1.97778C2.17772 9.77564 3.05463 7.76105 4.39916 6.14894L5.73158 7.48136C5.92008 7.66986 6.1676 7.76456 6.415 7.76456C6.66241 7.76456 6.90993 7.66986 7.09843 7.48136C7.47645 7.10334 7.47645 6.49241 7.09843 6.1145L5.76602 4.78198C7.37812 3.43733 9.39283 2.56042 11.6 2.36048V4.24944C11.6 4.783 12.0331 5.21607 12.5666 5.21607C13.1002 5.21607 13.5333 4.783 13.5333 4.24944V2.36048C15.7404 2.56042 17.7551 3.43733 19.3672 4.78198L18.0348 6.11439C17.6568 6.4923 17.6568 7.10334 18.0348 7.48124C18.2233 7.66974 18.4708 7.76445 18.7183 7.76445C18.9658 7.76445 19.2132 7.66974 19.4017 7.48124L20.7341 6.14883C22.0787 7.76093 22.9557 9.77553 23.1555 11.9827H21.2665C20.733 11.9827 20.2999 12.4158 20.2999 12.9493C20.2999 13.4829 20.733 13.916 21.2665 13.916H23.1555C22.9557 16.1232 22.0787 18.1379 20.7341 19.7501ZM9.66663 25.1777C10.5979 25.3986 11.5687 25.5161 12.5666 25.5161V34.2161C12.5666 34.7496 12.9997 35.1827 13.5333 35.1827C14.0668 35.1827 14.4999 34.7496 14.4999 34.2161V25.3673C15.8747 25.1541 17.1762 24.7169 18.3665 24.0948V34.2161C18.3665 34.7496 18.7996 35.1827 19.3331 35.1827C19.8667 35.1827 20.2998 34.7496 20.2998 34.2161V22.848C20.6728 22.5558 21.0286 22.2427 21.3663 21.9111C21.396 21.8877 21.425 21.8629 21.4524 21.8354C21.4799 21.8079 21.5047 21.7789 21.5283 21.7491C23.5447 19.6959 24.864 16.9557 25.0963 13.9161H40.6V18.7494V37.1161H9.66663V25.1777ZM14.5 49.6828C12.3675 49.6828 10.6334 47.9486 10.6334 45.8162C10.6334 43.6838 12.3675 41.9494 14.5 41.9494C16.6325 41.9494 18.3666 43.6837 18.3666 45.8161C18.3666 47.9485 16.6325 49.6828 14.5 49.6828ZM24.1666 49.6828C22.0341 49.6828 20.3 47.9486 20.3 45.8162C20.3 43.6838 22.0342 41.9496 24.1666 41.9496C26.2991 41.9496 28.0333 43.6838 28.0333 45.8162C28.0333 47.9486 26.2991 49.6828 24.1666 49.6828ZM49.3 49.6828C47.1675 49.6828 45.4334 47.9486 45.4334 45.8162C45.4334 43.6838 47.1675 41.9494 49.3 41.9494C51.4325 41.9494 53.1666 43.6837 53.1666 45.8161C53.1666 47.9485 51.4325 49.6828 49.3 49.6828ZM56.0666 44.8494H55.0179C54.5562 42.1096 52.1692 40.0161 49.2999 40.0161C46.4307 40.0161 44.0435 42.1096 43.5819 44.8494H29.8846C29.423 42.1096 27.0359 40.0161 24.1666 40.0161C22.1508 40.0161 20.3731 41.0496 19.3333 42.6143C18.2934 41.0496 16.5157 40.0161 14.4999 40.0161C11.6306 40.0161 9.24352 42.1096 8.7819 44.8494H7.73314V39.0494H8.7H41.5666H55.1H56.0666V44.8494Z" fill="#FF7D44"/>
<path d="M45.4335 35.1834H47.3669C47.9005 35.1834 48.3335 34.7503 48.3335 34.2167C48.3335 33.6832 47.9005 33.25 47.3668 33.25H45.4334C44.8999 33.25 44.4668 33.6831 44.4668 34.2166C44.4668 34.7502 44.8999 35.1834 45.4335 35.1834Z" fill="#FF7D44"/>
<path d="M15.4662 11.9838H13.5329V8.11702C13.5329 7.58347 13.0998 7.15039 12.5662 7.15039C12.0327 7.15039 11.5996 7.58347 11.5996 8.11702V12.9504C11.5996 13.4839 12.0327 13.917 12.5662 13.917H15.4662C15.9998 13.917 16.4329 13.4839 16.4329 12.9504C16.4329 12.4168 15.9999 11.9838 15.4662 11.9838Z" fill="#FF7D44"/>
</svg>
