<svg width="49" height="27" viewBox="0 0 49 27" fill="none" xmlns="http://www.w3.org/2000/svg">
<g clip-path="url(#clip0_303_212088)">
<path d="M15.1835 18.4736C13.0815 18.4736 11.3799 20.1753 11.3799 22.2773C11.3799 24.3793 13.0815 26.0809 15.1835 26.0809C17.2856 26.0809 18.9872 24.3793 18.9872 22.2773C18.9872 20.1815 17.2856 18.4736 15.1835 18.4736ZM15.1835 24.9424C13.7134 24.9424 12.5247 23.7537 12.5247 22.2835C12.5247 20.8134 13.7134 19.6247 15.1835 19.6247C16.6537 19.6247 17.8423 20.8134 17.8423 22.2835C17.8423 23.7475 16.6537 24.9424 15.1835 24.9424Z" fill="#1C3F39"/>
<path d="M40.9833 18.4736C38.8813 18.4736 37.1797 20.1753 37.1797 22.2773C37.1797 24.3793 38.8813 26.0809 40.9833 26.0809C43.0854 26.0809 44.787 24.3793 44.787 22.2773C44.787 20.1815 43.0854 18.4736 40.9833 18.4736ZM40.9833 24.9424C39.5132 24.9424 38.3245 23.7537 38.3245 22.2835C38.3245 20.8134 39.5194 19.6247 40.9833 19.6247C42.4535 19.6247 43.6421 20.8134 43.6421 22.2835C43.6484 23.7475 42.4535 24.9424 40.9833 24.9424Z" fill="#1C3F39"/>
<path d="M6.30659 18.4736C4.20457 18.4736 2.50293 20.1753 2.50293 22.2773C2.50293 24.3793 4.20457 26.0809 6.30659 26.0809C8.40861 26.0809 10.1102 24.3793 10.1102 22.2773C10.104 20.1815 8.40235 18.4736 6.30659 18.4736ZM6.30659 24.9424C4.83642 24.9424 3.64778 23.7537 3.64778 22.2835C3.64778 20.8134 4.83642 19.6247 6.30659 19.6247C7.77675 19.6247 8.96539 20.8134 8.96539 22.2835C8.96539 23.7475 7.77675 24.9424 6.30659 24.9424Z" fill="#1C3F39"/>
<path d="M29.0343 0.0810547H1.83945C0.832233 0.0810547 0.0126953 0.900593 0.0126953 1.90781V20.4506C0.0126953 20.9511 0.156584 21.4891 0.550713 21.7394C1.40153 22.2774 1.59547 21.2764 1.73936 20.8323C2.35245 18.8929 4.16669 17.4915 6.30625 17.4915C7.72011 17.4915 8.98382 18.1046 9.85966 19.0743C10.2288 19.4872 11.2297 19.5373 11.5738 19.1369C12.4497 18.1297 13.7446 17.4915 15.1835 17.4915C17.3481 17.4915 19.1373 18.9429 19.7754 20.9011C20.0445 21.7394 20.8014 22.2837 21.3144 22.2837C23.3727 22.2837 29.0343 22.2837 29.0343 22.2837C30.0416 22.2837 30.8611 21.4641 30.8611 20.4569V1.90781C30.8611 0.900593 30.0353 0.0810547 29.0343 0.0810547Z" fill="#1C3F39"/>
<path d="M48.2525 18.9429C48.1086 14.4699 46.113 14.9578 44.893 11.9237C42.3594 5.63011 39.9195 4.7793 36.5225 4.7793C34.6082 4.7793 33.5634 4.7793 33.5634 4.7793C32.675 4.7793 32.2246 5.64263 32.2246 6.64985V20.4819C32.2246 21.4891 33.0441 22.2961 34.0514 22.2711C34.0514 22.2711 34.4705 22.2336 35.1399 22.2523C35.8218 22.2711 36.241 21.5204 36.3223 21.1826C36.8165 19.0618 38.7184 17.479 40.9893 17.479C43.1288 17.479 44.9056 18.8866 45.5499 20.8135C45.8377 21.6643 46.432 21.927 46.7448 21.8895C47.3204 21.8144 47.5518 21.4578 47.8146 21.1012C48.3276 21.0199 48.728 20.5257 48.728 19.9251C48.7217 19.5247 48.534 19.1619 48.2525 18.9429ZM41.4335 12.6369H35.6341C34.6269 12.6369 33.8074 11.8173 33.8074 10.8101V8.3202C33.8074 7.31298 34.4017 6.49345 35.4089 6.49345H35.9907C36.9979 6.49345 37.6736 6.51847 38.7559 6.68113C39.5817 6.79999 40.3574 7.27545 41.6524 9.13974C42.3906 10.2033 42.6534 10.8914 42.7535 11.6171C42.8348 12.2552 42.4344 12.6369 41.4335 12.6369Z" fill="#FF7D44"/>
</g>
<defs>
<clipPath id="clip0_303_212088">
<rect width="48.7093" height="26" fill="white" transform="translate(0.0126953 0.0810547)"/>
</clipPath>
</defs>
</svg>
