<svg width="60" height="27" viewBox="0 0 60 27" fill="none" xmlns="http://www.w3.org/2000/svg">
<path d="M53.4429 15.9254V14.6574H58.7612C58.9796 13.9953 59.0782 13.5867 59.0782 13.5867C59.2191 12.8823 58.7401 12.3047 58.0216 12.3047C58.0216 12.3047 48.3922 12.3047 45.1801 12.3047C44.4475 12.3047 44.1305 12.6992 43.9755 13.0655C43.5247 14.115 42.5526 15.8902 42.0032 16.7636C41.2494 17.9682 38.7347 17.7357 25.8227 17.8978C18.3418 17.9893 15.4185 18.0739 13.4673 18.0175C12.4247 17.9893 11.8823 17.8837 11.6781 17.5596C11.509 17.292 11.5019 16.982 11.4526 16.5312C11.3258 15.4112 11.2906 15.0378 11.2906 15.0378C11.2272 14.3193 10.5792 13.7347 9.86066 13.7347H1.70352C0.985013 13.7347 0.294685 14.1573 0.329906 14.8688C0.351038 15.3196 0.393303 15.7211 0.96388 16.7566C1.8444 18.3486 2.76014 18.3768 3.09122 22.082C3.19688 23.2865 3.26732 24.1037 3.31663 24.6531C3.41525 25.7872 4.08444 25.9704 4.49301 26.0338C4.94383 26.1042 5.41579 26.1465 5.78913 26.1465C5.78913 26.1465 38.2416 26.1465 43.6374 26.1465C49.0332 26.1465 50.4843 25.6745 53.9148 22.6385C56.1549 20.652 57.5426 17.8837 58.3104 15.9324H53.4429V15.9254ZM18.1094 20.7999C17.7008 20.7999 17.3697 20.4689 17.3697 20.0603C17.3697 19.6517 17.7008 19.3207 18.1094 19.3207C18.5179 19.3207 18.842 19.6517 18.842 20.0603C18.842 20.4689 18.5179 20.7999 18.1094 20.7999ZM22.35 20.7999C21.9414 20.7999 21.6174 20.4689 21.6174 20.0603C21.6174 19.6517 21.9484 19.3207 22.35 19.3207C22.7585 19.3207 23.0896 19.6517 23.0896 20.0603C23.0825 20.4689 22.7585 20.7999 22.35 20.7999ZM26.5905 20.7999C26.182 20.7999 25.8509 20.4689 25.8509 20.0603C25.8509 19.6517 26.182 19.3207 26.5905 19.3207C26.9991 19.3207 27.3302 19.6517 27.3302 20.0603C27.3231 20.4689 26.9921 20.7999 26.5905 20.7999ZM30.8241 20.7999C30.4155 20.7999 30.0844 20.4689 30.0844 20.0603C30.0844 19.6517 30.4155 19.3207 30.8241 19.3207C31.2326 19.3207 31.5567 19.6517 31.5567 20.0603C31.5637 20.4689 31.2326 20.7999 30.8241 20.7999ZM35.0647 20.7999C34.6561 20.7999 34.325 20.4689 34.325 20.0603C34.325 19.6517 34.6561 19.3207 35.0647 19.3207C35.4732 19.3207 35.8043 19.6517 35.8043 20.0603C35.8043 20.4689 35.4732 20.7999 35.0647 20.7999ZM39.3053 20.7999C38.8967 20.7999 38.5656 20.4689 38.5656 20.0603C38.5656 19.6517 38.8967 19.3207 39.3053 19.3207C39.7138 19.3207 40.0449 19.6517 40.0449 20.0603C40.0378 20.4689 39.7138 20.7999 39.3053 20.7999Z" fill="#1C3F39"/>
<path d="M43.5599 11.8045L43.5106 11.1564H48.4203V9.56445H41.7988V13.7769H42.6371C43.109 12.8823 43.4965 12.0722 43.5599 11.8045Z" fill="#FF7D44"/>
<path d="M41.0239 4.51367H34.4023V8.72608H41.0239V4.51367Z" fill="#FF7D44"/>
<path d="M42.1931 14.6152H41.8057V15.3126C41.9325 15.0872 42.0593 14.8547 42.1931 14.6152Z" fill="#FF7D44"/>
<path d="M55.8237 9.56445H49.2021V11.1564H55.8237V9.56445Z" fill="#FF7D44"/>
<path d="M48.4272 4.51367H41.8057V8.72608H48.4272V4.51367Z" fill="#FF7D44"/>
<path d="M33.6205 9.56445H26.999V13.7769H33.6205V9.56445Z" fill="#FF7D44"/>
<path d="M29.7883 16.6933C31.2253 16.6792 32.4933 16.6651 33.6274 16.644V14.6152H27.0059V16.7285L29.7883 16.6933Z" fill="#FF7D44"/>
<path d="M41.0239 16.1861V14.6152H34.4023V16.6369C38.1851 16.5735 40.1997 16.4749 41.0239 16.1861Z" fill="#FF7D44"/>
<path d="M41.0239 9.56445H34.4023V13.7769H41.0239V9.56445Z" fill="#FF7D44"/>
<path d="M14.3828 3.35158V1.56236H16.5384V1.4567C16.5384 0.738194 15.9466 0.146484 15.2281 0.146484H7.83881C7.12031 0.146484 6.53564 0.738194 6.53564 1.4567V1.5694H7.90926V2.55559H6.53564V6.45101H16.5384V3.35158H14.3828ZM10.6424 2.54854H8.84613V1.56236H10.6424V2.54854ZM13.3755 2.54854H11.5793V1.56236H13.3755V2.54854Z" fill="#1C3F39"/>
<path d="M18.3843 10.9663V8.72623H20.9766C20.9766 8.00773 20.3848 7.41602 19.6663 7.41602H5.19059C4.47208 7.41602 3.88037 8.00068 3.88037 8.72623H6.71917V9.95896H3.88037V11.2833C3.88037 12.0018 4.47208 12.5935 5.19059 12.5935H10.8752C11.8755 12.5864 12.1713 12.7625 12.2418 13.2486C12.2911 13.5726 12.2911 13.7769 12.3615 14.4884C12.3615 14.4884 12.4109 15.0026 12.4742 15.5732C12.5376 16.1437 12.8546 16.6016 13.2632 16.6298C14.0381 16.6861 14.6509 16.7354 15.3694 16.7354H19.6663C20.3848 16.7354 20.9766 16.1508 20.9766 15.4252V10.9592H18.3843V10.9663ZM10.2906 9.95191H8.04347V8.71919H10.2906V9.95191ZM13.707 9.95191H11.4599V8.71919H13.707V9.95191ZM17.1234 9.95191H14.8763V8.71919H17.1234V9.95191Z" fill="#1C3F39"/>
</svg>
