<svg width="40" height="26" viewBox="0 0 40 26" fill="none" xmlns="http://www.w3.org/2000/svg">
<path d="M11.7784 2.14313C11.7784 2.00309 11.7233 1.88002 11.7784 1.8291V2.14313Z" fill="white"/>
<path d="M32.7026 21.0605C32.6644 22.2954 31.6544 23.2884 30.411 23.2884C29.1677 23.2884 28.1534 22.2954 28.1195 21.0605H12.1976C12.1594 22.2954 11.1494 23.2884 9.90604 23.2884C8.66267 23.2884 7.64845 22.2954 7.6145 21.0605H1.21094V21.2048C1.21094 21.5698 1.50799 21.8668 1.87294 21.8668H6.60029L6.7573 22.236C7.2835 23.4879 8.49717 24.2942 9.85511 24.2942C11.2131 24.2942 12.4267 23.4836 12.9529 22.236L13.1099 21.8668H27.2114L27.3684 22.236C27.8946 23.4879 29.1082 24.2942 30.4662 24.2942C31.8241 24.2942 33.0378 23.4836 33.564 22.236L33.721 21.8668H38.1301C38.495 21.8668 38.7921 21.5698 38.7921 21.2048V21.0605H32.7026Z" fill="#FF7D44"/>
<path d="M7.60992 20.9929C7.60992 19.7283 8.64111 18.6971 9.9057 18.6971C11.1703 18.6971 12.2015 19.7283 12.2015 20.9929C12.2015 21.0141 12.1972 21.0396 12.1972 21.0608H28.1149C28.1149 21.0396 28.1107 21.0141 28.1107 20.9929C28.1107 19.7283 29.1419 18.6971 30.4064 18.6971C31.671 18.6971 32.7022 19.7283 32.7022 20.9929C32.7022 21.0141 32.698 21.0396 32.698 21.0608H38.7833V20.8868C38.7833 20.5219 38.4862 20.2248 38.1213 20.2248H37.5229H33.7674H33.6995L33.5552 19.8217C33.0841 18.4934 31.828 17.598 30.4234 17.5853C29.0145 17.598 27.7584 18.4934 27.2916 19.8217L27.1474 20.2248H27.0795H24.7413H21.0706H13.1648L13.0205 19.8217C12.5452 18.4807 11.2721 17.5811 9.85477 17.5811C8.43318 17.5811 7.1601 18.4807 6.68906 19.8217L6.54478 20.2248H2.25876H1.87684C1.51189 20.2248 1.21484 20.5219 1.21484 20.8868V21.0608H7.61841C7.61416 21.0396 7.60992 21.0141 7.60992 20.9929Z" fill="#FF7D44"/>
<path d="M9.90276 19.9072C9.30442 19.9072 8.81641 20.3952 8.81641 20.9936C8.81641 21.5919 9.30442 22.0799 9.90276 22.0799C10.5011 22.0799 10.9891 21.5919 10.9891 20.9936C10.9891 20.3952 10.5011 19.9072 9.90276 19.9072Z" fill="white"/>
<path d="M9.90515 18.6973C8.64057 18.6973 7.60938 19.7285 7.60938 20.993C7.60938 21.0143 7.61362 21.0397 7.61362 21.0609C7.65181 22.2958 8.66178 23.2888 9.90515 23.2888C11.1485 23.2888 12.1627 22.2958 12.1967 21.0609C12.1967 21.0397 12.2009 21.0143 12.2009 20.993C12.2009 19.7285 11.174 18.6973 9.90515 18.6973ZM9.90515 22.0794C9.30681 22.0794 8.8188 21.5914 8.8188 20.993C8.8188 20.3947 9.30681 19.9067 9.90515 19.9067C10.5035 19.9067 10.9915 20.3947 10.9915 20.993C10.9915 21.5914 10.5035 22.0794 9.90515 22.0794Z" fill="#1C3F39"/>
<path d="M30.4106 19.9072C29.8122 19.9072 29.3242 20.3952 29.3242 20.9936C29.3242 21.5919 29.8122 22.0799 30.4106 22.0799C31.0089 22.0799 31.4969 21.5919 31.4969 20.9936C31.4969 20.3952 31.0089 19.9072 30.4106 19.9072Z" fill="white"/>
<path d="M30.4091 18.6973C29.1445 18.6973 28.1133 19.7285 28.1133 20.993C28.1133 21.0143 28.1175 21.0397 28.1175 21.0609C28.1557 22.2958 29.1657 23.2888 30.4091 23.2888C31.6524 23.2888 32.6666 22.2958 32.7006 21.0609C32.7006 21.0397 32.7048 21.0143 32.7048 20.993C32.7048 19.7285 31.6736 18.6973 30.4091 18.6973ZM30.4091 22.0794C29.8107 22.0794 29.3227 21.5914 29.3227 20.993C29.3227 20.3947 29.8107 19.9067 30.4091 19.9067C31.0074 19.9067 31.4954 20.3947 31.4954 20.993C31.4954 21.5914 31.0074 22.0794 30.4091 22.0794Z" fill="#1C3F39"/>
<path d="M6.02911 18.443C6.86086 17.1741 8.29094 16.3721 9.85258 16.3721C11.6391 16.3721 13.2517 17.416 13.9943 19.0159H20.8519V12.9688H2.46875V19.0159H5.7066C5.79996 18.8164 5.91029 18.6254 6.02911 18.443Z" fill="#FF7D44"/>
<path d="M24.7401 19.0156H26.2508C26.9935 17.4201 28.606 16.3719 30.3926 16.3719C30.4053 16.3719 30.4138 16.3719 30.4265 16.3719C30.4393 16.3719 30.4477 16.3719 30.4605 16.3719C32.247 16.3719 33.8596 17.4158 34.6022 19.0156H37.526C37.891 19.0156 38.188 18.7186 38.188 18.3536V14.9885H32.7987C31.8693 14.9885 31.1097 14.2713 31.1097 13.3887V10.1169C31.1097 9.90893 31.2752 9.74343 31.4832 9.74343H31.9457C32.1537 9.74343 32.3192 9.90893 32.3192 10.1169V13.3887C32.3192 13.6008 32.5398 13.7791 32.7987 13.7791H37.8867C37.0889 12.6206 35.0308 10.2611 33.8044 9.06445H24.0781V18.3536C24.0781 18.7186 24.3752 19.0156 24.7401 19.0156Z" fill="#FF7D44"/>
<path d="M32.9981 8.37305H24.0781V9.06051H33.8044C33.4522 8.71678 33.1636 8.46641 32.9981 8.37305Z" fill="white"/>
<path d="M39.1343 19.1451C39.3041 18.865 39.4017 18.534 39.4017 18.1861V14.0656C39.4017 13.8788 39.4017 13.3017 36.6603 10.1742C33.8765 7 33.3461 7 33.0914 7H24.0229C23.3864 7 22.8687 7.51772 22.8687 8.15425V18.1861C22.8687 18.4195 22.9153 18.6444 22.9917 18.8481H22.0666V12.5846C22.0666 12.0371 21.621 11.5916 21.0736 11.5916H2.25759C1.71016 11.5916 1.26459 12.0371 1.26459 12.5846V18.9499C0.530448 19.2045 0 19.9005 0 20.7195V21.0378C0 22.069 0.840229 22.9092 1.87142 22.9092H5.81371C6.59877 24.3987 8.14343 25.3407 9.8536 25.3407C11.5595 25.3407 13.1042 24.3987 13.8935 22.9092H26.4248C27.2098 24.3987 28.7545 25.3407 30.4647 25.3407C32.1706 25.3407 33.7153 24.3987 34.5046 22.9092H38.1286C39.1598 22.9092 40 22.069 40 21.0378V20.7195C40 20.0575 39.652 19.4761 39.1343 19.1451ZM38.1243 21.6998H33.7153L33.5582 22.069C33.032 23.3208 31.8184 24.1271 30.4604 24.1271C29.1025 24.1271 27.8888 23.3166 27.3626 22.069L27.2056 21.6998H13.1084L12.9514 22.069C12.4252 23.3208 11.2115 24.1271 9.8536 24.1271C8.49565 24.1271 7.28199 23.3166 6.75578 22.069L6.59877 21.6998H1.87142C1.50647 21.6998 1.20942 21.4027 1.20942 21.0378V20.8935V20.7195C1.20942 20.3545 1.50647 20.0575 1.87142 20.0575H2.25334H6.53936L6.68364 19.6544C7.15892 18.3134 8.42775 17.4137 9.84935 17.4137C11.271 17.4137 12.544 18.3134 13.0151 19.6544L13.1593 20.0575H21.0694H24.7401H27.0868H27.1547L27.299 19.6544C27.77 18.3261 29.0261 17.4307 30.4307 17.418C31.8396 17.4307 33.0957 18.3261 33.5625 19.6544L33.7068 20.0575H33.7747H37.5302H38.1286C38.4935 20.0575 38.7906 20.3545 38.7906 20.7195V20.8935V21.0378C38.7906 21.4027 38.4935 21.6998 38.1243 21.6998ZM24.0781 8.89264V8.20518H32.9981C33.1636 8.29854 33.4479 8.54891 33.8044 8.89264C35.0308 10.0893 37.0889 12.4488 37.8867 13.6073H32.7986C32.5398 13.6073 32.3191 13.429 32.3191 13.2168V9.94504C32.3191 9.73711 32.1536 9.57161 31.9457 9.57161H31.4831C31.2752 9.57161 31.1097 9.73711 31.1097 9.94504V13.2168C31.1097 14.0995 31.8651 14.8167 32.7986 14.8167H38.1922V18.1818C38.1922 18.5468 37.8952 18.8438 37.5302 18.8438H34.6064C33.8638 17.2482 32.2512 16.2001 30.4647 16.2001C30.4519 16.2001 30.4435 16.2001 30.4307 16.2001C30.418 16.2001 30.4095 16.2001 30.3968 16.2001C28.6102 16.2001 26.9977 17.244 26.255 18.8438H24.7401C24.3751 18.8438 24.0781 18.5468 24.0781 18.1818V8.89264ZM2.46976 12.801H20.853V18.8481H13.9953C13.2527 17.2525 11.6401 16.2043 9.8536 16.2043C8.29196 16.2043 6.86187 17.0064 6.03013 18.2752C5.91131 18.4577 5.80522 18.6486 5.71186 18.8481H2.46976V12.801Z" fill="#1C3F39"/>
<path d="M19.7765 6.13184H2.88281V9.84497H19.7765V6.13184Z" fill="#FF7D44"/>
<path d="M10.725 1.82493L2.88281 1.80371V4.92274H10.725V1.82493Z" fill="#FF7D44"/>
<path d="M10.725 1.20996H2.88281V1.80406L10.725 1.82528V1.20996Z" fill="white"/>
<path d="M19.7757 1.82493C19.7715 1.82493 19.7715 1.82493 19.7672 1.82493L11.9336 1.80371V4.92274H19.7757V1.82493Z" fill="#FF7D44"/>
<path d="M19.7757 1.8243V1.20898H11.9336V1.80309L19.7672 1.8243C19.7715 1.8243 19.7715 1.8243 19.7757 1.8243Z" fill="white"/>
<path d="M19.8259 0H2.83037C2.19384 0 1.67188 0.517717 1.67188 1.1585V9.89603C1.67188 10.5326 2.18959 11.0545 2.83037 11.0545H19.8259C20.4625 11.0545 20.9844 10.5368 20.9844 9.89603V1.1585C20.9844 0.517717 20.4667 0 19.8259 0ZM19.775 9.8451H2.8813V6.13197H19.775V9.8451ZM11.9329 1.80352V1.20942H19.775V1.82474V4.92255H11.9329V1.80352ZM2.8813 1.80352V1.20942H10.7234V1.82474V4.92255H2.8813V1.80352Z" fill="#1C3F39"/>
</svg>
