<svg width="60" height="60" viewBox="0 0 60 60" fill="none" xmlns="http://www.w3.org/2000/svg">
<path d="M38.1094 41.8691H24.0469C23.7982 41.8691 23.5598 41.9679 23.384 42.1437C23.2081 42.3195 23.1094 42.558 23.1094 42.8066V54.0566C23.1094 54.3053 23.2081 54.5437 23.384 54.7196C23.5598 54.8954 23.7982 54.9941 24.0469 54.9941H38.1094C38.358 54.9941 38.5965 54.8954 38.7723 54.7196C38.9481 54.5437 39.0469 54.3053 39.0469 54.0566V42.8066C39.0469 42.558 38.9481 42.3195 38.7723 42.1437C38.5965 41.9679 38.358 41.8691 38.1094 41.8691ZM37.1719 53.1191H24.9844V43.7441H30.1406V44.6816C30.1406 44.9303 30.2394 45.1687 30.4152 45.3446C30.591 45.5204 30.8295 45.6191 31.0781 45.6191C31.3268 45.6191 31.5652 45.5204 31.741 45.3446C31.9169 45.1687 32.0156 44.9303 32.0156 44.6816V43.7441H37.1719V53.1191Z" fill="#FF7D44"/>
<path d="M54.9844 41.8691H40.9219C40.6732 41.8691 40.4348 41.9679 40.259 42.1437C40.0831 42.3195 39.9844 42.558 39.9844 42.8066V54.0566C39.9844 54.3053 40.0831 54.5437 40.259 54.7196C40.4348 54.8954 40.6732 54.9941 40.9219 54.9941H54.9844C55.233 54.9941 55.4715 54.8954 55.6473 54.7196C55.8231 54.5437 55.9219 54.3053 55.9219 54.0566V42.8066C55.9219 42.558 55.8231 42.3195 55.6473 42.1437C55.4715 41.9679 55.233 41.8691 54.9844 41.8691ZM54.0469 53.1191H41.8594V43.7441H47.0156V44.6816C47.0156 44.9303 47.1144 45.1687 47.2902 45.3446C47.466 45.5204 47.7045 45.6191 47.9531 45.6191C48.2018 45.6191 48.4402 45.5204 48.616 45.3446C48.7919 45.1687 48.8906 44.9303 48.8906 44.6816V43.7441H54.0469V53.1191Z" fill="#FF7D44"/>
<path d="M54.9844 27.8066H40.9219C40.6732 27.8066 40.4348 27.9054 40.259 28.0812C40.0831 28.257 39.9844 28.4955 39.9844 28.7441V39.9941C39.9844 40.2428 40.0831 40.4812 40.259 40.6571C40.4348 40.8329 40.6732 40.9316 40.9219 40.9316H54.9844C55.233 40.9316 55.4715 40.8329 55.6473 40.6571C55.8231 40.4812 55.9219 40.2428 55.9219 39.9941V28.7441C55.9219 28.4955 55.8231 28.257 55.6473 28.0812C55.4715 27.9054 55.233 27.8066 54.9844 27.8066ZM54.0469 39.0566H41.8594V29.6816H47.0156V30.6191C47.0156 30.8678 47.1144 31.1062 47.2902 31.2821C47.466 31.4579 47.7045 31.5566 47.9531 31.5566C48.2018 31.5566 48.4402 31.4579 48.616 31.2821C48.7919 31.1062 48.8906 30.8678 48.8906 30.6191V29.6816H54.0469V39.0566Z" fill="#FF7D44"/>
<path d="M40.7999 25.9033C40.9196 25.8717 41.0319 25.8168 41.1303 25.7416C41.2286 25.6665 41.3111 25.5726 41.373 25.4654C41.4349 25.3582 41.4749 25.2398 41.4908 25.117C41.5067 24.9943 41.4981 24.8696 41.4656 24.7501L40.6406 21.6658L43.4531 19.2939L43.5281 19.2283C45.4016 17.256 46.8025 14.8838 47.6249 12.2908C48.2737 10.2378 48.5437 8.08405 48.4218 5.93451C48.4089 5.70816 48.3144 5.49416 48.1558 5.33213C47.9973 5.1701 47.7853 5.07103 47.5593 5.05326C45.4401 4.89921 43.3107 5.13758 41.2781 5.75638C38.6068 6.58881 36.1735 8.04817 34.1812 10.0126L31.7999 12.8251L26.2499 11.3158C26.4246 11.1401 26.5226 10.9025 26.5226 10.6548C26.5226 10.4071 26.4246 10.1695 26.2499 9.99388C26.1628 9.90601 26.0591 9.83627 25.9449 9.78867C25.8306 9.74108 25.7081 9.71657 25.5843 9.71657C25.4606 9.71657 25.338 9.74108 25.2238 9.78867C25.1095 9.83627 25.0058 9.90601 24.9187 9.99388L24.2624 10.6501C24.2249 10.6979 24.1905 10.748 24.1593 10.8001L19.9406 9.66576L20.2781 9.32826C20.3659 9.24111 20.4357 9.13742 20.4833 9.02317C20.5309 8.90893 20.5554 8.78639 20.5554 8.66263C20.5554 8.53887 20.5309 8.41634 20.4833 8.30209C20.4357 8.18785 20.3659 8.08416 20.2781 7.99701C20.1024 7.8224 19.8648 7.72439 19.6171 7.72439C19.3695 7.72439 19.1318 7.8224 18.9562 7.99701L17.8124 9.08451L9.74057 6.92826C9.54115 6.87318 9.32911 6.88561 9.13749 6.96361C8.94587 7.04161 8.78544 7.18081 8.68119 7.35951L6.49681 11.2501C6.43352 11.3562 6.39183 11.4738 6.37413 11.5961C6.35644 11.7184 6.36308 11.8429 6.39369 11.9626C6.4268 12.0831 6.48366 12.1958 6.56094 12.294C6.63822 12.3922 6.73435 12.474 6.84369 12.5345L23.7937 22.1908L14.4187 33.1595L6.41244 32.3064C6.24427 32.2887 6.07444 32.3168 5.92095 32.3878C5.76746 32.4588 5.63602 32.5699 5.54056 32.7095L4.23744 34.6033C4.16053 34.7175 4.10973 34.8473 4.08867 34.9834C4.0676 35.1195 4.07679 35.2586 4.11556 35.3908C4.15259 35.5223 4.21792 35.6442 4.30699 35.7478C4.39606 35.8515 4.50671 35.9344 4.63119 35.9908L11.6624 39.1314L14.3156 41.7845L17.4562 48.8158C17.5126 48.9402 17.5955 49.0509 17.6991 49.14C17.8028 49.229 17.9246 49.2944 18.0562 49.3314C18.14 49.345 18.2255 49.345 18.3093 49.3314C18.499 49.3303 18.6844 49.275 18.8437 49.172L20.7843 47.8501C20.9254 47.7539 21.0375 47.6209 21.1086 47.4656C21.1796 47.3103 21.2069 47.1386 21.1874 46.9689L20.3343 38.9814L29.3624 31.2658L31.2937 29.6158L36.3562 38.5033C36.4174 38.6107 36.4993 38.7049 36.5972 38.7806C36.695 38.8562 36.8068 38.9118 36.9262 38.944C37.0456 38.9762 37.1701 38.9845 37.2928 38.9684C37.4154 38.9523 37.5336 38.9121 37.6406 38.8501C37.855 38.7265 38.0118 38.523 38.0768 38.2841C38.1418 38.0453 38.1097 37.7904 37.9874 37.5751L32.7468 28.4064L39.0562 23.0158L39.6562 25.2376C39.72 25.4773 39.8762 25.6819 40.0906 25.8067C40.3049 25.9315 40.56 25.9662 40.7999 25.9033ZM8.58744 11.3251L9.98431 8.92513L30.4218 14.3814L25.0312 20.7001L8.58744 11.3251ZM38.9718 20.6251L30.9374 27.4783L28.1249 29.8689L18.7499 37.9126C18.6344 38.0124 18.545 38.1388 18.4895 38.2809C18.4339 38.4231 18.4139 38.5766 18.4312 38.7283L19.2749 46.6501L18.7218 47.0251L15.9374 40.8564C15.8897 40.7513 15.8229 40.656 15.7406 40.5751L12.8437 37.6783C12.7649 37.6002 12.6728 37.5367 12.5718 37.4908L6.42181 34.7345L6.79681 34.1814L14.7281 35.0251C14.8797 35.0424 15.0332 35.0224 15.1754 34.9668C15.3175 34.9113 15.4439 34.8219 15.5437 34.7064L32.8124 14.447L35.4937 11.3158C37.2548 9.5828 39.4055 8.29693 41.7656 7.56576C43.3039 7.08893 44.9085 6.86106 46.5187 6.89076C46.5264 8.53514 46.2765 10.1706 45.7781 11.7376C45.0617 14.0356 43.8341 16.1414 42.1874 17.897L38.9718 20.6251Z" fill="#FF7D44"/>
<path d="M37.5654 17.2127L27.6185 25.8283C27.4395 25.9936 27.3318 26.222 27.3183 26.4653C27.3048 26.7086 27.3866 26.9475 27.5462 27.1316C27.7059 27.3156 27.9309 27.4302 28.1737 27.4512C28.4164 27.4722 28.6578 27.3979 28.8466 27.244L38.7935 18.6283C38.9725 18.4631 39.0802 18.2346 39.0937 17.9914C39.1072 17.7481 39.0254 17.5091 38.8658 17.3251C38.7061 17.1411 38.4811 17.0264 38.2383 17.0054C37.9956 16.9845 37.7542 17.0588 37.5654 17.2127Z" fill="#FF7D44"/>
<path d="M17.653 34.4715L15.778 36.3465C15.6034 36.5222 15.5054 36.7598 15.5054 37.0075C15.5054 37.2551 15.6034 37.4927 15.778 37.6684C15.9511 37.845 16.187 37.9461 16.4342 37.9496C16.5583 37.9491 16.681 37.924 16.7952 37.8757C16.9095 37.8275 17.013 37.757 17.0999 37.6684L18.9749 35.7934C19.1285 35.6141 19.2087 35.3834 19.1996 35.1474C19.1905 34.9115 19.0927 34.6876 18.9257 34.5207C18.7587 34.3537 18.5349 34.2559 18.299 34.2468C18.063 34.2377 17.8323 34.3179 17.653 34.4715Z" fill="#FF7D44"/>
</svg>
