<svg width="46" height="32" viewBox="0 0 46 32" fill="none" xmlns="http://www.w3.org/2000/svg">
<path d="M8.93706 29.6737C9.29689 29.8871 9.7153 30.0126 10.1588 30.0126C11.4852 30.0126 12.5605 28.9373 12.5605 27.611C12.5605 27.1633 12.435 26.7449 12.2258 26.3892C11.8157 26.0294 11.276 25.8076 10.6902 25.8076C9.40149 25.8076 8.35547 26.8536 8.35547 28.1423C8.35547 28.7239 8.57723 29.2637 8.93706 29.6737ZM10.6902 26.4896C11.5981 26.4896 12.3345 27.226 12.3345 28.134C12.3345 29.0419 11.5981 29.7783 10.6902 29.7783C9.78225 29.7783 9.04585 29.0419 9.04585 28.134C9.04585 27.2302 9.78225 26.4896 10.6902 26.4896Z" fill="#FF7D44"/>
<path d="M24.2689 10.6691V2.94946C24.2689 2.52269 24.1518 2.12938 23.9635 1.82812H23.6999C23.3902 1.82812 23.043 2.30511 23.043 2.94946V10.7193C23.3233 10.6817 23.612 10.6649 23.9007 10.6649C24.022 10.6608 24.1434 10.6649 24.2689 10.6691Z" fill="#FF7D44"/>
<path d="M24.2667 10.6691C24.4549 10.6817 24.639 10.6984 24.8231 10.7235V2.94946C24.8231 2.3093 24.4759 1.82812 24.1662 1.82812H23.957C24.1495 2.12938 24.2625 2.52269 24.2625 2.94946V10.6691H24.2667Z" fill="white"/>
<path d="M17.0069 15.5604C17.1408 15.2508 17.2914 14.9537 17.4588 14.665H8.11567C7.86881 14.665 7.66797 14.8659 7.66797 15.1127C7.66797 15.3596 7.86881 15.5604 8.11567 15.5604H17.0069Z" fill="#FF7D44"/>
<path d="M39.7122 15.5604C39.9591 15.5604 40.1599 15.3596 40.1599 15.1127C40.1599 14.8659 39.9591 14.665 39.7122 14.665H30.3398C30.503 14.9537 30.6537 15.2508 30.7917 15.5604H39.7122Z" fill="#FF7D44"/>
<path d="M2.13281 22.4268C2.39223 23.2803 3.62235 23.9498 5.04495 23.9498H17.1788C16.9403 23.4686 16.7437 22.9581 16.5889 22.4268H2.13281Z" fill="#FF7D44"/>
<path d="M30.6133 23.9498H42.7304C44.153 23.9498 45.3832 23.2803 45.6426 22.4268H31.2074C31.0484 22.9581 30.8518 23.4686 30.6133 23.9498Z" fill="#FF7D44"/>
<path d="M23.8986 27.2886C24.4927 27.2886 25.0659 27.1924 25.6099 27.0167C27.953 25.6568 29.5638 22.8326 29.5638 19.5732C29.5638 16.3096 27.953 13.4895 25.6099 12.1255C25.0617 11.9497 24.4885 11.8535 23.8944 11.8535C20.2961 11.8535 17.3672 15.3138 17.3672 19.569C17.3714 23.8242 20.3002 27.2886 23.8986 27.2886ZM19.8902 16.8368C19.8902 15.7196 20.7981 14.8117 21.9195 14.8117H25.8776C26.9948 14.8117 27.9069 15.7196 27.9069 16.8368V20.2175C27.9069 21.3347 26.999 22.2468 25.8776 22.2468H21.9195C20.8023 22.2468 19.8902 21.3389 19.8902 20.2175V16.8368Z" fill="#FF7D44"/>
<path d="M29.5633 19.5688C29.5633 22.8324 27.9525 25.6525 25.6094 27.0123C28.3792 26.1211 30.4211 23.1211 30.4211 19.5646C30.4211 16.0123 28.3792 13.0123 25.6094 12.1211C27.9525 13.4851 29.5633 16.3052 29.5633 19.5688Z" fill="white"/>
<path d="M21.9189 21.0505H25.7222C25.8937 20.8162 25.9942 20.5275 25.9942 20.2137V16.8329C25.9942 16.5233 25.8937 16.2346 25.7222 15.9961H21.9147C21.4544 15.9961 21.082 16.3727 21.082 16.8287V20.2095C21.082 20.6739 21.4586 21.0505 21.9189 21.0505Z" fill="#FF7D44"/>
<path d="M25.9946 20.2131C25.9946 20.5227 25.8942 20.8114 25.7227 21.0499H25.8775C26.3377 21.0499 26.7101 20.6775 26.7101 20.2173V16.8365C26.7101 16.3763 26.3335 16.0039 25.8775 16.0039H25.7227C25.8942 16.2382 25.9946 16.5269 25.9946 16.8407V20.2131Z" fill="white"/>
<path d="M35.5936 29.673C35.9534 29.8864 36.3718 30.0078 36.8153 30.0078C38.1417 30.0078 39.217 28.9324 39.217 27.6061C39.217 27.1584 39.0915 26.74 38.8781 26.3843C38.4681 26.0245 37.9325 25.8027 37.3425 25.8027C36.0538 25.8027 35.0078 26.8488 35.0078 28.1375C35.012 28.7232 35.2296 29.263 35.5936 29.673ZM37.3425 26.4889C38.2505 26.4889 38.9869 27.2253 38.9869 28.1333C38.9869 29.0412 38.2505 29.7776 37.3425 29.7776C36.4346 29.7776 35.6982 29.0412 35.6982 28.1333C35.6982 27.2295 36.4346 26.4889 37.3425 26.4889Z" fill="#FF7D44"/>
<path d="M36.8155 30.0082C36.3678 30.0082 35.9494 29.8827 35.5938 29.6735C36.0205 30.1588 36.6481 30.4726 37.3469 30.4726C38.6356 30.4726 39.6816 29.4266 39.6816 28.1379C39.6816 27.4392 39.372 26.8115 38.8825 26.3848C39.0958 26.7446 39.2214 27.163 39.2214 27.6065C39.2172 28.9329 38.1419 30.0082 36.8155 30.0082Z" fill="white"/>
<path d="M10.1632 30.0085C9.71546 30.0085 9.29705 29.8829 8.94141 29.6696C9.36818 30.1591 9.9958 30.4687 10.6945 30.4687C11.9832 30.4687 13.0293 29.4227 13.0293 28.134C13.0293 27.4353 12.7196 26.8118 12.2343 26.3809C12.4477 26.7407 12.569 27.1591 12.569 27.6026C12.5648 28.9332 11.4895 30.0085 10.1632 30.0085Z" fill="white"/>
<path d="M37.3425 28.5893C37.5936 28.5893 37.7944 28.3843 37.7944 28.1374C37.7944 27.8864 37.5894 27.6855 37.3425 27.6855C37.0915 27.6855 36.8906 27.8906 36.8906 28.1374C36.8906 28.3843 37.0956 28.5893 37.3425 28.5893Z" fill="white"/>
<path d="M37.3436 29.7828C38.2515 29.7828 38.9879 29.0464 38.9879 28.1385C38.9879 27.2305 38.2515 26.4941 37.3436 26.4941C36.4356 26.4941 35.6992 27.2305 35.6992 28.1385C35.6992 29.0423 36.4356 29.7828 37.3436 29.7828ZM37.3436 27.6824C37.5946 27.6824 37.7955 27.8874 37.7955 28.1343C37.7955 28.3854 37.5904 28.5862 37.3436 28.5862C37.0925 28.5862 36.8917 28.3812 36.8917 28.1343C36.8917 27.8874 37.0967 27.6824 37.3436 27.6824Z" fill="#1C3F39"/>
<path d="M10.6902 28.5893C10.9412 28.5893 11.142 28.3843 11.142 28.1374C11.142 27.8864 10.937 27.6855 10.6902 27.6855C10.4391 27.6855 10.2383 27.8906 10.2383 28.1374C10.2383 28.3843 10.4391 28.5893 10.6902 28.5893Z" fill="white"/>
<path d="M10.6912 29.7828C11.5992 29.7828 12.3356 29.0464 12.3356 28.1385C12.3356 27.2305 11.5992 26.4941 10.6912 26.4941C9.78328 26.4941 9.04688 27.2305 9.04688 28.1385C9.04687 29.0423 9.78328 29.7828 10.6912 29.7828ZM10.6912 27.6824C10.9423 27.6824 11.1431 27.8874 11.1431 28.1343C11.1431 28.3854 10.9381 28.5862 10.6912 28.5862C10.4402 28.5862 10.2393 28.3812 10.2393 28.1343C10.2393 27.8874 10.4402 27.6824 10.6912 27.6824Z" fill="#1C3F39"/>
<path d="M21.9199 22.2428H25.8781C26.9952 22.2428 27.9074 21.3348 27.9074 20.2135V16.8327C27.9074 15.7156 26.9994 14.8076 25.8781 14.8076H21.9199C20.8028 14.8076 19.8906 15.7156 19.8906 16.8327V20.2135C19.8906 21.3348 20.8028 22.2428 21.9199 22.2428ZM21.0831 16.8369C21.0831 16.3767 21.4597 16.0043 21.9157 16.0043H25.7233H25.8781C26.3383 16.0043 26.7107 16.3808 26.7107 16.8369V20.2177C26.7107 20.6779 26.3341 21.0503 25.8781 21.0503H25.7233H21.9199C21.4597 21.0503 21.0873 20.6779 21.0873 20.2177V16.8369H21.0831Z" fill="#1C3F39"/>
<path d="M45.9157 21.2341H31.4806C31.5684 20.6943 31.6187 20.1378 31.6187 19.5688C31.6187 18.5855 31.4764 17.6399 31.2212 16.7529H39.7149C40.6187 16.7529 41.3551 16.0165 41.3551 15.1127C41.3551 14.209 40.6187 13.4726 39.7149 13.4726H29.5182C28.5768 12.3177 27.3718 11.4516 26.0161 11.0039V2.94955C26.0161 1.6734 25.1877 0.635742 24.1668 0.635742H23.6982C22.6772 0.635742 21.8488 1.6734 21.8488 2.94955V10.983C20.4638 11.4223 19.2379 12.301 18.2797 13.4726H8.11657C7.2128 13.4726 6.4764 14.209 6.4764 15.1127C6.4764 16.0165 7.2128 16.7529 8.11657 16.7529H16.5768C16.3216 17.6399 16.1793 18.5855 16.1793 19.5688C16.1793 20.1378 16.2295 20.6943 16.3174 21.2341H1.86134C1.3174 21.2341 0.890625 21.6106 0.890625 22.0876C0.890625 23.7696 2.75673 25.142 5.04544 25.142H8.83205C7.83205 25.7654 7.16678 26.8742 7.16678 28.1378C7.16678 30.0834 8.74836 31.665 10.694 31.665C12.6396 31.665 14.2212 30.0834 14.2212 28.1378C14.2212 26.8742 13.5559 25.7654 12.5559 25.142H17.8906C19.3048 27.1755 21.4764 28.4809 23.9074 28.4809C26.3383 28.4809 28.5057 27.1755 29.9241 25.142H35.4973C34.4973 25.7654 33.832 26.8742 33.832 28.1378C33.832 30.0834 35.4136 31.665 37.3592 31.665C39.3048 31.665 40.8864 30.0834 40.8864 28.1378C40.8864 26.8742 40.2212 25.7654 39.2212 25.142H42.7525C45.0454 25.142 46.9074 23.7738 46.9074 22.0876C46.8906 21.6106 46.4638 21.2341 45.9157 21.2341ZM42.7358 23.9495H30.6145C30.853 23.4684 31.0496 22.9579 31.2044 22.4265H45.6438C45.3843 23.2801 44.1584 23.9495 42.7358 23.9495ZM37.3425 25.8031C37.9325 25.8031 38.468 26.0248 38.8781 26.3847C39.3676 26.8115 39.6772 27.4391 39.6772 28.1378C39.6772 29.4265 38.6312 30.4725 37.3425 30.4725C36.6438 30.4725 36.0203 30.1629 35.5894 29.6734C35.2295 29.2633 35.0078 28.7236 35.0078 28.1378C35.012 26.8491 36.058 25.8031 37.3425 25.8031ZM10.6898 25.8031C11.2797 25.8031 11.8153 26.0248 12.2254 26.3847C12.7107 26.8115 13.0203 27.4391 13.0203 28.1378C13.0203 29.4265 11.9743 30.4725 10.6856 30.4725C9.98686 30.4725 9.36343 30.1629 8.93246 29.6734C8.57263 29.2633 8.35088 28.7236 8.35088 28.1378C8.35506 26.8491 9.40527 25.8031 10.6898 25.8031ZM5.04544 23.9495C3.62284 23.9495 2.39272 23.2801 2.1333 22.4265H16.5894C16.7442 22.9579 16.945 23.4684 17.1793 23.9495H5.04544ZM7.66887 15.1127C7.66887 14.8659 7.8697 14.665 8.11657 14.665H17.4597C17.2965 14.9537 17.1459 15.2508 17.0078 15.5604H8.11657C7.8697 15.5604 7.66887 15.3596 7.66887 15.1127ZM23.0413 2.94955C23.0413 2.30938 23.3885 1.82821 23.6982 1.82821H23.9618H24.171C24.4806 1.82821 24.8279 2.3052 24.8279 2.94955V10.7278C24.6438 10.7027 24.4597 10.6859 24.2714 10.6734C24.15 10.665 24.0287 10.6608 23.9032 10.6608C23.6145 10.6608 23.3258 10.6818 23.0454 10.7152V2.94955H23.0413ZM23.899 11.8533C24.4931 11.8533 25.0664 11.9495 25.6145 12.1253C28.3843 13.0165 30.4262 16.0165 30.4262 19.5688C30.4262 23.1253 28.3843 26.1211 25.6145 27.0165C25.0664 27.1922 24.4931 27.2884 23.9032 27.2884C20.3048 27.2884 17.376 23.8282 17.376 19.573C17.3718 15.3136 20.3007 11.8533 23.899 11.8533ZM39.7107 14.665C39.9576 14.665 40.1584 14.8659 40.1584 15.1127C40.1584 15.3596 39.9576 15.5604 39.7107 15.5604H30.786C30.6521 15.2508 30.5015 14.9537 30.3341 14.665H39.7107Z" fill="#1C3F39"/>
</svg>
