<svg width="146" height="28" viewBox="0 0 146 28" fill="none" xmlns="http://www.w3.org/2000/svg">
<path d="M14.3111 19.6934L12.1121 23.5182L9.91309 27.343H17.0274L19.2269 23.5182L21.4259 19.6934H14.3111Z" fill="#798393"/>
<path d="M23.7417 19.6934L21.5427 23.5182L19.3438 27.343H26.458L28.6576 23.5182L30.8566 19.6934H23.7417Z" fill="#798393"/>
<path d="M33.1724 19.6934L30.9734 23.5182L28.7744 27.343H35.8887L38.0882 23.5182L40.2872 19.6934H33.1724Z" fill="#798393"/>
<path d="M42.6031 19.6934L40.4041 23.5182L38.2051 27.343H45.3193L47.5189 23.5182L49.7179 19.6934H42.6031Z" fill="#798393"/>
<path d="M4.47368 19.6934L2.26565 23.5182L0.0576172 27.343H7.59655L9.79611 23.5182L11.9951 19.6934H4.47368Z" fill="#798393"/>
<path d="M117.174 22.4022C117.068 22.3525 117.054 22.3525 116.389 22.3457H114.366V23.5056H116.389C117.097 23.4915 117.097 23.4915 117.195 23.435C117.323 23.3571 117.365 23.2159 117.365 22.9115C117.365 22.6072 117.308 22.466 117.174 22.4022Z" fill="#798393"/>
<path d="M107.25 22.3954C107.152 22.353 107.137 22.353 106.494 22.3457H104.697V23.548H106.494C107.144 23.5406 107.172 23.5406 107.293 23.4774C107.434 23.3995 107.484 23.2651 107.484 22.933C107.484 22.6004 107.427 22.4666 107.25 22.3954Z" fill="#798393"/>
<path d="M97.6027 22.4022C97.4965 22.3525 97.4824 22.3525 96.8177 22.3457H94.7949V23.5056H96.8177C97.5253 23.4915 97.5253 23.4915 97.6241 23.435C97.7518 23.3571 97.7941 23.2159 97.7941 22.9115C97.7936 22.6072 97.7371 22.466 97.6027 22.4022Z" fill="#798393"/>
<path d="M52.6066 19.7041L48.4746 27.3419H145.359V19.7041H52.6066ZM60.128 25.8821H54.8802V21.1645H60.0998V22.2747H56.2948V22.9608H59.9089V24.0004H56.2948V24.7504H60.1286V25.8821H60.128ZM70.6814 25.8821H68.1848L65.7023 22.3667H65.5465L65.5821 25.8821H64.1177V21.1645H66.6358L69.1042 24.6798H69.2527L69.2171 21.1645H70.6814V25.8821ZM80.2516 22.3667H78.1509V25.8821H76.6442V22.3667H74.5435V21.1645H80.2516V22.3667ZM89.3689 25.8821H84.1205V21.1645H89.3407V22.2747H85.5351V22.9608H89.1493V24.0004H85.5351V24.7504H89.3689V25.8821ZM99.1797 25.4433V25.8821H97.7651V25.6347C97.7651 25.1045 97.7369 24.9345 97.6233 24.8142C97.5245 24.7007 97.4184 24.6866 96.8243 24.6866H94.7941V25.8821H93.3581V21.1645H96.8311C98.458 21.1645 98.458 21.1645 98.7618 21.3485C99.1227 21.5677 99.2288 21.8862 99.2288 22.6993C99.2288 23.3781 99.1582 23.6469 98.9244 23.8451C98.7827 23.9581 98.6489 24.0151 98.3518 24.0575C99.0809 24.1422 99.2079 24.3545 99.1797 25.4433ZM108.199 24.581C107.88 24.7013 107.555 24.7295 106.508 24.7295H104.698V25.8821H103.261V21.1645H106.494C107.343 21.1645 107.484 21.1718 107.725 21.2C108.658 21.3277 108.92 21.7021 108.92 22.9331C108.92 23.9581 108.743 24.3686 108.199 24.581ZM118.752 25.4433V25.8821H117.338V25.6347C117.338 25.1045 117.309 24.9345 117.196 24.8142C117.097 24.7007 116.991 24.6866 116.397 24.6866H114.367V25.8821H112.93V21.1645H116.403C118.03 21.1645 118.03 21.1645 118.334 21.3485C118.695 21.5677 118.801 21.8862 118.801 22.6993C118.801 23.3781 118.731 23.6469 118.497 23.8451C118.355 23.9581 118.221 24.0151 117.924 24.0575C118.653 24.1422 118.78 24.3545 118.752 25.4433ZM124.34 25.8821H122.833V21.1645H124.34V25.8821ZM133.5 25.79C133.209 25.9103 132.63 25.9527 131.172 25.9527C129.765 25.9527 129.178 25.8888 128.838 25.698C128.485 25.4998 128.371 25.2168 128.371 24.5448V24.3184H129.765C129.765 24.6013 129.793 24.6933 129.907 24.7639C130.041 24.8486 130.197 24.8628 131.209 24.8628C132.298 24.8628 132.461 24.8554 132.595 24.7989C132.701 24.7493 132.751 24.6431 132.751 24.4454C132.751 24.1625 132.638 24.0919 132.178 24.0846C132.022 24.0846 131.556 24.0631 131.053 24.0422C130.537 24.014 130.056 23.9925 129.907 23.9925C129.221 23.9711 128.889 23.8723 128.677 23.6317C128.5 23.4194 128.415 23.1155 128.415 22.6417C128.415 21.9415 128.578 21.5174 128.911 21.3333C129.278 21.1351 129.689 21.0927 131.393 21.0927C132.709 21.0927 133.204 21.1565 133.544 21.3542C133.848 21.5451 133.975 21.8494 133.975 22.4294C133.975 22.4576 133.975 22.557 133.968 22.6485H132.581C132.574 22.4153 132.553 22.3515 132.475 22.2809C132.362 22.1888 132.199 22.1747 131.117 22.1747C129.907 22.1747 129.809 22.203 129.809 22.5497C129.809 22.7197 129.872 22.8112 130.007 22.8541C130.134 22.8897 130.502 22.9105 131.534 22.9388C133.055 22.9811 133.373 23.0235 133.67 23.2002C134.017 23.4052 134.144 23.7237 134.144 24.4025C134.143 25.2033 133.959 25.6059 133.5 25.79ZM143.431 25.8821H138.182V21.1645H143.402V22.2747H139.597V22.9608H143.211V24.0004H139.597V24.7504H143.431V25.8821Z" fill="#798393"/>
<path d="M17.4313 0.357422V4.00717H11.0551V14.6769H6.48263V4.00717H0.106445V0.357422H17.4313Z" fill="#798393"/>
<path d="M18.4395 0.357422H28.9804C33.9183 0.357422 33.9183 0.357422 34.841 0.915359C35.936 1.58116 36.2579 2.54682 36.2579 5.01574C36.2579 7.07638 36.0433 7.8924 35.3346 8.49325C34.9054 8.8366 34.4971 9.00827 33.5958 9.13759C35.8072 9.3951 36.1935 10.0394 36.1077 13.3453V14.6763H31.8141V13.9247C31.8141 12.3147 31.7283 11.7996 31.385 11.4343C31.0845 11.0909 30.7626 11.048 28.9589 11.048H22.7979V14.6763H18.44V0.357422H18.4395ZM28.9375 7.46321C31.084 7.4203 31.084 7.4203 31.385 7.24862C31.7712 7.01257 31.9 6.58282 31.9 5.66008C31.9 4.73678 31.7283 4.30759 31.3206 4.11446C30.9987 3.96425 30.9558 3.96425 28.9375 3.94279H22.7973V7.46378H28.9375V7.46321Z" fill="#798393"/>
<path d="M42.0958 0.357422V6.94819C42.1387 9.20253 42.1387 9.22399 42.246 9.80339C42.482 10.9413 43.3195 11.1773 47.0331 11.1773C50.017 11.1773 50.9403 11.0486 51.4124 10.5336C51.7558 10.1688 51.8416 9.78249 51.9274 8.5373C51.9489 8.00082 51.9704 7.27065 51.9704 6.94876V0.357422H56.3282V6.94819C56.2639 10.1897 56.2424 10.4263 56.1137 11.4348C55.8776 13.0663 54.7826 14.2042 53.1512 14.5475C51.8631 14.8051 50.3389 14.8909 47.0974 14.8909C41.666 14.8909 39.9058 14.5905 38.8323 13.4526C38.1456 12.7444 37.909 11.9069 37.8017 9.93214C37.7588 9.35275 37.7588 9.35275 37.7373 6.94819V0.357422H42.0958Z" fill="#798393"/>
<path d="M76.2509 9.1588C76.2724 9.97481 76.2938 10.2967 76.2938 10.5113C76.2938 12.7651 75.7144 13.8171 74.2332 14.3542C73.0738 14.7404 71.4853 14.8906 68.2009 14.8906C62.748 14.8906 60.9449 14.719 59.7641 14.1181C58.712 13.5816 58.2399 12.7442 58.0683 11.1342C58.0253 10.4904 57.9824 9.26666 57.9824 7.61374C57.9824 4.32937 58.0897 3.12709 58.4331 2.31108C59.2479 0.507383 60.8794 0.142578 68.2218 0.142578C71.893 0.142578 73.267 0.271333 74.2326 0.743998C75.5422 1.36631 76.0143 2.41837 76.0143 4.78001V5.48816H71.6564C71.6135 4.65069 71.5706 4.45756 71.3989 4.22151C71.2272 3.98545 70.8839 3.87816 69.9391 3.81378C69.2524 3.77086 67.9643 3.72795 66.9766 3.72795C64.2716 3.72795 63.4771 3.81378 63.0264 4.17859C62.5114 4.58631 62.3398 5.44524 62.3398 7.59228C62.3398 11.242 62.4041 11.3064 67.0195 11.3064C71.7857 11.3064 71.8501 11.2849 71.8716 9.15936H76.2509V9.1588Z" fill="#798393"/>
<path d="M82.1528 0.357321V5.55269H84.5359L90.2034 0.271484H96.88L88.5934 7.37728L97.5672 14.6762H90.955L84.5359 9.20187H82.1528V14.6762H77.7949V0.357321H82.1528Z" fill="#798393"/>
<path d="M102.718 0.357422V14.6763H98.1455V0.357422H102.718Z" fill="#798393"/>
<path d="M112.379 0.357422L119.871 11.0271H120.322L120.215 0.357422H124.658V14.6763H117.08L109.545 4.00717H109.073L109.18 14.6769H104.736V0.357422H112.379Z" fill="#798393"/>
<path d="M145.309 6.56168V6.94794C145.309 8.32189 145.223 10.8123 145.159 11.499C144.987 13.1733 144.064 14.161 142.347 14.5044C140.865 14.8048 139.341 14.8906 135.477 14.8906C130.583 14.8906 129.036 14.6975 127.835 13.8815C126.568 13.044 126.332 11.9925 126.332 7.29072C126.332 3.42639 126.697 1.98806 127.899 1.15116C128.929 0.421547 131.248 0.142578 136.25 0.142578C141.552 0.142578 143.548 0.507383 144.493 1.62382C145.095 2.33197 145.266 3.21236 145.288 5.31592H140.93C140.908 4.50047 140.866 4.30678 140.587 4.11364C140.157 3.81322 139.127 3.72738 135.864 3.72738C130.711 3.72738 130.69 3.74884 130.69 7.46296C130.69 9.84605 130.819 10.64 131.313 11.0054C131.656 11.2844 132.021 11.3702 133.18 11.4131L135.842 11.4561C139.556 11.4561 140.35 11.3917 140.759 11.0263C140.995 10.7903 141.059 10.5327 141.059 9.41631H135.327V6.56111H145.309V6.56168Z" fill="#798393"/>
</svg>
