<svg width="16" height="17" viewBox="0 0 16 17" fill="none" xmlns="http://www.w3.org/2000/svg">
<path d="M15.9147 8.38216C15.9147 12.7273 12.3625 16.2478 8.04905 16.2478C3.70392 16.2478 0.183418 12.7273 0.183418 8.38216C0.183418 4.06875 3.70392 0.516526 8.04905 0.516526C12.3625 0.516526 15.9147 4.06875 15.9147 8.38216ZM7.12928 12.5687L12.9651 6.73291C13.1554 6.54262 13.1554 6.19374 12.9651 6.00344L12.2356 5.30568C12.0453 5.08367 11.7281 5.08367 11.5378 5.30568L6.7804 10.0631L4.52854 7.84298C4.33825 7.62097 4.02108 7.62097 3.83079 7.84298L3.10131 8.54074C2.91102 8.73104 2.91102 9.07992 3.10131 9.27021L6.3998 12.5687C6.5901 12.759 6.93898 12.759 7.12928 12.5687Z" fill="#FF7D44"/>
</svg>
